%TF.GenerationSoftware,Novarm,DipTrace,3.3.1.3*%
%TF.CreationDate,2023-12-10T18:24:29+00:00*%
%FSLAX35Y35*%
%MOMM*%
%TF.FileFunction,Copper,L2,Bot*%
%TF.Part,Single*%
%AMOUTLINE0*
4,1,8,
-0.778,1.0,
0.752,1.0,
1.6,0.486,
1.6,-0.486,
0.778,-1.0,
-0.778,-1.0,
-1.6,-0.486,
-1.6,0.486,
-0.778,1.0,
0*%
%AMOUTLINE3*
4,1,8,
-0.778,1.0,
0.752,1.0,
1.6,0.5,
1.6,-0.5,
0.8,-1.0,
-0.8,-1.0,
-1.6,-0.5,
-1.6,0.5,
-0.778,1.0,
0*%
%AMOUTLINE6*
4,1,8,
1.0,2.0,
1.0,-0.752,
0.486,-1.6,
-0.486,-1.6,
-1.0,-0.778,
-1.0,2.0,
-0.5,2.5,
0.5,2.5,
1.0,2.0,
0*%
%AMOUTLINE9*
4,1,8,
-1.0,-2.0,
-1.0,0.752,
-0.486,1.6,
0.486,1.6,
1.0,0.778,
1.0,-2.0,
0.5,-2.5,
-0.5,-2.5,
-1.0,-2.0,
0*%
%TA.AperFunction,Conductor*%
%ADD14C,0.75*%
%ADD15C,0.762*%
%ADD16C,0.508*%
%ADD17C,0.35*%
%ADD18C,1.0*%
%ADD19C,1.8034*%
%TA.AperFunction,CopperBalancing*%
%ADD21C,0.635*%
%TA.AperFunction,ComponentPad*%
%ADD25O,1.8X3.0*%
%ADD28R,1.6X1.6*%
%ADD29C,1.6*%
%ADD34C,1.65*%
%ADD36R,1.4X1.4*%
%ADD37O,1.4X2.0*%
%ADD38C,1.6*%
%ADD39O,2.4X1.6*%
%ADD40C,1.5*%
%ADD41O,1.8X4.2*%
%ADD42O,3.5X2.0*%
%ADD43R,1.7X1.7*%
%ADD44C,1.7*%
%ADD46R,1.508X1.508*%
%ADD47C,1.4*%
%ADD48O,1.4X1.8*%
%ADD50R,1.5X1.5*%
%ADD52R,1.8X1.8*%
%ADD53C,1.8*%
%TA.AperFunction,ViaPad*%
%ADD54C,0.8*%
%TA.AperFunction,ComponentPad*%
%ADD109OUTLINE0*%
%ADD112OUTLINE3*%
%ADD115OUTLINE6*%
%ADD118OUTLINE9*%
%TA.AperFunction,CopperBalancing*%
%ADD121C,0.35*%
G75*
G01*
%LPD*%
X3603623Y3175000D2*
D14*
X2661273D1*
X6781500Y762000D2*
D15*
X6731000D1*
X6286500Y317500D1*
X5238750D1*
X4984750Y571500D1*
Y1444623D1*
X4206873Y2222500D1*
X3635373D1*
X3603623Y2254250D1*
Y2667000D1*
X3635373Y2222500D2*
X2794000D1*
X2778123Y2238377D1*
X2794000D1*
X6781497Y4225623D2*
X6717997D1*
X6588123Y4095750D1*
Y955377D1*
X6781500Y762000D1*
X5127623Y5461000D2*
D16*
X5318123Y5270500D1*
D17*
Y1717377D1*
X5511500Y1524000D1*
X5238750Y2349500D2*
X5254627D1*
Y3809997D1*
X5127623Y3937000D1*
X4429127Y4381500D2*
D16*
X4445000D1*
Y2270127D1*
X5365750Y1349377D1*
Y889000D1*
X5492750Y762000D1*
X5511500D1*
X3603623Y4191000D2*
X4222750D1*
X3603623Y3429000D2*
X3095623Y3937000D1*
X2397127D1*
X2206627Y3746500D1*
Y3222627D1*
X2032000Y3048000D1*
X1825623D1*
X5762623Y4095750D2*
D17*
X5873750D1*
X5984873Y3984627D1*
Y3519873D1*
X5969000Y3504000D1*
X1825623Y238123D2*
D16*
X1226877D1*
X925000Y540000D1*
X1825623Y492123D2*
Y526383D1*
X1635127Y716880D1*
Y809623D1*
X1508123Y936627D1*
X1001627D1*
X925000Y860000D1*
X7400000Y1427000D2*
D18*
X7494750D1*
X7667627Y1254127D1*
Y1190623D1*
X7969250Y889000D1*
X7400000Y919000D2*
X7669373D1*
X7953373Y635000D1*
X7969250D1*
X5127623Y3683000D2*
D16*
X5000623Y3810000D1*
Y5508623D1*
X5080000Y5588000D1*
X5365750D1*
X5527373Y5749623D1*
X5511497D1*
X3603623Y3683000D2*
X4075033D1*
X1825623Y1206500D2*
D17*
Y1285873D1*
X1651000Y1111250D1*
X1338033D1*
X1158877Y1290407D1*
Y2109623D1*
X936500Y2332000D1*
X3302000Y2794000D2*
X3175000Y2921000D1*
X2540000D1*
X5511497Y5241623D2*
D16*
X5667373Y5397500D1*
Y5873750D1*
X5429247Y6111877D1*
X3746500D1*
X3603623Y5969000D1*
X5511497Y5241623D2*
D17*
X5381623Y5111750D1*
Y1907877D1*
X5511500Y1778000D1*
X5511497Y4733623D2*
D16*
X5667373Y4577747D1*
Y1425873D1*
X5511500Y1270000D1*
X3603623Y4699000D2*
X3556000D1*
X3476627Y4619627D1*
X2682877D1*
X2492373Y4429123D1*
Y4445000D1*
X2174873Y4127500D1*
X1539873D1*
X762000D1*
X609500Y4280000D1*
Y4727000D1*
X1539873Y4127500D2*
X1825623D1*
X3603623Y4953000D2*
X3349623Y4699000D1*
X2492373D1*
X2508247Y4683127D1*
X2460627D1*
X2159000Y4381500D1*
X1666873D1*
X1539873Y4254500D1*
X841377D1*
X736500Y4359377D1*
Y4473000D1*
X1666873Y4381500D2*
X1825623D1*
X3603623Y4445000D2*
X3587750D1*
X3492500Y4540250D1*
X2794000D1*
X2444750Y4191000D1*
X2492373D1*
X2444750D2*
X2127250Y3873500D1*
X1651000D1*
X1619250D1*
X1444623Y4048127D1*
X650873D1*
X476250Y4222750D1*
Y4473000D1*
X482500D1*
X1651000Y3873500D2*
X1825623D1*
X3603623Y5207000D2*
X3444873Y5048250D1*
Y4953000D1*
X3270250Y4778377D1*
X2682873D1*
X2492373Y4968877D1*
Y4953000D1*
X1825623Y4635500D2*
X2174873D1*
X2492373Y4953000D1*
X1825623Y4635500D2*
X1555750D1*
X1333500Y4857750D1*
X968377D1*
X873127Y4762500D1*
X828000D1*
X863500Y4727000D1*
X1825623Y1460500D2*
D17*
X1968500D1*
X2063750Y1365250D1*
Y1111250D1*
X1984377Y1031877D1*
X1317623D1*
X1079500Y1270000D1*
Y2047877D1*
X975000Y2152377D1*
Y2126000D1*
X3095623Y3048000D2*
X2555873D1*
X1825623Y2476500D2*
Y2492377D1*
X1714500Y2603500D1*
X857250D1*
X663500Y2409750D1*
Y2332000D1*
X4873623Y5969000D2*
D16*
X4730750Y5826127D1*
X3921130D1*
X3730627Y5635623D1*
Y4873623D1*
X4349750Y4254500D1*
Y2222503D1*
X5175250Y1397003D1*
Y1111250D1*
X5238750Y1047750D1*
X5187923D1*
X1857390Y5619750D2*
D19*
X1317623D1*
X1247873Y5550000D1*
X800000D1*
D54*
X5762623Y4095750D3*
X3302000Y2794000D3*
X2540000Y2921000D3*
X3095623Y3048000D3*
X2555873D3*
X5889623Y1555750D3*
X2809873Y5048250D3*
X5238750Y2349500D3*
X4429127Y4381500D3*
X4222750Y4191000D3*
X4075033Y3683000D3*
X6080127Y555627D3*
X2661273Y3175000D3*
X88147Y6355083D2*
D21*
X1623740D1*
X2090983D2*
X2273247D1*
X2526753D2*
X7073257D1*
X7326767D2*
X8511903D1*
X88147Y6291917D2*
X1623740D1*
X2090983D2*
X2186930D1*
X2613067D2*
X6986943D1*
X7413080D2*
X8511903D1*
X88147Y6228750D2*
X1631213D1*
X2083600D2*
X2142633D1*
X2657363D2*
X6942647D1*
X7457377D2*
X8511903D1*
X88147Y6165583D2*
X597710D1*
X1002247D2*
X1714340D1*
X2000387D2*
X2119300D1*
X2680697D2*
X3662763D1*
X5512963D2*
X5896293D1*
X6046713D2*
X6167817D1*
X6475100D2*
X6919313D1*
X7480710D2*
X8511903D1*
X88147Y6102417D2*
X559793D1*
X1040253D2*
X1639233D1*
X2075580D2*
X2111553D1*
X2688447D2*
X3547830D1*
X5576127D2*
X5834040D1*
X6108967D2*
X6167817D1*
X6475100D2*
X6911567D1*
X7488457D2*
X8511903D1*
X88147Y6039250D2*
X551683D1*
X1048277D2*
X1623740D1*
X2090983D2*
X2118207D1*
X2681790D2*
X3473543D1*
X5639290D2*
X5817907D1*
X6125100D2*
X6167817D1*
X6475100D2*
X6918220D1*
X7481803D2*
X8511903D1*
X88147Y5976083D2*
X568543D1*
X1031413D2*
X1623740D1*
X2090983D2*
X2140263D1*
X2659733D2*
X3455133D1*
X5276077D2*
X5427620D1*
X5702457D2*
X5830303D1*
X6112703D2*
X6167817D1*
X6475100D2*
X6940277D1*
X7459747D2*
X8511903D1*
X88147Y5912917D2*
X622777D1*
X977273D2*
X1642423D1*
X2072300D2*
X2182553D1*
X2617443D2*
X3466527D1*
X5264773D2*
X5490783D1*
X5757690D2*
X5883350D1*
X6059657D2*
X6167817D1*
X6475100D2*
X6982567D1*
X7417457D2*
X8511903D1*
X88147Y5849750D2*
X1740043D1*
X1974683D2*
X2263493D1*
X2536503D2*
X3519663D1*
X3687587D2*
X3773687D1*
X4957613D2*
X5043623D1*
X5211637D2*
X5397087D1*
X5766440D2*
X6667113D1*
X6895827D2*
X7063507D1*
X7336517D2*
X8511903D1*
X88147Y5786583D2*
X1765380D1*
X1946790D2*
X3474273D1*
X4828640D2*
X4998323D1*
X5256933D2*
X5362543D1*
X5766440D2*
X6632567D1*
X6930463D2*
X8511903D1*
X88147Y5723417D2*
X1192257D1*
X2064370D2*
X3455223D1*
X3955827D2*
X4979273D1*
X5275983D2*
X5360173D1*
X5766440D2*
X6630197D1*
X6932743D2*
X8511903D1*
X88147Y5660250D2*
X592790D1*
X2091077D2*
X3465980D1*
X3960840D2*
X4008387D1*
X4214863D2*
X4262413D1*
X4468887D2*
X4516343D1*
X4722910D2*
X4770367D1*
X5766440D2*
X6658090D1*
X6904943D2*
X8511903D1*
X88147Y5597083D2*
X558153D1*
X2091077D2*
X3517660D1*
X5766440D2*
X6668387D1*
X6894643D2*
X7214627D1*
X7584800D2*
X8511903D1*
X88147Y5533917D2*
X552137D1*
X2080683D2*
X3475093D1*
X5766440D2*
X6632933D1*
X6930100D2*
X7166500D1*
X7633470D2*
X8511903D1*
X88147Y5470750D2*
X571280D1*
X2062547D2*
X3455317D1*
X5275893D2*
X5359990D1*
X5766440D2*
X6630017D1*
X6933017D2*
X7166317D1*
X7633653D2*
X8511903D1*
X88147Y5407583D2*
X630887D1*
X1321350D2*
X1623740D1*
X2091077D2*
X3465433D1*
X3938327D2*
X4030900D1*
X4192350D2*
X4284923D1*
X4446283D2*
X4538947D1*
X4700307D2*
X4792970D1*
X5318457D2*
X5387060D1*
X5766440D2*
X6657087D1*
X6905947D2*
X7171150D1*
X7628913D2*
X8511903D1*
X88147Y5344417D2*
X1623740D1*
X2091077D2*
X2343700D1*
X2641050D2*
X3515653D1*
X3829683D2*
X4901617D1*
X5749670D2*
X6669663D1*
X6893367D2*
X7216813D1*
X7582613D2*
X8511903D1*
X88147Y5281250D2*
X1633310D1*
X2081503D2*
X2343700D1*
X2641050D2*
X3475913D1*
X3887560D2*
X4081670D1*
X4141583D2*
X4335693D1*
X4395517D2*
X4589717D1*
X4649540D2*
X4843740D1*
X5688600D2*
X6633297D1*
X6929733D2*
X7166590D1*
X7633380D2*
X8511903D1*
X88147Y5218083D2*
X1720353D1*
X1994460D2*
X2343700D1*
X2641050D2*
X3455407D1*
X5663263D2*
X6629743D1*
X6933290D2*
X7166317D1*
X7633653D2*
X8511903D1*
X88147Y5154917D2*
X2343700D1*
X2641050D2*
X3414117D1*
X5636920D2*
X6656083D1*
X6906947D2*
X7170603D1*
X7629370D2*
X8511903D1*
X88147Y5091750D2*
X2343700D1*
X2641050D2*
X3356697D1*
X5622063D2*
X6670940D1*
X6892000D2*
X7218910D1*
X7580423D2*
X8511903D1*
X88147Y5028583D2*
X1666943D1*
X1984253D2*
X2365483D1*
X2619267D2*
X3345850D1*
X5659343D2*
X6633663D1*
X6929370D2*
X7166683D1*
X7633290D2*
X8511903D1*
X88147Y4965417D2*
X1597763D1*
X2053433D2*
X2344247D1*
X2640503D2*
X3319873D1*
X3829683D2*
X4901617D1*
X5663447D2*
X6629560D1*
X6933470D2*
X7166317D1*
X7633653D2*
X8511903D1*
X88147Y4902250D2*
X875433D1*
X1426440D2*
X1592020D1*
X2059267D2*
X2304233D1*
X2696467D2*
X3256710D1*
X3839433D2*
X4901617D1*
X5637833D2*
X6655080D1*
X6907860D2*
X7170147D1*
X7629917D2*
X8511903D1*
X88147Y4839083D2*
X493077D1*
X725893D2*
X747130D1*
X1489603D2*
X1592020D1*
X2059267D2*
X2240980D1*
X3902600D2*
X4901617D1*
X5620697D2*
X6672307D1*
X6890633D2*
X7221007D1*
X7578237D2*
X8511903D1*
X88147Y4775917D2*
X467190D1*
X1552767D2*
X1636317D1*
X2014970D2*
X2177817D1*
X3965763D2*
X4901617D1*
X5658980D2*
X6634027D1*
X6928913D2*
X7166863D1*
X7633107D2*
X8511903D1*
X88147Y4712750D2*
X465823D1*
X1261100D2*
X1341097D1*
X4028927D2*
X4901617D1*
X5669827D2*
X6629377D1*
X6933653D2*
X7166317D1*
X7633653D2*
X8511903D1*
X88147Y4649583D2*
X474300D1*
X1261100D2*
X1404260D1*
X3743367D2*
X3817257D1*
X4092090D2*
X4901617D1*
X5732990D2*
X6654170D1*
X6908770D2*
X7169690D1*
X7630373D2*
X8511903D1*
X88147Y4586417D2*
X367113D1*
X1105880D2*
X1467423D1*
X3696973D2*
X3880420D1*
X4155253D2*
X4901617D1*
X5765983D2*
X6673673D1*
X6889267D2*
X7241057D1*
X7559003D2*
X8511903D1*
X88147Y4523250D2*
X340407D1*
X1132677D2*
X1634130D1*
X2017063D2*
X2163323D1*
X3728783D2*
X3943583D1*
X4218420D2*
X4901617D1*
X5766440D2*
X6634483D1*
X6928550D2*
X8511903D1*
X88147Y4460083D2*
X338857D1*
X1134137D2*
X1599040D1*
X3751480D2*
X4006747D1*
X4281583D2*
X4349730D1*
X4508537D2*
X4901617D1*
X5766440D2*
X6629197D1*
X6933837D2*
X8511903D1*
X88147Y4396917D2*
X346787D1*
X1126207D2*
X1544900D1*
X2788067D2*
X3463337D1*
X3743913D2*
X4069913D1*
X4542717D2*
X4901617D1*
X5766440D2*
X6653257D1*
X6909683D2*
X6945380D1*
X7194603D2*
X8345380D1*
X88147Y4333750D2*
X377230D1*
X2724903D2*
X3508543D1*
X3698707D2*
X4133077D1*
X4544083D2*
X4901617D1*
X5766440D2*
X6675133D1*
X7242183D2*
X8297803D1*
X88147Y4270583D2*
X377230D1*
X2019253D2*
X2180550D1*
X2661740D2*
X3479287D1*
X4544083D2*
X4901617D1*
X5766440D2*
X6607593D1*
X7243640D2*
X8296343D1*
X88147Y4207417D2*
X378507D1*
X2640047D2*
X3455953D1*
X4544083D2*
X4901617D1*
X5766440D2*
X6544430D1*
X7243640D2*
X8296343D1*
X88147Y4144250D2*
X417333D1*
X2633120D2*
X3462880D1*
X4544083D2*
X4901617D1*
X5951557D2*
X6488193D1*
X7243640D2*
X8296343D1*
X88147Y4081083D2*
X480497D1*
X2589097D2*
X3506903D1*
X3700347D2*
X4250747D1*
X4544083D2*
X4901617D1*
X6014720D2*
X6476343D1*
X7243640D2*
X8296343D1*
X88147Y4017917D2*
X147270D1*
X437780D2*
X543663D1*
X2021350D2*
X2134247D1*
X3147183D2*
X3480197D1*
X3727053D2*
X4250747D1*
X4544083D2*
X4901617D1*
X6069227D2*
X6476343D1*
X7238080D2*
X8300900D1*
X493837Y3954750D2*
X1107127D1*
X3215267D2*
X3456137D1*
X3751113D2*
X4250747D1*
X4544083D2*
X4901617D1*
X5766440D2*
X5888453D1*
X6075970D2*
X6476343D1*
X7200437D2*
X8339000D1*
X519720Y3891583D2*
X1081240D1*
X3278433D2*
X3462423D1*
X3744827D2*
X4250747D1*
X4544083D2*
X4901617D1*
X5766440D2*
X5893740D1*
X6075970D2*
X6476343D1*
X6935113D2*
X8511903D1*
X525920Y3828417D2*
X1075043D1*
X2590647D2*
X3066760D1*
X3341597D2*
X3505353D1*
X3701897D2*
X4250747D1*
X4544083D2*
X4901617D1*
X5766440D2*
X5893740D1*
X6075970D2*
X6476343D1*
X6935113D2*
X8511903D1*
X514160Y3765250D2*
X1086800D1*
X1530163D2*
X1627750D1*
X2023537D2*
X2109547D1*
X2362780D2*
X3129923D1*
X3404850D2*
X3481200D1*
X4150243D2*
X4250747D1*
X4544083D2*
X4913103D1*
X5472767D2*
X5568350D1*
X5766440D2*
X5893740D1*
X6075970D2*
X6476343D1*
X6699863D2*
X8511903D1*
X480983Y3702083D2*
X1119977D1*
X1496987D2*
X2107543D1*
X2305633D2*
X2411240D1*
X2588730D2*
X2703090D1*
X3010373D2*
X3090823D1*
X4186973D2*
X4250747D1*
X4544083D2*
X4971070D1*
X5472767D2*
X5568350D1*
X5766440D2*
X5893740D1*
X6075970D2*
X6476343D1*
X6699863D2*
X8511903D1*
X88147Y3638917D2*
X176527D1*
X408523D2*
X1192437D1*
X1424527D2*
X2107543D1*
X2305633D2*
X2357280D1*
X2642780D2*
X2703090D1*
X3010373D2*
X3057373D1*
X4179227D2*
X4250747D1*
X4544083D2*
X4986020D1*
X5472767D2*
X5568350D1*
X5766440D2*
X5893740D1*
X6075970D2*
X6476343D1*
X6699863D2*
X8511903D1*
X88147Y3575750D2*
X2107543D1*
X2305633D2*
X2343883D1*
X2656180D2*
X2703090D1*
X3010373D2*
X3055733D1*
X3703447D2*
X4250747D1*
X4544083D2*
X5027763D1*
X5472767D2*
X5568350D1*
X5766440D2*
X5831123D1*
X6106870D2*
X6476343D1*
X6699863D2*
X8511903D1*
X88147Y3512583D2*
X2107543D1*
X2305633D2*
X2358377D1*
X2641597D2*
X2703090D1*
X3010373D2*
X3084627D1*
X3328927D2*
X3382580D1*
X3725137D2*
X4250747D1*
X4544083D2*
X5006163D1*
X5472767D2*
X5568350D1*
X5766440D2*
X5813077D1*
X6124917D2*
X6476343D1*
X6699863D2*
X8511903D1*
X88147Y3449417D2*
X1666943D1*
X1984253D2*
X2107543D1*
X2305633D2*
X2413337D1*
X2586727D2*
X3445747D1*
X3750750D2*
X4250747D1*
X4544083D2*
X4980460D1*
X5472767D2*
X5568350D1*
X5766440D2*
X5823193D1*
X6114800D2*
X6476343D1*
X6699863D2*
X8511903D1*
X88147Y3386250D2*
X1602230D1*
X2049057D2*
X2107543D1*
X2305633D2*
X2357830D1*
X2642143D2*
X3461513D1*
X3745647D2*
X4250747D1*
X4544083D2*
X4985563D1*
X5472767D2*
X5568350D1*
X5766440D2*
X5870043D1*
X6067950D2*
X6476343D1*
X6699863D2*
X8511903D1*
X88147Y3323083D2*
X1592020D1*
X2059267D2*
X2107543D1*
X2305633D2*
X2343883D1*
X2656180D2*
X3502257D1*
X3704993D2*
X4250747D1*
X4544083D2*
X5026213D1*
X5472767D2*
X5568350D1*
X5766440D2*
X5831943D1*
X6106140D2*
X6476343D1*
X6699863D2*
X8511903D1*
X88147Y3259917D2*
X1592020D1*
X2059267D2*
X2106447D1*
X2305633D2*
X2357830D1*
X3724137D2*
X4250747D1*
X4544083D2*
X5007073D1*
X5472767D2*
X5568350D1*
X5766440D2*
X5813167D1*
X6124827D2*
X6476343D1*
X6699863D2*
X8511903D1*
X88147Y3196750D2*
X1622920D1*
X2301987D2*
X2413063D1*
X3750567D2*
X4250747D1*
X4544083D2*
X4980640D1*
X5472767D2*
X5568350D1*
X5766440D2*
X5822647D1*
X6115347D2*
X6476343D1*
X6699863D2*
X8511903D1*
X88147Y3133583D2*
X1603050D1*
X2255047D2*
X2484793D1*
X3746100D2*
X4250747D1*
X4544083D2*
X4985107D1*
X5472767D2*
X5568350D1*
X5766440D2*
X5868400D1*
X6069590D2*
X6476343D1*
X6699863D2*
X8511903D1*
X88147Y3070417D2*
X1592020D1*
X2191883D2*
X2444600D1*
X3706453D2*
X4250747D1*
X4544083D2*
X5024757D1*
X5472767D2*
X5568350D1*
X5766440D2*
X6476343D1*
X6699863D2*
X8511903D1*
X88147Y3007250D2*
X1592020D1*
X2128720D2*
X2450250D1*
X3201230D2*
X3484117D1*
X3723133D2*
X3744430D1*
X3970777D2*
X4250747D1*
X4544083D2*
X5008077D1*
X5472767D2*
X5568350D1*
X5766440D2*
X6476343D1*
X6699863D2*
X8511903D1*
X88147Y2944083D2*
X1620913D1*
X2030280D2*
X2428830D1*
X3278160D2*
X3456863D1*
X3999303D2*
X4250747D1*
X4544083D2*
X4980913D1*
X5472767D2*
X5568350D1*
X5766440D2*
X6476343D1*
X6699863D2*
X8511903D1*
X88147Y2880917D2*
X1736213D1*
X1915073D2*
X2434117D1*
X3371220D2*
X3460783D1*
X3995293D2*
X4250747D1*
X4544083D2*
X4984743D1*
X5472767D2*
X5568350D1*
X5766440D2*
X6476343D1*
X6699863D2*
X8511903D1*
X88147Y2817750D2*
X2504483D1*
X2575517D2*
X2630353D1*
X2957600D2*
X3151983D1*
X3412963D2*
X3499340D1*
X3707910D2*
X3760747D1*
X3954460D2*
X4250747D1*
X4544083D2*
X5023387D1*
X5472767D2*
X5568350D1*
X5766440D2*
X6476343D1*
X6699863D2*
X8511903D1*
X88147Y2754583D2*
X2630353D1*
X2957600D2*
X3195823D1*
X3408133D2*
X3485120D1*
X3722130D2*
X4250747D1*
X4544083D2*
X4978543D1*
X5472767D2*
X5568350D1*
X5766440D2*
X6476343D1*
X6699863D2*
X8511903D1*
X88147Y2691417D2*
X2630353D1*
X2957600D2*
X3264183D1*
X3339773D2*
X3457137D1*
X3750113D2*
X4250747D1*
X4544083D2*
X4978543D1*
X5472767D2*
X5568350D1*
X5766440D2*
X5844887D1*
X6098120D2*
X6167817D1*
X6699863D2*
X8511903D1*
X88147Y2628250D2*
X755757D1*
X1951623D2*
X2630353D1*
X2957600D2*
X3460330D1*
X3746920D2*
X4250747D1*
X4544083D2*
X4978543D1*
X5472767D2*
X5568350D1*
X5766440D2*
X5819457D1*
X6123457D2*
X6167817D1*
X6699863D2*
X8511903D1*
X88147Y2565083D2*
X692593D1*
X2046140D2*
X2648127D1*
X2939827D2*
X3491863D1*
X3715387D2*
X4250747D1*
X4544083D2*
X4978543D1*
X5472767D2*
X5568350D1*
X5766440D2*
X5823740D1*
X6119267D2*
X6167817D1*
X6699863D2*
X6951580D1*
X7188587D2*
X8351580D1*
X88147Y2501917D2*
X629430D1*
X881933D2*
X1592020D1*
X2059267D2*
X2630627D1*
X2957327D2*
X3491863D1*
X3715387D2*
X4250747D1*
X4544083D2*
X5163480D1*
X5472767D2*
X5568350D1*
X5766440D2*
X5861293D1*
X6081713D2*
X6167817D1*
X6699863D2*
X6913297D1*
X7228147D2*
X8313297D1*
X88147Y2438750D2*
X563077D1*
X1036973D2*
X1592020D1*
X2059267D2*
X2639743D1*
X2948210D2*
X3491863D1*
X3715387D2*
X4250747D1*
X4544083D2*
X5163480D1*
X5472767D2*
X5568350D1*
X5766440D2*
X6476343D1*
X6699863D2*
X6896343D1*
X7243640D2*
X8296343D1*
X305530Y2375583D2*
X521697D1*
X1078263D2*
X1294520D1*
X1555503D2*
X1616997D1*
X2034290D2*
X2682307D1*
X2905737D2*
X3491863D1*
X3715387D2*
X4250747D1*
X4544083D2*
X5128297D1*
X5766440D2*
X6476343D1*
X7243640D2*
X8296343D1*
X335060Y2312417D2*
X516227D1*
X1083823D2*
X1264990D1*
X1585033D2*
X1606230D1*
X2045047D2*
X2648857D1*
X4544083D2*
X5131760D1*
X5766440D2*
X6476343D1*
X7243640D2*
X8296343D1*
X338613Y2249250D2*
X541383D1*
X1145530D2*
X1261343D1*
X2059267D2*
X2630720D1*
X4603327D2*
X5194197D1*
X5766440D2*
X6476343D1*
X7243640D2*
X8296343D1*
X338613Y2186083D2*
X489703D1*
X1208693D2*
X1261343D1*
X2059267D2*
X2639287D1*
X4666493D2*
X5227007D1*
X5766440D2*
X6476343D1*
X7243640D2*
X8296343D1*
X338613Y2122917D2*
X476397D1*
X1588680D2*
X1615323D1*
X2035933D2*
X2680850D1*
X4729657D2*
X5227007D1*
X5766440D2*
X6476343D1*
X6903757D2*
X6925613D1*
X7214473D2*
X8325603D1*
X338613Y2059750D2*
X492710D1*
X2044043D2*
X4214197D1*
X4792820D2*
X5227007D1*
X5766440D2*
X6476343D1*
X6932470D2*
X8511903D1*
X332780Y1996583D2*
X559520D1*
X2059267D2*
X4277360D1*
X4855983D2*
X5227007D1*
X5766440D2*
X6476343D1*
X6930827D2*
X7841253D1*
X8097313D2*
X8511903D1*
X297963Y1933417D2*
X673727D1*
X926230D2*
X988363D1*
X1249980D2*
X1302087D1*
X1547937D2*
X1592020D1*
X2059267D2*
X4340523D1*
X4919147D2*
X5227007D1*
X5766440D2*
X6476343D1*
X6897287D2*
X7813270D1*
X8125203D2*
X8511903D1*
X88147Y1870250D2*
X766877D1*
X833080D2*
X988363D1*
X1249980D2*
X1613897D1*
X2037390D2*
X4403687D1*
X4982313D2*
X5227007D1*
X5766440D2*
X6476343D1*
X6902663D2*
X7814637D1*
X8123837D2*
X8511903D1*
X88147Y1807083D2*
X988363D1*
X1249980D2*
X1608337D1*
X2042860D2*
X4466853D1*
X5045477D2*
X5227007D1*
X5766440D2*
X6476343D1*
X6932197D2*
X7230667D1*
X7568303D2*
X7846267D1*
X8092207D2*
X8511903D1*
X88147Y1743917D2*
X988363D1*
X1249980D2*
X1592020D1*
X2059267D2*
X4530107D1*
X5108640D2*
X5227007D1*
X5766440D2*
X6476343D1*
X6931100D2*
X7167867D1*
X7632103D2*
X7842257D1*
X8096220D2*
X8511903D1*
X88147Y1680750D2*
X988363D1*
X1249980D2*
X1592020D1*
X2059267D2*
X4593270D1*
X5171803D2*
X5235303D1*
X5766440D2*
X6476343D1*
X6898470D2*
X7166317D1*
X7633653D2*
X7813543D1*
X8124930D2*
X8511903D1*
X88147Y1617583D2*
X988363D1*
X1249980D2*
X1612437D1*
X2038850D2*
X4656437D1*
X5234970D2*
X5291630D1*
X5766440D2*
X6476343D1*
X6901570D2*
X7168050D1*
X7632013D2*
X7814363D1*
X8124200D2*
X8511903D1*
X88147Y1554417D2*
X988363D1*
X1249980D2*
X1609520D1*
X2041673D2*
X4719600D1*
X5298133D2*
X5354793D1*
X5766440D2*
X6476343D1*
X6931920D2*
X7231487D1*
X7568577D2*
X7845173D1*
X8093303D2*
X8511903D1*
X88147Y1491250D2*
X988363D1*
X1249980D2*
X1592020D1*
X2064003D2*
X4782763D1*
X5766440D2*
X6476343D1*
X6931467D2*
X7168233D1*
X7631830D2*
X7843257D1*
X8095217D2*
X8511903D1*
X88147Y1428083D2*
X988363D1*
X1249980D2*
X1592020D1*
X2127170D2*
X4845927D1*
X5766440D2*
X6476343D1*
X6899657D2*
X7166317D1*
X7665920D2*
X7813817D1*
X8124657D2*
X8511903D1*
X88147Y1364917D2*
X988363D1*
X1249980D2*
X1611070D1*
X2154877D2*
X4872997D1*
X5743563D2*
X6476343D1*
X6900477D2*
X7167687D1*
X7729083D2*
X7814000D1*
X8124473D2*
X8511903D1*
X88147Y1301750D2*
X988363D1*
X1273770D2*
X1610797D1*
X2154877D2*
X4872997D1*
X5680670D2*
X6476343D1*
X6931647D2*
X7229300D1*
X7781127D2*
X7844080D1*
X8094397D2*
X8511903D1*
X88147Y1238583D2*
X994377D1*
X1336933D2*
X1592020D1*
X2154877D2*
X2986097D1*
X3173340D2*
X4872997D1*
X5661713D2*
X6476343D1*
X6931740D2*
X7168507D1*
X7791883D2*
X7844353D1*
X8094123D2*
X8511903D1*
X88147Y1175417D2*
X1047790D1*
X2154877D2*
X2931410D1*
X3228030D2*
X4872997D1*
X5630723D2*
X6476343D1*
X6900750D2*
X7166317D1*
X8124383D2*
X8511903D1*
X88147Y1112250D2*
X1110953D1*
X2154877D2*
X2916187D1*
X3243340D2*
X4872997D1*
X5629357D2*
X6476343D1*
X6899383D2*
X7167503D1*
X8124747D2*
X8511903D1*
X88147Y1049083D2*
X1174117D1*
X2127807D2*
X2916097D1*
X3243340D2*
X4872997D1*
X5661350D2*
X6476343D1*
X6931373D2*
X7227203D1*
X8095490D2*
X8511903D1*
X88147Y985917D2*
X592243D1*
X757793D2*
X842257D1*
X2064643D2*
X2916097D1*
X3243340D2*
X4872997D1*
X5662077D2*
X6476343D1*
X6932013D2*
X7168870D1*
X8093030D2*
X8511903D1*
X88147Y922750D2*
X535367D1*
X1659410D2*
X2930133D1*
X3229303D2*
X4872997D1*
X5631817D2*
X6481540D1*
X6901843D2*
X7166317D1*
X8124110D2*
X8511903D1*
X88147Y859583D2*
X521330D1*
X1965933D2*
X2982177D1*
X3177260D2*
X4872997D1*
X5628170D2*
X6528480D1*
X6898197D2*
X7167230D1*
X8125020D2*
X8511903D1*
X297963Y796417D2*
X535823D1*
X1064227D2*
X1302087D1*
X2010410D2*
X4872997D1*
X5096517D2*
X5320887D1*
X5661077D2*
X6591643D1*
X6931100D2*
X7225017D1*
X7574957D2*
X7619770D1*
X8096493D2*
X8511903D1*
X348367Y733250D2*
X593610D1*
X756337D2*
X843623D1*
X1006350D2*
X1251683D1*
X2018707D2*
X4872997D1*
X5096517D2*
X5360720D1*
X5662350D2*
X6546890D1*
X6932287D2*
X7682933D1*
X8127847D2*
X8511903D1*
X361673Y670083D2*
X599533D1*
X750410D2*
X849547D1*
X1000423D2*
X1238377D1*
X1998107D2*
X2312257D1*
X2487743D2*
X4872997D1*
X5096517D2*
X5390067D1*
X5632910D2*
X6483727D1*
X6902937D2*
X7112270D1*
X7287753D2*
X7746097D1*
X8127847D2*
X8511903D1*
X361673Y606917D2*
X537463D1*
X1062587D2*
X1238377D1*
X1565620D2*
X1607697D1*
X1964290D2*
X2201970D1*
X2598030D2*
X4872997D1*
X5104720D2*
X5395993D1*
X5626987D2*
X6420563D1*
X6935113D2*
X7001890D1*
X7398040D2*
X7809260D1*
X8127847D2*
X8511903D1*
X361493Y543750D2*
X521423D1*
X1078627D2*
X1238467D1*
X1565530D2*
X1641330D1*
X2009957D2*
X2150927D1*
X2649070D2*
X4876733D1*
X5167887D2*
X5362270D1*
X5660710D2*
X6357400D1*
X7449083D2*
X7810627D1*
X8127847D2*
X8511903D1*
X345450Y480583D2*
X533910D1*
X1121830D2*
X1254507D1*
X1549487D2*
X1632400D1*
X2018797D2*
X2123310D1*
X2676687D2*
X4920303D1*
X5231050D2*
X5360447D1*
X5662533D2*
X6294143D1*
X6604980D2*
X6627793D1*
X7476700D2*
X8511903D1*
X288940Y417417D2*
X586957D1*
X762990D2*
X836970D1*
X1184993D2*
X1311020D1*
X1492977D2*
X1652360D1*
X1998927D2*
X2112100D1*
X2687897D2*
X4983467D1*
X6541817D2*
X6627830D1*
X7487910D2*
X8511903D1*
X88147Y354250D2*
X973323D1*
X1248160D2*
X1688637D1*
X1962560D2*
X2115290D1*
X2684707D2*
X5046630D1*
X6478653D2*
X6915303D1*
X7484720D2*
X8511903D1*
X88147Y291083D2*
X1036487D1*
X2009410D2*
X2133427D1*
X2666570D2*
X5109793D1*
X6415490D2*
X6933440D1*
X7466583D2*
X8511903D1*
X88147Y227917D2*
X1099650D1*
X2018887D2*
X2170160D1*
X2629837D2*
X5176877D1*
X6348407D2*
X6970173D1*
X7429850D2*
X8511903D1*
X88147Y164750D2*
X1163910D1*
X1999657D2*
X2237970D1*
X2562027D2*
X7037983D1*
X7362040D2*
X8511903D1*
X88147Y101583D2*
X1724000D1*
X1927197D2*
X8511903D1*
X2922437Y1107703D2*
X2924370Y1132357D1*
X2930130Y1156357D1*
X2939577Y1179157D1*
X2952473Y1200203D1*
X2968503Y1218970D1*
X2987270Y1235000D1*
X3008317Y1247897D1*
X3031117Y1257343D1*
X3055117Y1263103D1*
X3079723Y1265040D1*
X3104330Y1263103D1*
X3128330Y1257343D1*
X3151130Y1247897D1*
X3172177Y1235000D1*
X3190943Y1218970D1*
X3206973Y1200203D1*
X3219870Y1179157D1*
X3229317Y1156357D1*
X3235077Y1132357D1*
X3237013Y1107750D1*
X3236530Y975410D1*
X3232667Y951030D1*
X3225040Y927557D1*
X3213837Y905567D1*
X3199327Y885597D1*
X3181877Y868147D1*
X3161907Y853637D1*
X3139917Y842433D1*
X3116443Y834807D1*
X3092063Y830943D1*
X3067383D1*
X3043003Y834807D1*
X3019530Y842433D1*
X2997540Y853637D1*
X2977570Y868147D1*
X2960120Y885597D1*
X2945610Y905567D1*
X2934407Y927557D1*
X2926780Y951030D1*
X2922917Y975410D1*
X2922433Y1034417D1*
Y1107633D1*
X5278090Y858973D2*
X5259330Y847603D1*
X5236530Y838157D1*
X5212530Y832397D1*
X5187923Y830460D1*
X5163317Y832397D1*
X5139317Y838157D1*
X5116517Y847603D1*
X5095470Y860500D1*
X5090130Y864710D1*
X5090140Y615107D1*
X5282463Y422833D1*
X5391237Y422890D1*
X5380263Y441133D1*
X5371420Y462483D1*
X5366023Y484960D1*
X5364210Y508000D1*
X5366023Y531040D1*
X5371420Y553517D1*
X5380263Y574867D1*
X5392340Y594573D1*
X5407350Y612150D1*
X5424927Y627160D1*
X5436947Y634933D1*
X5424927Y642840D1*
X5407350Y657850D1*
X5392340Y675427D1*
X5380263Y695133D1*
X5371420Y716483D1*
X5366023Y738960D1*
X5364313Y759337D1*
X5295267Y828803D1*
X5286720Y840570D1*
X5280107Y853557D1*
X2732793Y3750917D2*
X3004040D1*
Y3456337D1*
X2709460D1*
Y3750917D1*
X2732793D1*
X3345963Y3555583D2*
X3339787Y3540413D1*
X3330730Y3524107D1*
X3319683Y3509073D1*
X3306827Y3495557D1*
X3292367Y3483777D1*
X3276530Y3473917D1*
X3259577Y3466137D1*
X3241773Y3460560D1*
X3223410Y3457283D1*
X3204780Y3456350D1*
X3186180Y3457780D1*
X3167910Y3461550D1*
X3150263Y3467597D1*
X3133523Y3475830D1*
X3117957Y3486110D1*
X3103817Y3498273D1*
X3091327Y3512130D1*
X3080687Y3527453D1*
X3072070Y3543997D1*
X3065613Y3561497D1*
X3061420Y3579673D1*
X3059560Y3598237D1*
X3060057Y3616883D1*
X3062910Y3635320D1*
X3068070Y3653243D1*
X3075453Y3670377D1*
X3084943Y3686437D1*
X3096387Y3701167D1*
X3109600Y3714333D1*
X3124373Y3725727D1*
X3140467Y3735160D1*
X3158710Y3742847D1*
X3057223Y3844320D1*
X2600247Y3844310D1*
X2584783Y3828803D1*
X2566720Y3815677D1*
X2546827Y3805540D1*
X2525590Y3798640D1*
X2503537Y3795150D1*
X2481210D1*
X2459157Y3798640D1*
X2437920Y3805540D1*
X2418027Y3815677D1*
X2411313Y3820163D1*
X2299287Y3708077D1*
X2299030Y3215353D1*
X2296757Y3200990D1*
X2292260Y3187157D1*
X2285657Y3174197D1*
X2277110Y3162430D1*
X2189673Y3074590D1*
X2092197Y2977517D1*
X2080430Y2968970D1*
X2067470Y2962367D1*
X2053637Y2957870D1*
X2039243Y2955593D1*
X2033633Y2952250D1*
X2025667Y2945320D1*
X1938583Y2890627D1*
X1929173Y2885833D1*
X1919133Y2882570D1*
X1908703Y2880917D1*
X1747217Y2880713D1*
X1736697Y2881637D1*
X1726453Y2884193D1*
X1716733Y2888323D1*
X1626070Y2944960D1*
X1618043Y2951820D1*
X1611183Y2959847D1*
X1605667Y2968850D1*
X1601627Y2978607D1*
X1599160Y2988873D1*
X1598333Y2999400D1*
X1598497Y3101273D1*
X1600053Y3111717D1*
X1603227Y3121787D1*
X1607933Y3131240D1*
X1614063Y3139837D1*
X1621460Y3147370D1*
X1629947Y3153653D1*
X1664027Y3174967D1*
X1626080Y3198957D1*
X1615687Y3208297D1*
X1607447Y3219583D1*
X1601717Y3232330D1*
X1598743Y3245987D1*
X1598333Y3276733D1*
X1598603Y3356623D1*
X1601293Y3370337D1*
X1606757Y3383200D1*
X1614760Y3394657D1*
X1624957Y3404210D1*
X1673333Y3434783D1*
X1673337Y3454290D1*
X1705127Y3454663D1*
X1719350Y3462970D1*
X1732560Y3467537D1*
X1746423Y3469277D1*
X1908077Y3468897D1*
X1921740Y3465957D1*
X1934500Y3460257D1*
X1944387Y3454280D1*
X1977917Y3454290D1*
Y3433963D1*
X2026263Y3404233D1*
X2036463Y3394680D1*
X2044473Y3383230D1*
X2049943Y3370370D1*
X2052640Y3356657D1*
X2052913Y3299267D1*
X2052643Y3247377D1*
X2049953Y3233663D1*
X2044490Y3220800D1*
X2036487Y3209347D1*
X2026290Y3199790D1*
X1986630Y3174667D1*
X2012167Y3159197D1*
X2113983Y3261067D1*
X2114223Y3753773D1*
X2116497Y3768137D1*
X2118483Y3775170D1*
X2103917Y3780810D1*
X2036377D1*
X2029787Y3774130D1*
X2021300Y3767847D1*
X1933973Y3713543D1*
X1924217Y3709503D1*
X1913950Y3707037D1*
X1903423Y3706210D1*
X1741937Y3706467D1*
X1731523Y3708213D1*
X1721510Y3711567D1*
X1712147Y3716447D1*
X1625580Y3770820D1*
X1617600Y3777767D1*
X1611977Y3781097D1*
X1597613Y3783370D1*
X1583780Y3787867D1*
X1570820Y3794470D1*
X1559053Y3803017D1*
X1535470Y3826197D1*
X1532993Y3802443D1*
X1529510Y3784940D1*
X1524667Y3767763D1*
X1518490Y3751020D1*
X1511017Y3734810D1*
X1502297Y3719240D1*
X1492380Y3704400D1*
X1481333Y3690387D1*
X1469217Y3677280D1*
X1456113Y3665167D1*
X1442097Y3654117D1*
X1427260Y3644203D1*
X1411687Y3635483D1*
X1395480Y3628010D1*
X1378737Y3621833D1*
X1361560Y3616990D1*
X1344057Y3613507D1*
X1326333Y3611410D1*
X1308500Y3610710D1*
X1290667Y3611410D1*
X1272943Y3613507D1*
X1255440Y3616990D1*
X1238263Y3621833D1*
X1221520Y3628010D1*
X1205313Y3635483D1*
X1189740Y3644203D1*
X1174903Y3654117D1*
X1160887Y3665167D1*
X1147783Y3677280D1*
X1135667Y3690387D1*
X1124620Y3704400D1*
X1114703Y3719240D1*
X1105983Y3734810D1*
X1098510Y3751020D1*
X1092333Y3767763D1*
X1087490Y3784940D1*
X1084007Y3802443D1*
X1081910Y3820167D1*
X1081210Y3838000D1*
X1081910Y3855833D1*
X1084007Y3873557D1*
X1087490Y3891060D1*
X1092333Y3908237D1*
X1098510Y3924980D1*
X1105983Y3941187D1*
X1113987Y3955480D1*
X643600Y3955723D1*
X629237Y3957997D1*
X615403Y3962493D1*
X602443Y3969097D1*
X590677Y3977643D1*
X502837Y4065080D1*
X405767Y4162553D1*
X397220Y4174320D1*
X390617Y4187280D1*
X386120Y4201113D1*
X383847Y4215477D1*
X383560Y4347893D1*
X371430Y4362303D1*
X360173Y4380670D1*
X351930Y4400573D1*
X346900Y4421523D1*
X345210Y4443040D1*
X345633Y4513770D1*
X349003Y4535050D1*
X355660Y4555537D1*
X365440Y4574733D1*
X378103Y4592163D1*
X393337Y4607397D1*
X410767Y4620057D1*
X429960Y4629840D1*
X450450Y4636497D1*
X471730Y4639867D1*
X484477Y4640210D1*
X478930Y4654573D1*
X473900Y4675523D1*
X472210Y4697040D1*
X472633Y4767770D1*
X476003Y4789050D1*
X482660Y4809537D1*
X492440Y4828733D1*
X505103Y4846163D1*
X520337Y4861397D1*
X537767Y4874057D1*
X556960Y4883840D1*
X577450Y4890497D1*
X598730Y4893867D1*
X620270D1*
X641550Y4890497D1*
X662040Y4883840D1*
X681233Y4874057D1*
X698663Y4861397D1*
X713897Y4846163D1*
X726560Y4828733D1*
X736500Y4809103D1*
X746440Y4828733D1*
X759103Y4846163D1*
X774337Y4861397D1*
X791767Y4874057D1*
X810960Y4883840D1*
X831450Y4890497D1*
X852730Y4893867D1*
X873580Y4894040D1*
X908180Y4928233D1*
X919947Y4936780D1*
X932907Y4943383D1*
X946740Y4947880D1*
X961103Y4950153D1*
X1085043Y4950440D1*
X1340773Y4950153D1*
X1355137Y4947880D1*
X1368970Y4943383D1*
X1381930Y4936780D1*
X1393697Y4928233D1*
X1481537Y4840797D1*
X1594130Y4728203D1*
X1614720Y4728190D1*
X1625580Y4738180D1*
X1664027Y4762467D1*
X1624983Y4787267D1*
X1614783Y4796820D1*
X1606773Y4808270D1*
X1601303Y4821130D1*
X1598607Y4834843D1*
X1598333Y4892233D1*
X1598603Y4944123D1*
X1601293Y4957837D1*
X1606757Y4970700D1*
X1614760Y4982157D1*
X1624957Y4991710D1*
X1673333Y5022283D1*
Y5041790D1*
X1705127Y5042163D1*
X1720377Y5050940D1*
X1733660Y5055283D1*
X1747573Y5056790D1*
X1908080Y5056397D1*
X1921740Y5053457D1*
X1934500Y5047757D1*
X1944387Y5041780D1*
X1977913Y5041790D1*
Y5021463D1*
X2026263Y4991733D1*
X2036463Y4982180D1*
X2044473Y4970730D1*
X2049943Y4957870D1*
X2052640Y4944157D1*
X2052913Y4886767D1*
X2052643Y4834877D1*
X2049953Y4821163D1*
X2044490Y4808300D1*
X2036487Y4796843D1*
X2026290Y4787290D1*
X1986630Y4762167D1*
X2025177Y4738540D1*
X2033220Y4731667D1*
X2058957Y4728190D1*
X2136523D1*
X2350437Y4942150D1*
X2350523Y4964163D1*
X2354013Y4986217D1*
X2360913Y5007453D1*
X2371050Y5027347D1*
X2384177Y5045410D1*
X2399963Y5061197D1*
X2404383Y5064683D1*
X2350083Y5064710D1*
Y5349290D1*
X2634663D1*
Y5064710D1*
X2580433D1*
X2592987Y5053613D1*
X2607490Y5036637D1*
X2619153Y5017597D1*
X2627700Y4996970D1*
X2632910Y4975260D1*
X2634473Y4957840D1*
X2721297Y4871037D1*
X3231843Y4871067D1*
X3352233Y4991443D1*
X3352470Y5055523D1*
X3354743Y5069887D1*
X3359240Y5083720D1*
X3365843Y5096680D1*
X3374390Y5108447D1*
X3461763Y5196223D1*
X3461773Y5218163D1*
X3465267Y5240217D1*
X3472167Y5261453D1*
X3482303Y5281347D1*
X3495427Y5299410D1*
X3511213Y5315197D1*
X3529277Y5328323D1*
X3539027Y5334220D1*
X3519987Y5345883D1*
X3503010Y5360387D1*
X3488510Y5377363D1*
X3476843Y5396403D1*
X3468297Y5417030D1*
X3463087Y5438740D1*
X3461333Y5461000D1*
X3463087Y5483260D1*
X3468297Y5504970D1*
X3476843Y5525597D1*
X3488510Y5544637D1*
X3503010Y5561613D1*
X3519987Y5576117D1*
X3539460Y5587983D1*
X3519987Y5599883D1*
X3503010Y5614387D1*
X3488510Y5631363D1*
X3476843Y5650403D1*
X3468297Y5671030D1*
X3463087Y5692740D1*
X3461333Y5715000D1*
X3463087Y5737260D1*
X3468297Y5758970D1*
X3476843Y5779597D1*
X3488510Y5798637D1*
X3503010Y5815613D1*
X3519987Y5830117D1*
X3539460Y5841983D1*
X3519987Y5853883D1*
X3503010Y5868387D1*
X3488510Y5885363D1*
X3476843Y5904403D1*
X3468297Y5925030D1*
X3463087Y5946740D1*
X3461333Y5969000D1*
X3463087Y5991260D1*
X3468297Y6012970D1*
X3476843Y6033597D1*
X3488510Y6052637D1*
X3503010Y6069613D1*
X3519987Y6084117D1*
X3539027Y6095780D1*
X3559653Y6104327D1*
X3581363Y6109537D1*
X3603623Y6111290D1*
X3614397Y6110867D1*
X3686303Y6182360D1*
X3698070Y6190907D1*
X3711030Y6197510D1*
X3724863Y6202007D1*
X3739227Y6204280D1*
X3863167Y6204567D1*
X5436520Y6204280D1*
X5450883Y6202007D1*
X5464717Y6197510D1*
X5477677Y6190907D1*
X5489443Y6182360D1*
X5577283Y6094923D1*
X5737857Y5933947D1*
X5746403Y5922180D1*
X5753007Y5909220D1*
X5757503Y5895387D1*
X5759777Y5881023D1*
X5760063Y5757083D1*
X5759777Y5390227D1*
X5757503Y5375863D1*
X5753007Y5362030D1*
X5746403Y5349070D1*
X5737857Y5337303D1*
X5657960Y5257003D1*
X5658787Y5241623D1*
X5656973Y5218583D1*
X5651577Y5196107D1*
X5642733Y5174757D1*
X5630657Y5155050D1*
X5615647Y5137473D1*
X5598070Y5122463D1*
X5586050Y5114690D1*
X5598070Y5106783D1*
X5615647Y5091773D1*
X5630657Y5074197D1*
X5642733Y5054490D1*
X5651577Y5033140D1*
X5656973Y5010663D1*
X5658787Y4987623D1*
X5656973Y4964583D1*
X5651577Y4942107D1*
X5642733Y4920757D1*
X5630657Y4901050D1*
X5615647Y4883473D1*
X5598070Y4868463D1*
X5586050Y4860690D1*
X5598070Y4852783D1*
X5615647Y4837773D1*
X5630657Y4820197D1*
X5642733Y4800490D1*
X5651577Y4779140D1*
X5656973Y4756663D1*
X5658787Y4733623D1*
X5657893Y4718343D1*
X5737857Y4637943D1*
X5746403Y4626177D1*
X5753007Y4613217D1*
X5757503Y4599383D1*
X5759777Y4585020D1*
X5760063Y4461080D1*
Y4203047D1*
X5779407Y4201720D1*
X5795777Y4197790D1*
X5811333Y4191347D1*
X5825687Y4182550D1*
X5828247Y4180533D1*
X5880403Y4180280D1*
X5893543Y4178197D1*
X5906197Y4174087D1*
X5918053Y4168047D1*
X5928817Y4160227D1*
X6044830Y4044583D1*
X6053470Y4034467D1*
X6060423Y4023120D1*
X6065513Y4010827D1*
X6068620Y3997890D1*
X6069663Y3984627D1*
Y3614847D1*
X6082900Y3601280D1*
X6096717Y3582267D1*
X6107387Y3561323D1*
X6114650Y3538967D1*
X6118327Y3515753D1*
Y3492247D1*
X6114650Y3469033D1*
X6107387Y3446677D1*
X6096717Y3425733D1*
X6082900Y3406720D1*
X6066280Y3390100D1*
X6048373Y3377023D1*
X6062880Y3366720D1*
X6076660Y3354143D1*
X6088770Y3339957D1*
X6099023Y3324370D1*
X6107260Y3307633D1*
X6113350Y3290000D1*
X6117203Y3271747D1*
X6118757Y3253157D1*
X6118137Y3236020D1*
X6115243Y3217590D1*
X6110080Y3199667D1*
X6102730Y3182520D1*
X6093303Y3166420D1*
X6081953Y3151620D1*
X6068847Y3138343D1*
X6054193Y3126797D1*
X6038220Y3117163D1*
X6021173Y3109590D1*
X6003317Y3104193D1*
X5984927Y3101060D1*
X5966290Y3100233D1*
X5947697Y3101733D1*
X5929430Y3105530D1*
X5911780Y3111570D1*
X5895020Y3119753D1*
X5879403Y3129960D1*
X5865177Y3142027D1*
X5852563Y3155770D1*
X5841753Y3170973D1*
X5832917Y3187403D1*
X5826190Y3204803D1*
X5821680Y3222903D1*
X5819457Y3241427D1*
X5819550Y3260080D1*
X5821960Y3278577D1*
X5826653Y3296633D1*
X5833553Y3313963D1*
X5842553Y3330303D1*
X5853517Y3345397D1*
X5866270Y3359013D1*
X5880617Y3370937D1*
X5889607Y3377000D1*
X5871720Y3390100D1*
X5855100Y3406720D1*
X5841283Y3425733D1*
X5830613Y3446677D1*
X5823350Y3469033D1*
X5819673Y3492247D1*
Y3515753D1*
X5823350Y3538967D1*
X5830613Y3561323D1*
X5841283Y3582267D1*
X5855100Y3601280D1*
X5871720Y3617900D1*
X5890733Y3631717D1*
X5900073Y3636947D1*
X5900083Y3949443D1*
X5838620Y4010970D1*
X5825687Y4008950D1*
X5811333Y4000153D1*
X5795777Y3993710D1*
X5779407Y3989780D1*
X5762623Y3988460D1*
X5760090Y3988560D1*
X5759777Y1418600D1*
X5757503Y1404237D1*
X5753007Y1390403D1*
X5746403Y1377443D1*
X5737857Y1365677D1*
X5657960Y1285377D1*
X5658790Y1270000D1*
X5656977Y1246960D1*
X5651580Y1224483D1*
X5642737Y1203133D1*
X5630660Y1183427D1*
X5615650Y1165850D1*
X5598073Y1150840D1*
X5586053Y1143067D1*
X5598073Y1135160D1*
X5615650Y1120150D1*
X5630660Y1102573D1*
X5642737Y1082867D1*
X5651580Y1061517D1*
X5656977Y1039040D1*
X5658790Y1016000D1*
X5656977Y992960D1*
X5651580Y970483D1*
X5642737Y949133D1*
X5630660Y929427D1*
X5615650Y911850D1*
X5598073Y896840D1*
X5586053Y889067D1*
X5598073Y881160D1*
X5615650Y866150D1*
X5630660Y848573D1*
X5642737Y828867D1*
X5651580Y807517D1*
X5656977Y785040D1*
X5658790Y762000D1*
X5656977Y738960D1*
X5651580Y716483D1*
X5642737Y695133D1*
X5630660Y675427D1*
X5615650Y657850D1*
X5598073Y642840D1*
X5586053Y635067D1*
X5598073Y627160D1*
X5615650Y612150D1*
X5630660Y594573D1*
X5642737Y574867D1*
X5651580Y553517D1*
X5656977Y531040D1*
X5658790Y508000D1*
X5656977Y484960D1*
X5651580Y462483D1*
X5642737Y441133D1*
X5631640Y422890D1*
X6242903D1*
X6607250Y787293D1*
X6507983Y886930D1*
X6498263Y900310D1*
X6490757Y915047D1*
X6485647Y930773D1*
X6483057Y947107D1*
X6482733Y1048710D1*
X6483057Y4104020D1*
X6485647Y4120353D1*
X6490757Y4136080D1*
X6498263Y4150817D1*
X6507983Y4164197D1*
X6579597Y4236270D1*
X6649550Y4305763D1*
X6662960Y4315500D1*
X6677347Y4329773D1*
X6694923Y4344783D1*
X6706943Y4352557D1*
X6694923Y4360463D1*
X6677347Y4375473D1*
X6662337Y4393050D1*
X6650260Y4412757D1*
X6641417Y4434107D1*
X6636020Y4456583D1*
X6634207Y4479623D1*
X6636020Y4502663D1*
X6641417Y4525140D1*
X6650260Y4546490D1*
X6662337Y4566197D1*
X6677347Y4583773D1*
X6694923Y4598783D1*
X6706943Y4606557D1*
X6694923Y4614463D1*
X6677347Y4629473D1*
X6662337Y4647050D1*
X6650260Y4666757D1*
X6641417Y4688107D1*
X6636020Y4710583D1*
X6634207Y4733623D1*
X6636020Y4756663D1*
X6641417Y4779140D1*
X6650260Y4800490D1*
X6662337Y4820197D1*
X6677347Y4837773D1*
X6694923Y4852783D1*
X6706943Y4860557D1*
X6694923Y4868463D1*
X6677347Y4883473D1*
X6662337Y4901050D1*
X6650260Y4920757D1*
X6641417Y4942107D1*
X6636020Y4964583D1*
X6634207Y4987623D1*
X6636020Y5010663D1*
X6641417Y5033140D1*
X6650260Y5054490D1*
X6662337Y5074197D1*
X6677347Y5091773D1*
X6694923Y5106783D1*
X6706943Y5114557D1*
X6694923Y5122463D1*
X6677347Y5137473D1*
X6662337Y5155050D1*
X6650260Y5174757D1*
X6641417Y5196107D1*
X6636020Y5218583D1*
X6634207Y5241623D1*
X6636020Y5264663D1*
X6641417Y5287140D1*
X6650260Y5308490D1*
X6662337Y5328197D1*
X6677347Y5345773D1*
X6694923Y5360783D1*
X6706943Y5368557D1*
X6692703Y5378107D1*
X6678563Y5390270D1*
X6666073Y5404127D1*
X6655433Y5419450D1*
X6646817Y5435993D1*
X6640360Y5453493D1*
X6636167Y5471670D1*
X6634307Y5490233D1*
X6634803Y5508880D1*
X6637657Y5527317D1*
X6642817Y5545240D1*
X6650200Y5562373D1*
X6659690Y5578433D1*
X6671133Y5593163D1*
X6684347Y5606330D1*
X6699120Y5617723D1*
X6706907Y5622627D1*
X6694923Y5630463D1*
X6677347Y5645473D1*
X6662337Y5663050D1*
X6650260Y5682757D1*
X6641417Y5704107D1*
X6636020Y5726583D1*
X6634207Y5749623D1*
X6636020Y5772663D1*
X6641417Y5795140D1*
X6650260Y5816490D1*
X6662337Y5836197D1*
X6677347Y5853773D1*
X6694923Y5868783D1*
X6714630Y5880860D1*
X6735980Y5889703D1*
X6758457Y5895100D1*
X6781497Y5896913D1*
X6804537Y5895100D1*
X6827013Y5889703D1*
X6848363Y5880860D1*
X6868070Y5868783D1*
X6885647Y5853773D1*
X6900657Y5836197D1*
X6912733Y5816490D1*
X6921577Y5795140D1*
X6926973Y5772663D1*
X6928787Y5749623D1*
X6926973Y5726583D1*
X6921577Y5704107D1*
X6912733Y5682757D1*
X6900657Y5663050D1*
X6885647Y5645473D1*
X6868070Y5630463D1*
X6856050Y5622690D1*
X6873400Y5610723D1*
X6887213Y5598183D1*
X6899327Y5584000D1*
X6909553Y5568397D1*
X6917723Y5551627D1*
X6923710Y5533960D1*
X6927413Y5515677D1*
X6928787Y5495623D1*
X6927607Y5477007D1*
X6924080Y5458690D1*
X6918270Y5440963D1*
X6910263Y5424113D1*
X6900193Y5408413D1*
X6888217Y5394110D1*
X6874530Y5381433D1*
X6859350Y5370590D1*
X6856087Y5368630D1*
X6868070Y5360783D1*
X6885647Y5345773D1*
X6900657Y5328197D1*
X6912733Y5308490D1*
X6921577Y5287140D1*
X6926973Y5264663D1*
X6928787Y5241623D1*
X6926973Y5218583D1*
X6921577Y5196107D1*
X6912733Y5174757D1*
X6900657Y5155050D1*
X6885647Y5137473D1*
X6868070Y5122463D1*
X6856050Y5114690D1*
X6868070Y5106783D1*
X6885647Y5091773D1*
X6900657Y5074197D1*
X6912733Y5054490D1*
X6921577Y5033140D1*
X6926973Y5010663D1*
X6928787Y4987623D1*
X6926973Y4964583D1*
X6921577Y4942107D1*
X6912733Y4920757D1*
X6900657Y4901050D1*
X6885647Y4883473D1*
X6868070Y4868463D1*
X6856050Y4860690D1*
X6868070Y4852783D1*
X6885647Y4837773D1*
X6900657Y4820197D1*
X6912733Y4800490D1*
X6921577Y4779140D1*
X6926973Y4756663D1*
X6928787Y4733623D1*
X6926973Y4710583D1*
X6921577Y4688107D1*
X6912733Y4666757D1*
X6900657Y4647050D1*
X6885647Y4629473D1*
X6868070Y4614463D1*
X6856050Y4606690D1*
X6868070Y4598783D1*
X6885647Y4583773D1*
X6900657Y4566197D1*
X6912733Y4546490D1*
X6921577Y4525140D1*
X6926973Y4502663D1*
X6928787Y4479623D1*
X6926973Y4456583D1*
X6921577Y4434107D1*
X6912733Y4412757D1*
X6900657Y4393050D1*
X6885647Y4375473D1*
X6868070Y4360463D1*
X6856050Y4352690D1*
X6868070Y4344783D1*
X6885647Y4329773D1*
X6900657Y4312197D1*
X6902690Y4309157D1*
X6903373Y4329420D1*
X6906753Y4342980D1*
X6912867Y4355547D1*
X6921440Y4366583D1*
X6975920Y4420840D1*
X6987370Y4428850D1*
X7000230Y4434320D1*
X7013943Y4437017D1*
X7071333Y4437290D1*
X7124780Y4437120D1*
X7138540Y4434687D1*
X7151503Y4429460D1*
X7163107Y4421670D1*
X7203880Y4381283D1*
X7223703Y4360547D1*
X7230920Y4348580D1*
X7235510Y4335380D1*
X7237273Y4321497D1*
X7236897Y4037547D1*
X7233957Y4023883D1*
X7228257Y4011123D1*
X7172233Y3919360D1*
X7162680Y3909160D1*
X7151230Y3901150D1*
X7138370Y3895680D1*
X7124657Y3892983D1*
X7067267Y3892710D1*
X7015377Y3892980D1*
X7001663Y3895670D1*
X6988800Y3901133D1*
X6977343Y3909137D1*
X6967790Y3919333D1*
X6937130Y3967850D1*
X6928790Y3981187D1*
X6928787Y3824333D1*
X6693503D1*
X6693513Y2404173D1*
X6714633Y2417237D1*
X6735983Y2426080D1*
X6758460Y2431477D1*
X6781500Y2433290D1*
X6804540Y2431477D1*
X6827017Y2426080D1*
X6848367Y2417237D1*
X6868073Y2405160D1*
X6885650Y2390150D1*
X6900660Y2372573D1*
X6902693Y2369533D1*
X6903103Y2462457D1*
X6906043Y2476117D1*
X6911743Y2488877D1*
X6967770Y2580640D1*
X6977320Y2590840D1*
X6988773Y2598850D1*
X7001630Y2604320D1*
X7015343Y2607017D1*
X7072733Y2607290D1*
X7124623Y2607020D1*
X7138337Y2604330D1*
X7151200Y2598867D1*
X7162657Y2590863D1*
X7172210Y2580667D1*
X7202870Y2532150D1*
X7230970Y2486273D1*
X7235537Y2473063D1*
X7237277Y2459197D1*
X7237120Y2175220D1*
X7234687Y2161460D1*
X7229460Y2148497D1*
X7221670Y2136893D1*
X7181283Y2096120D1*
X7160453Y2076227D1*
X7148473Y2069030D1*
X7135263Y2064463D1*
X7121397Y2062723D1*
X7015220Y2062880D1*
X7001460Y2065313D1*
X6988497Y2070540D1*
X6976893Y2078330D1*
X6936120Y2118717D1*
X6916297Y2139453D1*
X6909080Y2151420D1*
X6904490Y2164620D1*
X6902727Y2178503D1*
X6902710Y2202330D1*
X6893500Y2190343D1*
X6877157Y2174000D1*
X6858460Y2160413D1*
X6856053Y2159067D1*
X6873403Y2147100D1*
X6887217Y2134560D1*
X6899330Y2120377D1*
X6909557Y2104773D1*
X6917727Y2088003D1*
X6923713Y2070337D1*
X6927417Y2052053D1*
X6928790Y2032000D1*
X6927610Y2013383D1*
X6924083Y1995067D1*
X6918273Y1977340D1*
X6910267Y1960490D1*
X6900197Y1944790D1*
X6888220Y1930487D1*
X6874533Y1917810D1*
X6859353Y1906967D1*
X6856090Y1905007D1*
X6868073Y1897160D1*
X6885650Y1882150D1*
X6900660Y1864573D1*
X6912737Y1844867D1*
X6921580Y1823517D1*
X6926977Y1801040D1*
X6928790Y1778000D1*
X6926977Y1754960D1*
X6921580Y1732483D1*
X6912737Y1711133D1*
X6900660Y1691427D1*
X6885650Y1673850D1*
X6868073Y1658840D1*
X6856053Y1651067D1*
X6868073Y1643160D1*
X6885650Y1628150D1*
X6900660Y1610573D1*
X6912737Y1590867D1*
X6921580Y1569517D1*
X6926977Y1547040D1*
X6928790Y1524000D1*
X6926977Y1500960D1*
X6921580Y1478483D1*
X6912737Y1457133D1*
X6900660Y1437427D1*
X6885650Y1419850D1*
X6868073Y1404840D1*
X6856053Y1397067D1*
X6868073Y1389160D1*
X6885650Y1374150D1*
X6900660Y1356573D1*
X6912737Y1336867D1*
X6921580Y1315517D1*
X6926977Y1293040D1*
X6928790Y1270000D1*
X6926977Y1246960D1*
X6921580Y1224483D1*
X6912737Y1203133D1*
X6900660Y1183427D1*
X6885650Y1165850D1*
X6868073Y1150840D1*
X6856053Y1143067D1*
X6868073Y1135160D1*
X6885650Y1120150D1*
X6900660Y1102573D1*
X6912737Y1082867D1*
X6921580Y1061517D1*
X6926977Y1039040D1*
X6928790Y1016000D1*
X6926977Y992960D1*
X6921580Y970483D1*
X6912737Y949133D1*
X6900660Y929427D1*
X6885650Y911850D1*
X6868073Y896840D1*
X6856053Y889067D1*
X6868073Y881160D1*
X6885650Y866150D1*
X6900660Y848573D1*
X6912737Y828867D1*
X6921580Y807517D1*
X6926977Y785040D1*
X6928790Y762000D1*
X6926977Y738960D1*
X6921580Y716483D1*
X6912737Y695133D1*
X6900660Y675427D1*
X6885650Y657850D1*
X6882897Y655303D1*
X6928790Y655290D1*
Y477573D1*
X6939390Y507950D1*
X6948663Y528063D1*
X6959483Y547387D1*
X6971790Y565803D1*
X6985503Y583200D1*
X7000537Y599463D1*
X7016800Y614497D1*
X7034197Y628210D1*
X7052613Y640517D1*
X7071937Y651337D1*
X7092050Y660610D1*
X7112830Y668277D1*
X7134150Y674290D1*
X7155873Y678610D1*
X7177867Y681213D1*
X7200000Y682083D1*
X7222133Y681213D1*
X7244127Y678610D1*
X7265850Y674290D1*
X7287170Y668277D1*
X7307950Y660610D1*
X7328063Y651337D1*
X7347387Y640517D1*
X7365803Y628210D1*
X7383200Y614497D1*
X7399463Y599463D1*
X7414497Y583200D1*
X7428210Y565803D1*
X7440517Y547387D1*
X7451337Y528063D1*
X7460610Y507950D1*
X7468277Y487170D1*
X7474290Y465850D1*
X7478610Y444127D1*
X7481213Y422133D1*
X7482083Y400000D1*
X7481213Y377867D1*
X7478610Y355873D1*
X7474290Y334150D1*
X7468277Y312830D1*
X7460610Y292050D1*
X7451337Y271937D1*
X7440517Y252613D1*
X7428210Y234197D1*
X7414497Y216800D1*
X7399463Y200537D1*
X7383200Y185503D1*
X7365803Y171790D1*
X7347387Y159483D1*
X7328063Y148663D1*
X7307950Y139390D1*
X7287170Y131723D1*
X7265850Y125710D1*
X7244127Y121390D1*
X7222133Y118787D1*
X7200000Y117917D1*
X7177867Y118787D1*
X7155873Y121390D1*
X7134150Y125710D1*
X7112830Y131723D1*
X7092050Y139390D1*
X7071937Y148663D1*
X7052613Y159483D1*
X7034197Y171790D1*
X7016800Y185503D1*
X7000537Y200537D1*
X6985503Y216800D1*
X6971790Y234197D1*
X6959483Y252613D1*
X6948663Y271937D1*
X6939390Y292050D1*
X6931723Y312830D1*
X6925710Y334150D1*
X6920810Y360770D1*
X6634210Y360710D1*
Y516150D1*
X6354947Y237360D1*
X6341567Y227640D1*
X6326830Y220133D1*
X6311103Y215020D1*
X6294770Y212433D1*
X6193167Y212110D1*
X5230480Y212433D1*
X5214147Y215020D1*
X5198420Y220133D1*
X5183683Y227640D1*
X5170303Y237360D1*
X5098230Y308973D1*
X4904610Y503053D1*
X4894890Y516433D1*
X4887383Y531170D1*
X4882273Y546897D1*
X4879683Y563230D1*
X4879360Y664833D1*
Y1401017D1*
X4163190Y2117140D1*
X2894083Y2117110D1*
X2876183Y2104263D1*
X2854193Y2093060D1*
X2830720Y2085433D1*
X2806340Y2081570D1*
X2781660D1*
X2757280Y2085433D1*
X2733807Y2093060D1*
X2711817Y2104263D1*
X2691847Y2118773D1*
X2674397Y2136223D1*
X2659887Y2156193D1*
X2648683Y2178183D1*
X2641057Y2201657D1*
X2637193Y2226037D1*
Y2250717D1*
X2641057Y2275097D1*
X2648683Y2298570D1*
X2659887Y2320560D1*
X2674397Y2340530D1*
X2691847Y2357980D1*
X2701207Y2365357D1*
X2687547Y2376583D1*
X2674587Y2390003D1*
X2663307Y2404860D1*
X2653863Y2420950D1*
X2646390Y2438047D1*
X2640997Y2455903D1*
X2637753Y2474277D1*
X2636710Y2492903D1*
X2637880Y2511520D1*
X2641243Y2529870D1*
X2646757Y2547693D1*
X2654343Y2564737D1*
X2663893Y2580763D1*
X2669963Y2589080D1*
X2636710Y2589087D1*
Y2836183D1*
X2605793Y2836210D1*
X2588710Y2825403D1*
X2573153Y2818960D1*
X2556783Y2815030D1*
X2540000Y2813710D1*
X2523217Y2815030D1*
X2506847Y2818960D1*
X2491290Y2825403D1*
X2476937Y2834200D1*
X2464133Y2845133D1*
X2453200Y2857937D1*
X2444403Y2872290D1*
X2437960Y2887847D1*
X2434030Y2904217D1*
X2432710Y2921000D1*
X2434030Y2937783D1*
X2437960Y2954153D1*
X2444403Y2969710D1*
X2453200Y2984063D1*
X2462503Y2995100D1*
X2456750Y3006943D1*
X2451547Y3022953D1*
X2448913Y3039583D1*
Y3056417D1*
X2451547Y3073047D1*
X2456750Y3089057D1*
X2464393Y3104060D1*
X2474290Y3117680D1*
X2486193Y3129583D1*
X2499813Y3139480D1*
X2514817Y3147123D1*
X2530827Y3152327D1*
X2547457Y3154960D1*
X2555840Y3155290D1*
X2554313Y3166583D1*
Y3183383D1*
X2534317Y3177193D1*
X2515927Y3174060D1*
X2497290Y3173233D1*
X2478697Y3174733D1*
X2460430Y3178530D1*
X2442780Y3184570D1*
X2426020Y3192753D1*
X2410403Y3202960D1*
X2396177Y3215027D1*
X2383563Y3228770D1*
X2372753Y3243973D1*
X2363917Y3260403D1*
X2357190Y3277803D1*
X2352680Y3295903D1*
X2350457Y3314427D1*
X2350550Y3333080D1*
X2352960Y3351577D1*
X2357653Y3369633D1*
X2364553Y3386963D1*
X2373553Y3403303D1*
X2384517Y3418397D1*
X2397270Y3432013D1*
X2411617Y3443937D1*
X2420607Y3450000D1*
X2402720Y3463100D1*
X2386100Y3479720D1*
X2372283Y3498733D1*
X2361613Y3519677D1*
X2354350Y3542033D1*
X2350673Y3565247D1*
Y3588753D1*
X2354350Y3611967D1*
X2361613Y3634323D1*
X2372283Y3655267D1*
X2386100Y3674280D1*
X2402720Y3690900D1*
X2421733Y3704717D1*
X2442677Y3715387D1*
X2465033Y3722650D1*
X2488247Y3726327D1*
X2511753D1*
X2534967Y3722650D1*
X2557323Y3715387D1*
X2578267Y3704717D1*
X2597280Y3690900D1*
X2613900Y3674280D1*
X2627717Y3655267D1*
X2638387Y3634323D1*
X2645650Y3611967D1*
X2649327Y3588753D1*
Y3565247D1*
X2645650Y3542033D1*
X2638387Y3519677D1*
X2627717Y3498733D1*
X2613900Y3479720D1*
X2597280Y3463100D1*
X2579373Y3450023D1*
X2593880Y3439720D1*
X2607660Y3427143D1*
X2619770Y3412957D1*
X2630023Y3397370D1*
X2638260Y3380633D1*
X2644350Y3363000D1*
X2648203Y3344747D1*
X2649757Y3326157D1*
X2649137Y3309020D1*
X2646243Y3290590D1*
X2643723Y3280833D1*
X2661273Y3282290D1*
X2678057Y3280970D1*
X2684607Y3279790D1*
X3507380D1*
X3519987Y3290117D1*
X3539460Y3301983D1*
X3519987Y3313883D1*
X3503010Y3328387D1*
X3488510Y3345363D1*
X3476843Y3364403D1*
X3468297Y3385030D1*
X3463087Y3406740D1*
X3461333Y3429000D1*
X3461757Y3439770D1*
X3345957Y3555583D1*
X6197540Y6182667D2*
X6468787D1*
Y5888087D1*
X6174207D1*
Y6182667D1*
X6197540D1*
X6118713Y6030710D2*
X6116943Y6012140D1*
X6112840Y5993943D1*
X6106470Y5976410D1*
X6097933Y5959823D1*
X6087370Y5944450D1*
X6074947Y5930533D1*
X6060867Y5918297D1*
X6045350Y5907940D1*
X6028650Y5899627D1*
X6011033Y5893493D1*
X5992783Y5889633D1*
X5974193Y5888110D1*
X5955557Y5888953D1*
X5937177Y5892140D1*
X5919350Y5897627D1*
X5902357Y5905323D1*
X5886473Y5915107D1*
X5871953Y5926817D1*
X5859030Y5940270D1*
X5847910Y5955247D1*
X5838773Y5971510D1*
X5831767Y5988797D1*
X5827000Y6006833D1*
X5824550Y6025327D1*
X5824457Y6043980D1*
X5826723Y6062497D1*
X5831313Y6080577D1*
X5838150Y6097933D1*
X5847127Y6114287D1*
X5858097Y6129373D1*
X5870890Y6142950D1*
X5885293Y6154803D1*
X5901080Y6164743D1*
X5917993Y6172607D1*
X5935770Y6178267D1*
X5954117Y6181637D1*
X5972743Y6182660D1*
X5991347Y6181323D1*
X6009637Y6177643D1*
X6027313Y6171680D1*
X6044093Y6163533D1*
X6059710Y6153330D1*
X6073910Y6141233D1*
X6086470Y6127440D1*
X6097183Y6112170D1*
X6105880Y6095670D1*
X6112423Y6078200D1*
X6116707Y6060043D1*
X6118660Y6041493D1*
X6118713Y6030710D1*
X6197540Y2753667D2*
X6468787D1*
Y2459087D1*
X6174207D1*
Y2753667D1*
X6197540D1*
X6118713Y2601710D2*
X6116943Y2583140D1*
X6112840Y2564943D1*
X6106470Y2547410D1*
X6097933Y2530823D1*
X6087370Y2515450D1*
X6074947Y2501533D1*
X6060867Y2489297D1*
X6045350Y2478940D1*
X6028650Y2470627D1*
X6011033Y2464493D1*
X5992783Y2460633D1*
X5974193Y2459110D1*
X5955557Y2459953D1*
X5937177Y2463140D1*
X5919350Y2468627D1*
X5902357Y2476323D1*
X5886473Y2486107D1*
X5871953Y2497817D1*
X5859030Y2511270D1*
X5847910Y2526247D1*
X5838773Y2542510D1*
X5831767Y2559797D1*
X5827000Y2577833D1*
X5824550Y2596327D1*
X5824457Y2614980D1*
X5826723Y2633497D1*
X5831313Y2651577D1*
X5838150Y2668933D1*
X5847127Y2685287D1*
X5858097Y2700373D1*
X5870890Y2713950D1*
X5885293Y2725803D1*
X5901080Y2735743D1*
X5917993Y2743607D1*
X5935770Y2749267D1*
X5954117Y2752637D1*
X5972743Y2753660D1*
X5991347Y2752323D1*
X6009637Y2748643D1*
X6027313Y2742680D1*
X6044093Y2734533D1*
X6059710Y2724330D1*
X6073910Y2712233D1*
X6086470Y2698440D1*
X6097183Y2683170D1*
X6105880Y2666670D1*
X6112423Y2649200D1*
X6116707Y2631043D1*
X6118660Y2612493D1*
X6118713Y2601710D1*
X1254790Y4765030D2*
Y4589710D1*
X1097017D1*
X1108350Y4573427D1*
X1116807Y4556803D1*
X1122937Y4539183D1*
X1126617Y4520900D1*
X1127790Y4503000D1*
X1127473Y4433673D1*
X1124943Y4415193D1*
X1119933Y4397227D1*
X1112537Y4380103D1*
X1102883Y4364143D1*
X1091160Y4349637D1*
X1088797Y4347177D1*
X1501547Y4347190D1*
X1600207Y4445917D1*
X1603457Y4455850D1*
X1608250Y4465260D1*
X1614457Y4473800D1*
X1621923Y4481267D1*
X1649730Y4499523D1*
X1664027Y4508463D1*
X1626070Y4532460D1*
X1618027Y4539333D1*
X1592290Y4542810D1*
X1548477Y4543097D1*
X1534113Y4545370D1*
X1520280Y4549867D1*
X1507320Y4556470D1*
X1495553Y4565017D1*
X1407713Y4652453D1*
X1295120Y4765047D1*
X1254840Y4765060D1*
X519090Y3820167D2*
X516993Y3802443D1*
X513510Y3784940D1*
X508667Y3767763D1*
X502490Y3751020D1*
X495017Y3734810D1*
X486297Y3719240D1*
X476380Y3704400D1*
X465333Y3690387D1*
X453217Y3677280D1*
X440113Y3665167D1*
X426097Y3654117D1*
X411260Y3644203D1*
X395687Y3635483D1*
X379480Y3628010D1*
X362737Y3621833D1*
X345560Y3616990D1*
X328057Y3613507D1*
X310333Y3611410D1*
X292500Y3610710D1*
X274667Y3611410D1*
X256943Y3613507D1*
X239440Y3616990D1*
X222263Y3621833D1*
X205520Y3628010D1*
X189313Y3635483D1*
X173740Y3644203D1*
X158903Y3654117D1*
X144887Y3665167D1*
X131783Y3677280D1*
X119667Y3690387D1*
X108620Y3704400D1*
X98703Y3719240D1*
X89983Y3734810D1*
X81763Y3753047D1*
X81750Y2405587D1*
X95617Y2414787D1*
X112250Y2423230D1*
X129770Y2429647D1*
X147923Y2433943D1*
X166460Y2436057D1*
X185113Y2435963D1*
X203627Y2433663D1*
X221740Y2429187D1*
X239190Y2422597D1*
X255740Y2413987D1*
X271157Y2403477D1*
X285217Y2391217D1*
X297727Y2377377D1*
X308513Y2362153D1*
X317420Y2345763D1*
X324320Y2328430D1*
X329123Y2310403D1*
X331757Y2291933D1*
X332290Y2265000D1*
X332013Y2029673D1*
X329803Y2011147D1*
X325417Y1993013D1*
X318917Y1975530D1*
X310387Y1958937D1*
X299957Y1943470D1*
X287767Y1929347D1*
X273990Y1916767D1*
X258823Y1905907D1*
X242473Y1896917D1*
X225177Y1889930D1*
X207177Y1885037D1*
X188720Y1882310D1*
X170070Y1881787D1*
X151493Y1883477D1*
X133243Y1887353D1*
X115583Y1893363D1*
X98757Y1901423D1*
X81763Y1912343D1*
X81750Y775900D1*
X95827Y789583D1*
X110703Y800840D1*
X126807Y810257D1*
X143917Y817700D1*
X161783Y823063D1*
X180160Y826277D1*
X198787Y827287D1*
X217407Y826090D1*
X235750Y822693D1*
X253563Y817150D1*
X270593Y809537D1*
X286603Y799960D1*
X301367Y788553D1*
X314677Y775483D1*
X326347Y760927D1*
X336210Y745090D1*
X344127Y728200D1*
X349990Y710487D1*
X353713Y692207D1*
X355250Y673617D1*
X355013Y540673D1*
X352803Y522147D1*
X348417Y504013D1*
X341917Y486530D1*
X333387Y469937D1*
X322957Y454470D1*
X310767Y440347D1*
X296990Y427767D1*
X281823Y416907D1*
X265473Y407917D1*
X248177Y400930D1*
X230177Y396037D1*
X211720Y393310D1*
X193070Y392787D1*
X174493Y394477D1*
X156243Y398353D1*
X138583Y404363D1*
X121757Y412423D1*
X106007Y422417D1*
X91547Y434207D1*
X81737Y444063D1*
X81750Y81733D1*
X8518267Y81750D1*
X8518250Y2062773D1*
X8414720Y2062917D1*
X8404290Y2064570D1*
X8394250Y2067833D1*
X8384840Y2072627D1*
X8376300Y2078833D1*
X8318833Y2136300D1*
X8312627Y2144840D1*
X8307833Y2154250D1*
X8304570Y2164290D1*
X8302917Y2174720D1*
X8302710Y2455127D1*
X8303487Y2465403D1*
X8305903Y2475683D1*
X8309897Y2485457D1*
X8364027Y2575160D1*
X8370233Y2583700D1*
X8377700Y2591167D1*
X8386240Y2597373D1*
X8395650Y2602167D1*
X8405690Y2605430D1*
X8416120Y2607083D1*
X8518253Y2607290D1*
X8518250Y3892800D1*
X8416727Y3892873D1*
X8406283Y3894430D1*
X8396213Y3897603D1*
X8386760Y3902310D1*
X8378163Y3908440D1*
X8370630Y3915837D1*
X8364347Y3924323D1*
X8310043Y4011650D1*
X8306003Y4021407D1*
X8303537Y4031673D1*
X8302710Y4042200D1*
X8302917Y4325280D1*
X8304570Y4335710D1*
X8307833Y4345750D1*
X8312627Y4355160D1*
X8318833Y4363700D1*
X8376300Y4421167D1*
X8384840Y4427373D1*
X8394250Y4432167D1*
X8404290Y4435430D1*
X8414720Y4437083D1*
X8518257Y4437290D1*
X8518250Y6418267D1*
X2050300Y6418250D1*
X2061633Y6410187D1*
X2071147Y6399953D1*
X2078343Y6387973D1*
X2082910Y6374763D1*
X2084650Y6360900D1*
X2084393Y6253463D1*
X2081700Y6239750D1*
X2076233Y6226890D1*
X2068227Y6215433D1*
X2058030Y6205880D1*
X2009507Y6175230D1*
X1982347Y6158257D1*
X2056927Y6113940D1*
X2064953Y6107080D1*
X2071813Y6099053D1*
X2077330Y6090050D1*
X2081370Y6080293D1*
X2083837Y6070027D1*
X2084663Y6059500D1*
X2084500Y5954813D1*
X2082940Y5944370D1*
X2079767Y5934300D1*
X2075057Y5924850D1*
X2068923Y5916250D1*
X2061523Y5908720D1*
X2053037Y5902437D1*
X1967923Y5849543D1*
X1958167Y5845503D1*
X1947900Y5843037D1*
X1937373Y5842210D1*
X1771503Y5842467D1*
X1761090Y5844210D1*
X1751077Y5847560D1*
X1741710Y5852437D1*
X1657820Y5905060D1*
X1649793Y5911920D1*
X1642933Y5919947D1*
X1637417Y5928950D1*
X1633377Y5938707D1*
X1630913Y5948973D1*
X1630083Y5959500D1*
X1630310Y6065000D1*
X1631993Y6075423D1*
X1635290Y6085457D1*
X1640117Y6094847D1*
X1646350Y6103370D1*
X1653840Y6110813D1*
X1662403Y6116990D1*
X1731320Y6158910D1*
X1656733Y6205867D1*
X1646533Y6215420D1*
X1638523Y6226870D1*
X1633053Y6239730D1*
X1630357Y6253443D1*
X1630083Y6310833D1*
X1630730Y6368803D1*
X1634087Y6382370D1*
X1640177Y6394947D1*
X1648733Y6405997D1*
X1659400Y6415050D1*
X1643333Y6418250D1*
X81733D1*
X81750Y3923163D1*
X89983Y3941187D1*
X98703Y3956757D1*
X108620Y3971597D1*
X119667Y3985613D1*
X131783Y3998717D1*
X144887Y4010833D1*
X158903Y4021880D1*
X173740Y4031797D1*
X189313Y4040517D1*
X205520Y4047987D1*
X222263Y4054163D1*
X239440Y4059010D1*
X256943Y4062490D1*
X274667Y4064590D1*
X292500Y4065290D1*
X310333Y4064590D1*
X328057Y4062490D1*
X345560Y4059010D1*
X362737Y4054163D1*
X379480Y4047987D1*
X395687Y4040517D1*
X411260Y4031797D1*
X426097Y4021880D1*
X440113Y4010833D1*
X453217Y3998717D1*
X465333Y3985613D1*
X476380Y3971597D1*
X486297Y3956757D1*
X495017Y3941187D1*
X502490Y3924980D1*
X508667Y3908237D1*
X513510Y3891060D1*
X516993Y3873557D1*
X519090Y3855833D1*
X519790Y3838000D1*
X519090Y3820167D1*
X1986600Y4254193D2*
X2025177Y4230540D1*
X2033220Y4223667D1*
X2053207Y4220190D1*
X2136423D1*
X2350437Y4434150D1*
X2344677Y4436093D1*
X2219197Y4311017D1*
X2207430Y4302470D1*
X2194470Y4295867D1*
X2180637Y4291370D1*
X2166273Y4289097D1*
X2036410Y4288810D1*
X2025667Y4278820D1*
X1986600Y4254147D1*
X2001517Y4009473D2*
X1986600Y4000147D1*
X2025177Y3976540D1*
X2033220Y3969667D1*
X2047667Y3966190D1*
X2088773D1*
X2157417Y4034750D1*
X2036423Y4034810D1*
X2025667Y4024820D1*
X2001517Y4009473D1*
Y4517473D2*
X1986600Y4508150D1*
X2025177Y4484540D1*
X2033220Y4477667D1*
X2040207Y4474190D1*
X2120690D1*
X2190583Y4544167D1*
X2174843Y4542810D1*
X2036423D1*
X2025667Y4532820D1*
X2001517Y4517473D1*
X1071837Y528443D2*
X1071397Y524720D1*
X1265290Y330793D1*
X1671213Y330813D1*
X1681473Y342273D1*
X1699050Y357283D1*
X1711070Y365057D1*
X1699050Y372963D1*
X1681473Y387973D1*
X1666463Y405550D1*
X1654387Y425257D1*
X1645543Y446607D1*
X1640147Y469083D1*
X1638333Y492123D1*
X1640147Y515163D1*
X1645543Y537640D1*
X1654387Y558990D1*
X1657103Y563840D1*
X1564643Y656683D1*
X1560123Y662420D1*
X1559290Y660667D1*
X1559013Y540673D1*
X1556803Y522147D1*
X1552417Y504013D1*
X1545917Y486530D1*
X1537387Y469937D1*
X1526957Y454470D1*
X1514767Y440347D1*
X1500990Y427767D1*
X1485823Y416907D1*
X1469473Y407917D1*
X1452177Y400930D1*
X1434177Y396037D1*
X1415720Y393310D1*
X1397070Y392787D1*
X1378493Y394477D1*
X1360243Y398353D1*
X1342583Y404363D1*
X1325757Y412423D1*
X1310007Y422417D1*
X1295547Y434207D1*
X1282587Y447627D1*
X1271307Y462483D1*
X1261863Y478573D1*
X1254390Y495670D1*
X1248997Y513527D1*
X1245753Y531900D1*
X1244717Y549997D1*
X1245020Y679853D1*
X1247290Y698370D1*
X1251737Y716487D1*
X1258297Y733950D1*
X1266880Y750517D1*
X1277363Y765947D1*
X1289600Y780030D1*
X1303417Y792563D1*
X1318623Y803373D1*
X1335000Y812307D1*
X1352320Y819240D1*
X1370340Y824070D1*
X1388803Y826737D1*
X1407453Y827197D1*
X1426027Y825443D1*
X1444263Y821507D1*
X1461903Y815437D1*
X1478700Y807320D1*
X1494420Y797273D1*
X1508840Y785437D1*
X1521757Y771973D1*
X1532987Y757080D1*
X1542430Y740843D1*
X1542437Y771293D1*
X1469753Y843913D1*
X1071443Y843937D1*
X1068220Y825617D1*
X1061077Y803633D1*
X1050587Y783040D1*
X1037000Y764343D1*
X1020657Y748000D1*
X1001960Y734413D1*
X981367Y723923D1*
X959383Y716780D1*
X936557Y713163D1*
X913443D1*
X890617Y716780D1*
X868633Y723923D1*
X848040Y734413D1*
X829343Y748000D1*
X813000Y764343D1*
X800043Y782103D1*
X787000Y764343D1*
X770657Y748000D1*
X751960Y734413D1*
X731367Y723923D1*
X709383Y716780D1*
X686557Y713163D1*
X663443D1*
X640617Y716780D1*
X618633Y723923D1*
X598040Y734413D1*
X579343Y748000D1*
X563000Y764343D1*
X549413Y783040D1*
X538923Y803633D1*
X531780Y825617D1*
X528163Y848443D1*
Y871557D1*
X531780Y894383D1*
X538923Y916367D1*
X549413Y936960D1*
X563000Y955657D1*
X579343Y972000D1*
X598040Y985587D1*
X618633Y996077D1*
X640617Y1003220D1*
X663443Y1006837D1*
X686557D1*
X709383Y1003220D1*
X731367Y996077D1*
X751960Y985587D1*
X770657Y972000D1*
X787000Y955657D1*
X799957Y937897D1*
X813000Y955657D1*
X829343Y972000D1*
X848040Y985587D1*
X868633Y996077D1*
X890617Y1003220D1*
X913443Y1006837D1*
X936557D1*
X940550Y1006363D1*
X953197Y1015657D1*
X966157Y1022260D1*
X979990Y1026757D1*
X994353Y1029030D1*
X1118293Y1029317D1*
X1200233D1*
X1015027Y1214933D1*
X1007203Y1225697D1*
X1001163Y1237553D1*
X997053Y1250207D1*
X994970Y1263347D1*
X994710Y1410000D1*
Y1985040D1*
X975000Y1983710D1*
X952740Y1985463D1*
X940537Y1987740D1*
X935327Y1966030D1*
X926780Y1945403D1*
X915117Y1926363D1*
X900613Y1909387D1*
X883637Y1894883D1*
X864597Y1883220D1*
X843970Y1874673D1*
X822260Y1869463D1*
X800000Y1867710D1*
X777740Y1869463D1*
X756030Y1874673D1*
X735403Y1883220D1*
X716363Y1894883D1*
X699387Y1909387D1*
X684883Y1926363D1*
X673220Y1945403D1*
X664673Y1966030D1*
X659437Y1987957D1*
X636163Y1984150D1*
X613837D1*
X591783Y1987640D1*
X570547Y1994540D1*
X550653Y2004677D1*
X532590Y2017803D1*
X516803Y2033590D1*
X503677Y2051653D1*
X493540Y2071547D1*
X486640Y2092783D1*
X483150Y2114837D1*
Y2137163D1*
X486640Y2159217D1*
X493540Y2180453D1*
X503677Y2200347D1*
X516803Y2218410D1*
X532590Y2234197D1*
X549673Y2246667D1*
X542177Y2257653D1*
X532040Y2277547D1*
X525140Y2298783D1*
X521650Y2320837D1*
Y2343163D1*
X525140Y2365217D1*
X532040Y2386453D1*
X542177Y2406347D1*
X555303Y2424410D1*
X571090Y2440197D1*
X589153Y2453323D1*
X591630Y2454707D1*
X599023Y2464817D1*
X702540Y2568700D1*
X802183Y2667977D1*
X812947Y2675797D1*
X824803Y2681837D1*
X837457Y2685947D1*
X850597Y2688030D1*
X997250Y2688290D1*
X1721153Y2688030D1*
X1734293Y2685947D1*
X1746947Y2681837D1*
X1758803Y2675797D1*
X1769567Y2667977D1*
X1794490Y2643790D1*
X1905777Y2643607D1*
X1916213Y2642007D1*
X1926270Y2638793D1*
X1935703Y2634043D1*
X2025177Y2579540D1*
X2033203Y2572680D1*
X2040063Y2564653D1*
X2045580Y2555650D1*
X2049620Y2545893D1*
X2052087Y2535627D1*
X2052913Y2525100D1*
X2052750Y2423227D1*
X2051193Y2412783D1*
X2048020Y2402713D1*
X2043313Y2393260D1*
X2037183Y2384663D1*
X2029787Y2377130D1*
X2021300Y2370847D1*
X1986600Y2349147D1*
X2025177Y2325540D1*
X2033203Y2318680D1*
X2040063Y2310653D1*
X2045580Y2301650D1*
X2049620Y2291893D1*
X2052087Y2281627D1*
X2052913Y2271100D1*
X2052750Y2169227D1*
X2051193Y2158783D1*
X2048023Y2148713D1*
X2043313Y2139260D1*
X2037183Y2130663D1*
X2029787Y2123130D1*
X2021300Y2116847D1*
X1986600Y2095147D1*
X2026263Y2070730D1*
X2036463Y2061180D1*
X2044473Y2049730D1*
X2049943Y2036870D1*
X2052640Y2023157D1*
X2052913Y1965767D1*
X2052643Y1913877D1*
X2049953Y1900163D1*
X2044490Y1887300D1*
X2036487Y1875843D1*
X2026290Y1866290D1*
X1986630Y1841167D1*
X2025177Y1817540D1*
X2033203Y1810680D1*
X2040063Y1802653D1*
X2045580Y1793650D1*
X2049620Y1783893D1*
X2052087Y1773627D1*
X2052913Y1763100D1*
X2052750Y1661227D1*
X2051193Y1650783D1*
X2048023Y1640713D1*
X2043313Y1631260D1*
X2037183Y1622663D1*
X2029787Y1615130D1*
X2021300Y1608847D1*
X1986600Y1587147D1*
X2025177Y1563540D1*
X2033203Y1556680D1*
X2040063Y1548653D1*
X2045580Y1539650D1*
X2049620Y1529893D1*
X2052087Y1519627D1*
X2052913Y1509100D1*
Y1496067D1*
X2128223Y1420317D1*
X2136047Y1409553D1*
X2142087Y1397697D1*
X2146197Y1385043D1*
X2148280Y1371903D1*
X2148540Y1225250D1*
X2148280Y1104597D1*
X2146197Y1091457D1*
X2142087Y1078803D1*
X2136047Y1066947D1*
X2128223Y1056183D1*
X2044333Y971920D1*
X2034217Y963280D1*
X2022870Y956327D1*
X2010577Y951237D1*
X1997640Y948130D1*
X1984377Y947087D1*
X1628817D1*
X1705627Y869800D1*
X1723540Y879690D1*
X1740920Y886467D1*
X1759017Y890990D1*
X1777540Y893190D1*
X1866870Y893407D1*
X1885473Y892070D1*
X1903763Y888390D1*
X1921440Y882427D1*
X1938220Y874280D1*
X1953837Y864077D1*
X1968037Y851980D1*
X1980597Y838187D1*
X1991310Y822917D1*
X2000007Y806417D1*
X2006550Y788947D1*
X2010833Y770790D1*
X2012787Y752240D1*
X2012250Y732143D1*
X2009307Y713723D1*
X2004057Y695823D1*
X1996590Y678730D1*
X1987020Y662717D1*
X1975507Y648040D1*
X1962227Y634940D1*
X1947400Y623620D1*
X1940213Y619130D1*
X1952197Y611283D1*
X1969773Y596273D1*
X1984783Y578697D1*
X1996860Y558990D1*
X2005703Y537640D1*
X2011100Y515163D1*
X2012913Y492123D1*
X2011100Y469083D1*
X2005703Y446607D1*
X1996860Y425257D1*
X1984783Y405550D1*
X1969773Y387973D1*
X1952197Y372963D1*
X1940177Y365190D1*
X1952197Y357283D1*
X1969773Y342273D1*
X1984783Y324697D1*
X1996860Y304990D1*
X2005703Y283640D1*
X2011100Y261163D1*
X2012913Y238123D1*
X2011100Y215083D1*
X2005703Y192607D1*
X1996860Y171257D1*
X1984783Y151550D1*
X1969773Y133973D1*
X1952197Y118963D1*
X1932490Y106887D1*
X1911140Y98043D1*
X1888663Y92647D1*
X1865623Y90833D1*
X1774067Y91287D1*
X1751240Y94903D1*
X1729257Y102047D1*
X1708663Y112537D1*
X1689967Y126123D1*
X1673623Y142467D1*
X1671303Y145410D1*
X1219603Y145720D1*
X1205240Y147993D1*
X1191407Y152490D1*
X1178447Y159093D1*
X1166680Y167640D1*
X1078840Y255077D1*
X940337Y393580D1*
X925000Y392710D1*
X901960Y394523D1*
X879483Y399920D1*
X858133Y408763D1*
X838427Y420840D1*
X820850Y435850D1*
X805840Y453427D1*
X800043Y462103D1*
X787933Y445447D1*
X775077Y431930D1*
X760617Y420150D1*
X744780Y410290D1*
X727827Y402510D1*
X710023Y396933D1*
X691660Y393657D1*
X673030Y392723D1*
X654430Y394153D1*
X636160Y397923D1*
X618513Y403970D1*
X601773Y412203D1*
X586207Y422483D1*
X572067Y434647D1*
X559577Y448503D1*
X548937Y463827D1*
X540320Y480370D1*
X533863Y497870D1*
X529670Y516047D1*
X527810Y534610D1*
X528307Y553257D1*
X531160Y571693D1*
X536320Y589617D1*
X543703Y606750D1*
X553193Y622810D1*
X564637Y637540D1*
X577850Y650707D1*
X592623Y662100D1*
X608717Y671533D1*
X625873Y678857D1*
X643817Y683950D1*
X662260Y686737D1*
X680910Y687170D1*
X699463Y685243D1*
X717627Y680987D1*
X735107Y674467D1*
X751620Y665793D1*
X766903Y655100D1*
X780717Y642560D1*
X792830Y628377D1*
X799993Y617887D1*
X813000Y635657D1*
X829343Y652000D1*
X848040Y665587D1*
X868633Y676077D1*
X890617Y683220D1*
X913443Y686837D1*
X936557D1*
X959383Y683220D1*
X981367Y676077D1*
X1001960Y665587D1*
X1020657Y652000D1*
X1037000Y635657D1*
X1050587Y616960D1*
X1061077Y596367D1*
X1068220Y574383D1*
X1071837Y551557D1*
Y528443D1*
X1078350Y2320837D2*
X1077207Y2311170D1*
X1223353Y2164690D1*
X1231173Y2153927D1*
X1237213Y2142070D1*
X1241323Y2129417D1*
X1243407Y2116277D1*
X1243667Y1969623D1*
Y1325497D1*
X1373190Y1196007D1*
X1598253Y1196040D1*
X1598497Y1259773D1*
X1600053Y1270217D1*
X1603227Y1280287D1*
X1607933Y1289740D1*
X1614063Y1298337D1*
X1621460Y1305870D1*
X1629947Y1312153D1*
X1664027Y1333463D1*
X1626070Y1357460D1*
X1618043Y1364320D1*
X1611183Y1372347D1*
X1605667Y1381350D1*
X1601627Y1391107D1*
X1599160Y1401373D1*
X1598333Y1411900D1*
X1598497Y1513773D1*
X1600053Y1524217D1*
X1603227Y1534287D1*
X1607933Y1543740D1*
X1614063Y1552337D1*
X1621460Y1559870D1*
X1629947Y1566153D1*
X1664027Y1587467D1*
X1626070Y1611460D1*
X1618043Y1618320D1*
X1611183Y1626347D1*
X1605667Y1635350D1*
X1601627Y1645107D1*
X1599163Y1655373D1*
X1598333Y1665900D1*
X1598497Y1767773D1*
X1600053Y1778217D1*
X1603227Y1788287D1*
X1607933Y1797740D1*
X1614063Y1806337D1*
X1621460Y1813870D1*
X1629947Y1820153D1*
X1664027Y1841463D1*
X1624983Y1866267D1*
X1614783Y1875820D1*
X1606773Y1887270D1*
X1601303Y1900130D1*
X1598607Y1913843D1*
X1598333Y1971233D1*
X1598603Y2023123D1*
X1601293Y2036837D1*
X1606757Y2049700D1*
X1614760Y2061157D1*
X1624957Y2070710D1*
X1664090Y2095503D1*
X1625580Y2119820D1*
X1617613Y2126750D1*
X1610830Y2134840D1*
X1605393Y2143893D1*
X1601440Y2153687D1*
X1599070Y2163973D1*
X1598333Y2197233D1*
X1598497Y2275773D1*
X1600053Y2286217D1*
X1603227Y2296287D1*
X1607933Y2305740D1*
X1614063Y2314337D1*
X1621460Y2321870D1*
X1629947Y2328153D1*
X1664027Y2349463D1*
X1626070Y2373460D1*
X1618043Y2380320D1*
X1611183Y2388347D1*
X1605667Y2397350D1*
X1601627Y2407107D1*
X1599160Y2417373D1*
X1598333Y2427900D1*
X1597833Y2518710D1*
X892457D1*
X782957Y2409297D1*
X790280Y2396597D1*
X798827Y2375970D1*
X799950Y2371980D1*
X805040Y2386453D1*
X815177Y2406347D1*
X828303Y2424410D1*
X844090Y2440197D1*
X862153Y2453323D1*
X882047Y2463460D1*
X903283Y2470360D1*
X925337Y2473850D1*
X947663D1*
X969717Y2470360D1*
X990953Y2463460D1*
X1010847Y2453323D1*
X1028910Y2440197D1*
X1044697Y2424410D1*
X1057823Y2406347D1*
X1067960Y2386453D1*
X1074860Y2365217D1*
X1078350Y2343163D1*
Y2320837D1*
X1267717Y2278997D2*
X1268880Y2298143D1*
X1272243Y2316493D1*
X1277757Y2334317D1*
X1285343Y2351360D1*
X1294893Y2367387D1*
X1306273Y2382170D1*
X1319323Y2395500D1*
X1333860Y2407193D1*
X1349680Y2417083D1*
X1366557Y2425030D1*
X1384257Y2430923D1*
X1402533Y2434677D1*
X1421123Y2436243D1*
X1439767Y2435597D1*
X1458203Y2432747D1*
X1476173Y2427733D1*
X1493423Y2420627D1*
X1509710Y2411530D1*
X1524807Y2400570D1*
X1538497Y2387897D1*
X1550593Y2373693D1*
X1560920Y2358157D1*
X1569337Y2341507D1*
X1575723Y2323980D1*
X1579987Y2305817D1*
X1582073Y2287280D1*
X1582290Y2171667D1*
X1582013Y2029673D1*
X1579803Y2011147D1*
X1575417Y1993013D1*
X1568917Y1975530D1*
X1560387Y1958937D1*
X1549957Y1943470D1*
X1537767Y1929347D1*
X1523990Y1916767D1*
X1508823Y1905907D1*
X1492473Y1896917D1*
X1475177Y1889930D1*
X1457177Y1885037D1*
X1438720Y1882310D1*
X1420070Y1881787D1*
X1401493Y1883477D1*
X1383243Y1887353D1*
X1365583Y1893363D1*
X1348757Y1901423D1*
X1333007Y1911417D1*
X1318547Y1923207D1*
X1305587Y1936627D1*
X1294307Y1951483D1*
X1284863Y1967573D1*
X1277390Y1984670D1*
X1271997Y2002527D1*
X1268753Y2020900D1*
X1267717Y2038997D1*
X1267710Y2278710D1*
X725007Y5882723D2*
X707810Y5883597D1*
X689387Y5886543D1*
X671407Y5891527D1*
X654093Y5898480D1*
X637663Y5907317D1*
X622320Y5917930D1*
X608250Y5930187D1*
X595637Y5943930D1*
X584630Y5958997D1*
X575370Y5975190D1*
X567970Y5992320D1*
X562523Y6010163D1*
X559097Y6028503D1*
X557733Y6047110D1*
X558453Y6065753D1*
X561243Y6084200D1*
X566070Y6102223D1*
X572873Y6119593D1*
X581570Y6136100D1*
X592047Y6151537D1*
X604180Y6165710D1*
X617817Y6178443D1*
X632787Y6189580D1*
X648903Y6198980D1*
X665963Y6206527D1*
X683760Y6212127D1*
X702070Y6215710D1*
X720663Y6217233D1*
X884660Y6217010D1*
X903197Y6214897D1*
X921383Y6210730D1*
X938990Y6204567D1*
X955803Y6196480D1*
X971613Y6186573D1*
X986220Y6174963D1*
X999443Y6161803D1*
X1011117Y6147250D1*
X1021100Y6131490D1*
X1029267Y6114713D1*
X1035513Y6097133D1*
X1039763Y6078967D1*
X1041963Y6060440D1*
X1042030Y6040670D1*
X1039953Y6022130D1*
X1035823Y6003937D1*
X1029693Y5986313D1*
X1021640Y5969487D1*
X1011763Y5953657D1*
X1000183Y5939027D1*
X987050Y5925780D1*
X972520Y5914073D1*
X956777Y5904060D1*
X940020Y5895863D1*
X922450Y5889580D1*
X904293Y5885293D1*
X885770Y5883057D1*
X842333Y5882710D1*
X725000Y5882727D1*
X725050Y5382713D2*
X698830Y5384770D1*
X673303Y5390897D1*
X649053Y5400943D1*
X626670Y5414660D1*
X606707Y5431707D1*
X589660Y5451670D1*
X575943Y5474053D1*
X565897Y5498303D1*
X559770Y5523830D1*
X557710Y5550000D1*
X559770Y5576170D1*
X565897Y5601697D1*
X575943Y5625947D1*
X589660Y5648330D1*
X606707Y5668293D1*
X626670Y5685340D1*
X649053Y5699057D1*
X673303Y5709103D1*
X698830Y5715230D1*
X725050Y5717287D1*
X888127Y5716773D1*
X914053Y5712667D1*
X931173Y5707450D1*
X1182720Y5707460D1*
X1215360Y5739483D1*
X1235350Y5754007D1*
X1257367Y5765223D1*
X1280863Y5772860D1*
X1305270Y5776723D1*
X1364290Y5777210D1*
X1744640D1*
X1753840Y5781917D1*
X1763880Y5785180D1*
X1774310Y5786833D1*
X1932540Y5787040D1*
X1947183Y5785440D1*
X1957280Y5782347D1*
X1966767Y5777713D1*
X2056943Y5724190D1*
X2064970Y5717330D1*
X2071830Y5709303D1*
X2077347Y5700300D1*
X2081387Y5690543D1*
X2083853Y5680277D1*
X2084680Y5669750D1*
X2084517Y5565063D1*
X2082957Y5554620D1*
X2079783Y5544550D1*
X2075073Y5535097D1*
X2068940Y5526500D1*
X2061540Y5518970D1*
X2053053Y5512687D1*
X2020203Y5492157D1*
X2056943Y5470190D1*
X2064970Y5463330D1*
X2071830Y5455303D1*
X2077347Y5446300D1*
X2081387Y5436543D1*
X2083850Y5426277D1*
X2084680Y5415750D1*
X2084517Y5311063D1*
X2082957Y5300620D1*
X2079783Y5290550D1*
X2075073Y5281100D1*
X2068940Y5272500D1*
X2061540Y5264970D1*
X2053053Y5258687D1*
X1967940Y5205793D1*
X1958183Y5201753D1*
X1947917Y5199287D1*
X1937390Y5198460D1*
X1771520Y5198717D1*
X1761103Y5200460D1*
X1751093Y5203810D1*
X1741727Y5208687D1*
X1657837Y5261310D1*
X1649810Y5268170D1*
X1642950Y5276197D1*
X1637433Y5285200D1*
X1633393Y5294957D1*
X1630927Y5305223D1*
X1630100Y5315750D1*
X1630323Y5421250D1*
X1632010Y5431673D1*
X1635307Y5441707D1*
X1640133Y5451097D1*
X1646380Y5459637D1*
X1647390Y5462290D1*
X1382793D1*
X1350137Y5430267D1*
X1330147Y5415743D1*
X1308130Y5404527D1*
X1284633Y5396890D1*
X1260227Y5393027D1*
X1201207Y5392540D1*
X931507D1*
X914053Y5387333D1*
X888127Y5383227D1*
X828333Y5382710D1*
X725000Y5382800D1*
X7552290Y4586277D2*
Y4566710D1*
X7521027D1*
X7508350Y4559043D1*
X7498593Y4555003D1*
X7488327Y4552537D1*
X7477800Y4551710D1*
X7316313Y4551967D1*
X7305900Y4553713D1*
X7295887Y4557067D1*
X7286523Y4561947D1*
X7278873Y4566730D1*
X7247710Y4566710D1*
Y4586307D1*
X7199957Y4616320D1*
X7191990Y4623250D1*
X7185207Y4631340D1*
X7179770Y4640393D1*
X7175817Y4650187D1*
X7173447Y4660473D1*
X7172710Y4693733D1*
X7172873Y4772273D1*
X7174430Y4782717D1*
X7177603Y4792787D1*
X7182310Y4802240D1*
X7188440Y4810837D1*
X7195837Y4818370D1*
X7204323Y4824653D1*
X7238403Y4845963D1*
X7200447Y4869960D1*
X7192420Y4876820D1*
X7185560Y4884847D1*
X7180043Y4893850D1*
X7176003Y4903607D1*
X7173537Y4913873D1*
X7172710Y4924400D1*
X7172873Y5026273D1*
X7174430Y5036717D1*
X7177603Y5046787D1*
X7182310Y5056240D1*
X7188440Y5064837D1*
X7195837Y5072370D1*
X7204323Y5078653D1*
X7238403Y5099967D1*
X7200447Y5123960D1*
X7192420Y5130820D1*
X7185560Y5138847D1*
X7180043Y5147850D1*
X7176003Y5157607D1*
X7173537Y5167873D1*
X7172710Y5178400D1*
X7172917Y5280880D1*
X7174570Y5291310D1*
X7177833Y5301350D1*
X7182627Y5310760D1*
X7188833Y5319300D1*
X7196300Y5326767D1*
X7224107Y5345023D1*
X7238403Y5353963D1*
X7200447Y5377960D1*
X7192420Y5384820D1*
X7185560Y5392847D1*
X7180043Y5401850D1*
X7176003Y5411607D1*
X7173537Y5421873D1*
X7172710Y5432400D1*
X7172873Y5534273D1*
X7174430Y5544717D1*
X7177603Y5554787D1*
X7182310Y5564240D1*
X7188440Y5572837D1*
X7195837Y5580370D1*
X7204323Y5586653D1*
X7291110Y5640677D1*
X7300830Y5644807D1*
X7311073Y5647363D1*
X7321613Y5648287D1*
X7480153Y5648107D1*
X7490590Y5646507D1*
X7500647Y5643293D1*
X7510080Y5638543D1*
X7599553Y5584040D1*
X7607580Y5577180D1*
X7614440Y5569153D1*
X7619957Y5560150D1*
X7623997Y5550393D1*
X7626463Y5540127D1*
X7627290Y5529600D1*
X7627127Y5427727D1*
X7625570Y5417283D1*
X7622397Y5407213D1*
X7617690Y5397760D1*
X7611560Y5389163D1*
X7604163Y5381630D1*
X7595677Y5375347D1*
X7560977Y5353650D1*
X7599553Y5330040D1*
X7607580Y5323180D1*
X7614440Y5315153D1*
X7619957Y5306150D1*
X7623997Y5296393D1*
X7626463Y5286127D1*
X7627290Y5275600D1*
X7627127Y5173727D1*
X7625570Y5163283D1*
X7622400Y5153213D1*
X7617690Y5143760D1*
X7611560Y5135163D1*
X7604163Y5127630D1*
X7595677Y5121347D1*
X7560977Y5099647D1*
X7599553Y5076040D1*
X7607580Y5069180D1*
X7614440Y5061153D1*
X7619957Y5052150D1*
X7623997Y5042393D1*
X7626463Y5032127D1*
X7627290Y5021600D1*
X7627127Y4919727D1*
X7625570Y4909283D1*
X7622397Y4899213D1*
X7617690Y4889760D1*
X7611560Y4881163D1*
X7604163Y4873630D1*
X7595677Y4867347D1*
X7560977Y4845650D1*
X7599553Y4822040D1*
X7607580Y4815180D1*
X7614440Y4807153D1*
X7619957Y4798150D1*
X7623997Y4788393D1*
X7626463Y4778127D1*
X7627290Y4767600D1*
X7627127Y4665727D1*
X7625570Y4655283D1*
X7622400Y4645213D1*
X7617690Y4635760D1*
X7611560Y4627163D1*
X7604163Y4619630D1*
X7595677Y4613347D1*
X7552323Y4586237D1*
X7552290Y786277D2*
Y766710D1*
X7521027D1*
X7504113Y757067D1*
X7494100Y753713D1*
X7483687Y751967D1*
X7321593Y751713D1*
X7311073Y752637D1*
X7300830Y755193D1*
X7291110Y759323D1*
X7278873Y766730D1*
X7247710Y766710D1*
Y786307D1*
X7200447Y815960D1*
X7192420Y822820D1*
X7185560Y830847D1*
X7180043Y839850D1*
X7176003Y849607D1*
X7173540Y859873D1*
X7172710Y870400D1*
X7172873Y972273D1*
X7174430Y982717D1*
X7177603Y992787D1*
X7182310Y1002240D1*
X7188440Y1010837D1*
X7195837Y1018370D1*
X7204323Y1024653D1*
X7238403Y1045963D1*
X7200447Y1069960D1*
X7192420Y1076820D1*
X7185560Y1084847D1*
X7180043Y1093850D1*
X7176003Y1103607D1*
X7173537Y1113873D1*
X7172710Y1124400D1*
X7172873Y1226273D1*
X7174430Y1236717D1*
X7177600Y1246787D1*
X7182310Y1256240D1*
X7188440Y1264837D1*
X7195837Y1272370D1*
X7204323Y1278653D1*
X7238403Y1299967D1*
X7200447Y1323960D1*
X7192420Y1330820D1*
X7185560Y1338847D1*
X7180043Y1347850D1*
X7176003Y1357607D1*
X7173540Y1367873D1*
X7172710Y1378400D1*
X7172873Y1480273D1*
X7174430Y1490717D1*
X7177603Y1500787D1*
X7182310Y1510240D1*
X7188440Y1518837D1*
X7195837Y1526370D1*
X7204323Y1532653D1*
X7238403Y1553963D1*
X7200447Y1577960D1*
X7192420Y1584820D1*
X7185560Y1592847D1*
X7180043Y1601850D1*
X7176003Y1611607D1*
X7173537Y1621873D1*
X7172710Y1632400D1*
X7172873Y1734273D1*
X7174430Y1744717D1*
X7177603Y1754787D1*
X7182310Y1764240D1*
X7188440Y1772837D1*
X7195837Y1780370D1*
X7204323Y1786653D1*
X7291110Y1840677D1*
X7300830Y1844807D1*
X7311073Y1847363D1*
X7321613Y1848287D1*
X7480153Y1848107D1*
X7490590Y1846507D1*
X7500647Y1843293D1*
X7510080Y1838543D1*
X7599553Y1784040D1*
X7607580Y1777180D1*
X7614440Y1769153D1*
X7619957Y1760150D1*
X7623997Y1750393D1*
X7626463Y1740127D1*
X7627290Y1729600D1*
X7627127Y1627727D1*
X7625570Y1617283D1*
X7622397Y1607213D1*
X7617690Y1597760D1*
X7611560Y1589163D1*
X7604163Y1581630D1*
X7595677Y1575347D1*
X7560977Y1553647D1*
X7599553Y1530040D1*
X7607580Y1523180D1*
X7614440Y1515153D1*
X7619957Y1506150D1*
X7623997Y1496393D1*
X7626463Y1486127D1*
X7627290Y1475600D1*
Y1460380D1*
X7756813Y1330300D1*
X7767630Y1315410D1*
X7775987Y1299010D1*
X7781673Y1281507D1*
X7784553Y1263327D1*
X7784917Y1239267D1*
X7826933Y1197190D1*
X7833560Y1212137D1*
X7846043Y1232513D1*
X7861563Y1250687D1*
X7879737Y1266207D1*
X7885290Y1269917D1*
X7870347Y1281197D1*
X7853447Y1298097D1*
X7839400Y1317430D1*
X7828553Y1338720D1*
X7821167Y1361450D1*
X7817430Y1385050D1*
Y1408950D1*
X7821167Y1432550D1*
X7828553Y1455280D1*
X7839400Y1476570D1*
X7853447Y1495903D1*
X7870347Y1512803D1*
X7885290Y1523917D1*
X7870347Y1535197D1*
X7853447Y1552097D1*
X7839400Y1571430D1*
X7828553Y1592720D1*
X7821167Y1615450D1*
X7817430Y1639050D1*
Y1662950D1*
X7821167Y1686550D1*
X7828553Y1709280D1*
X7839400Y1730570D1*
X7853447Y1749903D1*
X7870347Y1766803D1*
X7885290Y1777917D1*
X7870347Y1789197D1*
X7853447Y1806097D1*
X7839400Y1825430D1*
X7828553Y1846720D1*
X7821167Y1869450D1*
X7817430Y1893050D1*
Y1916950D1*
X7821167Y1940550D1*
X7828553Y1963280D1*
X7839400Y1984570D1*
X7853447Y2003903D1*
X7870347Y2020803D1*
X7889680Y2034850D1*
X7910970Y2045697D1*
X7933700Y2053083D1*
X7957300Y2056820D1*
X7981200D1*
X8004800Y2053083D1*
X8027530Y2045697D1*
X8048820Y2034850D1*
X8068153Y2020803D1*
X8085053Y2003903D1*
X8099100Y1984570D1*
X8109947Y1963280D1*
X8117333Y1940550D1*
X8121070Y1916950D1*
Y1893050D1*
X8117333Y1869450D1*
X8109947Y1846720D1*
X8099100Y1825430D1*
X8085053Y1806097D1*
X8068153Y1789197D1*
X8053210Y1778083D1*
X8068153Y1766803D1*
X8085053Y1749903D1*
X8099100Y1730570D1*
X8109947Y1709280D1*
X8117333Y1686550D1*
X8121070Y1662950D1*
Y1639050D1*
X8117333Y1615450D1*
X8109947Y1592720D1*
X8099100Y1571430D1*
X8085053Y1552097D1*
X8068153Y1535197D1*
X8053210Y1524083D1*
X8068153Y1512803D1*
X8085053Y1495903D1*
X8099100Y1476570D1*
X8109947Y1455280D1*
X8117333Y1432550D1*
X8121070Y1408950D1*
Y1385050D1*
X8117333Y1361450D1*
X8109947Y1338720D1*
X8099100Y1317430D1*
X8085053Y1298097D1*
X8068153Y1281197D1*
X8053210Y1270083D1*
X8068153Y1258803D1*
X8085053Y1241903D1*
X8099100Y1222570D1*
X8109947Y1201280D1*
X8117333Y1178550D1*
X8121070Y1154950D1*
Y1131050D1*
X8117333Y1107450D1*
X8109947Y1084720D1*
X8099100Y1063430D1*
X8085053Y1044097D1*
X8068153Y1027197D1*
X8053210Y1016083D1*
X8068153Y1004803D1*
X8085053Y987903D1*
X8099100Y968570D1*
X8109947Y947280D1*
X8117333Y924550D1*
X8121070Y900950D1*
Y877050D1*
X8117333Y853450D1*
X8109947Y830720D1*
X8099100Y809430D1*
X8085053Y790097D1*
X8082483Y787317D1*
X8121540Y787290D1*
Y482710D1*
X7816960D1*
Y605483D1*
X7620823Y801677D1*
X7577043Y801710D1*
X7552323Y786237D1*
X4989600Y2809690D2*
X5038983D1*
X5027010Y2820387D1*
X5012510Y2837363D1*
X5000843Y2856403D1*
X4992297Y2877030D1*
X4987087Y2898740D1*
X4985333Y2921000D1*
X4987087Y2943260D1*
X4992297Y2964970D1*
X5000843Y2985597D1*
X5012510Y3004637D1*
X5027010Y3021613D1*
X5043987Y3036117D1*
X5063460Y3047983D1*
X5043987Y3059883D1*
X5027010Y3074387D1*
X5012510Y3091363D1*
X5000843Y3110403D1*
X4992297Y3131030D1*
X4987087Y3152740D1*
X4985333Y3175000D1*
X4987087Y3197260D1*
X4992297Y3218970D1*
X5000843Y3239597D1*
X5012510Y3258637D1*
X5027010Y3275613D1*
X5043987Y3290117D1*
X5063460Y3301983D1*
X5043987Y3313883D1*
X5027010Y3328387D1*
X5012510Y3345363D1*
X5000843Y3364403D1*
X4992297Y3385030D1*
X4987087Y3406740D1*
X4985333Y3429000D1*
X4987087Y3451260D1*
X4992297Y3472970D1*
X5000843Y3493597D1*
X5012510Y3512637D1*
X5027010Y3529613D1*
X5043987Y3544117D1*
X5063460Y3555983D1*
X5043987Y3567883D1*
X5027010Y3582387D1*
X5012510Y3599363D1*
X5000843Y3618403D1*
X4992297Y3639030D1*
X4987087Y3660740D1*
X4985333Y3683000D1*
X4985757Y3693770D1*
X4930140Y3749803D1*
X4921593Y3761570D1*
X4914990Y3774530D1*
X4910493Y3788363D1*
X4908220Y3802727D1*
X4907933Y3926667D1*
Y4973113D1*
X4895100Y4970400D1*
X4873623Y4968710D1*
X4852147Y4970400D1*
X4831200Y4975430D1*
X4811297Y4983673D1*
X4792927Y4994930D1*
X4776547Y5008920D1*
X4762553Y5025303D1*
X4751297Y5043670D1*
X4746463Y5053460D1*
X4736683Y5034267D1*
X4724020Y5016837D1*
X4708787Y5001603D1*
X4691357Y4988940D1*
X4672163Y4979160D1*
X4651673Y4972503D1*
X4630397Y4969133D1*
X4608853D1*
X4587573Y4972503D1*
X4567087Y4979160D1*
X4547890Y4988940D1*
X4530460Y5001603D1*
X4515227Y5016837D1*
X4502563Y5034267D1*
X4492623Y5053897D1*
X4482683Y5034267D1*
X4470020Y5016837D1*
X4454787Y5001603D1*
X4437357Y4988940D1*
X4418163Y4979160D1*
X4397673Y4972503D1*
X4376397Y4969133D1*
X4354853D1*
X4333573Y4972503D1*
X4313087Y4979160D1*
X4293890Y4988940D1*
X4276460Y5001603D1*
X4261227Y5016837D1*
X4248563Y5034267D1*
X4238623Y5053897D1*
X4228683Y5034267D1*
X4216020Y5016837D1*
X4200787Y5001603D1*
X4183357Y4988940D1*
X4164163Y4979160D1*
X4143673Y4972503D1*
X4122397Y4969133D1*
X4100853D1*
X4079573Y4972503D1*
X4059087Y4979160D1*
X4039890Y4988940D1*
X4022460Y5001603D1*
X4007227Y5016837D1*
X3994563Y5034267D1*
X3984623Y5053897D1*
X3974683Y5034267D1*
X3962020Y5016837D1*
X3946787Y5001603D1*
X3929357Y4988940D1*
X3910163Y4979160D1*
X3889673Y4972503D1*
X3868397Y4969133D1*
X3846853D1*
X3825573Y4972503D1*
X3823347Y4973133D1*
X3823317Y4912017D1*
X4325623Y4409710D1*
X4330003Y4422557D1*
X4337647Y4437560D1*
X4347543Y4451180D1*
X4359447Y4463083D1*
X4373067Y4472980D1*
X4388070Y4480623D1*
X4404080Y4485827D1*
X4420710Y4488460D1*
X4437543D1*
X4454173Y4485827D1*
X4470183Y4480623D1*
X4485187Y4472980D1*
X4498807Y4463083D1*
X4510710Y4451180D1*
X4520607Y4437560D1*
X4528717Y4421293D1*
X4533153Y4410143D1*
X4536550Y4396000D1*
X4537690Y4381500D1*
Y2308570D1*
X5373333Y1472880D1*
X5368280Y1489617D1*
X5364663Y1512443D1*
Y1535557D1*
X5366437Y1549123D1*
X5253647Y1662310D1*
X5245827Y1673073D1*
X5239787Y1684930D1*
X5235677Y1697583D1*
X5233593Y1710723D1*
X5233333Y1857377D1*
Y2242287D1*
X5213703Y2245173D1*
X5197693Y2250377D1*
X5182690Y2258020D1*
X5169070Y2267917D1*
X5157167Y2279820D1*
X5147270Y2293440D1*
X5139627Y2308443D1*
X5134423Y2324453D1*
X5131790Y2341083D1*
Y2357917D1*
X5134423Y2374547D1*
X5139627Y2390557D1*
X5147270Y2405560D1*
X5157167Y2419180D1*
X5169820Y2431673D1*
X5169837Y2524227D1*
X4984933Y2524310D1*
Y2809690D1*
X4989600D1*
X5265663Y5495350D2*
X5268163Y5483260D1*
X5269913Y5461000D1*
X5269490Y5450230D1*
X5388607Y5330697D1*
X5391510Y5327013D1*
X5399497Y5337280D1*
X5415840Y5353623D1*
X5434537Y5367210D1*
X5436943Y5368557D1*
X5424923Y5376463D1*
X5407347Y5391473D1*
X5392337Y5409050D1*
X5380260Y5428757D1*
X5371417Y5450107D1*
X5366020Y5472583D1*
X5364220Y5495307D1*
X5265763Y5495310D1*
X5269477Y5703837D2*
X5265663Y5680650D1*
X5327280Y5680690D1*
X5367170Y5720507D1*
X5364660Y5738067D1*
Y5761180D1*
X5368277Y5784007D1*
X5375420Y5805990D1*
X5385910Y5826583D1*
X5399497Y5845280D1*
X5415840Y5861623D1*
X5434537Y5875210D1*
X5455130Y5885700D1*
X5477113Y5892843D1*
X5499940Y5896460D1*
X5513167Y5896847D1*
X5390887Y6019153D1*
X5260717Y6019187D1*
X5265983Y6002217D1*
X5269477Y5980163D1*
Y5957837D1*
X5265983Y5935783D1*
X5259083Y5914547D1*
X5248947Y5894653D1*
X5235823Y5876590D1*
X5220033Y5860803D1*
X5201970Y5847677D1*
X5192223Y5841780D1*
X5211260Y5830117D1*
X5228237Y5815613D1*
X5242740Y5798637D1*
X5254407Y5779597D1*
X5262950Y5758970D1*
X5268163Y5737260D1*
X5269913Y5715000D1*
X5269477Y5703837D1*
X5004617Y5643663D2*
X4996167Y5660547D1*
X4989267Y5681783D1*
X4985773Y5703837D1*
Y5726163D1*
X4989267Y5748217D1*
X4996167Y5769453D1*
X5006303Y5789347D1*
X5019427Y5807410D1*
X5035213Y5823197D1*
X5053277Y5836323D1*
X5063027Y5842220D1*
X5043987Y5853883D1*
X5027010Y5868387D1*
X5012510Y5885363D1*
X5000640Y5904837D1*
X4988740Y5885363D1*
X4974237Y5868387D1*
X4957260Y5853883D1*
X4938223Y5842220D1*
X4917593Y5833673D1*
X4895883Y5828463D1*
X4873623Y5826710D1*
X4862853Y5827133D1*
X4790947Y5755643D1*
X4779180Y5747097D1*
X4766223Y5740493D1*
X4752390Y5735997D1*
X4738023Y5733723D1*
X4614083Y5733437D1*
X3959567D1*
X3914167Y5688080D1*
X3929357Y5680060D1*
X3946787Y5667397D1*
X3962020Y5652163D1*
X3974683Y5634733D1*
X3984623Y5615103D1*
X3994563Y5634733D1*
X4007227Y5652163D1*
X4022460Y5667397D1*
X4039890Y5680060D1*
X4059087Y5689840D1*
X4079573Y5696497D1*
X4100853Y5699867D1*
X4122397D1*
X4143673Y5696497D1*
X4164163Y5689840D1*
X4183357Y5680060D1*
X4200787Y5667397D1*
X4216020Y5652163D1*
X4228683Y5634733D1*
X4238623Y5615103D1*
X4248563Y5634733D1*
X4261227Y5652163D1*
X4276460Y5667397D1*
X4293890Y5680060D1*
X4313087Y5689840D1*
X4333573Y5696497D1*
X4354853Y5699867D1*
X4376397D1*
X4397673Y5696497D1*
X4418163Y5689840D1*
X4437357Y5680060D1*
X4454787Y5667397D1*
X4470020Y5652163D1*
X4482683Y5634733D1*
X4492623Y5615103D1*
X4502563Y5634733D1*
X4515227Y5652163D1*
X4530460Y5667397D1*
X4547890Y5680060D1*
X4567087Y5689840D1*
X4587573Y5696497D1*
X4608853Y5699867D1*
X4630397D1*
X4651673Y5696497D1*
X4672163Y5689840D1*
X4691357Y5680060D1*
X4708787Y5667397D1*
X4724020Y5652163D1*
X4736683Y5634733D1*
X4746623Y5615103D1*
X4756563Y5634733D1*
X4769227Y5652163D1*
X4784460Y5667397D1*
X4801890Y5680060D1*
X4821087Y5689840D1*
X4841573Y5696497D1*
X4862853Y5699867D1*
X4884397D1*
X4905673Y5696497D1*
X4926163Y5689840D1*
X4945357Y5680060D1*
X4962787Y5667397D1*
X4978020Y5652163D1*
X4990683Y5634733D1*
X4992473Y5631537D1*
X5004580Y5643663D1*
X3730607Y5904837D2*
X3718740Y5885363D1*
X3704237Y5868387D1*
X3687260Y5853883D1*
X3667787Y5842017D1*
X3687260Y5830117D1*
X3704237Y5815613D1*
X3718740Y5798637D1*
X3730407Y5779597D1*
X3734553Y5770600D1*
X3801913Y5837993D1*
X3783277Y5847677D1*
X3765213Y5860803D1*
X3749427Y5876590D1*
X3736303Y5894653D1*
X3730640Y5904837D1*
X3745477Y4687837D2*
X3741983Y4665783D1*
X3735083Y4644547D1*
X3724947Y4624653D1*
X3711823Y4606590D1*
X3696033Y4590803D1*
X3677970Y4577677D1*
X3668223Y4571780D1*
X3687260Y4560117D1*
X3704237Y4545613D1*
X3718740Y4528637D1*
X3730407Y4509597D1*
X3738950Y4488970D1*
X3744163Y4467260D1*
X3745913Y4445000D1*
X3744163Y4422740D1*
X3738950Y4401030D1*
X3730407Y4380403D1*
X3718740Y4361363D1*
X3704237Y4344387D1*
X3687260Y4329883D1*
X3667787Y4318017D1*
X3687260Y4306117D1*
X3704237Y4291613D1*
X3711557Y4283700D1*
X4168637Y4283690D1*
X4182650Y4290477D1*
X3742250Y4730917D1*
X3745477Y4710163D1*
Y4687837D1*
X3539460Y4318017D2*
X3519987Y4329883D1*
X3503010Y4344387D1*
X3488510Y4361363D1*
X3476843Y4380403D1*
X3468297Y4401030D1*
X3463087Y4422740D1*
X3461523Y4440160D1*
X3454083Y4447580D1*
X2832330Y4447560D1*
X2625653Y4240820D1*
X2630733Y4224217D1*
X2634223Y4202163D1*
Y4179837D1*
X2630733Y4157783D1*
X2623833Y4136547D1*
X2613697Y4116653D1*
X2600570Y4098590D1*
X2584783Y4082803D1*
X2566720Y4069677D1*
X2556970Y4063780D1*
X2576010Y4052117D1*
X2592987Y4037613D1*
X2600303Y4029700D1*
X3102897Y4029403D1*
X3117263Y4027130D1*
X3131093Y4022633D1*
X3144053Y4016030D1*
X3155820Y4007483D1*
X3243660Y3920047D1*
X3462470Y3701240D1*
X3465267Y3716217D1*
X3472167Y3737453D1*
X3482303Y3757347D1*
X3495427Y3775410D1*
X3511213Y3791197D1*
X3529277Y3804323D1*
X3539027Y3810220D1*
X3519987Y3821883D1*
X3503010Y3836387D1*
X3488510Y3853363D1*
X3476843Y3872403D1*
X3468297Y3893030D1*
X3463087Y3914740D1*
X3461333Y3937000D1*
X3463087Y3959260D1*
X3468297Y3980970D1*
X3476843Y4001597D1*
X3488510Y4020637D1*
X3503010Y4037613D1*
X3519987Y4052117D1*
X3539460Y4063983D1*
X3519987Y4075883D1*
X3503010Y4090387D1*
X3488510Y4107363D1*
X3476843Y4126403D1*
X3468297Y4147030D1*
X3463087Y4168740D1*
X3461333Y4191000D1*
X3463087Y4213260D1*
X3468297Y4234970D1*
X3476843Y4255597D1*
X3488510Y4274637D1*
X3503010Y4291613D1*
X3519987Y4306117D1*
X3539460Y4317983D1*
X3711557Y4098300D2*
X3696033Y4082803D1*
X3677970Y4069677D1*
X3668223Y4063780D1*
X3687260Y4052117D1*
X3704237Y4037613D1*
X3718740Y4020637D1*
X3730407Y4001597D1*
X3738950Y3980970D1*
X3744163Y3959260D1*
X3745913Y3937000D1*
X3744163Y3914740D1*
X3738950Y3893030D1*
X3730407Y3872403D1*
X3718740Y3853363D1*
X3704237Y3836387D1*
X3687260Y3821883D1*
X3667787Y3810017D1*
X3687260Y3798117D1*
X3704237Y3783613D1*
X3711557Y3775700D1*
X4020980Y3775690D1*
X4033977Y3782123D1*
X4049987Y3787327D1*
X4066617Y3789960D1*
X4083450D1*
X4100080Y3787327D1*
X4116090Y3782123D1*
X4131093Y3774480D1*
X4144713Y3764583D1*
X4156617Y3752680D1*
X4166513Y3739060D1*
X4174157Y3724057D1*
X4179360Y3708047D1*
X4181993Y3691417D1*
Y3674583D1*
X4179360Y3657953D1*
X4174157Y3641943D1*
X4166513Y3626940D1*
X4156617Y3613320D1*
X4144713Y3601417D1*
X4131093Y3591520D1*
X4116090Y3583877D1*
X4100080Y3578673D1*
X4083450Y3576040D1*
X4066617D1*
X4049987Y3578673D1*
X4033977Y3583877D1*
X4021127Y3590313D1*
X3711633Y3590310D1*
X3696033Y3574803D1*
X3677970Y3561677D1*
X3668223Y3555780D1*
X3687260Y3544117D1*
X3704237Y3529613D1*
X3718740Y3512637D1*
X3730407Y3493597D1*
X3738950Y3472970D1*
X3744163Y3451260D1*
X3745913Y3429000D1*
X3744163Y3406740D1*
X3738950Y3385030D1*
X3730407Y3364403D1*
X3718740Y3345363D1*
X3704237Y3328387D1*
X3687260Y3313883D1*
X3667787Y3302017D1*
X3687260Y3290117D1*
X3704237Y3275613D1*
X3718740Y3258637D1*
X3730407Y3239597D1*
X3738950Y3218970D1*
X3744163Y3197260D1*
X3745913Y3175000D1*
X3744163Y3152740D1*
X3738950Y3131030D1*
X3730407Y3110403D1*
X3718740Y3091363D1*
X3704237Y3074387D1*
X3687260Y3059883D1*
X3667787Y3048017D1*
X3684050Y3038380D1*
X3698713Y3026850D1*
X3711743Y3013503D1*
X3722913Y2998563D1*
X3732037Y2982293D1*
X3733363Y2979393D1*
X3740563Y2992733D1*
X3753227Y3010163D1*
X3768460Y3025397D1*
X3785890Y3038060D1*
X3805087Y3047840D1*
X3825573Y3054497D1*
X3846853Y3057867D1*
X3868397D1*
X3889673Y3054497D1*
X3910163Y3047840D1*
X3929357Y3038060D1*
X3946787Y3025397D1*
X3962020Y3010163D1*
X3974683Y2992733D1*
X3984463Y2973540D1*
X3991120Y2953050D1*
X3994490Y2931770D1*
Y2910230D1*
X3991120Y2888950D1*
X3984463Y2868460D1*
X3974683Y2849267D1*
X3962020Y2831837D1*
X3946787Y2816603D1*
X3929357Y2803940D1*
X3910163Y2794160D1*
X3889673Y2787503D1*
X3868397Y2784133D1*
X3846853D1*
X3825573Y2787503D1*
X3805087Y2794160D1*
X3785890Y2803940D1*
X3768460Y2816603D1*
X3753227Y2831837D1*
X3740563Y2849267D1*
X3733447Y2862687D1*
X3724363Y2845713D1*
X3713480Y2830567D1*
X3700707Y2816973D1*
X3686263Y2805167D1*
X3670400Y2795353D1*
X3668223Y2793780D1*
X3687260Y2782117D1*
X3704237Y2767613D1*
X3718740Y2750637D1*
X3730407Y2731597D1*
X3738950Y2710970D1*
X3744163Y2689260D1*
X3745913Y2667000D1*
X3744163Y2644740D1*
X3738950Y2623030D1*
X3730407Y2602403D1*
X3718740Y2583363D1*
X3709007Y2571547D1*
X3709013Y2327847D1*
X4215143Y2327567D1*
X4231477Y2324977D1*
X4247203Y2319867D1*
X4257060Y2315837D1*
Y4089260D1*
X4239533Y4085030D1*
X4222750Y4083710D1*
X4205967Y4085030D1*
X4189597Y4088960D1*
X4174040Y4095403D1*
X4168843Y4098313D1*
X3711513Y4098310D1*
X3539460Y3048017D2*
X3519987Y3059883D1*
X3507530Y3070210D1*
X3200667D1*
X3202583Y3056417D1*
Y3039583D1*
X3199950Y3022953D1*
X3194747Y3006943D1*
X3193300Y3003803D1*
X3207447Y2999337D1*
X3219303Y2993297D1*
X3230067Y2985473D1*
X3315453Y2900457D1*
X3335153Y2896040D1*
X3350710Y2889597D1*
X3365063Y2880800D1*
X3377867Y2869867D1*
X3388800Y2857063D1*
X3397597Y2842710D1*
X3404040Y2827153D1*
X3407970Y2810783D1*
X3409290Y2794000D1*
X3407970Y2777217D1*
X3404040Y2760847D1*
X3397597Y2745290D1*
X3388800Y2730937D1*
X3377867Y2718133D1*
X3365063Y2707200D1*
X3350710Y2698403D1*
X3335153Y2691960D1*
X3318783Y2688030D1*
X3302000Y2686710D1*
X3285217Y2688030D1*
X3268847Y2691960D1*
X3253290Y2698403D1*
X3238937Y2707200D1*
X3226133Y2718133D1*
X3215200Y2730937D1*
X3206403Y2745290D1*
X3199960Y2760847D1*
X3196030Y2777217D1*
X3195647Y2780450D1*
X3139890Y2836197D1*
X2951237Y2836210D1*
X2951290Y2589087D1*
X2918023D1*
X2927513Y2575530D1*
X2936420Y2559140D1*
X2943320Y2541807D1*
X2948123Y2523780D1*
X2950757Y2505310D1*
X2951220Y2487710D1*
X2949563Y2469130D1*
X2945717Y2450873D1*
X2939733Y2433203D1*
X2931703Y2416363D1*
X2921737Y2400597D1*
X2909970Y2386117D1*
X2896573Y2373133D1*
X2886783Y2365387D1*
X2905220Y2349597D1*
X2921250Y2330830D1*
X2923207Y2327900D1*
X3498283Y2327890D1*
X3498233Y2571347D1*
X3488510Y2583363D1*
X3476843Y2602403D1*
X3468297Y2623030D1*
X3463087Y2644740D1*
X3461333Y2667000D1*
X3463087Y2689260D1*
X3468297Y2710970D1*
X3476843Y2731597D1*
X3488510Y2750637D1*
X3503010Y2767613D1*
X3519987Y2782117D1*
X3539460Y2793983D1*
X3524010Y2803067D1*
X3509267Y2814493D1*
X3496147Y2827753D1*
X3484873Y2842613D1*
X3475640Y2858820D1*
X3468603Y2876097D1*
X3463890Y2894143D1*
X3461580Y2912653D1*
X3461707Y2931307D1*
X3464277Y2949783D1*
X3469237Y2967763D1*
X3476510Y2984940D1*
X3485967Y3001020D1*
X3497447Y3015723D1*
X3510747Y3028800D1*
X3525647Y3040020D1*
X3539493Y3047997D1*
X4746623Y5198103D2*
X4756563Y5217733D1*
X4769227Y5235163D1*
X4784460Y5250397D1*
X4801890Y5263060D1*
X4821087Y5272840D1*
X4841573Y5279497D1*
X4862853Y5282867D1*
X4884397D1*
X4905673Y5279497D1*
X4907903Y5278867D1*
X4907933Y5390013D1*
X4884397Y5386133D1*
X4862853D1*
X4841573Y5389503D1*
X4821087Y5396160D1*
X4801890Y5405940D1*
X4784460Y5418603D1*
X4769227Y5433837D1*
X4756563Y5451267D1*
X4746623Y5470897D1*
X4736683Y5451267D1*
X4724020Y5433837D1*
X4708787Y5418603D1*
X4691357Y5405940D1*
X4672163Y5396160D1*
X4651673Y5389503D1*
X4630397Y5386133D1*
X4608853D1*
X4587573Y5389503D1*
X4567087Y5396160D1*
X4547890Y5405940D1*
X4530460Y5418603D1*
X4515227Y5433837D1*
X4502563Y5451267D1*
X4492623Y5470897D1*
X4482683Y5451267D1*
X4470020Y5433837D1*
X4454787Y5418603D1*
X4437357Y5405940D1*
X4418163Y5396160D1*
X4397673Y5389503D1*
X4376397Y5386133D1*
X4354853D1*
X4333573Y5389503D1*
X4313087Y5396160D1*
X4293890Y5405940D1*
X4276460Y5418603D1*
X4261227Y5433837D1*
X4248563Y5451267D1*
X4238623Y5470897D1*
X4228683Y5451267D1*
X4216020Y5433837D1*
X4200787Y5418603D1*
X4183357Y5405940D1*
X4164163Y5396160D1*
X4143673Y5389503D1*
X4122397Y5386133D1*
X4100853D1*
X4079573Y5389503D1*
X4059087Y5396160D1*
X4039890Y5405940D1*
X4022460Y5418603D1*
X4007227Y5433837D1*
X3994563Y5451267D1*
X3984623Y5470897D1*
X3974683Y5451267D1*
X3962020Y5433837D1*
X3946787Y5418603D1*
X3929357Y5405940D1*
X3910163Y5396160D1*
X3889673Y5389503D1*
X3868397Y5386133D1*
X3846853D1*
X3825573Y5389503D1*
X3823347Y5390133D1*
X3823317Y5278970D1*
X3846853Y5282867D1*
X3868397D1*
X3889673Y5279497D1*
X3910163Y5272840D1*
X3929357Y5263060D1*
X3946787Y5250397D1*
X3962020Y5235163D1*
X3974683Y5217733D1*
X3984623Y5198103D1*
X3994563Y5217733D1*
X4007227Y5235163D1*
X4022460Y5250397D1*
X4039890Y5263060D1*
X4059087Y5272840D1*
X4079573Y5279497D1*
X4100853Y5282867D1*
X4122397D1*
X4143673Y5279497D1*
X4164163Y5272840D1*
X4183357Y5263060D1*
X4200787Y5250397D1*
X4216020Y5235163D1*
X4228683Y5217733D1*
X4238623Y5198103D1*
X4248563Y5217733D1*
X4261227Y5235163D1*
X4276460Y5250397D1*
X4293890Y5263060D1*
X4313087Y5272840D1*
X4333573Y5279497D1*
X4354853Y5282867D1*
X4376397D1*
X4397673Y5279497D1*
X4418163Y5272840D1*
X4437357Y5263060D1*
X4454787Y5250397D1*
X4470020Y5235163D1*
X4482683Y5217733D1*
X4492623Y5198103D1*
X4502563Y5217733D1*
X4515227Y5235163D1*
X4530460Y5250397D1*
X4547890Y5263060D1*
X4567087Y5272840D1*
X4587573Y5279497D1*
X4608853Y5282867D1*
X4630397D1*
X4651673Y5279497D1*
X4672163Y5272840D1*
X4691357Y5263060D1*
X4708787Y5250397D1*
X4724020Y5235163D1*
X4736683Y5217733D1*
X4746623Y5198103D1*
X5574713Y3838703D2*
X5557013Y3831543D1*
X5534537Y3826147D1*
X5511497Y3824333D1*
X5488457Y3826147D1*
X5466373Y3831433D1*
X5466413Y2426137D1*
X5488460Y2431477D1*
X5511500Y2433290D1*
X5534540Y2431477D1*
X5557017Y2426080D1*
X5574717Y2418920D1*
X5574683Y3838593D1*
X2681213Y377867D2*
X2678610Y355873D1*
X2674290Y334150D1*
X2668277Y312830D1*
X2660610Y292050D1*
X2651337Y271937D1*
X2640517Y252613D1*
X2628210Y234197D1*
X2614497Y216800D1*
X2599463Y200537D1*
X2583200Y185503D1*
X2565803Y171790D1*
X2547387Y159483D1*
X2528063Y148663D1*
X2507950Y139390D1*
X2487170Y131723D1*
X2465850Y125710D1*
X2444127Y121390D1*
X2422133Y118787D1*
X2400000Y117917D1*
X2377867Y118787D1*
X2355873Y121390D1*
X2334150Y125710D1*
X2312830Y131723D1*
X2292050Y139390D1*
X2271937Y148663D1*
X2252613Y159483D1*
X2234197Y171790D1*
X2216800Y185503D1*
X2200537Y200537D1*
X2185503Y216800D1*
X2171790Y234197D1*
X2159483Y252613D1*
X2148663Y271937D1*
X2139390Y292050D1*
X2131723Y312830D1*
X2125710Y334150D1*
X2121390Y355873D1*
X2118787Y377867D1*
X2117917Y400000D1*
X2118787Y422133D1*
X2121390Y444127D1*
X2125710Y465850D1*
X2131723Y487170D1*
X2139390Y507950D1*
X2148663Y528063D1*
X2159483Y547387D1*
X2171790Y565803D1*
X2185503Y583200D1*
X2200537Y599463D1*
X2216800Y614497D1*
X2234197Y628210D1*
X2252613Y640517D1*
X2271937Y651337D1*
X2292050Y660610D1*
X2312830Y668277D1*
X2334150Y674290D1*
X2355873Y678610D1*
X2377867Y681213D1*
X2400000Y682083D1*
X2422133Y681213D1*
X2444127Y678610D1*
X2465850Y674290D1*
X2487170Y668277D1*
X2507950Y660610D1*
X2528063Y651337D1*
X2547387Y640517D1*
X2565803Y628210D1*
X2583200Y614497D1*
X2599463Y599463D1*
X2614497Y583200D1*
X2628210Y565803D1*
X2640517Y547387D1*
X2651337Y528063D1*
X2660610Y507950D1*
X2668277Y487170D1*
X2674290Y465850D1*
X2678610Y444127D1*
X2681213Y422133D1*
X2682083Y400000D1*
X2681213Y377867D1*
X7481213Y6077867D2*
X7478610Y6055873D1*
X7474290Y6034150D1*
X7468277Y6012830D1*
X7460610Y5992050D1*
X7451337Y5971937D1*
X7440517Y5952613D1*
X7428210Y5934197D1*
X7414497Y5916800D1*
X7399463Y5900537D1*
X7383200Y5885503D1*
X7365803Y5871790D1*
X7347387Y5859483D1*
X7328063Y5848663D1*
X7307950Y5839390D1*
X7287170Y5831723D1*
X7265850Y5825710D1*
X7244127Y5821390D1*
X7222133Y5818787D1*
X7200000Y5817917D1*
X7177867Y5818787D1*
X7155873Y5821390D1*
X7134150Y5825710D1*
X7112830Y5831723D1*
X7092050Y5839390D1*
X7071937Y5848663D1*
X7052613Y5859483D1*
X7034197Y5871790D1*
X7016800Y5885503D1*
X7000537Y5900537D1*
X6985503Y5916800D1*
X6971790Y5934197D1*
X6959483Y5952613D1*
X6948663Y5971937D1*
X6939390Y5992050D1*
X6931723Y6012830D1*
X6925710Y6034150D1*
X6921390Y6055873D1*
X6918787Y6077867D1*
X6917917Y6100000D1*
X6918787Y6122133D1*
X6921390Y6144127D1*
X6925710Y6165850D1*
X6931723Y6187170D1*
X6939390Y6207950D1*
X6948663Y6228063D1*
X6959483Y6247387D1*
X6971790Y6265803D1*
X6985503Y6283200D1*
X7000537Y6299463D1*
X7016800Y6314497D1*
X7034197Y6328210D1*
X7052613Y6340517D1*
X7071937Y6351337D1*
X7092050Y6360610D1*
X7112830Y6368277D1*
X7134150Y6374290D1*
X7155873Y6378610D1*
X7177867Y6381213D1*
X7200000Y6382083D1*
X7222133Y6381213D1*
X7244127Y6378610D1*
X7265850Y6374290D1*
X7287170Y6368277D1*
X7307950Y6360610D1*
X7328063Y6351337D1*
X7347387Y6340517D1*
X7365803Y6328210D1*
X7383200Y6314497D1*
X7399463Y6299463D1*
X7414497Y6283200D1*
X7428210Y6265803D1*
X7440517Y6247387D1*
X7451337Y6228063D1*
X7460610Y6207950D1*
X7468277Y6187170D1*
X7474290Y6165850D1*
X7478610Y6144127D1*
X7481213Y6122133D1*
X7482083Y6100000D1*
X7481213Y6077867D1*
X2681213D2*
X2678610Y6055873D1*
X2674290Y6034150D1*
X2668277Y6012830D1*
X2660610Y5992050D1*
X2651337Y5971937D1*
X2640517Y5952613D1*
X2628210Y5934197D1*
X2614497Y5916800D1*
X2599463Y5900537D1*
X2583200Y5885503D1*
X2565803Y5871790D1*
X2547387Y5859483D1*
X2528063Y5848663D1*
X2507950Y5839390D1*
X2487170Y5831723D1*
X2465850Y5825710D1*
X2444127Y5821390D1*
X2422133Y5818787D1*
X2400000Y5817917D1*
X2377867Y5818787D1*
X2355873Y5821390D1*
X2334150Y5825710D1*
X2312830Y5831723D1*
X2292050Y5839390D1*
X2271937Y5848663D1*
X2252613Y5859483D1*
X2234197Y5871790D1*
X2216800Y5885503D1*
X2200537Y5900537D1*
X2185503Y5916800D1*
X2171790Y5934197D1*
X2159483Y5952613D1*
X2148663Y5971937D1*
X2139390Y5992050D1*
X2131723Y6012830D1*
X2125710Y6034150D1*
X2121390Y6055873D1*
X2118787Y6077867D1*
X2117917Y6100000D1*
X2118787Y6122133D1*
X2121390Y6144127D1*
X2125710Y6165850D1*
X2131723Y6187170D1*
X2139390Y6207950D1*
X2148663Y6228063D1*
X2159483Y6247387D1*
X2171790Y6265803D1*
X2185503Y6283200D1*
X2200537Y6299463D1*
X2216800Y6314497D1*
X2234197Y6328210D1*
X2252613Y6340517D1*
X2271937Y6351337D1*
X2292050Y6360610D1*
X2312830Y6368277D1*
X2334150Y6374290D1*
X2355873Y6378610D1*
X2377867Y6381213D1*
X2400000Y6382083D1*
X2422133Y6381213D1*
X2444127Y6378610D1*
X2465850Y6374290D1*
X2487170Y6368277D1*
X2507950Y6360610D1*
X2528063Y6351337D1*
X2547387Y6340517D1*
X2565803Y6328210D1*
X2583200Y6314497D1*
X2599463Y6299463D1*
X2614497Y6283200D1*
X2628210Y6265803D1*
X2640517Y6247387D1*
X2651337Y6228063D1*
X2660610Y6207950D1*
X2668277Y6187170D1*
X2674290Y6165850D1*
X2678610Y6144127D1*
X2681213Y6122133D1*
X2682083Y6100000D1*
X2681213Y6077867D1*
X3102663Y3707713D2*
D121*
X3310837Y3499540D1*
X3206750Y3603627D2*
X3102663Y3499540D1*
X5867410Y6139463D2*
X6075583Y5931290D1*
Y6139463D2*
X5867410Y5931290D1*
Y2710463D2*
X6075583Y2502290D1*
Y2710463D2*
X5867410Y2502290D1*
X2394147Y3428853D2*
X2500000Y3323000D1*
X2605853Y3428853D2*
X2394147Y3217147D1*
X990500Y4473000D2*
X1104847Y4367157D1*
Y4578840D2*
X990500Y4473000D1*
X1665303Y5017167D2*
X1985943Y4761833D1*
X1985517Y5016827D2*
X1665303Y4761833D1*
X5863147Y3355853D2*
X6074853Y3144147D1*
Y3355853D2*
X5863147Y3144147D1*
X570913Y644087D2*
X779087Y435913D1*
Y644087D2*
X570913Y435913D1*
X1269313Y754440D2*
X1534687Y465560D1*
Y754440D2*
X1269313Y465560D1*
X65313Y754440D2*
X330687Y465560D1*
Y754440D2*
X65313Y465560D1*
X1665303Y3429667D2*
X1985943Y3174333D1*
X1985517Y3429327D2*
X1665303Y3174333D1*
X1857373Y6309500D2*
X2018693Y6181037D1*
X1857373Y6309500D2*
X1696053Y6181037D1*
X1704997Y869377D2*
X1946250Y622870D1*
Y869377D2*
X1825623Y746123D1*
X175000Y2159000D2*
X310707Y1959507D1*
Y2358493D2*
X175000Y2159000D1*
X1289293Y2358493D2*
X1560707Y1959507D1*
Y2358493D2*
X1289293Y1959507D1*
X636137Y6191820D2*
X963863Y5908180D1*
Y6191820D2*
X636137Y5908180D1*
X1665303Y2096167D2*
X1985943Y1840833D1*
X1985517Y2095827D2*
X1665303Y1840833D1*
X4985000Y2809623D2*
X5127623Y2667000D1*
X4985000Y2524373D1*
X3503073Y3021550D2*
X3704173Y2820450D1*
Y3021550D2*
X3503073Y2820450D1*
X6781497Y3971623D2*
X6928723Y3824397D1*
X6677410Y5599710D2*
X6885583Y5391537D1*
Y5599710D2*
X6677410Y5391537D1*
X6781500Y508000D2*
X6928727Y360773D1*
Y655227D2*
X6634273Y360773D1*
X6781500Y2032000D2*
X6885587Y1927913D1*
Y2136087D2*
X6781500Y2032000D1*
X2682843Y2603533D2*
X2905157Y2381220D1*
Y2603533D2*
X2682843Y2381220D1*
X6926957Y4372070D2*
X7204030Y3970980D1*
X7213043Y4372070D2*
X6935557Y3970380D1*
X6935973Y2529020D2*
X7213043Y2127930D1*
X7204443Y2529620D2*
X6926957Y2127930D1*
D25*
X3079723Y1047750D3*
X5187923D3*
D28*
X2856750Y3603627D3*
D29*
X3206750D3*
D28*
X6321497Y6035377D3*
D29*
X5971497D3*
D28*
X6321497Y2606377D3*
D29*
X5971497D3*
D34*
X2500000Y3577000D3*
Y3323000D3*
D36*
X1117500Y4726999D3*
D37*
X990500Y4472999D3*
X863500Y4726999D3*
X736500Y4472999D3*
X609500Y4726999D3*
X482500Y4472999D3*
D109*
X1825623Y4127500D3*
Y4889500D3*
Y3873500D3*
Y4635500D3*
Y4381500D3*
D34*
X5969000Y3504000D3*
Y3250000D3*
D38*
X925000Y540000D3*
X675000D3*
Y860000D3*
X925000D3*
D25*
X1402000Y610000D3*
X198000D3*
D109*
X1825623Y3048000D3*
Y3302000D3*
D112*
X1857373Y6009500D3*
Y6309500D3*
D39*
X1825623Y746123D3*
Y492123D3*
Y238123D3*
D40*
X936500Y2332000D3*
X663500D3*
X625000Y2126000D3*
X800000Y2010000D3*
X975000Y2126000D3*
X800000Y2200000D3*
D41*
X175000Y2159000D3*
X1425000D3*
D42*
X800000Y6050000D3*
Y5550000D3*
D43*
X1825627Y3302000D3*
D44*
Y3048000D3*
D43*
X7400000Y4719000D3*
D44*
Y4973000D3*
Y5227000D3*
Y5481000D3*
D43*
Y919000D3*
D44*
Y1173000D3*
Y1427000D3*
Y1681000D3*
D43*
X1825623Y4889500D3*
D44*
Y4635500D3*
Y4381500D3*
Y4127500D3*
Y3873500D3*
D43*
X7969250Y635000D3*
D44*
Y889000D3*
Y1143000D3*
Y1397000D3*
Y1651000D3*
Y1905000D3*
D109*
X1825623Y1714500D3*
Y2476500D3*
Y1206500D3*
Y1460500D3*
Y2222500D3*
Y1968500D3*
D46*
X5127623Y2667000D3*
D40*
Y2921000D3*
Y3175000D3*
Y3429000D3*
Y3683000D3*
Y3937000D3*
Y4191000D3*
Y4445000D3*
Y4699000D3*
Y4953000D3*
Y5207000D3*
Y5461000D3*
Y5715000D3*
Y5969000D3*
X3603623D3*
Y5715000D3*
Y5461000D3*
Y5207000D3*
Y4953000D3*
Y4699000D3*
Y4445000D3*
Y4191000D3*
Y3937000D3*
Y3683000D3*
Y3429000D3*
Y3175000D3*
Y2921000D3*
Y2667000D3*
X4873623Y5969000D3*
X4619623D3*
X4365623D3*
X4111623D3*
X3857623D3*
D47*
Y2921000D3*
D48*
X4873623Y5126000D3*
Y5543000D3*
X4619623Y5126000D3*
Y5543000D3*
X4365623Y5126000D3*
Y5543000D3*
X4111623Y5126000D3*
Y5543000D3*
X3857623Y5126000D3*
Y5543000D3*
D29*
X6781497Y5749623D3*
Y5241623D3*
Y4987623D3*
Y4733623D3*
Y4479623D3*
Y4225623D3*
D28*
Y3971623D3*
D29*
Y5495623D3*
X5511497Y5749623D3*
Y5241623D3*
Y4987623D3*
Y4733623D3*
Y4479623D3*
Y4225623D3*
Y3971623D3*
Y5495623D3*
X6781500Y2286000D3*
Y1778000D3*
Y1524000D3*
Y1270000D3*
Y1016000D3*
Y762000D3*
D28*
Y508000D3*
D29*
Y2032000D3*
X5511500Y2286000D3*
Y1778000D3*
Y1524000D3*
Y1270000D3*
Y1016000D3*
Y762000D3*
Y508000D3*
Y2032000D3*
D50*
X2492373Y5207000D3*
D40*
Y4953000D3*
Y4699000D3*
Y4445000D3*
Y4191000D3*
Y3937000D3*
D112*
X1857409Y5365750D3*
Y5619750D3*
D52*
X2794000Y2746377D3*
D53*
Y2492377D3*
Y2238377D3*
D109*
X7400000Y1173000D3*
Y919000D3*
Y1681000D3*
Y1427000D3*
Y4973000D3*
Y4719000D3*
Y5481000D3*
Y5227000D3*
D115*
X8470000Y4120000D3*
D118*
Y2380000D3*
D115*
X7070000Y4120000D3*
D118*
Y2380000D3*
M02*
