%TF.GenerationSoftware,Novarm,DipTrace,3.3.1.3*%
%TF.CreationDate,2023-12-10T18:24:34+00:00*%
%FSLAX35Y35*%
%MOMM*%
%TF.FileFunction,Plated,1,2,PTH,Drill*%
%TF.Part,Single*%
%TA.AperFunction,ComponentDrill*%
%ADD18C,1.0*%
%ADD54C,0.8*%
%TA.AperFunction,ViaDrill*%
%ADD55C,0.4*%
%TA.AperFunction,ComponentDrill*%
%ADD57C,0.8001*%
%ADD58C,0.96533*%
%ADD59C,0.97*%
%ADD60C,1.07*%
%ADD61C,0.9*%
%ADD62C,0.6*%
%ADD63C,1.1*%
G75*
G01*
X3079723Y987750D2*
D54*
Y1107750D1*
X5187923Y987750D2*
Y1107750D1*
X2856750Y3603627D3*
X3206750D3*
X6321497Y6035377D3*
X5971497D3*
X6321497Y2606377D3*
X5971497D3*
D57*
X2500000Y3577000D3*
Y3323000D3*
D54*
X1117500Y4726999D3*
X990500Y4472999D3*
X863500Y4726999D3*
X736500Y4472999D3*
X609500Y4726999D3*
X482500Y4472999D3*
D58*
X1825623Y4127500D3*
Y4889500D3*
Y3873500D3*
Y4635500D3*
Y4381500D3*
D57*
X5969000Y3504000D3*
Y3250000D3*
D59*
X925000Y540000D3*
X675000D3*
Y860000D3*
X925000D3*
X1402000Y550000D2*
D54*
Y670000D1*
X198000Y550000D2*
Y670000D1*
D60*
X1825623Y3048000D3*
Y3302000D3*
X1857373Y6009500D3*
Y6309500D3*
D61*
X1825623Y746123D3*
Y492123D3*
Y238123D3*
D18*
X936500Y2332000D3*
X663500D3*
X625000Y2126000D3*
X800000Y2010000D3*
X975000Y2126000D3*
X800000Y2200000D3*
X175000Y2039000D2*
D62*
Y2279000D1*
X1425000Y2039000D2*
Y2279000D1*
X875000Y6050000D2*
D18*
X725000D1*
X875000Y5550000D2*
X725000D1*
D63*
X1825627Y3302000D3*
Y3048000D3*
X7400000Y4719000D3*
Y4973000D3*
Y5227000D3*
Y5481000D3*
Y919000D3*
Y1173000D3*
Y1427000D3*
Y1681000D3*
X1825623Y4889500D3*
Y4635500D3*
Y4381500D3*
Y4127500D3*
Y3873500D3*
X7969250Y635000D3*
Y889000D3*
Y1143000D3*
Y1397000D3*
Y1651000D3*
Y1905000D3*
D58*
X1825623Y1714500D3*
Y2476500D3*
Y1206500D3*
Y1460500D3*
Y2222500D3*
Y1968500D3*
D54*
X5127623Y2667000D3*
Y2921000D3*
Y3175000D3*
Y3429000D3*
Y3683000D3*
Y3937000D3*
Y4191000D3*
Y4445000D3*
Y4699000D3*
Y4953000D3*
Y5207000D3*
Y5461000D3*
Y5715000D3*
Y5969000D3*
X3603623D3*
Y5715000D3*
Y5461000D3*
Y5207000D3*
Y4953000D3*
Y4699000D3*
Y4445000D3*
Y4191000D3*
Y3937000D3*
Y3683000D3*
Y3429000D3*
Y3175000D3*
Y2921000D3*
Y2667000D3*
X4873623Y5969000D3*
X4619623D3*
X4365623D3*
X4111623D3*
X3857623D3*
Y2921000D3*
D61*
X4873623Y5126000D3*
Y5543000D3*
X4619623Y5126000D3*
Y5543000D3*
X4365623Y5126000D3*
Y5543000D3*
X4111623Y5126000D3*
Y5543000D3*
X3857623Y5126000D3*
Y5543000D3*
D54*
X6781497Y5749623D3*
Y5241623D3*
Y4987623D3*
Y4733623D3*
Y4479623D3*
Y4225623D3*
Y3971623D3*
Y5495623D3*
X5511497Y5749623D3*
Y5241623D3*
Y4987623D3*
Y4733623D3*
Y4479623D3*
Y4225623D3*
Y3971623D3*
Y5495623D3*
X6781500Y2286000D3*
Y1778000D3*
Y1524000D3*
Y1270000D3*
Y1016000D3*
Y762000D3*
Y508000D3*
Y2032000D3*
X5511500Y2286000D3*
Y1778000D3*
Y1524000D3*
Y1270000D3*
Y1016000D3*
Y762000D3*
Y508000D3*
Y2032000D3*
D61*
X2492373Y5207000D3*
Y4953000D3*
Y4699000D3*
Y4445000D3*
Y4191000D3*
Y3937000D3*
D60*
X1857409Y5365750D3*
Y5619750D3*
D54*
X2794000Y2746377D3*
Y2492377D3*
Y2238377D3*
D60*
X7400000Y1173000D3*
Y919000D3*
Y1681000D3*
Y1427000D3*
Y4973000D3*
Y4719000D3*
Y5481000D3*
Y5227000D3*
X8470000Y4120000D3*
Y2380000D3*
X7070000Y4120000D3*
Y2380000D3*
D55*
X5889623Y1555750D3*
X2809873Y5048250D3*
X5238750Y2349500D3*
X4429127Y4381500D3*
X4222750Y4191000D3*
X4075033Y3683000D3*
X6080127Y555627D3*
X2661273Y3175000D3*
X5762623Y4095750D3*
X3302000Y2794000D3*
X2540000Y2921000D3*
X3095623Y3048000D3*
X2555873D3*
M02*
