%TF.GenerationSoftware,Novarm,DipTrace,3.3.1.3*%
%TF.CreationDate,2023-12-10T18:24:28+00:00*%
%FSLAX35Y35*%
%MOMM*%
%TF.FileFunction,Copper,L1,Top*%
%TF.Part,Single*%
%AMOUTLINE0*
4,1,8,
-0.778,1.0,
0.752,1.0,
1.6,0.486,
1.6,-0.486,
0.778,-1.0,
-0.778,-1.0,
-1.6,-0.486,
-1.6,0.486,
-0.778,1.0,
0*%
%AMOUTLINE3*
4,1,8,
-0.778,1.0,
0.752,1.0,
1.6,0.5,
1.6,-0.5,
0.8,-1.0,
-0.8,-1.0,
-1.6,-0.5,
-1.6,0.5,
-0.778,1.0,
0*%
%AMOUTLINE6*
4,1,8,
1.0,2.0,
1.0,-0.752,
0.486,-1.6,
-0.486,-1.6,
-1.0,-0.778,
-1.0,2.0,
-0.5,2.5,
0.5,2.5,
1.0,2.0,
0*%
%AMOUTLINE9*
4,1,8,
-1.0,-2.0,
-1.0,0.752,
-0.486,1.6,
0.486,1.6,
1.0,0.778,
1.0,-2.0,
0.5,-2.5,
-0.5,-2.5,
-1.0,-2.0,
0*%
%TA.AperFunction,Conductor*%
%ADD11C,0.5*%
%ADD14C,0.75*%
%ADD15C,0.762*%
%ADD16C,0.508*%
%ADD17C,0.35*%
%ADD18C,1.0*%
%ADD19C,1.8034*%
%ADD20C,0.381*%
%TA.AperFunction,CopperBalancing*%
%ADD21C,0.635*%
%ADD22C,0.33*%
%TA.AperFunction,ComponentPad*%
%ADD25O,1.8X3.0*%
%ADD26R,5.08X5.08*%
%TA.AperFunction,ComponentPad*%
%ADD28R,1.6X1.6*%
%ADD29C,1.6*%
%ADD33R,3.1X2.2*%
%TA.AperFunction,ComponentPad*%
%ADD34C,1.65*%
%ADD35R,2.0X1.5*%
%TA.AperFunction,ComponentPad*%
%ADD36R,1.4X1.4*%
%ADD37O,1.4X2.0*%
%ADD38C,1.6*%
%ADD39O,2.4X1.6*%
%ADD40C,1.5*%
%ADD41O,1.8X4.2*%
%ADD42O,3.5X2.0*%
%ADD43R,1.7X1.7*%
%ADD44C,1.7*%
%ADD46R,1.508X1.508*%
%ADD47C,1.4*%
%ADD48O,1.4X1.8*%
%ADD49R,2.413X1.7018*%
%TA.AperFunction,ComponentPad*%
%ADD50R,1.5X1.5*%
%ADD51R,3.8X5.2*%
%TA.AperFunction,ComponentPad*%
%ADD52R,1.8X1.8*%
%ADD53C,1.8*%
%TA.AperFunction,ViaPad*%
%ADD54C,0.8*%
%TA.AperFunction,ComponentPad*%
%ADD109OUTLINE0*%
%ADD112OUTLINE3*%
%ADD115OUTLINE6*%
%ADD118OUTLINE9*%
%TA.AperFunction,CopperBalancing*%
%ADD121C,0.35*%
G75*
G01*
%LPD*%
X4619623Y5969000D2*
D11*
X4492623Y5842000D1*
X3921123D1*
X3730623Y5651500D1*
Y3238500D1*
X3667123Y3175000D1*
X3603623D1*
X2661273D2*
D14*
Y5038100D1*
X2492373Y5207000D1*
X1825623Y1714500D2*
D15*
X2206627D1*
X2730503Y2238377D1*
X2794000D1*
X1825623Y1714500D2*
D14*
X1682750D1*
X1619250Y1651000D1*
X1159000D1*
X800000Y2010000D1*
X5238750Y2349500D2*
D16*
X5222877D1*
X5365750Y2206627D1*
Y653750D1*
X5511500Y508000D1*
Y2286000D2*
Y3025813D1*
X5236113Y3301200D1*
D17*
X5052233D1*
D16*
X4976033Y3377400D1*
Y4039410D1*
X5127623Y4191000D1*
X4222750D2*
X4238627D1*
X4429127Y4381500D1*
X800000Y2200000D2*
D17*
Y2444750D1*
X809627D1*
X1349377Y2809127D2*
D16*
X1570877D1*
X1746250Y2984500D1*
X1793873D1*
Y3016250D1*
X1841500D1*
Y3048000D1*
X1825623D1*
X5127623Y4445000D2*
D17*
X5095873D1*
X5445123Y4095750D1*
X5762623D1*
X7400000Y4973000D2*
D18*
X7020873D1*
X6781497Y4733623D1*
X6781500Y1778000D2*
X6810373D1*
X7000873Y1587500D1*
X7207250D1*
X7300750Y1681000D1*
X7400000D1*
X7745250D1*
X7969250Y1905000D1*
X7400000Y1427000D2*
Y1444627D1*
X6889747D1*
X6810373Y1524000D1*
X6781500D1*
X7400000Y1173000D2*
X7320123D1*
X7191373Y1301750D1*
X6781500D1*
Y1270000D1*
X7400000Y1173000D2*
X7745250D1*
X7969250Y1397000D1*
X6781500Y1016000D2*
Y1003000D1*
X6937377Y1158877D1*
X7080250D1*
X7302500Y936627D1*
X7400000D1*
Y919000D1*
Y5227000D2*
X7322500D1*
X7223127Y5127627D1*
X6921503D1*
X6794503Y5000627D1*
X6781497D1*
Y4987623D1*
Y5241623D2*
X6797373D1*
X6842127Y5286377D1*
X7096127D1*
X7290750Y5481000D1*
X7400000D1*
X3000373Y5389770D2*
D19*
Y5461000D1*
X2286000D1*
X2190750Y5365750D1*
X1857390D1*
X6781497Y4479623D2*
D18*
X7127873Y4826000D1*
X7223123D1*
X7318373Y4730750D1*
X7400000D1*
Y4719000D1*
X2500000Y3577000D2*
D16*
Y3587750D1*
X1682753D1*
X1396130Y3301127D1*
X1349377D1*
X5511497Y4987623D2*
X5505750D1*
X5286373Y5207000D1*
X5127623D1*
X5511497Y3971623D2*
X5446993D1*
X5318123Y3842753D1*
Y3619500D1*
X5127623Y3429000D1*
X4075033Y3683000D2*
Y3868660D1*
X5031573Y4825200D1*
D17*
X5203033D1*
D16*
X5318123Y4710110D1*
Y4418997D1*
X5511497Y4225623D1*
X5127623Y2921000D2*
D17*
X4937123Y3111500D1*
X4397373D1*
X3794123Y2508250D1*
Y2111377D1*
X3428997Y1746250D1*
X2460627D1*
X1825623Y1111247D1*
Y1206500D1*
X5127623Y4699000D2*
X5032373D1*
X4191000Y3857627D1*
Y3095627D1*
X3889373Y2794000D1*
X3302000D1*
X2540000Y2921000D2*
Y2889250D1*
X1873250Y2222500D1*
X1825623D1*
X1698623D1*
X1428747Y2492377D1*
X1158873D1*
X1031873Y2619377D1*
X730253D1*
X523877Y2413000D1*
Y2222500D1*
X528500D1*
X625000Y2126000D1*
X5511500Y2032000D2*
D20*
X5667373Y2187873D1*
Y3841747D1*
X5857877Y4032250D1*
Y4143373D1*
X5667373Y4333877D1*
Y5339747D1*
X5511497Y5495623D1*
Y5495630D1*
X5292127Y5715000D1*
X5127623D1*
X5511497Y4733623D2*
D16*
Y4750350D1*
X5182647Y5079200D1*
D17*
X5076433D1*
D16*
X5000233Y5155400D1*
Y5841610D1*
X5127623Y5969000D1*
X1825623Y1460500D2*
D17*
X2079627D1*
X2428877Y1809750D1*
X3397250D1*
X3730623Y2143123D1*
Y2540000D1*
X4365623Y3175000D1*
X5127623D1*
Y4953000D2*
X4857750D1*
X3825873Y3921123D1*
Y3206750D1*
X3667123Y3048000D1*
X3095623D1*
X2555873D2*
X2397123D1*
X1825623Y2476500D1*
X1857373Y6009500D2*
D19*
Y5619750D1*
X1857390D1*
X6321497Y6035377D2*
Y6254750D1*
X6429373D1*
X6781497Y5902627D1*
Y5749623D1*
X6321497Y6035377D2*
Y3238500D1*
Y2606377D1*
X6553497D1*
X6781500Y2378373D1*
Y2286000D1*
X3000373Y6169770D2*
X3359893D1*
X3476623Y6286500D1*
X6397623D1*
X6781497Y5902627D1*
X2856750Y3603627D2*
Y2936873D1*
X2794000Y2874123D1*
Y2746377D1*
X3000373Y6169770D2*
X3180607D1*
X3381377Y5969000D1*
Y4016377D1*
X3302000Y3937000D1*
X3111500D1*
X2856750Y3682250D1*
Y3603627D1*
X3031750Y4174373D2*
X3381377D1*
Y5968997D1*
X8470000Y4120000D2*
X8025250D1*
X7143750Y3238500D1*
X6321497D1*
D54*
X5762623Y4095750D3*
X3302000Y2794000D3*
X2540000Y2921000D3*
X3095623Y3048000D3*
X2555873D3*
X5889623Y1555750D3*
X2809873Y5048250D3*
X5238750Y2349500D3*
X4429127Y4381500D3*
X4222750Y4191000D3*
X4075033Y3683000D3*
X6080127Y555627D3*
X2661273Y3175000D3*
X88147Y6355083D2*
D21*
X1623740D1*
X2090983D2*
X2273247D1*
X2526753D2*
X2736720D1*
X3264030D2*
X3316137D1*
X6558040D2*
X7073257D1*
X7326767D2*
X8511903D1*
X88147Y6291917D2*
X1623740D1*
X2090983D2*
X2186930D1*
X2613067D2*
X2736720D1*
X6621207D2*
X6986943D1*
X7413080D2*
X8511903D1*
X88147Y6228750D2*
X1631213D1*
X2083600D2*
X2142633D1*
X2657363D2*
X2736720D1*
X6684370D2*
X6942647D1*
X7457377D2*
X8511903D1*
X88147Y6165583D2*
X597710D1*
X1002247D2*
X1714340D1*
X2000387D2*
X2119300D1*
X2680697D2*
X2736720D1*
X6747533D2*
X6919313D1*
X7480710D2*
X8511903D1*
X88147Y6102417D2*
X559793D1*
X1040253D2*
X1639233D1*
X2075580D2*
X2111553D1*
X2688447D2*
X2736720D1*
X3521610D2*
X3547767D1*
X3659420D2*
X3801853D1*
X3913447D2*
X4055783D1*
X4167470D2*
X4309807D1*
X4421400D2*
X4563830D1*
X4675423D2*
X4817853D1*
X4929447D2*
X5071787D1*
X5183470D2*
X5834040D1*
X6108967D2*
X6157697D1*
X6810697D2*
X6911567D1*
X7488457D2*
X8511903D1*
X88147Y6039250D2*
X551683D1*
X1048277D2*
X1623740D1*
X2090983D2*
X2118207D1*
X2681790D2*
X2736720D1*
X5257753D2*
X5817907D1*
X6125100D2*
X6157697D1*
X6873863D2*
X6918220D1*
X7481803D2*
X8511903D1*
X88147Y5976083D2*
X568543D1*
X1031413D2*
X1623740D1*
X2090983D2*
X2140263D1*
X2659733D2*
X2736720D1*
X5276077D2*
X5830303D1*
X6112703D2*
X6157697D1*
X7459747D2*
X8511903D1*
X88147Y5912917D2*
X622777D1*
X977273D2*
X1642423D1*
X2072300D2*
X2182553D1*
X2617443D2*
X2736720D1*
X5264773D2*
X5883350D1*
X6059657D2*
X6157697D1*
X6485307D2*
X6542150D1*
X6944957D2*
X6982567D1*
X7417457D2*
X8511903D1*
X88147Y5849750D2*
X1693557D1*
X2021167D2*
X2263493D1*
X2536503D2*
X2736720D1*
X3687587D2*
X3773687D1*
X4703587D2*
X4789690D1*
X5211637D2*
X5397087D1*
X5625893D2*
X6157697D1*
X6485307D2*
X6605317D1*
X6945320D2*
X7063507D1*
X7336517D2*
X8511903D1*
X88147Y5786583D2*
X1693557D1*
X2021167D2*
X3217607D1*
X4574070D2*
X4901163D1*
X5660437D2*
X6157697D1*
X6485307D2*
X6617710D1*
X6945320D2*
X8511903D1*
X88147Y5723417D2*
X1650447D1*
X2064370D2*
X3217607D1*
X3939420D2*
X4901163D1*
X5662807D2*
X6157697D1*
X6485307D2*
X6619900D1*
X6943133D2*
X8511903D1*
X88147Y5660250D2*
X592790D1*
X1007170D2*
X1623740D1*
X2091077D2*
X2736720D1*
X3960840D2*
X4008387D1*
X4214863D2*
X4262413D1*
X4468887D2*
X4516343D1*
X4722910D2*
X4770367D1*
X5634917D2*
X6157697D1*
X6485307D2*
X6645510D1*
X6917520D2*
X8511903D1*
X88147Y5597083D2*
X558153D1*
X1041897D2*
X1623740D1*
X2091077D2*
X2200420D1*
X5213640D2*
X5281603D1*
X5624617D2*
X6157697D1*
X6485307D2*
X6668387D1*
X6894643D2*
X7214627D1*
X7584800D2*
X8511903D1*
X88147Y5533917D2*
X552137D1*
X1047820D2*
X1634130D1*
X2080683D2*
X2129873D1*
X5256207D2*
X5344770D1*
X5660073D2*
X6157697D1*
X6485307D2*
X6632933D1*
X6930100D2*
X7166500D1*
X7633470D2*
X8511903D1*
X88147Y5470750D2*
X571280D1*
X1028680D2*
X1652270D1*
X5275893D2*
X5359990D1*
X5664813D2*
X6157697D1*
X6485307D2*
X6630017D1*
X6933017D2*
X7108257D1*
X7633653D2*
X8511903D1*
X88147Y5407583D2*
X630887D1*
X969160D2*
X1623740D1*
X3938327D2*
X4030900D1*
X4192350D2*
X4284923D1*
X4446283D2*
X4538947D1*
X4700307D2*
X4792880D1*
X5265867D2*
X5387060D1*
X5727977D2*
X6157697D1*
X6485307D2*
X6657087D1*
X6905947D2*
X7045093D1*
X7628913D2*
X8511903D1*
X88147Y5344417D2*
X1623740D1*
X3829227D2*
X4901163D1*
X5215553D2*
X5399637D1*
X5759970D2*
X6157697D1*
X6485307D2*
X6669663D1*
X7582613D2*
X8511903D1*
X88147Y5281250D2*
X1633310D1*
X2641050D2*
X2736720D1*
X3887560D2*
X4081670D1*
X4141583D2*
X4335693D1*
X4395517D2*
X4589717D1*
X4649540D2*
X4843650D1*
X5760060D2*
X6157697D1*
X6485307D2*
X6633297D1*
X7633380D2*
X8511903D1*
X88147Y5218083D2*
X1720353D1*
X2251767D2*
X2343700D1*
X2641050D2*
X2736720D1*
X5760060D2*
X6157697D1*
X6485307D2*
X6629743D1*
X7633653D2*
X8511903D1*
X88147Y5154917D2*
X2343700D1*
X2699017D2*
X2736720D1*
X5760060D2*
X6157697D1*
X6485307D2*
X6656083D1*
X7629370D2*
X8511903D1*
X88147Y5091750D2*
X2343700D1*
X5760060D2*
X6157697D1*
X6485307D2*
X6670940D1*
X7580423D2*
X8511903D1*
X88147Y5028583D2*
X1666943D1*
X1984253D2*
X2365483D1*
X2772390D2*
X2803167D1*
X5760060D2*
X6157697D1*
X6485307D2*
X6633663D1*
X7633290D2*
X8511903D1*
X88147Y4965417D2*
X1597763D1*
X2053433D2*
X2344247D1*
X2772390D2*
X2803167D1*
X3829227D2*
X4743937D1*
X5760060D2*
X6157697D1*
X6485307D2*
X6629560D1*
X7633653D2*
X8511903D1*
X88147Y4902250D2*
X1592020D1*
X2059267D2*
X2353090D1*
X2772390D2*
X2803167D1*
X3829227D2*
X4680770D1*
X5760060D2*
X6157697D1*
X6485307D2*
X6655080D1*
X7629917D2*
X8511903D1*
X88147Y4839083D2*
X493077D1*
X725893D2*
X747130D1*
X1261100D2*
X1592020D1*
X2059267D2*
X2400757D1*
X2772390D2*
X2803167D1*
X3829227D2*
X4617607D1*
X4870113D2*
X4907997D1*
X5760060D2*
X6157697D1*
X6485307D2*
X6672307D1*
X7578237D2*
X8511903D1*
X88147Y4775917D2*
X467190D1*
X1261100D2*
X1636317D1*
X2014970D2*
X2366303D1*
X2772390D2*
X2803167D1*
X3829227D2*
X4554443D1*
X4806947D2*
X4844833D1*
X5760060D2*
X6157697D1*
X6485307D2*
X6634027D1*
X7633107D2*
X8511903D1*
X88147Y4712750D2*
X465823D1*
X1261100D2*
X1598400D1*
X2052887D2*
X2344430D1*
X2772390D2*
X2803167D1*
X3829227D2*
X4491280D1*
X4743783D2*
X4781670D1*
X5760060D2*
X6157697D1*
X6485307D2*
X6629377D1*
X7633653D2*
X8511903D1*
X88147Y4649583D2*
X474300D1*
X1261100D2*
X1592020D1*
X2059267D2*
X2352633D1*
X2772390D2*
X3217607D1*
X3829227D2*
X4428113D1*
X4680620D2*
X4718507D1*
X5760060D2*
X6157697D1*
X6485307D2*
X6654170D1*
X7123693D2*
X7169690D1*
X7630373D2*
X8511903D1*
X88147Y4586417D2*
X367113D1*
X1105880D2*
X1592020D1*
X2059267D2*
X2399027D1*
X2772390D2*
X3217607D1*
X3829227D2*
X4364950D1*
X4617457D2*
X4655340D1*
X5760060D2*
X6157697D1*
X6485307D2*
X6673673D1*
X7060530D2*
X7241057D1*
X7559003D2*
X8511903D1*
X88147Y4523250D2*
X340407D1*
X1132677D2*
X1634130D1*
X2017063D2*
X2367217D1*
X2772390D2*
X3217607D1*
X3829227D2*
X4301697D1*
X4554290D2*
X4592177D1*
X4982860D2*
X5002423D1*
X5760060D2*
X6157697D1*
X6485307D2*
X6634483D1*
X6997363D2*
X8511903D1*
X88147Y4460083D2*
X338857D1*
X1134137D2*
X1599040D1*
X2052247D2*
X2344520D1*
X2772390D2*
X3217607D1*
X3829227D2*
X4238530D1*
X4508537D2*
X4529023D1*
X4919697D2*
X4979820D1*
X5760060D2*
X6157697D1*
X6485307D2*
X6629197D1*
X6934200D2*
X8511903D1*
X88147Y4396917D2*
X346787D1*
X1126207D2*
X1592020D1*
X2059267D2*
X2352087D1*
X2772390D2*
X3217607D1*
X3829227D2*
X4175367D1*
X4856530D2*
X4987387D1*
X5760060D2*
X6157697D1*
X6485307D2*
X6653257D1*
X6909683D2*
X6945380D1*
X7194603D2*
X8345380D1*
X88147Y4333750D2*
X392997D1*
X572040D2*
X647020D1*
X825970D2*
X901043D1*
X1079993D2*
X1592020D1*
X2059267D2*
X2397293D1*
X2772390D2*
X2803167D1*
X3829227D2*
X4112203D1*
X4793367D2*
X5032593D1*
X5795970D2*
X6157697D1*
X6485307D2*
X6675133D1*
X7242183D2*
X8297803D1*
X88147Y4270583D2*
X1632033D1*
X2019253D2*
X2368037D1*
X2772390D2*
X2803167D1*
X3829227D2*
X4049040D1*
X4730203D2*
X5003337D1*
X5859137D2*
X6157697D1*
X6485307D2*
X6634847D1*
X7243640D2*
X7972867D1*
X88147Y4207417D2*
X1599677D1*
X2051517D2*
X2344703D1*
X2772390D2*
X2803167D1*
X3829227D2*
X3985877D1*
X4667040D2*
X4979913D1*
X5922300D2*
X6157697D1*
X6485307D2*
X6629013D1*
X7243640D2*
X7883637D1*
X88147Y4144250D2*
X1592020D1*
X2059267D2*
X2351630D1*
X2772390D2*
X2803167D1*
X3829227D2*
X3922710D1*
X4603873D2*
X4943453D1*
X5950553D2*
X6157697D1*
X6485307D2*
X6652347D1*
X7243640D2*
X7820470D1*
X88147Y4081083D2*
X1592020D1*
X2059267D2*
X2395653D1*
X2772390D2*
X2803167D1*
X3829227D2*
X3859547D1*
X4112053D2*
X4150030D1*
X4540710D2*
X4886853D1*
X5224303D2*
X5333557D1*
X5950553D2*
X6157697D1*
X6485307D2*
X6627830D1*
X7243640D2*
X7757307D1*
X88147Y4017917D2*
X147270D1*
X437780D2*
X1163270D1*
X1453783D2*
X1629847D1*
X2021350D2*
X2368947D1*
X2772390D2*
X2803167D1*
X4048887D2*
X4086863D1*
X4477547D2*
X4877007D1*
X5251010D2*
X5355887D1*
X5949370D2*
X6157697D1*
X6485307D2*
X6627830D1*
X7238080D2*
X7694143D1*
X493837Y3954750D2*
X1107127D1*
X1509837D2*
X1600407D1*
X2050790D2*
X2344887D1*
X2772390D2*
X2900237D1*
X3985723D2*
X4023700D1*
X4414383D2*
X4877007D1*
X5908810D2*
X6157697D1*
X6485307D2*
X6627830D1*
X7200437D2*
X7630980D1*
X8089017D2*
X8339000D1*
X519720Y3891583D2*
X1081240D1*
X1535723D2*
X1592020D1*
X2059267D2*
X2351173D1*
X2772390D2*
X2837073D1*
X3922560D2*
X3978857D1*
X4351220D2*
X4877007D1*
X5845647D2*
X6157697D1*
X6485307D2*
X6627830D1*
X6935113D2*
X7567817D1*
X8025853D2*
X8511903D1*
X525920Y3828417D2*
X1075043D1*
X1541920D2*
X1592020D1*
X2059267D2*
X2394103D1*
X3422443D2*
X3505353D1*
X3917000D2*
X3976030D1*
X4288053D2*
X4877007D1*
X5441230D2*
X5470733D1*
X5552247D2*
X5574677D1*
X5782480D2*
X6157697D1*
X6485307D2*
X6627830D1*
X6935113D2*
X7504650D1*
X7962690D2*
X8511903D1*
X514160Y3765250D2*
X1086800D1*
X1530163D2*
X1627750D1*
X2023537D2*
X2550147D1*
X3168783D2*
X3481200D1*
X3917000D2*
X3976030D1*
X4282130D2*
X4877007D1*
X5417170D2*
X5574637D1*
X5760060D2*
X6157697D1*
X6485307D2*
X7441487D1*
X7899527D2*
X8511903D1*
X480983Y3702083D2*
X1119977D1*
X1496987D2*
X2326383D1*
X3322637D2*
X3456227D1*
X3917000D2*
X3963090D1*
X4282130D2*
X4877007D1*
X5417170D2*
X5574637D1*
X5760060D2*
X6157697D1*
X6485307D2*
X7378323D1*
X7836363D2*
X8511903D1*
X88147Y3638917D2*
X176527D1*
X408523D2*
X1192437D1*
X1424527D2*
X1596487D1*
X3356087D2*
X3461970D1*
X3917000D2*
X3970837D1*
X4282130D2*
X4877007D1*
X5417170D2*
X5574637D1*
X5760060D2*
X5795393D1*
X6485307D2*
X7315160D1*
X7773197D2*
X8511903D1*
X88147Y3575750D2*
X1533323D1*
X3020580D2*
X3055733D1*
X3357730D2*
X3503803D1*
X3917000D2*
X4099900D1*
X4282130D2*
X4877007D1*
X5406230D2*
X5574637D1*
X5760060D2*
X5795393D1*
X6485307D2*
X7251997D1*
X7710033D2*
X8511903D1*
X88147Y3512583D2*
X1470160D1*
X3020580D2*
X3084627D1*
X3328927D2*
X3482113D1*
X3917000D2*
X4099900D1*
X4282130D2*
X4877007D1*
X5348627D2*
X5574637D1*
X5760060D2*
X5795393D1*
X6485307D2*
X7188830D1*
X7646870D2*
X8511903D1*
X88147Y3449417D2*
X1155067D1*
X1984253D2*
X2413337D1*
X3020580D2*
X3456500D1*
X3917000D2*
X4099900D1*
X4282130D2*
X4877007D1*
X5285463D2*
X5574637D1*
X5760060D2*
X5795393D1*
X6485307D2*
X7125667D1*
X7583707D2*
X8511903D1*
X88147Y3386250D2*
X1155067D1*
X2049057D2*
X2326383D1*
X3020580D2*
X3461513D1*
X3917000D2*
X4099900D1*
X4282130D2*
X4877007D1*
X5279357D2*
X5574637D1*
X5760060D2*
X5795393D1*
X7520540D2*
X8511903D1*
X88147Y3323083D2*
X1155067D1*
X1555503D2*
X1592020D1*
X2059267D2*
X2326383D1*
X3020580D2*
X3502257D1*
X3917000D2*
X4099900D1*
X4282130D2*
X4894600D1*
X5351637D2*
X5574637D1*
X5760060D2*
X5795393D1*
X7457377D2*
X8511903D1*
X88147Y3259917D2*
X1155067D1*
X1543653D2*
X1592020D1*
X2059267D2*
X2326383D1*
X3020580D2*
X3483113D1*
X3917000D2*
X4099900D1*
X4282130D2*
X4956123D1*
X5414800D2*
X5574637D1*
X5760060D2*
X5795393D1*
X7394213D2*
X8511903D1*
X88147Y3196750D2*
X1155067D1*
X1543653D2*
X1622920D1*
X2028277D2*
X2326383D1*
X3020580D2*
X3456683D1*
X3916453D2*
X4099900D1*
X5477963D2*
X5574637D1*
X5760060D2*
X5795393D1*
X7331050D2*
X8511903D1*
X88147Y3133583D2*
X1175757D1*
X1523053D2*
X1603050D1*
X2048147D2*
X2484793D1*
X3166687D2*
X3461150D1*
X3878993D2*
X4099900D1*
X5541127D2*
X5574637D1*
X5760060D2*
X5795393D1*
X7267887D2*
X8511903D1*
X88147Y3070417D2*
X1175757D1*
X1523053D2*
X1592020D1*
X2059267D2*
X2293297D1*
X3815827D2*
X4039560D1*
X5230410D2*
X5329457D1*
X5760060D2*
X6157697D1*
X6485307D2*
X8511903D1*
X88147Y3007250D2*
X1175757D1*
X1523053D2*
X1592020D1*
X2059267D2*
X2230133D1*
X2661467D2*
X2692970D1*
X4419397D2*
X4915107D1*
X5247183D2*
X5392620D1*
X5760060D2*
X6157697D1*
X6485307D2*
X8511903D1*
X88147Y2944083D2*
X1155067D1*
X1543653D2*
X1568363D1*
X2030280D2*
X2166970D1*
X3020580D2*
X3062567D1*
X3128680D2*
X3456863D1*
X4356230D2*
X4978270D1*
X5274343D2*
X5412490D1*
X5760060D2*
X6157697D1*
X6485307D2*
X8511903D1*
X88147Y2880917D2*
X1155067D1*
X1915073D2*
X2103803D1*
X2356310D2*
X2405407D1*
X3010280D2*
X3232737D1*
X3371220D2*
X3460783D1*
X4293067D2*
X4984743D1*
X5270517D2*
X5412490D1*
X5760060D2*
X6157697D1*
X6485307D2*
X8511903D1*
X88147Y2817750D2*
X1155067D1*
X1716920D2*
X2040640D1*
X2293147D2*
X2342243D1*
X2594747D2*
X2630173D1*
X2966623D2*
X3190993D1*
X4229903D2*
X5023387D1*
X5231870D2*
X5412490D1*
X5760060D2*
X6157697D1*
X6485307D2*
X8511903D1*
X88147Y2754583D2*
X1155067D1*
X1653757D2*
X1977477D1*
X2229980D2*
X2279080D1*
X2531583D2*
X2630173D1*
X2957780D2*
X3195823D1*
X4166740D2*
X4978543D1*
X5276623D2*
X5412490D1*
X5760060D2*
X6157697D1*
X6613003D2*
X8511903D1*
X88147Y2691417D2*
X679197D1*
X1082910D2*
X1155067D1*
X1543653D2*
X1914313D1*
X2166817D2*
X2215913D1*
X2468420D2*
X2630353D1*
X2957600D2*
X3264183D1*
X3339773D2*
X3457137D1*
X4103577D2*
X4978543D1*
X5276623D2*
X5412490D1*
X5760060D2*
X5844887D1*
X6098120D2*
X6157697D1*
X6697493D2*
X8511903D1*
X88147Y2628250D2*
X612840D1*
X1149267D2*
X1697293D1*
X2103653D2*
X2152750D1*
X2405253D2*
X2630353D1*
X2957600D2*
X3460330D1*
X4040410D2*
X4978543D1*
X5276623D2*
X5412490D1*
X5760060D2*
X5819457D1*
X6123457D2*
X6157697D1*
X6760660D2*
X8511903D1*
X88147Y2565083D2*
X549677D1*
X1478757D2*
X1605147D1*
X2046140D2*
X2089587D1*
X2342090D2*
X2648127D1*
X2939827D2*
X3497970D1*
X3977247D2*
X4978543D1*
X5276623D2*
X5412490D1*
X5760060D2*
X5823740D1*
X6119267D2*
X6163167D1*
X6823823D2*
X6951580D1*
X7188587D2*
X8351580D1*
X88147Y2501917D2*
X486513D1*
X739017D2*
X1023090D1*
X1545477D2*
X1592020D1*
X2278927D2*
X2630627D1*
X2957327D2*
X3639520D1*
X3914083D2*
X5412490D1*
X5760060D2*
X5861293D1*
X6081713D2*
X6167817D1*
X6886987D2*
X6913297D1*
X7228147D2*
X8313297D1*
X88147Y2438750D2*
X436747D1*
X763900D2*
X836057D1*
X1036973D2*
X1086253D1*
X2215763D2*
X2639743D1*
X2948210D2*
X3639520D1*
X3885280D2*
X5172867D1*
X5304603D2*
X5412490D1*
X5760060D2*
X6492113D1*
X7243640D2*
X8296343D1*
X305530Y2375583D2*
X432737D1*
X1078263D2*
X1294520D1*
X2152600D2*
X2682307D1*
X2905737D2*
X3639520D1*
X3885280D2*
X5127567D1*
X5349173D2*
X5388247D1*
X5760060D2*
X6555277D1*
X7243640D2*
X8296343D1*
X335060Y2312417D2*
X432737D1*
X1083823D2*
X1264990D1*
X2089433D2*
X2648857D1*
X2939097D2*
X3639520D1*
X3885280D2*
X5131580D1*
X5760060D2*
X6617710D1*
X7243640D2*
X8296343D1*
X338613Y2249250D2*
X432737D1*
X1058577D2*
X1261343D1*
X2059267D2*
X2585967D1*
X2957233D2*
X3639520D1*
X3885280D2*
X5185720D1*
X5760060D2*
X6621997D1*
X7243640D2*
X8296343D1*
X338613Y2186083D2*
X440940D1*
X1110347D2*
X1261343D1*
X2059267D2*
X2522803D1*
X2948667D2*
X3639520D1*
X3885280D2*
X5248883D1*
X5760060D2*
X6653440D1*
X7243640D2*
X8296343D1*
X338613Y2122917D2*
X476397D1*
X1123563D2*
X1261343D1*
X1588680D2*
X1615323D1*
X2035933D2*
X2459637D1*
X2907197D2*
X3584197D1*
X3885280D2*
X5266747D1*
X5730893D2*
X6659273D1*
X6903757D2*
X6925613D1*
X7214473D2*
X8325603D1*
X338613Y2059750D2*
X492710D1*
X1107247D2*
X1261343D1*
X2044043D2*
X2396473D1*
X2707313D2*
X3521030D1*
X3867690D2*
X5266747D1*
X5667730D2*
X6630470D1*
X6932470D2*
X8511903D1*
X332780Y1996583D2*
X559520D1*
X1040530D2*
X1267177D1*
X2059267D2*
X2333310D1*
X2644147D2*
X3457867D1*
X3805620D2*
X5266747D1*
X5660803D2*
X6632203D1*
X6930827D2*
X7841253D1*
X8097313D2*
X8511903D1*
X297963Y1933417D2*
X673727D1*
X1031140D2*
X1302087D1*
X1547937D2*
X1592020D1*
X2059267D2*
X2270147D1*
X2580893D2*
X3394613D1*
X3742457D2*
X5266747D1*
X5627260D2*
X6665747D1*
X6897287D2*
X7813270D1*
X8125203D2*
X8511903D1*
X88147Y1870250D2*
X766877D1*
X1094303D2*
X1613897D1*
X2037390D2*
X2206983D1*
X3679290D2*
X5266747D1*
X5632637D2*
X6660367D1*
X6902663D2*
X7762320D1*
X8123837D2*
X8511903D1*
X88147Y1807083D2*
X848363D1*
X1157470D2*
X1608337D1*
X3616127D2*
X5266747D1*
X5662260D2*
X6630747D1*
X6953523D2*
X7230667D1*
X7568303D2*
X7699067D1*
X8092207D2*
X8511903D1*
X88147Y1743917D2*
X911527D1*
X3552963D2*
X5266747D1*
X5661167D2*
X6631840D1*
X7016687D2*
X7167867D1*
X8096220D2*
X8511903D1*
X88147Y1680750D2*
X974690D1*
X3489160D2*
X5266747D1*
X5628447D2*
X6664560D1*
X8124930D2*
X8511903D1*
X88147Y1617583D2*
X1037853D1*
X2458210D2*
X5266747D1*
X5631543D2*
X6661370D1*
X8124200D2*
X8511903D1*
X88147Y1554417D2*
X1111957D1*
X2395047D2*
X5266747D1*
X5661987D2*
X6631020D1*
X7568577D2*
X7845173D1*
X8093303D2*
X8511903D1*
X88147Y1491250D2*
X1592020D1*
X2331883D2*
X5266747D1*
X5661440D2*
X6631567D1*
X7631830D2*
X7843257D1*
X8095217D2*
X8511903D1*
X88147Y1428083D2*
X1592020D1*
X2268720D2*
X5266747D1*
X5629630D2*
X6663377D1*
X7633653D2*
X7813817D1*
X8124657D2*
X8511903D1*
X88147Y1364917D2*
X1611070D1*
X2205553D2*
X3806227D1*
X4461503D2*
X5266747D1*
X5630450D2*
X6662553D1*
X7632287D2*
X7764963D1*
X8124473D2*
X8511903D1*
X88147Y1301750D2*
X1610797D1*
X2142390D2*
X3806227D1*
X4461503D2*
X5266747D1*
X5661713D2*
X6631293D1*
X7570670D2*
X7701800D1*
X8094397D2*
X8511903D1*
X88147Y1238583D2*
X1592020D1*
X2079227D2*
X2986097D1*
X3173340D2*
X3806227D1*
X4461503D2*
X5094300D1*
X5661713D2*
X6631293D1*
X8094123D2*
X8511903D1*
X88147Y1175417D2*
X1592020D1*
X2059267D2*
X2931410D1*
X3228030D2*
X3806227D1*
X4461503D2*
X5039613D1*
X5630723D2*
X6662280D1*
X8124383D2*
X8511903D1*
X88147Y1112250D2*
X1609793D1*
X2041400D2*
X2916187D1*
X3243340D2*
X3806227D1*
X4461503D2*
X5024390D1*
X5629357D2*
X6663650D1*
X8124747D2*
X8511903D1*
X88147Y1049083D2*
X1706410D1*
X1944877D2*
X2916097D1*
X3243340D2*
X3806227D1*
X4461503D2*
X5024300D1*
X5661350D2*
X6631657D1*
X7572860D2*
X7842983D1*
X8095490D2*
X8511903D1*
X88147Y985917D2*
X592243D1*
X757793D2*
X842257D1*
X1007807D2*
X2916097D1*
X3243340D2*
X3806227D1*
X4461503D2*
X5024300D1*
X5662077D2*
X6630927D1*
X6936660D2*
X7081007D1*
X7631100D2*
X7845447D1*
X8093030D2*
X8511903D1*
X88147Y922750D2*
X535367D1*
X1064590D2*
X2930133D1*
X3229303D2*
X3806227D1*
X4461503D2*
X5038337D1*
X5631817D2*
X6661097D1*
X6901843D2*
X7144170D1*
X7633653D2*
X7814363D1*
X8124110D2*
X8511903D1*
X88147Y859583D2*
X521330D1*
X1078627D2*
X1685353D1*
X1965933D2*
X2982177D1*
X3177260D2*
X3806227D1*
X4461503D2*
X5090380D1*
X5628170D2*
X6664833D1*
X6898197D2*
X7167230D1*
X7632743D2*
X7813453D1*
X8125020D2*
X8511903D1*
X297963Y796417D2*
X535823D1*
X1064227D2*
X1302087D1*
X1501910D2*
X1640877D1*
X2010410D2*
X3806227D1*
X4461503D2*
X5266747D1*
X5661077D2*
X6631930D1*
X6931100D2*
X7225017D1*
X7574957D2*
X7841983D1*
X8096493D2*
X8511903D1*
X348367Y733250D2*
X593610D1*
X756337D2*
X843623D1*
X1006350D2*
X1251683D1*
X1552403D2*
X1632580D1*
X2018707D2*
X3806227D1*
X4461503D2*
X5266747D1*
X5662350D2*
X6630653D1*
X6932287D2*
X7810627D1*
X8127847D2*
X8511903D1*
X361673Y670083D2*
X599533D1*
X750410D2*
X849547D1*
X1000423D2*
X1238377D1*
X1565620D2*
X1653090D1*
X1998107D2*
X2312257D1*
X2487743D2*
X5266747D1*
X5632910D2*
X6660093D1*
X6902937D2*
X7112270D1*
X7287753D2*
X7810627D1*
X8127847D2*
X8511903D1*
X361673Y606917D2*
X537463D1*
X1062587D2*
X1238377D1*
X1565620D2*
X1686997D1*
X1964290D2*
X2201970D1*
X2598030D2*
X5279417D1*
X5626987D2*
X6627830D1*
X6935113D2*
X7001890D1*
X7398040D2*
X7810627D1*
X8127847D2*
X8511903D1*
X361493Y543750D2*
X521423D1*
X1078627D2*
X1238467D1*
X1565530D2*
X1641330D1*
X2009957D2*
X2150927D1*
X2649070D2*
X5338297D1*
X5660710D2*
X6627830D1*
X7449083D2*
X7810627D1*
X8127847D2*
X8511903D1*
X345450Y480583D2*
X533910D1*
X1066140D2*
X1254507D1*
X1549487D2*
X1632400D1*
X2018797D2*
X2123310D1*
X2676687D2*
X5360447D1*
X5662533D2*
X6627830D1*
X7476700D2*
X8511903D1*
X288940Y417417D2*
X586957D1*
X762990D2*
X836970D1*
X1013003D2*
X1311020D1*
X1492977D2*
X1652360D1*
X1998927D2*
X2112100D1*
X2687897D2*
X5388973D1*
X5634003D2*
X6627830D1*
X7487910D2*
X8511903D1*
X88147Y354250D2*
X1688637D1*
X1962560D2*
X2115290D1*
X2684707D2*
X6915303D1*
X7484720D2*
X8511903D1*
X88147Y291083D2*
X1641877D1*
X2009410D2*
X2133427D1*
X2666570D2*
X6933440D1*
X7466583D2*
X8511903D1*
X88147Y227917D2*
X1632307D1*
X2018887D2*
X2170160D1*
X2629837D2*
X6970173D1*
X7429850D2*
X8511903D1*
X88147Y164750D2*
X1651540D1*
X1999657D2*
X2237970D1*
X2562027D2*
X7037983D1*
X7362040D2*
X8511903D1*
X88147Y101583D2*
X1724000D1*
X1927197D2*
X8511903D1*
X2922437Y1107703D2*
X2924370Y1132357D1*
X2930130Y1156357D1*
X2939577Y1179157D1*
X2952473Y1200203D1*
X2968503Y1218970D1*
X2987270Y1235000D1*
X3008317Y1247897D1*
X3031117Y1257343D1*
X3055117Y1263103D1*
X3079723Y1265040D1*
X3104330Y1263103D1*
X3128330Y1257343D1*
X3151130Y1247897D1*
X3172177Y1235000D1*
X3190943Y1218970D1*
X3206973Y1200203D1*
X3219870Y1179157D1*
X3229317Y1156357D1*
X3235077Y1132357D1*
X3237013Y1107750D1*
X3236530Y975410D1*
X3232667Y951030D1*
X3225040Y927557D1*
X3213837Y905567D1*
X3199327Y885597D1*
X3181877Y868147D1*
X3161907Y853637D1*
X3139917Y842433D1*
X3116443Y834807D1*
X3092063Y830943D1*
X3067383D1*
X3043003Y834807D1*
X3019530Y842433D1*
X2997540Y853637D1*
X2977570Y868147D1*
X2960120Y885597D1*
X2945610Y905567D1*
X2934407Y927557D1*
X2926780Y951030D1*
X2922917Y975410D1*
X2922433Y1034417D1*
Y1107633D1*
X5030637Y1107703D2*
X5032570Y1132357D1*
X5038330Y1156357D1*
X5047777Y1179157D1*
X5060673Y1200203D1*
X5076703Y1218970D1*
X5095470Y1235000D1*
X5116517Y1247897D1*
X5139317Y1257343D1*
X5163317Y1263103D1*
X5187923Y1265040D1*
X5212530Y1263103D1*
X5236530Y1257343D1*
X5259330Y1247897D1*
X5273037Y1239907D1*
X5273060Y2168320D1*
X5182690Y2258020D1*
X5169070Y2267917D1*
X5157167Y2279820D1*
X5147270Y2293440D1*
X5139160Y2309707D1*
X5134723Y2320857D1*
X5131327Y2335000D1*
X5130187Y2349500D1*
X5131327Y2364000D1*
X5134723Y2378143D1*
X5143153Y2398210D1*
X5151950Y2412563D1*
X5162883Y2425367D1*
X5175687Y2436300D1*
X5190040Y2445097D1*
X5205597Y2451540D1*
X5221967Y2455470D1*
X5238750Y2456790D1*
X5255533Y2455470D1*
X5271903Y2451540D1*
X5287460Y2445097D1*
X5301813Y2436300D1*
X5314617Y2425367D1*
X5325550Y2412563D1*
X5334347Y2398210D1*
X5340790Y2382653D1*
X5344720Y2366283D1*
X5345717Y2357753D1*
X5371493Y2331967D1*
X5380263Y2352867D1*
X5392340Y2372573D1*
X5407350Y2390150D1*
X5418787Y2400320D1*
X5418810Y2987367D1*
X5265693Y3140537D1*
X5259083Y3120547D1*
X5248947Y3100653D1*
X5235820Y3082590D1*
X5220033Y3066803D1*
X5201970Y3053677D1*
X5192220Y3047780D1*
X5211260Y3036117D1*
X5228237Y3021613D1*
X5242740Y3004637D1*
X5254403Y2985597D1*
X5262950Y2964970D1*
X5268160Y2943260D1*
X5269913Y2921000D1*
X5268160Y2898740D1*
X5262950Y2877030D1*
X5254403Y2856403D1*
X5242740Y2837363D1*
X5228237Y2820387D1*
X5216093Y2809693D1*
X5270313Y2809690D1*
Y2524310D1*
X4984933D1*
Y2809690D1*
X5038983D1*
X5027010Y2820387D1*
X5012507Y2837363D1*
X5000843Y2856403D1*
X4992297Y2877030D1*
X4987087Y2898740D1*
X4985333Y2921000D1*
X4986917Y2941830D1*
X4901967Y3026743D1*
X4432450Y3026710D1*
X3878893Y2473107D1*
X3878653Y2104723D1*
X3876570Y2091583D1*
X3872460Y2078930D1*
X3866420Y2067073D1*
X3858597Y2056310D1*
X3755083Y1952427D1*
X3484063Y1681777D1*
X3473300Y1673953D1*
X3461443Y1667913D1*
X3448790Y1663803D1*
X3435650Y1661720D1*
X3288997Y1661460D1*
X2495753D1*
X2052870Y1218583D1*
X2052750Y1153227D1*
X2051193Y1142783D1*
X2048020Y1132713D1*
X2043313Y1123260D1*
X2037183Y1114663D1*
X2029787Y1107130D1*
X2021300Y1100847D1*
X1933973Y1046543D1*
X1924217Y1042503D1*
X1913950Y1040037D1*
X1903423Y1039210D1*
X1869927Y1038950D1*
X1858070Y1032910D1*
X1845417Y1028800D1*
X1832277Y1026717D1*
X1818970D1*
X1805830Y1028800D1*
X1793177Y1032910D1*
X1781300Y1038967D1*
X1741937Y1039467D1*
X1731523Y1041213D1*
X1721510Y1044567D1*
X1712147Y1049447D1*
X1626070Y1103460D1*
X1618043Y1110320D1*
X1611183Y1118347D1*
X1605667Y1127350D1*
X1601627Y1137107D1*
X1599160Y1147373D1*
X1598333Y1157900D1*
X1598497Y1259773D1*
X1600053Y1270217D1*
X1603227Y1280287D1*
X1607933Y1289740D1*
X1614063Y1298337D1*
X1621460Y1305870D1*
X1629947Y1312153D1*
X1664027Y1333467D1*
X1626070Y1357460D1*
X1618043Y1364320D1*
X1611183Y1372347D1*
X1605667Y1381350D1*
X1601627Y1391107D1*
X1599160Y1401373D1*
X1598333Y1411900D1*
X1598497Y1513773D1*
X1600053Y1524217D1*
X1603223Y1534287D1*
X1607943Y1543757D1*
X1595917Y1546210D1*
X1150777Y1546533D1*
X1134537Y1549107D1*
X1118900Y1554187D1*
X1104247Y1561653D1*
X1090943Y1571317D1*
X1018907Y1642900D1*
X793910Y1867893D1*
X777740Y1869463D1*
X756030Y1874673D1*
X735403Y1883220D1*
X716363Y1894883D1*
X699387Y1909387D1*
X684883Y1926363D1*
X673220Y1945403D1*
X664673Y1966030D1*
X659437Y1987957D1*
X636163Y1984150D1*
X613837D1*
X591783Y1987640D1*
X570547Y1994540D1*
X550653Y2004677D1*
X532590Y2017803D1*
X516803Y2033590D1*
X503677Y2051653D1*
X493540Y2071547D1*
X486640Y2092783D1*
X483150Y2114837D1*
Y2137163D1*
X484293Y2146830D1*
X468810Y2158027D1*
X459403Y2167433D1*
X451580Y2178197D1*
X445540Y2190053D1*
X441430Y2202707D1*
X439347Y2215847D1*
X439087Y2362500D1*
X439347Y2419653D1*
X441430Y2432793D1*
X445540Y2445447D1*
X451580Y2457303D1*
X459403Y2468067D1*
X562917Y2571950D1*
X675187Y2683850D1*
X685950Y2691673D1*
X697807Y2697713D1*
X710460Y2701823D1*
X723600Y2703907D1*
X870253Y2704167D1*
X1038527Y2703907D1*
X1051667Y2701823D1*
X1064320Y2697713D1*
X1076177Y2691673D1*
X1086940Y2683850D1*
X1193983Y2577180D1*
X1435400Y2576907D1*
X1448540Y2574823D1*
X1461193Y2570713D1*
X1473050Y2564673D1*
X1483813Y2556853D1*
X1598333Y2442703D1*
X1598497Y2529773D1*
X1600053Y2540217D1*
X1603223Y2550287D1*
X1607933Y2559740D1*
X1614063Y2568337D1*
X1621460Y2575870D1*
X1629947Y2582153D1*
X1716733Y2636177D1*
X1726453Y2640307D1*
X1736697Y2642863D1*
X1747237Y2643787D1*
X1872967Y2643790D1*
X2342057Y3112477D1*
X2352820Y3120297D1*
X2364677Y3126337D1*
X2377330Y3130447D1*
X2390470Y3132530D1*
X2490183Y3132790D1*
X2499813Y3139480D1*
X2514817Y3147123D1*
X2530827Y3152327D1*
X2547457Y3154960D1*
X2555840Y3155290D1*
X2550673Y3157710D1*
X2332760D1*
Y3442290D1*
X2409413D1*
X2420607Y3450000D1*
X2409537Y3457723D1*
X2332760Y3457710D1*
Y3494987D1*
X1721160Y3495060D1*
X1641817Y3415077D1*
X1673333Y3434783D1*
X1696670Y3454290D1*
X1705127Y3454663D1*
X1720377Y3463440D1*
X1733660Y3467783D1*
X1747573Y3469290D1*
X1908080Y3468897D1*
X1921740Y3465957D1*
X1934500Y3460257D1*
X1944387Y3454280D1*
X1977917Y3454290D1*
Y3433963D1*
X2026263Y3404230D1*
X2036463Y3394680D1*
X2044473Y3383227D1*
X2049943Y3370370D1*
X2052640Y3356657D1*
X2052913Y3299267D1*
X2052643Y3247377D1*
X2049953Y3233663D1*
X2044490Y3220800D1*
X2036487Y3209343D1*
X2026290Y3199790D1*
X1986630Y3174667D1*
X2025177Y3151040D1*
X2033203Y3144180D1*
X2040063Y3136153D1*
X2045580Y3127150D1*
X2049620Y3117393D1*
X2052087Y3107127D1*
X2052913Y3096600D1*
X2052750Y2994727D1*
X2051193Y2984283D1*
X2048023Y2974213D1*
X2043313Y2964760D1*
X2037183Y2956163D1*
X2029787Y2948630D1*
X2021300Y2942347D1*
X1933973Y2888043D1*
X1924217Y2884003D1*
X1913950Y2881537D1*
X1903423Y2880710D1*
X1773540D1*
X1631073Y2738643D1*
X1619307Y2730097D1*
X1606347Y2723493D1*
X1592513Y2718997D1*
X1578150Y2716723D1*
X1537243Y2716437D1*
X1537317Y2656747D1*
X1161437D1*
Y2961507D1*
X1182127D1*
X1182087Y3047417D1*
X1516667D1*
Y2961467D1*
X1537317Y2961507D1*
Y2906727D1*
X1603750Y2973083D1*
X1600193Y2983690D1*
X1598540Y2994120D1*
X1598497Y3101273D1*
X1600053Y3111717D1*
X1603223Y3121787D1*
X1607933Y3131240D1*
X1614063Y3139837D1*
X1621460Y3147370D1*
X1629947Y3153653D1*
X1664027Y3174967D1*
X1624983Y3199767D1*
X1614783Y3209320D1*
X1606773Y3220770D1*
X1601303Y3233630D1*
X1598607Y3247343D1*
X1598333Y3304733D1*
X1598603Y3356623D1*
X1601293Y3370337D1*
X1602823Y3374763D1*
X1599803Y3373717D1*
X1537350Y3311263D1*
X1537317Y3148747D1*
X1516627D1*
X1516667Y3062837D1*
X1182087D1*
Y3148787D1*
X1161437Y3148747D1*
Y3453507D1*
X1417467D1*
X1622557Y3658233D1*
X1634323Y3666780D1*
X1647283Y3673383D1*
X1661117Y3677880D1*
X1675480Y3680153D1*
X1799420Y3680440D1*
X2332713D1*
X2332760Y3742290D1*
X2556523D1*
X2556483Y3810013D1*
X2536343Y3801673D1*
X2514633Y3796463D1*
X2492373Y3794710D1*
X2470113Y3796463D1*
X2448403Y3801673D1*
X2427777Y3810220D1*
X2408737Y3821883D1*
X2391760Y3836387D1*
X2377257Y3853363D1*
X2365593Y3872403D1*
X2357047Y3893030D1*
X2351837Y3914740D1*
X2350083Y3937000D1*
X2351837Y3959260D1*
X2357047Y3980970D1*
X2365593Y4001597D1*
X2377257Y4020637D1*
X2391760Y4037613D1*
X2408737Y4052117D1*
X2428210Y4063983D1*
X2408737Y4075883D1*
X2391760Y4090387D1*
X2377257Y4107363D1*
X2365593Y4126403D1*
X2357047Y4147030D1*
X2351837Y4168740D1*
X2350083Y4191000D1*
X2351837Y4213260D1*
X2357047Y4234970D1*
X2365593Y4255597D1*
X2377257Y4274637D1*
X2391760Y4291613D1*
X2408737Y4306117D1*
X2428210Y4317983D1*
X2408737Y4329883D1*
X2391760Y4344387D1*
X2377257Y4361363D1*
X2365593Y4380403D1*
X2357047Y4401030D1*
X2351837Y4422740D1*
X2350083Y4445000D1*
X2351837Y4467260D1*
X2357047Y4488970D1*
X2365593Y4509597D1*
X2377257Y4528637D1*
X2391760Y4545613D1*
X2408737Y4560117D1*
X2428210Y4571983D1*
X2408737Y4583883D1*
X2391760Y4598387D1*
X2377257Y4615363D1*
X2365593Y4634403D1*
X2357047Y4655030D1*
X2351837Y4676740D1*
X2350083Y4699000D1*
X2351837Y4721260D1*
X2357047Y4742970D1*
X2365593Y4763597D1*
X2377257Y4782637D1*
X2391760Y4799613D1*
X2408737Y4814117D1*
X2428210Y4825983D1*
X2408737Y4837883D1*
X2391760Y4852387D1*
X2377257Y4869363D1*
X2365593Y4888403D1*
X2357047Y4909030D1*
X2351837Y4930740D1*
X2350083Y4953000D1*
X2351837Y4975260D1*
X2357047Y4996970D1*
X2365593Y5017597D1*
X2377257Y5036637D1*
X2391760Y5053613D1*
X2404383Y5064683D1*
X2350083Y5064710D1*
Y5302327D1*
X2293013Y5246017D1*
X2273023Y5231493D1*
X2251007Y5220277D1*
X2227507Y5212640D1*
X2203103Y5208777D1*
X2144083Y5208290D1*
X1972457D1*
X1963150Y5203583D1*
X1953107Y5200320D1*
X1942680Y5198667D1*
X1776807Y5198463D1*
X1766287Y5199383D1*
X1756043Y5201940D1*
X1746323Y5206067D1*
X1657847Y5261310D1*
X1649820Y5268170D1*
X1642960Y5276197D1*
X1637443Y5285200D1*
X1633403Y5294957D1*
X1630937Y5305223D1*
X1630110Y5315750D1*
X1630333Y5421250D1*
X1632020Y5431673D1*
X1635317Y5441707D1*
X1640143Y5451097D1*
X1646377Y5459620D1*
X1653867Y5467060D1*
X1662430Y5473240D1*
X1694123Y5492517D1*
X1657847Y5515310D1*
X1649817Y5522170D1*
X1642960Y5530197D1*
X1637443Y5539200D1*
X1633403Y5548957D1*
X1630937Y5559223D1*
X1630110Y5569750D1*
X1630333Y5675250D1*
X1632020Y5685673D1*
X1635317Y5695707D1*
X1640140Y5705097D1*
X1646377Y5713620D1*
X1653867Y5721063D1*
X1662430Y5727240D1*
X1699887Y5750023D1*
X1699913Y5878513D1*
X1657820Y5905060D1*
X1649793Y5911920D1*
X1642933Y5919947D1*
X1637417Y5928950D1*
X1633377Y5938707D1*
X1630910Y5948973D1*
X1630083Y5959500D1*
X1630307Y6065000D1*
X1631993Y6075423D1*
X1635290Y6085457D1*
X1640117Y6094847D1*
X1646350Y6103370D1*
X1653840Y6110813D1*
X1662403Y6116990D1*
X1731320Y6158910D1*
X1656733Y6205870D1*
X1646533Y6215420D1*
X1638523Y6226870D1*
X1633053Y6239730D1*
X1630357Y6253443D1*
X1630083Y6310833D1*
X1630433Y6366350D1*
X1633290Y6380030D1*
X1638913Y6392823D1*
X1647057Y6404180D1*
X1657370Y6413610D1*
X1664477Y6418250D1*
X81733D1*
X81750Y3923163D1*
X89983Y3941187D1*
X98703Y3956757D1*
X108620Y3971597D1*
X119667Y3985613D1*
X131783Y3998717D1*
X144887Y4010833D1*
X158903Y4021880D1*
X173740Y4031797D1*
X189313Y4040517D1*
X205520Y4047987D1*
X222263Y4054163D1*
X239440Y4059010D1*
X256943Y4062490D1*
X274667Y4064590D1*
X292500Y4065290D1*
X310333Y4064590D1*
X328057Y4062490D1*
X345560Y4059010D1*
X362737Y4054163D1*
X379480Y4047987D1*
X395687Y4040517D1*
X411260Y4031797D1*
X426097Y4021880D1*
X440113Y4010833D1*
X453217Y3998717D1*
X465333Y3985613D1*
X476380Y3971597D1*
X486297Y3956757D1*
X495017Y3941187D1*
X502490Y3924980D1*
X508667Y3908237D1*
X513510Y3891060D1*
X516993Y3873557D1*
X519090Y3855833D1*
X519790Y3838000D1*
X519090Y3820167D1*
X516993Y3802443D1*
X513510Y3784940D1*
X508667Y3767763D1*
X502490Y3751020D1*
X495017Y3734810D1*
X486297Y3719240D1*
X476380Y3704400D1*
X465333Y3690387D1*
X453217Y3677280D1*
X440113Y3665167D1*
X426097Y3654117D1*
X411260Y3644203D1*
X395687Y3635483D1*
X379480Y3628010D1*
X362737Y3621833D1*
X345560Y3616990D1*
X328057Y3613507D1*
X310333Y3611410D1*
X292500Y3610710D1*
X274667Y3611410D1*
X256943Y3613507D1*
X239440Y3616990D1*
X222263Y3621833D1*
X205520Y3628010D1*
X189313Y3635483D1*
X173740Y3644203D1*
X158903Y3654117D1*
X144887Y3665167D1*
X131783Y3677280D1*
X119667Y3690387D1*
X108620Y3704400D1*
X98703Y3719240D1*
X89983Y3734810D1*
X81763Y3753047D1*
X81750Y2405587D1*
X95617Y2414787D1*
X112250Y2423230D1*
X129770Y2429647D1*
X147923Y2433943D1*
X166460Y2436057D1*
X185113Y2435963D1*
X203627Y2433663D1*
X221740Y2429187D1*
X239190Y2422597D1*
X255740Y2413987D1*
X271157Y2403477D1*
X285217Y2391217D1*
X297727Y2377377D1*
X308513Y2362153D1*
X317420Y2345763D1*
X324320Y2328430D1*
X329123Y2310403D1*
X331757Y2291933D1*
X332290Y2265000D1*
X332013Y2029673D1*
X329803Y2011147D1*
X325417Y1993013D1*
X318917Y1975530D1*
X310387Y1958937D1*
X299957Y1943470D1*
X287767Y1929347D1*
X273990Y1916767D1*
X258823Y1905907D1*
X242473Y1896917D1*
X225177Y1889930D1*
X207177Y1885037D1*
X188720Y1882310D1*
X170070Y1881787D1*
X151493Y1883477D1*
X133243Y1887353D1*
X115583Y1893363D1*
X98757Y1901423D1*
X81763Y1912343D1*
X81750Y775900D1*
X95827Y789583D1*
X110703Y800840D1*
X126807Y810257D1*
X143917Y817700D1*
X161783Y823063D1*
X180160Y826277D1*
X198787Y827287D1*
X217407Y826090D1*
X235750Y822693D1*
X253563Y817150D1*
X270593Y809537D1*
X286603Y799960D1*
X301367Y788553D1*
X314677Y775483D1*
X326347Y760927D1*
X336210Y745090D1*
X344127Y728200D1*
X349990Y710487D1*
X353713Y692207D1*
X355250Y673617D1*
X355013Y540673D1*
X352803Y522147D1*
X348417Y504013D1*
X341917Y486530D1*
X333387Y469937D1*
X322957Y454470D1*
X310767Y440347D1*
X296990Y427767D1*
X281823Y416907D1*
X265473Y407917D1*
X248177Y400930D1*
X230177Y396037D1*
X211720Y393310D1*
X193070Y392787D1*
X174493Y394477D1*
X156243Y398353D1*
X138583Y404363D1*
X121757Y412423D1*
X106007Y422417D1*
X91547Y434207D1*
X81737Y444063D1*
X81750Y81733D1*
X8518267Y81750D1*
X8518250Y2062773D1*
X8414720Y2062917D1*
X8404290Y2064570D1*
X8394250Y2067833D1*
X8384840Y2072627D1*
X8376300Y2078833D1*
X8318833Y2136300D1*
X8312627Y2144840D1*
X8307833Y2154250D1*
X8304570Y2164290D1*
X8302917Y2174720D1*
X8302710Y2455127D1*
X8303487Y2465403D1*
X8305903Y2475683D1*
X8309897Y2485457D1*
X8364027Y2575160D1*
X8370233Y2583700D1*
X8377700Y2591167D1*
X8386240Y2597373D1*
X8395650Y2602167D1*
X8405690Y2605430D1*
X8416120Y2607083D1*
X8518253Y2607290D1*
X8518250Y3892800D1*
X8416727Y3892873D1*
X8406283Y3894430D1*
X8396213Y3897600D1*
X8386760Y3902310D1*
X8378163Y3908440D1*
X8370630Y3915837D1*
X8364347Y3924323D1*
X8340427Y3962577D1*
X8090560Y3962540D1*
X7255090Y3127160D1*
X7236303Y3111113D1*
X7215237Y3098203D1*
X7192407Y3088747D1*
X7168383Y3082980D1*
X7143750Y3081040D1*
X6479023D1*
X6478957Y2763903D1*
X6565850Y2763350D1*
X6590253Y2759487D1*
X6613753Y2751850D1*
X6635770Y2740633D1*
X6655760Y2726110D1*
X6697837Y2684720D1*
X6901263Y2480597D1*
X6906043Y2476117D1*
X6911743Y2488877D1*
X6967767Y2580640D1*
X6977320Y2590840D1*
X6988770Y2598850D1*
X7001630Y2604320D1*
X7015343Y2607017D1*
X7072733Y2607290D1*
X7124623Y2607020D1*
X7138337Y2604330D1*
X7151200Y2598867D1*
X7162653Y2590863D1*
X7172210Y2580667D1*
X7202870Y2532153D1*
X7230970Y2486273D1*
X7235537Y2473063D1*
X7237277Y2459200D1*
X7237130Y2175337D1*
X7234717Y2161573D1*
X7229517Y2148600D1*
X7221747Y2136987D1*
X7181283Y2096120D1*
X7160450Y2076227D1*
X7148470Y2069030D1*
X7135263Y2064463D1*
X7121397Y2062723D1*
X7015220Y2062880D1*
X7001457Y2065317D1*
X6988497Y2070540D1*
X6976893Y2078330D1*
X6936120Y2118717D1*
X6916227Y2139547D1*
X6909030Y2151527D1*
X6904463Y2164737D1*
X6902723Y2178600D1*
X6902710Y2185487D1*
X6892840Y2174660D1*
X6874053Y2158613D1*
X6865930Y2152690D1*
X6880510Y2141050D1*
X6893497Y2127660D1*
X6904690Y2112737D1*
X6913907Y2096520D1*
X6921000Y2079267D1*
X6925857Y2061253D1*
X6928397Y2042773D1*
X6928493Y2022673D1*
X6926137Y2004170D1*
X6921460Y1986110D1*
X6914537Y1968787D1*
X6905480Y1952480D1*
X6894433Y1937447D1*
X6881577Y1923930D1*
X6867117Y1912150D1*
X6856090Y1905007D1*
X6868073Y1897160D1*
X6885650Y1882150D1*
X6900660Y1864573D1*
X6912737Y1844867D1*
X6915593Y1838673D1*
X7049473Y1704773D1*
X7158647Y1704790D1*
X7172710Y1725733D1*
X7173447Y1739527D1*
X7175817Y1749813D1*
X7179770Y1759607D1*
X7185207Y1768660D1*
X7191990Y1776750D1*
X7199957Y1783680D1*
X7287040Y1838373D1*
X7296450Y1843167D1*
X7306490Y1846430D1*
X7316920Y1848083D1*
X7475150Y1848290D1*
X7485403Y1847513D1*
X7495683Y1845097D1*
X7505457Y1841103D1*
X7576567Y1798243D1*
X7696680Y1798290D1*
X7817573Y1919197D1*
X7821167Y1940550D1*
X7828553Y1963280D1*
X7839400Y1984570D1*
X7853447Y2003903D1*
X7870347Y2020803D1*
X7889680Y2034850D1*
X7910970Y2045697D1*
X7933700Y2053083D1*
X7957300Y2056820D1*
X7981200D1*
X8004800Y2053083D1*
X8027530Y2045697D1*
X8048820Y2034850D1*
X8068153Y2020803D1*
X8085053Y2003903D1*
X8099100Y1984570D1*
X8109947Y1963280D1*
X8117333Y1940550D1*
X8121070Y1916950D1*
Y1893050D1*
X8117333Y1869450D1*
X8109947Y1846720D1*
X8099100Y1825430D1*
X8085053Y1806097D1*
X8068153Y1789197D1*
X8053210Y1778083D1*
X8068153Y1766803D1*
X8085053Y1749903D1*
X8099100Y1730570D1*
X8109947Y1709280D1*
X8117333Y1686550D1*
X8121070Y1662950D1*
Y1639050D1*
X8117333Y1615450D1*
X8109947Y1592720D1*
X8099100Y1571430D1*
X8085053Y1552097D1*
X8068153Y1535197D1*
X8053210Y1524083D1*
X8068153Y1512803D1*
X8085053Y1495903D1*
X8099100Y1476570D1*
X8109947Y1455280D1*
X8117333Y1432550D1*
X8121070Y1408950D1*
Y1385050D1*
X8117333Y1361450D1*
X8109947Y1338720D1*
X8099100Y1317430D1*
X8085053Y1298097D1*
X8068153Y1281197D1*
X8053210Y1270083D1*
X8068153Y1258803D1*
X8085053Y1241903D1*
X8099100Y1222570D1*
X8109947Y1201280D1*
X8117333Y1178550D1*
X8121070Y1154950D1*
Y1131050D1*
X8117333Y1107450D1*
X8109947Y1084720D1*
X8099100Y1063430D1*
X8085053Y1044097D1*
X8068153Y1027197D1*
X8053210Y1016083D1*
X8068153Y1004803D1*
X8085053Y987903D1*
X8099100Y968570D1*
X8109947Y947280D1*
X8117333Y924550D1*
X8121070Y900950D1*
Y877050D1*
X8117333Y853450D1*
X8109947Y830720D1*
X8099100Y809430D1*
X8085053Y790097D1*
X8082483Y787317D1*
X8121540Y787290D1*
Y482710D1*
X7816960D1*
Y787290D1*
X7855880D1*
X7846043Y799487D1*
X7833560Y819863D1*
X7824413Y841940D1*
X7818833Y865177D1*
X7816960Y889000D1*
X7818833Y912823D1*
X7824413Y936060D1*
X7833560Y958137D1*
X7846043Y978513D1*
X7861563Y996687D1*
X7879737Y1012207D1*
X7885290Y1015917D1*
X7870347Y1027197D1*
X7853447Y1044097D1*
X7839400Y1063430D1*
X7828553Y1084720D1*
X7827017Y1088883D1*
X7814190Y1078110D1*
X7798500Y1068493D1*
X7781493Y1061450D1*
X7763597Y1057153D1*
X7745213Y1055710D1*
X7577087D1*
X7560977Y1045650D1*
X7599553Y1022040D1*
X7607580Y1015180D1*
X7614440Y1007153D1*
X7619957Y998150D1*
X7623997Y988393D1*
X7626463Y978127D1*
X7627290Y967600D1*
X7627127Y865727D1*
X7625570Y855283D1*
X7622397Y845213D1*
X7617690Y835760D1*
X7611560Y827163D1*
X7604163Y819630D1*
X7595677Y813347D1*
X7552320Y786237D1*
X7552290Y766710D1*
X7521027D1*
X7508350Y759043D1*
X7498593Y755003D1*
X7488327Y752537D1*
X7477800Y751710D1*
X7316313Y751967D1*
X7305900Y753713D1*
X7295887Y757067D1*
X7286523Y761947D1*
X7278873Y766730D1*
X7247710Y766710D1*
Y786307D1*
X7200447Y815960D1*
X7192420Y822820D1*
X7185560Y830847D1*
X7180043Y839850D1*
X7176003Y849607D1*
X7173537Y859873D1*
X7172710Y870400D1*
Y900570D1*
X7031693Y1041560D1*
X6985913Y1041587D1*
X6924347Y979973D1*
X6917577Y959633D1*
X6907087Y939040D1*
X6893500Y920343D1*
X6877157Y904000D1*
X6858460Y890413D1*
X6856053Y889067D1*
X6868073Y881160D1*
X6885650Y866150D1*
X6900660Y848573D1*
X6912737Y828867D1*
X6921580Y807517D1*
X6926977Y785040D1*
X6928790Y762000D1*
X6926977Y738960D1*
X6921580Y716483D1*
X6912737Y695133D1*
X6900660Y675427D1*
X6885650Y657850D1*
X6882897Y655303D1*
X6928790Y655290D1*
Y477573D1*
X6939390Y507950D1*
X6948663Y528063D1*
X6959483Y547387D1*
X6971790Y565803D1*
X6985503Y583200D1*
X7000537Y599463D1*
X7016800Y614497D1*
X7034197Y628210D1*
X7052613Y640517D1*
X7071937Y651337D1*
X7092050Y660610D1*
X7112830Y668277D1*
X7134150Y674290D1*
X7155873Y678610D1*
X7177867Y681213D1*
X7200000Y682083D1*
X7222133Y681213D1*
X7244127Y678610D1*
X7265850Y674290D1*
X7287170Y668277D1*
X7307950Y660610D1*
X7328063Y651337D1*
X7347387Y640517D1*
X7365803Y628210D1*
X7383200Y614497D1*
X7399463Y599463D1*
X7414497Y583200D1*
X7428210Y565803D1*
X7440517Y547387D1*
X7451337Y528063D1*
X7460610Y507950D1*
X7468277Y487170D1*
X7474290Y465850D1*
X7478610Y444127D1*
X7481213Y422133D1*
X7482083Y400000D1*
X7481213Y377867D1*
X7478610Y355873D1*
X7474290Y334150D1*
X7468277Y312830D1*
X7460610Y292050D1*
X7451337Y271937D1*
X7440517Y252613D1*
X7428210Y234197D1*
X7414497Y216800D1*
X7399463Y200537D1*
X7383200Y185503D1*
X7365803Y171790D1*
X7347387Y159483D1*
X7328063Y148663D1*
X7307950Y139390D1*
X7287170Y131723D1*
X7265850Y125710D1*
X7244127Y121390D1*
X7222133Y118787D1*
X7200000Y117917D1*
X7177867Y118787D1*
X7155873Y121390D1*
X7134150Y125710D1*
X7112830Y131723D1*
X7092050Y139390D1*
X7071937Y148663D1*
X7052613Y159483D1*
X7034197Y171790D1*
X7016800Y185503D1*
X7000537Y200537D1*
X6985503Y216800D1*
X6971790Y234197D1*
X6959483Y252613D1*
X6948663Y271937D1*
X6939390Y292050D1*
X6931723Y312830D1*
X6925710Y334150D1*
X6920810Y360770D1*
X6634210Y360710D1*
Y655290D1*
X6679983D1*
X6669500Y666343D1*
X6655913Y685040D1*
X6645423Y705633D1*
X6638280Y727617D1*
X6634663Y750443D1*
Y773557D1*
X6638280Y796383D1*
X6645423Y818367D1*
X6655913Y838960D1*
X6669500Y857657D1*
X6685843Y874000D1*
X6704540Y887587D1*
X6706947Y888933D1*
X6694927Y896840D1*
X6677350Y911850D1*
X6662340Y929427D1*
X6650263Y949133D1*
X6641420Y970483D1*
X6636023Y992960D1*
X6634210Y1016000D1*
X6636023Y1039040D1*
X6641420Y1061517D1*
X6650263Y1082867D1*
X6662340Y1102573D1*
X6677350Y1120150D1*
X6694927Y1135160D1*
X6706947Y1142933D1*
X6694927Y1150840D1*
X6677350Y1165850D1*
X6662340Y1183427D1*
X6650263Y1203133D1*
X6641420Y1224483D1*
X6636023Y1246960D1*
X6634210Y1270000D1*
X6636023Y1293040D1*
X6641420Y1315517D1*
X6650263Y1336867D1*
X6662340Y1356573D1*
X6677350Y1374150D1*
X6694927Y1389160D1*
X6706947Y1396933D1*
X6694927Y1404840D1*
X6677350Y1419850D1*
X6662340Y1437427D1*
X6650263Y1457133D1*
X6641420Y1478483D1*
X6636023Y1500960D1*
X6634210Y1524000D1*
X6636023Y1547040D1*
X6641420Y1569517D1*
X6650263Y1590867D1*
X6662340Y1610573D1*
X6677350Y1628150D1*
X6694927Y1643160D1*
X6706947Y1650933D1*
X6694927Y1658840D1*
X6677350Y1673850D1*
X6662340Y1691427D1*
X6650263Y1711133D1*
X6641420Y1732483D1*
X6636023Y1754960D1*
X6634210Y1778000D1*
X6636023Y1801040D1*
X6641420Y1823517D1*
X6650263Y1844867D1*
X6662340Y1864573D1*
X6677350Y1882150D1*
X6694927Y1897160D1*
X6706947Y1904933D1*
X6692707Y1914483D1*
X6678567Y1926647D1*
X6666077Y1940503D1*
X6655437Y1955827D1*
X6646820Y1972370D1*
X6640363Y1989870D1*
X6636170Y2008047D1*
X6634310Y2026610D1*
X6634807Y2045257D1*
X6637660Y2063693D1*
X6642820Y2081617D1*
X6650203Y2098750D1*
X6659693Y2114810D1*
X6671137Y2129540D1*
X6684350Y2142707D1*
X6697373Y2152880D1*
X6679237Y2166267D1*
X6661767Y2183737D1*
X6647243Y2203727D1*
X6636027Y2225743D1*
X6628390Y2249243D1*
X6624527Y2273647D1*
X6624040Y2313070D1*
X6488217Y2448973D1*
X6321497Y2448917D1*
X6296863Y2450857D1*
X6272793Y2456640D1*
X6258787Y2459087D1*
X6174207D1*
Y2550687D1*
X6168387Y2569620D1*
X6164523Y2594023D1*
X6164037Y2653043D1*
Y6128983D1*
X6085083Y6129040D1*
X6094687Y6116113D1*
X6103903Y6099897D1*
X6110997Y6082643D1*
X6115853Y6064630D1*
X6118393Y6046150D1*
X6118490Y6026050D1*
X6116133Y6007547D1*
X6111457Y5989487D1*
X6104533Y5972163D1*
X6095477Y5955857D1*
X6084430Y5940823D1*
X6071573Y5927307D1*
X6057113Y5915527D1*
X6041277Y5905667D1*
X6024323Y5897887D1*
X6006520Y5892310D1*
X5988157Y5889033D1*
X5969527Y5888100D1*
X5950927Y5889530D1*
X5932657Y5893300D1*
X5915010Y5899347D1*
X5898270Y5907580D1*
X5882703Y5917860D1*
X5868563Y5930023D1*
X5856073Y5943880D1*
X5845433Y5959203D1*
X5836817Y5975747D1*
X5830360Y5993247D1*
X5826167Y6011423D1*
X5824307Y6029987D1*
X5824803Y6048633D1*
X5827657Y6067070D1*
X5832817Y6084993D1*
X5840200Y6102127D1*
X5849690Y6118187D1*
X5857837Y6129047D1*
X3541933Y6129040D1*
X3492900Y6080097D1*
X3503010Y6069613D1*
X3519987Y6084117D1*
X3539027Y6095780D1*
X3559653Y6104327D1*
X3581363Y6109537D1*
X3603623Y6111290D1*
X3625883Y6109537D1*
X3647593Y6104327D1*
X3668220Y6095780D1*
X3687260Y6084117D1*
X3704237Y6069613D1*
X3718740Y6052637D1*
X3730607Y6033163D1*
X3742507Y6052637D1*
X3757010Y6069613D1*
X3773987Y6084117D1*
X3793027Y6095780D1*
X3813653Y6104327D1*
X3835363Y6109537D1*
X3857623Y6111290D1*
X3879883Y6109537D1*
X3901593Y6104327D1*
X3922220Y6095780D1*
X3941260Y6084117D1*
X3958237Y6069613D1*
X3972740Y6052637D1*
X3984607Y6033163D1*
X3996507Y6052637D1*
X4011010Y6069613D1*
X4027987Y6084117D1*
X4047027Y6095780D1*
X4067653Y6104327D1*
X4089363Y6109537D1*
X4111623Y6111290D1*
X4133883Y6109537D1*
X4155593Y6104327D1*
X4176220Y6095780D1*
X4195260Y6084117D1*
X4212237Y6069613D1*
X4226740Y6052637D1*
X4238607Y6033163D1*
X4247967Y6049020D1*
X4259443Y6063723D1*
X4272747Y6076800D1*
X4287647Y6088020D1*
X4303887Y6097200D1*
X4321187Y6104173D1*
X4339250Y6108823D1*
X4357767Y6111073D1*
X4376420Y6110880D1*
X4394887Y6108247D1*
X4412850Y6103223D1*
X4430003Y6095893D1*
X4446050Y6086380D1*
X4460713Y6074850D1*
X4473743Y6061503D1*
X4484913Y6046563D1*
X4492613Y6033150D1*
X4504507Y6052637D1*
X4519010Y6069613D1*
X4535987Y6084117D1*
X4555027Y6095780D1*
X4575653Y6104327D1*
X4597363Y6109537D1*
X4619623Y6111290D1*
X4641883Y6109537D1*
X4663593Y6104327D1*
X4684220Y6095780D1*
X4703260Y6084117D1*
X4720237Y6069613D1*
X4734740Y6052637D1*
X4746607Y6033163D1*
X4758507Y6052637D1*
X4773010Y6069613D1*
X4789987Y6084117D1*
X4809027Y6095780D1*
X4829653Y6104327D1*
X4851363Y6109537D1*
X4873623Y6111290D1*
X4895883Y6109537D1*
X4917593Y6104327D1*
X4938220Y6095780D1*
X4957260Y6084117D1*
X4974237Y6069613D1*
X4988740Y6052637D1*
X5000607Y6033163D1*
X5012507Y6052637D1*
X5027010Y6069613D1*
X5043987Y6084117D1*
X5063027Y6095780D1*
X5083653Y6104327D1*
X5105363Y6109537D1*
X5127623Y6111290D1*
X5149883Y6109537D1*
X5171593Y6104327D1*
X5192220Y6095780D1*
X5211260Y6084117D1*
X5228237Y6069613D1*
X5242740Y6052637D1*
X5254403Y6033597D1*
X5262950Y6012970D1*
X5268160Y5991260D1*
X5269913Y5969000D1*
X5268160Y5946740D1*
X5262950Y5925030D1*
X5254403Y5904403D1*
X5242740Y5885363D1*
X5228237Y5868387D1*
X5211260Y5853883D1*
X5191787Y5842017D1*
X5211260Y5830117D1*
X5228237Y5815613D1*
X5240603Y5801343D1*
X5298900Y5801073D1*
X5312283Y5798953D1*
X5325167Y5794767D1*
X5337240Y5788617D1*
X5348200Y5780653D1*
X5353197Y5776033D1*
X5366020Y5772663D1*
X5371417Y5795140D1*
X5380260Y5816490D1*
X5392337Y5836197D1*
X5407347Y5853773D1*
X5424923Y5868783D1*
X5444630Y5880860D1*
X5465980Y5889703D1*
X5488457Y5895100D1*
X5511497Y5896913D1*
X5534537Y5895100D1*
X5557013Y5889703D1*
X5578363Y5880860D1*
X5598070Y5868783D1*
X5615647Y5853773D1*
X5630657Y5836197D1*
X5642733Y5816490D1*
X5651577Y5795140D1*
X5656973Y5772663D1*
X5658787Y5749623D1*
X5656973Y5726583D1*
X5651577Y5704107D1*
X5642733Y5682757D1*
X5630657Y5663050D1*
X5615647Y5645473D1*
X5598070Y5630463D1*
X5586050Y5622690D1*
X5598070Y5614783D1*
X5615647Y5599773D1*
X5630657Y5582197D1*
X5642733Y5562490D1*
X5651577Y5541140D1*
X5656973Y5518663D1*
X5658787Y5495623D1*
X5656910Y5472273D1*
X5733027Y5395820D1*
X5740990Y5384860D1*
X5747140Y5372787D1*
X5751327Y5359903D1*
X5753447Y5346520D1*
X5753713Y5199747D1*
Y4369680D1*
X5923530Y4199447D1*
X5931493Y4188487D1*
X5937643Y4176413D1*
X5941830Y4163530D1*
X5943950Y4150147D1*
X5944217Y4032250D1*
X5943153Y4018743D1*
X5939990Y4005570D1*
X5934807Y3993053D1*
X5927727Y3981500D1*
X5918910Y3971180D1*
X5753743Y3806013D1*
X5753447Y2181100D1*
X5751327Y2167717D1*
X5747140Y2154833D1*
X5740990Y2142760D1*
X5733027Y2131800D1*
X5656950Y2055347D1*
X5658790Y2032000D1*
X5656977Y2008960D1*
X5651580Y1986483D1*
X5642737Y1965133D1*
X5630660Y1945427D1*
X5615650Y1927850D1*
X5598073Y1912840D1*
X5586053Y1905067D1*
X5598073Y1897160D1*
X5615650Y1882150D1*
X5630660Y1864573D1*
X5642737Y1844867D1*
X5651580Y1823517D1*
X5656977Y1801040D1*
X5658790Y1778000D1*
X5656977Y1754960D1*
X5651580Y1732483D1*
X5642737Y1711133D1*
X5630660Y1691427D1*
X5615650Y1673850D1*
X5598073Y1658840D1*
X5586053Y1651067D1*
X5598073Y1643160D1*
X5615650Y1628150D1*
X5630660Y1610573D1*
X5642737Y1590867D1*
X5651580Y1569517D1*
X5656977Y1547040D1*
X5658790Y1524000D1*
X5656977Y1500960D1*
X5651580Y1478483D1*
X5642737Y1457133D1*
X5630660Y1437427D1*
X5615650Y1419850D1*
X5598073Y1404840D1*
X5586053Y1397067D1*
X5598073Y1389160D1*
X5615650Y1374150D1*
X5630660Y1356573D1*
X5642737Y1336867D1*
X5651580Y1315517D1*
X5656977Y1293040D1*
X5658790Y1270000D1*
X5656977Y1246960D1*
X5651580Y1224483D1*
X5642737Y1203133D1*
X5630660Y1183427D1*
X5615650Y1165850D1*
X5598073Y1150840D1*
X5586053Y1143067D1*
X5598073Y1135160D1*
X5615650Y1120150D1*
X5630660Y1102573D1*
X5642737Y1082867D1*
X5651580Y1061517D1*
X5656977Y1039040D1*
X5658790Y1016000D1*
X5656977Y992960D1*
X5651580Y970483D1*
X5642737Y949133D1*
X5630660Y929427D1*
X5615650Y911850D1*
X5598073Y896840D1*
X5586053Y889067D1*
X5598073Y881160D1*
X5615650Y866150D1*
X5630660Y848573D1*
X5642737Y828867D1*
X5651580Y807517D1*
X5656977Y785040D1*
X5658790Y762000D1*
X5656977Y738960D1*
X5651580Y716483D1*
X5642737Y695133D1*
X5630660Y675427D1*
X5615650Y657850D1*
X5598073Y642840D1*
X5586053Y635067D1*
X5598073Y627160D1*
X5615650Y612150D1*
X5630660Y594573D1*
X5642737Y574867D1*
X5651580Y553517D1*
X5656977Y531040D1*
X5658790Y508000D1*
X5656977Y484960D1*
X5651580Y462483D1*
X5642737Y441133D1*
X5630660Y421427D1*
X5615650Y403850D1*
X5598073Y388840D1*
X5578367Y376763D1*
X5557017Y367920D1*
X5534540Y362523D1*
X5511500Y360710D1*
X5488460Y362523D1*
X5465983Y367920D1*
X5444633Y376763D1*
X5424927Y388840D1*
X5407350Y403850D1*
X5392340Y421427D1*
X5380263Y441133D1*
X5371420Y462483D1*
X5366023Y484960D1*
X5364210Y508000D1*
X5365103Y523280D1*
X5295267Y593553D1*
X5286720Y605320D1*
X5280117Y618280D1*
X5275620Y632113D1*
X5273347Y646477D1*
X5273060Y770417D1*
Y855457D1*
X5259330Y847603D1*
X5236530Y838157D1*
X5212530Y832397D1*
X5187923Y830460D1*
X5163317Y832397D1*
X5139317Y838157D1*
X5116517Y847603D1*
X5095470Y860500D1*
X5076703Y876530D1*
X5060673Y895297D1*
X5047777Y916343D1*
X5038330Y939143D1*
X5032570Y963143D1*
X5030637Y987797D1*
X5030633Y1107530D1*
X3817200Y1369040D2*
X4455113D1*
Y726460D1*
X3812533D1*
Y1369040D1*
X3817200D1*
X3353967Y3598960D2*
X3352197Y3580390D1*
X3348093Y3562193D1*
X3341723Y3544660D1*
X3333187Y3528073D1*
X3322623Y3512700D1*
X3310200Y3498783D1*
X3296120Y3486547D1*
X3280603Y3476190D1*
X3263903Y3467877D1*
X3246287Y3461743D1*
X3228037Y3457883D1*
X3209447Y3456360D1*
X3190810Y3457203D1*
X3172430Y3460390D1*
X3154603Y3465877D1*
X3137610Y3473573D1*
X3121727Y3483357D1*
X3107207Y3495067D1*
X3094283Y3508520D1*
X3083163Y3523497D1*
X3074027Y3539760D1*
X3067020Y3557047D1*
X3062253Y3575083D1*
X3059803Y3593577D1*
X3059710Y3612230D1*
X3061977Y3630747D1*
X3066567Y3648827D1*
X3073403Y3666183D1*
X3082380Y3682537D1*
X3088207Y3691023D1*
X3014217Y3617033D1*
X3014210Y3117910D1*
X3025943Y3129583D1*
X3039563Y3139480D1*
X3054567Y3147123D1*
X3070577Y3152327D1*
X3087207Y3154960D1*
X3104040D1*
X3120670Y3152327D1*
X3136680Y3147123D1*
X3151683Y3139480D1*
X3161247Y3132783D1*
X3467773Y3132790D1*
X3463087Y3152740D1*
X3461333Y3175000D1*
X3463087Y3197260D1*
X3468297Y3218970D1*
X3476843Y3239597D1*
X3488507Y3258637D1*
X3503010Y3275613D1*
X3519987Y3290117D1*
X3539460Y3301983D1*
X3519987Y3313883D1*
X3503010Y3328387D1*
X3488507Y3345363D1*
X3476843Y3364403D1*
X3468297Y3385030D1*
X3463087Y3406740D1*
X3461333Y3429000D1*
X3463087Y3451260D1*
X3468297Y3472970D1*
X3476843Y3493597D1*
X3488507Y3512637D1*
X3503010Y3529613D1*
X3519987Y3544117D1*
X3539460Y3555983D1*
X3519987Y3567883D1*
X3503010Y3582387D1*
X3488507Y3599363D1*
X3476843Y3618403D1*
X3468297Y3639030D1*
X3463087Y3660740D1*
X3461333Y3683000D1*
X3463087Y3705260D1*
X3468297Y3726970D1*
X3476843Y3747597D1*
X3488507Y3766637D1*
X3503010Y3783613D1*
X3519987Y3798117D1*
X3539460Y3809983D1*
X3519987Y3821883D1*
X3503010Y3836387D1*
X3488507Y3853363D1*
X3476843Y3872403D1*
X3471637Y3883980D1*
X3404263Y3817267D1*
X3384273Y3802743D1*
X3362257Y3791527D1*
X3338760Y3783890D1*
X3314353Y3780027D1*
X3255333Y3779540D1*
X3176673D1*
X3120547Y3723053D1*
X3136333Y3732993D1*
X3153247Y3740857D1*
X3171023Y3746517D1*
X3189370Y3749887D1*
X3207997Y3750910D1*
X3226600Y3749573D1*
X3244890Y3745893D1*
X3262567Y3739930D1*
X3279347Y3731783D1*
X3294963Y3721580D1*
X3309163Y3709483D1*
X3321723Y3695690D1*
X3332437Y3680420D1*
X3341133Y3663920D1*
X3347677Y3646450D1*
X3351960Y3628293D1*
X3353913Y3609743D1*
X3353967Y3598960D1*
X6118713Y2601710D2*
X6116943Y2583140D1*
X6112840Y2564943D1*
X6106470Y2547410D1*
X6097933Y2530823D1*
X6087370Y2515450D1*
X6074947Y2501533D1*
X6060867Y2489297D1*
X6045350Y2478940D1*
X6028650Y2470627D1*
X6011033Y2464493D1*
X5992783Y2460633D1*
X5974193Y2459110D1*
X5955557Y2459953D1*
X5937177Y2463140D1*
X5919350Y2468627D1*
X5902357Y2476323D1*
X5886473Y2486107D1*
X5871953Y2497817D1*
X5859030Y2511270D1*
X5847910Y2526247D1*
X5838773Y2542510D1*
X5831767Y2559797D1*
X5827000Y2577833D1*
X5824550Y2596327D1*
X5824457Y2614980D1*
X5826723Y2633497D1*
X5831313Y2651577D1*
X5838150Y2668933D1*
X5847127Y2685287D1*
X5858097Y2700373D1*
X5870890Y2713950D1*
X5885293Y2725803D1*
X5901080Y2735743D1*
X5917993Y2743607D1*
X5935770Y2749267D1*
X5954117Y2752637D1*
X5972743Y2753660D1*
X5991347Y2752323D1*
X6009637Y2748643D1*
X6027313Y2742680D1*
X6044093Y2734533D1*
X6059710Y2724330D1*
X6073910Y2712233D1*
X6086470Y2698440D1*
X6097183Y2683170D1*
X6105880Y2666670D1*
X6112423Y2649200D1*
X6116707Y2631043D1*
X6118660Y2612493D1*
X6118713Y2601710D1*
X2832793Y4351663D2*
X3223900D1*
X3223917Y4697093D1*
X2809460Y4697083D1*
Y5051663D1*
X3223900D1*
X3223917Y5062407D1*
X2763197Y5062480D1*
X2765740Y5046323D1*
X2766063Y4944767D1*
Y3814283D1*
X2948877Y3997060D1*
X2809460Y3997083D1*
Y4351663D1*
X2832793D1*
X1003543Y4864290D2*
X1254790D1*
Y4589710D1*
X1097017D1*
X1108350Y4573427D1*
X1116807Y4556803D1*
X1122937Y4539183D1*
X1126617Y4520900D1*
X1127790Y4503000D1*
X1127473Y4433673D1*
X1124943Y4415193D1*
X1119933Y4397227D1*
X1112537Y4380103D1*
X1102883Y4364143D1*
X1091160Y4349637D1*
X1077573Y4336853D1*
X1062383Y4326033D1*
X1045867Y4317367D1*
X1028327Y4311023D1*
X1010087Y4307113D1*
X991487Y4305713D1*
X972870Y4306847D1*
X954577Y4310493D1*
X936947Y4316583D1*
X920307Y4325010D1*
X904963Y4335613D1*
X891197Y4348197D1*
X879263Y4362533D1*
X869383Y4378353D1*
X863340Y4390460D1*
X853560Y4371267D1*
X840897Y4353837D1*
X825663Y4338603D1*
X808233Y4325940D1*
X789040Y4316160D1*
X768550Y4309503D1*
X747270Y4306133D1*
X725730D1*
X704450Y4309503D1*
X683960Y4316160D1*
X664767Y4325940D1*
X647337Y4338603D1*
X632103Y4353837D1*
X619440Y4371267D1*
X609500Y4390897D1*
X599560Y4371267D1*
X586897Y4353837D1*
X571663Y4338603D1*
X554233Y4325940D1*
X535040Y4316160D1*
X514550Y4309503D1*
X493270Y4306133D1*
X471730D1*
X450450Y4309503D1*
X429960Y4316160D1*
X410767Y4325940D1*
X393337Y4338603D1*
X378103Y4353837D1*
X365440Y4371267D1*
X355660Y4390460D1*
X349003Y4410950D1*
X345633Y4432227D1*
X345210Y4503000D1*
X346900Y4524477D1*
X351930Y4545423D1*
X360173Y4565327D1*
X371430Y4583697D1*
X385420Y4600077D1*
X401803Y4614070D1*
X420170Y4625327D1*
X440077Y4633570D1*
X461023Y4638600D1*
X482500Y4640290D1*
X484477Y4640210D1*
X478930Y4654573D1*
X473900Y4675523D1*
X472210Y4697040D1*
X472633Y4767770D1*
X476003Y4789050D1*
X482660Y4809537D1*
X492440Y4828733D1*
X505103Y4846163D1*
X520337Y4861397D1*
X537767Y4874057D1*
X556960Y4883840D1*
X577450Y4890497D1*
X598730Y4893867D1*
X620270D1*
X641550Y4890497D1*
X662040Y4883840D1*
X681233Y4874057D1*
X698663Y4861397D1*
X713897Y4846163D1*
X726560Y4828733D1*
X736500Y4809103D1*
X746440Y4828733D1*
X759103Y4846163D1*
X774337Y4861397D1*
X791767Y4874057D1*
X810960Y4883840D1*
X831450Y4890497D1*
X852730Y4893867D1*
X874270D1*
X895550Y4890497D1*
X916040Y4883840D1*
X935233Y4874057D1*
X952663Y4861397D1*
X967897Y4846163D1*
X980207Y4829257D1*
X980210Y4864290D1*
X1003543D1*
X1535090Y3820167D2*
X1532993Y3802443D1*
X1529510Y3784940D1*
X1524667Y3767763D1*
X1518490Y3751020D1*
X1511017Y3734810D1*
X1502297Y3719240D1*
X1492380Y3704400D1*
X1481333Y3690387D1*
X1469217Y3677280D1*
X1456113Y3665167D1*
X1442097Y3654117D1*
X1427260Y3644203D1*
X1411687Y3635483D1*
X1395480Y3628010D1*
X1378737Y3621833D1*
X1361560Y3616990D1*
X1344057Y3613507D1*
X1326333Y3611410D1*
X1308500Y3610710D1*
X1290667Y3611410D1*
X1272943Y3613507D1*
X1255440Y3616990D1*
X1238263Y3621833D1*
X1221520Y3628010D1*
X1205313Y3635483D1*
X1189740Y3644203D1*
X1174903Y3654117D1*
X1160887Y3665167D1*
X1147783Y3677280D1*
X1135667Y3690387D1*
X1124620Y3704400D1*
X1114703Y3719240D1*
X1105983Y3734810D1*
X1098510Y3751020D1*
X1092333Y3767763D1*
X1087490Y3784940D1*
X1084007Y3802443D1*
X1081910Y3820167D1*
X1081210Y3838000D1*
X1081910Y3855833D1*
X1084007Y3873557D1*
X1087490Y3891060D1*
X1092333Y3908237D1*
X1098510Y3924980D1*
X1105983Y3941187D1*
X1114703Y3956757D1*
X1124620Y3971597D1*
X1135667Y3985613D1*
X1147783Y3998717D1*
X1160887Y4010833D1*
X1174903Y4021880D1*
X1189740Y4031797D1*
X1205313Y4040517D1*
X1221520Y4047987D1*
X1238263Y4054163D1*
X1255440Y4059010D1*
X1272943Y4062490D1*
X1290667Y4064590D1*
X1308500Y4065290D1*
X1326333Y4064590D1*
X1344057Y4062490D1*
X1361560Y4059010D1*
X1378737Y4054163D1*
X1395480Y4047987D1*
X1411687Y4040517D1*
X1427260Y4031797D1*
X1442097Y4021880D1*
X1456113Y4010833D1*
X1469217Y3998717D1*
X1481333Y3985613D1*
X1492380Y3971597D1*
X1502297Y3956757D1*
X1511017Y3941187D1*
X1518490Y3924980D1*
X1524667Y3908237D1*
X1529510Y3891060D1*
X1532993Y3873557D1*
X1535090Y3855833D1*
X1535790Y3838000D1*
X1535090Y3820167D1*
X1986600Y4254193D2*
X2025177Y4230540D1*
X2033203Y4223680D1*
X2040063Y4215653D1*
X2045580Y4206650D1*
X2049620Y4196893D1*
X2052083Y4186627D1*
X2052913Y4176100D1*
X2052750Y4074227D1*
X2051193Y4063783D1*
X2048020Y4053713D1*
X2043313Y4044260D1*
X2037183Y4035663D1*
X2029787Y4028130D1*
X2021300Y4021847D1*
X1986600Y4000150D1*
X2025177Y3976540D1*
X2033203Y3969680D1*
X2040063Y3961653D1*
X2045580Y3952650D1*
X2049620Y3942893D1*
X2052083Y3932627D1*
X2052913Y3922100D1*
X2052750Y3820227D1*
X2051193Y3809783D1*
X2048020Y3799713D1*
X2043313Y3790260D1*
X2037183Y3781663D1*
X2029787Y3774130D1*
X2021300Y3767847D1*
X1933973Y3713543D1*
X1924217Y3709503D1*
X1913950Y3707040D1*
X1903423Y3706210D1*
X1741937Y3706467D1*
X1731523Y3708213D1*
X1721510Y3711567D1*
X1712147Y3716447D1*
X1626070Y3770460D1*
X1618043Y3777320D1*
X1611183Y3785347D1*
X1605667Y3794350D1*
X1601627Y3804107D1*
X1599163Y3814373D1*
X1598333Y3824900D1*
X1598497Y3926773D1*
X1600053Y3937217D1*
X1603227Y3947287D1*
X1607933Y3956740D1*
X1614063Y3965337D1*
X1621460Y3972870D1*
X1629947Y3979153D1*
X1664027Y4000467D1*
X1626070Y4024460D1*
X1618043Y4031320D1*
X1611183Y4039347D1*
X1605667Y4048350D1*
X1601627Y4058107D1*
X1599160Y4068373D1*
X1598333Y4078900D1*
X1598497Y4180773D1*
X1600053Y4191217D1*
X1603227Y4201287D1*
X1607933Y4210740D1*
X1614063Y4219337D1*
X1621460Y4226870D1*
X1629947Y4233153D1*
X1664027Y4254467D1*
X1626070Y4278460D1*
X1618043Y4285320D1*
X1611183Y4293347D1*
X1605667Y4302350D1*
X1601627Y4312107D1*
X1599163Y4322373D1*
X1598333Y4332900D1*
X1598497Y4434773D1*
X1600053Y4445217D1*
X1603227Y4455287D1*
X1607933Y4464740D1*
X1614063Y4473337D1*
X1621460Y4480870D1*
X1629947Y4487153D1*
X1664027Y4508467D1*
X1626070Y4532460D1*
X1618043Y4539320D1*
X1611183Y4547347D1*
X1605667Y4556350D1*
X1601627Y4566107D1*
X1599160Y4576373D1*
X1598333Y4586900D1*
X1598497Y4688773D1*
X1600053Y4699217D1*
X1603223Y4709287D1*
X1607933Y4718740D1*
X1614063Y4727337D1*
X1621460Y4734870D1*
X1629947Y4741153D1*
X1664027Y4762467D1*
X1624983Y4787267D1*
X1614783Y4796820D1*
X1606773Y4808270D1*
X1601303Y4821130D1*
X1598607Y4834843D1*
X1598333Y4892233D1*
X1598603Y4944123D1*
X1601293Y4957837D1*
X1606757Y4970700D1*
X1614760Y4982153D1*
X1624957Y4991710D1*
X1673333Y5022283D1*
Y5041790D1*
X1705127Y5042163D1*
X1720377Y5050940D1*
X1733660Y5055283D1*
X1747573Y5056790D1*
X1908077Y5056397D1*
X1921740Y5053457D1*
X1934500Y5047757D1*
X1944387Y5041780D1*
X1977913Y5041790D1*
Y5021463D1*
X2026263Y4991733D1*
X2036463Y4982180D1*
X2044473Y4970730D1*
X2049943Y4957870D1*
X2052640Y4944157D1*
X2052913Y4886767D1*
X2052643Y4834877D1*
X2049953Y4821163D1*
X2044490Y4808300D1*
X2036487Y4796843D1*
X2026290Y4787290D1*
X1986630Y4762167D1*
X2025177Y4738540D1*
X2033203Y4731680D1*
X2040063Y4723653D1*
X2045580Y4714650D1*
X2049620Y4704893D1*
X2052087Y4694627D1*
X2052913Y4684100D1*
X2052750Y4582227D1*
X2051193Y4571783D1*
X2048020Y4561713D1*
X2043313Y4552260D1*
X2037183Y4543663D1*
X2029787Y4536130D1*
X2021300Y4529847D1*
X1986600Y4508147D1*
X2024910Y4484730D1*
X2032973Y4477913D1*
X2039870Y4469917D1*
X2045430Y4460940D1*
X2049520Y4451203D1*
X2052033Y4440950D1*
X2052913Y4430407D1*
X2052750Y4328227D1*
X2051193Y4317783D1*
X2048020Y4307713D1*
X2043313Y4298260D1*
X2037183Y4289663D1*
X2029787Y4282130D1*
X2021300Y4275847D1*
X1986600Y4254150D1*
X6059463Y3384723D2*
X6048373Y3377023D1*
X6059587Y3369283D1*
X6136340Y3369290D1*
Y3084710D1*
X5801760D1*
Y3369290D1*
X5878413D1*
X5889607Y3377000D1*
X5878537Y3384723D1*
X5801760Y3384710D1*
Y3669290D1*
X6136340D1*
Y3384710D1*
X6059503D1*
X1071837Y528443D2*
X1068220Y505617D1*
X1061077Y483633D1*
X1050587Y463040D1*
X1037000Y444343D1*
X1020657Y428000D1*
X1001960Y414413D1*
X981367Y403923D1*
X959383Y396780D1*
X936557Y393163D1*
X913443D1*
X890617Y396780D1*
X868633Y403923D1*
X848040Y414413D1*
X829343Y428000D1*
X813000Y444343D1*
X800043Y462103D1*
X787933Y445447D1*
X775077Y431930D1*
X760617Y420150D1*
X744780Y410290D1*
X727827Y402510D1*
X710023Y396933D1*
X691660Y393657D1*
X673030Y392723D1*
X654430Y394153D1*
X636160Y397923D1*
X618513Y403970D1*
X601773Y412203D1*
X586207Y422483D1*
X572067Y434647D1*
X559577Y448503D1*
X548937Y463827D1*
X540320Y480370D1*
X533863Y497870D1*
X529670Y516047D1*
X527810Y534610D1*
X528307Y553257D1*
X531160Y571693D1*
X536320Y589617D1*
X543703Y606750D1*
X553193Y622810D1*
X564637Y637540D1*
X577850Y650707D1*
X592623Y662100D1*
X608717Y671533D1*
X625873Y678857D1*
X643817Y683950D1*
X662260Y686737D1*
X680910Y687170D1*
X699463Y685243D1*
X717627Y680987D1*
X735107Y674467D1*
X751620Y665793D1*
X766903Y655100D1*
X780717Y642560D1*
X792830Y628377D1*
X799993Y617887D1*
X813000Y635657D1*
X829343Y652000D1*
X848040Y665587D1*
X868633Y676077D1*
X890617Y683220D1*
X913443Y686837D1*
X936557D1*
X959383Y683220D1*
X981367Y676077D1*
X1001960Y665587D1*
X1020657Y652000D1*
X1037000Y635657D1*
X1050587Y616960D1*
X1061077Y596367D1*
X1068220Y574383D1*
X1071837Y551557D1*
Y528443D1*
X799957Y782103D2*
X787000Y764343D1*
X770657Y748000D1*
X751960Y734413D1*
X731367Y723923D1*
X709383Y716780D1*
X686557Y713163D1*
X663443D1*
X640617Y716780D1*
X618633Y723923D1*
X598040Y734413D1*
X579343Y748000D1*
X563000Y764343D1*
X549413Y783040D1*
X538923Y803633D1*
X531780Y825617D1*
X528163Y848443D1*
Y871557D1*
X531780Y894383D1*
X538923Y916367D1*
X549413Y936960D1*
X563000Y955657D1*
X579343Y972000D1*
X598040Y985587D1*
X618633Y996077D1*
X640617Y1003220D1*
X663443Y1006837D1*
X686557D1*
X709383Y1003220D1*
X731367Y996077D1*
X751960Y985587D1*
X770657Y972000D1*
X787000Y955657D1*
X799957Y937897D1*
X813000Y955657D1*
X829343Y972000D1*
X848040Y985587D1*
X868633Y996077D1*
X890617Y1003220D1*
X913443Y1006837D1*
X936557D1*
X959383Y1003220D1*
X981367Y996077D1*
X1001960Y985587D1*
X1020657Y972000D1*
X1037000Y955657D1*
X1050587Y936960D1*
X1061077Y916367D1*
X1068220Y894383D1*
X1071837Y871557D1*
Y848443D1*
X1068220Y825617D1*
X1061077Y803633D1*
X1050587Y783040D1*
X1037000Y764343D1*
X1020657Y748000D1*
X1001960Y734413D1*
X981367Y723923D1*
X959383Y716780D1*
X936557Y713163D1*
X913443D1*
X890617Y716780D1*
X868633Y723923D1*
X848040Y734413D1*
X829343Y748000D1*
X813000Y764343D1*
X800043Y782103D1*
X1244717Y669997D2*
X1245880Y689143D1*
X1249243Y707493D1*
X1254757Y725317D1*
X1262343Y742360D1*
X1271893Y758387D1*
X1283273Y773170D1*
X1296323Y786500D1*
X1310860Y798193D1*
X1326680Y808083D1*
X1343557Y816030D1*
X1361257Y821923D1*
X1379533Y825677D1*
X1398123Y827243D1*
X1416767Y826597D1*
X1435203Y823747D1*
X1453173Y818733D1*
X1470423Y811627D1*
X1486710Y802530D1*
X1501807Y791570D1*
X1515497Y778897D1*
X1527593Y764693D1*
X1537920Y749157D1*
X1546337Y732507D1*
X1552723Y714980D1*
X1556987Y696817D1*
X1559073Y678280D1*
X1559290Y562667D1*
X1558667Y536020D1*
X1555910Y517567D1*
X1550987Y499573D1*
X1543970Y482287D1*
X1534953Y465957D1*
X1524067Y450803D1*
X1511463Y437050D1*
X1497320Y424883D1*
X1481837Y414477D1*
X1465230Y405980D1*
X1447733Y399507D1*
X1429593Y395150D1*
X1411067Y392970D1*
X1392410Y393003D1*
X1373890Y395243D1*
X1355763Y399660D1*
X1338290Y406190D1*
X1321710Y414747D1*
X1306260Y425203D1*
X1292160Y437417D1*
X1279603Y451213D1*
X1268767Y466400D1*
X1259807Y482763D1*
X1252843Y500070D1*
X1247983Y518083D1*
X1245287Y536543D1*
X1244710Y564000D1*
Y669647D1*
X1982373Y6158253D2*
X2056927Y6113940D1*
X2064953Y6107080D1*
X2071813Y6099053D1*
X2077330Y6090050D1*
X2081370Y6080293D1*
X2083837Y6070027D1*
X2084663Y6059500D1*
X2084500Y5954813D1*
X2082940Y5944370D1*
X2079767Y5934300D1*
X2075057Y5924850D1*
X2068923Y5916250D1*
X2061523Y5908720D1*
X2053037Y5902437D1*
X2014777Y5878527D1*
X2014833Y5749460D1*
X2056953Y5724190D1*
X2064980Y5717330D1*
X2071840Y5709303D1*
X2077357Y5700300D1*
X2081397Y5690543D1*
X2083860Y5680277D1*
X2084690Y5669750D1*
X2084527Y5565063D1*
X2082967Y5554620D1*
X2079793Y5544550D1*
X2075083Y5535100D1*
X2068937Y5526487D1*
X2067390Y5523210D1*
X2125450D1*
X2183737Y5580733D1*
X2203727Y5595257D1*
X2225743Y5606473D1*
X2249240Y5614110D1*
X2273647Y5617977D1*
X2332667Y5618460D1*
X2743097D1*
X2743083Y5717060D1*
X3223877D1*
X3223917Y5842433D1*
X2743083Y5842480D1*
Y6418247D1*
X2051170Y6417690D1*
X2061633Y6410187D1*
X2071147Y6399950D1*
X2078343Y6387970D1*
X2082910Y6374763D1*
X2084650Y6360897D1*
X2084393Y6253463D1*
X2081700Y6239750D1*
X2076233Y6226887D1*
X2068227Y6215433D1*
X2058027Y6205880D1*
X2009507Y6175230D1*
X1982347Y6158257D1*
X1711033Y619137D2*
X1696830Y628607D1*
X1682690Y640770D1*
X1670200Y654627D1*
X1659560Y669950D1*
X1650943Y686493D1*
X1644487Y703993D1*
X1640293Y722170D1*
X1638433Y740733D1*
X1638930Y759380D1*
X1641783Y777817D1*
X1646943Y795740D1*
X1654327Y812873D1*
X1663817Y828933D1*
X1675260Y843663D1*
X1688473Y856830D1*
X1703247Y868223D1*
X1719340Y877657D1*
X1736497Y884980D1*
X1754440Y890073D1*
X1772883Y892860D1*
X1799623Y893413D1*
X1876193Y893033D1*
X1894677Y890520D1*
X1912697Y885690D1*
X1929957Y878620D1*
X1946190Y869427D1*
X1961127Y858253D1*
X1974533Y845283D1*
X1986193Y830723D1*
X1995920Y814803D1*
X2003557Y797783D1*
X2008980Y779937D1*
X2012103Y761547D1*
X2012840Y741457D1*
X2011070Y722887D1*
X2006967Y704690D1*
X2000597Y687157D1*
X1992060Y670570D1*
X1981497Y655197D1*
X1969073Y641280D1*
X1954993Y629043D1*
X1940213Y619130D1*
X1952197Y611283D1*
X1969773Y596273D1*
X1984783Y578697D1*
X1996860Y558990D1*
X2005703Y537640D1*
X2011100Y515163D1*
X2012913Y492123D1*
X2011100Y469083D1*
X2005703Y446607D1*
X1996860Y425257D1*
X1984783Y405550D1*
X1969773Y387973D1*
X1952197Y372963D1*
X1940177Y365190D1*
X1952197Y357283D1*
X1969773Y342273D1*
X1984783Y324697D1*
X1996860Y304990D1*
X2005703Y283640D1*
X2011100Y261163D1*
X2012913Y238123D1*
X2011100Y215083D1*
X2005703Y192607D1*
X1996860Y171257D1*
X1984783Y151550D1*
X1969773Y133973D1*
X1952197Y118963D1*
X1932490Y106887D1*
X1911140Y98043D1*
X1888663Y92647D1*
X1865623Y90833D1*
X1774067Y91287D1*
X1751240Y94903D1*
X1729257Y102047D1*
X1708663Y112537D1*
X1689967Y126123D1*
X1673623Y142467D1*
X1660037Y161163D1*
X1649547Y181757D1*
X1642403Y203740D1*
X1638787Y226567D1*
Y249680D1*
X1642403Y272507D1*
X1649547Y294490D1*
X1660037Y315083D1*
X1673623Y333780D1*
X1689967Y350123D1*
X1708663Y363710D1*
X1711070Y365057D1*
X1699050Y372963D1*
X1681473Y387973D1*
X1666463Y405550D1*
X1654387Y425257D1*
X1645543Y446607D1*
X1640147Y469083D1*
X1638333Y492123D1*
X1640147Y515163D1*
X1645543Y537640D1*
X1654387Y558990D1*
X1666463Y578697D1*
X1681473Y596273D1*
X1699050Y611283D1*
X1711070Y619057D1*
X1078350Y2320837D2*
X1074860Y2298783D1*
X1067960Y2277547D1*
X1057823Y2257653D1*
X1050347Y2246753D1*
X1067410Y2234197D1*
X1083197Y2218410D1*
X1096323Y2200347D1*
X1106460Y2180453D1*
X1113360Y2159217D1*
X1116850Y2137163D1*
Y2114837D1*
X1113360Y2092783D1*
X1106460Y2071547D1*
X1096323Y2051653D1*
X1083197Y2033590D1*
X1067410Y2017803D1*
X1049347Y2004677D1*
X1029453Y1994540D1*
X1008217Y1987640D1*
X986163Y1984150D1*
X974433Y1983733D1*
X1202470Y1755727D1*
X1575810Y1755790D1*
X1600613Y1780557D1*
X1605393Y1793107D1*
X1610830Y1802160D1*
X1617613Y1810250D1*
X1625580Y1817180D1*
X1664027Y1841467D1*
X1624983Y1866267D1*
X1614783Y1875820D1*
X1606773Y1887270D1*
X1601303Y1900130D1*
X1598607Y1913843D1*
X1598333Y1971233D1*
X1598603Y2023123D1*
X1601293Y2036837D1*
X1606757Y2049700D1*
X1614760Y2061153D1*
X1624957Y2070710D1*
X1664090Y2095503D1*
X1626070Y2119460D1*
X1618043Y2126320D1*
X1611183Y2134347D1*
X1605667Y2143350D1*
X1601627Y2153107D1*
X1599160Y2163373D1*
X1598333Y2173900D1*
Y2202793D1*
X1582290Y2218333D1*
X1582013Y2029673D1*
X1579803Y2011147D1*
X1575417Y1993013D1*
X1568917Y1975530D1*
X1560387Y1958937D1*
X1549957Y1943470D1*
X1537767Y1929347D1*
X1523990Y1916767D1*
X1508823Y1905907D1*
X1492473Y1896917D1*
X1475177Y1889930D1*
X1457177Y1885037D1*
X1438720Y1882310D1*
X1420070Y1881787D1*
X1401493Y1883477D1*
X1383243Y1887353D1*
X1365583Y1893363D1*
X1348757Y1901423D1*
X1333007Y1911417D1*
X1318547Y1923207D1*
X1305587Y1936627D1*
X1294307Y1951483D1*
X1284863Y1967573D1*
X1277390Y1984670D1*
X1271997Y2002527D1*
X1268753Y2020900D1*
X1267717Y2038997D1*
X1268020Y2288853D1*
X1270290Y2307370D1*
X1274737Y2325487D1*
X1281297Y2342950D1*
X1289880Y2359517D1*
X1300363Y2374947D1*
X1312600Y2389030D1*
X1326417Y2401563D1*
X1334417Y2407577D1*
X1152220Y2407847D1*
X1139080Y2409930D1*
X1126427Y2414040D1*
X1114570Y2420080D1*
X1103807Y2427903D1*
X996763Y2534573D1*
X765453Y2534587D1*
X700300Y2469513D1*
X717953Y2463460D1*
X737847Y2453323D1*
X755910Y2440197D1*
X771697Y2424410D1*
X784823Y2406347D1*
X794960Y2386453D1*
X799950Y2371980D1*
X805040Y2386453D1*
X815177Y2406347D1*
X828303Y2424410D1*
X844090Y2440197D1*
X862153Y2453323D1*
X882047Y2463460D1*
X903283Y2470360D1*
X925337Y2473850D1*
X947663D1*
X969717Y2470360D1*
X990953Y2463460D1*
X1010847Y2453323D1*
X1028910Y2440197D1*
X1044697Y2424410D1*
X1057823Y2406347D1*
X1067960Y2386453D1*
X1074860Y2365217D1*
X1078350Y2343163D1*
Y2320837D1*
X725007Y5882723D2*
X707810Y5883597D1*
X689387Y5886543D1*
X671407Y5891527D1*
X654093Y5898480D1*
X637663Y5907317D1*
X622320Y5917930D1*
X608250Y5930187D1*
X595637Y5943930D1*
X584630Y5958997D1*
X575370Y5975190D1*
X567970Y5992320D1*
X562523Y6010163D1*
X559097Y6028503D1*
X557733Y6047110D1*
X558453Y6065753D1*
X561243Y6084200D1*
X566070Y6102223D1*
X572873Y6119593D1*
X581570Y6136100D1*
X592047Y6151537D1*
X604180Y6165710D1*
X617817Y6178443D1*
X632787Y6189580D1*
X648903Y6198980D1*
X665963Y6206527D1*
X683760Y6212127D1*
X702070Y6215710D1*
X720663Y6217233D1*
X884660Y6217010D1*
X903197Y6214897D1*
X921383Y6210730D1*
X938990Y6204567D1*
X955803Y6196480D1*
X971613Y6186573D1*
X986220Y6174963D1*
X999443Y6161803D1*
X1011117Y6147250D1*
X1021100Y6131490D1*
X1029267Y6114713D1*
X1035513Y6097133D1*
X1039763Y6078967D1*
X1041963Y6060440D1*
X1042030Y6040670D1*
X1039953Y6022130D1*
X1035823Y6003937D1*
X1029693Y5986313D1*
X1021640Y5969487D1*
X1011763Y5953657D1*
X1000183Y5939027D1*
X987050Y5925780D1*
X972520Y5914073D1*
X956777Y5904060D1*
X940020Y5895863D1*
X922450Y5889580D1*
X904293Y5885293D1*
X885770Y5883057D1*
X842333Y5882710D1*
X725000Y5882727D1*
X725050Y5382713D2*
X698830Y5384770D1*
X673303Y5390897D1*
X649053Y5400943D1*
X626670Y5414660D1*
X606707Y5431707D1*
X589660Y5451670D1*
X575943Y5474053D1*
X565897Y5498303D1*
X559770Y5523830D1*
X557710Y5550000D1*
X559770Y5576170D1*
X565897Y5601697D1*
X575943Y5625947D1*
X589660Y5648330D1*
X606707Y5668293D1*
X626670Y5685340D1*
X649053Y5699057D1*
X673303Y5709103D1*
X698830Y5715230D1*
X725050Y5717287D1*
X888127Y5716773D1*
X914053Y5712667D1*
X939020Y5704557D1*
X962410Y5692637D1*
X983647Y5677207D1*
X1002207Y5658647D1*
X1017637Y5637410D1*
X1029557Y5614020D1*
X1037667Y5589053D1*
X1041773Y5563127D1*
Y5536873D1*
X1037667Y5510947D1*
X1029557Y5485980D1*
X1017637Y5462590D1*
X1002207Y5441353D1*
X983647Y5422793D1*
X962410Y5407363D1*
X939020Y5395443D1*
X914053Y5387333D1*
X888127Y5383227D1*
X828333Y5382710D1*
X725000Y5382800D1*
X7552290Y4586277D2*
Y4566710D1*
X7521027D1*
X7508350Y4559043D1*
X7498593Y4555003D1*
X7488327Y4552537D1*
X7477800Y4551710D1*
X7316313Y4551967D1*
X7305900Y4553713D1*
X7295887Y4557067D1*
X7286523Y4561947D1*
X7278873Y4566730D1*
X7247710Y4566710D1*
Y4586307D1*
X7200447Y4615960D1*
X7192420Y4622820D1*
X7185560Y4630847D1*
X7180043Y4639850D1*
X7176003Y4649607D1*
X7173537Y4659873D1*
X7172710Y4670400D1*
Y4704943D1*
X6927423Y4459677D1*
X6924717Y4445240D1*
X6917573Y4423257D1*
X6907083Y4402663D1*
X6893497Y4383967D1*
X6877153Y4367623D1*
X6858457Y4354037D1*
X6856050Y4352690D1*
X6868070Y4344783D1*
X6885647Y4329773D1*
X6900657Y4312197D1*
X6902690Y4309157D1*
X6903373Y4329420D1*
X6906757Y4342980D1*
X6912867Y4355547D1*
X6921440Y4366583D1*
X6975920Y4420840D1*
X6987370Y4428850D1*
X7000230Y4434320D1*
X7013943Y4437017D1*
X7071333Y4437290D1*
X7124780Y4437120D1*
X7138540Y4434687D1*
X7151503Y4429460D1*
X7163107Y4421670D1*
X7203880Y4381283D1*
X7223703Y4360547D1*
X7230920Y4348580D1*
X7235510Y4335380D1*
X7237273Y4321497D1*
X7236897Y4037543D1*
X7233957Y4023883D1*
X7228257Y4011123D1*
X7172230Y3919360D1*
X7162680Y3909160D1*
X7151227Y3901150D1*
X7138370Y3895680D1*
X7124657Y3892983D1*
X7067267Y3892710D1*
X7015377Y3892980D1*
X7001663Y3895670D1*
X6988800Y3901133D1*
X6977343Y3909137D1*
X6967790Y3919333D1*
X6937130Y3967850D1*
X6928790Y3981187D1*
X6928787Y3824333D1*
X6634207D1*
Y4118913D1*
X6679980D1*
X6669497Y4129967D1*
X6655910Y4148663D1*
X6645420Y4169257D1*
X6638277Y4191240D1*
X6634660Y4214067D1*
Y4237180D1*
X6638277Y4260007D1*
X6645420Y4281990D1*
X6655910Y4302583D1*
X6669497Y4321280D1*
X6685840Y4337623D1*
X6704537Y4351210D1*
X6706943Y4352557D1*
X6694923Y4360463D1*
X6677347Y4375473D1*
X6662337Y4393050D1*
X6650260Y4412757D1*
X6641417Y4434107D1*
X6636020Y4456583D1*
X6634207Y4479623D1*
X6636020Y4502663D1*
X6641417Y4525140D1*
X6650260Y4546490D1*
X6662337Y4566197D1*
X6677347Y4583773D1*
X6694923Y4598783D1*
X6706943Y4606557D1*
X6694923Y4614463D1*
X6677347Y4629473D1*
X6662337Y4647050D1*
X6650260Y4666757D1*
X6641417Y4688107D1*
X6636020Y4710583D1*
X6634207Y4733623D1*
X6636020Y4756663D1*
X6641417Y4779140D1*
X6650260Y4800490D1*
X6662337Y4820197D1*
X6677347Y4837773D1*
X6694923Y4852783D1*
X6706943Y4860557D1*
X6694923Y4868463D1*
X6677347Y4883473D1*
X6662337Y4901050D1*
X6650260Y4920757D1*
X6641417Y4942107D1*
X6636020Y4964583D1*
X6634207Y4987623D1*
X6636020Y5010663D1*
X6641417Y5033140D1*
X6650260Y5054490D1*
X6662337Y5074197D1*
X6677347Y5091773D1*
X6694923Y5106783D1*
X6706943Y5114557D1*
X6694923Y5122463D1*
X6677347Y5137473D1*
X6662337Y5155050D1*
X6650260Y5174757D1*
X6641417Y5196107D1*
X6636020Y5218583D1*
X6634207Y5241623D1*
X6636020Y5264663D1*
X6641417Y5287140D1*
X6650260Y5308490D1*
X6662337Y5328197D1*
X6677347Y5345773D1*
X6694923Y5360783D1*
X6706943Y5368557D1*
X6692703Y5378107D1*
X6678563Y5390270D1*
X6666073Y5404127D1*
X6655433Y5419450D1*
X6646817Y5435993D1*
X6640360Y5453493D1*
X6636167Y5471670D1*
X6634307Y5490233D1*
X6634803Y5508880D1*
X6637657Y5527317D1*
X6642817Y5545240D1*
X6650200Y5562373D1*
X6659690Y5578433D1*
X6671133Y5593163D1*
X6684347Y5606330D1*
X6697370Y5616503D1*
X6679233Y5629890D1*
X6661763Y5647360D1*
X6647240Y5667350D1*
X6636023Y5689367D1*
X6628387Y5712863D1*
X6624523Y5737270D1*
X6624037Y5796290D1*
Y5837397D1*
X6478933Y5982507D1*
X6478957Y3395883D1*
X7078463Y3395960D1*
X7913910Y4231340D1*
X7932697Y4247387D1*
X7953763Y4260297D1*
X7976593Y4269753D1*
X8000617Y4275520D1*
X8025297Y4277457D1*
X8302790Y4277460D1*
X8302917Y4325280D1*
X8304570Y4335710D1*
X8307833Y4345750D1*
X8312627Y4355160D1*
X8318833Y4363700D1*
X8376300Y4421167D1*
X8384840Y4427373D1*
X8394250Y4432167D1*
X8404290Y4435430D1*
X8414720Y4437083D1*
X8518257Y4437290D1*
X8518250Y6418267D1*
X6483817Y6418250D1*
X6499887Y6406233D1*
X6540713Y6366090D1*
X6901230Y6004890D1*
X6915753Y5984900D1*
X6926970Y5962883D1*
X6934607Y5939387D1*
X6938470Y5914980D1*
X6938957Y5855960D1*
X6938470Y5737270D1*
X6934607Y5712863D1*
X6926970Y5689367D1*
X6915753Y5667350D1*
X6901230Y5647360D1*
X6883760Y5629890D1*
X6865927Y5616313D1*
X6880507Y5604673D1*
X6893493Y5591283D1*
X6904687Y5576360D1*
X6913903Y5560143D1*
X6920997Y5542890D1*
X6925853Y5524877D1*
X6928393Y5506397D1*
X6928490Y5486297D1*
X6926133Y5467793D1*
X6921457Y5449733D1*
X6914533Y5432410D1*
X6905477Y5416103D1*
X6896530Y5403663D1*
X7047477Y5403667D1*
X7172703Y5528827D1*
X7173447Y5539527D1*
X7175817Y5549813D1*
X7179770Y5559607D1*
X7185207Y5568660D1*
X7191990Y5576750D1*
X7199957Y5583680D1*
X7287040Y5638373D1*
X7296450Y5643167D1*
X7306490Y5646430D1*
X7316920Y5648083D1*
X7475150Y5648290D1*
X7485403Y5647513D1*
X7495683Y5645097D1*
X7505457Y5641103D1*
X7595160Y5586973D1*
X7603700Y5580767D1*
X7611167Y5573300D1*
X7617373Y5564760D1*
X7622167Y5555350D1*
X7625430Y5545310D1*
X7627083Y5534880D1*
X7627127Y5427727D1*
X7625570Y5417283D1*
X7622400Y5407213D1*
X7617690Y5397760D1*
X7611560Y5389163D1*
X7604163Y5381630D1*
X7595677Y5375347D1*
X7560977Y5353647D1*
X7599553Y5330040D1*
X7607580Y5323180D1*
X7614440Y5315153D1*
X7619957Y5306150D1*
X7623997Y5296393D1*
X7626463Y5286127D1*
X7627290Y5275600D1*
X7627127Y5173727D1*
X7625570Y5163283D1*
X7622397Y5153213D1*
X7617690Y5143760D1*
X7611560Y5135163D1*
X7604163Y5127630D1*
X7595677Y5121347D1*
X7560977Y5099647D1*
X7599553Y5076040D1*
X7607580Y5069180D1*
X7614440Y5061153D1*
X7619957Y5052150D1*
X7623997Y5042393D1*
X7626463Y5032127D1*
X7627290Y5021600D1*
X7627083Y4919120D1*
X7625430Y4908690D1*
X7622167Y4898650D1*
X7617373Y4889240D1*
X7611167Y4880700D1*
X7603700Y4873233D1*
X7575893Y4854977D1*
X7560977Y4845650D1*
X7599553Y4822040D1*
X7607580Y4815180D1*
X7614440Y4807153D1*
X7619957Y4798150D1*
X7623997Y4788393D1*
X7626463Y4778127D1*
X7627290Y4767600D1*
X7627127Y4665727D1*
X7625570Y4655283D1*
X7622397Y4645213D1*
X7617690Y4635760D1*
X7611560Y4627163D1*
X7604163Y4619630D1*
X7595677Y4613347D1*
X7552320Y4586237D1*
X7817710Y1411313D2*
X7821167Y1432550D1*
X7828553Y1455280D1*
X7839400Y1476570D1*
X7853447Y1495903D1*
X7870347Y1512803D1*
X7885290Y1523917D1*
X7870347Y1535197D1*
X7853447Y1552097D1*
X7839400Y1571430D1*
X7828553Y1592720D1*
X7827017Y1596883D1*
X7814190Y1586110D1*
X7798500Y1576493D1*
X7781493Y1569450D1*
X7763597Y1565153D1*
X7745213Y1563710D1*
X7577087D1*
X7560977Y1553650D1*
X7599553Y1530040D1*
X7607580Y1523180D1*
X7614440Y1515153D1*
X7619957Y1506150D1*
X7623997Y1496393D1*
X7626463Y1486127D1*
X7627290Y1475600D1*
X7627127Y1373727D1*
X7625570Y1363283D1*
X7622397Y1353213D1*
X7617690Y1343760D1*
X7611560Y1335163D1*
X7604163Y1327630D1*
X7595677Y1321347D1*
X7560977Y1299647D1*
X7576567Y1290243D1*
X7696680Y1290290D1*
X7817573Y1411197D1*
X1986600Y1841193D2*
X2020800Y1820463D1*
X2082290Y1819890D1*
X2162953D1*
X2654963Y2311880D1*
X2666750Y2330830D1*
X2682780Y2349597D1*
X2701207Y2365357D1*
X2687547Y2376583D1*
X2674587Y2390003D1*
X2663307Y2404860D1*
X2653863Y2420950D1*
X2646390Y2438047D1*
X2640997Y2455903D1*
X2637753Y2474277D1*
X2636710Y2492903D1*
X2637880Y2511520D1*
X2641243Y2529870D1*
X2646757Y2547693D1*
X2654343Y2564737D1*
X2663893Y2580763D1*
X2669963Y2589080D1*
X2636710Y2589087D1*
X2636543Y2874170D1*
X2626800Y2857937D1*
X2615867Y2845133D1*
X2607017Y2837317D1*
X2599957Y2829293D1*
X2052067Y2281407D1*
X2052913Y2271100D1*
X2052750Y2169227D1*
X2051193Y2158783D1*
X2048020Y2148713D1*
X2043313Y2139260D1*
X2037183Y2130663D1*
X2029787Y2123130D1*
X2021300Y2116847D1*
X1986600Y2095150D1*
X2026263Y2070733D1*
X2036463Y2061180D1*
X2044473Y2049730D1*
X2049943Y2036870D1*
X2052640Y2023157D1*
X2052913Y1965767D1*
X2052643Y1913877D1*
X2049953Y1900163D1*
X2044490Y1887300D1*
X2036487Y1875843D1*
X2026290Y1866290D1*
X1986630Y1841167D1*
X2001517Y1596473D2*
X1986600Y1587150D1*
X2025177Y1563540D1*
X2033203Y1556680D1*
X2040073Y1548637D1*
X2052670Y1553453D1*
X2108290Y1609073D1*
X2021300Y1608847D1*
X2001517Y1596473D1*
X2040050Y2564670D2*
X2045580Y2555650D1*
X2049620Y2545893D1*
X2052087Y2535627D1*
X2052913Y2522093D1*
X2434140Y2903300D1*
X2432710Y2921000D1*
X2434030Y2937783D1*
X2437960Y2954153D1*
X2441413Y2963223D1*
X2432190Y2963210D1*
X2037317Y2568283D1*
X5269473Y3417837D2*
X5265983Y3395783D1*
X5264757Y3389353D1*
X5278193Y3383787D1*
X5290597Y3376187D1*
X5301657Y3366743D1*
X5577060Y3091333D1*
X5581033Y3097873D1*
Y3841773D1*
X5567863Y3835547D1*
X5545880Y3828403D1*
X5523053Y3824787D1*
X5499940D1*
X5477113Y3828403D1*
X5455130Y3835547D1*
X5446147Y3839687D1*
X5410770Y3804317D1*
X5410527Y3612227D1*
X5408253Y3597863D1*
X5403757Y3584030D1*
X5397153Y3571070D1*
X5388607Y3559303D1*
X5301170Y3471463D1*
X5269523Y3439817D1*
X5269473Y3417837D1*
Y3925837D2*
X5285580Y3941293D1*
X5377847Y4033560D1*
X5381033Y4039870D1*
X5265483Y4155477D1*
X5259083Y4136547D1*
X5248947Y4116653D1*
X5235820Y4098590D1*
X5220033Y4082803D1*
X5201970Y4069677D1*
X5192220Y4063780D1*
X5211260Y4052117D1*
X5228237Y4037613D1*
X5242740Y4020637D1*
X5254403Y4001597D1*
X5262950Y3980970D1*
X5268160Y3959260D1*
X5269913Y3937000D1*
X5269473Y3925837D1*
X4985757Y4180230D2*
X4985773Y4202163D1*
X4989263Y4224217D1*
X4996163Y4245453D1*
X5006300Y4265347D1*
X5019427Y4283410D1*
X5035213Y4299197D1*
X5053277Y4312323D1*
X5063027Y4318220D1*
X5043987Y4329883D1*
X5027010Y4344387D1*
X5012507Y4361363D1*
X5000843Y4380403D1*
X4992297Y4401030D1*
X4987087Y4422740D1*
X4985333Y4445000D1*
X4987087Y4467260D1*
X4992297Y4488970D1*
X5000843Y4509597D1*
X5012507Y4528637D1*
X5027010Y4545613D1*
X5043987Y4560117D1*
X5063460Y4571983D1*
X5043987Y4583883D1*
X5040183Y4586883D1*
X4275813Y3822530D1*
X4275790Y3205113D1*
X4310557Y3239473D1*
X4321320Y3247297D1*
X4333177Y3253337D1*
X4345830Y3257447D1*
X4358970Y3259530D1*
X4505623Y3259790D1*
X4962537D1*
X4905550Y3317203D1*
X4897003Y3328970D1*
X4890400Y3341930D1*
X4885903Y3355763D1*
X4883630Y3370127D1*
X4883343Y3494067D1*
X4883630Y4046683D1*
X4885903Y4061047D1*
X4890400Y4074880D1*
X4897003Y4087840D1*
X4905550Y4099607D1*
X4985703Y4180163D1*
X5191787Y5333983D2*
X5211260Y5322117D1*
X5228237Y5307613D1*
X5235553Y5299700D1*
X5293647Y5299403D1*
X5308010Y5297130D1*
X5321843Y5292633D1*
X5334803Y5286030D1*
X5346570Y5277483D1*
X5351933Y5272520D1*
X5366020Y5264663D1*
X5371417Y5287140D1*
X5380260Y5308490D1*
X5392337Y5328197D1*
X5407347Y5345773D1*
X5424923Y5360783D1*
X5436943Y5368557D1*
X5424923Y5376463D1*
X5407347Y5391473D1*
X5392337Y5409050D1*
X5380260Y5428757D1*
X5371417Y5450107D1*
X5366020Y5472583D1*
X5364207Y5495623D1*
X5366083Y5518973D1*
X5256387Y5628637D1*
X5240810Y5628660D1*
X5228237Y5614387D1*
X5211260Y5599883D1*
X5191787Y5588017D1*
X5211260Y5576117D1*
X5228237Y5561613D1*
X5242740Y5544637D1*
X5254403Y5525597D1*
X5262950Y5504970D1*
X5268160Y5483260D1*
X5269913Y5461000D1*
X5268160Y5438740D1*
X5262950Y5417030D1*
X5254403Y5396403D1*
X5242740Y5377363D1*
X5228237Y5360387D1*
X5211260Y5345883D1*
X5191787Y5334017D1*
X3730607Y5904837D2*
X3718740Y5885363D1*
X3704237Y5868387D1*
X3687260Y5853883D1*
X3667787Y5842017D1*
X3687260Y5830117D1*
X3704237Y5815613D1*
X3718740Y5798637D1*
X3729617Y5781007D1*
X3791620Y5843017D1*
X3773987Y5853883D1*
X3757010Y5868387D1*
X3742507Y5885363D1*
X3730640Y5904837D1*
X3467757Y2878793D2*
X3463890Y2894143D1*
X3461577Y2912653D1*
X3461707Y2931307D1*
X3464273Y2949783D1*
X3467740Y2963210D1*
X3161357D1*
X3151683Y2956520D1*
X3136680Y2948877D1*
X3120670Y2943673D1*
X3104040Y2941040D1*
X3087207D1*
X3070577Y2943673D1*
X3054567Y2948877D1*
X3039563Y2956520D1*
X3025943Y2966417D1*
X3014197Y2978150D1*
X3013723Y2924520D1*
X3009860Y2900113D1*
X3002223Y2876617D1*
X2991007Y2854600D1*
X2976483Y2834610D1*
X2951400Y2808840D1*
X2951290Y2589087D1*
X2918023D1*
X2927513Y2575530D1*
X2936420Y2559140D1*
X2943320Y2541807D1*
X2948123Y2523780D1*
X2950757Y2505310D1*
X2951220Y2487710D1*
X2949563Y2469130D1*
X2945717Y2450873D1*
X2939733Y2433203D1*
X2931703Y2416363D1*
X2921737Y2400597D1*
X2909970Y2386117D1*
X2896573Y2373133D1*
X2886783Y2365387D1*
X2905220Y2349597D1*
X2921250Y2330830D1*
X2934147Y2309783D1*
X2943593Y2286983D1*
X2949353Y2262983D1*
X2951290Y2238377D1*
X2949353Y2213770D1*
X2943593Y2189770D1*
X2934147Y2166970D1*
X2921250Y2145923D1*
X2905220Y2127157D1*
X2886453Y2111127D1*
X2865407Y2098230D1*
X2842607Y2088783D1*
X2818607Y2083023D1*
X2794000Y2081087D1*
X2769393Y2083023D1*
X2745393Y2088783D1*
X2734123Y2092943D1*
X2535690Y1894520D1*
X3362120Y1894540D1*
X3645817Y2178227D1*
X3645833Y2531130D1*
X3625883Y2526463D1*
X3603623Y2524710D1*
X3581363Y2526463D1*
X3559653Y2531673D1*
X3539027Y2540220D1*
X3519987Y2551883D1*
X3503010Y2566387D1*
X3488507Y2583363D1*
X3476843Y2602403D1*
X3468297Y2623030D1*
X3463087Y2644740D1*
X3461333Y2667000D1*
X3463087Y2689260D1*
X3467813Y2709247D1*
X3367747Y2709210D1*
X3358060Y2702520D1*
X3343057Y2694877D1*
X3327047Y2689673D1*
X3310417Y2687040D1*
X3293583D1*
X3276953Y2689673D1*
X3260943Y2694877D1*
X3245940Y2702520D1*
X3232320Y2712417D1*
X3220417Y2724320D1*
X3210520Y2737940D1*
X3202877Y2752943D1*
X3197673Y2768953D1*
X3195040Y2785583D1*
Y2802417D1*
X3197673Y2819047D1*
X3202877Y2835057D1*
X3210520Y2850060D1*
X3220417Y2863680D1*
X3232320Y2875583D1*
X3245940Y2885480D1*
X3260943Y2893123D1*
X3276953Y2898327D1*
X3293583Y2900960D1*
X3310417D1*
X3327047Y2898327D1*
X3343057Y2893123D1*
X3358060Y2885480D1*
X3367623Y2878783D1*
X3467793Y2878790D1*
X3728390Y2989377D2*
X3733360Y2979393D1*
X3740563Y2992733D1*
X3753227Y3010163D1*
X3768460Y3025397D1*
X3785890Y3038060D1*
X3805083Y3047840D1*
X3825573Y3054497D1*
X3846853Y3057867D1*
X3868393D1*
X3889673Y3054497D1*
X3910163Y3047840D1*
X3929357Y3038060D1*
X3946787Y3025397D1*
X3962020Y3010163D1*
X3972087Y2996620D1*
X4106230Y3130767D1*
X4106210Y3580250D1*
X4091817Y3577030D1*
X4075033Y3575710D1*
X4058250Y3577030D1*
X4041880Y3580960D1*
X4026323Y3587403D1*
X4011970Y3596200D1*
X3999167Y3607133D1*
X3988233Y3619937D1*
X3979437Y3634290D1*
X3972993Y3649847D1*
X3969063Y3666217D1*
X3967743Y3683000D1*
X3969063Y3699783D1*
X3972993Y3716153D1*
X3979437Y3731710D1*
X3982347Y3736907D1*
X3982630Y3875933D1*
X3984903Y3890297D1*
X3989400Y3904130D1*
X3996003Y3917090D1*
X4004550Y3928857D1*
X4091987Y4016697D1*
X4171840Y4096550D1*
X4159687Y4104200D1*
X4146883Y4115133D1*
X4143467Y4118833D1*
X3910677Y3886017D1*
X3910403Y3200097D1*
X3908320Y3186957D1*
X3904210Y3174303D1*
X3898170Y3162447D1*
X3890347Y3151683D1*
X3786833Y3047800D1*
X3728400Y2989367D1*
X4907553Y5830843D2*
X4884787Y5827150D1*
X4862460D1*
X4840407Y5830640D1*
X4819170Y5837540D1*
X4799277Y5847677D1*
X4781213Y5860803D1*
X4765427Y5876590D1*
X4752300Y5894653D1*
X4746403Y5904403D1*
X4734740Y5885363D1*
X4720237Y5868387D1*
X4703260Y5853883D1*
X4684220Y5842220D1*
X4663593Y5833673D1*
X4641883Y5828463D1*
X4619623Y5826710D1*
X4608330Y5827163D1*
X4552560Y5771823D1*
X4540843Y5763310D1*
X4527940Y5756733D1*
X4514167Y5752260D1*
X4499863Y5749993D1*
X4375957Y5749710D1*
X3959330D1*
X3902403Y5692763D1*
X3919953Y5685327D1*
X3938320Y5674070D1*
X3954703Y5660080D1*
X3968693Y5643697D1*
X3979950Y5625330D1*
X3984783Y5615540D1*
X3994563Y5634733D1*
X4007227Y5652163D1*
X4022460Y5667397D1*
X4039890Y5680060D1*
X4059083Y5689840D1*
X4079573Y5696497D1*
X4100853Y5699867D1*
X4122393D1*
X4143673Y5696497D1*
X4164163Y5689840D1*
X4183357Y5680060D1*
X4200787Y5667397D1*
X4216020Y5652163D1*
X4228683Y5634733D1*
X4238623Y5615103D1*
X4248563Y5634733D1*
X4261227Y5652163D1*
X4276460Y5667397D1*
X4293890Y5680060D1*
X4313083Y5689840D1*
X4333573Y5696497D1*
X4354853Y5699867D1*
X4376393D1*
X4397673Y5696497D1*
X4418163Y5689840D1*
X4437357Y5680060D1*
X4454787Y5667397D1*
X4470020Y5652163D1*
X4482683Y5634733D1*
X4492623Y5615103D1*
X4502563Y5634733D1*
X4515227Y5652163D1*
X4530460Y5667397D1*
X4547890Y5680060D1*
X4567083Y5689840D1*
X4587573Y5696497D1*
X4608853Y5699867D1*
X4630393D1*
X4651673Y5696497D1*
X4672163Y5689840D1*
X4691357Y5680060D1*
X4708787Y5667397D1*
X4724020Y5652163D1*
X4736683Y5634733D1*
X4746623Y5615103D1*
X4756563Y5634733D1*
X4769227Y5652163D1*
X4784460Y5667397D1*
X4801890Y5680060D1*
X4821083Y5689840D1*
X4841573Y5696497D1*
X4862853Y5699867D1*
X4884393D1*
X4905673Y5696497D1*
X4907577Y5695960D1*
X4907543Y5830883D1*
X4746623Y5198103D2*
X4756563Y5217733D1*
X4769227Y5235163D1*
X4784460Y5250397D1*
X4801890Y5263060D1*
X4821083Y5272840D1*
X4841573Y5279497D1*
X4862853Y5282867D1*
X4884393D1*
X4905673Y5279497D1*
X4907577Y5278960D1*
X4907543Y5389917D1*
X4884393Y5386133D1*
X4862853D1*
X4841573Y5389503D1*
X4821083Y5396160D1*
X4801890Y5405940D1*
X4784460Y5418603D1*
X4769227Y5433837D1*
X4756563Y5451267D1*
X4746623Y5470897D1*
X4736683Y5451267D1*
X4724020Y5433837D1*
X4708787Y5418603D1*
X4691357Y5405940D1*
X4672163Y5396160D1*
X4651673Y5389503D1*
X4630393Y5386133D1*
X4608853D1*
X4587573Y5389503D1*
X4567083Y5396160D1*
X4547890Y5405940D1*
X4530460Y5418603D1*
X4515227Y5433837D1*
X4502563Y5451267D1*
X4492623Y5470897D1*
X4482683Y5451267D1*
X4470020Y5433837D1*
X4454787Y5418603D1*
X4437357Y5405940D1*
X4418163Y5396160D1*
X4397673Y5389503D1*
X4376393Y5386133D1*
X4354853D1*
X4333573Y5389503D1*
X4313083Y5396160D1*
X4293890Y5405940D1*
X4276460Y5418603D1*
X4261227Y5433837D1*
X4248563Y5451267D1*
X4238623Y5470897D1*
X4228683Y5451267D1*
X4216020Y5433837D1*
X4200787Y5418603D1*
X4183357Y5405940D1*
X4164163Y5396160D1*
X4143673Y5389503D1*
X4122393Y5386133D1*
X4100853D1*
X4079573Y5389503D1*
X4059083Y5396160D1*
X4039890Y5405940D1*
X4022460Y5418603D1*
X4007227Y5433837D1*
X3994563Y5451267D1*
X3984623Y5470897D1*
X3974683Y5451267D1*
X3962020Y5433837D1*
X3946787Y5418603D1*
X3929357Y5405940D1*
X3910163Y5396160D1*
X3889673Y5389503D1*
X3868393Y5386133D1*
X3846853D1*
X3825573Y5389503D1*
X3822940Y5390247D1*
X3822913Y5278803D1*
X3836147Y5281600D1*
X3857623Y5283290D1*
X3879100Y5281600D1*
X3900047Y5276570D1*
X3919953Y5268327D1*
X3938320Y5257070D1*
X3954703Y5243080D1*
X3968693Y5226697D1*
X3979950Y5208330D1*
X3984783Y5198540D1*
X3994563Y5217733D1*
X4007227Y5235163D1*
X4022460Y5250397D1*
X4039890Y5263060D1*
X4059083Y5272840D1*
X4079573Y5279497D1*
X4100853Y5282867D1*
X4122393D1*
X4143673Y5279497D1*
X4164163Y5272840D1*
X4183357Y5263060D1*
X4200787Y5250397D1*
X4216020Y5235163D1*
X4228683Y5217733D1*
X4238623Y5198103D1*
X4248563Y5217733D1*
X4261227Y5235163D1*
X4276460Y5250397D1*
X4293890Y5263060D1*
X4313083Y5272840D1*
X4333573Y5279497D1*
X4354853Y5282867D1*
X4376393D1*
X4397673Y5279497D1*
X4418163Y5272840D1*
X4437357Y5263060D1*
X4454787Y5250397D1*
X4470020Y5235163D1*
X4482683Y5217733D1*
X4492623Y5198103D1*
X4502563Y5217733D1*
X4515227Y5235163D1*
X4530460Y5250397D1*
X4547890Y5263060D1*
X4567083Y5272840D1*
X4587573Y5279497D1*
X4608853Y5282867D1*
X4630393D1*
X4651673Y5279497D1*
X4672163Y5272840D1*
X4691357Y5263060D1*
X4708787Y5250397D1*
X4724020Y5235163D1*
X4736683Y5217733D1*
X4746623Y5198103D1*
X4785553Y5000743D2*
X4776543Y5008920D1*
X4762553Y5025303D1*
X4751297Y5043670D1*
X4746463Y5053460D1*
X4736683Y5034267D1*
X4724020Y5016837D1*
X4708787Y5001603D1*
X4691357Y4988940D1*
X4672163Y4979160D1*
X4651673Y4972503D1*
X4630393Y4969133D1*
X4608853D1*
X4587573Y4972503D1*
X4567083Y4979160D1*
X4547890Y4988940D1*
X4530460Y5001603D1*
X4515227Y5016837D1*
X4502563Y5034267D1*
X4492623Y5053897D1*
X4482683Y5034267D1*
X4470020Y5016837D1*
X4454787Y5001603D1*
X4437357Y4988940D1*
X4418163Y4979160D1*
X4397673Y4972503D1*
X4376393Y4969133D1*
X4354853D1*
X4333573Y4972503D1*
X4313083Y4979160D1*
X4293890Y4988940D1*
X4276460Y5001603D1*
X4261227Y5016837D1*
X4248563Y5034267D1*
X4238623Y5053897D1*
X4228683Y5034267D1*
X4216020Y5016837D1*
X4200787Y5001603D1*
X4183357Y4988940D1*
X4164163Y4979160D1*
X4143673Y4972503D1*
X4122393Y4969133D1*
X4100853D1*
X4079573Y4972503D1*
X4059083Y4979160D1*
X4039890Y4988940D1*
X4022460Y5001603D1*
X4007227Y5016837D1*
X3994563Y5034267D1*
X3984623Y5053897D1*
X3974683Y5034267D1*
X3962020Y5016837D1*
X3946787Y5001603D1*
X3929357Y4988940D1*
X3910163Y4979160D1*
X3889673Y4972503D1*
X3868393Y4969133D1*
X3846853D1*
X3825573Y4972503D1*
X3822940Y4973247D1*
X3822913Y4038127D1*
X4785580Y5000740D1*
X2634663Y5303627D2*
Y5212843D1*
X2740977Y5106130D1*
X2743083Y5109147D1*
Y5303560D1*
X2634607Y5303540D1*
X3257663Y6418217D2*
Y6327253D1*
X3294683Y6327230D1*
X3374360Y6406233D1*
X3384110Y6413913D1*
X3370000Y6418250D1*
X3257617D1*
X2681213Y377867D2*
X2678610Y355873D1*
X2674290Y334150D1*
X2668277Y312830D1*
X2660610Y292050D1*
X2651337Y271937D1*
X2640517Y252613D1*
X2628210Y234197D1*
X2614497Y216800D1*
X2599463Y200537D1*
X2583200Y185503D1*
X2565803Y171790D1*
X2547387Y159483D1*
X2528063Y148663D1*
X2507950Y139390D1*
X2487170Y131723D1*
X2465850Y125710D1*
X2444127Y121390D1*
X2422133Y118787D1*
X2400000Y117917D1*
X2377867Y118787D1*
X2355873Y121390D1*
X2334150Y125710D1*
X2312830Y131723D1*
X2292050Y139390D1*
X2271937Y148663D1*
X2252613Y159483D1*
X2234197Y171790D1*
X2216800Y185503D1*
X2200537Y200537D1*
X2185503Y216800D1*
X2171790Y234197D1*
X2159483Y252613D1*
X2148663Y271937D1*
X2139390Y292050D1*
X2131723Y312830D1*
X2125710Y334150D1*
X2121390Y355873D1*
X2118787Y377867D1*
X2117917Y400000D1*
X2118787Y422133D1*
X2121390Y444127D1*
X2125710Y465850D1*
X2131723Y487170D1*
X2139390Y507950D1*
X2148663Y528063D1*
X2159483Y547387D1*
X2171790Y565803D1*
X2185503Y583200D1*
X2200537Y599463D1*
X2216800Y614497D1*
X2234197Y628210D1*
X2252613Y640517D1*
X2271937Y651337D1*
X2292050Y660610D1*
X2312830Y668277D1*
X2334150Y674290D1*
X2355873Y678610D1*
X2377867Y681213D1*
X2400000Y682083D1*
X2422133Y681213D1*
X2444127Y678610D1*
X2465850Y674290D1*
X2487170Y668277D1*
X2507950Y660610D1*
X2528063Y651337D1*
X2547387Y640517D1*
X2565803Y628210D1*
X2583200Y614497D1*
X2599463Y599463D1*
X2614497Y583200D1*
X2628210Y565803D1*
X2640517Y547387D1*
X2651337Y528063D1*
X2660610Y507950D1*
X2668277Y487170D1*
X2674290Y465850D1*
X2678610Y444127D1*
X2681213Y422133D1*
X2682083Y400000D1*
X2681213Y377867D1*
X7481213Y6077867D2*
X7478610Y6055873D1*
X7474290Y6034150D1*
X7468277Y6012830D1*
X7460610Y5992050D1*
X7451337Y5971937D1*
X7440517Y5952613D1*
X7428210Y5934197D1*
X7414497Y5916800D1*
X7399463Y5900537D1*
X7383200Y5885503D1*
X7365803Y5871790D1*
X7347387Y5859483D1*
X7328063Y5848663D1*
X7307950Y5839390D1*
X7287170Y5831723D1*
X7265850Y5825710D1*
X7244127Y5821390D1*
X7222133Y5818787D1*
X7200000Y5817917D1*
X7177867Y5818787D1*
X7155873Y5821390D1*
X7134150Y5825710D1*
X7112830Y5831723D1*
X7092050Y5839390D1*
X7071937Y5848663D1*
X7052613Y5859483D1*
X7034197Y5871790D1*
X7016800Y5885503D1*
X7000537Y5900537D1*
X6985503Y5916800D1*
X6971790Y5934197D1*
X6959483Y5952613D1*
X6948663Y5971937D1*
X6939390Y5992050D1*
X6931723Y6012830D1*
X6925710Y6034150D1*
X6921390Y6055873D1*
X6918787Y6077867D1*
X6917917Y6100000D1*
X6918787Y6122133D1*
X6921390Y6144127D1*
X6925710Y6165850D1*
X6931723Y6187170D1*
X6939390Y6207950D1*
X6948663Y6228063D1*
X6959483Y6247387D1*
X6971790Y6265803D1*
X6985503Y6283200D1*
X7000537Y6299463D1*
X7016800Y6314497D1*
X7034197Y6328210D1*
X7052613Y6340517D1*
X7071937Y6351337D1*
X7092050Y6360610D1*
X7112830Y6368277D1*
X7134150Y6374290D1*
X7155873Y6378610D1*
X7177867Y6381213D1*
X7200000Y6382083D1*
X7222133Y6381213D1*
X7244127Y6378610D1*
X7265850Y6374290D1*
X7287170Y6368277D1*
X7307950Y6360610D1*
X7328063Y6351337D1*
X7347387Y6340517D1*
X7365803Y6328210D1*
X7383200Y6314497D1*
X7399463Y6299463D1*
X7414497Y6283200D1*
X7428210Y6265803D1*
X7440517Y6247387D1*
X7451337Y6228063D1*
X7460610Y6207950D1*
X7468277Y6187170D1*
X7474290Y6165850D1*
X7478610Y6144127D1*
X7481213Y6122133D1*
X7482083Y6100000D1*
X7481213Y6077867D1*
X2681213D2*
X2678610Y6055873D1*
X2674290Y6034150D1*
X2668277Y6012830D1*
X2660610Y5992050D1*
X2651337Y5971937D1*
X2640517Y5952613D1*
X2628210Y5934197D1*
X2614497Y5916800D1*
X2599463Y5900537D1*
X2583200Y5885503D1*
X2565803Y5871790D1*
X2547387Y5859483D1*
X2528063Y5848663D1*
X2507950Y5839390D1*
X2487170Y5831723D1*
X2465850Y5825710D1*
X2444127Y5821390D1*
X2422133Y5818787D1*
X2400000Y5817917D1*
X2377867Y5818787D1*
X2355873Y5821390D1*
X2334150Y5825710D1*
X2312830Y5831723D1*
X2292050Y5839390D1*
X2271937Y5848663D1*
X2252613Y5859483D1*
X2234197Y5871790D1*
X2216800Y5885503D1*
X2200537Y5900537D1*
X2185503Y5916800D1*
X2171790Y5934197D1*
X2159483Y5952613D1*
X2148663Y5971937D1*
X2139390Y5992050D1*
X2131723Y6012830D1*
X2125710Y6034150D1*
X2121390Y6055873D1*
X2118787Y6077867D1*
X2117917Y6100000D1*
X2118787Y6122133D1*
X2121390Y6144127D1*
X2125710Y6165850D1*
X2131723Y6187170D1*
X2139390Y6207950D1*
X2148663Y6228063D1*
X2159483Y6247387D1*
X2171790Y6265803D1*
X2185503Y6283200D1*
X2200537Y6299463D1*
X2216800Y6314497D1*
X2234197Y6328210D1*
X2252613Y6340517D1*
X2271937Y6351337D1*
X2292050Y6360610D1*
X2312830Y6368277D1*
X2334150Y6374290D1*
X2355873Y6378610D1*
X2377867Y6381213D1*
X2400000Y6382083D1*
X2422133Y6381213D1*
X2444127Y6378610D1*
X2465850Y6374290D1*
X2487170Y6368277D1*
X2507950Y6360610D1*
X2528063Y6351337D1*
X2547387Y6340517D1*
X2565803Y6328210D1*
X2583200Y6314497D1*
X2599463Y6299463D1*
X2614497Y6283200D1*
X2628210Y6265803D1*
X2640517Y6247387D1*
X2651337Y6228063D1*
X2660610Y6207950D1*
X2668277Y6187170D1*
X2674290Y6165850D1*
X2678610Y6144127D1*
X2681213Y6122133D1*
X2682083Y6100000D1*
X2681213Y6077867D1*
X4492630Y4467953D2*
X4504993Y4457367D1*
X4515927Y4444563D1*
X4517517Y4442183D1*
X4943563Y4868273D1*
X4892923Y4868210D1*
X4492660Y4467997D1*
X2699273Y3074750D2*
X2686320Y3070673D1*
X2669690Y3068040D1*
X2661307Y3067710D1*
X2662833Y3056417D1*
Y3039583D1*
X2660200Y3022953D1*
X2654997Y3006943D1*
X2647353Y2991940D1*
X2637457Y2978320D1*
X2633370Y2973900D1*
X2639123Y2962057D1*
X2644327Y2946047D1*
X2646863Y2930233D1*
X2653703Y2945610D1*
X2666613Y2966677D1*
X2682693Y2985497D1*
X2699350Y3002157D1*
X2699290Y3074593D1*
X3812597Y1368977D2*
D22*
X4455050Y726523D1*
Y1368977D2*
X3812597Y726523D1*
X3102663Y3707713D2*
D121*
X3310837Y3499540D1*
Y3707713D2*
X3102663Y3499540D1*
X5867410Y6139463D2*
X6075583Y5931290D1*
Y6139463D2*
X5867410Y5931290D1*
Y2710463D2*
X6075583Y2502290D1*
Y2710463D2*
X5867410Y2502290D1*
X2809533Y5051607D2*
D22*
X3031750Y4874373D1*
X2809533Y4697140D1*
X2394147Y3428853D2*
D121*
X2500000Y3323000D1*
X990500Y4473000D2*
X1104847Y4367157D1*
Y4578840D2*
X876153Y4367157D1*
X1665303Y5017167D2*
X1985943Y4761833D1*
X1985517Y5016827D2*
X1665303Y4761833D1*
X5863147Y3355853D2*
X5969000Y3250000D1*
X6074853Y3355853D2*
X5969000Y3250000D1*
X570913Y644087D2*
X779087Y435913D1*
Y644087D2*
X570913Y435913D1*
X1269313Y754440D2*
X1534687Y465560D1*
Y754440D2*
X1269313Y465560D1*
X65313Y754440D2*
X330687Y465560D1*
Y754440D2*
X65313Y465560D1*
X1665303Y3429667D2*
X1985943Y3174333D1*
X1985517Y3429327D2*
X1665303Y3174333D1*
X1857373Y6309500D2*
X2018693Y6181037D1*
X1857373Y6309500D2*
X1696053Y6181037D1*
X1704997Y869377D2*
X1946250Y622870D1*
Y869377D2*
X1704997Y622870D1*
X175000Y2159000D2*
X310707Y1959507D1*
Y2358493D2*
X175000Y2159000D1*
X1289293Y2358493D2*
X1560707Y1959507D1*
X1425000Y2159000D2*
X1289293Y1959507D1*
X636137Y6191820D2*
X963863Y5908180D1*
Y6191820D2*
X636137Y5908180D1*
X1665303Y2096167D2*
X1985943Y1840833D1*
X1985517Y2095827D2*
X1665303Y1840833D1*
X4984997Y2809627D2*
X5270250Y2524373D1*
Y2809627D2*
X4984997Y2524373D1*
X4265073Y6069550D2*
X4365623Y5969000D1*
X4466173Y6069550D2*
X4365623Y5969000D1*
X6634270Y4118850D2*
X6928723Y3824397D1*
X6781497Y3971623D2*
X6634270Y3824397D1*
X6677410Y5599710D2*
X6885583Y5391537D1*
Y5599710D2*
X6677410Y5391537D1*
X6634273Y655227D2*
X6928727Y360773D1*
Y655227D2*
X6634273Y360773D1*
X6677413Y2136087D2*
X6885587Y1927913D1*
Y2136087D2*
X6677413Y1927913D1*
X2682843Y2603533D2*
X2905157Y2381220D1*
Y2603533D2*
X2682843Y2381220D1*
X6926957Y4372070D2*
X7204027Y3970980D1*
X7213043Y4372070D2*
X6935557Y3970380D1*
X6935973Y2529020D2*
X7213043Y2127930D1*
X7204443Y2529620D2*
X6926957Y2127930D1*
D25*
X3079723Y1047750D3*
X5187923D3*
D26*
X4133823D3*
D28*
X2856750Y3603627D3*
D29*
X3206750D3*
D28*
X6321497Y6035377D3*
D29*
X5971497D3*
D28*
X6321497Y2606377D3*
D29*
X5971497D3*
D33*
X3031750Y4174373D3*
Y4874373D3*
D34*
X2500000Y3577000D3*
Y3323000D3*
D35*
X2500050Y3600000D3*
Y3300000D3*
D36*
X1117500Y4726999D3*
D37*
X990500Y4472999D3*
X863500Y4726999D3*
X736500Y4472999D3*
X609500Y4726999D3*
X482500Y4472999D3*
D109*
X1825623Y4127500D3*
Y4889500D3*
Y3873500D3*
Y4635500D3*
Y4381500D3*
D34*
X5969000Y3504000D3*
Y3250000D3*
D35*
X5969050Y3527000D3*
Y3227000D3*
D38*
X925000Y540000D3*
X675000D3*
Y860000D3*
X925000D3*
D25*
X1402000Y610000D3*
X198000D3*
D109*
X1825623Y3048000D3*
Y3302000D3*
D112*
X1857373Y6009500D3*
Y6309500D3*
D39*
X1825623Y746123D3*
Y492123D3*
Y238123D3*
D40*
X936500Y2332000D3*
X663500D3*
X625000Y2126000D3*
X800000Y2010000D3*
X975000Y2126000D3*
X800000Y2200000D3*
D41*
X175000Y2159000D3*
X1425000D3*
D42*
X800000Y6050000D3*
Y5550000D3*
D43*
X1825627Y3302000D3*
D44*
Y3048000D3*
D43*
X7400000Y4719000D3*
D44*
Y4973000D3*
Y5227000D3*
Y5481000D3*
D43*
Y919000D3*
D44*
Y1173000D3*
Y1427000D3*
Y1681000D3*
D43*
X1825623Y4889500D3*
D44*
Y4635500D3*
Y4381500D3*
Y4127500D3*
Y3873500D3*
D43*
X7969250Y635000D3*
D44*
Y889000D3*
Y1143000D3*
Y1397000D3*
Y1651000D3*
Y1905000D3*
D109*
X1825623Y1714500D3*
Y2476500D3*
Y1206500D3*
Y1460500D3*
Y2222500D3*
Y1968500D3*
D46*
X5127623Y2667000D3*
D40*
Y2921000D3*
Y3175000D3*
Y3429000D3*
Y3683000D3*
Y3937000D3*
Y4191000D3*
Y4445000D3*
Y4699000D3*
Y4953000D3*
Y5207000D3*
Y5461000D3*
Y5715000D3*
Y5969000D3*
X3603623D3*
Y5715000D3*
Y5461000D3*
Y5207000D3*
Y4953000D3*
Y4699000D3*
Y4445000D3*
Y4191000D3*
Y3937000D3*
Y3683000D3*
Y3429000D3*
Y3175000D3*
Y2921000D3*
Y2667000D3*
X4873623Y5969000D3*
X4619623D3*
X4365623D3*
X4111623D3*
X3857623D3*
D47*
Y2921000D3*
D48*
X4873623Y5126000D3*
Y5543000D3*
X4619623Y5126000D3*
Y5543000D3*
X4365623Y5126000D3*
Y5543000D3*
X4111623Y5126000D3*
Y5543000D3*
X3857623Y5126000D3*
Y5543000D3*
D29*
X6781497Y5749623D3*
Y5241623D3*
Y4987623D3*
Y4733623D3*
Y4479623D3*
Y4225623D3*
D28*
Y3971623D3*
D29*
Y5495623D3*
X5511497Y5749623D3*
Y5241623D3*
Y4987623D3*
Y4733623D3*
Y4479623D3*
Y4225623D3*
Y3971623D3*
Y5495623D3*
X6781500Y2286000D3*
Y1778000D3*
Y1524000D3*
Y1270000D3*
Y1016000D3*
Y762000D3*
D28*
Y508000D3*
D29*
Y2032000D3*
X5511500Y2286000D3*
Y1778000D3*
Y1524000D3*
Y1270000D3*
Y1016000D3*
Y762000D3*
Y508000D3*
Y2032000D3*
D35*
X1349377Y2905127D3*
D49*
Y3301127D3*
Y2809127D3*
D35*
Y3205127D3*
D50*
X2492373Y5207000D3*
D40*
Y4953000D3*
Y4699000D3*
Y4445000D3*
Y4191000D3*
Y3937000D3*
D112*
X1857409Y5365750D3*
Y5619750D3*
D51*
X3000373Y6169770D3*
Y5389770D3*
D52*
X2794000Y2746377D3*
D53*
Y2492377D3*
Y2238377D3*
D109*
X7400000Y1173000D3*
Y919000D3*
Y1681000D3*
Y1427000D3*
Y4973000D3*
Y4719000D3*
Y5481000D3*
Y5227000D3*
D115*
X8470000Y4120000D3*
D118*
Y2380000D3*
D115*
X7070000Y4120000D3*
D118*
Y2380000D3*
M02*
