%TF.GenerationSoftware,Novarm,DipTrace,3.3.1.3*%
%TF.CreationDate,2023-12-10T18:24:31+00:00*%
%FSLAX35Y35*%
%MOMM*%
%TF.FileFunction,Drawing,Top*%
%TF.Part,Single*%
%ADD13C,0.125*%
%ADD105C,0.15686*%
G75*
G01*
%LPD*%
D13*
X0Y-780250D1*
X8600000Y0D2*
Y-780250D1*
X4300000Y-730250D2*
X100000D1*
G36*
X0D2*
X100000Y-710250D1*
Y-750250D1*
X0Y-730250D1*
G37*
X4300000D2*
D13*
X8500000D1*
G36*
X8600000D2*
X8500000Y-750250D1*
Y-710250D1*
X8600000Y-730250D1*
G37*
X301623Y6500000D2*
D13*
X-923123D1*
X0Y0D2*
X-923123D1*
X-873123Y3250000D2*
Y6400000D1*
G36*
Y6500000D2*
X-853123Y6400000D1*
X-893123D1*
X-873123Y6500000D1*
G37*
Y3250000D2*
D13*
Y100000D1*
G36*
Y0D2*
X-893123Y100000D1*
X-853123D1*
X-873123Y0D1*
G37*
X-5683250Y3619500D2*
D13*
Y4368000D1*
X-5429250Y3619500D2*
Y4368000D1*
X-5556250Y4318000D2*
X-5583250D1*
G36*
X-5683250D2*
X-5583250Y4338000D1*
Y4298000D1*
X-5683250Y4318000D1*
G37*
X-5556250D2*
D13*
X-5529250D1*
G36*
X-5429250D2*
X-5529250Y4298000D1*
Y4338000D1*
X-5429250Y4318000D1*
G37*
X-5016357D2*
D13*
X-5429250D1*
X2400000Y6100000D2*
Y7209627D1*
X7200000Y6100000D2*
Y7209627D1*
X4800000Y7159627D2*
X2500000D1*
G36*
X2400000D2*
X2500000Y7179627D1*
Y7139627D1*
X2400000Y7159627D1*
G37*
X4800000D2*
D13*
X7100000D1*
G36*
X7200000D2*
X7100000Y7139627D1*
Y7179627D1*
X7200000Y7159627D1*
G37*
X2400000Y400000D2*
D13*
Y-526250D1*
X7200000Y400000D2*
Y-526250D1*
X4800000Y-476250D2*
X2500000D1*
G36*
X2400000D2*
X2500000Y-456250D1*
Y-496250D1*
X2400000Y-476250D1*
G37*
X4800000D2*
D13*
X7100000D1*
G36*
X7200000D2*
X7100000Y-496250D1*
Y-456250D1*
X7200000Y-476250D1*
G37*
Y6100000D2*
D13*
X9511500D1*
X7200000Y400000D2*
X9511500D1*
X9461500Y3250000D2*
Y6000000D1*
G36*
Y6100000D2*
X9481500Y6000000D1*
X9441500D1*
X9461500Y6100000D1*
G37*
Y3250000D2*
D13*
Y500000D1*
G36*
Y400000D2*
X9441500Y500000D1*
X9481500D1*
X9461500Y400000D1*
G37*
X4250884Y-597259D2*
D105*
X4236396Y-602089D1*
X4231455Y-611747D1*
Y-621518D1*
X4236396Y-631176D1*
X4246055Y-636118D1*
X4265484Y-640947D1*
X4280084Y-645776D1*
X4289742Y-655547D1*
X4294571Y-665205D1*
Y-679805D1*
X4289742Y-689464D1*
X4284913Y-694405D1*
X4270313Y-699235D1*
X4250884D1*
X4236396Y-694405D1*
X4231455Y-689464D1*
X4226625Y-679805D1*
Y-665205D1*
X4231455Y-655547D1*
X4241225Y-645776D1*
X4255713Y-640947D1*
X4275142Y-636118D1*
X4284913Y-631176D1*
X4289742Y-621518D1*
Y-611747D1*
X4284913Y-602089D1*
X4270313Y-597259D1*
X4250884D1*
X4384232Y-611747D2*
X4379402Y-602089D1*
X4364802Y-597259D1*
X4355144D1*
X4340544Y-602089D1*
X4330773Y-616689D1*
X4325944Y-640947D1*
Y-665205D1*
X4330773Y-684635D1*
X4340544Y-694405D1*
X4355144Y-699235D1*
X4359973D1*
X4374461Y-694405D1*
X4384232Y-684635D1*
X4389061Y-670035D1*
Y-665205D1*
X4384232Y-650605D1*
X4374461Y-640947D1*
X4359973Y-636118D1*
X4355144D1*
X4340544Y-640947D1*
X4330773Y-650605D1*
X4325944Y-665205D1*
X-991626Y3234857D2*
X-1001285Y3230028D1*
X-1006114Y3215428D1*
Y3205769D1*
X-1001285Y3191169D1*
X-986685Y3181398D1*
X-962426Y3176569D1*
X-938168D1*
X-918739Y3181398D1*
X-908968Y3191169D1*
X-904139Y3205769D1*
Y3210598D1*
X-908968Y3225086D1*
X-918739Y3234857D1*
X-933339Y3239686D1*
X-938168D1*
X-952768Y3234857D1*
X-962426Y3225086D1*
X-967256Y3210598D1*
Y3205769D1*
X-962426Y3191169D1*
X-952768Y3181398D1*
X-938168Y3176569D1*
X-1006114Y3329346D2*
Y3280829D1*
X-962426Y3276000D1*
X-967256Y3280829D1*
X-972197Y3295429D1*
Y3309917D1*
X-967256Y3324517D1*
X-957597Y3334288D1*
X-942997Y3339117D1*
X-933339D1*
X-918739Y3334288D1*
X-908968Y3324517D1*
X-904139Y3309917D1*
Y3295429D1*
X-908968Y3280829D1*
X-913909Y3276000D1*
X-923568Y3271059D1*
X-5300779Y4426732D2*
Y4431561D1*
X-5295950Y4441332D1*
X-5291121Y4446161D1*
X-5281350Y4450991D1*
X-5261921D1*
X-5252262Y4446161D1*
X-5247433Y4441332D1*
X-5242491Y4431561D1*
Y4421903D1*
X-5247433Y4412132D1*
X-5257091Y4397645D1*
X-5305721Y4349015D1*
X-5237662D1*
X-5201460Y4358786D2*
X-5206290Y4353845D1*
X-5201460Y4349015D1*
X-5196519Y4353845D1*
X-5201460Y4358786D1*
X-5106859Y4450991D2*
X-5155375D1*
X-5160205Y4407303D1*
X-5155375Y4412132D1*
X-5140775Y4417074D1*
X-5126288D1*
X-5111688Y4412132D1*
X-5101917Y4402474D1*
X-5097088Y4387874D1*
Y4378215D1*
X-5101917Y4363615D1*
X-5111688Y4353845D1*
X-5126288Y4349015D1*
X-5140775D1*
X-5155375Y4353845D1*
X-5160205Y4358786D1*
X-5165146Y4368445D1*
X-5017086Y4349015D2*
Y4450991D1*
X-5065715Y4383045D1*
X-4992828D1*
X4770369Y7190642D2*
Y7292617D1*
X4721740Y7224671D1*
X4794628D1*
X4850259Y7292617D2*
X4835771Y7287788D1*
X4830829Y7278130D1*
Y7268359D1*
X4835771Y7258700D1*
X4845429Y7253759D1*
X4864859Y7248930D1*
X4879459Y7244100D1*
X4889117Y7234330D1*
X4893946Y7224671D1*
Y7210071D1*
X4889117Y7200413D1*
X4884288Y7195471D1*
X4869688Y7190642D1*
X4850259D1*
X4835771Y7195471D1*
X4830829Y7200413D1*
X4826000Y7210071D1*
Y7224671D1*
X4830829Y7234330D1*
X4840600Y7244100D1*
X4855088Y7248930D1*
X4874517Y7253759D1*
X4884288Y7258700D1*
X4889117Y7268359D1*
Y7278130D1*
X4884288Y7287788D1*
X4869688Y7292617D1*
X4850259D1*
X4770369Y-445235D2*
Y-343259D1*
X4721740Y-411205D1*
X4794628D1*
X4850259Y-343259D2*
X4835771Y-348089D1*
X4830829Y-357747D1*
Y-367518D1*
X4835771Y-377176D1*
X4845429Y-382118D1*
X4864859Y-386947D1*
X4879459Y-391776D1*
X4889117Y-401547D1*
X4893946Y-411205D1*
Y-425805D1*
X4889117Y-435464D1*
X4884288Y-440405D1*
X4869688Y-445235D1*
X4850259D1*
X4835771Y-440405D1*
X4830829Y-435464D1*
X4826000Y-425805D1*
Y-411205D1*
X4830829Y-401547D1*
X4840600Y-391776D1*
X4855088Y-386947D1*
X4874517Y-382118D1*
X4884288Y-377176D1*
X4889117Y-367518D1*
Y-357747D1*
X4884288Y-348089D1*
X4869688Y-343259D1*
X4850259D1*
X9594491Y3267614D2*
Y3316131D1*
X9550803Y3320960D1*
X9555632Y3316131D1*
X9560574Y3301531D1*
Y3287043D1*
X9555632Y3272443D1*
X9545974Y3262672D1*
X9531374Y3257843D1*
X9521715D1*
X9507115Y3262672D1*
X9497345Y3272443D1*
X9492515Y3287043D1*
Y3301531D1*
X9497345Y3316131D1*
X9502286Y3320960D1*
X9511945Y3325902D1*
X9492515Y3207041D2*
X9594491Y3158412D1*
Y3226471D1*
M02*
