%TF.GenerationSoftware,Novarm,DipTrace,3.3.1.3*%
%TF.CreationDate,2023-12-10T18:24:26+00:00*%
%FSLAX35Y35*%
%MOMM*%
%TF.FileFunction,Legend,Top*%
%TF.Part,Single*%
%ADD10C,0.3*%
%ADD12C,0.0762*%
%ADD24C,0.1*%
%ADD27C,0.2*%
%ADD30C,0.15*%
%ADD45C,0.127*%
%ADD101C,0.11765*%
%ADD102C,0.39216*%
%ADD103C,0.19608*%
%ADD104C,0.31373*%
%ADD105C,0.15686*%
%ADD108C,0.23529*%
G75*
G01*
%LPD*%
X3086057Y285700D2*
D10*
X3083768Y1547729D1*
X3847798Y2095502D1*
X4419620D1*
X5183878Y1547729D1*
Y285700D1*
X5022789Y47752D1*
X4800376D1*
X4533572Y288158D1*
X3705472D1*
X3467042Y47752D1*
X3244858D1*
X3086057Y285700D1*
X2860550Y3700587D2*
Y3760667D1*
X2830550Y3730667D2*
X2890550D1*
X2631750Y3603627D2*
D27*
G02X2631750Y3603627I400000J0D01*
G01*
X6479827Y6067111D2*
D30*
Y6003643D1*
X6511643Y6035377D2*
X6448175D1*
X5736497D2*
D27*
G02X5736497Y6035377I410000J0D01*
G01*
X6479827Y2638111D2*
D30*
Y2574643D1*
X6511643Y2606377D2*
X6448175D1*
X5736497D2*
D27*
G02X5736497Y2606377I410000J0D01*
G01*
X2730156Y4921200D2*
Y4127546D1*
X3326960Y4127352D2*
Y4921394D1*
X2761875Y4048103D2*
D10*
X3301625D1*
X2357125Y3656354D2*
X2373013D1*
X2626987D2*
X2642875D1*
X2626987Y3243681D2*
X2642875D1*
X2357125D2*
X2373013D1*
X2640875Y3649879D2*
Y3250097D1*
X2359125Y3649879D2*
Y3250097D1*
X2047887Y5000619D2*
D27*
Y3809942D1*
X1619267Y5016500D2*
X2047887D1*
X1603383D2*
Y3809942D1*
X1762217Y3714787D2*
X1888961D1*
X2047887Y3810072D2*
X1888961Y3714787D1*
X1603383Y3810072D2*
X1762217Y3714787D1*
X5826125Y3583354D2*
D10*
X5842013D1*
X6095987D2*
X6111875D1*
X6095987Y3170681D2*
X6111875D1*
X5826125D2*
X5842013D1*
X6109875Y3576879D2*
Y3177097D1*
X5828125Y3576879D2*
Y3177097D1*
X2031998Y3460748D2*
Y2984477D1*
X1619248Y3444890D2*
Y2968619D1*
X1762184Y2873412D2*
X1888980D1*
X1635139Y3460748D2*
X2016107D1*
X2031998Y2968619D2*
X1888980Y2873412D1*
X1619248Y2968619D2*
X1762184Y2873412D1*
X1984350Y873123D2*
D27*
Y174598D1*
X1666853Y873123D2*
X1984350D1*
X1666853D2*
Y174598D1*
X1730352Y111123D1*
X1920850D1*
X1984350Y174598D2*
X1920850Y111123D1*
X2272627Y3535046D2*
D10*
X1553634D1*
Y2813970D1*
X2272627D1*
Y3535046D1*
X1553634D2*
X1477588D1*
X1553634Y2813970D2*
X1477588D1*
X6953000Y4485980D2*
X7671992D1*
Y5714934D1*
X6953000D1*
Y4485980D1*
X7671992D2*
X7748038D1*
X7671992Y5714934D2*
X7748038D1*
X6953000Y685980D2*
X7671992D1*
Y1914934D1*
X6953000D1*
Y685980D1*
X7671992D2*
X7748038D1*
X7671992Y1914934D2*
X7748038D1*
X2272623Y5122570D2*
X1553631D1*
Y3639541D1*
X2272623D1*
Y5122570D1*
X1553631D2*
X1477585D1*
X1553631Y3639541D2*
X1477585D1*
X7522250Y401930D2*
X8241242D1*
Y2139086D1*
X7522250D1*
Y401930D1*
X8241242D2*
X8317288D1*
X8241242Y2139086D2*
X8317288D1*
X2047887Y2635250D2*
Y1111246D1*
X1603373Y2635250D2*
X2047887D1*
X1603373D2*
Y1111246D1*
X1762198Y1016037D2*
X1888973D1*
X2047887Y1111246D2*
X1888973Y1016037D1*
X1603373Y1111246D2*
X1762198Y1016037D1*
X5254726Y6096000D2*
D45*
X3476451D1*
Y2539841D1*
X3984470D1*
X4746707D1*
X5254726D1*
Y6096000D1*
X3984470Y2539841D2*
Y3048019D1*
X4746707D1*
Y2539841D1*
X6908497Y3824623D2*
D27*
X5384497D1*
Y5896623D1*
X6908497D1*
Y3824623D1*
X6273446Y5696675D2*
X6273755Y5705535D1*
X6274682Y5714352D1*
X6276222Y5723083D1*
X6278367Y5731685D1*
X6281106Y5740117D1*
X6284428Y5748336D1*
X6288314Y5756305D1*
X6292748Y5763982D1*
X6297706Y5771332D1*
X6303164Y5778318D1*
X6309097Y5784906D1*
X6315475Y5791065D1*
X6322267Y5796763D1*
X6329440Y5801974D1*
X6336959Y5806672D1*
X6344787Y5810834D1*
X6352887Y5814440D1*
X6361218Y5817472D1*
X6369741Y5819916D1*
X6378414Y5821759D1*
X6387193Y5822993D1*
X6396038Y5823612D1*
X6404904D1*
X6413749Y5822993D1*
X6422529Y5821759D1*
X6431201Y5819916D1*
X6439724Y5817472D1*
X6448056Y5814440D1*
X6456156Y5810834D1*
X6463984Y5806672D1*
X6471503Y5801974D1*
X6478676Y5796763D1*
X6485468Y5791065D1*
X6491846Y5784906D1*
X6497778Y5778318D1*
X6503237Y5771332D1*
X6508195Y5763982D1*
X6512628Y5756305D1*
X6516515Y5748336D1*
X6519836Y5740117D1*
X6522576Y5731685D1*
X6524721Y5723083D1*
X6526260Y5714352D1*
X6527187Y5705535D1*
X6527497Y5696675D1*
X6527187Y5687815D1*
X6526260Y5678998D1*
X6524721Y5670268D1*
X6522576Y5661666D1*
X6519836Y5653234D1*
X6516515Y5645014D1*
X6512628Y5637046D1*
X6508195Y5629368D1*
X6503237Y5622019D1*
X6497778Y5615033D1*
X6491846Y5608444D1*
X6485468Y5602286D1*
X6478676Y5596587D1*
X6471503Y5591376D1*
X6463984Y5586678D1*
X6456156Y5582516D1*
X6448056Y5578910D1*
X6439724Y5575878D1*
X6431201Y5573435D1*
X6422529Y5571591D1*
X6413749Y5570358D1*
X6404904Y5569739D1*
X6396038D1*
X6387193Y5570358D1*
X6378414Y5571591D1*
X6369741Y5573435D1*
X6361218Y5575878D1*
X6352887Y5578910D1*
X6344787Y5582516D1*
X6336959Y5586678D1*
X6329440Y5591376D1*
X6322267Y5596587D1*
X6315475Y5602286D1*
X6309097Y5608444D1*
X6303164Y5615033D1*
X6297706Y5622019D1*
X6292748Y5629368D1*
X6288314Y5637046D1*
X6284428Y5645014D1*
X6281106Y5653234D1*
X6278367Y5661666D1*
X6276222Y5670268D1*
X6274682Y5678998D1*
X6273755Y5687815D1*
X6273446Y5696675D1*
X5963007Y5753137D2*
D24*
X5963153Y5757322D1*
X5963591Y5761486D1*
X5964318Y5765609D1*
X5965330Y5769671D1*
X5966624Y5773653D1*
X5968192Y5777535D1*
X5970027Y5781298D1*
X5972120Y5784924D1*
X5974460Y5788395D1*
X5977037Y5791695D1*
X5979838Y5794806D1*
X5982849Y5797714D1*
X5986056Y5800406D1*
X5989442Y5802867D1*
X5992992Y5805085D1*
X5996688Y5807051D1*
X6000512Y5808754D1*
X6004445Y5810186D1*
X6008469Y5811340D1*
X6012563Y5812210D1*
X6016708Y5812793D1*
X6020884Y5813085D1*
X6025069D1*
X6029245Y5812793D1*
X6033390Y5812210D1*
X6037484Y5811340D1*
X6041508Y5810186D1*
X6045441Y5808754D1*
X6049265Y5807051D1*
X6052961Y5805085D1*
X6056511Y5802867D1*
X6059897Y5800406D1*
X6063104Y5797714D1*
X6066115Y5794806D1*
X6068916Y5791695D1*
X6071493Y5788395D1*
X6073833Y5784924D1*
X6075926Y5781298D1*
X6077761Y5777535D1*
X6079329Y5773653D1*
X6080623Y5769671D1*
X6081635Y5765609D1*
X6082362Y5761486D1*
X6082800Y5757322D1*
X6082946Y5753137D1*
X6082800Y5748953D1*
X6082362Y5744789D1*
X6081635Y5740666D1*
X6080623Y5736603D1*
X6079329Y5732621D1*
X6077761Y5728739D1*
X6075926Y5724976D1*
X6073833Y5721350D1*
X6071493Y5717879D1*
X6068916Y5714580D1*
X6066115Y5711469D1*
X6063104Y5708560D1*
X6059897Y5705869D1*
X6056511Y5703408D1*
X6052961Y5701189D1*
X6049265Y5699224D1*
X6045441Y5697521D1*
X6041508Y5696089D1*
X6037484Y5694935D1*
X6033390Y5694064D1*
X6029245Y5693482D1*
X6025069Y5693189D1*
X6020884D1*
X6016708Y5693482D1*
X6012563Y5694064D1*
X6008469Y5694935D1*
X6004445Y5696089D1*
X6000512Y5697521D1*
X5996688Y5699224D1*
X5992992Y5701189D1*
X5989442Y5703408D1*
X5986056Y5705869D1*
X5982849Y5708560D1*
X5979838Y5711469D1*
X5977037Y5714580D1*
X5974460Y5717879D1*
X5972120Y5721350D1*
X5970027Y5724976D1*
X5968192Y5728739D1*
X5966624Y5732621D1*
X5965330Y5736603D1*
X5964318Y5740666D1*
X5963591Y5744789D1*
X5963153Y5748953D1*
X5963007Y5753137D1*
X5708956D2*
X5709103Y5757322D1*
X5709541Y5761486D1*
X5710268Y5765609D1*
X5711282Y5769671D1*
X5712577Y5773653D1*
X5714147Y5777535D1*
X5715985Y5781298D1*
X5718080Y5784924D1*
X5720424Y5788395D1*
X5723004Y5791695D1*
X5725809Y5794806D1*
X5728824Y5797714D1*
X5732034Y5800406D1*
X5735425Y5802867D1*
X5738979Y5805085D1*
X5742680Y5807051D1*
X5746508Y5808754D1*
X5750447Y5810186D1*
X5754476Y5811340D1*
X5758575Y5812210D1*
X5762725Y5812793D1*
X5766906Y5813085D1*
X5771097D1*
X5775278Y5812793D1*
X5779429Y5812210D1*
X5783528Y5811340D1*
X5787557Y5810186D1*
X5791495Y5808754D1*
X5795324Y5807051D1*
X5799025Y5805085D1*
X5802579Y5802867D1*
X5805970Y5800406D1*
X5809180Y5797714D1*
X5812195Y5794806D1*
X5814999Y5791695D1*
X5817580Y5788395D1*
X5819923Y5784924D1*
X5822019Y5781298D1*
X5823856Y5777535D1*
X5825426Y5773653D1*
X5826721Y5769671D1*
X5827735Y5765609D1*
X5828463Y5761486D1*
X5828901Y5757322D1*
X5829047Y5753137D1*
X5828901Y5748953D1*
X5828463Y5744789D1*
X5827735Y5740666D1*
X5826721Y5736603D1*
X5825426Y5732621D1*
X5823856Y5728739D1*
X5822019Y5724976D1*
X5819923Y5721350D1*
X5817580Y5717879D1*
X5814999Y5714580D1*
X5812195Y5711469D1*
X5809180Y5708560D1*
X5805970Y5705869D1*
X5802579Y5703408D1*
X5799025Y5701189D1*
X5795324Y5699224D1*
X5791495Y5697521D1*
X5787557Y5696089D1*
X5783528Y5694935D1*
X5779429Y5694064D1*
X5775278Y5693482D1*
X5771097Y5693189D1*
X5766906D1*
X5762725Y5693482D1*
X5758575Y5694064D1*
X5754476Y5694935D1*
X5750447Y5696089D1*
X5746508Y5697521D1*
X5742680Y5699224D1*
X5738979Y5701189D1*
X5735425Y5703408D1*
X5732034Y5705869D1*
X5728824Y5708560D1*
X5725809Y5711469D1*
X5723004Y5714580D1*
X5720424Y5717879D1*
X5718080Y5721350D1*
X5715985Y5724976D1*
X5714147Y5728739D1*
X5712577Y5732621D1*
X5711282Y5736603D1*
X5710268Y5740666D1*
X5709541Y5744789D1*
X5709103Y5748953D1*
X5708956Y5753137D1*
X6908500Y361000D2*
D27*
X5384500D1*
Y2433000D1*
X6908500D1*
Y361000D1*
X6273449Y2233052D2*
X6273759Y2241912D1*
X6274685Y2250729D1*
X6276225Y2259460D1*
X6278370Y2268062D1*
X6281110Y2276493D1*
X6284431Y2284713D1*
X6288318Y2292681D1*
X6292751Y2300359D1*
X6297709Y2307709D1*
X6303167Y2314695D1*
X6309100Y2321283D1*
X6315478Y2327441D1*
X6322270Y2333140D1*
X6329443Y2338351D1*
X6336962Y2343049D1*
X6344790Y2347211D1*
X6352890Y2350817D1*
X6361222Y2353849D1*
X6369744Y2356293D1*
X6378417Y2358136D1*
X6387197Y2359370D1*
X6396041Y2359988D1*
X6404908D1*
X6413752Y2359370D1*
X6422532Y2358136D1*
X6431205Y2356293D1*
X6439728Y2353849D1*
X6448059Y2350817D1*
X6456159Y2347211D1*
X6463987Y2343049D1*
X6471506Y2338351D1*
X6478679Y2333140D1*
X6485471Y2327441D1*
X6491849Y2321283D1*
X6497782Y2314695D1*
X6503240Y2307709D1*
X6508198Y2300359D1*
X6512631Y2292681D1*
X6516518Y2284713D1*
X6519839Y2276493D1*
X6522579Y2268062D1*
X6524724Y2259460D1*
X6526264Y2250729D1*
X6527191Y2241912D1*
X6527500Y2233052D1*
X6527191Y2224192D1*
X6526264Y2215375D1*
X6524724Y2206644D1*
X6522579Y2198042D1*
X6519839Y2189611D1*
X6516518Y2181391D1*
X6512631Y2173423D1*
X6508198Y2165745D1*
X6503240Y2158395D1*
X6497782Y2151409D1*
X6491849Y2144821D1*
X6485471Y2138663D1*
X6478679Y2132964D1*
X6471506Y2127753D1*
X6463987Y2123055D1*
X6456159Y2118893D1*
X6448059Y2115287D1*
X6439728Y2112255D1*
X6431205Y2109811D1*
X6422532Y2107968D1*
X6413752Y2106734D1*
X6404908Y2106116D1*
X6396041D1*
X6387197Y2106734D1*
X6378417Y2107968D1*
X6369744Y2109811D1*
X6361222Y2112255D1*
X6352890Y2115287D1*
X6344790Y2118893D1*
X6336962Y2123055D1*
X6329443Y2127753D1*
X6322270Y2132964D1*
X6315478Y2138663D1*
X6309100Y2144821D1*
X6303167Y2151409D1*
X6297709Y2158395D1*
X6292751Y2165745D1*
X6288318Y2173423D1*
X6284431Y2181391D1*
X6281110Y2189611D1*
X6278370Y2198042D1*
X6276225Y2206644D1*
X6274685Y2215375D1*
X6273759Y2224192D1*
X6273449Y2233052D1*
X5963010Y2289514D2*
D24*
X5963156Y2293698D1*
X5963594Y2297862D1*
X5964321Y2301985D1*
X5965334Y2306048D1*
X5966627Y2310030D1*
X5968195Y2313912D1*
X5970030Y2317675D1*
X5972123Y2321301D1*
X5974464Y2324772D1*
X5977041Y2328071D1*
X5979841Y2331183D1*
X5982852Y2334091D1*
X5986059Y2336782D1*
X5989445Y2339243D1*
X5992995Y2341462D1*
X5996691Y2343428D1*
X6000515Y2345131D1*
X6004448Y2346563D1*
X6008472Y2347717D1*
X6012566Y2348587D1*
X6016711Y2349170D1*
X6020887Y2349462D1*
X6025073D1*
X6029248Y2349170D1*
X6033393Y2348587D1*
X6037488Y2347717D1*
X6041511Y2346563D1*
X6045445Y2345131D1*
X6049269Y2343428D1*
X6052964Y2341462D1*
X6056514Y2339243D1*
X6059901Y2336782D1*
X6063107Y2334091D1*
X6066118Y2331183D1*
X6068919Y2328071D1*
X6071496Y2324772D1*
X6073837Y2321301D1*
X6075930Y2317675D1*
X6077765Y2313912D1*
X6079333Y2310030D1*
X6080626Y2306048D1*
X6081639Y2301985D1*
X6082366Y2297862D1*
X6082803Y2293698D1*
X6082949Y2289514D1*
X6082803Y2285330D1*
X6082366Y2281166D1*
X6081639Y2277043D1*
X6080626Y2272980D1*
X6079333Y2268998D1*
X6077765Y2265116D1*
X6075930Y2261353D1*
X6073837Y2257727D1*
X6071496Y2254256D1*
X6068919Y2250957D1*
X6066118Y2247845D1*
X6063107Y2244937D1*
X6059901Y2242246D1*
X6056514Y2239785D1*
X6052964Y2237566D1*
X6049269Y2235600D1*
X6045445Y2233897D1*
X6041511Y2232465D1*
X6037488Y2231311D1*
X6033393Y2230441D1*
X6029248Y2229858D1*
X6025073Y2229566D1*
X6020887D1*
X6016711Y2229858D1*
X6012566Y2230441D1*
X6008472Y2231311D1*
X6004448Y2232465D1*
X6000515Y2233897D1*
X5996691Y2235600D1*
X5992995Y2237566D1*
X5989445Y2239785D1*
X5986059Y2242246D1*
X5982852Y2244937D1*
X5979841Y2247845D1*
X5977041Y2250957D1*
X5974464Y2254256D1*
X5972123Y2257727D1*
X5970030Y2261353D1*
X5968195Y2265116D1*
X5966627Y2268998D1*
X5965334Y2272980D1*
X5964321Y2277043D1*
X5963594Y2281166D1*
X5963156Y2285330D1*
X5963010Y2289514D1*
X5708960D2*
X5709106Y2293698D1*
X5709544Y2297862D1*
X5710272Y2301985D1*
X5711286Y2306048D1*
X5712581Y2310030D1*
X5714151Y2313912D1*
X5715988Y2317675D1*
X5718084Y2321301D1*
X5720427Y2324772D1*
X5723008Y2328071D1*
X5725812Y2331183D1*
X5728827Y2334091D1*
X5732037Y2336782D1*
X5735428Y2339243D1*
X5738982Y2341462D1*
X5742683Y2343428D1*
X5746512Y2345131D1*
X5750450Y2346563D1*
X5754479Y2347717D1*
X5758578Y2348587D1*
X5762729Y2349170D1*
X5766910Y2349462D1*
X5771101D1*
X5775282Y2349170D1*
X5779432Y2348587D1*
X5783532Y2347717D1*
X5787560Y2346563D1*
X5791499Y2345131D1*
X5795327Y2343428D1*
X5799028Y2341462D1*
X5802582Y2339243D1*
X5805973Y2336782D1*
X5809184Y2334091D1*
X5812198Y2331183D1*
X5815003Y2328071D1*
X5817583Y2324772D1*
X5819927Y2321301D1*
X5822022Y2317675D1*
X5823860Y2313912D1*
X5825430Y2310030D1*
X5826725Y2306048D1*
X5827739Y2301985D1*
X5828466Y2297862D1*
X5828905Y2293698D1*
X5829051Y2289514D1*
X5828905Y2285330D1*
X5828466Y2281166D1*
X5827739Y2277043D1*
X5826725Y2272980D1*
X5825430Y2268998D1*
X5823860Y2265116D1*
X5822022Y2261353D1*
X5819927Y2257727D1*
X5817583Y2254256D1*
X5815003Y2250957D1*
X5812198Y2247845D1*
X5809184Y2244937D1*
X5805973Y2242246D1*
X5802582Y2239785D1*
X5799028Y2237566D1*
X5795327Y2235600D1*
X5791499Y2233897D1*
X5787560Y2232465D1*
X5783532Y2231311D1*
X5779432Y2230441D1*
X5775282Y2229858D1*
X5771101Y2229566D1*
X5766910D1*
X5762729Y2229858D1*
X5758578Y2230441D1*
X5754479Y2231311D1*
X5750450Y2232465D1*
X5746512Y2233897D1*
X5742683Y2235600D1*
X5738982Y2237566D1*
X5735428Y2239785D1*
X5732037Y2242246D1*
X5728827Y2244937D1*
X5725812Y2247845D1*
X5723008Y2250957D1*
X5720427Y2254256D1*
X5718084Y2257727D1*
X5715988Y2261353D1*
X5714151Y2265116D1*
X5712581Y2268998D1*
X5711286Y2272980D1*
X5710272Y2277043D1*
X5709544Y2281166D1*
X5709106Y2285330D1*
X5708960Y2289514D1*
X1206502Y2880510D2*
D10*
Y3229744D1*
X1492252Y2880510D2*
Y3229744D1*
X1254136Y3007516D2*
Y3102737D1*
X1444617Y3007516D2*
Y3102737D1*
X2597373Y5312000D2*
X2387373D1*
Y3832000D1*
X2597373D1*
Y5312000D1*
X1619296Y5191098D2*
Y5794375D1*
X2000486D1*
X2016375Y5730850D2*
Y5794375D1*
Y5270490D2*
X2016168Y5191098D1*
X2016375D2*
X1619296D1*
X2016375Y5270490D2*
X2095887D1*
Y5714984D1*
X2016375Y5714923D1*
X2095955Y5461004D2*
X2238816Y5413345D1*
X2095474Y5572128D2*
X2270593Y5524469D1*
X2238816D2*
G02X2207038Y5429272I10768J-56497D01*
G01*
X2740373Y6329800D2*
D24*
Y5229740D1*
X3260373D2*
Y6329800D1*
X2594021Y3077437D2*
D27*
X3344000D1*
Y1907317D1*
X2594021D1*
Y3077437D1*
X2635243Y1984317D2*
Y3000437D1*
X7622258Y1839750D2*
D10*
Y823768D1*
X7177755Y1839750D2*
Y823768D1*
X7336588Y728537D2*
X7463353D1*
X7177755Y1839750D2*
X7622258D1*
Y823768D2*
X7463353Y728537D1*
X7177755Y823768D2*
X7336588Y728537D1*
X7622258Y5639750D2*
Y4623768D1*
X7177755Y5639750D2*
Y4623768D1*
X7336588Y4528537D2*
X7463353D1*
X7177755Y5639750D2*
X7622258D1*
Y4623768D2*
X7463353Y4528537D1*
X7177755Y4623768D2*
X7336588Y4528537D1*
X8620000Y4299888D2*
D27*
Y2200112D1*
X6920000Y4299888D2*
Y2200112D1*
X8277960Y4299888D2*
X7262040D1*
X8277960Y2200112D2*
X7262040D1*
X7588250Y269877D2*
D24*
X7842253D1*
Y111127D1*
X7588250D1*
Y269877D1*
X7556500Y95250D2*
X7858123Y285750D1*
X4087398Y2207094D2*
D101*
Y2130528D1*
X4120248D1*
X4131198Y2134234D1*
X4134820Y2137856D1*
X4138442Y2145100D1*
Y2156050D1*
X4134820Y2163378D1*
X4131198Y2167000D1*
X4120248Y2170622D1*
X4131198Y2174328D1*
X4134820Y2177950D1*
X4138442Y2185194D1*
Y2192522D1*
X4134820Y2199766D1*
X4131198Y2203472D1*
X4120248Y2207094D1*
X4087398D1*
Y2170622D2*
X4120248D1*
X4161971Y2192437D2*
X4169299Y2196144D1*
X4180249Y2207009D1*
Y2130528D1*
X3038179Y4097025D2*
X3034557Y4104269D1*
X3027229Y4111597D1*
X3019985Y4115219D1*
X3005413D1*
X2998085Y4111597D1*
X2990841Y4104269D1*
X2987135Y4097025D1*
X2983513Y4086075D1*
Y4067797D1*
X2987135Y4056931D1*
X2990841Y4049603D1*
X2998085Y4042359D1*
X3005413Y4038653D1*
X3019985D1*
X3027229Y4042359D1*
X3034557Y4049603D1*
X3038179Y4056931D1*
X3061709Y4100562D2*
X3069037Y4104269D1*
X3079987Y4115134D1*
Y4038653D1*
X6136543Y6538775D2*
X6132921Y6546019D1*
X6125593Y6553347D1*
X6118349Y6556969D1*
X6103777D1*
X6096449Y6553347D1*
X6089205Y6546019D1*
X6085499Y6538775D1*
X6081877Y6527825D1*
Y6509547D1*
X6085499Y6498681D1*
X6089205Y6491353D1*
X6096449Y6484109D1*
X6103777Y6480403D1*
X6118349D1*
X6125593Y6484109D1*
X6132921Y6491353D1*
X6136543Y6498681D1*
X6163778Y6538691D2*
Y6542312D1*
X6167400Y6549641D1*
X6171022Y6553262D1*
X6178350Y6556884D1*
X6192922D1*
X6200166Y6553262D1*
X6203788Y6549641D1*
X6207494Y6542312D1*
Y6535069D1*
X6203788Y6527741D1*
X6196544Y6516875D1*
X6160072Y6480403D1*
X6211116D1*
X6136543Y3109775D2*
X6132921Y3117019D1*
X6125593Y3124347D1*
X6118349Y3127969D1*
X6103777D1*
X6096449Y3124347D1*
X6089205Y3117019D1*
X6085499Y3109775D1*
X6081877Y3098825D1*
Y3080547D1*
X6085499Y3069681D1*
X6089205Y3062353D1*
X6096449Y3055109D1*
X6103777Y3051403D1*
X6118349D1*
X6125593Y3055109D1*
X6132921Y3062353D1*
X6136543Y3069681D1*
X6167400Y3127884D2*
X6207410D1*
X6185594Y3098741D1*
X6196544D1*
X6203788Y3095119D1*
X6207410Y3091497D1*
X6211116Y3080547D1*
Y3073303D1*
X6207410Y3062353D1*
X6200166Y3055025D1*
X6189216Y3051403D1*
X6178266D1*
X6167400Y3055025D1*
X6163778Y3058731D1*
X6160072Y3065975D1*
X2985324Y5120965D2*
Y5044400D1*
X3010846D1*
X3021796Y5048106D1*
X3029124Y5055350D1*
X3032746Y5062678D1*
X3036368Y5073543D1*
Y5091821D1*
X3032746Y5102771D1*
X3029124Y5110015D1*
X3021796Y5117343D1*
X3010846Y5120965D1*
X2985324D1*
X3059898Y5106309D2*
X3067226Y5110015D1*
X3078176Y5120881D1*
Y5044400D1*
X2437191Y3786592D2*
Y3710026D1*
X2462713D1*
X2473663Y3713732D1*
X2480991Y3720976D1*
X2484613Y3728304D1*
X2488235Y3739170D1*
Y3757448D1*
X2484613Y3768398D1*
X2480991Y3775642D1*
X2473663Y3782970D1*
X2462713Y3786592D1*
X2437191D1*
X2515471Y3768314D2*
Y3771936D1*
X2519093Y3779264D1*
X2522715Y3782886D1*
X2530043Y3786508D1*
X2544615D1*
X2551859Y3782886D1*
X2555480Y3779264D1*
X2559187Y3771936D1*
Y3764692D1*
X2555480Y3757364D1*
X2548237Y3746498D1*
X2511765Y3710026D1*
X2562809D1*
X1798643Y5128092D2*
Y5069804D1*
X1795021Y5058854D1*
X1791315Y5055232D1*
X1784071Y5051526D1*
X1776743D1*
X1769499Y5055232D1*
X1765877Y5058854D1*
X1762171Y5069804D1*
Y5077048D1*
X1825878Y5109814D2*
Y5113436D1*
X1829500Y5120764D1*
X1833122Y5124386D1*
X1840450Y5128008D1*
X1855022D1*
X1862266Y5124386D1*
X1865888Y5120764D1*
X1869594Y5113436D1*
Y5106192D1*
X1865888Y5098864D1*
X1858644Y5087998D1*
X1822172Y5051526D1*
X1873216D1*
X5949949Y3713592D2*
Y3655304D1*
X5946327Y3644354D1*
X5942621Y3640732D1*
X5935377Y3637026D1*
X5928049D1*
X5920805Y3640732D1*
X5917184Y3644354D1*
X5913477Y3655304D1*
Y3662548D1*
X5980807Y3713508D2*
X6020816D1*
X5999001Y3684364D1*
X6009951D1*
X6017195Y3680742D1*
X6020816Y3677120D1*
X6024523Y3666170D1*
Y3658926D1*
X6020816Y3647976D1*
X6013573Y3640648D1*
X6002623Y3637026D1*
X5991673D1*
X5980807Y3640648D1*
X5977185Y3644354D1*
X5973479Y3651598D1*
X1806573Y3572340D2*
Y3514053D1*
X1802951Y3503103D1*
X1799245Y3499481D1*
X1792001Y3495775D1*
X1784673D1*
X1777429Y3499481D1*
X1773807Y3503103D1*
X1770101Y3514053D1*
Y3521296D1*
X1873818Y3572256D2*
X1837430D1*
X1833808Y3539490D1*
X1837430Y3543112D1*
X1848380Y3546818D1*
X1859246D1*
X1870196Y3543112D1*
X1877524Y3535868D1*
X1881146Y3524918D1*
Y3517675D1*
X1877524Y3506725D1*
X1870196Y3499396D1*
X1859246Y3495775D1*
X1848380D1*
X1837430Y3499396D1*
X1833808Y3503103D1*
X1830102Y3510346D1*
X1812239Y6675670D2*
Y6617383D1*
X1808617Y6606433D1*
X1804911Y6602811D1*
X1797667Y6599105D1*
X1790339D1*
X1783095Y6602811D1*
X1779473Y6606433D1*
X1775767Y6617383D1*
Y6624626D1*
X1879484Y6664720D2*
X1875862Y6671964D1*
X1864912Y6675586D1*
X1857668D1*
X1846718Y6671964D1*
X1839390Y6661014D1*
X1835768Y6642820D1*
Y6624626D1*
X1839390Y6610055D1*
X1846718Y6602726D1*
X1857668Y6599105D1*
X1861290D1*
X1872156Y6602726D1*
X1879484Y6610055D1*
X1883106Y6621005D1*
Y6624626D1*
X1879484Y6635576D1*
X1872156Y6642820D1*
X1861290Y6646442D1*
X1857668D1*
X1846718Y6642820D1*
X1839390Y6635576D1*
X1835768Y6624626D1*
X1884063Y984715D2*
Y926428D1*
X1880441Y915478D1*
X1876735Y911856D1*
X1869491Y908150D1*
X1862163D1*
X1854919Y911856D1*
X1851297Y915478D1*
X1847591Y926428D1*
Y933671D1*
X1922164Y908150D2*
X1958636Y984631D1*
X1907592D1*
X1626361Y3778592D2*
Y3720304D1*
X1622739Y3709354D1*
X1619033Y3705732D1*
X1611789Y3702026D1*
X1604461D1*
X1597217Y3705732D1*
X1593596Y3709354D1*
X1589889Y3720304D1*
Y3727548D1*
X1649891Y3763936D2*
X1657219Y3767642D1*
X1668169Y3778508D1*
Y3702026D1*
X1728170D2*
Y3778508D1*
X1691698Y3727548D1*
X1746364D1*
X7517546Y5973592D2*
Y5915304D1*
X7513924Y5904354D1*
X7510218Y5900732D1*
X7502974Y5897026D1*
X7495646D1*
X7488402Y5900732D1*
X7484780Y5904354D1*
X7481074Y5915304D1*
Y5922548D1*
X7541075Y5958936D2*
X7548403Y5962642D1*
X7559353Y5973508D1*
Y5897026D1*
X7626598Y5973508D2*
X7590211D1*
X7586589Y5940742D1*
X7590211Y5944364D1*
X7601161Y5948070D1*
X7612026D1*
X7622976Y5944364D1*
X7630304Y5937120D1*
X7633926Y5926170D1*
Y5918926D1*
X7630304Y5907976D1*
X7622976Y5900648D1*
X7612026Y5897026D1*
X7601161D1*
X7590211Y5900648D1*
X7586589Y5904354D1*
X7582882Y5911598D1*
X7519399Y2173592D2*
Y2115304D1*
X7515777Y2104354D1*
X7512071Y2100732D1*
X7504827Y2097026D1*
X7497499D1*
X7490255Y2100732D1*
X7486633Y2104354D1*
X7482927Y2115304D1*
Y2122548D1*
X7542928Y2158936D2*
X7550256Y2162642D1*
X7561206Y2173508D1*
Y2097026D1*
X7628451Y2162642D2*
X7624829Y2169886D1*
X7613879Y2173508D1*
X7606636D1*
X7595686Y2169886D1*
X7588357Y2158936D1*
X7584736Y2140742D1*
Y2122548D1*
X7588357Y2107976D1*
X7595686Y2100648D1*
X7606636Y2097026D1*
X7610257D1*
X7621123Y2100648D1*
X7628451Y2107976D1*
X7632073Y2118926D1*
Y2122548D1*
X7628451Y2133498D1*
X7621123Y2140742D1*
X7610257Y2144364D1*
X7606636D1*
X7595686Y2140742D1*
X7588357Y2133498D1*
X7584736Y2122548D1*
X1628169Y5382092D2*
Y5323804D1*
X1624547Y5312854D1*
X1620841Y5309232D1*
X1613597Y5305526D1*
X1606269D1*
X1599025Y5309232D1*
X1595403Y5312854D1*
X1591697Y5323804D1*
Y5331048D1*
X1651698Y5367436D2*
X1659026Y5371142D1*
X1669976Y5382008D1*
Y5305526D1*
X1708078D2*
X1744550Y5382008D1*
X1693506D1*
X8086838Y2397592D2*
Y2339304D1*
X8083216Y2328354D1*
X8079510Y2324732D1*
X8072266Y2321026D1*
X8064938D1*
X8057694Y2324732D1*
X8054072Y2328354D1*
X8050366Y2339304D1*
Y2346548D1*
X8110367Y2382936D2*
X8117695Y2386642D1*
X8128645Y2397508D1*
Y2321026D1*
X8170368Y2397508D2*
X8159503Y2393886D1*
X8155797Y2386642D1*
Y2379314D1*
X8159503Y2372070D1*
X8166747Y2368364D1*
X8181318Y2364742D1*
X8192268Y2361120D1*
X8199512Y2353792D1*
X8203134Y2346548D1*
Y2335598D1*
X8199512Y2328354D1*
X8195890Y2324648D1*
X8184940Y2321026D1*
X8170368D1*
X8159503Y2324648D1*
X8155797Y2328354D1*
X8152175Y2335598D1*
Y2346548D1*
X8155797Y2353792D1*
X8163125Y2361120D1*
X8173990Y2364742D1*
X8188562Y2368364D1*
X8195890Y2372070D1*
X8199512Y2379314D1*
Y2386642D1*
X8195890Y2393886D1*
X8184940Y2397508D1*
X8170368D1*
X1491781Y1646539D2*
X1550069Y1646538D1*
X1561019Y1642917D1*
X1564641Y1639210D1*
X1568347Y1631967D1*
Y1624639D1*
X1564641Y1617395D1*
X1561019Y1613773D1*
X1550069Y1610067D1*
X1542825D1*
X1491866Y1677396D2*
Y1717406D1*
X1521010Y1695590D1*
Y1706540D1*
X1524632Y1713784D1*
X1528253Y1717405D1*
X1539203Y1721112D1*
X1546447D1*
X1557397Y1717405D1*
X1564725Y1710162D1*
X1568347Y1699212D1*
Y1688262D1*
X1564725Y1677396D1*
X1561019Y1673774D1*
X1553775Y1670068D1*
X1580982Y1744641D2*
Y1813879D1*
X1502731Y1888452D2*
X1495403Y1881208D1*
X1491781Y1870258D1*
Y1855686D1*
X1495403Y1844736D1*
X1502731Y1837408D1*
X1509975D1*
X1517303Y1841114D1*
X1520925Y1844736D1*
X1524547Y1851980D1*
X1531875Y1873880D1*
X1535497Y1881208D1*
X1539203Y1884830D1*
X1546447Y1888452D1*
X1557397D1*
X1564641Y1881208D1*
X1568347Y1870258D1*
Y1855686D1*
X1564641Y1844736D1*
X1557397Y1837408D1*
X1491781Y1911981D2*
X1568347D1*
X1491781Y1963025D2*
X1568347D1*
X1528253Y1911981D2*
Y1963025D1*
X1509975Y2041220D2*
X1502731Y2037598D1*
X1495403Y2030270D1*
X1491781Y2023026D1*
Y2008455D1*
X1495403Y2001126D1*
X1502731Y1993883D1*
X1509975Y1990176D1*
X1520925Y1986555D1*
X1539203D1*
X1550069Y1990176D1*
X1557397Y1993883D1*
X1564641Y2001126D1*
X1568347Y2008455D1*
Y2023026D1*
X1564641Y2030270D1*
X1557397Y2037598D1*
X1550069Y2041220D1*
X4277685Y6131026D2*
Y6207592D1*
X4248541Y6131026D1*
X4219397Y6207592D1*
Y6131026D1*
X4323114Y6207592D2*
X4315786Y6203970D1*
X4308542Y6196642D1*
X4304836Y6189398D1*
X4301214Y6178448D1*
Y6160170D1*
X4304836Y6149304D1*
X4308542Y6141976D1*
X4315786Y6134732D1*
X4323114Y6131026D1*
X4337686D1*
X4344930Y6134732D1*
X4352258Y6141976D1*
X4355880Y6149304D1*
X4359502Y6160170D1*
Y6178448D1*
X4355880Y6189398D1*
X4352258Y6196642D1*
X4344930Y6203970D1*
X4337686Y6207592D1*
X4323114D1*
X4383031D2*
Y6131026D1*
X4408553D1*
X4419503Y6134732D1*
X4426831Y6141976D1*
X4430453Y6149304D1*
X4434075Y6160170D1*
Y6178448D1*
X4430453Y6189398D1*
X4426831Y6196642D1*
X4419503Y6203970D1*
X4408553Y6207592D1*
X4383031D1*
X4457605Y6192936D2*
X4464933Y6196642D1*
X4475883Y6207508D1*
Y6131026D1*
X5939244Y5931650D2*
Y6008215D1*
X5910100Y5931650D1*
X5880956Y6008215D1*
Y5931650D1*
X5984673Y6008215D2*
X5977345Y6004593D1*
X5970101Y5997265D1*
X5966395Y5990021D1*
X5962773Y5979071D1*
Y5960793D1*
X5966395Y5949928D1*
X5970101Y5942600D1*
X5977345Y5935356D1*
X5984673Y5931650D1*
X5999245D1*
X6006489Y5935356D1*
X6013817Y5942600D1*
X6017439Y5949928D1*
X6021061Y5960793D1*
Y5979071D1*
X6017439Y5990021D1*
X6013817Y5997265D1*
X6006489Y6004593D1*
X5999245Y6008215D1*
X5984673D1*
X6044591D2*
Y5931650D1*
X6070112D1*
X6081062Y5935356D1*
X6088391Y5942600D1*
X6092012Y5949928D1*
X6095634Y5960793D1*
Y5979071D1*
X6092012Y5990021D1*
X6088391Y5997265D1*
X6081062Y6004593D1*
X6070112Y6008215D1*
X6044591D1*
X6119164Y5919015D2*
X6188401D1*
X6211931Y6008215D2*
Y5931650D1*
X6237453D1*
X6248403Y5935356D1*
X6255731Y5942600D1*
X6259353Y5949928D1*
X6262975Y5960793D1*
Y5979071D1*
X6259353Y5990021D1*
X6255731Y5997265D1*
X6248403Y6004593D1*
X6237453Y6008215D1*
X6211931D1*
X6333842D2*
X6286504D1*
Y5931650D1*
X6333842D1*
X6286504Y5971743D2*
X6315648D1*
X6412037Y5990021D2*
X6408415Y5997265D1*
X6401087Y6004593D1*
X6393843Y6008215D1*
X6379271D1*
X6371943Y6004593D1*
X6364699Y5997265D1*
X6360993Y5990021D1*
X6357371Y5979071D1*
Y5960793D1*
X6360993Y5949928D1*
X6364699Y5942600D1*
X6371943Y5935356D1*
X6379271Y5931650D1*
X6393843D1*
X6401087Y5935356D1*
X6408415Y5942600D1*
X6412037Y5949928D1*
X5972828Y2468026D2*
Y2544592D1*
X5943684Y2468026D1*
X5914540Y2544592D1*
Y2468026D1*
X6018257Y2544592D2*
X6010929Y2540970D1*
X6003685Y2533642D1*
X5999979Y2526398D1*
X5996357Y2515448D1*
Y2497170D1*
X5999979Y2486304D1*
X6003685Y2478976D1*
X6010929Y2471732D1*
X6018257Y2468026D1*
X6032829D1*
X6040073Y2471732D1*
X6047401Y2478976D1*
X6051023Y2486304D1*
X6054645Y2497170D1*
Y2515448D1*
X6051023Y2526398D1*
X6047401Y2533642D1*
X6040073Y2540970D1*
X6032829Y2544592D1*
X6018257D1*
X6078174D2*
Y2468026D1*
X6103696D1*
X6114646Y2471732D1*
X6121974Y2478976D1*
X6125596Y2486304D1*
X6129218Y2497170D1*
Y2515448D1*
X6125596Y2526398D1*
X6121974Y2533642D1*
X6114646Y2540970D1*
X6103696Y2544592D1*
X6078174D1*
X6152748Y2455392D2*
X6221985D1*
X6245515Y2508120D2*
X6278280D1*
X6289230Y2511826D1*
X6292937Y2515448D1*
X6296559Y2522692D1*
Y2530020D1*
X6292937Y2537264D1*
X6289230Y2540970D1*
X6278280Y2544592D1*
X6245515D1*
Y2468026D1*
X6271037Y2508120D2*
X6296559Y2468026D1*
X6378460D2*
X6349232Y2544592D1*
X6320088Y2468026D1*
X6331038Y2493548D2*
X6367510D1*
X1302951Y3461337D2*
X1335717D1*
X1346667Y3465043D1*
X1350373Y3468665D1*
X1353995Y3475909D1*
Y3483237D1*
X1350373Y3490481D1*
X1346667Y3494187D1*
X1335717Y3497809D1*
X1302951D1*
Y3421243D1*
X1328473Y3461337D2*
X1353995Y3421243D1*
X1377524Y3483152D2*
X1384852Y3486859D1*
X1395802Y3497724D1*
Y3421243D1*
X2429565Y5387120D2*
X2462331D1*
X2473281Y5390826D1*
X2476987Y5394448D1*
X2480609Y5401692D1*
Y5409020D1*
X2476987Y5416264D1*
X2473281Y5419970D1*
X2462331Y5423592D1*
X2429565D1*
Y5347026D1*
X2455087Y5387120D2*
X2480609Y5347026D1*
X2507844Y5405314D2*
Y5408936D1*
X2511466Y5416264D1*
X2515088Y5419886D1*
X2522416Y5423508D1*
X2536988D1*
X2544232Y5419886D1*
X2547854Y5416264D1*
X2551560Y5408936D1*
Y5401692D1*
X2547854Y5394364D1*
X2540610Y5383498D1*
X2504138Y5347026D1*
X2555182D1*
X1967815Y5895017D2*
X1960571Y5902345D1*
X1949621Y5905967D1*
X1935049D1*
X1924099Y5902345D1*
X1916771Y5895017D1*
Y5887773D1*
X1920477Y5880445D1*
X1924099Y5876823D1*
X1931343Y5873201D1*
X1953243Y5865873D1*
X1960571Y5862251D1*
X1964193Y5858545D1*
X1967815Y5851301D1*
Y5840351D1*
X1960571Y5833107D1*
X1949621Y5829401D1*
X1935049D1*
X1924099Y5833107D1*
X1916771Y5840351D1*
X1991344Y5891311D2*
X1998672Y5895017D1*
X2009622Y5905883D1*
Y5829401D1*
X2953948Y6541362D2*
Y6486696D1*
X2957570Y6475746D1*
X2964898Y6468502D1*
X2975848Y6464796D1*
X2983092D1*
X2994042Y6468502D1*
X3001370Y6475746D1*
X3004992Y6486696D1*
Y6541362D1*
X3028521Y6526706D2*
X3035849Y6530412D1*
X3046799Y6541278D1*
Y6464796D1*
X2811691Y3303969D2*
Y3249303D1*
X2815313Y3238353D1*
X2822641Y3231109D1*
X2833591Y3227403D1*
X2840835D1*
X2851785Y3231109D1*
X2859113Y3238353D1*
X2862735Y3249303D1*
Y3303969D1*
X2889971Y3285691D2*
Y3289312D1*
X2893593Y3296641D1*
X2897215Y3300262D1*
X2904543Y3303884D1*
X2919115D1*
X2926359Y3300262D1*
X2929980Y3296641D1*
X2933687Y3289312D1*
Y3282069D1*
X2929980Y3274741D1*
X2922737Y3263875D1*
X2886265Y3227403D1*
X2937309D1*
X7473648Y1951342D2*
Y1896676D1*
X7477270Y1885726D1*
X7484598Y1878482D1*
X7495548Y1874776D1*
X7502792D1*
X7513742Y1878482D1*
X7521070Y1885726D1*
X7524692Y1896676D1*
Y1951342D1*
X7555549Y1951258D2*
X7595559D1*
X7573743Y1922114D1*
X7584693D1*
X7591937Y1918492D1*
X7595559Y1914870D1*
X7599265Y1903920D1*
Y1896676D1*
X7595559Y1885726D1*
X7588315Y1878398D1*
X7577365Y1874776D1*
X7566415D1*
X7555549Y1878398D1*
X7551928Y1882104D1*
X7548221Y1889348D1*
X7471837Y5751342D2*
Y5696676D1*
X7475459Y5685726D1*
X7482787Y5678482D1*
X7493737Y5674776D1*
X7500981D1*
X7511931Y5678482D1*
X7519259Y5685726D1*
X7522881Y5696676D1*
Y5751342D1*
X7582882Y5674776D2*
Y5751258D1*
X7546410Y5700298D1*
X7601076D1*
X7707191Y4481592D2*
Y4426926D1*
X7710813Y4415976D1*
X7718141Y4408732D1*
X7729091Y4405026D1*
X7736335D1*
X7747285Y4408732D1*
X7754613Y4415976D1*
X7758235Y4426926D1*
Y4481592D1*
X7825480Y4481508D2*
X7789093D1*
X7785471Y4448742D1*
X7789093Y4452364D1*
X7800043Y4456070D1*
X7810909D1*
X7821859Y4452364D1*
X7829187Y4445120D1*
X7832809Y4434170D1*
Y4426926D1*
X7829187Y4415976D1*
X7821859Y4408648D1*
X7810909Y4405026D1*
X7800043D1*
X7789093Y4408648D1*
X7785471Y4412354D1*
X7781765Y4419598D1*
X1458594Y5820566D2*
D102*
Y5601847D1*
X1349375Y5711066D2*
X1568094D1*
X1428748Y5377833D2*
X1569132D1*
X5194484Y102922D2*
D103*
Y230391D1*
X5133697Y145459D1*
X5224807D1*
X5264023Y187995D2*
X5330846Y102922D1*
Y187995D2*
X5264023Y102922D1*
X5370061Y230532D2*
Y102922D1*
X5412598D1*
X5430848Y109099D1*
X5443061Y121172D1*
X5449098Y133385D1*
X5455134Y151495D1*
Y181959D1*
X5449098Y200209D1*
X5443061Y212282D1*
X5430848Y224495D1*
X5412598Y230532D1*
X5370061D1*
X5506564Y230391D2*
X5573246D1*
X5536887Y181818D1*
X5555137D1*
X5567210Y175782D1*
X5573246Y169745D1*
X5579423Y151495D1*
Y139422D1*
X5573246Y121172D1*
X5561173Y108959D1*
X5542923Y102922D1*
X5524673D1*
X5506564Y108959D1*
X5500527Y115135D1*
X5494350Y127209D1*
X5630852Y108959D2*
X5624675Y102922D1*
X5618639Y108959D1*
X5624675Y115135D1*
X5630852Y108959D1*
Y96885D1*
X5624675Y84672D1*
X5618639Y78635D1*
X5676245Y200068D2*
Y206105D1*
X5682281Y218318D1*
X5688318Y224355D1*
X5700531Y230391D1*
X5724818D1*
X5736891Y224355D1*
X5742928Y218318D1*
X5749105Y206105D1*
Y194032D1*
X5742928Y181818D1*
X5730855Y163709D1*
X5670068Y102922D1*
X5755141D1*
X5984626Y169745D2*
X5978590Y181959D1*
X5960340Y187995D1*
X5942090D1*
X5923840Y181959D1*
X5917803Y169745D1*
X5923840Y157672D1*
X5936053Y151495D1*
X5966376Y145459D1*
X5978590Y139422D1*
X5984626Y127209D1*
Y121172D1*
X5978590Y109099D1*
X5960340Y102922D1*
X5942090D1*
X5923840Y109099D1*
X5917803Y121172D1*
X6023842Y187995D2*
Y127209D1*
X6029879Y109099D1*
X6042092Y102922D1*
X6060342D1*
X6072415Y109099D1*
X6090665Y127209D1*
Y187995D2*
Y102922D1*
X6129881Y187995D2*
Y102922D1*
Y151495D2*
X6136058Y169745D1*
X6148131Y181959D1*
X6160344Y187995D1*
X6178594D1*
X6402043Y102922D2*
Y230391D1*
X6341256Y145459D1*
X6432366D1*
X6501905Y230391D2*
X6483795Y224355D1*
X6477618Y212282D1*
Y200068D1*
X6483795Y187995D1*
X6495868Y181818D1*
X6520155Y175782D1*
X6538405Y169745D1*
X6550478Y157532D1*
X6556514Y145459D1*
Y127209D1*
X6550478Y115135D1*
X6544441Y108959D1*
X6526191Y102922D1*
X6501905D1*
X6483795Y108959D1*
X6477618Y115135D1*
X6471582Y127209D1*
Y145459D1*
X6477618Y157532D1*
X6489832Y169745D1*
X6507941Y175782D1*
X6532228Y181818D1*
X6544441Y187995D1*
X6550478Y200068D1*
Y212282D1*
X6544441Y224355D1*
X6526191Y230391D1*
X6501905D1*
X6595730Y187995D2*
X6662553Y102922D1*
Y187995D2*
X6595730Y102922D1*
X6774628Y230391D2*
X6713982D1*
X6707946Y175782D1*
X6713982Y181818D1*
X6732232Y187995D1*
X6750342D1*
X6768592Y181818D1*
X6780805Y169745D1*
X6786842Y151495D1*
Y139422D1*
X6780805Y121172D1*
X6768592Y108959D1*
X6750342Y102922D1*
X6732232D1*
X6713982Y108959D1*
X6707946Y115135D1*
X6701769Y127209D1*
X6850344Y102922D2*
X6911131Y230391D1*
X6826058D1*
X3371571Y2365105D2*
X3383784Y2371282D1*
X3402034Y2389391D1*
Y2261922D1*
X3447427Y2359068D2*
Y2365105D1*
X3453463Y2377318D1*
X3459500Y2383355D1*
X3471713Y2389391D1*
X3496000D1*
X3508073Y2383355D1*
X3514109Y2377318D1*
X3520286Y2365105D1*
Y2353032D1*
X3514109Y2340818D1*
X3502036Y2322709D1*
X3441250Y2261922D1*
X3526323D1*
X3565538Y2325657D2*
X3635731D1*
X3681123Y2359068D2*
Y2365105D1*
X3687160Y2377318D1*
X3693196Y2383355D1*
X3705410Y2389391D1*
X3729696D1*
X3741770Y2383355D1*
X3747806Y2377318D1*
X3753983Y2365105D1*
Y2353032D1*
X3747806Y2340818D1*
X3735733Y2322709D1*
X3674946Y2261922D1*
X3760020D1*
X3835735Y2389391D2*
X3817485Y2383355D1*
X3805272Y2365105D1*
X3799235Y2334782D1*
Y2316532D1*
X3805272Y2286209D1*
X3817485Y2267959D1*
X3835735Y2261922D1*
X3847808D1*
X3866058Y2267959D1*
X3878131Y2286209D1*
X3884308Y2316532D1*
Y2334782D1*
X3878131Y2365105D1*
X3866058Y2383355D1*
X3847808Y2389391D1*
X3835735D1*
X3878131Y2365105D2*
X3805272Y2286209D1*
X3929701Y2359068D2*
Y2365105D1*
X3935737Y2377318D1*
X3941774Y2383355D1*
X3953987Y2389391D1*
X3978274D1*
X3990347Y2383355D1*
X3996384Y2377318D1*
X4002561Y2365105D1*
Y2353032D1*
X3996384Y2340818D1*
X3984311Y2322709D1*
X3923524Y2261922D1*
X4008597D1*
X4060026Y2389391D2*
X4126709D1*
X4090349Y2340818D1*
X4108599D1*
X4120672Y2334782D1*
X4126709Y2328745D1*
X4132886Y2310495D1*
Y2298422D1*
X4126709Y2280172D1*
X4114636Y2267959D1*
X4096386Y2261922D1*
X4078136D1*
X4060026Y2267959D1*
X4053990Y2274135D1*
X4047813Y2286209D1*
X4374444Y2389532D2*
X4295548D1*
Y2261922D1*
X4374444D1*
X4295548Y2328745D2*
X4344121D1*
X4450160Y2389532D2*
X4438087Y2383635D1*
X4425873Y2371422D1*
X4419837Y2359209D1*
X4413660Y2340959D1*
Y2310635D1*
X4419837Y2292385D1*
X4425873Y2280312D1*
X4438087Y2268099D1*
X4450160Y2262062D1*
X4474446D1*
X4486660Y2268099D1*
X4498733Y2280312D1*
X4504769Y2292385D1*
X4510946Y2310635D1*
Y2340959D1*
X4504769Y2359209D1*
X4498733Y2371422D1*
X4486660Y2383635D1*
X4474446Y2389532D1*
X4450160D1*
X4468410Y2286349D2*
X4504769Y2249849D1*
X4623022Y2371282D2*
X4616985Y2383355D1*
X4598735Y2389391D1*
X4586662D1*
X4568412Y2383355D1*
X4556199Y2365105D1*
X4550162Y2334782D1*
Y2304459D1*
X4556199Y2280172D1*
X4568412Y2267959D1*
X4586662Y2261922D1*
X4592699D1*
X4610808Y2267959D1*
X4623022Y2280172D1*
X4629058Y2298422D1*
Y2304459D1*
X4623022Y2322709D1*
X4610808Y2334782D1*
X4592699Y2340818D1*
X4586662D1*
X4568412Y2334782D1*
X4556199Y2322709D1*
X4550162Y2304459D1*
X4668274Y2389532D2*
X4716847Y2261922D1*
X4765420Y2389532D1*
X4810813Y2359068D2*
Y2365105D1*
X4816849Y2377318D1*
X4822886Y2383355D1*
X4835099Y2389391D1*
X4859386D1*
X4871459Y2383355D1*
X4877495Y2377318D1*
X4883672Y2365105D1*
Y2353032D1*
X4877495Y2340818D1*
X4865422Y2322709D1*
X4804636Y2261922D1*
X4889709D1*
X5001784Y2389391D2*
X4941138D1*
X4935101Y2334782D1*
X4941138Y2340818D1*
X4959388Y2346995D1*
X4977498D1*
X4995748Y2340818D1*
X5007961Y2328745D1*
X5013998Y2310495D1*
Y2298422D1*
X5007961Y2280172D1*
X4995748Y2267959D1*
X4977498Y2261922D1*
X4959388D1*
X4941138Y2267959D1*
X4935101Y2274135D1*
X4928925Y2286209D1*
X5114000Y2261922D2*
Y2389391D1*
X5053213Y2304459D1*
X5144323D1*
X5256398Y2346995D2*
Y2261922D1*
Y2328745D2*
X5244325Y2340959D1*
X5232112Y2346995D1*
X5214002D1*
X5201789Y2340959D1*
X5189715Y2328745D1*
X5183539Y2310495D1*
Y2298422D1*
X5189715Y2280172D1*
X5201789Y2268099D1*
X5214002Y2261922D1*
X5232112D1*
X5244325Y2268099D1*
X5256398Y2280172D1*
X7984680Y244032D2*
X7978644Y256105D1*
X7960394Y262141D1*
X7948321D1*
X7930071Y256105D1*
X7917857Y237855D1*
X7911821Y207532D1*
Y177209D1*
X7917857Y152922D1*
X7930071Y140709D1*
X7948321Y134672D1*
X7954357D1*
X7972467Y140709D1*
X7984680Y152922D1*
X7990717Y171172D1*
Y177209D1*
X7984680Y195459D1*
X7972467Y207532D1*
X7954357Y213568D1*
X7948321D1*
X7930071Y207532D1*
X7917857Y195459D1*
X7911821Y177209D1*
X8102792Y262141D2*
X8042146D1*
X8036109Y207532D1*
X8042146Y213568D1*
X8060396Y219745D1*
X8078506D1*
X8096756Y213568D1*
X8108969Y201495D1*
X8115006Y183245D1*
Y171172D1*
X8108969Y152922D1*
X8096756Y140709D1*
X8078506Y134672D1*
X8060396D1*
X8042146Y140709D1*
X8036109Y146885D1*
X8029932Y158959D1*
X8154221Y219745D2*
X8221044Y134672D1*
Y219745D2*
X8154221Y134672D1*
X8290583Y262141D2*
X8272473Y256105D1*
X8266296Y244032D1*
Y231818D1*
X8272473Y219745D1*
X8284546Y213568D1*
X8308833Y207532D1*
X8327083Y201495D1*
X8339156Y189282D1*
X8345193Y177209D1*
Y158959D1*
X8339156Y146885D1*
X8333120Y140709D1*
X8314870Y134672D1*
X8290583D1*
X8272473Y140709D1*
X8266296Y146885D1*
X8260260Y158959D1*
Y177209D1*
X8266296Y189282D1*
X8278510Y201495D1*
X8296620Y207532D1*
X8320906Y213568D1*
X8333120Y219745D1*
X8339156Y231818D1*
Y244032D1*
X8333120Y256105D1*
X8314870Y262141D1*
X8290583D1*
X8457268Y244032D2*
X8451231Y256105D1*
X8432981Y262141D1*
X8420908D1*
X8402658Y256105D1*
X8390445Y237855D1*
X8384408Y207532D1*
Y177209D1*
X8390445Y152922D1*
X8402658Y140709D1*
X8420908Y134672D1*
X8426945D1*
X8445054Y140709D1*
X8457268Y152922D1*
X8463304Y171172D1*
Y177209D1*
X8457268Y195459D1*
X8445054Y207532D1*
X8426945Y213568D1*
X8420908D1*
X8402658Y207532D1*
X8390445Y195459D1*
X8384408Y177209D1*
X6266998Y3043258D2*
X6394608D1*
Y3116117D1*
X6346035Y3155333D2*
Y3228192D1*
X6333822D1*
X6321608Y3222156D1*
X6315572Y3216119D1*
X6309535Y3203906D1*
Y3185656D1*
X6315572Y3173583D1*
X6327785Y3161369D1*
X6346035Y3155333D1*
X6358108D1*
X6376358Y3161369D1*
X6388431Y3173583D1*
X6394608Y3185656D1*
Y3203906D1*
X6388431Y3216119D1*
X6376358Y3228192D1*
X6266999Y3340268D2*
X6394608Y3340267D1*
X6327785Y3340268D2*
X6315572Y3328194D1*
X6309535Y3315981D1*
Y3297731D1*
X6315572Y3285658D1*
X6327785Y3273444D1*
X6346035Y3267408D1*
X6358108D1*
X6376358Y3273444D1*
X6388431Y3285658D1*
X6394608Y3297731D1*
Y3315981D1*
X6388431Y3328194D1*
X6376358Y3340267D1*
X6415666Y3379483D2*
Y3494879D1*
X6327785Y3534095D2*
Y3588705D1*
X6321608Y3606955D1*
X6315572Y3613132D1*
X6303498Y3619168D1*
X6291285D1*
X6279212Y3613132D1*
X6273035Y3606955D1*
X6266999Y3588705D1*
Y3534095D1*
X6394608D1*
X6327785Y3576632D2*
X6394608Y3619168D1*
X6297322Y3749493D2*
X6285248Y3743457D1*
X6273035Y3731243D1*
X6266998Y3719170D1*
Y3694884D1*
X6273035Y3682670D1*
X6285248Y3670597D1*
X6297322Y3664420D1*
X6315572Y3658384D1*
X6346035D1*
X6364145Y3664420D1*
X6376358Y3670597D1*
X6388431Y3682670D1*
X6394608Y3694884D1*
Y3719170D1*
X6388431Y3731243D1*
X6376358Y3743457D1*
X6364145Y3749493D1*
X3284307Y1345122D2*
D104*
Y1170146D1*
X3196932Y1257522D2*
X3371907D1*
X4967278Y1324440D2*
Y1149464D1*
X4879903Y1236840D2*
X5054878D1*
X4085898Y1384595D2*
X4198205D1*
X3168594Y3718917D2*
D103*
X3238786D1*
X2568053Y3170324D2*
X2440443D1*
X2568053Y3085251D2*
X2482980Y3170324D1*
X2513443Y3140001D2*
X2440443Y3085252D1*
X6037053Y3097324D2*
X5909443D1*
X6037053Y3012251D2*
X5951980Y3097324D1*
X5982443Y3067001D2*
X5909443Y3012252D1*
X1810236Y6505360D2*
D105*
X1805407Y6515018D1*
X1795636Y6524789D1*
X1785978Y6529618D1*
X1766548D1*
X1756778Y6524789D1*
X1747119Y6515018D1*
X1742178Y6505360D1*
X1737348Y6490760D1*
Y6466389D1*
X1742178Y6451901D1*
X1747119Y6442131D1*
X1756778Y6432472D1*
X1766548Y6427531D1*
X1785978D1*
X1795636Y6432472D1*
X1805407Y6442131D1*
X1810236Y6451901D1*
Y6466389D1*
X1785978D1*
X1841609Y6495589D2*
Y6427531D1*
Y6476160D2*
X1856209Y6490760D1*
X1865980Y6495589D1*
X1880467D1*
X1890238Y6490760D1*
X1895067Y6476160D1*
Y6427531D1*
X1984727Y6529618D2*
Y6427531D1*
Y6480989D2*
X1975069Y6490760D1*
X1965298Y6495589D1*
X1950698D1*
X1941040Y6490760D1*
X1931269Y6480989D1*
X1926440Y6466389D1*
Y6456731D1*
X1931269Y6442131D1*
X1941040Y6432472D1*
X1950698Y6427531D1*
X1965298D1*
X1975069Y6432472D1*
X1984727Y6442131D1*
X1595198Y5875894D2*
X1604969Y5880835D1*
X1619569Y5895323D1*
Y5793348D1*
X1655883Y5871065D2*
Y5875894D1*
X1660712Y5885665D1*
X1665541Y5890494D1*
X1675312Y5895323D1*
X1694741D1*
X1704400Y5890494D1*
X1709229Y5885665D1*
X1714171Y5875894D1*
Y5866235D1*
X1709229Y5856465D1*
X1699571Y5841977D1*
X1650941Y5793348D1*
X1719000D1*
X1750372Y5844335D2*
X1806526D1*
X1847670Y5895323D2*
X1901016D1*
X1871928Y5856465D1*
X1886528D1*
X1896187Y5851635D1*
X1901016Y5846806D1*
X1905957Y5832206D1*
Y5822548D1*
X1901016Y5807948D1*
X1891357Y5798177D1*
X1876757Y5793348D1*
X1862157D1*
X1847670Y5798177D1*
X1842840Y5803118D1*
X1837899Y5812777D1*
X1966530Y5895323D2*
X1951930Y5890494D1*
X1942159Y5875894D1*
X1937330Y5851635D1*
Y5837035D1*
X1942159Y5812777D1*
X1951930Y5798177D1*
X1966530Y5793348D1*
X1976188D1*
X1990788Y5798177D1*
X2000447Y5812777D1*
X2005388Y5837035D1*
Y5851635D1*
X2000447Y5875894D1*
X1990788Y5890494D1*
X1976188Y5895323D1*
X1966530D1*
X2000447Y5875894D2*
X1942159Y5812777D1*
X2036761Y5861406D2*
X2065961Y5793348D1*
X2095049Y5861406D1*
X2096830Y782629D2*
X2092001Y792288D1*
X2082230Y802059D1*
X2072572Y806888D1*
X2053142D1*
X2043372Y802059D1*
X2033713Y792288D1*
X2028772Y782629D1*
X2023942Y768029D1*
Y743659D1*
X2028772Y729171D1*
X2033713Y719400D1*
X2043372Y709742D1*
X2053142Y704800D1*
X2072572D1*
X2082230Y709742D1*
X2092001Y719400D1*
X2096830Y729171D1*
Y743659D1*
X2072572D1*
X2023942Y552913D2*
Y450826D1*
X2057972D1*
X2072572Y455767D1*
X2082342Y465426D1*
X2087172Y475196D1*
X2092001Y489684D1*
Y514055D1*
X2087172Y528655D1*
X2082342Y538313D1*
X2072572Y548084D1*
X2057972Y552913D1*
X2023942D1*
X2123373Y501813D2*
X2179527D1*
X2023942Y283013D2*
Y180925D1*
X2057972D1*
X2072572Y185867D1*
X2082342Y195525D1*
X2087172Y205296D1*
X2092001Y219784D1*
Y244154D1*
X2087172Y258754D1*
X2082342Y268413D1*
X2072572Y278184D1*
X2057972Y283013D1*
X2023942D1*
X2167061Y275657D2*
Y188169D1*
X2123373Y231857D2*
X2210861D1*
X5363708Y2697589D2*
D12*
X5371036Y2701295D1*
X5381986Y2712161D1*
Y2635680D1*
X5320464Y6007622D2*
X5327792Y6011328D1*
X5338742Y6022194D1*
Y5945712D1*
X5390454D2*
Y6022194D1*
X5353982Y5971234D1*
X5408648D1*
X3315608Y6004000D2*
Y6007622D1*
X3319229Y6014950D1*
X3322851Y6018572D1*
X3330179Y6022194D1*
X3344751D1*
X3351995Y6018572D1*
X3355617Y6014950D1*
X3359323Y6007622D1*
Y6000378D1*
X3355617Y5993050D1*
X3348373Y5982184D1*
X3311901Y5945712D1*
X3362945D1*
X3400085Y6022194D2*
X3389135Y6018572D1*
X3381807Y6007622D1*
X3378185Y5989428D1*
Y5978478D1*
X3381807Y5960284D1*
X3389135Y5949334D1*
X3400085Y5945712D1*
X3407329D1*
X3418279Y5949334D1*
X3425523Y5960284D1*
X3429229Y5978478D1*
Y5989428D1*
X3425523Y6007622D1*
X3418279Y6018572D1*
X3407329Y6022194D1*
X3400085D1*
X3425523Y6007622D2*
X3381807Y5960284D1*
X3309153Y2712161D2*
X3349163D1*
X3327347Y2683017D1*
X3338297D1*
X3345541Y2679395D1*
X3349163Y2675774D1*
X3352869Y2664824D1*
Y2657580D1*
X3349163Y2646630D1*
X3341919Y2639302D1*
X3330969Y2635680D1*
X3320019D1*
X3309153Y2639302D1*
X3305531Y2643008D1*
X3301825Y2650252D1*
X3375437Y2712161D2*
X3415447D1*
X3393631Y2683017D1*
X3404581D1*
X3411825Y2679395D1*
X3415447Y2675774D1*
X3419153Y2664824D1*
Y2657580D1*
X3415447Y2646630D1*
X3408203Y2639302D1*
X3397253Y2635680D1*
X3386303D1*
X3375437Y2639302D1*
X3371815Y2643008D1*
X3368109Y2650252D1*
X3851792Y3016052D2*
Y3067039D1*
X3827477Y3033066D1*
X3863921D1*
X3903476Y3016052D2*
Y3067039D1*
X3879161Y3033066D1*
X3915605D1*
X3848433Y4955018D2*
Y5006006D1*
X3824118Y4972033D1*
X3860562D1*
X3880688Y5006006D2*
X3907361D1*
X3892817Y4986576D1*
X3900117D1*
X3904946Y4984162D1*
X3907361Y4981747D1*
X3909831Y4974447D1*
Y4969618D1*
X3907361Y4962318D1*
X3902531Y4957433D1*
X3895231Y4955018D1*
X3887931D1*
X3880688Y4957433D1*
X3878273Y4959903D1*
X3875802Y4964733D1*
X3832479Y5655391D2*
Y5706379D1*
X3808164Y5672406D1*
X3844608D1*
X3862319Y5694250D2*
Y5696664D1*
X3864733Y5701550D1*
X3867148Y5703964D1*
X3872033Y5706379D1*
X3881748D1*
X3886577Y5703964D1*
X3888992Y5701550D1*
X3891463Y5696664D1*
Y5691835D1*
X3888992Y5686950D1*
X3884163Y5679706D1*
X3859848Y5655391D1*
X3893877D1*
X4833075Y5686472D2*
X4859748D1*
X4845204Y5667042D1*
X4852504D1*
X4857334Y5664628D1*
X4859748Y5662213D1*
X4862219Y5654913D1*
Y5650084D1*
X4859748Y5642784D1*
X4854919Y5637899D1*
X4847619Y5635484D1*
X4840319D1*
X4833075Y5637899D1*
X4830660Y5640369D1*
X4828190Y5645199D1*
X4901774Y5635484D2*
Y5686472D1*
X4877459Y5652499D1*
X4913903D1*
X4825518Y5006006D2*
X4852191D1*
X4837647Y4986576D1*
X4844947D1*
X4849776Y4984162D1*
X4852191Y4981747D1*
X4854662Y4974447D1*
Y4969618D1*
X4852191Y4962318D1*
X4847362Y4957433D1*
X4840062Y4955018D1*
X4832762D1*
X4825518Y4957433D1*
X4823103Y4959903D1*
X4820632Y4964733D1*
X4899045Y5006006D2*
X4874787D1*
X4872372Y4984162D1*
X4874787Y4986576D1*
X4882087Y4989047D1*
X4889331D1*
X4896631Y4986576D1*
X4901516Y4981747D1*
X4903931Y4974447D1*
Y4969618D1*
X4901516Y4962318D1*
X4896631Y4957433D1*
X4889331Y4955018D1*
X4882087D1*
X4874787Y4957433D1*
X4872372Y4959903D1*
X4869902Y4964733D1*
X6388939Y5282870D2*
D108*
X6235807D1*
X6388939Y5333913D2*
X6388938Y5231826D1*
X6235807Y5068192D2*
X6388938D1*
X6235807Y5126480D1*
X6388938Y5184767D1*
X6235807D1*
X6352551Y4911802D2*
X6367038Y4919045D1*
X6381695Y4933701D1*
X6388938Y4948189D1*
Y4977333D1*
X6381695Y4991989D1*
X6367038Y5006477D1*
X6352551Y5013889D1*
X6330651Y5021133D1*
X6294095D1*
X6272363Y5013889D1*
X6257707Y5006477D1*
X6243219Y4991989D1*
X6235807Y4977333D1*
Y4948189D1*
X6243219Y4933702D1*
X6257707Y4919045D1*
X6272363Y4911802D1*
X6352382Y4857330D2*
X6359626D1*
X6374282Y4850087D1*
X6381526Y4842843D1*
X6388770Y4828187D1*
Y4799043D1*
X6381526Y4784555D1*
X6374282Y4777311D1*
X6359626Y4769899D1*
X6345138D1*
X6330482Y4777311D1*
X6308751Y4791799D1*
X6235807Y4864743D1*
Y4762655D1*
X6359626Y4715596D2*
X6367038Y4700940D1*
X6388770Y4679040D1*
X6235807D1*
X6388770Y4617325D2*
Y4537306D1*
X6330482Y4580937D1*
Y4559037D1*
X6323239Y4544550D1*
X6315995Y4537306D1*
X6294095Y4529894D1*
X6279607D1*
X6257707Y4537306D1*
X6243051Y4551794D1*
X6235807Y4573694D1*
Y4595594D1*
X6243051Y4617325D1*
X6250463Y4624569D1*
X6264951Y4631981D1*
X6388770Y4439035D2*
X6381526Y4460935D1*
X6359626Y4475591D1*
X6323239Y4482835D1*
X6301339D1*
X6264951Y4475591D1*
X6243051Y4460935D1*
X6235807Y4439035D1*
Y4424547D1*
X6243051Y4402647D1*
X6264951Y4388159D1*
X6301339Y4380747D1*
X6323239D1*
X6359626Y4388159D1*
X6381526Y4402647D1*
X6388770Y4424547D1*
Y4439035D1*
X6359626Y4388159D2*
X6264951Y4475591D1*
X6103189Y5282870D2*
X5950057D1*
X6103189Y5333913D2*
X6103188Y5231826D1*
X5950057Y5068192D2*
X6103188D1*
X5950057Y5126480D1*
X6103188Y5184767D1*
X5950057D1*
X6066801Y4911802D2*
X6081288Y4919045D1*
X6095945Y4933701D1*
X6103188Y4948189D1*
Y4977333D1*
X6095945Y4991989D1*
X6081288Y5006477D1*
X6066801Y5013889D1*
X6044901Y5021133D1*
X6008345D1*
X5986613Y5013889D1*
X5971957Y5006477D1*
X5957469Y4991989D1*
X5950057Y4977333D1*
Y4948189D1*
X5957469Y4933702D1*
X5971957Y4919045D1*
X5986613Y4911802D1*
X6103020Y4777311D2*
Y4850087D1*
X6037488Y4857330D1*
X6044732Y4850087D1*
X6052145Y4828187D1*
Y4806455D1*
X6044732Y4784555D1*
X6030245Y4769899D1*
X6008345Y4762655D1*
X5993857D1*
X5971957Y4769899D1*
X5957301Y4784555D1*
X5950057Y4806455D1*
Y4828187D1*
X5957301Y4850087D1*
X5964713Y4857330D1*
X5979201Y4864743D1*
X6073876Y4715596D2*
X6081288Y4700940D1*
X6103020Y4679040D1*
X5950057D1*
X6081289Y4544550D2*
X6095776Y4551794D1*
X6103020Y4573694D1*
Y4588181D1*
X6095776Y4610081D1*
X6073876Y4624737D1*
X6037489Y4631981D1*
X6001101D1*
X5971957Y4624737D1*
X5957301Y4610081D1*
X5950057Y4588181D1*
Y4580937D1*
X5957301Y4559206D1*
X5971957Y4544550D1*
X5993857Y4537306D1*
X6001101D1*
X6023001Y4544550D1*
X6037489Y4559206D1*
X6044732Y4580937D1*
Y4588181D1*
X6037489Y4610081D1*
X6023001Y4624737D1*
X6001101Y4631981D1*
X6103020Y4446447D2*
X6095776Y4468347D1*
X6073876Y4483003D1*
X6037489Y4490247D1*
X6015589D1*
X5979201Y4483003D1*
X5957301Y4468347D1*
X5950057Y4446447D1*
Y4431959D1*
X5957301Y4410059D1*
X5979201Y4395572D1*
X6015589Y4388159D1*
X6037489D1*
X6073876Y4395572D1*
X6095776Y4410059D1*
X6103020Y4431959D1*
Y4446447D1*
X6073876Y4395572D2*
X5979201Y4483003D1*
X6388942Y1819246D2*
X6235810D1*
X6388942Y1870290D2*
Y1768203D1*
X6235810Y1604569D2*
X6388942Y1604568D1*
X6235810Y1662856D1*
X6388942Y1721144D1*
X6235810D1*
X6352554Y1448178D2*
X6367042Y1455422D1*
X6381698Y1470078D1*
X6388942Y1484566D1*
Y1513710D1*
X6381698Y1528366D1*
X6367042Y1542854D1*
X6352554Y1550266D1*
X6330654Y1557510D1*
X6294098D1*
X6272366Y1550266D1*
X6257710Y1542854D1*
X6243223Y1528366D1*
X6235810Y1513710D1*
Y1484566D1*
X6243223Y1470078D1*
X6257710Y1455422D1*
X6272366Y1448178D1*
X6352386Y1393707D2*
X6359629D1*
X6374286Y1386463D1*
X6381529Y1379219D1*
X6388773Y1364563D1*
Y1335419D1*
X6381529Y1320932D1*
X6374286Y1313688D1*
X6359630Y1306276D1*
X6345142D1*
X6330486Y1313688D1*
X6308754Y1328176D1*
X6235810Y1401119D1*
Y1299032D1*
X6359630Y1251973D2*
X6367042Y1237317D1*
X6388773Y1215417D1*
X6235810D1*
X6388773Y1153702D2*
Y1073683D1*
X6330486Y1117314D1*
Y1095414D1*
X6323242Y1080926D1*
X6315998Y1073683D1*
X6294098Y1066270D1*
X6279610D1*
X6257710Y1073683D1*
X6243054Y1088170D1*
X6235810Y1110070D1*
Y1131970D1*
X6243054Y1153702D1*
X6250466Y1160946D1*
X6264954Y1168358D1*
X6388773Y975411D2*
X6381530Y997311D1*
X6359630Y1011968D1*
X6323242Y1019211D1*
X6301342D1*
X6264954Y1011968D1*
X6243054Y997311D1*
X6235810Y975411D1*
Y960924D1*
X6243054Y939024D1*
X6264954Y924536D1*
X6301342Y917124D1*
X6323242D1*
X6359630Y924536D1*
X6381530Y939024D1*
X6388773Y960924D1*
Y975411D1*
X6359630Y924536D2*
X6264954Y1011968D1*
X6103192Y1819246D2*
X5950060D1*
X6103192Y1870290D2*
Y1768203D1*
X5950060Y1604569D2*
X6103192Y1604568D1*
X5950060Y1662856D1*
X6103192Y1721144D1*
X5950060D1*
X6066804Y1448178D2*
X6081292Y1455422D1*
X6095948Y1470078D1*
X6103192Y1484566D1*
Y1513710D1*
X6095948Y1528366D1*
X6081292Y1542854D1*
X6066804Y1550266D1*
X6044904Y1557510D1*
X6008348D1*
X5986616Y1550266D1*
X5971960Y1542854D1*
X5957473Y1528366D1*
X5950060Y1513710D1*
Y1484566D1*
X5957473Y1470078D1*
X5971960Y1455422D1*
X5986616Y1448178D1*
X6103023Y1313688D2*
Y1386463D1*
X6037492Y1393707D1*
X6044736Y1386463D1*
X6052148Y1364563D1*
Y1342832D1*
X6044736Y1320932D1*
X6030248Y1306276D1*
X6008348Y1299032D1*
X5993860D1*
X5971960Y1306276D1*
X5957304Y1320932D1*
X5950060Y1342832D1*
Y1364563D1*
X5957304Y1386463D1*
X5964716Y1393707D1*
X5979204Y1401119D1*
X6073880Y1251973D2*
X6081292Y1237317D1*
X6103023Y1215417D1*
X5950060D1*
X6081292Y1080926D2*
X6095780Y1088170D1*
X6103023Y1110070D1*
Y1124558D1*
X6095780Y1146458D1*
X6073880Y1161114D1*
X6037492Y1168358D1*
X6001104D1*
X5971960Y1161114D1*
X5957304Y1146458D1*
X5950060Y1124558D1*
Y1117314D1*
X5957304Y1095583D1*
X5971960Y1080926D1*
X5993860Y1073683D1*
X6001104D1*
X6023004Y1080926D1*
X6037492Y1095583D1*
X6044736Y1117314D1*
Y1124558D1*
X6037492Y1146458D1*
X6023004Y1161114D1*
X6001104Y1168358D1*
X6103023Y982824D2*
X6095780Y1004724D1*
X6073880Y1019380D1*
X6037492Y1026624D1*
X6015592D1*
X5979204Y1019380D1*
X5957304Y1004724D1*
X5950060Y982824D1*
Y968336D1*
X5957304Y946436D1*
X5979204Y931948D1*
X6015592Y924536D1*
X6037492D1*
X6073880Y931948D1*
X6095780Y946436D1*
X6103023Y968336D1*
Y982824D1*
X6073880Y931948D2*
X5979204Y1019380D1*
X3029312Y2528459D2*
D103*
X3023276Y2540532D1*
X3011062Y2552745D1*
X2998989Y2558782D1*
X2974703D1*
X2962489Y2552745D1*
X2950416Y2540532D1*
X2944239Y2528459D1*
X2938203Y2510209D1*
Y2479745D1*
X2944239Y2461635D1*
X2950416Y2449422D1*
X2962489Y2437349D1*
X2974703Y2431172D1*
X2998989D1*
X3011062Y2437349D1*
X3023276Y2449422D1*
X3029312Y2461635D1*
Y2479745D1*
X2998989D1*
X3068528Y2516245D2*
Y2431172D1*
Y2491959D2*
X3086778Y2510209D1*
X3098991Y2516245D1*
X3117101D1*
X3129314Y2510209D1*
X3135351Y2491959D1*
Y2431172D1*
X3247426Y2558782D2*
Y2431172D1*
Y2497995D2*
X3235353Y2510209D1*
X3223140Y2516245D1*
X3204890D1*
X3192817Y2510209D1*
X3180603Y2497995D1*
X3174567Y2479745D1*
Y2467672D1*
X3180603Y2449422D1*
X3192817Y2437349D1*
X3204890Y2431172D1*
X3223140D1*
X3235353Y2437349D1*
X3247426Y2449422D1*
X2938203Y2812882D2*
Y2685272D1*
X2977418Y2770345D2*
Y2685272D1*
Y2746059D2*
X2995668Y2764309D1*
X3007882Y2770345D1*
X3025991D1*
X3038205Y2764309D1*
X3044241Y2746059D1*
Y2685272D1*
X2974703Y2288862D2*
X2962489Y2282825D1*
X2950416Y2270612D1*
X2944239Y2258539D1*
X2938203Y2240289D1*
Y2209825D1*
X2944239Y2191715D1*
X2950416Y2179502D1*
X2962489Y2167429D1*
X2974703Y2161252D1*
X2998989D1*
X3011062Y2167429D1*
X3023276Y2179502D1*
X3029312Y2191715D1*
X3035349Y2209825D1*
Y2240289D1*
X3029312Y2258539D1*
X3023276Y2270612D1*
X3011062Y2282825D1*
X2998989Y2288862D1*
X2974703D1*
X3074564Y2246325D2*
Y2185539D1*
X3080601Y2167429D1*
X3092814Y2161252D1*
X3111064D1*
X3123137Y2167429D1*
X3141387Y2185539D1*
Y2246325D2*
Y2161252D1*
X3198853Y2288862D2*
Y2185539D1*
X3204890Y2167429D1*
X3217103Y2161252D1*
X3229176D1*
X3180603Y2246325D2*
X3223140D1*
X7761058Y1637285D2*
X7712344Y1764894D1*
X7663771Y1637285D1*
X7682021Y1679821D2*
X7742808D1*
X7806450Y1734431D2*
Y1740467D1*
X7812487Y1752681D1*
X7818523Y1758717D1*
X7830737Y1764754D1*
X7855023D1*
X7867097Y1758717D1*
X7873133Y1752681D1*
X7879310Y1740467D1*
Y1728394D1*
X7873133Y1716181D1*
X7861060Y1698071D1*
X7800273Y1637285D1*
X7885347D1*
X7663771Y1256959D2*
Y1129349D1*
X7718521D1*
X7736771Y1135526D1*
X7742808Y1141562D1*
X7748844Y1153636D1*
Y1171886D1*
X7742808Y1184099D1*
X7736771Y1190136D1*
X7718521Y1196172D1*
X7736771Y1202349D1*
X7742808Y1208386D1*
X7748844Y1220459D1*
Y1232672D1*
X7742808Y1244745D1*
X7736771Y1250922D1*
X7718521Y1256959D1*
X7663771D1*
Y1196172D2*
X7718521D1*
X7788060Y1232532D2*
X7800273Y1238709D1*
X7818523Y1256818D1*
Y1129349D1*
X7663771Y1002935D2*
Y875326D1*
X7718521D1*
X7736771Y881503D1*
X7742808Y887539D1*
X7748844Y899612D1*
Y917862D1*
X7742808Y930076D1*
X7736771Y936112D1*
X7718521Y942149D1*
X7736771Y948326D1*
X7742808Y954362D1*
X7748844Y966435D1*
Y978649D1*
X7742808Y990722D1*
X7736771Y996899D1*
X7718521Y1002935D1*
X7663771D1*
Y942149D2*
X7718521D1*
X7794237Y972472D2*
Y978508D1*
X7800273Y990722D1*
X7806310Y996758D1*
X7818523Y1002795D1*
X7842810D1*
X7854883Y996758D1*
X7860920Y990722D1*
X7867097Y978508D1*
Y966435D1*
X7860920Y954222D1*
X7848847Y936112D1*
X7788060Y875326D1*
X7873133D1*
X7761058Y1383261D2*
X7712344Y1510871D1*
X7663771Y1383261D1*
X7682021Y1425798D2*
X7742808D1*
X7800273Y1486444D2*
X7812487Y1492621D1*
X7830737Y1510730D1*
Y1383261D1*
X7761058Y5437285D2*
X7712344Y5564894D1*
X7663771Y5437285D1*
X7682021Y5479821D2*
X7742808D1*
X7806450Y5534431D2*
Y5540467D1*
X7812487Y5552681D1*
X7818523Y5558717D1*
X7830737Y5564754D1*
X7855023D1*
X7867097Y5558717D1*
X7873133Y5552681D1*
X7879310Y5540467D1*
Y5528394D1*
X7873133Y5516181D1*
X7861060Y5498071D1*
X7800273Y5437285D1*
X7885347D1*
X7663771Y5056959D2*
Y4929349D1*
X7718521D1*
X7736771Y4935526D1*
X7742808Y4941562D1*
X7748844Y4953636D1*
Y4971886D1*
X7742808Y4984099D1*
X7736771Y4990136D1*
X7718521Y4996172D1*
X7736771Y5002349D1*
X7742808Y5008386D1*
X7748844Y5020459D1*
Y5032672D1*
X7742808Y5044745D1*
X7736771Y5050922D1*
X7718521Y5056959D1*
X7663771D1*
Y4996172D2*
X7718521D1*
X7788060Y5032532D2*
X7800273Y5038709D1*
X7818523Y5056818D1*
Y4929349D1*
X7663771Y4802935D2*
Y4675326D1*
X7718521D1*
X7736771Y4681503D1*
X7742808Y4687539D1*
X7748844Y4699612D1*
Y4717862D1*
X7742808Y4730076D1*
X7736771Y4736112D1*
X7718521Y4742149D1*
X7736771Y4748326D1*
X7742808Y4754362D1*
X7748844Y4766435D1*
Y4778649D1*
X7742808Y4790722D1*
X7736771Y4796899D1*
X7718521Y4802935D1*
X7663771D1*
Y4742149D2*
X7718521D1*
X7794237Y4772472D2*
Y4778508D1*
X7800273Y4790722D1*
X7806310Y4796758D1*
X7818523Y4802795D1*
X7842810D1*
X7854883Y4796758D1*
X7860920Y4790722D1*
X7867097Y4778508D1*
Y4766435D1*
X7860920Y4754222D1*
X7848847Y4736112D1*
X7788060Y4675326D1*
X7873133D1*
X7761058Y5183261D2*
X7712344Y5310871D1*
X7663771Y5183261D1*
X7682021Y5225798D2*
X7742808D1*
X7800273Y5286444D2*
X7812487Y5292621D1*
X7830737Y5310730D1*
Y5183261D1*
X7447100Y4059977D2*
D104*
X7242924D1*
X7379041Y3997232D2*
X7242924D1*
X7340183D2*
X7369383Y3968032D1*
X7379041Y3948491D1*
Y3919515D1*
X7369383Y3899974D1*
X7340183Y3890316D1*
X7242924D1*
X7344900Y3827570D2*
Y3715263D1*
X7447100Y2985513D2*
X7437441Y3005055D1*
X7417900Y3024372D1*
X7398583Y3034255D1*
X7369383Y3043913D1*
X7320641D1*
X7291666Y3034255D1*
X7272124Y3024372D1*
X7252807Y3005055D1*
X7242924Y2985514D1*
Y2946655D1*
X7252807Y2927338D1*
X7272124Y2907797D1*
X7291666Y2898138D1*
X7320641Y2888480D1*
X7369383D1*
X7398583Y2898138D1*
X7417900Y2907797D1*
X7437441Y2927338D1*
X7447100Y2946655D1*
Y2985513D1*
X7379041Y2825735D2*
X7281783D1*
X7252807Y2816076D1*
X7242924Y2796535D1*
Y2767335D1*
X7252807Y2748018D1*
X7281783Y2718818D1*
X7379041D2*
X7242924D1*
X7447100Y2626873D2*
X7281783D1*
X7252808Y2617214D1*
X7242924Y2597673D1*
Y2578356D1*
X7379041Y2656073D2*
Y2588014D1*
X7344900Y2515611D2*
Y2403303D1*
X8304410Y4059977D2*
X8100234D1*
X8236351Y3997232D2*
X8100234D1*
X8197493D2*
X8226693Y3968032D1*
X8236351Y3948491D1*
Y3919515D1*
X8226693Y3899974D1*
X8197493Y3890316D1*
X8100234D1*
X8289697Y3740195D2*
X8114722D1*
X8202097Y3827570D2*
Y3652595D1*
X8304410Y3048905D2*
X8294751Y3068447D1*
X8275210Y3087764D1*
X8255893Y3097647D1*
X8226693Y3107305D1*
X8177951D1*
X8148976Y3097647D1*
X8129434Y3087764D1*
X8110117Y3068447D1*
X8100234Y3048906D1*
Y3010047D1*
X8110117Y2990730D1*
X8129434Y2971189D1*
X8148976Y2961530D1*
X8177951Y2951872D1*
X8226693D1*
X8255893Y2961530D1*
X8275210Y2971189D1*
X8294751Y2990730D1*
X8304410Y3010047D1*
Y3048905D1*
X8236351Y2889127D2*
X8139093D1*
X8110117Y2879468D1*
X8100234Y2859927D1*
Y2830727D1*
X8110117Y2811410D1*
X8139093Y2782210D1*
X8236351D2*
X8100234D1*
X8304410Y2690265D2*
X8139093D1*
X8110118Y2680606D1*
X8100234Y2661065D1*
Y2641748D1*
X8236351Y2719465D2*
Y2651406D1*
X8289697Y2491627D2*
X8114722D1*
X8202097Y2579003D2*
Y2404027D1*
M02*
