  0
SECTION
  2
HEADER
  9
$ACADVER
  1
AC1015
  9
$ACADMAINTVER
 70
     6
  9
$DWGCODEPAGE
  3
ANSI_1252
  9
$INSBASE
 10
0.0
 20
0.0
 30
0.0
  9
$EXTMIN
 10
0.0
 20
0.0
 30
0.0
  9
$EXTMAX
 10
138.0
 20
74.0
 30
0.0
  9
$LIMMIN
 10
0.0
 20
0.0
  9
$LIMMAX
 10
420.0
 20
297.0
  9
$ORTHOMODE
 70
     0
  9
$REGENMODE
 70
     1
  9
$FILLMODE
 70
     1
  9
$QTEXTMODE
 70
     0
  9
$MIRRTEXT
 70
     1
  9
$LTSCALE
 40
1.0
  9
$ATTMODE
 70
     1
  9
$TEXTSIZE
 40
3.5
  9
$TRACEWID
 40
1.0
  9
$TEXTSTYLE
  7
Standard
  9
$CLAYER
  8
0
  9
$CELTYPE
  6
ByLayer
  9
$CECOLOR
 62
   256
  9
$CELTSCALE
 40
1.0
  9
$DISPSILH
 70
     0
  9
$DIMSCALE
 40
1.0
  9
$DIMASZ
 40
6.0
  9
$DIMEXO
 40
1.0
  9
$DIMDLI
 40
3.75
  9
$DIMRND
 40
0.0
  9
$DIMDLE
 40
0.0
  9
$DIMEXE
 40
1.0
  9
$DIMTP
 40
0.0
  9
$DIMTM
 40
0.0
  9
$DIMTXT
 40
3.5
  9
$DIMCEN
 40
2.5
  9
$DIMTSZ
 40
0.0
  9
$DIMTOL
 70
     0
  9
$DIMLIM
 70
     0
  9
$DIMTIH
 70
     1
  9
$DIMTOH
 70
     1
  9
$DIMSE1
 70
     0
  9
$DIMSE2
 70
     0
  9
$DIMTAD
 70
     1
  9
$DIMZIN
 70
     0
  9
$DIMBLK
  1

  9
$DIMASO
 70
     1
  9
$DIMSHO
 70
     1
  9
$DIMPOST
  1

  9
$DIMAPOST
  1

  9
$DIMALT
 70
     0
  9
$DIMALTD
 70
     3
  9
$DIMALTF
 40
0.0393700787
  9
$DIMLFAC
 40
1.0
  9
$DIMTOFL
 70
     1
  9
$DIMTVP
 40
0.0
  9
$DIMTIX
 70
     0
  9
$DIMSOXD
 70
     0
  9
$DIMSAH
 70
     0
  9
$DIMBLK1
  1

  9
$DIMBLK2
  1

  9
$DIMSTYLE
  2
ISO-25
  9
$DIMCLRD
 70
     0
  9
$DIMCLRE
 70
     0
  9
$DIMCLRT
 70
     0
  9
$DIMTFAC
 40
1.0
  9
$DIMGAP
 40
1.524
  9
$DIMJUST
 70
     0
  9
$DIMSD1
 70
     0
  9
$DIMSD2
 70
     0
  9
$DIMTOLJ
 70
     0
  9
$DIMTZIN
 70
     0
  9
$DIMALTZ
 70
     0
  9
$DIMALTTZ
 70
     0
  9
$DIMUPT
 70
     0
  9
$DIMDEC
 70
     3
  9
$DIMTDEC
 70
     3
  9
$DIMALTU
 70
     2
  9
$DIMALTTD
 70
     3
  9
$DIMTXSTY
  7
Standard
  9
$DIMAUNIT
 70
     0
  9
$DIMADEC
 70
     2
  9
$DIMALTRND
 40
0.0
  9
$DIMAZIN
 70
     0
  9
$DIMDSEP
 70
    44
  9
$DIMATFIT
 70
     3
  9
$DIMFRAC
 70
     0
  9
$DIMLDRBLK
  1

  9
$DIMLUNIT
 70
     2
  9
$DIMLWD
 70
    -2
  9
$DIMLWE
 70
    -2
  9
$DIMTMOVE
 70
     0
  9
$LUNITS
 70
     2
  9
$LUPREC
 70
     2
  9
$SKETCHINC
 40
1.0
  9
$FILLETRAD
 40
10.0
  9
$AUNITS
 70
     0
  9
$AUPREC
 70
     2
  9
$MENU
  1
.
  9
$ELEVATION
 40
0.0
  9
$PELEVATION
 40
0.0
  9
$THICKNESS
 40
0.0
  9
$LIMCHECK
 70
     0
  9
$CHAMFERA
 40
0.0
  9
$CHAMFERB
 40
0.0
  9
$CHAMFERC
 40
0.0
  9
$CHAMFERD
 40
0.0
  9
$SKPOLY
 70
     0
  9
$TDCREATE
 40
2460321.626077269
  9
$TDUCREATE
 40
2460321.584410602
  9
$TDUPDATE
 40
2460321.626138357
  9
$TDUUPDATE
 40
2460321.58447169
  9
$TDINDWG
 40
0.0000000116
  9
$TDUSRTIMER
 40
0.0000000116
  9
$USRTIMER
 70
     1
  9
$ANGBASE
 50
0.0
  9
$ANGDIR
 70
     0
  9
$PDMODE
 70
     0
  9
$PDSIZE
 40
-1.0
  9
$PLINEWID
 40
0.0
  9
$SPLFRAME
 70
     0
  9
$SPLINETYPE
 70
     6
  9
$SPLINESEGS
 70
     8
  9
$HANDSEED
  5
16A
  9
$SURFTAB1
 70
     6
  9
$SURFTAB2
 70
     6
  9
$SURFTYPE
 70
     6
  9
$SURFU
 70
     6
  9
$SURFV
 70
     6
  9
$UCSBASE
  2

  9
$UCSNAME
  2

  9
$UCSORG
 10
0.0
 20
0.0
 30
0.0
  9
$UCSXDIR
 10
1.0
 20
0.0
 30
0.0
  9
$UCSYDIR
 10
0.0
 20
1.0
 30
0.0
  9
$UCSORTHOREF
  2

  9
$UCSORTHOVIEW
 70
     0
  9
$UCSORGTOP
 10
0.0
 20
0.0
 30
0.0
  9
$UCSORGBOTTOM
 10
0.0
 20
0.0
 30
0.0
  9
$UCSORGLEFT
 10
0.0
 20
0.0
 30
0.0
  9
$UCSORGRIGHT
 10
0.0
 20
0.0
 30
0.0
  9
$UCSORGFRONT
 10
0.0
 20
0.0
 30
0.0
  9
$UCSORGBACK
 10
0.0
 20
0.0
 30
0.0
  9
$PUCSBASE
  2

  9
$PUCSNAME
  2

  9
$PUCSORG
 10
0.0
 20
0.0
 30
0.0
  9
$PUCSXDIR
 10
1.0
 20
0.0
 30
0.0
  9
$PUCSYDIR
 10
0.0
 20
1.0
 30
0.0
  9
$PUCSORTHOREF
  2

  9
$PUCSORTHOVIEW
 70
     0
  9
$PUCSORGTOP
 10
0.0
 20
0.0
 30
0.0
  9
$PUCSORGBOTTOM
 10
0.0
 20
0.0
 30
0.0
  9
$PUCSORGLEFT
 10
0.0
 20
0.0
 30
0.0
  9
$PUCSORGRIGHT
 10
0.0
 20
0.0
 30
0.0
  9
$PUCSORGFRONT
 10
0.0
 20
0.0
 30
0.0
  9
$PUCSORGBACK
 10
0.0
 20
0.0
 30
0.0
  9
$USERI1
 70
     0
  9
$USERI2
 70
     0
  9
$USERI3
 70
     0
  9
$USERI4
 70
     0
  9
$USERI5
 70
     0
  9
$USERR1
 40
0.0
  9
$USERR2
 40
0.0
  9
$USERR3
 40
0.0
  9
$USERR4
 40
0.0
  9
$USERR5
 40
0.0
  9
$WORLDVIEW
 70
     1
  9
$SHADEDGE
 70
     3
  9
$SHADEDIF
 70
    70
  9
$TILEMODE
 70
     1
  9
$MAXACTVP
 70
    64
  9
$PINSBASE
 10
0.0
 20
0.0
 30
0.0
  9
$PLIMCHECK
 70
     0
  9
$PEXTMIN
 10
1.0000000000E+20
 20
1.0000000000E+20
 30
1.0000000000E+20
  9
$PEXTMAX
 10
-1.0000000000E+20
 20
-1.0000000000E+20
 30
-1.0000000000E+20
  9
$PLIMMIN
 10
0.0
 20
0.0
  9
$PLIMMAX
 10
420.0
 20
297.0
  9
$UNITMODE
 70
     0
  9
$VISRETAIN
 70
     1
  9
$PLINEGEN
 70
     0
  9
$PSLTSCALE
 70
     1
  9
$TREEDEPTH
 70
  3020
  9
$CMLSTYLE
  2
Standard
  9
$CMLJUST
 70
     0
  9
$CMLSCALE
 40
20.0
  9
$PROXYGRAPHICS
 70
     1
  9
$MEASUREMENT
 70
     1
  9
$CELWEIGHT
370
    -1
  9
$ENDCAPS
280
     0
  9
$JOINSTYLE
280
     0
  9
$LWDISPLAY
290
     1
  9
$INSUNITS
 70
     4
  9
$HYPERLINKBASE
  1

  9
$STYLESHEET
  1

  9
$XEDIT
290
     1
  9
$CEPSNTYPE
380
     0
  9
$PSTYLEMODE
290
     1
  9
$FINGERPRINTGUID
  2
{FDA506C9-5386-4A8E-BC7B-295229B66CFD}
  9
$VERSIONGUID
  2
{FAEB1C32-E019-11D5-929B-00C0DF256EC4}
  9
$EXTNAMES
290
     1
  9
$PSVPSCALE
 40
0.0
  9
$OLESTARTUP
290
     0
  0
ENDSEC
  0
SECTION
  2
CLASSES
  0
CLASS
  1
ACDBDICTIONARYWDFLT
  2
AcDbDictionaryWithDefault
  3
ObjectDBX Classes
 90
        0
280
     0
281
     0
  0
CLASS
  1
VISUALSTYLE
  2
AcDbVisualStyle
  3
ObjectDBX Classes
 90
     4095
280
     0
281
     0
  0
CLASS
  1
MATERIAL
  2
AcDbMaterial
  3
ObjectDBX Classes
 90
     1153
280
     0
281
     0
  0
CLASS
  1
SCALE
  2
AcDbScale
  3
ObjectDBX Classes
 90
     1153
280
     0
281
     0
  0
CLASS
  1
TABLESTYLE
  2
AcDbTableStyle
  3
ObjectDBX Classes
 90
     4095
280
     0
281
     0
  0
CLASS
  1
MLEADERSTYLE
  2
AcDbMLeaderStyle
  3
ACDB_MLEADERSTYLE_CLASS
 90
     4095
280
     0
281
     0
  0
CLASS
  1
SUN
  2
AcDbSun
  3
SCENEOE
 90
     1153
280
     0
281
     0
  0
CLASS
  1
ACDBPLACEHOLDER
  2
AcDbPlaceHolder
  3
ObjectDBX Classes
 90
        0
280
     0
281
     0
  0
CLASS
  1
LAYOUT
  2
AcDbLayout
  3
ObjectDBX Classes
 90
        0
280
     0
281
     0
  0
ENDSEC
  0
SECTION
  2
TABLES
  0
TABLE
  2
VPORT
  5
8
330
0
100
AcDbSymbolTable
 70
     1
  0
VPORT
  5
29
330
8
100
AcDbSymbolTableRecord
100
AcDbViewportTableRecord
  2
*Active
 70
     0
 10
0.0
 20
0.0
 11
1.0
 21
1.0
 12
69.0
 22
37.0
 13
0.0
 23
0.0
 14
10.0
 24
10.0
 15
10.0
 25
10.0
 16
0.0
 26
0.0
 36
1.0
 17
0.0
 27
0.0
 37
0.0
 40
75.48
 41
1.8648648649
 42
50.0
 43
0.0
 44
0.0
 50
0.0
 51
0.0
 71
     0
 72
   100
 73
     1
 74
     3
 75
     0
 76
     0
 77
     0
 78
     0
281
     0
 65
     1
110
0.0
120
0.0
130
0.0
111
1.0
121
0.0
131
0.0
112
0.0
122
1.0
132
0.0
 79
     0
146
0.0
  0
ENDTAB
  0
TABLE
  2
LTYPE
  5
5
330
0
100
AcDbSymbolTable
 70
     6
  0
LTYPE
  5
14
330
5
100
AcDbSymbolTableRecord
100
AcDbLinetypeTableRecord
  2
ByBlock
 70
     0
  3

 72
    65
 73
     0
 40
0.0
  0
LTYPE
  5
15
330
5
100
AcDbSymbolTableRecord
100
AcDbLinetypeTableRecord
  2
ByLayer
 70
     0
  3

 72
    65
 73
     0
 40
0.0
  0
LTYPE
  5
16
330
5
100
AcDbSymbolTableRecord
100
AcDbLinetypeTableRecord
  2
Continuous
 70
     0
  3
Solid line
 72
    65
 73
     0
 40
0.0
  0
LTYPE
  5
6E
330
5
100
AcDbSymbolTableRecord
100
AcDbLinetypeTableRecord
  2
HIDDEN
 70
     0
  3
Hidden __ __ __ __ __ __ __ __ __ __ __ __ __ __
 72
    65
 73
     2
 40
1.905
 49
1.27
 74
     0
 49
-0.635
 74
     0
  0
LTYPE
  5
6F
330
5
100
AcDbSymbolTableRecord
100
AcDbLinetypeTableRecord
  2
PHANTOM
 70
     0
  3
Phantom ______  __  __  ______  __  __  ______
 72
    65
 73
     6
 40
12.7
 49
6.35
 74
     0
 49
-1.27
 74
     0
 49
1.27
 74
     0
 49
-1.27
 74
     0
 49
1.27
 74
     0
 49
-1.27
 74
     0
  0
LTYPE
  5
70
330
5
100
AcDbSymbolTableRecord
100
AcDbLinetypeTableRecord
  2
CENTER
 70
     0
  3
Center ____ _ ____ _ ____ _ ____ _ ____ _ ____
 72
    65
 73
     4
 40
10.16
 49
6.35
 74
     0
 49
-1.27
 74
     0
 49
1.27
 74
     0
 49
-1.27
 74
     0
  0
LTYPE
  5
71
330
5
100
AcDbSymbolTableRecord
100
AcDbLinetypeTableRecord
  2
CENTERX2
 70
     0
  3
Center (2x) ________  __  ________  __  _____
 72
    65
 73
     4
 40
20.32
 49
12.7
 74
     0
 49
-2.54
 74
     0
 49
2.54
 74
     0
 49
-2.54
 74
     0
  0
LTYPE
  5
72
330
5
100
AcDbSymbolTableRecord
100
AcDbLinetypeTableRecord
  2
DOT2
 70
     0
  3
Dot (.5x) ........................................
 72
    65
 73
     2
 40
0.635
 49
0.0
 74
     0
 49
-0.635
 74
     0
  0
ENDTAB
  0
TABLE
  2
LAYER
  5
2
330
0
100
AcDbSymbolTable
 70
     1
  0
LAYER
  5
10
330
2
100
AcDbSymbolTableRecord
100
AcDbLayerTableRecord
  2
0
 70
     0
 62
     7
  6
Continuous
370
    -3
390
F
  0
ENDTAB
  0
TABLE
  2
STYLE
  5
3
330
0
100
AcDbSymbolTable
 70
     2
  0
STYLE
  5
11
330
3
100
AcDbSymbolTableRecord
100
AcDbTextStyleTableRecord
  2
Standard
 70
     0
 40
0.0
 41
1.0
 50
0.0
 71
     0
 42
3.5
  3
txt
  4

  0
STYLE
  5
167
330
3
100
AcDbSymbolTableRecord
100
AcDbTextStyleTableRecord
  2
SLDTEXTSTYLE0
 70
     0
 40
0.0
 41
0.7
 50
0.0
 71
     0
 42
3.5
  3
TXT
  4

  0
ENDTAB
  0
TABLE
  2
VIEW
  5
6
330
0
100
AcDbSymbolTable
 70
     0
  0
ENDTAB
  0
TABLE
  2
UCS
  5
7
330
0
100
AcDbSymbolTable
 70
     0
  0
ENDTAB
  0
TABLE
  2
APPID
  5
9
330
0
100
AcDbSymbolTable
 70
     1
  0
APPID
  5
12
330
9
100
AcDbSymbolTableRecord
100
AcDbRegAppTableRecord
  2
ACAD
 70
     0
  0
ENDTAB
  0
TABLE
  2
DIMSTYLE
  5
A
330
0
100
AcDbSymbolTable
 70
     1
100
AcDbDimStyleTable
  0
DIMSTYLE
105
27
330
A
100
AcDbSymbolTableRecord
100
AcDbDimStyleTableRecord
  2
ISO-25
 70
     0
 41
2.5
 42
0.625
 43
3.75
 44
1.25
 73
     0
 74
     0
 77
     1
 78
     8
140
2.5
141
2.5
143
0.0393700787
147
0.625
171
     3
172
     1
178
     0
271
     2
272
     2
274
     3
278
    44
283
     0
284
     8
340
11
  0
ENDTAB
  0
TABLE
  2
BLOCK_RECORD
  5
1
330
0
100
AcDbSymbolTable
 70
     1
  0
BLOCK_RECORD
  5
1F
330
1
100
AcDbSymbolTableRecord
100
AcDbBlockTableRecord
  2
*Model_Space
340
22
  0
BLOCK_RECORD
  5
1B
330
1
100
AcDbSymbolTableRecord
100
AcDbBlockTableRecord
  2
*Paper_Space
340
1E
  0
BLOCK_RECORD
  5
23
330
1
100
AcDbSymbolTableRecord
100
AcDbBlockTableRecord
  2
*Paper_Space0
340
26
  0
ENDTAB
  0
ENDSEC
  0
SECTION
  2
BLOCKS
  0
BLOCK
  5
20
330
1F
100
AcDbEntity
  8
0
100
AcDbBlockBegin
  2
*Model_Space
 70
     0
 10
0.0
 20
0.0
 30
0.0
  3
*Model_Space
  1

  0
ENDBLK
  5
21
330
1F
100
AcDbEntity
  8
0
100
AcDbBlockEnd
  0
BLOCK
  5
1C
330
1B
100
AcDbEntity
 67
     1
  8
0
100
AcDbBlockBegin
  2
*Paper_Space
 70
     0
 10
0.0
 20
0.0
 30
0.0
  3
*Paper_Space
  1

  0
ENDBLK
  5
1D
330
1B
100
AcDbEntity
 67
     1
  8
0
100
AcDbBlockEnd
  0
BLOCK
  5
24
330
23
100
AcDbEntity
  8
0
100
AcDbBlockBegin
  2
*Paper_Space0
 70
     0
 10
0.0
 20
0.0
 30
0.0
  3
*Paper_Space0
  1

  0
ENDBLK
  5
25
330
23
100
AcDbEntity
  8
0
100
AcDbBlockEnd
  0
ENDSEC
  0
SECTION
  2
ENTITIES
  0
LINE
  5
73
330
1F
100
AcDbEntity
  8
0
  6
Continuous
 62
     7
370
    25
100
AcDbLine
 10
96.9902138061
 20
33.9483050661
 30
0.0
 11
96.9902138061
 21
36.5059973738
 31
0.0
  0
LINE
  5
74
330
1F
100
AcDbEntity
  8
0
  6
Continuous
 62
     7
370
    25
100
AcDbLine
 10
96.9902138061
 20
36.5059973738
 30
0.0
 11
96.4517522676
 21
36.5059973738
 31
0.0
  0
LINE
  5
75
330
1F
100
AcDbEntity
  8
0
  6
Continuous
 62
     7
370
    25
100
AcDbLine
 10
96.4517522676
 20
36.5059973738
 30
0.0
 11
96.4517522676
 21
36.1911936879
 31
0.0
  0
SPLINE
  5
76
330
1F
100
AcDbEntity
  8
0
  6
Continuous
 62
     7
370
    25
100
AcDbSpline
210
0.0
220
0.0
230
1.0
 70
     8
 71
     3
 72
    15
 73
    11
 74
     0
 42
0.000000001
 43
0.00000001
 40
0.0
 40
0.0
 40
0.0
 40
0.0
 40
0.1373326587675224
 40
0.2684223790574854
 40
0.3932053799591951
 40
0.5164303771821779
 40
0.6377928828173024
 40
0.7580612519913736
 40
0.8777193330221501
 40
1.0
 40
1.0
 40
1.0
 40
1.0
 10
96.45175226761266
 20
36.19119368789072
 30
0.0
 10
96.4365202243935
 20
36.21917037806521
 30
0.0
 10
96.40674856399244
 20
36.27385197967536
 30
0.0
 10
96.3520555269505
 20
36.34725120107992
 30
0.0
 10
96.28922195079289
 20
36.4090659774679
 30
0.0
 10
96.22050564020765
 20
36.4605892211882
 30
0.0
 10
96.14569832952498
 20
36.50074653054008
 30
0.0
 10
96.06680322522845
 20
36.52936367596169
 30
0.0
 10
95.98449527358919
 20
36.54796085508629
 30
0.0
 10
95.92834757923734
 20
36.54989275030076
 30
0.0
 10
95.89996941504856
 20
36.55086916865996
 30
0.0
  0
SPLINE
  5
77
330
1F
100
AcDbEntity
  8
0
  6
Continuous
 62
     7
370
    25
100
AcDbSpline
210
0.0
220
0.0
230
1.0
 70
     8
 71
     3
 72
    11
 73
     7
 74
     0
 42
0.000000001
 43
0.00000001
 40
0.0
 40
0.0
 40
0.0
 40
0.0
 40
0.232851034100663
 40
0.4741678510282077
 40
0.7313385461287226
 40
1.0
 40
1.0
 40
1.0
 40
1.0
 10
95.89996941504856
 20
36.55086916865996
 30
0.0
 10
95.87936332682376
 20
36.54990426331151
 30
0.0
 10
95.8374019732511
 20
36.5479393714772
 30
0.0
 10
95.7734469655502
 20
36.53651742542245
 30
0.0
 10
95.70856919949406
 20
36.5158643749953
 30
0.0
 10
95.66587403876254
 20
36.49726904801207
 30
0.0
 10
95.64405995992036
 20
36.48776820712149
 30
0.0
  0
LINE
  5
78
330
1F
100
AcDbEntity
  8
0
  6
Continuous
 62
     7
370
    25
100
AcDbLine
 10
95.6440599599
 20
36.4877682071
 30
0.0
 11
95.8389718189
 21
35.9556167648
 31
0.0
  0
SPLINE
  5
79
330
1F
100
AcDbEntity
  8
0
  6
Continuous
 62
     7
370
    25
100
AcDbSpline
210
0.0
220
0.0
230
1.0
 70
     8
 71
     3
 72
    11
 73
     7
 74
     0
 42
0.000000001
 43
0.00000001
 40
0.0
 40
0.0
 40
0.0
 40
0.0
 40
0.3035967495723873
 40
0.5706450181692272
 40
0.8010704299308459
 40
1.0
 40
1.0
 40
1.0
 40
1.0
 10
95.8389718188947
 20
35.9556167648138
 30
0.0
 10
95.85639415576173
 20
35.96403439561399
 30
0.0
 10
95.88914144225943
 20
35.97985630111093
 30
0.0
 10
95.9366848161986
 20
35.99852777962909
 30
0.0
 10
95.97983239934018
 20
36.00992020325344
 30
0.0
 10
96.0071871750525
 20
36.01162005270466
 30
0.0
 10
96.01986124197164
 20
36.01240763019841
 30
0.0
  0
SPLINE
  5
7A
330
1F
100
AcDbEntity
  8
0
  6
Continuous
 62
     7
370
    25
100
AcDbSpline
210
0.0
220
0.0
230
1.0
 70
     8
 71
     3
 72
    23
 73
    19
 74
     0
 42
0.000000001
 43
0.00000001
 40
0.0
 40
0.0
 40
0.0
 40
0.0
 40
0.0340145111526613
 40
0.0669124038090281
 40
0.1011407022045742
 40
0.1363808922681619
 40
0.1735979957406226
 40
0.2140756260844537
 40
0.2579797804939576
 40
0.305417222645033
 40
0.3586847121323472
 40
0.420923911433766
 40
0.4926910011447099
 40
0.5741308488820719
 40
0.6651821528112482
 40
0.766512664051458
 40
0.8783143413429167
 40
1.0
 40
1.0
 40
1.0
 40
1.0
 10
96.01986124197164
 20
36.01240763019841
 30
0.0
 10
96.0318280258857
 20
36.01188573975393
 30
0.0
 10
96.05536875160597
 20
36.01085909133296
 30
0.0
 10
96.09011420415932
 20
36.00206106287838
 30
0.0
 10
96.12283718508615
 20
35.98688913536364
 30
0.0
 10
96.15511461311627
 20
35.96745239061668
 30
0.0
 10
96.18440015704547
 20
35.94043386169752
 30
0.0
 10
96.21366761192279
 20
35.90915511716284
 30
0.0
 10
96.23945966033044
 20
35.87053734666737
 30
0.0
 10
96.26667775128814
 20
35.82755380683692
 30
0.0
 10
96.28985298255189
 20
35.77494199281298
 30
0.0
 10
96.30972502986388
 20
35.71213432890322
 30
0.0
 10
96.32743118338011
 20
35.63840408727718
 30
0.0
 10
96.33961543448103
 20
35.55335979633274
 30
0.0
 10
96.35139200235236
 20
35.45782440649178
 30
0.0
 10
96.35840170474899
 20
35.35109669981706
 30
0.0
 10
96.36362612460161
 20
35.23351415960158
 30
0.0
 10
96.3639455628846
 20
35.15143730290688
 30
0.0
 10
96.36411204325368
 20
35.10866163660867
 30
0.0
  0
LINE
  5
7B
330
1F
100
AcDbEntity
  8
0
  6
Continuous
 62
     7
370
    25
100
AcDbLine
 10
96.3641120433
 20
35.1086616366
 30
0.0
 11
96.3620086779
 21
34.9838619571
 31
0.0
  0
LINE
  5
7C
330
1F
100
AcDbEntity
  8
0
  6
Continuous
 62
     7
370
    25
100
AcDbLine
 10
96.3620086779
 20
34.9838619571
 30
0.0
 11
96.3620086779
 21
33.9483050661
 31
0.0
  0
LINE
  5
7D
330
1F
100
AcDbEntity
  8
0
  6
Continuous
 62
     7
370
    25
100
AcDbLine
 10
96.3620086779
 20
33.9483050661
 30
0.0
 11
96.9902138061
 21
33.9483050661
 31
0.0
  0
SPLINE
  5
7E
330
1F
100
AcDbEntity
  8
0
  6
Continuous
 62
     7
370
    25
100
AcDbSpline
210
0.0
220
0.0
230
1.0
 70
     8
 71
     3
 72
    23
 73
    19
 74
     0
 42
0.000000001
 43
0.00000001
 40
0.0
 40
0.0
 40
0.0
 40
0.0
 40
0.0622757783707683
 40
0.1239040620075139
 40
0.1850672407687307
 40
0.2468401515202063
 40
0.3084353298497773
 40
0.3702412507091056
 40
0.4325865888798511
 40
0.495924581661237
 40
0.5593510709509198
 40
0.6219426542010863
 40
0.6843928672351794
 40
0.7469858082645202
 40
0.8094414645316977
 40
0.8725078327139388
 40
0.9357692970662291
 40
1.0
 40
1.0
 40
1.0
 40
1.0
 10
100.4831156877204
 20
49.17136145678755
 30
0.0
 10
100.4478082054858
 20
49.17083255875142
 30
0.0
 10
100.3775603405443
 20
49.1697802617464
 30
0.0
 10
100.2729494815699
 20
49.16100822126149
 30
0.0
 10
100.1691752512687
 20
49.1472318204119
 30
0.0
 10
100.06660919323
 20
49.12644616534121
 30
0.0
 10
99.96451765015648
 20
49.10177096609782
 30
0.0
 10
99.86424221932457
 20
49.06946219632904
 30
0.0
 10
99.7642010015899
 20
49.0334479838001
 30
0.0
 10
99.66596299488226
 20
48.99040034638445
 30
0.0
 10
99.56939107334856
 20
48.94340996171522
 30
0.0
 10
99.47674758635327
 20
48.8900976638127
 30
0.0
 10
99.38647705831625
 20
48.83374423195353
 30
0.0
 10
99.30057982994138
 20
48.77101442312892
 30
0.0
 10
99.21744686117766
 20
48.70418356414118
 30
0.0
 10
99.13751286158968
 20
48.63293985151032
 30
0.0
 10
99.0614792987636
 20
48.55609544338475
 30
0.0
 10
99.01376485646028
 20
48.50180033285032
 30
0.0
 10
98.98972626464344
 20
48.47444639268498
 30
0.0
  0
LINE
  5
7F
330
1F
100
AcDbEntity
  8
0
  6
Continuous
 62
     7
370
    25
100
AcDbLine
 10
98.9897262646
 20
48.4744463927
 30
0.0
 11
99.4503632839
 21
48.0341419055
 31
0.0
  0
SPLINE
  5
80
330
1F
100
AcDbEntity
  8
0
  6
Continuous
 62
     7
370
    25
100
AcDbSpline
210
0.0
220
0.0
230
1.0
 70
     8
 71
     3
 72
    15
 73
    11
 74
     0
 42
0.000000001
 43
0.00000001
 40
0.0
 40
0.0
 40
0.0
 40
0.0
 40
0.1394064381817418
 40
0.2723044483741576
 40
0.3995253362717596
 40
0.5228108782578247
 40
0.6426627165918708
 40
0.7610226208095248
 40
0.879800796783806
 40
1.0
 40
1.0
 40
1.0
 40
1.0
 10
99.4503632838742
 20
48.03414190550549
 30
0.0
 10
99.48943826856667
 20
48.07454550516842
 30
0.0
 10
99.5657639554624
 20
48.15346639334291
 30
0.0
 10
99.68875336042821
 20
48.25795069422922
 30
0.0
 10
99.81665786349438
 20
48.34502422177154
 30
0.0
 10
99.94698933786033
 20
48.41835699229306
 30
0.0
 10
100.0820920689348
 20
48.47383845961174
 30
0.0
 10
100.2204039012468
 20
48.51426873939113
 30
0.0
 10
100.3628079965294
 20
48.53891755282287
 30
0.0
 10
100.4591816109266
 20
48.54173781330646
 30
0.0
 10
100.5076549505409
 20
48.54315632858241
 30
0.0
  0
SPLINE
  5
81
330
1F
100
AcDbEntity
  8
0
  6
Continuous
 62
     7
370
    25
100
AcDbSpline
210
0.0
220
0.0
230
1.0
 70
     8
 71
     3
 72
    23
 73
    19
 74
     0
 42
0.000000001
 43
0.00000001
 40
0.0
 40
0.0
 40
0.0
 40
0.0
 40
0.0647145165408314
 40
0.1277069683294522
 40
0.1888821628171131
 40
0.2491582987223303
 40
0.3096610287488856
 40
0.3702248860571834
 40
0.4323322219725831
 40
0.4957818589938714
 40
0.5593040765204291
 40
0.6218605583615243
 40
0.6833215373325039
 40
0.7445229747823341
 40
0.8060883712105081
 40
0.8689943146702046
 40
0.9334190568081341
 40
1.0
 40
1.0
 40
1.0
 40
1.0
 10
100.5076549505409
 20
48.54315632858241
 30
0.0
 10
100.5481360797625
 20
48.54203565192782
 30
0.0
 10
100.6280211281841
 20
48.539824120023
 30
0.0
 10
100.7453133131404
 20
48.52361140986063
 30
0.0
 10
100.857509349832
 20
48.49604099066485
 30
0.0
 10
100.9649933030723
 20
48.45804384592226
 30
0.0
 10
101.0674488967131
 20
48.40887755733865
 30
0.0
 10
101.1650909416399
 20
48.34858017834202
 30
0.0
 10
101.2576787054409
 20
48.27769628002136
 30
0.0
 10
101.343989157391
 20
48.19659261892705
 30
0.0
 10
101.4229429255678
 20
48.10798077449648
 30
0.0
 10
101.4927036070215
 20
48.01343214787592
 30
0.0
 10
101.5511393680062
 20
47.91316334468376
 30
0.0
 10
101.5990966465281
 20
47.80818981365373
 30
0.0
 10
101.6364535126444
 20
47.69802568532486
 30
0.0
 10
101.6631310084901
 20
47.58274512655168
 30
0.0
 10
101.6785605591396
 20
47.46221084709749
 30
0.0
 10
101.6808635229795
 20
47.38027254206168
 30
0.0
 10
101.6820339569511
 20
47.33862908499268
 30
0.0
  0
SPLINE
  5
82
330
1F
100
AcDbEntity
  8
0
  6
Continuous
 62
     7
370
    25
100
AcDbSpline
210
0.0
220
0.0
230
1.0
 70
     8
 71
     3
 72
    31
 73
    27
 74
     0
 42
0.000000001
 43
0.00000001
 40
0.0
 40
0.0
 40
0.0
 40
0.0
 40
0.0459858533955726
 40
0.0906390618643941
 40
0.1344852733868695
 40
0.177331356125941
 40
0.2192648329782478
 40
0.2607850023581468
 40
0.3023165723378485
 40
0.3434357294037522
 40
0.384181473765632
 40
0.4243757389977454
 40
0.4641811219517825
 40
0.5040119825276116
 40
0.5438224623104053
 40
0.5838024645760219
 40
0.6244185350988872
 40
0.6655475595785362
 40
0.7066749396536359
 40
0.7478269788975747
 40
0.7888951165570504
 40
0.8302193579728189
 40
0.8717069369478642
 40
0.9137338536047402
 40
0.9565878279841921
 40
0.9999999999999999
 40
0.9999999999999999
 40
0.9999999999999999
 40
0.9999999999999999
 10
101.6820339569511
 20
47.33862908499268
 30
0.0
 10
101.6816966512286
 20
47.30940079312751
 30
0.0
 10
101.6810318147193
 20
47.25179122933909
 30
0.0
 10
101.6737540034036
 20
47.16657069552388
 30
0.0
 10
101.6620350110716
 20
47.08388663063875
 30
0.0
 10
101.6450747257245
 20
47.00386427900673
 30
0.0
 10
101.6238657221717
 20
46.92643429254014
 30
0.0
 10
101.5989827317418
 20
46.8509286866864
 30
0.0
 10
101.5677673862786
 20
46.77839077890708
 30
0.0
 10
101.5331178818295
 20
46.70797808849127
 30
0.0
 10
101.4928209074489
 20
46.64161191383694
 30
0.0
 10
101.4493733352629
 20
46.57832625839639
 30
0.0
 10
101.4022615367767
 20
46.5184313421508
 30
0.0
 10
101.3511803660808
 20
46.46217201734714
 30
0.0
 10
101.2954109192703
 20
46.41042749123525
 30
0.0
 10
101.2363946301966
 20
46.36164174434596
 30
0.0
 10
101.1731359757271
 20
46.31703604916989
 30
0.0
 10
101.1069489984271
 20
46.27549097666944
 30
0.0
 10
101.0372619264533
 20
46.23940041873318
 30
0.0
 10
100.9659655316406
 20
46.20670934569178
 30
0.0
 10
100.891978816947
 20
46.18015933392284
 30
0.0
 10
100.816202615062
 20
46.15875760232161
 30
0.0
 10
100.7389077234236
 20
46.14055862591131
 30
0.0
 10
100.6593381262041
 20
46.1293529568344
 30
0.0
 10
100.5781835921643
 20
46.12086703479841
 30
0.0
 10
100.5233367488967
 20
46.12034307871446
 30
0.0
 10
100.4957358800281
 20
46.12007940550549
 30
0.0
  0
SPLINE
  5
83
330
1F
100
AcDbEntity
  8
0
  6
Continuous
 62
     7
370
    25
100
AcDbSpline
210
0.0
220
0.0
230
1.0
 70
     8
 71
     3
 72
    19
 73
    15
 74
     0
 42
0.000000001
 43
0.00000001
 40
0.0
 40
0.0
 40
0.0
 40
0.0
 40
0.117048429048354
 40
0.2299697259035133
 40
0.3407035076587672
 40
0.4493551469115637
 40
0.5055565115208216
 40
0.5653026697757544
 40
0.6282049564766067
 40
0.6947289918311295
 40
0.76501883365192
 40
0.8395802021957314
 40
0.9177497995909519
 40
1.0
 40
1.0
 40
1.0
 40
1.0
 10
100.4957358800281
 20
46.1200794055055
 30
0.0
 10
100.4489200630943
 20
46.12143356736982
 30
0.0
 10
100.3569391567657
 20
46.12409414329808
 30
0.0
 10
100.2219439510482
 20
46.14489947031342
 30
0.0
 10
100.0933069688232
 20
46.17912305589127
 30
0.0
 10
99.99052663558993
 20
46.21953912186355
 30
0.0
 10
99.9100009593174
 20
46.25945051170286
 30
0.0
 10
99.84869795238987
 20
46.29636658188022
 30
0.0
 10
99.78530586528781
 20
46.33766125953323
 30
0.0
 10
99.72087758636592
 20
46.38489305051586
 30
0.0
 10
99.65468842529351
 20
46.43749515439644
 30
0.0
 10
99.5879067733843
 20
46.4966196553975
 30
0.0
 10
99.51882300848966
 20
46.56031966851636
 30
0.0
 10
99.4735669188972
 20
46.60578361928566
 30
0.0
 10
99.45036328387421
 20
46.62909382858242
 30
0.0
  0
LINE
  5
84
330
1F
100
AcDbEntity
  8
0
  6
Continuous
 62
     7
370
    25
100
AcDbLine
 10
99.4503632839
 20
46.6290938286
 30
0.0
 11
99.0037487005
 21
46.1600433478
 31
0.0
  0
SPLINE
  5
85
330
1F
100
AcDbEntity
  8
0
  6
Continuous
 62
     7
370
    25
100
AcDbSpline
210
0.0
220
0.0
230
1.0
 70
     8
 71
     3
 72
    23
 73
    19
 74
     0
 42
0.000000001
 43
0.00000001
 40
0.0
 40
0.0
 40
0.0
 40
0.0
 40
0.0777829363133479
 40
0.1518156572691067
 40
0.2225398385800616
 40
0.2902775346822921
 40
0.3546406074863772
 40
0.4157977534850316
 40
0.4747090076698671
 40
0.5304260996200434
 40
0.5855797458252664
 40
0.6409061648040238
 40
0.697901090665664
 40
0.755420320880605
 40
0.8145212584872895
 40
0.8744618312159053
 40
0.9366697167404182
 40
1.0
 40
1.0
 40
1.0
 40
1.0
 10
99.00374870054087
 20
46.16004334781319
 30
0.0
 10
99.03514330181403
 20
46.12973284590036
 30
0.0
 10
99.0964188495484
 20
46.07057322827527
 30
0.0
 10
99.188851312229
 20
45.98657209168255
 30
0.0
 10
99.28116744499934
 20
45.91108773241408
 30
0.0
 10
99.3711370824085
 20
45.84138039905598
 30
0.0
 10
99.46023402095251
 20
45.77948083553287
 30
0.0
 10
99.54844881204838
 20
45.72532722201514
 30
0.0
 10
99.63478282570085
 20
45.67754993528352
 30
0.0
 10
99.72102881536382
 20
45.63695471584327
 30
0.0
 10
99.80772344809851
 20
45.60248515833436
 30
0.0
 10
99.89692203717736
 20
45.57280913177357
 30
0.0
 10
99.98889727107994
 20
45.54770428089628
 30
0.0
 10
100.0842108925653
 20
45.52744796331789
 30
0.0
 10
100.1819738742518
 20
45.51120513122062
 30
0.0
 10
100.2831011477541
 20
45.50024131350382
 30
0.0
 10
100.3869515162189
 20
45.49287070362247
 30
0.0
 10
100.4573948300497
 20
45.49220839324478
 30
0.0
 10
100.4929313928486
 20
45.49187427730036
 30
0.0
  0
SPLINE
  5
86
330
1F
100
AcDbEntity
  8
0
  6
Continuous
 62
     7
370
    25
100
AcDbSpline
210
0.0
220
0.0
230
1.0
 70
     8
 71
     3
 72
    23
 73
    19
 74
     0
 42
0.000000001
 43
0.00000001
 40
0.0
 40
0.0
 40
0.0
 40
0.0
 40
0.0673762427992626
 40
0.1318365787763094
 40
0.1944610676015857
 40
0.2553459677434114
 40
0.3155883400136114
 40
0.375627451772198
 40
0.4361378520525395
 40
0.4977786195747131
 40
0.5594703610940491
 40
0.6202777696791143
 40
0.680787688960417
 40
0.741491621591653
 40
0.8032154362531898
 40
0.8664927627489301
 40
0.9319104429113593
 40
1.0
 40
1.0
 40
1.0
 40
1.0
 10
100.4929313928486
 20
45.49187427730036
 30
0.0
 10
100.5582076567963
 20
45.49353829944744
 30
0.0
 10
100.6859351606854
 20
45.49679432824579
 30
0.0
 10
100.8731164873467
 20
45.52091929711854
 30
0.0
 10
101.050933723094
 20
45.56136438243197
 30
0.0
 10
101.2198194639742
 20
45.61856488872306
 30
0.0
 10
101.3797200082527
 20
45.69163585475136
 30
0.0
 10
101.5305944484935
 20
45.78121742797222
 30
0.0
 10
101.6721996086406
 20
45.88707160426987
 30
0.0
 10
101.8033915977248
 20
46.00795766992794
 30
0.0
 10
101.9220609955384
 20
46.14146618113738
 30
0.0
 10
102.0269510006033
 20
46.28481769540714
 30
0.0
 10
102.113716016749
 20
46.43871673290648
 30
0.0
 10
102.1857588792301
 20
46.6008897132332
 30
0.0
 10
102.2420954501979
 20
46.77207669468951
 30
0.0
 10
102.2817468455515
 20
46.95246284945405
 30
0.0
 10
102.3061995716867
 20
47.14187400354076
 30
0.0
 10
102.3088747346769
 20
47.2712461880418
 30
0.0
 10
102.3102390851563
 20
47.33722684140293
 30
0.0
  0
SPLINE
  5
87
330
1F
100
AcDbEntity
  8
0
  6
Continuous
 62
     7
370
    25
100
AcDbSpline
210
0.0
220
0.0
230
1.0
 70
     8
 71
     3
 72
    31
 73
    27
 74
     0
 42
0.000000001
 43
0.00000001
 40
0.0
 40
0.0
 40
0.0
 40
0.0
 40
0.0446633309063718
 40
0.0885118057801454
 40
0.1309255913017763
 40
0.1729040372808875
 40
0.2140001199049651
 40
0.2549850203589825
 40
0.2952912763870588
 40
0.3357724419527865
 40
0.3761808205537716
 40
0.4161784084745206
 40
0.456350051444475
 40
0.4965121666444136
 40
0.537040573637779
 40
0.5781187440077603
 40
0.61972456055481
 40
0.6624219701988843
 40
0.7052989535209019
 40
0.7474300005339083
 40
0.7894329840393824
 40
0.8312674212030585
 40
0.8728250959642285
 40
0.9148701104843889
 40
0.957027002839499
 40
1.0
 40
1.0
 40
1.0
 40
1.0
 10
102.3102390851563
 20
47.33722684140293
 30
0.0
 10
102.3096625767683
 20
47.38025886058838
 30
0.0
 10
102.3085200780467
 20
47.46553780524336
 30
0.0
 10
102.2965123106745
 20
47.59116059978869
 30
0.0
 10
102.2797727847412
 20
47.71362035398457
 30
0.0
 10
102.2532170489874
 20
47.83164552979046
 30
0.0
 10
102.2212067286878
 20
47.94682614400082
 30
0.0
 10
102.1813976897193
 20
48.057910317855
 30
0.0
 10
102.1338535126171
 20
48.16521731845427
 30
0.0
 10
102.0801066581694
 20
48.26892678416651
 30
0.0
 10
102.0193033794637
 20
48.36835930686991
 30
0.0
 10
101.9513794421959
 20
48.46266060448809
 30
0.0
 10
101.8780834733776
 20
48.55255866567723
 30
0.0
 10
101.7976542902871
 20
48.63686082577163
 30
0.0
 10
101.7112606343333
 20
48.71630727412586
 30
0.0
 10
101.6185124480612
 20
48.79046747521668
 30
0.0
 10
101.5199675654825
 20
48.86040496999372
 30
0.0
 10
101.4153592622422
 20
48.92431624021049
 30
0.0
 10
101.3067197989349
 20
48.98212738113836
 30
0.0
 10
101.1954194050894
 20
49.03311927649836
 30
0.0
 10
101.0817315328602
 20
49.07573675844221
 30
0.0
 10
100.9661368648707
 20
49.11108638764053
 30
0.0
 10
100.8481470151305
 20
49.13747238632828
 30
0.0
 10
100.7286041651592
 20
49.15744573611286
 30
0.0
 10
100.606491148852
 20
49.16861096634448
 30
0.0
 10
100.5245028373659
 20
49.17043878579187
 30
0.0
 10
100.4831156877204
 20
49.17136145678755
 30
0.0
  0
SPLINE
  5
88
330
1F
100
AcDbEntity
  8
0
  6
Continuous
 62
     7
370
    25
100
AcDbSpline
210
0.0
220
0.0
230
1.0
 70
     8
 71
     3
 72
    19
 73
    15
 74
     0
 42
0.000000001
 43
0.00000001
 40
0.0
 40
0.0
 40
0.0
 40
0.0
 40
0.1069102197111921
 40
0.2129765276064905
 40
0.3197766759577693
 40
0.4285562728491906
 40
0.48585680327842
 40
0.5465586866406806
 40
0.6114314979175123
 40
0.6798209100724882
 40
0.7531585046908192
 40
0.8307528691562583
 40
0.9131330746556939
 40
1.0
 40
1.0
 40
1.0
 40
1.0
 10
107.0904874825922
 20
49.17136145678756
 30
0.0
 10
107.04924959998
 20
49.16985288718227
 30
0.0
 10
106.9670993521523
 20
49.1668476560916
 30
0.0
 10
106.845637841377
 20
49.14334773099625
 30
0.0
 10
106.7269993159095
 20
49.10639162341069
 30
0.0
 10
106.6313981686818
 20
49.06180814550181
 30
0.0
 10
106.5553301203303
 20
49.01862010935532
 30
0.0
 10
106.4970310669968
 20
48.97885800595075
 30
0.0
 10
106.4377086422038
 20
48.93330837943024
 30
0.0
 10
106.376884447394
 20
48.88182769089784
 30
0.0
 10
106.3156886902913
 20
48.82344597657135
 30
0.0
 10
106.252381282861
 20
48.75955305911928
 30
0.0
 10
106.1878248659113
 20
48.68959675431241
 30
0.0
 10
106.1458734305427
 20
48.63962029453786
 30
0.0
 10
106.1243416492588
 20
48.61396962986447
 30
0.0
  0
LINE
  5
89
330
1F
100
AcDbEntity
  8
0
  6
Continuous
 62
     7
370
    25
100
AcDbLine
 10
106.1243416493
 20
48.6139696299
 30
0.0
 11
106.5940932518
 21
48.1841819696
 31
0.0
  0
SPLINE
  5
8A
330
1F
100
AcDbEntity
  8
0
  6
Continuous
 62
     7
370
    25
100
AcDbSpline
210
0.0
220
0.0
230
1.0
 70
     8
 71
     3
 72
    15
 73
    11
 74
     0
 42
0.000000001
 43
0.00000001
 40
0.0
 40
0.0
 40
0.0
 40
0.0
 40
0.1624203072014308
 40
0.3118243397330473
 40
0.448432766792585
 40
0.5733811968860489
 40
0.6890771468735437
 40
0.7975729005012622
 40
0.9002930430775844
 40
0.9999999999999999
 40
0.9999999999999999
 40
0.9999999999999999
 40
0.9999999999999999
 10
106.5940932518229
 20
48.18418196960806
 30
0.0
 10
106.6142153962264
 20
48.2125663462004
 30
0.0
 10
106.6528471073758
 20
48.26706039095469
 30
0.0
 10
106.7154650816979
 20
48.34002920126355
 30
0.0
 10
106.7778003037701
 20
48.40227702673229
 30
0.0
 10
106.8404302715165
 20
48.45354382469822
 30
0.0
 10
106.9039101131357
 20
48.49351811122695
 30
0.0
 10
106.9681296368984
 20
48.52182034767812
 30
0.0
 10
107.0327247643587
 20
48.53981234797552
 30
0.0
 10
107.0761227188289
 20
48.54205278489631
 30
0.0
 10
107.0974987005409
 20
48.54315632858241
 30
0.0
  0
SPLINE
  5
8B
330
1F
100
AcDbEntity
  8
0
  6
Continuous
 62
     7
370
    25
100
AcDbSpline
210
0.0
220
0.0
230
1.0
 70
     8
 71
     3
 72
    15
 73
    11
 74
     0
 42
0.000000001
 43
0.00000001
 40
0.0
 40
0.0
 40
0.0
 40
0.0
 40
0.1481262583591773
 40
0.2859928874897092
 40
0.416634393560628
 40
0.5473799458012668
 40
0.6715828376102163
 40
0.7844007386959894
 40
0.8932655763009615
 40
1.0
 40
1.0
 40
1.0
 40
1.0
 10
107.0974987005409
 20
48.54315632858241
 30
0.0
 10
107.1174376031314
 20
48.54245707268028
 30
0.0
 10
107.1559343854603
 20
48.54110699324964
 30
0.0
 10
107.2108144046636
 20
48.52768730433512
 30
0.0
 10
107.2595376672843
 20
48.50452689199774
 30
0.0
 10
107.3020566215694
 20
48.47424270446212
 30
0.0
 10
107.3357379065211
 20
48.43775727946798
 30
0.0
 10
107.3626298006437
 20
48.39949344984462
 30
0.0
 10
107.3777721967399
 20
48.3572588355179
 30
0.0
 10
107.3797652339989
 20
48.32825039867686
 30
0.0
 10
107.3807519056691
 20
48.31388950165934
 30
0.0
  0
SPLINE
  5
8C
330
1F
100
AcDbEntity
  8
0
  6
Continuous
 62
     7
370
    25
100
AcDbSpline
210
0.0
220
0.0
230
1.0
 70
     8
 71
     3
 72
    11
 73
     7
 74
     0
 42
0.000000001
 43
0.00000001
 40
0.0
 40
0.0
 40
0.0
 40
0.0
 40
0.2418813747501902
 40
0.4871154746783539
 40
0.7378378396463746
 40
1.0
 40
1.0
 40
1.0
 40
1.0
 10
107.3807519056691
 20
48.31388950165934
 30
0.0
 10
107.3801336085493
 20
48.29932151411141
 30
0.0
 10
107.3788884440743
 20
48.26998361169192
 30
0.0
 10
107.3668618502139
 20
48.22698526196194
 30
0.0
 10
107.3487343392337
 20
48.18497086888977
 30
0.0
 10
107.331412762407
 20
48.15939470860989
 30
0.0
 10
107.3225587966947
 20
48.14632139268498
 30
0.0
  0
SPLINE
  5
8D
330
1F
100
AcDbEntity
  8
0
  6
Continuous
 62
     7
370
    25
100
AcDbSpline
210
0.0
220
0.0
230
1.0
 70
     8
 71
     3
 72
    15
 73
    11
 74
     0
 42
0.000000001
 43
0.00000001
 40
0.0
 40
0.0
 40
0.0
 40
0.0
 40
0.0592341891229346
 40
0.1363492805279888
 40
0.2338052120618139
 40
0.3494112238568886
 40
0.483179150349161
 40
0.6359668555591143
 40
0.8092433563675935
 40
0.9999999999999999
 40
0.9999999999999999
 40
0.9999999999999999
 40
0.9999999999999999
 10
107.3225587966947
 20
48.14632139268498
 30
0.0
 10
107.3145095840822
 20
48.13615964101274
 30
0.0
 10
107.295981359677
 20
48.11276863068696
 30
0.0
 10
107.2606518305442
 20
48.07572091654471
 30
0.0
 10
107.2162853617473
 20
48.0303342238721
 30
0.0
 10
107.1611746382017
 20
47.97816926803468
 30
0.0
 10
107.0976074575504
 20
47.91734999320789
 30
0.0
 10
107.022637398913
 20
47.85026722823228
 30
0.0
 10
106.9384224275143
 20
47.77484349784195
 30
0.0
 10
106.878564376938
 20
47.72232114324606
 30
0.0
 10
106.8471982197716
 20
47.69479895678755
 30
0.0
  0
SPLINE
  5
8E
330
1F
100
AcDbEntity
  8
0
  6
Continuous
 62
     7
370
    25
100
AcDbSpline
210
0.0
220
0.0
230
1.0
 70
     8
 71
     3
 72
    15
 73
    11
 74
     0
 42
0.000000001
 43
0.00000001
 40
0.0
 40
0.0
 40
0.0
 40
0.0
 40
0.1929527021649411
 40
0.3661841413840665
 40
0.5204572982944551
 40
0.6550121351900027
 40
0.7706242255760057
 40
0.8656771846793601
 40
0.9426745273198621
 40
0.9999999999999999
 40
0.9999999999999999
 40
0.9999999999999999
 40
0.9999999999999999
 10
106.8471982197716
 20
47.69479895678755
 30
0.0
 10
106.8177565693036
 20
47.66931869335691
 30
0.0
 10
106.7618824334319
 20
47.62096244707529
 30
0.0
 10
106.6823846336751
 20
47.55232851954466
 30
0.0
 10
106.6125193079123
 20
47.49058024846249
 30
0.0
 10
106.551268677781
 20
47.43664434324862
 30
0.0
 10
106.4995612430875
 20
47.38995489277157
 30
0.0
 10
106.4571796256057
 20
47.35028872199897
 30
0.0
 10
106.4236062057295
 20
47.31841805832472
 30
0.0
 10
106.404521682296
 20
47.29916815807737
 30
0.0
 10
106.3963769056691
 20
47.29095280294139
 30
0.0
  0
SPLINE
  5
8F
330
1F
100
AcDbEntity
  8
0
  6
Continuous
 62
     7
370
    25
100
AcDbSpline
210
0.0
220
0.0
230
1.0
 70
     8
 71
     3
 72
    15
 73
    11
 74
     0
 42
0.000000001
 43
0.00000001
 40
0.0
 40
0.0
 40
0.0
 40
0.0
 40
0.1508330973407531
 40
0.2899541833158731
 40
0.4171386481520543
 40
0.5352551839062606
 40
0.648751095293667
 40
0.7624054615861156
 40
0.8798267012500995
 40
1.0
 40
1.0
 40
1.0
 40
1.0
 10
106.3963769056691
 20
47.29095280294139
 30
0.0
 10
106.3654773211916
 20
47.25751283481966
 30
0.0
 10
106.3060774683745
 20
47.19322947249542
 30
0.0
 10
106.2288785995388
 20
47.09361047759094
 30
0.0
 10
106.165341433356
 20
46.99636202584328
 30
0.0
 10
106.1161878767351
 20
46.8996542298778
 30
0.0
 10
106.0790651338055
 20
46.80209178868216
 30
0.0
 10
106.0528931082729
 20
46.70128198867764
 30
0.0
 10
106.0372185080413
 20
46.59617143062919
 30
0.0
 10
106.0354782614531
 20
46.52444630627935
 30
0.0
 10
106.0345980595152
 20
46.48816834781319
 30
0.0
  0
SPLINE
  5
90
330
1F
100
AcDbEntity
  8
0
  6
Continuous
 62
     7
370
    25
100
AcDbSpline
210
0.0
220
0.0
230
1.0
 70
     8
 71
     3
 72
    23
 73
    19
 74
     0
 42
0.000000001
 43
0.00000001
 40
0.0
 40
0.0
 40
0.0
 40
0.0
 40
0.0652008752881531
 40
0.1279265440230314
 40
0.1890469100189651
 40
0.2485436930694591
 40
0.3076071270223472
 40
0.3672476600602115
 40
0.4269630557213205
 40
0.4886171282353945
 40
0.5503918546271233
 40
0.6113307342255593
 40
0.6725560854310836
 40
0.7340241906291928
 40
0.7973406208369384
 40
0.8622496273165758
 40
0.9296254660747003
 40
1.0
 40
1.0
 40
1.0
 40
1.0
 10
106.0345980595152
 20
46.48816834781319
 30
0.0
 10
106.0352245647184
 20
46.45281992638983
 30
0.0
 10
106.0364537912448
 20
46.38346500792628
 30
0.0
 10
106.051509458904
 20
46.28197441557247
 30
0.0
 10
106.0729779573153
 20
46.1848435139457
 30
0.0
 10
106.1061720220915
 20
46.09312922456595
 30
0.0
 10
106.1466287516621
 20
46.00532608532682
 30
0.0
 10
106.1973471052623
 20
45.9228017899543
 30
0.0
 10
106.2569088570806
 20
45.84472115884581
 30
0.0
 10
106.3251757699276
 20
45.77247997876111
 30
0.0
 10
106.4006870818581
 20
45.70692611503026
 30
0.0
 10
106.4816801403709
 20
45.6485685172058
 30
0.0
 10
106.5689469363596
 20
45.60038688681547
 30
0.0
 10
106.6617418760712
 20
45.56071275093833
 30
0.0
 10
106.7600152884788
 20
45.53015520099794
 30
0.0
 10
106.863650100324
 20
45.5075703236509
 30
0.0
 10
106.9728048281201
 20
45.49401523627759
 30
0.0
 10
107.0474464039182
 20
45.49259821271315
 30
0.0
 10
107.0855796300281
 20
45.49187427730036
 30
0.0
  0
SPLINE
  5
91
330
1F
100
AcDbEntity
  8
0
  6
Continuous
 62
     7
370
    25
100
AcDbSpline
210
0.0
220
0.0
230
1.0
 70
     8
 71
     3
 72
    23
 73
    19
 74
     0
 42
0.000000001
 43
0.00000001
 40
0.0
 40
0.0
 40
0.0
 40
0.0
 40
0.0635514822357811
 40
0.1258683816453862
 40
0.1862402502136761
 40
0.2449766506319445
 40
0.3033576876770597
 40
0.3612303170408057
 40
0.418489049028358
 40
0.4759367117285757
 40
0.5342037438191202
 40
0.5940594289675409
 40
0.6554686942598745
 40
0.718771684899887
 40
0.7849746072190612
 40
0.8535223163767062
 40
0.9251824507719314
 40
1.0
 40
1.0
 40
1.0
 40
1.0
 10
107.0855796300281
 20
45.49187427730036
 30
0.0
 10
107.1155138877972
 20
45.49240533097479
 30
0.0
 10
107.1748008854976
 20
45.49345712180979
 30
0.0
 10
107.2621809569593
 20
45.50204411851779
 30
0.0
 10
107.3465562937298
 20
45.51590261757801
 30
0.0
 10
107.4278318545294
 20
45.53576598662012
 30
0.0
 10
107.5063738001114
 20
45.56093556923028
 30
0.0
 10
107.5821853560833
 20
45.59167925019252
 30
0.0
 10
107.6547431701031
 20
45.62847354504673
 30
0.0
 10
107.7245962489906
 20
45.67056181679804
 30
0.0
 10
107.7914050205809
 20
45.71943184433106
 30
0.0
 10
107.8560142555126
 20
45.77408449592587
 30
0.0
 10
107.9177821935192
 20
45.83536035381307
 30
0.0
 10
107.9770054934831
 20
45.90311450295799
 30
0.0
 10
108.0333052282189
 20
45.97753880683651
 30
0.0
 10
108.0885242900643
 20
46.05759676928716
 30
0.0
 10
108.1402085777512
 20
46.14477415740517
 30
0.0
 10
108.1721362613314
 20
46.20592980037571
 30
0.0
 10
108.1884442133614
 20
46.23716674524908
 30
0.0
  0
LINE
  5
92
330
1F
100
AcDbEntity
  8
0
  6
Continuous
 62
     7
370
    25
100
AcDbLine
 10
108.1884442134
 20
46.2371667452
 30
0.0
 11
107.635960239
 21
46.5687973542
 31
0.0
  0
SPLINE
  5
93
330
1F
100
AcDbEntity
  8
0
  6
Continuous
 62
     7
370
    25
100
AcDbSpline
210
0.0
220
0.0
230
1.0
 70
     8
 71
     3
 72
    15
 73
    11
 74
     0
 42
0.000000001
 43
0.00000001
 40
0.0
 40
0.0
 40
0.0
 40
0.0
 40
0.1604579205559373
 40
0.3076115473748676
 40
0.4421388877557721
 40
0.5662291941703441
 40
0.6812222080152138
 40
0.789558005243635
 40
0.8950288924051475
 40
1.0
 40
1.0
 40
1.0
 40
1.0
 10
107.6359602390024
 20
46.56879735422344
 30
0.0
 10
107.615561428369
 20
46.5333393404289
 30
0.0
 10
107.5764551649835
 20
46.46536329753624
 30
0.0
 10
107.5101859457462
 20
46.37402886850465
 30
0.0
 10
107.4422965137814
 20
46.29581604865447
 30
0.0
 10
107.3712173262504
 20
46.23210725459342
 30
0.0
 10
107.2978126794775
 20
46.18205061785593
 30
0.0
 10
107.2217280119614
 20
46.14627667254921
 30
0.0
 10
107.1429098680797
 20
46.12413264087293
 30
0.0
 10
107.0892225291301
 20
46.12142834314533
 30
0.0
 10
107.0624426107973
 20
46.12007940550549
 30
0.0
  0
SPLINE
  5
94
330
1F
100
AcDbEntity
  8
0
  6
Continuous
 62
     7
370
    25
100
AcDbSpline
210
0.0
220
0.0
230
1.0
 70
     8
 71
     3
 72
    15
 73
    11
 74
     0
 42
0.000000001
 43
0.00000001
 40
0.0
 40
0.0
 40
0.0
 40
0.0
 40
0.141985892529676
 40
0.2754733105502226
 40
0.4043458426631413
 40
0.5354297108606239
 40
0.6614274010622601
 40
0.7778668404627508
 40
0.8882797492818416
 40
1.0
 40
1.0
 40
1.0
 40
1.0
 10
107.0624426107973
 20
46.12007940550549
 30
0.0
 10
107.0352035998546
 20
46.12118102112411
 30
0.0
 10
106.9823559514947
 20
46.12331831586521
 30
0.0
 10
106.906922696102
 20
46.14305986299691
 30
0.0
 10
106.837762631355
 20
46.1740555402408
 30
0.0
 10
106.7779811821728
 20
46.21828209746097
 30
0.0
 10
106.7273620202079
 20
46.26932626642547
 30
0.0
 10
106.6900021731331
 20
46.32611523834954
 30
0.0
 10
106.6665324652124
 20
46.38755953513559
 30
0.0
 10
106.6640511480635
 20
46.43024278540303
 30
0.0
 10
106.6628031877204
 20
46.45171001447986
 30
0.0
  0
SPLINE
  5
95
330
1F
100
AcDbEntity
  8
0
  6
Continuous
 62
     7
370
    25
100
AcDbSpline
210
0.0
220
0.0
230
1.0
 70
     8
 71
     3
 72
    19
 73
    15
 74
     0
 42
0.000000001
 43
0.00000001
 40
0.0
 40
0.0
 40
0.0
 40
0.0
 40
0.0763466063531653
 40
0.1550908218146668
 40
0.2383515612585504
 40
0.3284041399329867
 40
0.379383859551351
 40
0.4396176441748195
 40
0.5098314158313165
 40
0.588874644996961
 40
0.6774363544094522
 40
0.7755467196196728
 40
0.8826358717258603
 40
1.0
 40
1.0
 40
1.0
 40
1.0
 10
106.6628031877204
 20
46.45171001447986
 30
0.0
 10
106.6639556280147
 20
46.47168177778349
 30
0.0
 10
106.6662967001445
 20
46.51225250295129
 30
0.0
 10
106.6835403159831
 20
46.5725746474368
 30
0.0
 10
106.7104973470832
 20
46.63286935865521
 30
0.0
 10
106.7423894158226
 20
46.682324712039
 30
0.0
 10
106.7748435891821
 20
46.7237323388164
 30
0.0
 10
106.8058770989694
 20
46.75961017431801
 30
0.0
 10
106.8436677045368
 20
46.79924890149621
 30
0.0
 10
106.8881195855767
 20
46.84269838286368
 30
0.0
 10
106.9386454167548
 20
46.89034111519957
 30
0.0
 10
106.9952877595362
 20
46.94217243313945
 30
0.0
 10
107.058695228666
 20
46.99773576476208
 30
0.0
 10
107.1035117529576
 20
47.03558495730953
 30
0.0
 10
107.1269458159255
 20
47.05537587986447
 30
0.0
  0
SPLINE
  5
96
330
1F
100
AcDbEntity
  8
0
  6
Continuous
 62
     7
370
    25
100
AcDbSpline
210
0.0
220
0.0
230
1.0
 70
     8
 71
     3
 72
    19
 73
    15
 74
     0
 42
0.000000001
 43
0.00000001
 40
0.0
 40
0.0
 40
0.0
 40
0.0
 40
0.1121245812797456
 40
0.2152010090762432
 40
0.3099024524934779
 40
0.395959096332092
 40
0.4734474940003359
 40
0.5421403275660289
 40
0.602523333055411
 40
0.6547263328340158
 40
0.7478040553141029
 40
0.8352784168250076
 40
0.9189252427194511
 40
1.0
 40
1.0
 40
1.0
 40
1.0
 10
107.1269458159255
 20
47.05537587986447
 30
0.0
 10
107.171494902325
 20
47.09306867886858
 30
0.0
 10
107.2569980831368
 20
47.16541256892383
 30
0.0
 10
107.377824925571
 20
47.27226221711609
 30
0.0
 10
107.486700729293
 20
47.3721230038968
 30
0.0
 10
107.5826851259352
 20
47.46622942688965
 30
0.0
 10
107.6670011051996
 20
47.55284355854275
 30
0.0
 10
107.739077642639
 20
47.63266891196678
 30
0.0
 10
107.7981229447152
 20
47.70632123058362
 30
0.0
 10
107.8602553933679
 20
47.79355747328734
 30
0.0
 10
107.9192936421576
 20
47.89986082914772
 30
0.0
 10
107.9703194427429
 20
48.02775608957631
 30
0.0
 10
108.0034228285145
 20
48.15563512199284
 30
0.0
 10
108.0071316024807
 20
48.2414860608872
 30
0.0
 10
108.0089570338742
 20
48.28374126447985
 30
0.0
  0
SPLINE
  5
97
330
1F
100
AcDbEntity
  8
0
  6
Continuous
 62
     7
370
    25
100
AcDbSpline
210
0.0
220
0.0
230
1.0
 70
     8
 71
     3
 72
    23
 73
    19
 74
     0
 42
0.000000001
 43
0.00000001
 40
0.0
 40
0.0
 40
0.0
 40
0.0
 40
0.0631728801065214
 40
0.1244573597770017
 40
0.1848409152554591
 40
0.2445668214643681
 40
0.3043191726186539
 40
0.3651997864614157
 40
0.4274209827764716
 40
0.4912616890772882
 40
0.5554990019310203
 40
0.61860451814288
 40
0.6804947639253045
 40
0.7424733052606051
 40
0.8049906647647703
 40
0.8682519711837811
 40
0.9328872172654765
 40
0.9999999999999999
 40
0.9999999999999999
 40
0.9999999999999999
 40
0.9999999999999999
 10
108.0089570338742
 20
48.28374126447985
 30
0.0
 10
108.0081978393901
 20
48.31370638685939
 30
0.0
 10
108.0067021447045
 20
48.37274089677034
 30
0.0
 10
107.9933603173776
 20
48.45954254200928
 30
0.0
 10
107.9734204481393
 20
48.54329883629966
 30
0.0
 10
107.9444620334467
 20
48.62370419852299
 30
0.0
 10
107.9068775077463
 20
48.70065791772626
 30
0.0
 10
107.8612325611927
 20
48.77453671475363
 30
0.0
 10
107.8068184142642
 20
48.84466062584359
 30
0.0
 10
107.7454973441745
 20
48.91098316378686
 30
0.0
 10
107.6779372248644
 20
48.9715944160066
 30
0.0
 10
107.6057406517294
 20
49.02508991934173
 30
0.0
 10
107.5293162637502
 20
49.07027299932485
 30
0.0
 10
107.4491315866343
 20
49.10775564503228
 30
0.0
 10
107.3646897493019
 20
49.13644622923648
 30
0.0
 10
107.2766128309
 20
49.15678354537806
 30
0.0
 10
107.1847745011851
 20
49.16887953245904
 30
0.0
 10
107.1223080516835
 20
49.17052384153835
 30
0.0
 10
107.0904874825921
 20
49.17136145678755
 30
0.0
  0
SPLINE
  5
98
330
1F
100
AcDbEntity
  8
0
  6
Continuous
 62
     7
370
    25
100
AcDbSpline
210
0.0
220
0.0
230
1.0
 70
     8
 71
     3
 72
    19
 73
    15
 74
     0
 42
0.000000001
 43
0.00000001
 40
0.0
 40
0.0
 40
0.0
 40
0.0
 40
0.1069102197111921
 40
0.2129765276064904
 40
0.3197766759577692
 40
0.4285562728491904
 40
0.4858568032784198
 40
0.5465586866406904
 40
0.6114314979175125
 40
0.6798209100724885
 40
0.7531585046908195
 40
0.8307528691562585
 40
0.9131330746556939
 40
1.0
 40
1.0
 40
1.0
 40
1.0
 10
102.7126688960189
 20
62.18518805181524
 30
0.0
 10
102.6714310134067
 20
62.18367948220996
 30
0.0
 10
102.589280765579
 20
62.18067425111931
 30
0.0
 10
102.4678192548037
 20
62.15717432602393
 30
0.0
 10
102.3491807293363
 20
62.12021821843837
 30
0.0
 10
102.2535795821086
 20
62.0756347405295
 30
0.0
 10
102.1775115337571
 20
62.03244670438299
 30
0.0
 10
102.1192124804236
 20
61.99268460097847
 30
0.0
 10
102.0598900556305
 20
61.9471349744579
 30
0.0
 10
101.9990658608208
 20
61.89565428592554
 30
0.0
 10
101.9378701037181
 20
61.83727257159902
 30
0.0
 10
101.8745626962878
 20
61.77337965414699
 30
0.0
 10
101.8100062793381
 20
61.70342334934008
 30
0.0
 10
101.7680548439695
 20
61.65344688956556
 30
0.0
 10
101.7465230626856
 20
61.62779622489216
 30
0.0
  0
LINE
  5
99
330
1F
100
AcDbEntity
  8
0
  6
Continuous
 62
     7
370
    25
100
AcDbLine
 10
101.7465230627
 20
61.6277962249
 30
0.0
 11
102.2162746652
 21
61.1980085646
 31
0.0
  0
SPLINE
  5
9A
330
1F
100
AcDbEntity
  8
0
  6
Continuous
 62
     7
370
    25
100
AcDbSpline
210
0.0
220
0.0
230
1.0
 70
     8
 71
     3
 72
    15
 73
    11
 74
     0
 42
0.000000001
 43
0.00000001
 40
0.0
 40
0.0
 40
0.0
 40
0.0
 40
0.1624203072014308
 40
0.3118243397330473
 40
0.448432766792585
 40
0.5733811968860489
 40
0.6890771468735437
 40
0.7975729005012622
 40
0.9002930430775844
 40
0.9999999999999999
 40
0.9999999999999999
 40
0.9999999999999999
 40
0.9999999999999999
 10
102.2162746652497
 20
61.19800856463575
 30
0.0
 10
102.2363968096531
 20
61.2263929412281
 30
0.0
 10
102.2750285208026
 20
61.28088698598238
 30
0.0
 10
102.3376464951247
 20
61.35385579629124
 30
0.0
 10
102.3999817171969
 20
61.41610362175997
 30
0.0
 10
102.4626116849432
 20
61.46737041972591
 30
0.0
 10
102.5260915265625
 20
61.50734470625465
 30
0.0
 10
102.5903110503252
 20
61.5356469427058
 30
0.0
 10
102.6549061777854
 20
61.5536389430032
 30
0.0
 10
102.6983041322557
 20
61.55587937992399
 30
0.0
 10
102.7196801139676
 20
61.5569829236101
 30
0.0
  0
SPLINE
  5
9B
330
1F
100
AcDbEntity
  8
0
  6
Continuous
 62
     7
370
    25
100
AcDbSpline
210
0.0
220
0.0
230
1.0
 70
     8
 71
     3
 72
    15
 73
    11
 74
     0
 42
0.000000001
 43
0.00000001
 40
0.0
 40
0.0
 40
0.0
 40
0.0
 40
0.1481262583591773
 40
0.2859928874897092
 40
0.416634393560628
 40
0.5473799458012668
 40
0.6715828376102163
 40
0.7844007386959894
 40
0.8932655763009615
 40
1.0
 40
1.0
 40
1.0
 40
1.0
 10
102.7196801139676
 20
61.5569829236101
 30
0.0
 10
102.7396190165582
 20
61.55628366770796
 30
0.0
 10
102.778115798887
 20
61.55493358827732
 30
0.0
 10
102.8329958180903
 20
61.54151389936282
 30
0.0
 10
102.881719080711
 20
61.51835348702541
 30
0.0
 10
102.9242380349962
 20
61.48806929948979
 30
0.0
 10
102.9579193199478
 20
61.45158387449567
 30
0.0
 10
102.9848112140704
 20
61.4133200448723
 30
0.0
 10
102.9999536101666
 20
61.37108543054561
 30
0.0
 10
103.0019466474256
 20
61.34207699370455
 30
0.0
 10
103.0029333190958
 20
61.32771609668703
 30
0.0
  0
SPLINE
  5
9C
330
1F
100
AcDbEntity
  8
0
  6
Continuous
 62
     7
370
    25
100
AcDbSpline
210
0.0
220
0.0
230
1.0
 70
     8
 71
     3
 72
    11
 73
     7
 74
     0
 42
0.000000001
 43
0.00000001
 40
0.0
 40
0.0
 40
0.0
 40
0.0
 40
0.2418813747501996
 40
0.4871154746783471
 40
0.7378378396463712
 40
1.0
 40
1.0
 40
1.0
 40
1.0
 10
103.0029333190958
 20
61.32771609668703
 30
0.0
 10
103.002315021976
 20
61.31314810913911
 30
0.0
 10
103.001069857501
 20
61.28381020671961
 30
0.0
 10
102.9890432636406
 20
61.24081185698961
 30
0.0
 10
102.9709157526604
 20
61.19879746391749
 30
0.0
 10
102.9535941758338
 20
61.17322130363758
 30
0.0
 10
102.9447402101215
 20
61.16014798771267
 30
0.0
  0
SPLINE
  5
9D
330
1F
100
AcDbEntity
  8
0
  6
Continuous
 62
     7
370
    25
100
AcDbSpline
210
0.0
220
0.0
230
1.0
 70
     8
 71
     3
 72
    15
 73
    11
 74
     0
 42
0.000000001
 43
0.00000001
 40
0.0
 40
0.0
 40
0.0
 40
0.0
 40
0.0592341891229347
 40
0.1363492805279888
 40
0.2338052120618139
 40
0.3494112238568887
 40
0.4831791503491765
 40
0.6359668555591141
 40
0.8092433563675935
 40
1.0
 40
1.0
 40
1.0
 40
1.0
 10
102.9447402101215
 20
61.16014798771267
 30
0.0
 10
102.9366909975089
 20
61.14998623604042
 30
0.0
 10
102.9181627731037
 20
61.12659522571465
 30
0.0
 10
102.882833243971
 20
61.0895475115724
 30
0.0
 10
102.8384667751741
 20
61.0441608188998
 30
0.0
 10
102.7833560516285
 20
60.99199586306238
 30
0.0
 10
102.7197888709771
 20
60.93117658823559
 30
0.0
 10
102.6448188123398
 20
60.86409382325996
 30
0.0
 10
102.5606038409411
 20
60.78867009286963
 30
0.0
 10
102.5007457903648
 20
60.73614773827375
 30
0.0
 10
102.4693796331984
 20
60.70862555181523
 30
0.0
  0
SPLINE
  5
9E
330
1F
100
AcDbEntity
  8
0
  6
Continuous
 62
     7
370
    25
100
AcDbSpline
210
0.0
220
0.0
230
1.0
 70
     8
 71
     3
 72
    15
 73
    11
 74
     0
 42
0.000000001
 43
0.00000001
 40
0.0
 40
0.0
 40
0.0
 40
0.0
 40
0.192952702164941
 40
0.3661841413840664
 40
0.5204572982944549
 40
0.6550121351900196
 40
0.7706242255760056
 40
0.8656771846793767
 40
0.9426745273198623
 40
1.0
 40
1.0
 40
1.0
 40
1.0
 10
102.4693796331984
 20
60.70862555181524
 30
0.0
 10
102.4399379827304
 20
60.68314528838459
 30
0.0
 10
102.3840638468587
 20
60.63478904210299
 30
0.0
 10
102.3045660471018
 20
60.56615511457234
 30
0.0
 10
102.234700721339
 20
60.50440684349016
 30
0.0
 10
102.1734500912078
 20
60.45047093827634
 30
0.0
 10
102.1217426565143
 20
60.40378148779925
 30
0.0
 10
102.0793610390324
 20
60.36411531702667
 30
0.0
 10
102.0457876191563
 20
60.3322446533524
 30
0.0
 10
102.0267030957228
 20
60.31299475310505
 30
0.0
 10
102.0185583190958
 20
60.30477939796908
 30
0.0
  0
SPLINE
  5
9F
330
1F
100
AcDbEntity
  8
0
  6
Continuous
 62
     7
370
    25
100
AcDbSpline
210
0.0
220
0.0
230
1.0
 70
     8
 71
     3
 72
    15
 73
    11
 74
     0
 42
0.000000001
 43
0.00000001
 40
0.0
 40
0.0
 40
0.0
 40
0.0
 40
0.1508330973407531
 40
0.2899541833158731
 40
0.4171386481520543
 40
0.5352551839062606
 40
0.648751095293667
 40
0.7624054615861156
 40
0.8798267012500995
 40
1.0
 40
1.0
 40
1.0
 40
1.0
 10
102.0185583190958
 20
60.30477939796908
 30
0.0
 10
101.9876587346183
 20
60.27133942984735
 30
0.0
 10
101.9282588818013
 20
60.2070560675231
 30
0.0
 10
101.8510600129655
 20
60.10743707261861
 30
0.0
 10
101.7875228467828
 20
60.01018862087096
 30
0.0
 10
101.7383692901618
 20
59.91348082490548
 30
0.0
 10
101.7012465472322
 20
59.81591838370984
 30
0.0
 10
101.6750745216997
 20
59.71510858370533
 30
0.0
 10
101.6593999214681
 20
59.60999802565688
 30
0.0
 10
101.6576596748799
 20
59.53827290130703
 30
0.0
 10
101.656779472942
 20
59.50199494284087
 30
0.0
  0
SPLINE
  5
A0
330
1F
100
AcDbEntity
  8
0
  6
Continuous
 62
     7
370
    25
100
AcDbSpline
210
0.0
220
0.0
230
1.0
 70
     8
 71
     3
 72
    23
 73
    19
 74
     0
 42
0.000000001
 43
0.00000001
 40
0.0
 40
0.0
 40
0.0
 40
0.0
 40
0.0652008752881531
 40
0.1279265440230314
 40
0.1890469100189651
 40
0.2485436930694591
 40
0.3076071270223472
 40
0.3672476600602115
 40
0.4269630557213205
 40
0.4886171282353945
 40
0.5503918546271233
 40
0.6113307342255593
 40
0.6725560854310836
 40
0.7340241906291928
 40
0.7973406208369384
 40
0.8622496273165758
 40
0.9296254660747003
 40
1.0
 40
1.0
 40
1.0
 40
1.0
 10
101.656779472942
 20
59.50199494284087
 30
0.0
 10
101.6574059781451
 20
59.46664652141751
 30
0.0
 10
101.6586352046716
 20
59.39729160295396
 30
0.0
 10
101.6736908723307
 20
59.29580101060017
 30
0.0
 10
101.695159370742
 20
59.1986701089734
 30
0.0
 10
101.7283534355183
 20
59.10695581959364
 30
0.0
 10
101.7688101650889
 20
59.01915268035451
 30
0.0
 10
101.8195285186891
 20
58.93662838498198
 30
0.0
 10
101.8790902705074
 20
58.8585477538735
 30
0.0
 10
101.9473571833543
 20
58.7863065737888
 30
0.0
 10
102.0228684952848
 20
58.72075271005794
 30
0.0
 10
102.1038615537977
 20
58.66239511223346
 30
0.0
 10
102.1911283497863
 20
58.61421348184317
 30
0.0
 10
102.283923289498
 20
58.57453934596602
 30
0.0
 10
102.3821967019055
 20
58.54398179602562
 30
0.0
 10
102.4858315137508
 20
58.52139691867858
 30
0.0
 10
102.5949862415468
 20
58.50784183130527
 30
0.0
 10
102.669627817345
 20
58.50642480774084
 30
0.0
 10
102.7077610434548
 20
58.50570087232805
 30
0.0
  0
SPLINE
  5
A1
330
1F
100
AcDbEntity
  8
0
  6
Continuous
 62
     7
370
    25
100
AcDbSpline
210
0.0
220
0.0
230
1.0
 70
     8
 71
     3
 72
    23
 73
    19
 74
     0
 42
0.000000001
 43
0.00000001
 40
0.0
 40
0.0
 40
0.0
 40
0.0
 40
0.0635514822357812
 40
0.1258683816453863
 40
0.1862402502136761
 40
0.2449766506319445
 40
0.3033576876770598
 40
0.3612303170408058
 40
0.4184890490283494
 40
0.4759367117285755
 40
0.5342037438191201
 40
0.5940594289675408
 40
0.6554686942598744
 40
0.718771684899887
 40
0.7849746072190612
 40
0.8535223163767062
 40
0.9251824507719314
 40
1.0
 40
1.0
 40
1.0
 40
1.0
 10
102.7077610434548
 20
58.50570087232805
 30
0.0
 10
102.737695301224
 20
58.50623192600248
 30
0.0
 10
102.7969822989243
 20
58.50728371683748
 30
0.0
 10
102.8843623703861
 20
58.51587071354548
 30
0.0
 10
102.9687377071566
 20
58.52972921260569
 30
0.0
 10
103.0500132679561
 20
58.54959258164778
 30
0.0
 10
103.1285552135382
 20
58.57476216425797
 30
0.0
 10
103.20436676951
 20
58.60550584522021
 30
0.0
 10
103.2769245835299
 20
58.64230014007441
 30
0.0
 10
103.3467776624175
 20
58.68438841182576
 30
0.0
 10
103.4135864340076
 20
58.73325843935874
 30
0.0
 10
103.4781956689394
 20
58.78791109095356
 30
0.0
 10
103.539963606946
 20
58.84918694884077
 30
0.0
 10
103.5991869069098
 20
58.91694109798565
 30
0.0
 10
103.6554866416457
 20
58.99136540186422
 30
0.0
 10
103.710705703491
 20
59.07142336431483
 30
0.0
 10
103.762389991178
 20
59.15860075243285
 30
0.0
 10
103.7943176747581
 20
59.21975639540338
 30
0.0
 10
103.8106256267881
 20
59.25099334027676
 30
0.0
  0
LINE
  5
A2
330
1F
100
AcDbEntity
  8
0
  6
Continuous
 62
     7
370
    25
100
AcDbLine
 10
103.8106256268
 20
59.2509933403
 30
0.0
 11
103.2581416524
 21
59.5826239493
 31
0.0
  0
SPLINE
  5
A3
330
1F
100
AcDbEntity
  8
0
  6
Continuous
 62
     7
370
    25
100
AcDbSpline
210
0.0
220
0.0
230
1.0
 70
     8
 71
     3
 72
    15
 73
    11
 74
     0
 42
0.000000001
 43
0.00000001
 40
0.0
 40
0.0
 40
0.0
 40
0.0
 40
0.1604579205559373
 40
0.3076115473748676
 40
0.4421388877557721
 40
0.5662291941703441
 40
0.6812222080152138
 40
0.789558005243635
 40
0.8950288924051475
 40
1.0
 40
1.0
 40
1.0
 40
1.0
 10
103.2581416524292
 20
59.58262394925113
 30
0.0
 10
103.2377428417958
 20
59.54716593545659
 30
0.0
 10
103.1986365784102
 20
59.47918989256392
 30
0.0
 10
103.1323673591729
 20
59.38785546353234
 30
0.0
 10
103.0644779272082
 20
59.30964264368216
 30
0.0
 10
102.9933987396772
 20
59.2459338496211
 30
0.0
 10
102.9199940929043
 20
59.19587721288362
 30
0.0
 10
102.8439094253882
 20
59.16010326757689
 30
0.0
 10
102.7650912815065
 20
59.13795923590062
 30
0.0
 10
102.7114039425568
 20
59.13525493817303
 30
0.0
 10
102.684624024224
 20
59.13390600053318
 30
0.0
  0
SPLINE
  5
A4
330
1F
100
AcDbEntity
  8
0
  6
Continuous
 62
     7
370
    25
100
AcDbSpline
210
0.0
220
0.0
230
1.0
 70
     8
 71
     3
 72
    15
 73
    11
 74
     0
 42
0.000000001
 43
0.00000001
 40
0.0
 40
0.0
 40
0.0
 40
0.0
 40
0.141985892529676
 40
0.2754733105502226
 40
0.4043458426631413
 40
0.5354297108606239
 40
0.6614274010622601
 40
0.7778668404627508
 40
0.8882797492818416
 40
1.0
 40
1.0
 40
1.0
 40
1.0
 10
102.684624024224
 20
59.13390600053318
 30
0.0
 10
102.6573850132814
 20
59.1350076161518
 30
0.0
 10
102.6045373649215
 20
59.13714491089289
 30
0.0
 10
102.5291041095288
 20
59.15688645802459
 30
0.0
 10
102.4599440447817
 20
59.18788213526849
 30
0.0
 10
102.4001625955995
 20
59.23210869248866
 30
0.0
 10
102.3495434336347
 20
59.28315286145316
 30
0.0
 10
102.3121835865599
 20
59.33994183337723
 30
0.0
 10
102.2887138786392
 20
59.40138613016329
 30
0.0
 10
102.2862325614903
 20
59.44406938043073
 30
0.0
 10
102.2849846011471
 20
59.46553660950755
 30
0.0
  0
SPLINE
  5
A5
330
1F
100
AcDbEntity
  8
0
  6
Continuous
 62
     7
370
    25
100
AcDbSpline
210
0.0
220
0.0
230
1.0
 70
     8
 71
     3
 72
    19
 73
    15
 74
     0
 42
0.000000001
 43
0.00000001
 40
0.0
 40
0.0
 40
0.0
 40
0.0
 40
0.0763466063531653
 40
0.1550908218146668
 40
0.2383515612585504
 40
0.3284041399329867
 40
0.379383859551351
 40
0.4396176441748195
 40
0.5098314158313165
 40
0.588874644996961
 40
0.6774363544094522
 40
0.7755467196196728
 40
0.8826358717258603
 40
1.0
 40
1.0
 40
1.0
 40
1.0
 10
102.2849846011471
 20
59.46553660950754
 30
0.0
 10
102.2861370414415
 20
59.48550837281118
 30
0.0
 10
102.2884781135713
 20
59.52607909797897
 30
0.0
 10
102.3057217294098
 20
59.5864012424645
 30
0.0
 10
102.33267876051
 20
59.6466959536829
 30
0.0
 10
102.3645708292493
 20
59.69615130706669
 30
0.0
 10
102.3970250026089
 20
59.73755893384409
 30
0.0
 10
102.4280585123961
 20
59.77343676934569
 30
0.0
 10
102.4658491179636
 20
59.8130754965239
 30
0.0
 10
102.5103009990034
 20
59.85652497789138
 30
0.0
 10
102.5608268301816
 20
59.90416771022723
 30
0.0
 10
102.6174691729629
 20
59.95599902816713
 30
0.0
 10
102.6808766420928
 20
60.01156235978976
 30
0.0
 10
102.7256931663844
 20
60.04941155233722
 30
0.0
 10
102.7491272293522
 20
60.06920247489216
 30
0.0
  0
SPLINE
  5
A6
330
1F
100
AcDbEntity
  8
0
  6
Continuous
 62
     7
370
    25
100
AcDbSpline
210
0.0
220
0.0
230
1.0
 70
     8
 71
     3
 72
    19
 73
    15
 74
     0
 42
0.000000001
 43
0.00000001
 40
0.0
 40
0.0
 40
0.0
 40
0.0
 40
0.1121245812797456
 40
0.2152010090762432
 40
0.3099024524934779
 40
0.395959096332092
 40
0.4734474940003359
 40
0.5421403275660289
 40
0.602523333055411
 40
0.6547263328340158
 40
0.7478040553141029
 40
0.8352784168250076
 40
0.9189252427194511
 40
1.0
 40
1.0
 40
1.0
 40
1.0
 10
102.7491272293522
 20
60.06920247489216
 30
0.0
 10
102.7936763157518
 20
60.10689527389626
 30
0.0
 10
102.8791794965636
 20
60.17923916395154
 30
0.0
 10
103.0000063389977
 20
60.28608881214377
 30
0.0
 10
103.1088821427198
 20
60.38594959892448
 30
0.0
 10
103.204866539362
 20
60.48005602191732
 30
0.0
 10
103.2891825186264
 20
60.56667015357044
 30
0.0
 10
103.3612590560658
 20
60.64649550699447
 30
0.0
 10
103.420304358142
 20
60.72014782561131
 30
0.0
 10
103.4824368067946
 20
60.80738406831501
 30
0.0
 10
103.5414750555844
 20
60.91368742417541
 30
0.0
 10
103.5925008561697
 20
61.041582684604
 30
0.0
 10
103.6256042419412
 20
61.16946171702052
 30
0.0
 10
103.6293130159074
 20
61.25531265591487
 30
0.0
 10
103.631138447301
 20
61.29756785950754
 30
0.0
  0
SPLINE
  5
A7
330
1F
100
AcDbEntity
  8
0
  6
Continuous
 62
     7
370
    25
100
AcDbSpline
210
0.0
220
0.0
230
1.0
 70
     8
 71
     3
 72
    23
 73
    19
 74
     0
 42
0.000000001
 43
0.00000001
 40
0.0
 40
0.0
 40
0.0
 40
0.0
 40
0.0631728801065214
 40
0.1244573597770017
 40
0.1848409152554591
 40
0.2445668214643681
 40
0.3043191726186539
 40
0.3651997864614157
 40
0.4274209827764716
 40
0.4912616890772882
 40
0.5554990019310203
 40
0.61860451814288
 40
0.6804947639253045
 40
0.7424733052606051
 40
0.8049906647647703
 40
0.8682519711837811
 40
0.9328872172654765
 40
0.9999999999999999
 40
0.9999999999999999
 40
0.9999999999999999
 40
0.9999999999999999
 10
103.631138447301
 20
61.29756785950754
 30
0.0
 10
103.6303792528169
 20
61.32753298188707
 30
0.0
 10
103.6288835581313
 20
61.38656749179801
 30
0.0
 10
103.6155417308043
 20
61.47336913703698
 30
0.0
 10
103.5956018615661
 20
61.55712543132734
 30
0.0
 10
103.5666434468735
 20
61.63753079355068
 30
0.0
 10
103.5290589211731
 20
61.71448451275394
 30
0.0
 10
103.4834139746195
 20
61.78836330978132
 30
0.0
 10
103.428999827691
 20
61.85848722087127
 30
0.0
 10
103.3676787576013
 20
61.92480975881454
 30
0.0
 10
103.3001186382911
 20
61.9854210110343
 30
0.0
 10
103.2279220651561
 20
62.0389165143694
 30
0.0
 10
103.151497677177
 20
62.08409959435253
 30
0.0
 10
103.071313000061
 20
62.12158224005999
 30
0.0
 10
102.9868711627286
 20
62.15027282426416
 30
0.0
 10
102.8987942443268
 20
62.17061014040576
 30
0.0
 10
102.8069559146119
 20
62.18270612748673
 30
0.0
 10
102.7444894651103
 20
62.18435043656604
 30
0.0
 10
102.7126688960189
 20
62.18518805181524
 30
0.0
  0
SPLINE
  5
A8
330
1F
100
AcDbEntity
  8
0
  6
Continuous
 62
     7
370
    25
100
AcDbSpline
210
0.0
220
0.0
230
1.0
 70
     8
 71
     3
 72
    23
 73
    19
 74
     0
 42
0.000000001
 43
0.00000001
 40
0.0
 40
0.0
 40
0.0
 40
0.0
 40
0.0564668684718616
 40
0.1111640986969622
 40
0.1649370968759839
 40
0.2183217523125938
 40
0.272392923248278
 40
0.3279763434477078
 40
0.3852910519840155
 40
0.4449029182928164
 40
0.5068438192198362
 40
0.569488185262964
 40
0.6341532155537216
 40
0.7009760953100478
 40
0.7708974968462685
 40
0.8436256105557793
 40
0.9196596761155394
 40
1.0
 40
1.0
 40
1.0
 40
1.0
 10
118.1411277960831
 20
4.769375963489321
 30
0.0
 10
118.1577471930545
 20
4.76878814368481
 30
0.0
 10
118.1904651449299
 20
4.767630926000649
 30
0.0
 10
118.2385579768656
 20
4.759927640977734
 30
0.0
 10
118.2843217616625
 20
4.74635140520494
 30
0.0
 10
118.3282658757113
 20
4.728161160116247
 30
0.0
 10
118.3699213358625
 20
4.704049859653392
 30
0.0
 10
118.4091830738487
 20
4.67432884042552
 30
0.0
 10
118.4464647616898
 20
4.639753381056002
 30
0.0
 10
118.4815954106082
 20
4.600431594417357
 30
0.0
 10
118.5135688872668
 20
4.556548468988133
 30
0.0
 10
118.5419676123212
 20
4.508504787378908
 30
0.0
 10
118.5654486302665
 20
4.456330371729945
 30
0.0
 10
118.5861221718987
 20
4.400714004019858
 30
0.0
 10
118.602066596456
 20
4.341058319121979
 30
0.0
 10
118.6136761155039
 20
4.277720349649511
 30
0.0
 10
118.622502057551
 20
4.210803138192157
 30
0.0
 10
118.6245505198031
 20
4.16480384773948
 30
0.0
 10
118.6256029563394
 20
4.141170835284192
 30
0.0
  0
LINE
  5
A9
330
1F
100
AcDbEntity
  8
0
  6
Continuous
 62
     7
370
    25
100
AcDbLine
 10
118.6256029563
 20
4.1411708353
 30
0.0
 11
119.2538080845
 21
4.1411708353
 31
0.0
  0
SPLINE
  5
AA
330
1F
100
AcDbEntity
  8
0
  6
Continuous
 62
     7
370
    25
100
AcDbSpline
210
0.0
220
0.0
230
1.0
 70
     8
 71
     3
 72
    23
 73
    19
 74
     0
 42
0.000000001
 43
0.00000001
 40
0.0
 40
0.0
 40
0.0
 40
0.0
 40
0.0749399102007729
 40
0.1464280851715768
 40
0.2147529716359181
 40
0.2804215366912472
 40
0.3436044295193644
 40
0.4055426388186609
 40
0.4661994619307768
 40
0.5265381448244696
 40
0.5859019063092072
 40
0.6440895746157914
 40
0.7016130759883649
 40
0.7587535874365692
 40
0.8166294493897694
 40
0.8756554749553053
 40
0.9366243322865264
 40
1.0
 40
1.0
 40
1.0
 40
1.0
 10
119.2538080845446
 20
4.141170835284192
 30
0.0
 10
119.2510949629408
 20
4.188691229756567
 30
0.0
 10
119.2457936862217
 20
4.281543227451059
 30
0.0
 10
119.2247065473287
 20
4.416413727209529
 30
0.0
 10
119.1964505048965
 20
4.543851518531379
 30
0.0
 10
119.1587390652341
 20
4.663410810137215
 30
0.0
 10
119.1113521737811
 20
4.775048158023272
 30
0.0
 10
119.0555092173514
 20
4.879144139989685
 30
0.0
 10
118.9897835352716
 20
4.975150688384897
 30
0.0
 10
118.915573986217
 20
5.06260480543677
 30
0.0
 10
118.8341404441861
 20
5.14106070086041
 30
0.0
 10
118.7471735494722
 20
5.21062462656071
 30
0.0
 10
118.6533430262203
 20
5.26802702735757
 30
0.0
 10
118.5543632348489
 20
5.315263888804821
 30
0.0
 10
118.4502510295745
 20
5.353003946095948
 30
0.0
 10
118.3400213454084
 20
5.378236228460392
 30
0.0
 10
118.2246286106481
 20
5.395323777258704
 30
0.0
 10
118.1456329395073
 20
5.396819006340164
 30
0.0
 10
118.1053705845446
 20
5.397581091694449
 30
0.0
  0
SPLINE
  5
AB
330
1F
100
AcDbEntity
  8
0
  6
Continuous
 62
     7
370
    25
100
AcDbSpline
210
0.0
220
0.0
230
1.0
 70
     8
 71
     3
 72
    19
 73
    15
 74
     0
 42
0.000000001
 43
0.00000001
 40
0.0
 40
0.0
 40
0.0
 40
0.0
 40
0.0896145288821137
 40
0.1749485612865243
 40
0.257548125874566
 40
0.3389007874900968
 40
0.4200531858831904
 40
0.5014014271193605
 40
0.5842520267159576
 40
0.6703704767286323
 40
0.7564732666582513
 40
0.8392065940498482
 40
0.9201204666578205
 40
1.0
 40
1.0
 40
1.0
 40
1.0
 10
118.1053705845446
 20
5.397581091694449
 30
0.0
 10
118.0559491150102
 20
5.396039011558856
 30
0.0
 10
117.959466824699
 20
5.393028509752107
 30
0.0
 10
117.8192704039644
 20
5.367347930213469
 30
0.0
 10
117.6883422756003
 20
5.324393192500271
 30
0.0
 10
117.5667776120569
 20
5.264374095721098
 30
0.0
 10
117.4556113146918
 20
5.188126124740207
 30
0.0
 10
117.3548618178996
 20
5.097212898202242
 30
0.0
 10
117.2675759471095
 20
4.989727008934274
 30
0.0
 10
117.1932002842582
 20
4.870140769400768
 30
0.0
 10
117.1314029974794
 20
4.743515772066489
 30
0.0
 10
117.0880980330586
 20
4.612580273906597
 30
0.0
 10
117.0596341460216
 20
4.480808772135029
 30
0.0
 10
117.0565982962992
 20
4.392080512485899
 30
0.0
 10
117.0550901358266
 20
4.348001764771372
 30
0.0
  0
SPLINE
  5
AC
330
1F
100
AcDbEntity
  8
0
  6
Continuous
 62
     7
370
    25
100
AcDbSpline
210
0.0
220
0.0
230
1.0
 70
     8
 71
     3
 72
    23
 73
    19
 74
     0
 42
0.000000001
 43
0.00000001
 40
0.0
 40
0.0
 40
0.0
 40
0.0
 40
0.045517751651318
 40
0.0916159906181649
 40
0.1392465550335727
 40
0.1882415637234045
 40
0.2386730793725379
 40
0.2906638743206412
 40
0.3448398555786327
 40
0.4004316067351777
 40
0.4591437176132946
 40
0.5225510475946139
 40
0.5901008583230428
 40
0.6622596565248674
 40
0.739681307001258
 40
0.821575471385419
 40
0.9083300466844466
 40
1.0
 40
1.0
 40
1.0
 40
1.0
 10
117.0550901358266
 20
4.348001764771372
 30
0.0
 10
117.0556773338682
 20
4.321339822811877
 30
0.0
 10
117.0568592184807
 20
4.267675919481706
 30
0.0
 10
117.0650770192413
 20
4.186469262758649
 30
0.0
 10
117.077405344222
 20
4.103750788637256
 30
0.0
 10
117.0959934538648
 20
4.019591420499705
 30
0.0
 10
117.1191743504739
 20
3.93396756714905
 30
0.0
 10
117.1472961286155
 20
3.846622985822075
 30
0.0
 10
117.1810111005995
 20
3.758052888271019
 30
0.0
 10
117.2197566319925
 20
3.667260433195791
 30
0.0
 10
117.2659801491409
 20
3.573950853057135
 30
0.0
 10
117.3198010097753
 20
3.476725400907735
 30
0.0
 10
117.3826477414976
 20
3.375670323381693
 30
0.0
 10
117.4537612350552
 20
3.270215030601923
 30
0.0
 10
117.533486871617
 20
3.160525841896862
 30
0.0
 10
117.622213845427
 20
3.046933175333601
 30
0.0
 10
117.7189202301043
 20
2.929036766600167
 30
0.0
 10
117.7875554717932
 20
2.850229633528821
 30
0.0
 10
117.8228185012112
 20
2.809740546822654
 30
0.0
  0
LINE
  5
AD
330
1F
100
AcDbEntity
  8
0
  6
Continuous
 62
     7
370
    25
100
AcDbLine
 10
117.8228185012
 20
2.8097405468
 30
0.0
 11
118.1881029563
 21
2.3911708353
 31
0.0
  0
LINE
  5
AE
330
1F
100
AcDbEntity
  8
0
  6
Continuous
 62
     7
370
    25
100
AcDbLine
 10
118.1881029563
 20
2.3911708353
 30
0.0
 11
117.010218341
 21
2.3911708353
 31
0.0
  0
LINE
  5
AF
330
1F
100
AcDbEntity
  8
0
  6
Continuous
 62
     7
370
    25
100
AcDbLine
 10
117.010218341
 20
2.3911708353
 30
0.0
 11
117.010218341
 21
1.807837502
 31
0.0
  0
LINE
  5
B0
330
1F
100
AcDbEntity
  8
0
  6
Continuous
 62
     7
370
    25
100
AcDbLine
 10
117.010218341
 20
1.807837502
 30
0.0
 11
119.3435516743
 21
1.807837502
 31
0.0
  0
LINE
  5
B1
330
1F
100
AcDbEntity
  8
0
  6
Continuous
 62
     7
370
    25
100
AcDbLine
 10
119.3435516743
 20
1.807837502
 30
0.0
 11
119.3435516743
 21
2.1261467968
 31
0.0
  0
LINE
  5
B2
330
1F
100
AcDbEntity
  8
0
  6
Continuous
 62
     7
370
    25
100
AcDbLine
 10
119.3435516743
 20
2.1261467968
 30
0.0
 11
118.3072936615
 21
3.2290113802
 31
0.0
  0
SPLINE
  5
B3
330
1F
100
AcDbEntity
  8
0
  6
Continuous
 62
     7
370
    25
100
AcDbSpline
210
0.0
220
0.0
230
1.0
 70
     8
 71
     3
 72
    19
 73
    15
 74
     0
 42
0.000000001
 43
0.00000001
 40
0.0
 40
0.0
 40
0.0
 40
0.0
 40
0.1038439242634209
 40
0.2011148859465186
 40
0.2911157193792153
 40
0.3743484039713585
 40
0.4507073961858708
 40
0.5200404120163604
 40
0.5832583224453373
 40
0.639578299825327
 40
0.7415365099482681
 40
0.8350600486817376
 40
0.920872960045834
 40
1.0
 40
1.0
 40
1.0
 40
1.0
 10
118.3072936614677
 20
3.229011380155988
 30
0.0
 10
118.2772913290485
 20
3.261182282515803
 30
0.0
 10
118.21918570847
 20
3.323487779970598
 30
0.0
 10
118.1365073984877
 20
3.414990031475919
 30
0.0
 10
118.0616908313464
 20
3.501823484024127
 30
0.0
 10
117.9962873894134
 20
3.584912738712135
 30
0.0
 10
117.9368647842526
 20
3.66156271824788
 30
0.0
 10
117.8860726651617
 20
3.734083748668752
 30
0.0
 10
117.8434463240159
 20
3.801820213737711
 30
0.0
 10
117.797169384924
 20
3.883498560539347
 30
0.0
 10
117.7532215050788
 20
3.980914523692901
 30
0.0
 10
117.7128966654581
 20
4.093141707588373
 30
0.0
 10
117.6883158851617
 20
4.20040504881613
 30
0.0
 10
117.6849229601273
 20
4.270300147651305
 30
0.0
 10
117.6832952640318
 20
4.303831091694449
 30
0.0
  0
SPLINE
  5
B4
330
1F
100
AcDbEntity
  8
0
  6
Continuous
 62
     7
370
    25
100
AcDbSpline
210
0.0
220
0.0
230
1.0
 70
     8
 71
     3
 72
    15
 73
    11
 74
     0
 42
0.000000001
 43
0.00000001
 40
0.0
 40
0.0
 40
0.0
 40
0.0
 40
0.132754871747586
 40
0.2572338481110595
 40
0.3786007316763492
 40
0.5014062774984573
 40
0.6239419536469502
 40
0.743641834874647
 40
0.8681208112381256
 40
1.0
 40
1.0
 40
1.0
 40
1.0
 10
117.6832952640318
 20
4.303831091694449
 30
0.0
 10
117.6845122530732
 20
4.336269693170135
 30
0.0
 10
117.6868703644565
 20
4.399124684290896
 30
0.0
 10
117.7127840977555
 20
4.488535574505963
 30
0.0
 10
117.752930552158
 20
4.569488008353966
 30
0.0
 10
117.8095025762741
 20
4.639563035829631
 30
0.0
 10
117.8780290156486
 20
4.697148332533009
 30
0.0
 10
117.9572177533007
 20
4.739978658386959
 30
0.0
 10
118.0464231680855
 20
4.764691560092974
 30
0.0
 10
118.1089578634703
 20
4.767784732471598
 30
0.0
 10
118.141127796083
 20
4.76937596348932
 30
0.0
  0
SPLINE
  5
B5
330
1F
100
AcDbEntity
  8
0
  6
Continuous
 62
     7
370
    25
100
AcDbSpline
210
0.0
220
0.0
230
1.0
 70
     8
 71
     3
 72
    15
 73
    11
 74
     0
 42
0.000000001
 43
0.00000001
 40
0.0
 40
0.0
 40
0.0
 40
0.0
 40
0.1235225888124492
 40
0.2451066492784793
 40
0.367265609727988
 40
0.4946905456421221
 40
0.622323872947815
 40
0.7460028360253929
 40
0.8722531479453015
 40
1.0
 40
1.0
 40
1.0
 40
1.0
 10
113.3699939819805
 20
4.76937596348932
 30
0.0
 10
113.3927556862185
 20
4.768255586237294
 30
0.0
 10
113.4379218789875
 20
4.766032414614903
 30
0.0
 10
113.5039683715953
 20
4.749439250620184
 30
0.0
 10
113.56669053514
 20
4.721506724065708
 30
0.0
 10
113.6247895707727
 20
4.682989416061849
 30
0.0
 10
113.6774268070785
 20
4.636731761968378
 30
0.0
 10
113.7206267914164
 20
4.581949172273625
 30
0.0
 10
113.756558490176
 20
4.521923766919438
 30
0.0
 10
113.771788991035
 20
4.477577284406752
 30
0.0
 10
113.7794491101856
 20
4.455273399386757
 30
0.0
  0
LINE
  5
B6
330
1F
100
AcDbEntity
  8
0
  6
Continuous
 62
     7
370
    25
100
AcDbLine
 10
113.7794491102
 20
4.4552733994
 30
0.0
 11
114.4076542384
 21
4.4552733994
 31
0.0
  0
SPLINE
  5
B7
330
1F
100
AcDbEntity
  8
0
  6
Continuous
 62
     7
370
    25
100
AcDbSpline
210
0.0
220
0.0
230
1.0
 70
     8
 71
     3
 72
    15
 73
    11
 74
     0
 42
0.000000001
 43
0.00000001
 40
0.0
 40
0.0
 40
0.0
 40
0.0
 40
0.1389342360692867
 40
0.2723713666678131
 40
0.4007019795223928
 40
0.5249153332245825
 40
0.6467750113322164
 40
0.7657064925031604
 40
0.8831152256608814
 40
1.0
 40
1.0
 40
1.0
 40
1.0
 10
114.4076542383907
 20
4.455273399386757
 30
0.0
 10
114.4032188712766
 20
4.48667513265195
 30
0.0
 10
114.3945236278525
 20
4.548236150635402
 30
0.0
 10
114.3737170732005
 20
4.637361168982847
 30
0.0
 10
114.3488301885935
 20
4.72190234840049
 30
0.0
 10
114.3177601846328
 20
4.80159196422183
 30
0.0
 10
114.2813201247099
 20
4.876571969998414
 30
0.0
 10
114.2398805634384
 20
4.94709966060186
 30
0.0
 10
114.1929935236272
 20
5.012872317866194
 30
0.0
 10
114.1570541109877
 20
5.052494027679506
 30
0.0
 10
114.1391245909548
 20
5.072260578873936
 30
0.0
  0
SPLINE
  5
B8
330
1F
100
AcDbEntity
  8
0
  6
Continuous
 62
     7
370
    25
100
AcDbSpline
210
0.0
220
0.0
230
1.0
 70
     8
 71
     3
 72
    15
 73
    11
 74
     0
 42
0.000000001
 43
0.00000001
 40
0.0
 40
0.0
 40
0.0
 40
0.0
 40
0.1274068638107723
 40
0.2511055387650859
 40
0.3729077916388972
 40
0.4944963015983171
 40
0.6161714362084819
 40
0.7405628981726766
 40
0.8676048506052625
 40
1.0
 40
1.0
 40
1.0
 40
1.0
 10
114.1391245909548
 20
5.072260578873936
 30
0.0
 10
114.113263634091
 20
5.098341110893949
 30
0.0
 10
114.062294405966
 20
5.149743098575648
 30
0.0
 10
113.9771188477644
 20
5.215583366944478
 30
0.0
 10
113.88783913295
 20
5.272563641716046
 30
0.0
 10
113.7926647174792
 20
5.317738015529951
 30
0.0
 10
113.6930765871667
 20
5.354301437852637
 30
0.0
 10
113.5882827825313
 20
5.378861171244637
 30
0.0
 10
113.4787115290689
 20
5.395156771174931
 30
0.0
 10
113.4039429328597
 20
5.396761944530422
 30
0.0
 10
113.3657872512112
 20
5.397581091694449
 30
0.0
  0
SPLINE
  5
B9
330
1F
100
AcDbEntity
  8
0
  6
Continuous
 62
     7
370
    25
100
AcDbSpline
210
0.0
220
0.0
230
1.0
 70
     8
 71
     3
 72
    23
 73
    19
 74
     0
 42
0.000000001
 43
0.00000001
 40
0.0
 40
0.0
 40
0.0
 40
0.0
 40
0.0682139106966406
 40
0.1340948027129779
 40
0.198285615135713
 40
0.2611601861891387
 40
0.3236346542898935
 40
0.3863667501562201
 40
0.4496423858958996
 40
0.5142449020307928
 40
0.5784133384205209
 40
0.6403746860373694
 40
0.7006148497351856
 40
0.7601039771708669
 40
0.8192989800104277
 40
0.8784659836354102
 40
0.9383604016893761
 40
1.0
 40
1.0
 40
1.0
 40
1.0
 10
113.3657872512112
 20
5.397581091694449
 30
0.0
 10
113.3318648869626
 20
5.396780251145734
 30
0.0
 10
113.2651803545115
 20
5.395205960003536
 30
0.0
 10
113.1671708708266
 20
5.382568405028142
 30
0.0
 10
113.0737270302356
 20
5.360403540865715
 30
0.0
 10
112.9838611040154
 20
5.331423478377042
 30
0.0
 10
112.898894727202
 20
5.291991259991953
 30
0.0
 10
112.8169526094274
 20
5.246218847307603
 30
0.0
 10
112.7403242162953
 20
5.190077081029258
 30
0.0
 10
112.6688302519933
 20
5.126642535041022
 30
0.0
 10
112.603149410197
 20
5.058031863740893
 30
0.0
 10
112.5462695133831
 20
4.984692698578131
 30
0.0
 10
112.4973688454539
 20
4.908584097662771
 30
0.0
 10
112.4570811631214
 20
4.829073742582749
 30
0.0
 10
112.4261054102298
 20
4.746027092151026
 30
0.0
 10
112.404607319044
 20
4.659923895622075
 30
0.0
 10
112.3905362963987
 20
4.570954146259263
 30
0.0
 10
112.3891344548689
 20
4.510482605999995
 30
0.0
 10
112.38842346916
 20
4.47981266220727
 30
0.0
  0
SPLINE
  5
BA
330
1F
100
AcDbEntity
  8
0
  6
Continuous
 62
     7
370
    25
100
AcDbSpline
210
0.0
220
0.0
230
1.0
 70
     8
 71
     3
 72
    15
 73
    11
 74
     0
 42
0.000000001
 43
0.00000001
 40
0.0
 40
0.0
 40
0.0
 40
0.0
 40
0.1241007034540106
 40
0.2443161303745148
 40
0.3644659408319848
 40
0.485853993067163
 40
0.6089147941772745
 40
0.7343009187589576
 40
0.863942816945836
 40
1.0
 40
1.0
 40
1.0
 40
1.0
 10
112.38842346916
 20
4.479812662207269
 30
0.0
 10
112.3898824543174
 20
4.441830490696987
 30
0.0
 10
112.3927547475277
 20
4.367055272601207
 30
0.0
 10
112.4163239929095
 20
4.25761618525224
 30
0.0
 10
112.453216271038
 20
4.152972887554513
 30
0.0
 10
112.5065107551178
 20
4.054589496689609
 30
0.0
 10
112.5731424341211
 20
3.962733756875401
 30
0.0
 10
112.6548972726465
 20
3.880476681304483
 30
0.0
 10
112.749446680681
 20
3.806528590548917
 30
0.0
 10
112.8204261807057
 20
3.766788877517943
 30
0.0
 10
112.8567728281343
 20
3.746439264771372
 30
0.0
  0
SPLINE
  5
BB
330
1F
100
AcDbEntity
  8
0
  6
Continuous
 62
     7
370
    25
100
AcDbSpline
210
0.0
220
0.0
230
1.0
 70
     8
 71
     3
 72
    23
 73
    19
 74
     0
 42
0.000000001
 43
0.00000001
 40
0.0
 40
0.0
 40
0.0
 40
0.0
 40
0.0662214729650402
 40
0.1301222241928447
 40
0.1929218896442534
 40
0.2547641743082563
 40
0.315756781054473
 40
0.3763028430934
 40
0.4368144190490063
 40
0.4981681590965018
 40
0.5595162284808268
 40
0.6202430211536027
 40
0.6809698138263744
 40
0.7423490653749131
 40
0.8045838965925336
 40
0.8681023975450424
 40
0.9333073801795226
 40
1.0
 40
1.0
 40
1.0
 40
1.0
 10
112.8567728281343
 20
3.746439264771372
 30
0.0
 10
112.8318250469063
 20
3.738248382917102
 30
0.0
 10
112.782803775758
 20
3.722153667453117
 30
0.0
 10
112.713125933109
 20
3.690455307443719
 30
0.0
 10
112.646870266646
 20
3.655814254156903
 30
0.0
 10
112.5851776750856
 20
3.615570481865123
 30
0.0
 10
112.527434551145
 20
3.5713512703896
 30
0.0
 10
112.4739929037506
 20
3.522778617973679
 30
0.0
 10
112.4245334314387
 20
3.469958435598019
 30
0.0
 10
112.379863539952
 20
3.412600232309489
 30
0.0
 10
112.3402172659387
 20
3.351621340889518
 30
0.0
 10
112.3046447753387
 20
3.288430337613538
 30
0.0
 10
112.2753666326892
 20
3.222068919631802
 30
0.0
 10
112.2505644008713
 20
3.153294979006871
 30
0.0
 10
112.2316813936363
 20
3.081490411683117
 30
0.0
 10
112.2183860691871
 20
3.006933454548317
 30
0.0
 10
112.2107010453328
 20
2.929794176906891
 30
0.0
 10
112.2095289481479
 20
2.877532363044007
 30
0.0
 10
112.2089362896728
 20
2.85110673272009
 30
0.0
  0
SPLINE
  5
BC
330
1F
100
AcDbEntity
  8
0
  6
Continuous
 62
     7
370
    25
100
AcDbSpline
210
0.0
220
0.0
230
1.0
 70
     8
 71
     3
 72
    23
 73
    19
 74
     0
 42
0.000000001
 43
0.00000001
 40
0.0
 40
0.0
 40
0.0
 40
0.0
 40
0.0628211608050999
 40
0.1238705348889603
 40
0.1835541689801062
 40
0.2422662914882129
 40
0.3012648873502012
 40
0.3608466874955826
 40
0.421948699939762
 40
0.4847891908580601
 40
0.5480139130193521
 40
0.6104128761522071
 40
0.6725364471512206
 40
0.7348288403150787
 40
0.7979472548457995
 40
0.8629734910039563
 40
0.9300195846043554
 40
1.0
 40
1.0
 40
1.0
 40
1.0
 10
112.2089362896728
 20
2.85110673272009
 30
0.0
 10
112.2101376880541
 20
2.812271785283128
 30
0.0
 10
112.2125066009841
 20
2.735697178100596
 30
0.0
 10
112.2275670407207
 20
2.622910618168512
 30
0.0
 10
112.2556068658771
 20
2.515378653831929
 30
0.0
 10
112.292494809112
 20
2.411863967644699
 30
0.0
 10
112.3416993218657
 20
2.313702896420686
 30
0.0
 10
112.3996047612081
 20
2.218642777582899
 30
0.0
 10
112.4707821807101
 20
2.129980269841228
 30
0.0
 10
112.5498836607888
 20
2.045371366209944
 30
0.0
 10
112.6377304659532
 20
1.968448739564835
 30
0.0
 10
112.7329706940609
 20
1.901760283712087
 30
0.0
 10
112.8335100940341
 20
1.844529723233172
 30
0.0
 10
112.9399847502552
 20
1.798068323712765
 30
0.0
 10
113.0523576709924
 20
1.762287732218044
 30
0.0
 10
113.1703783868377
 20
1.736423871387014
 30
0.0
 10
113.2945427885341
 20
1.720599933419189
 30
0.0
 10
113.3792947072635
 20
1.718941093555989
 30
0.0
 10
113.4225781165959
 20
1.718093912207269
 30
0.0
  0
SPLINE
  5
BD
330
1F
100
AcDbEntity
  8
0
  6
Continuous
 62
     7
370
    25
100
AcDbSpline
210
0.0
220
0.0
230
1.0
 70
     8
 71
     3
 72
    23
 73
    19
 74
     0
 42
0.000000001
 43
0.00000001
 40
0.0
 40
0.0
 40
0.0
 40
0.0
 40
0.0666590453059287
 40
0.1303429423273783
 40
0.1919362235456377
 40
0.2519958016206799
 40
0.3111219432316454
 40
0.3697547996986378
 40
0.4286022079335139
 40
0.4884358451551514
 40
0.5485243594721663
 40
0.6086610699182949
 40
0.6692357986109773
 40
0.7308807993874671
 40
0.7941962717216965
 40
0.8598304060149953
 40
0.9285334661023534
 40
0.9999999999999999
 40
0.9999999999999999
 40
0.9999999999999999
 40
0.9999999999999999
 10
113.4225781165959
 20
1.718093912207269
 30
0.0
 10
113.463523523718
 20
1.718987121708167
 30
0.0
 10
113.5435868491765
 20
1.720733674691748
 30
0.0
 10
113.6606962190907
 20
1.73585097589693
 30
0.0
 10
113.771997589992
 20
1.760236409501176
 30
0.0
 10
113.8777750046565
 20
1.794609700274552
 30
0.0
 10
113.977619219267
 20
1.839185984196299
 30
0.0
 10
114.0724356594701
 20
1.892266336481275
 30
0.0
 10
114.1603322842634
 20
1.956912308352512
 30
0.0
 10
114.2422884352201
 20
2.030205658543058
 30
0.0
 10
114.3164860774832
 20
2.112436635858838
 30
0.0
 10
114.3828012965359
 20
2.201700400627803
 30
0.0
 10
114.4397718301652
 20
2.298336386363087
 30
0.0
 10
114.4876313152632
 20
2.401931723742859
 30
0.0
 10
114.526005598894
 20
2.512668150203638
 30
0.0
 10
114.5562751211836
 20
2.630320477601627
 30
0.0
 10
114.5774188779009
 20
2.755118562179175
 30
0.0
 10
114.5838582533266
 20
2.840982299270311
 30
0.0
 10
114.5871414178779
 20
2.884760578873936
 30
0.0
  0
LINE
  5
BE
330
1F
100
AcDbEntity
  8
0
  6
Continuous
 62
     7
370
    25
100
AcDbLine
 10
114.5871414179
 20
2.8847605789
 30
0.0
 11
113.9589362897
 21
2.8847605789
 31
0.0
  0
SPLINE
  5
BF
330
1F
100
AcDbEntity
  8
0
  6
Continuous
 62
     7
370
    25
100
AcDbSpline
210
0.0
220
0.0
230
1.0
 70
     8
 71
     3
 72
    19
 73
    15
 74
     0
 42
0.000000001
 43
0.00000001
 40
0.0
 40
0.0
 40
0.0
 40
0.0
 40
0.077346352587321
 40
0.1506523054421731
 40
0.220677485415316
 40
0.2865751871342038
 40
0.3501884696535659
 40
0.4113788387158304
 40
0.4699460385526049
 40
0.5282337864665748
 40
0.6421944316652395
 40
0.7553643229127752
 40
0.8735561215980523
 40
1.0
 40
1.0
 40
1.0
 40
1.0
 10
113.9589362896728
 20
2.884760578873936
 30
0.0
 10
113.9549554192832
 20
2.86274828520852
 30
0.0
 10
113.9472016302319
 20
2.819873570657226
 30
0.0
 10
113.9320783402181
 20
2.757800515164348
 30
0.0
 10
113.9123705834444
 20
2.700503251020564
 30
0.0
 10
113.8895835132746
 20
2.647472521808536
 30
0.0
 10
113.8649700468982
 20
2.598012052518625
 30
0.0
 10
113.8352310936269
 20
2.553948540387542
 30
0.0
 10
113.8025457676989
 20
2.514085480458383
 30
0.0
 10
113.7553806040826
 20
2.466695835517029
 30
0.0
 10
113.6879547541249
 20
2.418004953721629
 30
0.0
 10
113.596907518815
 20
2.375690261080424
 30
0.0
 10
113.4956260916043
 20
2.350888652470866
 30
0.0
 10
113.42482027306
 20
2.347862932414661
 30
0.0
 10
113.3882231486471
 20
2.346299040412398
 30
0.0
  0
SPLINE
  5
C0
330
1F
100
AcDbEntity
  8
0
  6
Continuous
 62
     7
370
    25
100
AcDbSpline
210
0.0
220
0.0
230
1.0
 70
     8
 71
     3
 72
    23
 73
    19
 74
     0
 42
0.000000001
 43
0.00000001
 40
0.0
 40
0.0
 40
0.0
 40
0.0
 40
0.0694022227332735
 40
0.1359434277415576
 40
0.2010203772822033
 40
0.2641806354860711
 40
0.325954798226701
 40
0.3884537906252678
 40
0.4508185688551934
 40
0.5142656197867473
 40
0.5774921763904597
 40
0.6388352985771102
 40
0.6986336447044001
 40
0.7580571493169908
 40
0.8170324353081876
 40
0.8764147980799072
 40
0.9372779555277136
 40
1.0
 40
1.0
 40
1.0
 40
1.0
 10
113.3882231486471
 20
2.346299040412398
 30
0.0
 10
113.3688034208329
 20
2.346632056484669
 30
0.0
 10
113.3307645186061
 20
2.347284360468242
 30
0.0
 10
113.2748910353584
 20
2.354514276749276
 30
0.0
 10
113.2216636755046
 20
2.36642195433846
 30
0.0
 10
113.1709833001947
 20
2.382604046838447
 30
0.0
 10
113.1225272752889
 20
2.402889311528072
 30
0.0
 10
113.0772214015389
 20
2.429045946465457
 30
0.0
 10
113.0341422319747
 20
2.459456768565613
 30
0.0
 10
112.9937580763835
 20
2.4936466057697
 30
0.0
 10
112.9564422844096
 20
2.530901289378805
 30
0.0
 10
112.9253933509585
 20
2.572154522084087
 30
0.0
 10
112.8970168724764
 20
2.614075179819324
 30
0.0
 10
112.8760294245151
 20
2.65940585972894
 30
0.0
 10
112.8576398986734
 20
2.70570728696828
 30
0.0
 10
112.846384569438
 20
2.754660058169888
 30
0.0
 10
112.8378859875895
 20
2.805237275911964
 30
0.0
 10
112.8373920841052
 20
2.839850103452361
 30
0.0
 10
112.8371414178779
 20
2.857416828873936
 30
0.0
  0
SPLINE
  5
C1
330
1F
100
AcDbEntity
  8
0
  6
Continuous
 62
     7
370
    25
100
AcDbSpline
210
0.0
220
0.0
230
1.0
 70
     8
 71
     3
 72
    23
 73
    19
 74
     0
 42
0.000000001
 43
0.00000001
 40
0.0
 40
0.0
 40
0.0
 40
0.0
 40
0.0506134204127166
 40
0.1007597227549726
 40
0.1492748125078603
 40
0.1988884379588269
 40
0.2493064970530098
 40
0.3023226859423802
 40
0.3572206482518657
 40
0.415437321583027
 40
0.4764429313671211
 40
0.5398286479827847
 40
0.6061838488371192
 40
0.6759412007935873
 40
0.7497824080738361
 40
0.828287688421147
 40
0.911844924247449
 40
1.0
 40
1.0
 40
1.0
 40
1.0
 10
112.8371414178779
 20
2.857416828873936
 30
0.0
 10
112.8378068897761
 20
2.876629036018441
 30
0.0
 10
112.8391316918427
 20
2.914876138261405
 30
0.0
 10
112.8499554633791
 20
2.970689741715852
 30
0.0
 10
112.8670484863447
 20
3.024377929902413
 30
0.0
 10
112.8907927831125
 20
3.075702946295571
 30
0.0
 10
112.9225006451784
 20
3.124475617077191
 30
0.0
 10
112.9599155686658
 20
3.171674469672906
 30
0.0
 10
113.0059852309188
 20
3.214842888054257
 30
0.0
 10
113.0565298201233
 20
3.25751356135455
 30
0.0
 10
113.1151416871949
 20
3.294709519018268
 30
0.0
 10
113.1789663519713
 20
3.329035922741146
 30
0.0
 10
113.2496812255818
 20
3.356349142567389
 30
0.0
 10
113.3255600949202
 20
3.380744906964621
 30
0.0
 10
113.4080382796807
 20
3.398563194329433
 30
0.0
 10
113.4966036208842
 20
3.411501007659598
 30
0.0
 10
113.5911132496947
 20
3.421131204555181
 30
0.0
 10
113.6562599650547
 20
3.422512814885361
 30
0.0
 10
113.689705520442
 20
3.423222117335475
 30
0.0
  0
LINE
  5
C2
330
1F
100
AcDbEntity
  8
0
  6
Continuous
 62
     7
370
    25
100
AcDbLine
 10
113.6897055204
 20
3.4232221173
 30
0.0
 11
113.6897055204
 21
4.0065554507
 31
0.0
  0
SPLINE
  5
C3
330
1F
100
AcDbEntity
  8
0
  6
Continuous
 62
     7
370
    25
100
AcDbSpline
210
0.0
220
0.0
230
1.0
 70
     8
 71
     3
 72
    19
 73
    15
 74
     0
 42
0.000000001
 43
0.00000001
 40
0.0
 40
0.0
 40
0.0
 40
0.0
 40
0.1417037608121864
 40
0.2650996741797995
 40
0.370057990889224
 40
0.4580235488018093
 40
0.535993517770604
 40
0.6098476150495556
 40
0.6800751591995023
 40
0.748587093552187
 40
0.8156303639700185
 40
0.8780707438861871
 40
0.9395839280433528
 40
0.9999999999999999
 40
0.9999999999999999
 40
0.9999999999999999
 40
0.9999999999999999
 10
113.689705520442
 20
4.006555450668808
 30
0.0
 10
113.6480638148875
 20
4.01010179154855
 30
0.0
 10
113.5701604303091
 20
4.016736293035046
 30
0.0
 10
113.4620263554232
 20
4.032251305400722
 30
0.0
 10
113.3709914034194
 20
4.052989673917081
 30
0.0
 10
113.2948675478867
 20
4.078009392991983
 30
0.0
 10
113.2316591757519
 20
4.110141230614279
 30
0.0
 10
113.176440690844
 20
4.145613360416055
 30
0.0
 10
113.1288839196327
 20
4.186809055173978
 30
0.0
 10
113.0886920685516
 20
4.232499864759063
 30
0.0
 10
113.056539838138
 20
4.281567509729621
 30
0.0
 10
113.0337843625572
 20
4.33324933347158
 30
0.0
 10
113.0187578353221
 20
4.385946236536798
 30
0.0
 10
113.0173340730413
 20
4.421989329982939
 30
0.0
 10
113.0166285973651
 20
4.439848719899577
 30
0.0
  0
SPLINE
  5
C4
330
1F
100
AcDbEntity
  8
0
  6
Continuous
 62
     7
370
    25
100
AcDbSpline
210
0.0
220
0.0
230
1.0
 70
     8
 71
     3
 72
    15
 73
    11
 74
     0
 42
0.000000001
 43
0.00000001
 40
0.0
 40
0.0
 40
0.0
 40
0.0
 40
0.1262080809789287
 40
0.2463314545173041
 40
0.3634838183347906
 40
0.4847544616601277
 40
0.6083827567272884
 40
0.7312142544154168
 40
0.8609892746833584
 40
1.0
 40
1.0
 40
1.0
 40
1.0
 10
113.0166285973651
 20
4.439848719899577
 30
0.0
 10
113.0178457448677
 20
4.462635362256155
 30
0.0
 10
113.0202213591102
 20
4.507110063968783
 30
0.0
 10
113.0386716662973
 20
4.570762731136922
 30
0.0
 10
113.0706993090849
 20
4.627503808132117
 30
0.0
 10
113.1136427543081
 20
4.677213895833182
 30
0.0
 10
113.1659708354097
 20
4.718735486665326
 30
0.0
 10
113.2273085196598
 20
4.748879453684657
 30
0.0
 10
113.2963247757602
 20
4.7665903802894
 30
0.0
 10
113.3448814306934
 20
4.768426406617985
 30
0.0
 10
113.3699939819805
 20
4.76937596348932
 30
0.0
  0
LINE
  5
C5
330
1F
100
AcDbEntity
  8
0
  6
Continuous
 62
     7
370
    25
100
AcDbLine
 10
107.9580348474
 20
1.807837502
 30
0.0
 11
109.2249619307
 21
5.307837502
 31
0.0
  0
LINE
  5
C6
330
1F
100
AcDbEntity
  8
0
  6
Continuous
 62
     7
370
    25
100
AcDbLine
 10
109.2249619307
 20
5.307837502
 30
0.0
 11
108.553988373
 21
5.307837502
 31
0.0
  0
LINE
  5
C7
330
1F
100
AcDbEntity
  8
0
  6
Continuous
 62
     7
370
    25
100
AcDbLine
 10
108.553988373
 20
5.307837502
 30
0.0
 11
107.6544491102
 21
2.8216596173
 31
0.0
  0
LINE
  5
C8
330
1F
100
AcDbEntity
  8
0
  6
Continuous
 62
     7
370
    25
100
AcDbLine
 10
107.6544491102
 20
2.8216596173
 30
0.0
 11
106.752806482
 21
5.307837502
 31
0.0
  0
LINE
  5
C9
330
1F
100
AcDbEntity
  8
0
  6
Continuous
 62
     7
370
    25
100
AcDbLine
 10
106.752806482
 20
5.307837502
 30
0.0
 11
106.0839362897
 21
5.307837502
 31
0.0
  0
LINE
  5
CA
330
1F
100
AcDbEntity
  8
0
  6
Continuous
 62
     7
370
    25
100
AcDbLine
 10
106.0839362897
 20
5.307837502
 30
0.0
 11
107.3529667384
 21
1.807837502
 31
0.0
  0
LINE
  5
CB
330
1F
100
AcDbEntity
  8
0
  6
Continuous
 62
     7
370
    25
100
AcDbLine
 10
107.3529667384
 20
1.807837502
 30
0.0
 11
107.9580348474
 21
1.807837502
 31
0.0
  0
LINE
  5
CC
330
1F
100
AcDbEntity
  8
0
  6
Continuous
 62
     7
370
    25
100
AcDbLine
 10
103.7935753819
 20
27.3552393196
 30
0.0
 11
103.7935753819
 21
27.9834444478
 31
0.0
  0
LINE
  5
CD
330
1F
100
AcDbEntity
  8
0
  6
Continuous
 62
     7
370
    25
100
AcDbLine
 10
103.7935753819
 20
27.9834444478
 30
0.0
 11
101.9089599973
 21
27.9834444478
 31
0.0
  0
LINE
  5
CE
330
1F
100
AcDbEntity
  8
0
  6
Continuous
 62
     7
370
    25
100
AcDbLine
 10
101.9089599973
 20
27.9834444478
 30
0.0
 11
101.9089599973
 21
27.3552393196
 31
0.0
  0
LINE
  5
CF
330
1F
100
AcDbEntity
  8
0
  6
Continuous
 62
     7
370
    25
100
AcDbLine
 10
101.9089599973
 20
27.3552393196
 30
0.0
 11
102.5371651255
 21
27.3552393196
 31
0.0
  0
LINE
  5
D0
330
1F
100
AcDbEntity
  8
0
  6
Continuous
 62
     7
370
    25
100
AcDbLine
 10
102.5371651255
 20
27.3552393196
 30
0.0
 11
102.5371651255
 21
24.4834444478
 31
0.0
  0
LINE
  5
D1
330
1F
100
AcDbEntity
  8
0
  6
Continuous
 62
     7
370
    25
100
AcDbLine
 10
102.5371651255
 20
24.4834444478
 30
0.0
 11
103.1653702537
 21
24.4834444478
 31
0.0
  0
LINE
  5
D2
330
1F
100
AcDbEntity
  8
0
  6
Continuous
 62
     7
370
    25
100
AcDbLine
 10
103.1653702537
 20
24.4834444478
 30
0.0
 11
103.1653702537
 21
27.3552393196
 31
0.0
  0
LINE
  5
D3
330
1F
100
AcDbEntity
  8
0
  6
Continuous
 62
     7
370
    25
100
AcDbLine
 10
103.1653702537
 20
27.3552393196
 30
0.0
 11
103.7935753819
 21
27.3552393196
 31
0.0
  0
LINE
  5
D4
330
1F
100
AcDbEntity
  8
0
  6
Continuous
 62
     7
370
    25
100
AcDbLine
 10
106.6375487037
 20
60.0075037569
 30
0.0
 11
106.6375487037
 21
62.0954444621
 31
0.0
  0
LINE
  5
D5
330
1F
100
AcDbEntity
  8
0
  6
Continuous
 62
     7
370
    25
100
AcDbLine
 10
106.6375487037
 20
62.0954444621
 30
0.0
 11
106.0093435755
 21
62.0954444621
 31
0.0
  0
LINE
  5
D6
330
1F
100
AcDbEntity
  8
0
  6
Continuous
 62
     7
370
    25
100
AcDbLine
 10
106.0093435755
 20
62.0954444621
 30
0.0
 11
106.0093435755
 21
59.8182008723
 31
0.0
  0
SPLINE
  5
D7
330
1F
100
AcDbEntity
  8
0
  6
Continuous
 62
     7
370
    25
100
AcDbSpline
210
0.0
220
0.0
230
1.0
 70
     8
 71
     3
 72
    23
 73
    19
 74
     0
 42
0.000000001
 43
0.00000001
 40
0.0
 40
0.0
 40
0.0
 40
0.0
 40
0.0722187479928814
 40
0.1394897657276692
 40
0.2003699977303454
 40
0.2564327255100109
 40
0.3078035215508917
 40
0.3536585165318478
 40
0.3944199056460635
 40
0.4301557059443422
 40
0.4966662725087408
 40
0.5620176176150562
 40
0.6287545482746073
 40
0.6974096406803592
 40
0.7680791946526303
 40
0.8413381260898118
 40
0.918336246547814
 40
1.0
 40
1.0
 40
1.0
 40
1.0
 10
106.0093435755061
 20
59.81820087232805
 30
0.0
 10
106.0093094168114
 20
59.79459139851546
 30
0.0
 10
106.0092434396453
 20
59.74898994373261
 30
0.0
 10
106.0059405881604
 20
59.68356678624143
 30
0.0
 10
106.0029182512803
 20
59.62342920634178
 30
0.0
 10
105.9974650977037
 20
59.56864304183343
 30
0.0
 10
105.9894089207786
 20
59.51918485715237
 30
0.0
 10
105.9816079127628
 20
59.47473695049379
 30
0.0
 10
105.97105001982
 20
59.4360951113734
 30
0.0
 10
105.9551831946901
 20
59.39211058177328
 30
0.0
 10
105.9307376257713
 20
59.34269156031162
 30
0.0
 10
105.8907949225073
 20
59.29118592240741
 30
0.0
 10
105.8447044599278
 20
59.2441795520786
 30
0.0
 10
105.7894623858697
 20
59.20505323044168
 30
0.0
 10
105.7273751800358
 20
59.17340356281522
 30
0.0
 10
105.6587839840473
 20
59.14995466169151
 30
0.0
 10
105.5837854870755
 20
59.13692018611881
 30
0.0
 10
105.5319281404548
 20
59.13493023465762
 30
0.0
 10
105.5052370049933
 20
59.13390600053318
 30
0.0
  0
SPLINE
  5
D8
330
1F
100
AcDbEntity
  8
0
  6
Continuous
 62
     7
370
    25
100
AcDbSpline
210
0.0
220
0.0
230
1.0
 70
     8
 71
     3
 72
    23
 73
    19
 74
     0
 42
0.000000001
 43
0.00000001
 40
0.0
 40
0.0
 40
0.0
 40
0.0
 40
0.078832604010475
 40
0.1537102312098495
 40
0.2246777586657743
 40
0.2948087751911008
 40
0.3627147868294601
 40
0.4271032430309811
 40
0.4886497655514098
 40
0.5509002465387047
 40
0.5850458333883294
 40
0.6252721895341615
 40
0.6714658644312995
 40
0.724549992884967
 40
0.7832647317228333
 40
0.8490731308598461
 40
0.9212962952783839
 40
1.0
 40
1.0
 40
1.0
 40
1.0
 10
105.5052370049933
 20
59.13390600053318
 30
0.0
 10
105.4768809674184
 20
59.13473345021905
 30
0.0
 10
105.4215914949147
 20
59.13634683701667
 30
0.0
 10
105.3420663906457
 20
59.15218397498731
 30
0.0
 10
105.2683859305366
 20
59.1774021224892
 30
0.0
 10
105.2021101812073
 20
59.21339484590327
 30
0.0
 10
105.1433050976984
 20
59.25653843286524
 30
0.0
 10
105.0935278267516
 20
59.30573564186862
 30
0.0
 10
105.0542437873649
 20
59.36108459684849
 30
0.0
 10
105.02863991203
 20
59.41214822265773
 30
0.0
 10
105.014264596918
 20
59.45914784347632
 30
0.0
 10
105.0034895821206
 20
59.50114022120902
 30
0.0
 10
104.9955903042684
 20
59.55068707029398
 30
0.0
 10
104.9884238197749
 20
59.60701460980422
 30
0.0
 10
104.9841173146713
 20
59.67070628464506
 30
0.0
 10
104.9794476119412
 20
59.74124987806091
 30
0.0
 10
104.9777361225766
 20
59.81912806823105
 30
0.0
 10
104.9774444116835
 20
59.87335611367288
 30
0.0
 10
104.9772922934548
 20
59.9016343659178
 30
0.0
  0
LINE
  5
D9
330
1F
100
AcDbEntity
  8
0
  6
Continuous
 62
     7
370
    25
100
AcDbLine
 10
104.9772922935
 20
59.9016343659
 30
0.0
 11
104.9772922935
 21
62.0954444621
 31
0.0
  0
LINE
  5
DA
330
1F
100
AcDbEntity
  8
0
  6
Continuous
 62
     7
370
    25
100
AcDbLine
 10
104.9772922935
 20
62.0954444621
 30
0.0
 11
104.3490871652
 21
62.0954444621
 31
0.0
  0
LINE
  5
DB
330
1F
100
AcDbEntity
  8
0
  6
Continuous
 62
     7
370
    25
100
AcDbLine
 10
104.3490871652
 20
62.0954444621
 30
0.0
 11
104.3490871652
 21
60.0075037569
 31
0.0
  0
SPLINE
  5
DC
330
1F
100
AcDbEntity
  8
0
  6
Continuous
 62
     7
370
    25
100
AcDbSpline
210
0.0
220
0.0
230
1.0
 70
     8
 71
     3
 72
    27
 73
    23
 74
     0
 42
0.000000001
 43
0.00000001
 40
0.0
 40
0.0
 40
0.0
 40
0.0
 40
0.058540416808442
 40
0.1125675123403472
 40
0.1617798781047806
 40
0.2064871555823907
 40
0.2464570299480989
 40
0.2819997074061412
 40
0.3132129382361469
 40
0.3398064735188125
 40
0.3894126122316844
 40
0.4404734799435068
 40
0.4939547398756078
 40
0.5499778768088351
 40
0.60648808362672
 40
0.6613185000989831
 40
0.714691098959654
 40
0.7679184713298005
 40
0.8219387900584604
 40
0.8781073740704611
 40
0.9372026550360448
 40
1.0
 40
1.0
 40
1.0
 40
1.0
 10
104.3490871652497
 20
60.00750375694344
 30
0.0
 10
104.3491744029501
 20
59.96520217806689
 30
0.0
 10
104.34934215254
 20
59.88386036736912
 30
0.0
 10
104.3519182805111
 20
59.76696646118239
 30
0.0
 10
104.3574023909607
 20
59.66020262853151
 30
0.0
 10
104.3620084111645
 20
59.56353767325548
 30
0.0
 10
104.3709226376181
 20
59.4771018190318
 30
0.0
 10
104.3802091704023
 20
59.40052596010728
 30
0.0
 10
104.3920456553903
 20
59.33408146397565
 30
0.0
 10
104.4096576333258
 20
59.25844247987961
 30
0.0
 10
104.4400506932826
 20
59.17134695977351
 30
0.0
 10
104.4890482905082
 20
59.07106024397412
 30
0.0
 10
104.5512475688826
 20
58.97287347453015
 30
0.0
 10
104.6247640074696
 20
58.87786677362502
 30
0.0
 10
104.7077707913696
 20
58.78960861026675
 30
0.0
 10
104.7984274825327
 20
58.71212936682324
 30
0.0
 10
104.8952937715055
 20
58.64659028172763
 30
0.0
 10
104.9993818415629
 20
58.5945938645965
 30
0.0
 10
105.1106031084429
 20
58.55404057908584
 30
0.0
 10
105.2300580235599
 20
58.5267908137724
 30
0.0
 10
105.357665128096
 20
58.50838053028581
 30
0.0
 10
105.4458057671146
 20
58.50661199600382
 30
0.0
 10
105.4912145690958
 20
58.50570087232805
 30
0.0
  0
SPLINE
  5
DD
330
1F
100
AcDbEntity
  8
0
  6
Continuous
 62
     7
370
    25
100
AcDbSpline
210
0.0
220
0.0
230
1.0
 70
     8
 71
     3
 72
    31
 73
    27
 74
     0
 42
0.000000001
 43
0.00000001
 40
0.0
 40
0.0
 40
0.0
 40
0.0
 40
0.0417149324333618
 40
0.0823027059399535
 40
0.1215718144257385
 40
0.1600671244574494
 40
0.1979937629052289
 40
0.2355661717952785
 40
0.2730048805336482
 40
0.3100903331095244
 40
0.3468461432534332
 40
0.3824835718335593
 40
0.4172710082891843
 40
0.4513316191888082
 40
0.4848527413222476
 40
0.5180308512419192
 40
0.5510685457911276
 40
0.5841710000647824
 40
0.6194667444415175
 40
0.6591579072517061
 40
0.7034715469577028
 40
0.7528401139219653
 40
0.8068443124206168
 40
0.8661419381570247
 40
0.9305017472849223
 40
1.0
 40
1.0
 40
1.0
 40
1.0
 10
105.4912145690958
 20
58.50570087232805
 30
0.0
 10
105.5213850804895
 20
58.50620905474587
 30
0.0
 10
105.5809108805436
 20
58.50721168823127
 30
0.0
 10
105.6684540121592
 20
58.51605229658352
 30
0.0
 10
105.7530816456535
 20
58.52908002908938
 30
0.0
 10
105.834634766329
 20
58.54808614924298
 30
0.0
 10
105.9133964298204
 20
58.5726385066008
 30
0.0
 10
105.989345710978
 20
58.60286074863324
 30
0.0
 10
106.062200363969
 20
58.63858429949639
 30
0.0
 10
106.1315527043273
 20
58.67948057982392
 30
0.0
 10
106.1973173880982
 20
58.72370286691484
 30
0.0
 10
106.2574229143658
 20
58.77272513368629
 30
0.0
 10
106.3139376553743
 20
58.82292199841336
 30
0.0
 10
106.3652289238207
 20
58.87640595822894
 30
0.0
 10
106.4116819628195
 20
58.93261552278485
 30
0.0
 10
106.453201102242
 20
58.99167808135058
 30
0.0
 10
106.4897246585274
 20
59.05358838782478
 30
0.0
 10
106.5221713616308
 20
59.11946237171139
 30
0.0
 10
106.5499425726985
 20
59.19264816995029
 30
0.0
 10
106.5733547468946
 20
59.2757490314259
 30
0.0
 10
106.5938081732255
 20
59.37006747920901
 30
0.0
 10
106.6090079528189
 20
59.47581600773091
 30
0.0
 10
106.6227881622705
 20
59.59264608162432
 30
0.0
 10
106.6315102750691
 20
59.72086206107824
 30
0.0
 10
106.6360732048909
 20
59.86046762469759
 30
0.0
 10
106.6370444430488
 20
59.9572532677994
 30
0.0
 10
106.6375487037112
 20
60.00750375694344
 30
0.0
  0
LINE
  5
DE
330
1F
100
AcDbEntity
  8
0
  6
Continuous
 62
     7
370
    25
100
AcDbLine
 10
120.1
 20
57.25
 30
0.0
 11
107.9
 21
57.25
 31
0.0
  0
LINE
  5
DF
330
1F
100
AcDbEntity
  8
0
  6
Continuous
 62
     7
370
    25
100
AcDbLine
 10
120.1
 20
68.75
 30
0.0
 11
120.1
 21
57.25
 31
0.0
  0
LINE
  5
E0
330
1F
100
AcDbEntity
  8
0
  6
Continuous
 62
     7
370
    25
100
AcDbLine
 10
107.9
 20
68.75
 30
0.0
 11
120.1
 21
68.75
 31
0.0
  0
LINE
  5
E1
330
1F
100
AcDbEntity
  8
0
  6
Continuous
 62
     7
370
    25
100
AcDbLine
 10
107.9
 20
57.25
 30
0.0
 11
107.9
 21
68.75
 31
0.0
  0
CIRCLE
  5
E2
330
1F
100
AcDbEntity
  8
0
  6
Continuous
 62
     7
370
    25
100
AcDbCircle
 10
114.0
 20
12.0
 30
0.0
 40
5.099999999999994
  0
LINE
  5
E3
330
1F
100
AcDbEntity
  8
0
  6
Continuous
 62
     7
370
    25
100
AcDbLine
 10
120.75
 20
21.9
 30
0.0
 11
107.25
 21
21.9
 31
0.0
  0
LINE
  5
E4
330
1F
100
AcDbEntity
  8
0
  6
Continuous
 62
     7
370
    25
100
AcDbLine
 10
120.75
 20
38.1
 30
0.0
 11
120.75
 21
21.9
 31
0.0
  0
LINE
  5
E5
330
1F
100
AcDbEntity
  8
0
  6
Continuous
 62
     7
370
    25
100
AcDbLine
 10
107.25
 20
38.1
 30
0.0
 11
120.75
 21
38.1
 31
0.0
  0
LINE
  5
E6
330
1F
100
AcDbEntity
  8
0
  6
Continuous
 62
     7
370
    25
100
AcDbLine
 10
107.25
 20
21.9
 30
0.0
 11
107.25
 21
38.1
 31
0.0
  0
CIRCLE
  5
E7
330
1F
100
AcDbEntity
  8
0
  6
Continuous
 62
     7
370
    25
100
AcDbCircle
 10
114.0
 20
48.0
 30
0.0
 40
5.0
  0
CIRCLE
  5
E8
330
1F
100
AcDbEntity
  8
0
  6
Continuous
 62
     7
370
    25
100
AcDbCircle
 10
98.0
 20
66.0
 30
0.0
 40
1.25
  0
CIRCLE
  5
E9
330
1F
100
AcDbEntity
  8
0
  6
Continuous
 62
     7
370
    25
100
AcDbCircle
 10
50.0
 20
66.0
 30
0.0
 40
1.250000000000014
  0
CIRCLE
  5
EA
330
1F
100
AcDbEntity
  8
0
  6
Continuous
 62
     7
370
    25
100
AcDbCircle
 10
50.0
 20
10.0
 30
0.0
 40
1.250000000000014
  0
CIRCLE
  5
EB
330
1F
100
AcDbEntity
  8
0
  6
Continuous
 62
     7
370
    25
100
AcDbCircle
 10
98.0
 20
10.0
 30
0.0
 40
1.25
  0
LINE
  5
EC
330
1F
100
AcDbEntity
  8
0
  6
Continuous
 62
     7
370
    25
100
AcDbLine
 10
3.0
 20
2.5
 30
0.0
 11
28.5419601085
 21
2.5
 31
0.0
  0
ARC
  5
ED
330
1F
100
AcDbEntity
  8
0
  6
Continuous
 62
     7
370
    25
100
AcDbCircle
 10
3.0
 20
5.5
 30
0.0
 40
3.0
100
AcDbArc
 50
180.0
 51
270.0
  0
LINE
  5
EE
330
1F
100
AcDbEntity
  8
0
  6
Continuous
 62
     7
370
    25
100
AcDbLine
 10
0.0
 20
71.0
 30
0.0
 11
0.0
 21
5.5
 31
0.0
  0
ARC
  5
EF
330
1F
100
AcDbEntity
  8
0
  6
Continuous
 62
     7
370
    25
100
AcDbCircle
 10
3.0
 20
71.0
 30
0.0
 40
3.000000000000028
100
AcDbArc
 50
90.0
 51
180.0
  0
LINE
  5
F0
330
1F
100
AcDbEntity
  8
0
  6
Continuous
 62
     7
370
    25
100
AcDbLine
 10
135.0
 20
74.0
 30
0.0
 11
3.0
 21
74.0
 31
0.0
  0
ARC
  5
F1
330
1F
100
AcDbEntity
  8
0
  6
Continuous
 62
     7
370
    25
100
AcDbCircle
 10
135.0
 20
71.0
 30
0.0
 40
3.000000000000014
100
AcDbArc
 50
0.0
 51
90.0
  0
LINE
  5
F2
330
1F
100
AcDbEntity
  8
0
  6
Continuous
 62
     7
370
    25
100
AcDbLine
 10
138.0
 20
3.0
 30
0.0
 11
138.0
 21
71.0
 31
0.0
  0
ARC
  5
F3
330
1F
100
AcDbEntity
  8
0
  6
Continuous
 62
     7
370
    25
100
AcDbCircle
 10
135.0
 20
3.0
 30
0.0
 40
3.000000000000003
100
AcDbArc
 50
270.0
 51
0.0
  0
LINE
  5
F4
330
1F
100
AcDbEntity
  8
0
  6
Continuous
 62
     7
370
    25
100
AcDbLine
 10
31.5
 20
0.0
 30
0.0
 11
135.0
 21
0.0
 31
0.0
  0
ARC
  5
F5
330
1F
100
AcDbEntity
  8
0
  6
Continuous
 62
     7
370
    25
100
AcDbCircle
 10
31.5
 20
2.0
 30
0.0
 40
2.00000000000001
100
AcDbArc
 50
189.5940682269
 51
270.0
  0
ARC
  5
F6
330
1F
100
AcDbEntity
  8
0
  6
Continuous
 62
     7
370
    25
100
AcDbCircle
 10
28.5419601085
 20
1.5
 30
0.0
 40
1.000000000000001
100
AcDbArc
 50
9.5940682269
 51
90.0
  0
CIRCLE
  5
F7
330
1F
100
AcDbEntity
  8
0
  6
Continuous
 62
     7
370
    25
100
AcDbCircle
 10
5.0
 20
69.25
 30
0.0
 40
1.799999999999999
  0
CIRCLE
  5
F8
330
1F
100
AcDbEntity
  8
0
  6
Continuous
 62
     7
370
    25
100
AcDbCircle
 10
5.0
 20
7.75
 30
0.0
 40
1.800000000000001
  0
CIRCLE
  5
F9
330
1F
100
AcDbEntity
  8
0
  6
Continuous
 62
     7
370
    25
100
AcDbCircle
 10
133.0
 20
69.25
 30
0.0
 40
1.800000000000011
  0
CIRCLE
  5
FA
330
1F
100
AcDbEntity
  8
0
  6
Continuous
 62
     7
370
    25
100
AcDbCircle
 10
133.0
 20
4.75
 30
0.0
 40
1.800000000000011
  0
LINE
  5
FB
330
1F
100
AcDbEntity
  8
0
  6
Continuous
 62
     7
370
    25
100
AcDbLine
 10
101.7294728178
 20
25.8373106337
 30
0.0
 11
100.2753462153
 21
28.0731880376
 31
0.0
  0
LINE
  5
FC
330
1F
100
AcDbEntity
  8
0
  6
Continuous
 62
     7
370
    25
100
AcDbLine
 10
100.2753462153
 20
28.0731880376
 30
0.0
 11
99.6204984589
 21
28.0731880376
 31
0.0
  0
LINE
  5
FD
330
1F
100
AcDbEntity
  8
0
  6
Continuous
 62
     7
370
    25
100
AcDbLine
 10
99.6204984589
 20
28.0731880376
 30
0.0
 11
99.6204984589
 21
25.7847264991
 31
0.0
  0
LINE
  5
FE
330
1F
100
AcDbEntity
  8
0
  6
Continuous
 62
     7
370
    25
100
AcDbLine
 10
99.6204984589
 20
25.7847264991
 30
0.0
 11
99.3063958948
 21
25.7847264991
 31
0.0
  0
LINE
  5
FF
330
1F
100
AcDbEntity
  8
0
  6
Continuous
 62
     7
370
    25
100
AcDbLine
 10
99.3063958948
 20
25.7847264991
 30
0.0
 11
99.3063958948
 21
25.2013931658
 31
0.0
  0
LINE
  5
100
330
1F
100
AcDbEntity
  8
0
  6
Continuous
 62
     7
370
    25
100
AcDbLine
 10
99.3063958948
 20
25.2013931658
 30
0.0
 11
99.6204984589
 21
25.2013931658
 31
0.0
  0
LINE
  5
101
330
1F
100
AcDbEntity
  8
0
  6
Continuous
 62
     7
370
    25
100
AcDbLine
 10
99.6204984589
 20
25.2013931658
 30
0.0
 11
99.6204984589
 21
24.4834444478
 31
0.0
  0
LINE
  5
102
330
1F
100
AcDbEntity
  8
0
  6
Continuous
 62
     7
370
    25
100
AcDbLine
 10
99.6204984589
 20
24.4834444478
 30
0.0
 11
100.2487035871
 21
24.4834444478
 31
0.0
  0
LINE
  5
103
330
1F
100
AcDbEntity
  8
0
  6
Continuous
 62
     7
370
    25
100
AcDbLine
 10
100.2487035871
 20
24.4834444478
 30
0.0
 11
100.2487035871
 21
25.2013931658
 31
0.0
  0
LINE
  5
104
330
1F
100
AcDbEntity
  8
0
  6
Continuous
 62
     7
370
    25
100
AcDbLine
 10
100.2487035871
 20
25.2013931658
 30
0.0
 11
101.7294728178
 21
25.2013931658
 31
0.0
  0
LINE
  5
105
330
1F
100
AcDbEntity
  8
0
  6
Continuous
 62
     7
370
    25
100
AcDbLine
 10
101.7294728178
 20
25.2013931658
 30
0.0
 11
101.7294728178
 21
25.8373106337
 31
0.0
  0
SPLINE
  5
106
330
1F
100
AcDbEntity
  8
0
  6
Continuous
 62
     7
370
    25
100
AcDbSpline
210
0.0
220
0.0
230
1.0
 70
     8
 71
     3
 72
    19
 73
    15
 74
     0
 42
0.000000001
 43
0.00000001
 40
0.0
 40
0.0
 40
0.0
 40
0.0
 40
0.1069102197111922
 40
0.2129765276064907
 40
0.3197766759577707
 40
0.4285562728491897
 40
0.4858568032784208
 40
0.5465586866406915
 40
0.6114314979175137
 40
0.6798209100724899
 40
0.753158504690819
 40
0.8307528691562626
 40
0.9131330746556983
 40
1.0
 40
1.0
 40
1.0
 40
1.0
 10
105.1186955742546
 20
28.07318803757601
 30
0.0
 10
105.0774576916424
 20
28.07167946797073
 30
0.0
 10
104.9953074438147
 20
28.06867423688006
 30
0.0
 10
104.8738459330394
 20
28.04517431178471
 30
0.0
 10
104.755207407572
 20
28.00821820419913
 30
0.0
 10
104.6596062603443
 20
27.96363472629027
 30
0.0
 10
104.5835382119927
 20
27.92044669014375
 30
0.0
 10
104.5252391586593
 20
27.88068458673922
 30
0.0
 10
104.4659167338662
 20
27.83513496021868
 30
0.0
 10
104.4050925390566
 20
27.78365427168632
 30
0.0
 10
104.3438967819538
 20
27.7252725573598
 30
0.0
 10
104.2805893745235
 20
27.66137963990774
 30
0.0
 10
104.2160329575738
 20
27.59142333510086
 30
0.0
 10
104.1740815222052
 20
27.54144687532633
 30
0.0
 10
104.1525497409213
 20
27.51579621065293
 30
0.0
  0
LINE
  5
107
330
1F
100
AcDbEntity
  8
0
  6
Continuous
 62
     7
370
    25
100
AcDbLine
 10
104.1525497409
 20
27.5157962107
 30
0.0
 11
104.6223013435
 21
27.0860085504
 31
0.0
  0
SPLINE
  5
108
330
1F
100
AcDbEntity
  8
0
  6
Continuous
 62
     7
370
    25
100
AcDbSpline
210
0.0
220
0.0
230
1.0
 70
     8
 71
     3
 72
    15
 73
    11
 74
     0
 42
0.000000001
 43
0.00000001
 40
0.0
 40
0.0
 40
0.0
 40
0.0
 40
0.1624203072014385
 40
0.311824339733046
 40
0.4484327667925866
 40
0.5733811968860532
 40
0.6890771468735445
 40
0.7975729005012644
 40
0.9002930430775847
 40
1.0
 40
1.0
 40
1.0
 40
1.0
 10
104.6223013434854
 20
27.08600855039651
 30
0.0
 10
104.6424234878889
 20
27.11439292698887
 30
0.0
 10
104.6810551990384
 20
27.16888697174318
 30
0.0
 10
104.7436731733603
 20
27.24185578205196
 30
0.0
 10
104.8060083954326
 20
27.30410360752078
 30
0.0
 10
104.8686383631789
 20
27.35537040548666
 30
0.0
 10
104.9321182047982
 20
27.39534469201542
 30
0.0
 10
104.9963377285609
 20
27.42364692846659
 30
0.0
 10
105.0609328560211
 20
27.44163892876396
 30
0.0
 10
105.1043308104914
 20
27.44387936568477
 30
0.0
 10
105.1257067922033
 20
27.44498290937088
 30
0.0
  0
SPLINE
  5
109
330
1F
100
AcDbEntity
  8
0
  6
Continuous
 62
     7
370
    25
100
AcDbSpline
210
0.0
220
0.0
230
1.0
 70
     8
 71
     3
 72
    15
 73
    11
 74
     0
 42
0.000000001
 43
0.00000001
 40
0.0
 40
0.0
 40
0.0
 40
0.0
 40
0.1481262583591792
 40
0.2859928874897145
 40
0.4166343935606271
 40
0.5473799458012721
 40
0.671582837610229
 40
0.7844007386959959
 40
0.8932655763009689
 40
1.0
 40
1.0
 40
1.0
 40
1.0
 10
105.1257067922033
 20
27.44498290937088
 30
0.0
 10
105.1456456947939
 20
27.44428365346874
 30
0.0
 10
105.1841424771228
 20
27.44293357403811
 30
0.0
 10
105.2390224963259
 20
27.42951388512355
 30
0.0
 10
105.2877457589467
 20
27.4063534727862
 30
0.0
 10
105.3302647132319
 20
27.37606928525056
 30
0.0
 10
105.3639459981836
 20
27.33958386025646
 30
0.0
 10
105.3908378923062
 20
27.30132003063307
 30
0.0
 10
105.4059802884023
 20
27.25908541630637
 30
0.0
 10
105.4079733256613
 20
27.23007697946531
 30
0.0
 10
105.4089599973316
 20
27.2157160824478
 30
0.0
  0
SPLINE
  5
10A
330
1F
100
AcDbEntity
  8
0
  6
Continuous
 62
     7
370
    25
100
AcDbSpline
210
0.0
220
0.0
230
1.0
 70
     8
 71
     3
 72
    11
 73
     7
 74
     0
 42
0.000000001
 43
0.00000001
 40
0.0
 40
0.0
 40
0.0
 40
0.0
 40
0.2418813747501854
 40
0.4871154746783816
 40
0.7378378396463796
 40
0.9999999999999999
 40
0.9999999999999999
 40
0.9999999999999999
 40
0.9999999999999999
 10
105.4089599973316
 20
27.2157160824478
 30
0.0
 10
105.4083417002117
 20
27.20114809489987
 30
0.0
 10
105.4070965357367
 20
27.17181019248036
 30
0.0
 10
105.3950699418764
 20
27.12881184275042
 30
0.0
 10
105.3769424308961
 20
27.08679744967824
 30
0.0
 10
105.3596208540695
 20
27.06122128939835
 30
0.0
 10
105.3507668883572
 20
27.04814797347344
 30
0.0
  0
SPLINE
  5
10B
330
1F
100
AcDbEntity
  8
0
  6
Continuous
 62
     7
370
    25
100
AcDbSpline
210
0.0
220
0.0
230
1.0
 70
     8
 71
     3
 72
    15
 73
    11
 74
     0
 42
0.000000001
 43
0.00000001
 40
0.0
 40
0.0
 40
0.0
 40
0.0
 40
0.0592341891229385
 40
0.1363492805279885
 40
0.2338052120618132
 40
0.3494112238568876
 40
0.4831791503491559
 40
0.6359668555591086
 40
0.8092433563675907
 40
1.0
 40
1.0
 40
1.0
 40
1.0
 10
105.3507668883572
 20
27.04814797347344
 30
0.0
 10
105.3427176757447
 20
27.0379862218012
 30
0.0
 10
105.3241894513394
 20
27.01459521147542
 30
0.0
 10
105.2888599222067
 20
26.97754749733317
 30
0.0
 10
105.2444934534098
 20
26.93216080466057
 30
0.0
 10
105.1893827298642
 20
26.87999584882313
 30
0.0
 10
105.1258155492128
 20
26.81917657399634
 30
0.0
 10
105.0508454905755
 20
26.75209380902074
 30
0.0
 10
104.9666305191768
 20
26.67667007863042
 30
0.0
 10
104.9067724686005
 20
26.62414772403452
 30
0.0
 10
104.8754063114341
 20
26.596625537576
 30
0.0
  0
SPLINE
  5
10C
330
1F
100
AcDbEntity
  8
0
  6
Continuous
 62
     7
370
    25
100
AcDbSpline
210
0.0
220
0.0
230
1.0
 70
     8
 71
     3
 72
    15
 73
    11
 74
     0
 42
0.000000001
 43
0.00000001
 40
0.0
 40
0.0
 40
0.0
 40
0.0
 40
0.192952702164938
 40
0.3661841413840602
 40
0.520457298294457
 40
0.6550121351900012
 40
0.7706242255760047
 40
0.8656771846793555
 40
0.942674527319862
 40
1.0
 40
1.0
 40
1.0
 40
1.0
 10
104.8754063114341
 20
26.596625537576
 30
0.0
 10
104.8459646609661
 20
26.57114527414537
 30
0.0
 10
104.7900905250944
 20
26.52278902786377
 30
0.0
 10
104.7105927253375
 20
26.4541551003331
 30
0.0
 10
104.6407273995748
 20
26.39240682925095
 30
0.0
 10
104.5794767694435
 20
26.33847092403708
 30
0.0
 10
104.52776933475
 20
26.29178147356004
 30
0.0
 10
104.4853877172681
 20
26.25211530278741
 30
0.0
 10
104.451814297392
 20
26.22024463911319
 30
0.0
 10
104.4327297739585
 20
26.20099473886582
 30
0.0
 10
104.4245849973315
 20
26.19277938372985
 30
0.0
  0
SPLINE
  5
10D
330
1F
100
AcDbEntity
  8
0
  6
Continuous
 62
     7
370
    25
100
AcDbSpline
210
0.0
220
0.0
230
1.0
 70
     8
 71
     3
 72
    15
 73
    11
 74
     0
 42
0.000000001
 43
0.00000001
 40
0.0
 40
0.0
 40
0.0
 40
0.0
 40
0.1508330973407565
 40
0.289954183315871
 40
0.4171386481520558
 40
0.5352551839062626
 40
0.6487510952936696
 40
0.7624054615861222
 40
0.8798267012501029
 40
1.0
 40
1.0
 40
1.0
 40
1.0
 10
104.4245849973315
 20
26.19277938372985
 30
0.0
 10
104.393685412854
 20
26.15933941560812
 30
0.0
 10
104.334285560037
 20
26.09505605328387
 30
0.0
 10
104.2570866912013
 20
25.9954370583794
 30
0.0
 10
104.1935495250184
 20
25.89818860663172
 30
0.0
 10
104.1443959683976
 20
25.80148081066627
 30
0.0
 10
104.107273225468
 20
25.70391836947062
 30
0.0
 10
104.0811011999353
 20
25.60310856946609
 30
0.0
 10
104.0654265997038
 20
25.49799801141765
 30
0.0
 10
104.0636863531156
 20
25.42627288706781
 30
0.0
 10
104.0628061511777
 20
25.38999492860165
 30
0.0
  0
SPLINE
  5
10E
330
1F
100
AcDbEntity
  8
0
  6
Continuous
 62
     7
370
    25
100
AcDbSpline
210
0.0
220
0.0
230
1.0
 70
     8
 71
     3
 72
    23
 73
    19
 74
     0
 42
0.000000001
 43
0.00000001
 40
0.0
 40
0.0
 40
0.0
 40
0.0
 40
0.0652008752881572
 40
0.1279265440230312
 40
0.189046910018967
 40
0.2485436930694609
 40
0.3076071270223469
 40
0.367247660060213
 40
0.4269630557213202
 40
0.4886171282353942
 40
0.5503918546271228
 40
0.61133073422556
 40
0.6725560854310841
 40
0.7340241906291933
 40
0.7973406208369387
 40
0.8622496273165762
 40
0.9296254660747003
 40
0.9999999999999999
 40
0.9999999999999999
 40
0.9999999999999999
 40
0.9999999999999999
 10
104.0628061511777
 20
25.38999492860165
 30
0.0
 10
104.0634326563808
 20
25.35464650717828
 30
0.0
 10
104.0646618829073
 20
25.28529158871475
 30
0.0
 10
104.0797175505664
 20
25.18380099636093
 30
0.0
 10
104.1011860489778
 20
25.08667009473417
 30
0.0
 10
104.134380113754
 20
24.99495580535441
 30
0.0
 10
104.1748368433246
 20
24.90715266611529
 30
0.0
 10
104.2255551969248
 20
24.82462837074275
 30
0.0
 10
104.2851169487431
 20
24.7465477396343
 30
0.0
 10
104.35338386159
 20
24.67430655954957
 30
0.0
 10
104.4288951735206
 20
24.60875269581873
 30
0.0
 10
104.5098882320334
 20
24.55039509799426
 30
0.0
 10
104.597155028022
 20
24.50221346760393
 30
0.0
 10
104.6899499677337
 20
24.46253933172678
 30
0.0
 10
104.7882233801412
 20
24.43198178178639
 30
0.0
 10
104.8918581919865
 20
24.40939690443935
 30
0.0
 10
105.0010129197826
 20
24.39584181706607
 30
0.0
 10
105.0756544955807
 20
24.39442479350161
 30
0.0
 10
105.1137877216905
 20
24.39370085808882
 30
0.0
  0
SPLINE
  5
10F
330
1F
100
AcDbEntity
  8
0
  6
Continuous
 62
     7
370
    25
100
AcDbSpline
210
0.0
220
0.0
230
1.0
 70
     8
 71
     3
 72
    23
 73
    19
 74
     0
 42
0.000000001
 43
0.00000001
 40
0.0
 40
0.0
 40
0.0
 40
0.0
 40
0.063551482235781
 40
0.1258683816453857
 40
0.1862402502136759
 40
0.2449766506319442
 40
0.3033576876770593
 40
0.361230317040806
 40
0.4184890490283572
 40
0.4759367117285747
 40
0.5342037438191191
 40
0.5940594289675414
 40
0.6554686942598731
 40
0.7187716848998855
 40
0.7849746072190595
 40
0.8535223163767024
 40
0.9251824507719316
 40
1.0
 40
1.0
 40
1.0
 40
1.0
 10
105.1137877216905
 20
24.39370085808882
 30
0.0
 10
105.1437219794597
 20
24.39423191176325
 30
0.0
 10
105.2030089771601
 20
24.39528370259826
 30
0.0
 10
105.2903890486217
 20
24.40387069930623
 30
0.0
 10
105.3747643853924
 20
24.41772919836648
 30
0.0
 10
105.4560399461918
 20
24.43759256740857
 30
0.0
 10
105.534581891774
 20
24.46276215001873
 30
0.0
 10
105.6103934477457
 20
24.49350583098098
 30
0.0
 10
105.6829512617656
 20
24.53030012583518
 30
0.0
 10
105.7528043406531
 20
24.57238839758651
 30
0.0
 10
105.8196131122432
 20
24.62125842511952
 30
0.0
 10
105.8842223471751
 20
24.67591107671432
 30
0.0
 10
105.9459902851817
 20
24.73718693460155
 30
0.0
 10
106.0052135851455
 20
24.80494108374642
 30
0.0
 10
106.0615133198814
 20
24.87936538762498
 30
0.0
 10
106.1167323817268
 20
24.95942335007562
 30
0.0
 10
106.1684166694137
 20
25.04660073819361
 30
0.0
 10
106.2003443529938
 20
25.10775638116415
 30
0.0
 10
106.2166523050238
 20
25.13899332603754
 30
0.0
  0
LINE
  5
110
330
1F
100
AcDbEntity
  8
0
  6
Continuous
 62
     7
370
    25
100
AcDbLine
 10
106.216652305
 20
25.138993326
 30
0.0
 11
105.6641683307
 21
25.470623935
 31
0.0
  0
SPLINE
  5
111
330
1F
100
AcDbEntity
  8
0
  6
Continuous
 62
     7
370
    25
100
AcDbSpline
210
0.0
220
0.0
230
1.0
 70
     8
 71
     3
 72
    15
 73
    11
 74
     0
 42
0.000000001
 43
0.00000001
 40
0.0
 40
0.0
 40
0.0
 40
0.0
 40
0.1604579205559339
 40
0.3076115473748609
 40
0.4421388877557694
 40
0.5662291941703417
 40
0.6812222080152117
 40
0.7895580052436352
 40
0.8950288924051479
 40
0.9999999999999999
 40
0.9999999999999999
 40
0.9999999999999999
 40
0.9999999999999999
 10
105.6641683306649
 20
25.4706239350119
 30
0.0
 10
105.6437695200315
 20
25.43516592121735
 30
0.0
 10
105.604663256646
 20
25.36718987832469
 30
0.0
 10
105.5383940374087
 20
25.27585544929313
 30
0.0
 10
105.4705046054439
 20
25.1976426294429
 30
0.0
 10
105.3994254179129
 20
25.1339338353819
 30
0.0
 10
105.3260207711399
 20
25.08387719864437
 30
0.0
 10
105.2499361036239
 20
25.04810325333766
 30
0.0
 10
105.1711179597421
 20
25.02595922166138
 30
0.0
 10
105.1174306207925
 20
25.0232549239338
 30
0.0
 10
105.0906507024598
 20
25.02190598629395
 30
0.0
  0
SPLINE
  5
112
330
1F
100
AcDbEntity
  8
0
  6
Continuous
 62
     7
370
    25
100
AcDbSpline
210
0.0
220
0.0
230
1.0
 70
     8
 71
     3
 72
    15
 73
    11
 74
     0
 42
0.000000001
 43
0.00000001
 40
0.0
 40
0.0
 40
0.0
 40
0.0
 40
0.1419858925296758
 40
0.2754733105502261
 40
0.4043458426631404
 40
0.5354297108606236
 40
0.6614274010622648
 40
0.7778668404627613
 40
0.8882797492818469
 40
1.0
 40
1.0
 40
1.0
 40
1.0
 10
105.0906507024598
 20
25.02190598629395
 30
0.0
 10
105.0634116915171
 20
25.02300760191257
 30
0.0
 10
105.0105640431571
 20
25.02514489665366
 30
0.0
 10
104.9351307877645
 20
25.04488644378538
 30
0.0
 10
104.8659707230174
 20
25.07588212102925
 30
0.0
 10
104.8061892738353
 20
25.12010867824944
 30
0.0
 10
104.7555701118703
 20
25.17115284721392
 30
0.0
 10
104.7182102647956
 20
25.22794181913798
 30
0.0
 10
104.6947405568749
 20
25.28938611592405
 30
0.0
 10
104.692259239726
 20
25.33206936619149
 30
0.0
 10
104.6910112793828
 20
25.35353659526831
 30
0.0
  0
SPLINE
  5
113
330
1F
100
AcDbEntity
  8
0
  6
Continuous
 62
     7
370
    25
100
AcDbSpline
210
0.0
220
0.0
230
1.0
 70
     8
 71
     3
 72
    19
 73
    15
 74
     0
 42
0.000000001
 43
0.00000001
 40
0.0
 40
0.0
 40
0.0
 40
0.0
 40
0.0763466063531738
 40
0.1550908218146706
 40
0.2383515612585578
 40
0.32840413993299
 40
0.3793838595513575
 40
0.4396176441748224
 40
0.5098314158313159
 40
0.58887464499696
 40
0.6774363544094508
 40
0.7755467196196739
 40
0.8826358717258639
 40
1.0
 40
1.0
 40
1.0
 40
1.0
 10
104.6910112793828
 20
25.35353659526831
 30
0.0
 10
104.6921637196772
 20
25.37350835857194
 30
0.0
 10
104.694504791807
 20
25.41407908373973
 30
0.0
 10
104.7117484076455
 20
25.47440122822527
 30
0.0
 10
104.7387054387456
 20
25.53469593944364
 30
0.0
 10
104.7705975074851
 20
25.58415129282747
 30
0.0
 10
104.8030516808445
 20
25.62555891960485
 30
0.0
 10
104.8340851906319
 20
25.66143675510646
 30
0.0
 10
104.8718757961993
 20
25.70107548228466
 30
0.0
 10
104.9163276772391
 20
25.74452496365216
 30
0.0
 10
104.9668535084173
 20
25.79216769598801
 30
0.0
 10
105.0234958511986
 20
25.8439990139279
 30
0.0
 10
105.0869033203285
 20
25.89956234555056
 30
0.0
 10
105.1317198446201
 20
25.93741153809799
 30
0.0
 10
105.1551539075879
 20
25.95720246065293
 30
0.0
  0
SPLINE
  5
114
330
1F
100
AcDbEntity
  8
0
  6
Continuous
 62
     7
370
    25
100
AcDbSpline
210
0.0
220
0.0
230
1.0
 70
     8
 71
     3
 72
    19
 73
    15
 74
     0
 42
0.000000001
 43
0.00000001
 40
0.0
 40
0.0
 40
0.0
 40
0.0
 40
0.1121245812797441
 40
0.2152010090762446
 40
0.3099024524934762
 40
0.3959590963320918
 40
0.4734474940003341
 40
0.5421403275660287
 40
0.6025233330554107
 40
0.6547263328340156
 40
0.7478040553141007
 40
0.8352784168250075
 40
0.9189252427194488
 40
0.9999999999999999
 40
0.9999999999999999
 40
0.9999999999999999
 40
0.9999999999999999
 10
105.1551539075879
 20
25.95720246065293
 30
0.0
 10
105.1997029939875
 20
25.99489525965704
 30
0.0
 10
105.2852061747993
 20
26.06723914971228
 30
0.0
 10
105.4060330172335
 20
26.17408879790455
 30
0.0
 10
105.5149088209555
 20
26.27394958468524
 30
0.0
 10
105.6108932175977
 20
26.3680560076781
 30
0.0
 10
105.6952091968621
 20
26.45467013933122
 30
0.0
 10
105.7672857343015
 20
26.53449549275524
 30
0.0
 10
105.8263310363777
 20
26.60814781137207
 30
0.0
 10
105.8884634850303
 20
26.69538405407579
 30
0.0
 10
105.9475017338201
 20
26.80168740993619
 30
0.0
 10
105.9985275344054
 20
26.92958267036477
 30
0.0
 10
106.0316309201769
 20
27.05746170278129
 30
0.0
 10
106.0353396941431
 20
27.14331264167564
 30
0.0
 10
106.0371651255367
 20
27.18556784526831
 30
0.0
  0
SPLINE
  5
115
330
1F
100
AcDbEntity
  8
0
  6
Continuous
 62
     7
370
    25
100
AcDbSpline
210
0.0
220
0.0
230
1.0
 70
     8
 71
     3
 72
    23
 73
    19
 74
     0
 42
0.000000001
 43
0.00000001
 40
0.0
 40
0.0
 40
0.0
 40
0.0
 40
0.0631728801065214
 40
0.1244573597769993
 40
0.1848409152554616
 40
0.244566821464366
 40
0.3043191726186539
 40
0.3651997864614178
 40
0.4274209827764737
 40
0.4912616890772886
 40
0.5554990019310208
 40
0.6186045181428804
 40
0.680494763925305
 40
0.7424733052606045
 40
0.8049906647647705
 40
0.8682519711837807
 40
0.9328872172654769
 40
1.0
 40
1.0
 40
1.0
 40
1.0
 10
106.0371651255367
 20
27.18556784526831
 30
0.0
 10
106.0364059310526
 20
27.21553296764785
 30
0.0
 10
106.034910236367
 20
27.2745674775588
 30
0.0
 10
106.02156840904
 20
27.36136912279773
 30
0.0
 10
106.0016285398019
 20
27.44512541708813
 30
0.0
 10
105.9726701251092
 20
27.52553077931146
 30
0.0
 10
105.9350855994087
 20
27.60248449851471
 30
0.0
 10
105.8894406528551
 20
27.67636329554208
 30
0.0
 10
105.8350265059267
 20
27.74648720663206
 30
0.0
 10
105.773705435837
 20
27.81280974457531
 30
0.0
 10
105.7061453165268
 20
27.87342099679505
 30
0.0
 10
105.6339487433918
 20
27.92691650013018
 30
0.0
 10
105.5575243554127
 20
27.9720995801133
 30
0.0
 10
105.4773396782968
 20
28.00958222582075
 30
0.0
 10
105.3928978409644
 20
28.03827281002495
 30
0.0
 10
105.3048209225624
 20
28.0586101261665
 30
0.0
 10
105.2129825928476
 20
28.07070611324751
 30
0.0
 10
105.150516143346
 20
28.07235042232681
 30
0.0
 10
105.1186955742546
 20
28.073188037576
 30
0.0
  0
LINE
  5
116
330
1F
100
AcDbEntity
  8
0
  6
Continuous
 62
     7
370
    25
100
AcDbLine
 10
111.6564523153
 20
3.3657301302
 30
0.0
 11
111.2448938217
 21
5.307837502
 31
0.0
  0
LINE
  5
117
330
1F
100
AcDbEntity
  8
0
  6
Continuous
 62
     7
370
    25
100
AcDbLine
 10
111.2448938217
 20
5.307837502
 30
0.0
 11
109.651243982
 21
5.307837502
 31
0.0
  0
LINE
  5
118
330
1F
100
AcDbEntity
  8
0
  6
Continuous
 62
     7
370
    25
100
AcDbLine
 10
109.651243982
 20
5.307837502
 30
0.0
 11
109.651243982
 21
4.7245041686
 31
0.0
  0
LINE
  5
119
330
1F
100
AcDbEntity
  8
0
  6
Continuous
 62
     7
370
    25
100
AcDbLine
 10
109.651243982
 20
4.7245041686
 30
0.0
 11
110.7470973474
 21
4.7245041686
 31
0.0
  0
LINE
  5
11A
330
1F
100
AcDbEntity
  8
0
  6
Continuous
 62
     7
370
    25
100
AcDbLine
 10
110.7470973474
 20
4.7245041686
 30
0.0
 11
110.8838160974
 21
4.0626451943
 31
0.0
  0
SPLINE
  5
11B
330
1F
100
AcDbEntity
  8
0
  6
Continuous
 62
     7
370
    25
100
AcDbSpline
210
0.0
220
0.0
230
1.0
 70
     8
 71
     3
 72
    11
 73
     7
 74
     0
 42
0.000000001
 43
0.00000001
 40
0.0
 40
0.0
 40
0.0
 40
0.0
 40
0.2636542475286414
 40
0.5199803460206897
 40
0.7671028029252773
 40
0.9999999999999999
 40
0.9999999999999999
 40
0.9999999999999999
 40
0.9999999999999999
 10
110.8838160973651
 20
4.062645194258551
 30
0.0
 10
110.8651862105706
 20
4.06783385292393
 30
0.0
 10
110.8284442461511
 20
4.078066953863877
 30
0.0
 10
110.7730924311763
 20
4.088329459307124
 30
0.0
 10
110.7194488087307
 20
4.094981289151103
 30
0.0
 10
110.6842481909715
 20
4.09586855462048
 30
0.0
 10
110.6671694627497
 20
4.096299040412398
 30
0.0
  0
SPLINE
  5
11C
330
1F
100
AcDbEntity
  8
0
  6
Continuous
 62
     7
370
    25
100
AcDbSpline
210
0.0
220
0.0
230
1.0
 70
     8
 71
     3
 72
    23
 73
    19
 74
     0
 42
0.000000001
 43
0.00000001
 40
0.0
 40
0.0
 40
0.0
 40
0.0
 40
0.0634005294004251
 40
0.1249764099331428
 40
0.1844921876584963
 40
0.2434736282965415
 40
0.3022637321141443
 40
0.3613835718304166
 40
0.4214817654110662
 40
0.4834545367577909
 40
0.5459360688045384
 40
0.6081426980855839
 40
0.6698202920949479
 40
0.732332294269267
 40
0.7960922343214099
 40
0.8616426668792324
 40
0.9294352318828829
 40
1.0
 40
1.0
 40
1.0
 40
1.0
 10
110.6671694627497
 20
4.096299040412398
 30
0.0
 10
110.629953124889
 20
4.09544624960376
 30
0.0
 10
110.5565915245888
 20
4.093765211058884
 30
0.0
 10
110.4492728126883
 20
4.077806671937282
 30
0.0
 10
110.3465088060966
 20
4.052672456435056
 30
0.0
 10
110.2486139742744
 20
4.016825879463248
 30
0.0
 10
110.1556839473321
 20
3.970170633674058
 30
0.0
 10
110.0676060755612
 20
3.913730864711661
 30
0.0
 10
109.9842722584775
 20
3.847407443790087
 30
0.0
 10
109.9071628552306
 20
3.77115884689872
 30
0.0
 10
109.8363115145302
 20
3.687436161114857
 30
0.0
 10
109.7747103147974
 20
3.5968812175154
 30
0.0
 10
109.7220990459853
 20
3.50078524168308
 30
0.0
 10
109.6802538617651
 20
3.398550903121238
 30
0.0
 10
109.6472260749351
 20
3.290820302059956
 30
0.0
 10
109.6233594586197
 20
3.177524401504744
 30
0.0
 10
109.6092459361127
 20
3.058528929003078
 30
0.0
 10
109.6073428141074
 20
2.977346825923584
 30
0.0
 10
109.6063721871087
 20
2.935942469899577
 30
0.0
  0
SPLINE
  5
11D
330
1F
100
AcDbEntity
  8
0
  6
Continuous
 62
     7
370
    25
100
AcDbSpline
210
0.0
220
0.0
230
1.0
 70
     8
 71
     3
 72
    23
 73
    19
 74
     0
 42
0.000000001
 43
0.00000001
 40
0.0
 40
0.0
 40
0.0
 40
0.0
 40
0.0667554131374501
 40
0.1317279436682
 40
0.1948100844364496
 40
0.2568986387839176
 40
0.3187508905638018
 40
0.3803512888945383
 40
0.4433244176166923
 40
0.5074626919635745
 40
0.5715056738698081
 40
0.6333612917281041
 40
0.6939415159323156
 40
0.7539288461040335
 40
0.8138015296774592
 40
0.8745236442162162
 40
0.9362219827335261
 40
1.0
 40
1.0
 40
1.0
 40
1.0
 10
109.6063721871087
 20
2.935942469899577
 30
0.0
 10
109.6075583088857
 20
2.894068078562526
 30
0.0
 10
109.609898873872
 20
2.811437663979821
 30
0.0
 10
109.6251689157035
 20
2.689941726139713
 30
0.0
 10
109.6521208138088
 20
2.573576045776864
 30
0.0
 10
109.6891419424716
 20
2.462029114505503
 30
0.0
 10
109.7379149097604
 20
2.356120776187449
 30
0.0
 10
109.7965710781221
 20
2.25475389885307
 30
0.0
 10
109.8661021650636
 20
2.158680896768979
 30
0.0
 10
109.9458258324129
 20
2.068886634795088
 30
0.0
 10
110.0324959167418
 20
1.98681295545505
 30
0.0
 10
110.1247790973229
 20
1.914612582522483
 30
0.0
 10
110.2220270570425
 20
1.853856553616864
 30
0.0
 10
110.3242421424157
 20
1.804755410674906
 30
0.0
 10
110.4308379131016
 20
1.765907460451001
 30
0.0
 10
110.5418467218729
 20
1.737628007062044
 30
0.0
 10
110.6578080574413
 20
1.721411311789361
 30
0.0
 10
110.7365307373818
 20
1.719211863483197
 30
0.0
 10
110.7765444627497
 20
1.718093912207269
 30
0.0
  0
SPLINE
  5
11E
330
1F
100
AcDbEntity
  8
0
  6
Continuous
 62
     7
370
    25
100
AcDbSpline
210
0.0
220
0.0
230
1.0
 70
     8
 71
     3
 72
    23
 73
    19
 74
     0
 42
0.000000001
 43
0.00000001
 40
0.0
 40
0.0
 40
0.0
 40
0.0
 40
0.0659348176256828
 40
0.1300372587941689
 40
0.1923620702496531
 40
0.2538195214289199
 40
0.3141994357375439
 40
0.3746698781567797
 40
0.4351541180379907
 40
0.4964786684939688
 40
0.5578092661396405
 40
0.6190309229821161
 40
0.6796911875192919
 40
0.7409612864102647
 40
0.803375290505177
 40
0.8668176884999621
 40
0.9323179771745076
 40
1.0
 40
1.0
 40
1.0
 40
1.0
 10
110.7765444627497
 20
1.718093912207269
 30
0.0
 10
110.8123275462575
 20
1.719008465947012
 30
0.0
 10
110.8828992754002
 20
1.72081215731401
 30
0.0
 10
110.9868483342169
 20
1.731898594731649
 30
0.0
 10
111.0870667702291
 20
1.751499520049737
 30
0.0
 10
111.1830225329201
 20
1.779867134192898
 30
0.0
 10
111.2757252375528
 20
1.814781191279295
 30
0.0
 10
111.3641032143193
 20
1.858447817764968
 30
0.0
 10
111.4486421153174
 20
1.910035542269712
 30
0.0
 10
111.5291018821266
 20
1.968602887569695
 30
0.0
 10
111.6041751577367
 20
2.034576730456544
 30
0.0
 10
111.6726940888301
 20
2.106796468490798
 30
0.0
 10
111.7350734976397
 20
2.184351807136628
 30
0.0
 10
111.7899785627311
 20
2.268199543477264
 30
0.0
 10
111.837237172977
 20
2.358215797312696
 30
0.0
 10
111.8791470727471
 20
2.453339706359183
 30
0.0
 10
111.9134507453824
 20
2.554564667663759
 30
0.0
 10
111.9308588713302
 20
2.624739434823183
 30
0.0
 10
111.939705520442
 20
2.660401604514962
 30
0.0
  0
LINE
  5
11F
330
1F
100
AcDbEntity
  8
0
  6
Continuous
 62
     7
370
    25
100
AcDbLine
 10
111.9397055204
 20
2.6604016045
 30
0.0
 11
111.2217568025
 21
2.6604016045
 31
0.0
  0
SPLINE
  5
120
330
1F
100
AcDbEntity
  8
0
  6
Continuous
 62
     7
370
    25
100
AcDbSpline
210
0.0
220
0.0
230
1.0
 70
     8
 71
     3
 72
    15
 73
    11
 74
     0
 42
0.000000001
 43
0.00000001
 40
0.0
 40
0.0
 40
0.0
 40
0.0
 40
0.138113787061842
 40
0.2684083835837776
 40
0.3941909055405342
 40
0.5170923452347687
 40
0.6374931640526752
 40
0.7570041724766237
 40
0.8772941249553464
 40
1.0
 40
1.0
 40
1.0
 40
1.0
 10
111.2217568024933
 20
2.660401604514962
 30
0.0
 10
111.2086326825989
 20
2.635689173146704
 30
0.0
 10
111.1831274533112
 20
2.587663382969732
 30
0.0
 10
111.1346108684985
 20
2.523901930332926
 30
0.0
 10
111.0802996320462
 20
2.469528902710394
 30
0.0
 10
111.0206836607461
 20
2.424013064049025
 30
0.0
 10
110.9553766801897
 20
2.389913372308566
 30
0.0
 10
110.8870398265144
 20
2.364053743569477
 30
0.0
 10
110.8148146126854
 20
2.349110421933656
 30
0.0
 10
110.7656260531724
 20
2.347242358497131
 30
0.0
 10
110.7407872512113
 20
2.346299040412398
 30
0.0
  0
SPLINE
  5
121
330
1F
100
AcDbEntity
  8
0
  6
Continuous
 62
     7
370
    25
100
AcDbSpline
210
0.0
220
0.0
230
1.0
 70
     8
 71
     3
 72
    23
 73
    19
 74
     0
 42
0.000000001
 43
0.00000001
 40
0.0
 40
0.0
 40
0.0
 40
0.0
 40
0.0611793430880596
 40
0.1203713884446129
 40
0.178441731362273
 40
0.2359341281811045
 40
0.294267936224384
 40
0.3526542946283928
 40
0.413122128093869
 40
0.4755857683820444
 40
0.5389001041802303
 40
0.6018690472303302
 40
0.6643326875185107
 40
0.7276470233166974
 40
0.7924087308653716
 40
0.8591195288732142
 40
0.9281350966840268
 40
0.9999999999999999
 40
0.9999999999999999
 40
0.9999999999999999
 40
0.9999999999999999
 10
110.7407872512113
 20
2.346299040412398
 30
0.0
 10
110.7234749394849
 20
2.346950409746599
 30
0.0
 10
110.6894126744377
 20
2.348231989887716
 30
0.0
 10
110.6392273131996
 20
2.355011870502086
 30
0.0
 10
110.5913231810016
 20
2.367852810637425
 30
0.0
 10
110.5453441222162
 20
2.385634527592569
 30
0.0
 10
110.5011666252574
 20
2.407810337119624
 30
0.0
 10
110.4594239900037
 20
2.435805851691918
 30
0.0
 10
110.4193899696978
 20
2.46802972702413
 30
0.0
 10
110.3816740444403
 20
2.505006733028764
 30
0.0
 10
110.3475142873514
 20
2.546227493596406
 30
0.0
 10
110.3175599170578
 20
2.590522011027819
 30
0.0
 10
110.2907765790658
 20
2.636906051288238
 30
0.0
 10
110.2709377511375
 20
2.687217002790199
 30
0.0
 10
110.2546914287273
 20
2.739952562670382
 30
0.0
 10
110.2427269796617
 20
2.79551053149157
 30
0.0
 10
110.235576872052
 20
2.853955796340311
 30
0.0
 10
110.2349149633052
 20
2.893854740264417
 30
0.0
 10
110.2345773153138
 20
2.914207694258551
 30
0.0
  0
SPLINE
  5
122
330
1F
100
AcDbEntity
  8
0
  6
Continuous
 62
     7
370
    25
100
AcDbSpline
210
0.0
220
0.0
230
1.0
 70
     8
 71
     3
 72
    23
 73
    19
 74
     0
 42
0.000000001
 43
0.00000001
 40
0.0
 40
0.0
 40
0.0
 40
0.0
 40
0.0728906065806515
 40
0.1418833354390785
 40
0.2092821354239187
 40
0.2746226384553185
 40
0.3384391539790484
 40
0.4013048615705216
 40
0.4650061847340479
 40
0.5283200864625175
 40
0.5907402649620335
 40
0.6509809274188436
 40
0.7096903202894499
 40
0.7672117550042976
 40
0.8241879505444262
 40
0.8817668141839355
 40
0.9399547263812997
 40
1.0
 40
1.0
 40
1.0
 40
1.0
 10
110.2345773153138
 20
2.914207694258551
 30
0.0
 10
110.2349691948404
 20
2.93408820999387
 30
0.0
 10
110.2357319978535
 20
2.972786116556839
 30
0.0
 10
110.2420420566209
 20
3.02960850481869
 30
0.0
 10
110.2533306302498
 20
3.083522667740132
 30
0.0
 10
110.268711408732
 20
3.134941547642336
 30
0.0
 10
110.288400641305
 20
3.183552904143652
 30
0.0
 10
110.312462199786
 20
3.229646095591629
 30
0.0
 10
110.3409988774072
 20
3.272988137534802
 30
0.0
 10
110.3741638816673
 20
3.312696628818821
 30
0.0
 10
110.4095307009606
 20
3.349118386169449
 30
0.0
 10
110.4475260292175
 20
3.380972565025278
 30
0.0
 10
110.4878075487642
 20
3.407409321689401
 30
0.0
 10
110.5291235610136
 20
3.430489379497895
 30
0.0
 10
110.5731232524023
 20
3.447286542491766
 30
0.0
 10
110.6188172466383
 20
3.458854128952303
 30
0.0
 10
110.6661574904783
 20
3.467341958511544
 30
0.0
 10
110.6984472434784
 20
3.467840649611487
 30
0.0
 10
110.714845744801
 20
3.468093912207269
 30
0.0
  0
SPLINE
  5
123
330
1F
100
AcDbEntity
  8
0
  6
Continuous
 62
     7
370
    25
100
AcDbSpline
210
0.0
220
0.0
230
1.0
 70
     8
 71
     3
 72
    15
 73
    11
 74
     0
 42
0.000000001
 43
0.00000001
 40
0.0
 40
0.0
 40
0.0
 40
0.0
 40
0.1103603399843253
 40
0.2211857967812581
 40
0.3343638213725719
 40
0.452976579827427
 40
0.5772343082002523
 40
0.7088043240432496
 40
0.8493551270704537
 40
1.0
 40
1.0
 40
1.0
 40
1.0
 10
110.714845744801
 20
3.468093912207269
 30
0.0
 10
110.7326583285093
 20
3.467418023585104
 30
0.0
 10
110.7683585675701
 20
3.466063397788824
 30
0.0
 10
110.8214001877165
 20
3.455041169967479
 30
0.0
 10
110.8738022731591
 20
3.437203070676076
 30
0.0
 10
110.9258562337357
 20
3.412592585528776
 30
0.0
 10
110.9770453434379
 20
3.380385226011299
 30
0.0
 10
111.0287205083243
 20
3.342609685808037
 30
0.0
 10
111.0791520494293
 20
3.296521213594467
 30
0.0
 10
111.1112178261235
 20
3.262194414819682
 30
0.0
 10
111.1278064819805
 20
3.244436059643167
 30
0.0
  0
LINE
  5
124
330
1F
100
AcDbEntity
  8
0
  6
Continuous
 62
     7
370
    25
100
AcDbLine
 10
111.127806482
 20
3.2444360596
 30
0.0
 11
111.6564523153
 21
3.3657301302
 31
0.0
  0
LINE
  5
125
330
1F
100
AcDbEntity
  8
0
  6
Continuous
 62
     7
370
    25
100
AcDbLine
 10
116.3371414179
 20
2.7950169891
 30
0.0
 11
116.3371414179
 21
3.3783503225
 31
0.0
  0
LINE
  5
126
330
1F
100
AcDbEntity
  8
0
  6
Continuous
 62
     7
370
    25
100
AcDbLine
 10
116.3371414179
 20
3.3783503225
 30
0.0
 11
115.1256029563
 21
3.3783503225
 31
0.0
  0
LINE
  5
127
330
1F
100
AcDbEntity
  8
0
  6
Continuous
 62
     7
370
    25
100
AcDbLine
 10
115.1256029563
 20
3.3783503225
 30
0.0
 11
115.1256029563
 21
2.7950169891
 31
0.0
  0
LINE
  5
128
330
1F
100
AcDbEntity
  8
0
  6
Continuous
 62
     7
370
    25
100
AcDbLine
 10
115.1256029563
 20
2.7950169891
 30
0.0
 11
116.3371414179
 21
2.7950169891
 31
0.0
  0
LINE
  5
129
330
1F
100
AcDbEntity
  8
0
  6
Continuous
 62
     7
370
    25
100
AcDbLine
 10
121.7217568025
 20
4.7245041686
 30
0.0
 11
121.3466566422
 21
5.307837502
 31
0.0
  0
LINE
  5
12A
330
1F
100
AcDbEntity
  8
0
  6
Continuous
 62
     7
370
    25
100
AcDbLine
 10
121.3466566422
 20
5.307837502
 30
0.0
 11
120.3756029563
 21
5.307837502
 31
0.0
  0
LINE
  5
12B
330
1F
100
AcDbEntity
  8
0
  6
Continuous
 62
     7
370
    25
100
AcDbLine
 10
120.3756029563
 20
5.307837502
 30
0.0
 11
120.3756029563
 21
1.807837502
 31
0.0
  0
LINE
  5
12C
330
1F
100
AcDbEntity
  8
0
  6
Continuous
 62
     7
370
    25
100
AcDbLine
 10
120.3756029563
 20
1.807837502
 30
0.0
 11
121.0038080845
 21
1.807837502
 31
0.0
  0
LINE
  5
12D
330
1F
100
AcDbEntity
  8
0
  6
Continuous
 62
     7
370
    25
100
AcDbLine
 10
121.0038080845
 20
1.807837502
 30
0.0
 11
121.0038080845
 21
4.7245041686
 31
0.0
  0
LINE
  5
12E
330
1F
100
AcDbEntity
  8
0
  6
Continuous
 62
     7
370
    25
100
AcDbLine
 10
121.0038080845
 20
4.7245041686
 30
0.0
 11
121.7217568025
 21
4.7245041686
 31
0.0
  0
LINE
  5
12F
330
1F
100
AcDbEntity
  8
0
  6
Continuous
 62
     7
370
    25
100
AcDbLine
 10
100.0441993447
 20
58.5954444621
 30
0.0
 11
101.0285743447
 21
58.5954444621
 31
0.0
  0
LINE
  5
130
330
1F
100
AcDbEntity
  8
0
  6
Continuous
 62
     7
370
    25
100
AcDbLine
 10
101.0285743447
 20
58.5954444621
 30
0.0
 11
101.0285743447
 21
62.0954444621
 31
0.0
  0
LINE
  5
131
330
1F
100
AcDbEntity
  8
0
  6
Continuous
 62
     7
370
    25
100
AcDbLine
 10
101.0285743447
 20
62.0954444621
 30
0.0
 11
100.4676769088
 21
62.0954444621
 31
0.0
  0
SPLINE
  5
132
330
1F
100
AcDbEntity
  8
0
  6
Continuous
 62
     7
370
    25
100
AcDbSpline
210
0.0
220
0.0
230
1.0
 70
     8
 71
     3
 72
    15
 73
    11
 74
     0
 42
0.000000001
 43
0.00000001
 40
0.0
 40
0.0
 40
0.0
 40
0.0
 40
0.1639957318060811
 40
0.3173286319587155
 40
0.4580598946275562
 40
0.589158394585914
 40
0.7079520097453015
 40
0.8163219998754457
 40
0.9135847296003012
 40
1.0
 40
1.0
 40
1.0
 40
1.0
 10
100.4676769088394
 20
62.09544446207165
 30
0.0
 10
100.4284105811901
 20
62.09544894333141
 30
0.0
 10
100.3524309816128
 20
62.09545761448411
 30
0.0
 10
100.2428122483037
 20
62.09160816446175
 30
0.0
 10
100.1411501307412
 20
62.08662846961021
 30
0.0
 10
100.0477681571845
 20
62.08105734906567
 30
0.0
 10
99.96250738504688
 20
62.07145719526389
 30
0.0
 10
99.88549746723741
 20
62.06133968180009
 30
0.0
 10
99.8165845374743
 20
62.04913858416513
 30
0.0
 10
99.77397941769836
 20
62.03819382157042
 30
0.0
 10
99.75393492165993
 20
62.03304462232806
 30
0.0
  0
SPLINE
  5
133
330
1F
100
AcDbEntity
  8
0
  6
Continuous
 62
     7
370
    25
100
AcDbSpline
210
0.0
220
0.0
230
1.0
 70
     8
 71
     3
 72
    23
 73
    19
 74
     0
 42
0.000000001
 43
0.00000001
 40
0.0
 40
0.0
 40
0.0
 40
0.0
 40
0.0687497663152869
 40
0.1349091121452231
 40
0.1997210700545306
 40
0.2629736746369432
 40
0.3253570233490349
 40
0.387336140988733
 40
0.449407487429789
 40
0.5111175193516634
 40
0.5724725853513688
 40
0.6330771719677236
 40
0.6928610080890985
 40
0.7525606967546128
 40
0.8127375856307877
 40
0.873479312727876
 40
0.935776460065581
 40
1.0
 40
1.0
 40
1.0
 40
1.0
 10
99.75393492165993
 20
62.03304462232806
 30
0.0
 10
99.72761446324805
 20
62.02578158507824
 30
0.0
 10
99.67596527422648
 20
62.01152917435211
 30
0.0
 10
99.6019871531441
 20
61.98274581494371
 30
0.0
 10
99.53180858592332
 20
61.95075107024072
 30
0.0
 10
99.46551525867152
 20
61.91425105050437
 30
0.0
 10
99.4035142388288
 20
61.87280509822067
 30
0.0
 10
99.34604115138828
 20
61.82608428583858
 30
0.0
 10
99.29185644406628
 20
61.77596398475927
 30
0.0
 10
99.24288409211773
 20
61.72104735640956
 30
0.0
 10
99.19862115475395
 20
61.6630177658297
 30
0.0
 10
99.16016459814995
 20
61.60189041835417
 30
0.0
 10
99.12675077942878
 20
61.53859999102811
 30
0.0
 10
99.10001097230659
 20
61.47235001590481
 30
0.0
 10
99.07986303000183
 20
61.40344559204477
 30
0.0
 10
99.06512690905822
 20
61.33218095200304
 30
0.0
 10
99.05557590723701
 20
61.25833059691796
 30
0.0
 10
99.05467346284328
 20
61.20808778657439
 30
0.0
 10
99.05421537037788
 20
61.18258388514857
 30
0.0
  0
SPLINE
  5
134
330
1F
100
AcDbEntity
  8
0
  6
Continuous
 62
     7
370
    25
100
AcDbSpline
210
0.0
220
0.0
230
1.0
 70
     8
 71
     3
 72
    15
 73
    11
 74
     0
 42
0.000000001
 43
0.00000001
 40
0.0
 40
0.0
 40
0.0
 40
0.0
 40
0.1232695606004596
 40
0.2426409842839841
 40
0.3594273839391128
 40
0.4755502191345238
 40
0.5938976740482389
 40
0.7202015971643208
 40
0.8544653148776604
 40
1.0
 40
1.0
 40
1.0
 40
1.0
 10
99.05421537037788
 20
61.18258388514857
 30
0.0
 10
99.05541314609418
 20
61.14981806618358
 30
0.0
 10
99.05777082042466
 20
61.08532257738811
 30
0.0
 10
99.07283180460988
 20
60.99059037294339
 30
0.0
 10
99.10107349653846
 20
60.90105482356778
 30
0.0
 10
99.13802706355305
 20
60.8150658228619
 30
0.0
 10
99.1882723614449
 20
60.7329441104217
 30
0.0
 10
99.25207417222708
 20
60.65472873284109
 30
0.0
 10
99.32839911554622
 20
60.57801132138692
 30
0.0
 10
99.38694456045464
 20
60.53202440808469
 30
0.0
 10
99.41739646012148
 20
60.5081047184819
 30
0.0
  0
SPLINE
  5
135
330
1F
100
AcDbEntity
  8
0
  6
Continuous
 62
     7
370
    25
100
AcDbSpline
210
0.0
220
0.0
230
1.0
 70
     8
 71
     3
 72
    23
 73
    19
 74
     0
 42
0.000000001
 43
0.00000001
 40
0.0
 40
0.0
 40
0.0
 40
0.0
 40
0.072791182267375
 40
0.1427233695565063
 40
0.2094912699928617
 40
0.2747163184918684
 40
0.3368863886768205
 40
0.3976856020239952
 40
0.4570537497761183
 40
0.5153125941662612
 40
0.5728222022221272
 40
0.6307760073985093
 40
0.6895054947089557
 40
0.7487432781628037
 40
0.8092253247293001
 40
0.8707153202239987
 40
0.9342652493244643
 40
1.0
 40
1.0
 40
1.0
 40
1.0
 10
99.41739646012148
 20
60.5081047184819
 30
0.0
 10
99.39271970152552
 20
60.49550744721702
 30
0.0
 10
99.34433540514732
 20
60.47080768350753
 30
0.0
 10
99.27564391877716
 20
60.43020864527514
 30
0.0
 10
99.21204310065957
 20
60.38702641908088
 30
0.0
 10
99.15324778401268
 20
60.34212984868373
 30
0.0
 10
99.10049126789012
 20
60.29361570340686
 30
0.0
 10
99.05159514716385
 20
60.24427943492422
 30
0.0
 10
99.00897170264065
 20
60.19129428022805
 30
0.0
 10
98.97085653390013
 20
60.13654873112932
 30
0.0
 10
98.93772744873947
 20
60.07925006573109
 30
0.0
 10
98.9088756687311
 20
60.01949504856837
 30
0.0
 10
98.88450560507845
 20
59.95707954349685
 30
0.0
 10
98.86386840485527
 20
59.89232119490258
 30
0.0
 10
98.848477175457
 20
59.82499726436418
 30
0.0
 10
98.83844176658495
 20
59.75508367404495
 30
0.0
 10
98.83075803027485
 20
59.68281886483987
 30
0.0
 10
98.83016030780286
 20
59.6335938814334
 30
0.0
 10
98.82985639601891
 20
59.60856545566138
 30
0.0
  0
SPLINE
  5
136
330
1F
100
AcDbEntity
  8
0
  6
Continuous
 62
     7
370
    25
100
AcDbSpline
210
0.0
220
0.0
230
1.0
 70
     8
 71
     3
 72
    23
 73
    19
 74
     0
 42
0.000000001
 43
0.00000001
 40
0.0
 40
0.0
 40
0.0
 40
0.0
 40
0.0802588853381369
 40
0.1583905883453959
 40
0.2362576248303817
 40
0.3151047653520888
 40
0.3932216786245977
 40
0.4687312831158786
 40
0.5427812639155867
 40
0.6177081693395541
 40
0.6563652025204878
 40
0.6970796727899481
 40
0.7406969496811652
 40
0.7867286654533131
 40
0.8355790921841506
 40
0.8872495053564288
 40
0.9418976668361599
 40
1.0
 40
1.0
 40
1.0
 40
1.0
 10
98.82985639601891
 20
59.60856545566138
 30
0.0
 10
98.83182858037124
 20
59.56076259345377
 30
0.0
 10
98.8357206782813
 20
59.46642383659513
 30
0.0
 10
98.86417779906495
 20
59.32791287515941
 30
0.0
 10
98.91351340433371
 20
59.19659192078349
 30
0.0
 10
98.97976094887255
 20
59.0729828991582
 30
0.0
 10
99.06139066991919
 20
58.96066408852334
 30
0.0
 10
99.15524144033066
 20
58.86227378552322
 30
0.0
 10
99.26036839810934
 20
58.7789885783184
 30
0.0
 10
99.35736072294976
 20
58.72277752450758
 30
0.0
 10
99.44125144570977
 20
58.68505465098227
 30
0.0
 10
99.51073656398525
 20
58.66173199172104
 30
0.0
 10
99.58536210816798
 20
58.6401259154263
 30
0.0
 10
99.66649503899818
 20
58.62495368253167
 30
0.0
 10
99.75266452708567
 20
58.61106638661283
 30
0.0
 10
99.84471073038806
 20
58.60249208245708
 30
0.0
 10
99.94246161621413
 20
58.5966814877984
 30
0.0
 10
100.0096011500577
 20
58.59586514039362
 30
0.0
 10
100.0441993447369
 20
58.59544446207164
 30
0.0
  0
LINE
  5
137
330
1F
100
AcDbEntity
  8
0
  6
Continuous
 62
     7
370
    25
100
AcDbLine
 10
105.4063929313
 20
45.581617867
 30
0.0
 11
105.4063929313
 21
49.081617867
 31
0.0
  0
LINE
  5
138
330
1F
100
AcDbEntity
  8
0
  6
Continuous
 62
     7
370
    25
100
AcDbLine
 10
105.4063929313
 20
49.081617867
 30
0.0
 11
104.7781878031
 21
49.081617867
 31
0.0
  0
LINE
  5
139
330
1F
100
AcDbEntity
  8
0
  6
Continuous
 62
     7
370
    25
100
AcDbLine
 10
104.7781878031
 20
49.081617867
 30
0.0
 11
104.7781878031
 21
47.7354640209
 31
0.0
  0
LINE
  5
13A
330
1F
100
AcDbEntity
  8
0
  6
Continuous
 62
     7
370
    25
100
AcDbLine
 10
104.7781878031
 20
47.7354640209
 30
0.0
 11
103.5666493416
 21
47.7354640209
 31
0.0
  0
LINE
  5
13B
330
1F
100
AcDbEntity
  8
0
  6
Continuous
 62
     7
370
    25
100
AcDbLine
 10
103.5666493416
 20
47.7354640209
 30
0.0
 11
103.5666493416
 21
49.081617867
 31
0.0
  0
LINE
  5
13C
330
1F
100
AcDbEntity
  8
0
  6
Continuous
 62
     7
370
    25
100
AcDbLine
 10
103.5666493416
 20
49.081617867
 30
0.0
 11
102.9384442134
 21
49.081617867
 31
0.0
  0
LINE
  5
13D
330
1F
100
AcDbEntity
  8
0
  6
Continuous
 62
     7
370
    25
100
AcDbLine
 10
102.9384442134
 20
49.081617867
 30
0.0
 11
102.9384442134
 21
45.581617867
 31
0.0
  0
LINE
  5
13E
330
1F
100
AcDbEntity
  8
0
  6
Continuous
 62
     7
370
    25
100
AcDbLine
 10
102.9384442134
 20
45.581617867
 30
0.0
 11
103.5666493416
 21
45.581617867
 31
0.0
  0
LINE
  5
13F
330
1F
100
AcDbEntity
  8
0
  6
Continuous
 62
     7
370
    25
100
AcDbLine
 10
103.5666493416
 20
45.581617867
 30
0.0
 11
103.5666493416
 21
47.1072588927
 31
0.0
  0
LINE
  5
140
330
1F
100
AcDbEntity
  8
0
  6
Continuous
 62
     7
370
    25
100
AcDbLine
 10
103.5666493416
 20
47.1072588927
 30
0.0
 11
104.7781878031
 21
47.1072588927
 31
0.0
  0
LINE
  5
141
330
1F
100
AcDbEntity
  8
0
  6
Continuous
 62
     7
370
    25
100
AcDbLine
 10
104.7781878031
 20
47.1072588927
 30
0.0
 11
104.7781878031
 21
45.581617867
 31
0.0
  0
LINE
  5
142
330
1F
100
AcDbEntity
  8
0
  6
Continuous
 62
     7
370
    25
100
AcDbLine
 10
104.7781878031
 20
45.581617867
 30
0.0
 11
105.4063929313
 21
45.581617867
 31
0.0
  0
LINE
  5
143
330
1F
100
AcDbEntity
  8
0
  6
Continuous
 62
     7
370
    25
100
AcDbLine
 10
99.3235471394
 20
33.9483050661
 30
0.0
 11
99.3235471394
 21
37.4483050661
 31
0.0
  0
LINE
  5
144
330
1F
100
AcDbEntity
  8
0
  6
Continuous
 62
     7
370
    25
100
AcDbLine
 10
99.3235471394
 20
37.4483050661
 30
0.0
 11
97.4389317548
 21
37.4483050661
 31
0.0
  0
LINE
  5
145
330
1F
100
AcDbEntity
  8
0
  6
Continuous
 62
     7
370
    25
100
AcDbLine
 10
97.4389317548
 20
37.4483050661
 30
0.0
 11
97.4389317548
 21
36.8200999379
 31
0.0
  0
LINE
  5
146
330
1F
100
AcDbEntity
  8
0
  6
Continuous
 62
     7
370
    25
100
AcDbLine
 10
97.4389317548
 20
36.8200999379
 30
0.0
 11
98.6953420112
 21
36.8200999379
 31
0.0
  0
LINE
  5
147
330
1F
100
AcDbEntity
  8
0
  6
Continuous
 62
     7
370
    25
100
AcDbLine
 10
98.6953420112
 20
36.8200999379
 30
0.0
 11
98.6953420112
 21
36.1470230148
 31
0.0
  0
LINE
  5
148
330
1F
100
AcDbEntity
  8
0
  6
Continuous
 62
     7
370
    25
100
AcDbLine
 10
98.6953420112
 20
36.1470230148
 30
0.0
 11
97.4389317548
 21
36.1470230148
 31
0.0
  0
LINE
  5
149
330
1F
100
AcDbEntity
  8
0
  6
Continuous
 62
     7
370
    25
100
AcDbLine
 10
97.4389317548
 20
36.1470230148
 30
0.0
 11
97.4389317548
 21
35.5188178866
 31
0.0
  0
LINE
  5
14A
330
1F
100
AcDbEntity
  8
0
  6
Continuous
 62
     7
370
    25
100
AcDbLine
 10
97.4389317548
 20
35.5188178866
 30
0.0
 11
98.6953420112
 21
35.5188178866
 31
0.0
  0
LINE
  5
14B
330
1F
100
AcDbEntity
  8
0
  6
Continuous
 62
     7
370
    25
100
AcDbLine
 10
98.6953420112
 20
35.5188178866
 30
0.0
 11
98.6953420112
 21
34.5765101943
 31
0.0
  0
LINE
  5
14C
330
1F
100
AcDbEntity
  8
0
  6
Continuous
 62
     7
370
    25
100
AcDbLine
 10
98.6953420112
 20
34.5765101943
 30
0.0
 11
97.4389317548
 21
34.5765101943
 31
0.0
  0
LINE
  5
14D
330
1F
100
AcDbEntity
  8
0
  6
Continuous
 62
     7
370
    25
100
AcDbLine
 10
97.4389317548
 20
34.5765101943
 30
0.0
 11
97.4389317548
 21
33.9483050661
 31
0.0
  0
LINE
  5
14E
330
1F
100
AcDbEntity
  8
0
  6
Continuous
 62
     7
370
    25
100
AcDbLine
 10
97.4389317548
 20
33.9483050661
 30
0.0
 11
99.3235471394
 21
33.9483050661
 31
0.0
  0
LINE
  5
14F
330
1F
100
AcDbEntity
  8
0
  6
Continuous
 62
     7
370
    25
100
AcDbLine
 10
95.4197009856
 20
33.9483050661
 30
0.0
 11
95.4197009856
 21
36.5059973738
 31
0.0
  0
LINE
  5
150
330
1F
100
AcDbEntity
  8
0
  6
Continuous
 62
     7
370
    25
100
AcDbLine
 10
95.4197009856
 20
36.5059973738
 30
0.0
 11
94.8812394471
 21
36.5059973738
 31
0.0
  0
LINE
  5
151
330
1F
100
AcDbEntity
  8
0
  6
Continuous
 62
     7
370
    25
100
AcDbLine
 10
94.8812394471
 20
36.5059973738
 30
0.0
 11
94.8812394471
 21
36.1911936879
 31
0.0
  0
SPLINE
  5
152
330
1F
100
AcDbEntity
  8
0
  6
Continuous
 62
     7
370
    25
100
AcDbSpline
210
0.0
220
0.0
230
1.0
 70
     8
 71
     3
 72
    15
 73
    11
 74
     0
 42
0.000000001
 43
0.00000001
 40
0.0
 40
0.0
 40
0.0
 40
0.0
 40
0.1373326587675224
 40
0.2684223790574854
 40
0.3932053799591951
 40
0.5164303771821779
 40
0.6377928828173024
 40
0.7580612519913736
 40
0.8777193330221501
 40
1.0
 40
1.0
 40
1.0
 40
1.0
 10
94.88123944709983
 20
36.19119368789072
 30
0.0
 10
94.86600740388066
 20
36.21917037806521
 30
0.0
 10
94.8362357434796
 20
36.27385197967536
 30
0.0
 10
94.78154270643765
 20
36.34725120107992
 30
0.0
 10
94.71870913028006
 20
36.4090659774679
 30
0.0
 10
94.64999281969483
 20
36.4605892211882
 30
0.0
 10
94.57518550901216
 20
36.50074653054008
 30
0.0
 10
94.49629040471564
 20
36.52936367596169
 30
0.0
 10
94.41398245307636
 20
36.54796085508629
 30
0.0
 10
94.35783475872454
 20
36.54989275030076
 30
0.0
 10
94.32945659453574
 20
36.55086916865996
 30
0.0
  0
SPLINE
  5
153
330
1F
100
AcDbEntity
  8
0
  6
Continuous
 62
     7
370
    25
100
AcDbSpline
210
0.0
220
0.0
230
1.0
 70
     8
 71
     3
 72
    11
 73
     7
 74
     0
 42
0.000000001
 43
0.00000001
 40
0.0
 40
0.0
 40
0.0
 40
0.0
 40
0.232851034100663
 40
0.4741678510282077
 40
0.7313385461287226
 40
1.0
 40
1.0
 40
1.0
 40
1.0
 10
94.32945659453574
 20
36.55086916865996
 30
0.0
 10
94.30885050631093
 20
36.54990426331151
 30
0.0
 10
94.2668891527383
 20
36.5479393714772
 30
0.0
 10
94.20293414503737
 20
36.53651742542245
 30
0.0
 10
94.13805637898125
 20
36.5158643749953
 30
0.0
 10
94.09536121824969
 20
36.49726904801207
 30
0.0
 10
94.07354713940754
 20
36.48776820712149
 30
0.0
  0
LINE
  5
154
330
1F
100
AcDbEntity
  8
0
  6
Continuous
 62
     7
370
    25
100
AcDbLine
 10
94.0735471394
 20
36.4877682071
 30
0.0
 11
94.2684589984
 21
35.9556167648
 31
0.0
  0
SPLINE
  5
155
330
1F
100
AcDbEntity
  8
0
  6
Continuous
 62
     7
370
    25
100
AcDbSpline
210
0.0
220
0.0
230
1.0
 70
     8
 71
     3
 72
    11
 73
     7
 74
     0
 42
0.000000001
 43
0.00000001
 40
0.0
 40
0.0
 40
0.0
 40
0.0
 40
0.3035967495723873
 40
0.5706450181692272
 40
0.8010704299308459
 40
1.0
 40
1.0
 40
1.0
 40
1.0
 10
94.26845899838189
 20
35.9556167648138
 30
0.0
 10
94.2858813352489
 20
35.96403439561399
 30
0.0
 10
94.31862862174661
 20
35.97985630111093
 30
0.0
 10
94.36617199568579
 20
35.99852777962909
 30
0.0
 10
94.40931957882736
 20
36.00992020325344
 30
0.0
 10
94.43667435453968
 20
36.01162005270466
 30
0.0
 10
94.44934842145881
 20
36.01240763019841
 30
0.0
  0
SPLINE
  5
156
330
1F
100
AcDbEntity
  8
0
  6
Continuous
 62
     7
370
    25
100
AcDbSpline
210
0.0
220
0.0
230
1.0
 70
     8
 71
     3
 72
    23
 73
    19
 74
     0
 42
0.000000001
 43
0.00000001
 40
0.0
 40
0.0
 40
0.0
 40
0.0
 40
0.0340145111526613
 40
0.0669124038090281
 40
0.1011407022045742
 40
0.1363808922681619
 40
0.1735979957406226
 40
0.2140756260844537
 40
0.2579797804939576
 40
0.305417222645033
 40
0.3586847121323472
 40
0.420923911433766
 40
0.4926910011447099
 40
0.5741308488820719
 40
0.6651821528112482
 40
0.766512664051458
 40
0.8783143413429167
 40
1.0
 40
1.0
 40
1.0
 40
1.0
 10
94.44934842145881
 20
36.01240763019841
 30
0.0
 10
94.46131520537288
 20
36.01188573975393
 30
0.0
 10
94.48485593109315
 20
36.01085909133296
 30
0.0
 10
94.51960138364649
 20
36.00206106287838
 30
0.0
 10
94.55232436457335
 20
35.98688913536364
 30
0.0
 10
94.58460179260345
 20
35.96745239061668
 30
0.0
 10
94.61388733653268
 20
35.94043386169752
 30
0.0
 10
94.64315479140997
 20
35.90915511716284
 30
0.0
 10
94.66894683981764
 20
35.87053734666737
 30
0.0
 10
94.6961649307753
 20
35.82755380683692
 30
0.0
 10
94.71934016203907
 20
35.77494199281298
 30
0.0
 10
94.73921220935107
 20
35.71213432890322
 30
0.0
 10
94.75691836286728
 20
35.63840408727718
 30
0.0
 10
94.7691026139682
 20
35.55335979633274
 30
0.0
 10
94.78087918183954
 20
35.45782440649178
 30
0.0
 10
94.78788888423615
 20
35.35109669981706
 30
0.0
 10
94.79311330408879
 20
35.23351415960158
 30
0.0
 10
94.79343274237178
 20
35.15143730290688
 30
0.0
 10
94.79359922274087
 20
35.10866163660867
 30
0.0
  0
LINE
  5
157
330
1F
100
AcDbEntity
  8
0
  6
Continuous
 62
     7
370
    25
100
AcDbLine
 10
94.7935992227
 20
35.1086616366
 30
0.0
 11
94.7914958574
 21
34.9838619571
 31
0.0
  0
LINE
  5
158
330
1F
100
AcDbEntity
  8
0
  6
Continuous
 62
     7
370
    25
100
AcDbLine
 10
94.7914958574
 20
34.9838619571
 30
0.0
 11
94.7914958574
 21
33.9483050661
 31
0.0
  0
LINE
  5
159
330
1F
100
AcDbEntity
  8
0
  6
Continuous
 62
     7
370
    25
100
AcDbLine
 10
94.7914958574
 20
33.9483050661
 30
0.0
 11
95.4197009856
 21
33.9483050661
 31
0.0
  0
LINE
  5
15A
330
1F
100
AcDbEntity
  8
0
  6
Continuous
 62
     7
370
    25
100
AcDbLine
 10
101.0234431704
 20
25.7847264991
 30
0.0
 11
100.2487035871
 21
25.7847264991
 31
0.0
  0
LINE
  5
15B
330
1F
100
AcDbEntity
  8
0
  6
Continuous
 62
     7
370
    25
100
AcDbLine
 10
100.2487035871
 20
25.7847264991
 30
0.0
 11
100.2487035871
 21
26.9759324286
 31
0.0
  0
LINE
  5
15C
330
1F
100
AcDbEntity
  8
0
  6
Continuous
 62
     7
370
    25
100
AcDbLine
 10
100.2487035871
 20
26.9759324286
 30
0.0
 11
101.0234431704
 21
25.7847264991
 31
0.0
  0
LINE
  5
15D
330
1F
100
AcDbEntity
  8
0
  6
Continuous
 62
     7
370
    25
100
AcDbLine
 10
100.2033539922
 20
61.4672393339
 30
0.0
 11
100.4003692165
 21
61.4672393339
 31
0.0
  0
LINE
  5
15E
330
1F
100
AcDbEntity
  8
0
  6
Continuous
 62
     7
370
    25
100
AcDbLine
 10
100.4003692165
 20
61.4672393339
 30
0.0
 11
100.4003692165
 21
60.704418821
 31
0.0
  0
LINE
  5
15F
330
1F
100
AcDbEntity
  8
0
  6
Continuous
 62
     7
370
    25
100
AcDbLine
 10
100.4003692165
 20
60.704418821
 30
0.0
 11
100.2335022294
 21
60.704418821
 31
0.0
  0
SPLINE
  5
160
330
1F
100
AcDbEntity
  8
0
  6
Continuous
 62
     7
370
    25
100
AcDbSpline
210
0.0
220
0.0
230
1.0
 70
     8
 71
     3
 72
    19
 73
    15
 74
     0
 42
0.000000001
 43
0.00000001
 40
0.0
 40
0.0
 40
0.0
 40
0.0
 40
0.0887762289654642
 40
0.1713771372145589
 40
0.2481138113668629
 40
0.3211611878976297
 40
0.3880331325497861
 40
0.4520913744364482
 40
0.5122677074822385
 40
0.5688662368266956
 40
0.6769360002929885
 40
0.7810117272007161
 40
0.8869176462132713
 40
1.0
 40
1.0
 40
1.0
 40
1.0
 10
100.2335022293523
 20
60.704418821046
 30
0.0
 10
100.2108235065657
 20
60.70461658809025
 30
0.0
 10
100.1670436047595
 20
60.70499836540018
 30
0.0
 10
100.1038081803659
 20
60.70991552458357
 30
0.0
 10
100.0450094478365
 20
60.71830450358522
 30
0.0
 10
99.99087041807536
 20
60.73000923956403
 30
0.0
 10
99.94088676635732
 20
60.74487254768616
 30
0.0
 10
99.89537780264838
 20
60.7627563083426
 30
0.0
 10
99.85454362163297
 20
60.78457644020028
 30
0.0
 10
99.80710374771562
 20
60.81707848950214
 30
0.0
 10
99.75695637993292
 20
60.86490671019479
 30
0.0
 10
99.7128122160624
 20
60.93400448457783
 30
0.0
 10
99.68681159831723
 20
61.01346666221708
 30
0.0
 10
99.6839158307621
 20
61.06950954272115
 30
0.0
 10
99.68242049858301
 20
61.09844926976395
 30
0.0
  0
SPLINE
  5
161
330
1F
100
AcDbEntity
  8
0
  6
Continuous
 62
     7
370
    25
100
AcDbSpline
210
0.0
220
0.0
230
1.0
 70
     8
 71
     3
 72
    19
 73
    15
 74
     0
 42
0.000000001
 43
0.00000001
 40
0.0
 40
0.0
 40
0.0
 40
0.0
 40
0.1123318680474792
 40
0.2171891524479058
 40
0.320776382214894
 40
0.4294461252394063
 40
0.4868895248481713
 40
0.5473481609653099
 40
0.6105516098532334
 40
0.6785404198027615
 40
0.7510057638701895
 40
0.8285633445446918
 40
0.9114938035709889
 40
1.0
 40
1.0
 40
1.0
 40
1.0
 10
99.68242049858301
 20
61.09844926976395
 30
0.0
 10
99.68361703807408
 20
61.12555613243313
 30
0.0
 10
99.6859304990932
 20
61.17796616202644
 30
0.0
 10
99.71210977820687
 20
61.25155451122924
 30
0.0
 10
99.75277137423771
 20
61.31676884933768
 30
0.0
 10
99.80077810350276
 20
61.36140273060018
 30
0.0
 10
99.84598576760088
 20
61.39188635559755
 30
0.0
 10
99.88469534380131
 20
61.41195852453413
 30
0.0
 10
99.92718201039158
 20
61.42992692501699
 30
0.0
 10
99.97426826372448
 20
61.44366600195094
 30
0.0
 10
100.0256852154699
 20
61.45397532152802
 30
0.0
 10
100.081183104799
 20
61.46154628212479
 30
0.0
 10
100.1408576847209
 20
61.46669939999848
 30
0.0
 10
100.1820750440373
 20
61.46705549540881
 30
0.0
 10
100.2033539921728
 20
61.46723933386651
 30
0.0
  0
LINE
  5
162
330
1F
100
AcDbEntity
  8
0
  6
Continuous
 62
     7
370
    25
100
AcDbLine
 10
100.2503291524
 20
60.1210854877
 30
0.0
 11
100.4003692165
 21
60.1210854877
 31
0.0
  0
LINE
  5
163
330
1F
100
AcDbEntity
  8
0
  6
Continuous
 62
     7
370
    25
100
AcDbLine
 10
100.4003692165
 20
60.1210854877
 30
0.0
 11
100.4003692165
 21
59.2236495903
 31
0.0
  0
LINE
  5
164
330
1F
100
AcDbEntity
  8
0
  6
Continuous
 62
     7
370
    25
100
AcDbLine
 10
100.4003692165
 20
59.2236495903
 30
0.0
 11
100.2194797935
 21
59.2236495903
 31
0.0
  0
SPLINE
  5
165
330
1F
100
AcDbEntity
  8
0
  6
Continuous
 62
     7
370
    25
100
AcDbSpline
210
0.0
220
0.0
230
1.0
 70
     8
 71
     3
 72
    23
 73
    19
 74
     0
 42
0.000000001
 43
0.00000001
 40
0.0
 40
0.0
 40
0.0
 40
0.0
 40
0.1095674252695372
 40
0.2106570473717237
 40
0.3020024587326132
 40
0.3851432164195893
 40
0.4590126129308647
 40
0.5247192090460511
 40
0.5832266479388934
 40
0.6342083193258304
 40
0.6811857277932597
 40
0.7262751343643136
 40
0.7701133344783277
 40
0.8140800070140997
 40
0.8579941680783136
 40
0.9033387195085182
 40
0.9505447828389813
 40
1.0
 40
1.0
 40
1.0
 40
1.0
 10
100.2194797934548
 20
59.22364959027677
 30
0.0
 10
100.1837177241965
 20
59.22385389764865
 30
0.0
 10
100.1149606835038
 20
59.22424670406541
 30
0.0
 10
100.0164663445411
 20
59.22899273971781
 30
0.0
 10
99.92691036682619
 20
59.23754663273765
 30
0.0
 10
99.84653003991329
 20
59.24822547912154
 30
0.0
 10
99.77520224611504
 20
59.26269364566907
 30
0.0
 10
99.71316809044757
 20
59.28108806524036
 30
0.0
 10
99.65957685488091
 20
59.30132513063297
 30
0.0
 10
99.61474987511606
 20
59.32632030918943
 30
0.0
 10
99.57812880065602
 20
59.35540849866185
 30
0.0
 10
99.54508212052353
 20
59.38513732704131
 30
0.0
 10
99.51813791674525
 20
59.4194323392574
 30
0.0
 10
99.49681915989865
 20
59.45682134548463
 30
0.0
 10
99.47836781349658
 20
59.49637557582045
 30
0.0
 10
99.46723926431763
 20
59.53963960872429
 30
0.0
 10
99.45876637754581
 20
59.58533120201432
 30
0.0
 10
99.45830009190568
 20
59.616935088978
 30
0.0
 10
99.45806152422405
 20
59.6331047184819
 30
0.0
  0
SPLINE
  5
166
330
1F
100
AcDbEntity
  8
0
  6
Continuous
 62
     7
370
    25
100
AcDbSpline
210
0.0
220
0.0
230
1.0
 70
     8
 71
     3
 72
    23
 73
    19
 74
     0
 42
0.000000001
 43
0.00000001
 40
0.0
 40
0.0
 40
0.0
 40
0.0
 40
0.0528263492812261
 40
0.1028915173965581
 40
0.1516981461048768
 40
0.199577588123532
 40
0.2472235843729619
 40
0.2957231203836665
 40
0.3462538147999422
 40
0.3985071702228972
 40
0.4542901722394643
 40
0.5140415865121263
 40
0.5790927186074003
 40
0.6500371484472949
 40
0.7274510007645255
 40
0.8114520065892964
 40
0.9024758798237995
 40
1.0
 40
1.0
 40
1.0
 40
1.0
 10
99.45806152422404
 20
59.6331047184819
 30
0.0
 10
99.45858763442847
 20
59.65159494414516
 30
0.0
 10
99.45961235557586
 20
59.68760892961608
 30
0.0
 10
99.46798126562258
 20
59.74024721287806
 30
0.0
 10
99.48319030894581
 20
59.78938854285926
 30
0.0
 10
99.50234684107784
 20
59.83628952965913
 30
0.0
 10
99.5290041733431
 20
59.87927095458216
 30
0.0
 10
99.56068550174002
 20
59.91982024175407
 30
0.0
 10
99.59896463422533
 20
59.95656426715653
 30
0.0
 10
99.64201175184307
 20
59.99172544677834
 30
0.0
 10
99.69222195262617
 20
60.02251096448512
 30
0.0
 10
99.74961879375196
 20
60.04922285411504
 30
0.0
 10
99.81451408610097
 20
60.07153164063414
 30
0.0
 10
99.8871088497111
 20
60.08929391109449
 30
0.0
 10
99.96708483477148
 20
60.10436850452038
 30
0.0
 10
100.0550257781129
 20
60.1133697009008
 30
0.0
 10
100.1501992770181
 20
60.12006428623581
 30
0.0
 10
100.2161941300379
 20
60.12073735250191
 30
0.0
 10
100.2503291524292
 20
60.12108548771268
 30
0.0
  0
MTEXT
  5
168
330
1F
100
AcDbEntity
  8
0
  6
Continuous
 62
     7
100
AcDbMText
 10
0.0
 20
-1.0195663917
 30
0.0
 40
4.83362
 41
0.0
 71
     1
 72
     1
  1
SOLIDWORKS Educational Product.
  7
SLDTEXTSTYLE0
 73
     1
 44
1.0
  0
MTEXT
  5
169
330
1F
100
AcDbEntity
  8
0
  6
Continuous
 62
     7
100
AcDbMText
 10
0.0
 20
-8.2699963917
 30
0.0
 40
4.83362
 41
0.0
 71
     1
 72
     1
  1
For Instructional Use Only.
  7
SLDTEXTSTYLE0
 73
     1
 44
1.0
  0
ENDSEC
  0
SECTION
  2
OBJECTS
  0
DICTIONARY
  5
C
330
0
100
AcDbDictionary
281
     1
  3
ACAD_GROUP
350
D
  3
ACAD_LAYOUT
350
1A
  3
ACAD_MLINESTYLE
350
17
  3
ACAD_PLOTSETTINGS
350
19
  3
ACAD_PLOTSTYLENAME
350
E
  3
ACAD_SCALELIST
350
47
  0
DICTIONARY
  5
D
102
{ACAD_REACTORS
330
C
102
}
330
C
100
AcDbDictionary
281
     1
  0
DICTIONARY
  5
1A
102
{ACAD_REACTORS
330
C
102
}
330
C
100
AcDbDictionary
281
     1
  3
Layout1
350
1E
  3
Layout2
350
26
  3
Model
350
22
  0
DICTIONARY
  5
17
102
{ACAD_REACTORS
330
C
102
}
330
C
100
AcDbDictionary
281
     1
  3
Standard
350
18
  0
DICTIONARY
  5
19
102
{ACAD_REACTORS
330
C
102
}
330
C
100
AcDbDictionary
281
     1
  0
ACDBDICTIONARYWDFLT
  5
E
102
{ACAD_REACTORS
330
C
102
}
330
C
100
AcDbDictionary
281
     1
  3
Normal
350
F
100
AcDbDictionaryWithDefault
340
F
  0
DICTIONARY
  5
47
102
{ACAD_REACTORS
330
C
102
}
330
C
100
AcDbDictionary
281
     1
  3
A0
350
48
  3
A1
350
49
  3
A2
350
4A
  3
A3
350
4B
  3
A4
350
4C
  3
A5
350
4D
  3
A6
350
4E
  3
A7
350
4F
  3
A8
350
50
  3
A9
350
51
  3
B0
350
52
  3
B1
350
53
  3
B2
350
54
  3
B3
350
55
  3
B4
350
56
  3
B5
350
57
  3
B6
350
58
  3
B7
350
59
  3
B8
350
5A
  3
B9
350
5B
  3
C0
350
5C
  3
C1
350
5D
  3
C2
350
5E
  3
C3
350
5F
  3
C4
350
60
  3
C5
350
61
  3
C6
350
62
  3
C7
350
63
  3
C8
350
64
  3
C9
350
65
  3
D0
350
66
  3
D1
350
67
  3
D2
350
68
  0
LAYOUT
  5
1E
102
{ACAD_REACTORS
330
1A
102
}
330
1A
100
AcDbPlotSettings
  1

  2
none_device
  4

  6

 40
0.0
 41
0.0
 42
0.0
 43
0.0
 44
0.0
 45
0.0
 46
0.0
 47
0.0
 48
0.0
 49
0.0
140
0.0
141
0.0
142
1.0
143
1.0
 70
   688
 72
     1
 73
     0
 74
     5
  7

 75
    16
147
1.0
148
0.0
149
0.0
100
AcDbLayout
  1
Layout1
 70
     1
 71
     1
 10
0.0
 20
0.0
 11
420.0
 21
297.0
 12
0.0
 22
0.0
 32
0.0
 14
1.0000000000E+20
 24
1.0000000000E+20
 34
1.0000000000E+20
 15
-1.0000000000E+20
 25
-1.0000000000E+20
 35
-1.0000000000E+20
146
0.0
 13
0.0
 23
0.0
 33
0.0
 16
1.0
 26
0.0
 36
0.0
 17
0.0
 27
1.0
 37
0.0
 76
     0
330
1B
  0
LAYOUT
  5
26
102
{ACAD_REACTORS
330
1A
102
}
330
1A
100
AcDbPlotSettings
  1

  2
none_device
  4

  6

 40
0.0
 41
0.0
 42
0.0
 43
0.0
 44
0.0
 45
0.0
 46
0.0
 47
0.0
 48
0.0
 49
0.0
140
0.0
141
0.0
142
1.0
143
1.0
 70
   688
 72
     1
 73
     0
 74
     5
  7

 75
    16
147
1.0
148
0.0
149
0.0
100
AcDbLayout
  1
Layout2
 70
     1
 71
     2
 10
0.0
 20
0.0
 11
0.0
 21
0.0
 12
0.0
 22
0.0
 32
0.0
 14
0.0
 24
0.0
 34
0.0
 15
0.0
 25
0.0
 35
0.0
146
0.0
 13
0.0
 23
0.0
 33
0.0
 16
1.0
 26
0.0
 36
0.0
 17
0.0
 27
1.0
 37
0.0
 76
     0
330
23
  0
LAYOUT
  5
22
102
{ACAD_REACTORS
330
1A
102
}
330
1A
100
AcDbPlotSettings
  1

  2
none_device
  4
ANSI_A_(11.00_x_8.50_Inches)
  6

 40
6.35
 41
19.05
 42
6.35000508
 43
19.05000254
 44
279.4
 45
215.9
 46
-4.95300254
 47
14.7375204691
 48
0.0
 49
0.0
140
0.0
141
0.0
142
0.0789130435
143
1.0
 70
  1696
 72
     0
 73
     0
 74
     0
  7

 75
     0
147
0.0179189148
148
-1300.4909072572
149
0.0
100
AcDbLayout
  1
Model
 70
     1
 71
     0
 10
0.0
 20
0.0
 11
420.0
 21
297.0
 12
0.0
 22
0.0
 32
0.0
 14
0.0
 24
0.0
 34
0.0
 15
138.0
 25
74.0
 35
0.0
146
0.0
 13
0.0
 23
0.0
 33
0.0
 16
1.0
 26
0.0
 36
0.0
 17
0.0
 27
1.0
 37
0.0
 76
     0
330
1F
331
29
  0
MLINESTYLE
  5
18
102
{ACAD_REACTORS
330
17
102
}
330
17
100
AcDbMlineStyle
  2
Standard
 70
     0
  3

 62
   256
 51
90.0
 52
90.0
 71
     2
 49
0.5
 62
   256
  6
BYLAYER
 49
-0.5
 62
   256
  6
BYLAYER
  0
ACDBPLACEHOLDER
  5
F
102
{ACAD_REACTORS
330
E
102
}
330
E
  0
SCALE
  5
48
102
{ACAD_REACTORS
330
47
102
}
330
47
100
AcDbScale
 70
     0
300
1:1
140
1.0
141
1.0
290
     1
  0
SCALE
  5
49
102
{ACAD_REACTORS
330
47
102
}
330
47
100
AcDbScale
 70
     0
300
1:2
140
1.0
141
2.0
290
     0
  0
SCALE
  5
4A
102
{ACAD_REACTORS
330
47
102
}
330
47
100
AcDbScale
 70
     0
300
1:4
140
1.0
141
4.0
290
     0
  0
SCALE
  5
4B
102
{ACAD_REACTORS
330
47
102
}
330
47
100
AcDbScale
 70
     0
300
1:5
140
1.0
141
5.0
290
     0
  0
SCALE
  5
4C
102
{ACAD_REACTORS
330
47
102
}
330
47
100
AcDbScale
 70
     0
300
1:8
140
1.0
141
8.0
290
     0
  0
SCALE
  5
4D
102
{ACAD_REACTORS
330
47
102
}
330
47
100
AcDbScale
 70
     0
300
1:10
140
1.0
141
10.0
290
     0
  0
SCALE
  5
4E
102
{ACAD_REACTORS
330
47
102
}
330
47
100
AcDbScale
 70
     0
300
1:16
140
1.0
141
16.0
290
     0
  0
SCALE
  5
4F
102
{ACAD_REACTORS
330
47
102
}
330
47
100
AcDbScale
 70
     0
300
1:20
140
1.0
141
20.0
290
     0
  0
SCALE
  5
50
102
{ACAD_REACTORS
330
47
102
}
330
47
100
AcDbScale
 70
     0
300
1:30
140
1.0
141
30.0
290
     0
  0
SCALE
  5
51
102
{ACAD_REACTORS
330
47
102
}
330
47
100
AcDbScale
 70
     0
300
1:40
140
1.0
141
40.0
290
     0
  0
SCALE
  5
52
102
{ACAD_REACTORS
330
47
102
}
330
47
100
AcDbScale
 70
     0
300
1:50
140
1.0
141
50.0
290
     0
  0
SCALE
  5
53
102
{ACAD_REACTORS
330
47
102
}
330
47
100
AcDbScale
 70
     0
300
1:100
140
1.0
141
100.0
290
     0
  0
SCALE
  5
54
102
{ACAD_REACTORS
330
47
102
}
330
47
100
AcDbScale
 70
     0
300
2:1
140
2.0
141
1.0
290
     0
  0
SCALE
  5
55
102
{ACAD_REACTORS
330
47
102
}
330
47
100
AcDbScale
 70
     0
300
4:1
140
4.0
141
1.0
290
     0
  0
SCALE
  5
56
102
{ACAD_REACTORS
330
47
102
}
330
47
100
AcDbScale
 70
     0
300
8:1
140
8.0
141
1.0
290
     0
  0
SCALE
  5
57
102
{ACAD_REACTORS
330
47
102
}
330
47
100
AcDbScale
 70
     0
300
10:1
140
10.0
141
1.0
290
     0
  0
SCALE
  5
58
102
{ACAD_REACTORS
330
47
102
}
330
47
100
AcDbScale
 70
     0
300
100:1
140
100.0
141
1.0
290
     0
  0
SCALE
  5
59
102
{ACAD_REACTORS
330
47
102
}
330
47
100
AcDbScale
 70
     0
300
1/128" = 1'-0"
140
0.0078125
141
12.0
290
     0
  0
SCALE
  5
5A
102
{ACAD_REACTORS
330
47
102
}
330
47
100
AcDbScale
 70
     0
300
1/64" = 1'-0"
140
0.015625
141
12.0
290
     0
  0
SCALE
  5
5B
102
{ACAD_REACTORS
330
47
102
}
330
47
100
AcDbScale
 70
     0
300
1/32" = 1'-0"
140
0.03125
141
12.0
290
     0
  0
SCALE
  5
5C
102
{ACAD_REACTORS
330
47
102
}
330
47
100
AcDbScale
 70
     0
300
1/16" = 1'-0"
140
0.0625
141
12.0
290
     0
  0
SCALE
  5
5D
102
{ACAD_REACTORS
330
47
102
}
330
47
100
AcDbScale
 70
     0
300
3/32" = 1'-0"
140
0.09375
141
12.0
290
     0
  0
SCALE
  5
5E
102
{ACAD_REACTORS
330
47
102
}
330
47
100
AcDbScale
 70
     0
300
1/8" = 1'-0"
140
0.125
141
12.0
290
     0
  0
SCALE
  5
5F
102
{ACAD_REACTORS
330
47
102
}
330
47
100
AcDbScale
 70
     0
300
3/16" = 1'-0"
140
0.1875
141
12.0
290
     0
  0
SCALE
  5
60
102
{ACAD_REACTORS
330
47
102
}
330
47
100
AcDbScale
 70
     0
300
1/4" = 1'-0"
140
0.25
141
12.0
290
     0
  0
SCALE
  5
61
102
{ACAD_REACTORS
330
47
102
}
330
47
100
AcDbScale
 70
     0
300
3/8" = 1'-0"
140
0.375
141
12.0
290
     0
  0
SCALE
  5
62
102
{ACAD_REACTORS
330
47
102
}
330
47
100
AcDbScale
 70
     0
300
1/2" = 1'-0"
140
0.5
141
12.0
290
     0
  0
SCALE
  5
63
102
{ACAD_REACTORS
330
47
102
}
330
47
100
AcDbScale
 70
     0
300
3/4" = 1'-0"
140
0.75
141
12.0
290
     0
  0
SCALE
  5
64
102
{ACAD_REACTORS
330
47
102
}
330
47
100
AcDbScale
 70
     0
300
1" = 1'-0"
140
1.0
141
12.0
290
     0
  0
SCALE
  5
65
102
{ACAD_REACTORS
330
47
102
}
330
47
100
AcDbScale
 70
     0
300
1-1/2" = 1'-0"
140
1.5
141
12.0
290
     0
  0
SCALE
  5
66
102
{ACAD_REACTORS
330
47
102
}
330
47
100
AcDbScale
 70
     0
300
3" = 1'-0"
140
3.0
141
12.0
290
     0
  0
SCALE
  5
67
102
{ACAD_REACTORS
330
47
102
}
330
47
100
AcDbScale
 70
     0
300
6" = 1'-0"
140
6.0
141
12.0
290
     0
  0
SCALE
  5
68
102
{ACAD_REACTORS
330
47
102
}
330
47
100
AcDbScale
 70
     0
300
1'-0" = 1'-0"
140
12.0
141
12.0
290
     0
  0
ENDSEC
  0
EOF
