  0
SECTION
  2
HEADER
  9
$ACADVER
  1
AC1015
  9
$ACADMAINTVER
 70
     6
  9
$DWGCODEPAGE
  3
ANSI_1252
  9
$INSBASE
 10
0.0
 20
0.0
 30
0.0
  9
$EXTMIN
 10
-32.25
 20
-17.5
 30
0.0
  9
$EXTMAX
 10
32.25
 20
17.5
 30
0.0
  9
$LIMMIN
 10
0.0
 20
0.0
  9
$LIMMAX
 10
420.0
 20
297.0
  9
$ORTHOMODE
 70
     0
  9
$REGENMODE
 70
     1
  9
$FILLMODE
 70
     1
  9
$QTEXTMODE
 70
     0
  9
$MIRRTEXT
 70
     1
  9
$LTSCALE
 40
1.0
  9
$ATTMODE
 70
     1
  9
$TEXTSIZE
 40
3.5
  9
$TRACEWID
 40
1.0
  9
$TEXTSTYLE
  7
Standard
  9
$CLAYER
  8
0
  9
$CELTYPE
  6
ByLayer
  9
$CECOLOR
 62
   256
  9
$CELTSCALE
 40
1.0
  9
$DISPSILH
 70
     0
  9
$DIMSCALE
 40
1.0
  9
$DIMASZ
 40
3.302
  9
$DIMEXO
 40
1.0
  9
$DIMDLI
 40
3.75
  9
$DIMRND
 40
0.0
  9
$DIMDLE
 40
0.0
  9
$DIMEXE
 40
1.0
  9
$DIMTP
 40
0.0
  9
$DIMTM
 40
0.0
  9
$DIMTXT
 40
3.5
  9
$DIMCEN
 40
2.5
  9
$DIMTSZ
 40
0.0
  9
$DIMTOL
 70
     0
  9
$DIMLIM
 70
     0
  9
$DIMTIH
 70
     1
  9
$DIMTOH
 70
     1
  9
$DIMSE1
 70
     0
  9
$DIMSE2
 70
     0
  9
$DIMTAD
 70
     1
  9
$DIMZIN
 70
     0
  9
$DIMBLK
  1

  9
$DIMASO
 70
     1
  9
$DIMSHO
 70
     1
  9
$DIMPOST
  1

  9
$DIMAPOST
  1

  9
$DIMALT
 70
     0
  9
$DIMALTD
 70
     3
  9
$DIMALTF
 40
0.0393700787
  9
$DIMLFAC
 40
1.0
  9
$DIMTOFL
 70
     1
  9
$DIMTVP
 40
0.0
  9
$DIMTIX
 70
     0
  9
$DIMSOXD
 70
     0
  9
$DIMSAH
 70
     0
  9
$DIMBLK1
  1

  9
$DIMBLK2
  1

  9
$DIMSTYLE
  2
ISO-25
  9
$DIMCLRD
 70
     0
  9
$DIMCLRE
 70
     0
  9
$DIMCLRT
 70
     0
  9
$DIMTFAC
 40
1.0
  9
$DIMGAP
 40
1.524
  9
$DIMJUST
 70
     0
  9
$DIMSD1
 70
     0
  9
$DIMSD2
 70
     0
  9
$DIMTOLJ
 70
     0
  9
$DIMTZIN
 70
     0
  9
$DIMALTZ
 70
     0
  9
$DIMALTTZ
 70
     0
  9
$DIMUPT
 70
     0
  9
$DIMDEC
 70
     2
  9
$DIMTDEC
 70
     2
  9
$DIMALTU
 70
     2
  9
$DIMALTTD
 70
     3
  9
$DIMTXSTY
  7
Standard
  9
$DIMAUNIT
 70
     0
  9
$DIMADEC
 70
     2
  9
$DIMALTRND
 40
0.0
  9
$DIMAZIN
 70
     0
  9
$DIMDSEP
 70
    44
  9
$DIMATFIT
 70
     3
  9
$DIMFRAC
 70
     0
  9
$DIMLDRBLK
  1

  9
$DIMLUNIT
 70
     2
  9
$DIMLWD
 70
    -2
  9
$DIMLWE
 70
    -2
  9
$DIMTMOVE
 70
     0
  9
$LUNITS
 70
     2
  9
$LUPREC
 70
     2
  9
$SKETCHINC
 40
1.0
  9
$FILLETRAD
 40
10.0
  9
$AUNITS
 70
     0
  9
$AUPREC
 70
     2
  9
$MENU
  1
.
  9
$ELEVATION
 40
0.0
  9
$PELEVATION
 40
0.0
  9
$THICKNESS
 40
0.0
  9
$LIMCHECK
 70
     0
  9
$CHAMFERA
 40
0.0
  9
$CHAMFERB
 40
0.0
  9
$CHAMFERC
 40
0.0
  9
$CHAMFERD
 40
0.0
  9
$SKPOLY
 70
     0
  9
$TDCREATE
 40
2460300.608597246
  9
$TDUCREATE
 40
2460300.566930579
  9
$TDUPDATE
 40
2460300.608820972
  9
$TDUUPDATE
 40
2460300.567154306
  9
$TDINDWG
 40
0.0000000116
  9
$TDUSRTIMER
 40
0.0000000116
  9
$USRTIMER
 70
     1
  9
$ANGBASE
 50
0.0
  9
$ANGDIR
 70
     0
  9
$PDMODE
 70
     0
  9
$PDSIZE
 40
-1.0
  9
$PLINEWID
 40
0.0
  9
$SPLFRAME
 70
     0
  9
$SPLINETYPE
 70
     6
  9
$SPLINESEGS
 70
     8
  9
$HANDSEED
  5
16D
  9
$SURFTAB1
 70
     6
  9
$SURFTAB2
 70
     6
  9
$SURFTYPE
 70
     6
  9
$SURFU
 70
     6
  9
$SURFV
 70
     6
  9
$UCSBASE
  2

  9
$UCSNAME
  2

  9
$UCSORG
 10
0.0
 20
0.0
 30
0.0
  9
$UCSXDIR
 10
1.0
 20
0.0
 30
0.0
  9
$UCSYDIR
 10
0.0
 20
1.0
 30
0.0
  9
$UCSORTHOREF
  2

  9
$UCSORTHOVIEW
 70
     0
  9
$UCSORGTOP
 10
0.0
 20
0.0
 30
0.0
  9
$UCSORGBOTTOM
 10
0.0
 20
0.0
 30
0.0
  9
$UCSORGLEFT
 10
0.0
 20
0.0
 30
0.0
  9
$UCSORGRIGHT
 10
0.0
 20
0.0
 30
0.0
  9
$UCSORGFRONT
 10
0.0
 20
0.0
 30
0.0
  9
$UCSORGBACK
 10
0.0
 20
0.0
 30
0.0
  9
$PUCSBASE
  2

  9
$PUCSNAME
  2

  9
$PUCSORG
 10
0.0
 20
0.0
 30
0.0
  9
$PUCSXDIR
 10
1.0
 20
0.0
 30
0.0
  9
$PUCSYDIR
 10
0.0
 20
1.0
 30
0.0
  9
$PUCSORTHOREF
  2

  9
$PUCSORTHOVIEW
 70
     0
  9
$PUCSORGTOP
 10
0.0
 20
0.0
 30
0.0
  9
$PUCSORGBOTTOM
 10
0.0
 20
0.0
 30
0.0
  9
$PUCSORGLEFT
 10
0.0
 20
0.0
 30
0.0
  9
$PUCSORGRIGHT
 10
0.0
 20
0.0
 30
0.0
  9
$PUCSORGFRONT
 10
0.0
 20
0.0
 30
0.0
  9
$PUCSORGBACK
 10
0.0
 20
0.0
 30
0.0
  9
$USERI1
 70
     0
  9
$USERI2
 70
     0
  9
$USERI3
 70
     0
  9
$USERI4
 70
     0
  9
$USERI5
 70
     0
  9
$USERR1
 40
0.0
  9
$USERR2
 40
0.0
  9
$USERR3
 40
0.0
  9
$USERR4
 40
0.0
  9
$USERR5
 40
0.0
  9
$WORLDVIEW
 70
     1
  9
$SHADEDGE
 70
     3
  9
$SHADEDIF
 70
    70
  9
$TILEMODE
 70
     1
  9
$MAXACTVP
 70
    64
  9
$PINSBASE
 10
0.0
 20
0.0
 30
0.0
  9
$PLIMCHECK
 70
     0
  9
$PEXTMIN
 10
1.0000000000E+20
 20
1.0000000000E+20
 30
1.0000000000E+20
  9
$PEXTMAX
 10
-1.0000000000E+20
 20
-1.0000000000E+20
 30
-1.0000000000E+20
  9
$PLIMMIN
 10
0.0
 20
0.0
  9
$PLIMMAX
 10
420.0
 20
297.0
  9
$UNITMODE
 70
     0
  9
$VISRETAIN
 70
     1
  9
$PLINEGEN
 70
     0
  9
$PSLTSCALE
 70
     1
  9
$TREEDEPTH
 70
  3020
  9
$CMLSTYLE
  2
Standard
  9
$CMLJUST
 70
     0
  9
$CMLSCALE
 40
20.0
  9
$PROXYGRAPHICS
 70
     1
  9
$MEASUREMENT
 70
     1
  9
$CELWEIGHT
370
    -1
  9
$ENDCAPS
280
     0
  9
$JOINSTYLE
280
     0
  9
$LWDISPLAY
290
     1
  9
$INSUNITS
 70
     4
  9
$HYPERLINKBASE
  1

  9
$STYLESHEET
  1

  9
$XEDIT
290
     1
  9
$CEPSNTYPE
380
     0
  9
$PSTYLEMODE
290
     1
  9
$FINGERPRINTGUID
  2
{C16FDD2F-1CCB-4F17-B4C5-75BDCF2AB7FC}
  9
$VERSIONGUID
  2
{FAEB1C32-E019-11D5-929B-00C0DF256EC4}
  9
$EXTNAMES
290
     1
  9
$PSVPSCALE
 40
0.0
  9
$OLESTARTUP
290
     0
  0
ENDSEC
  0
SECTION
  2
CLASSES
  0
CLASS
  1
ACDBDICTIONARYWDFLT
  2
AcDbDictionaryWithDefault
  3
ObjectDBX Classes
 90
        0
280
     0
281
     0
  0
CLASS
  1
VISUALSTYLE
  2
AcDbVisualStyle
  3
ObjectDBX Classes
 90
     4095
280
     0
281
     0
  0
CLASS
  1
MATERIAL
  2
AcDbMaterial
  3
ObjectDBX Classes
 90
     1153
280
     0
281
     0
  0
CLASS
  1
SCALE
  2
AcDbScale
  3
ObjectDBX Classes
 90
     1153
280
     0
281
     0
  0
CLASS
  1
TABLESTYLE
  2
AcDbTableStyle
  3
ObjectDBX Classes
 90
     4095
280
     0
281
     0
  0
CLASS
  1
MLEADERSTYLE
  2
AcDbMLeaderStyle
  3
ACDB_MLEADERSTYLE_CLASS
 90
     4095
280
     0
281
     0
  0
CLASS
  1
SUN
  2
AcDbSun
  3
SCENEOE
 90
     1153
280
     0
281
     0
  0
CLASS
  1
ACDBPLACEHOLDER
  2
AcDbPlaceHolder
  3
ObjectDBX Classes
 90
        0
280
     0
281
     0
  0
CLASS
  1
LAYOUT
  2
AcDbLayout
  3
ObjectDBX Classes
 90
        0
280
     0
281
     0
  0
ENDSEC
  0
SECTION
  2
TABLES
  0
TABLE
  2
VPORT
  5
8
330
0
100
AcDbSymbolTable
 70
     1
  0
VPORT
  5
29
330
8
100
AcDbSymbolTableRecord
100
AcDbViewportTableRecord
  2
*Active
 70
     0
 10
0.0
 20
0.0
 11
1.0
 21
1.0
 12
0.0
 22
0.0
 13
0.0
 23
0.0
 14
10.0
 24
10.0
 15
10.0
 25
10.0
 16
0.0
 26
0.0
 36
1.0
 17
0.0
 27
0.0
 37
0.0
 40
35.7
 41
1.8428571429
 42
50.0
 43
0.0
 44
0.0
 50
0.0
 51
0.0
 71
     0
 72
   100
 73
     1
 74
     3
 75
     0
 76
     0
 77
     0
 78
     0
281
     0
 65
     1
110
0.0
120
0.0
130
0.0
111
1.0
121
0.0
131
0.0
112
0.0
122
1.0
132
0.0
 79
     0
146
0.0
  0
ENDTAB
  0
TABLE
  2
LTYPE
  5
5
330
0
100
AcDbSymbolTable
 70
     6
  0
LTYPE
  5
14
330
5
100
AcDbSymbolTableRecord
100
AcDbLinetypeTableRecord
  2
ByBlock
 70
     0
  3

 72
    65
 73
     0
 40
0.0
  0
LTYPE
  5
15
330
5
100
AcDbSymbolTableRecord
100
AcDbLinetypeTableRecord
  2
ByLayer
 70
     0
  3

 72
    65
 73
     0
 40
0.0
  0
LTYPE
  5
16
330
5
100
AcDbSymbolTableRecord
100
AcDbLinetypeTableRecord
  2
Continuous
 70
     0
  3
Solid line
 72
    65
 73
     0
 40
0.0
  0
LTYPE
  5
6E
330
5
100
AcDbSymbolTableRecord
100
AcDbLinetypeTableRecord
  2
HIDDEN
 70
     0
  3
Hidden __ __ __ __ __ __ __ __ __ __ __ __ __ __
 72
    65
 73
     2
 40
1.905
 49
1.27
 74
     0
 49
-0.635
 74
     0
  0
LTYPE
  5
6F
330
5
100
AcDbSymbolTableRecord
100
AcDbLinetypeTableRecord
  2
PHANTOM
 70
     0
  3
Phantom ______  __  __  ______  __  __  ______
 72
    65
 73
     6
 40
12.7
 49
6.35
 74
     0
 49
-1.27
 74
     0
 49
1.27
 74
     0
 49
-1.27
 74
     0
 49
1.27
 74
     0
 49
-1.27
 74
     0
  0
LTYPE
  5
70
330
5
100
AcDbSymbolTableRecord
100
AcDbLinetypeTableRecord
  2
CENTER
 70
     0
  3
Center ____ _ ____ _ ____ _ ____ _ ____ _ ____
 72
    65
 73
     4
 40
10.16
 49
6.35
 74
     0
 49
-1.27
 74
     0
 49
1.27
 74
     0
 49
-1.27
 74
     0
  0
LTYPE
  5
71
330
5
100
AcDbSymbolTableRecord
100
AcDbLinetypeTableRecord
  2
CENTERX2
 70
     0
  3
Center (2x) ________  __  ________  __  _____
 72
    65
 73
     4
 40
20.32
 49
12.7
 74
     0
 49
-2.54
 74
     0
 49
2.54
 74
     0
 49
-2.54
 74
     0
  0
LTYPE
  5
72
330
5
100
AcDbSymbolTableRecord
100
AcDbLinetypeTableRecord
  2
DOT2
 70
     0
  3
Dot (.5x) ........................................
 72
    65
 73
     2
 40
0.635
 49
0.0
 74
     0
 49
-0.635
 74
     0
  0
ENDTAB
  0
TABLE
  2
LAYER
  5
2
330
0
100
AcDbSymbolTable
 70
     1
  0
LAYER
  5
10
330
2
100
AcDbSymbolTableRecord
100
AcDbLayerTableRecord
  2
0
 70
     0
 62
     7
  6
Continuous
370
    -3
390
F
  0
ENDTAB
  0
TABLE
  2
STYLE
  5
3
330
0
100
AcDbSymbolTable
 70
     2
  0
STYLE
  5
11
330
3
100
AcDbSymbolTableRecord
100
AcDbTextStyleTableRecord
  2
Standard
 70
     0
 40
0.0
 41
1.0
 50
0.0
 71
     0
 42
3.5
  3
txt
  4

  0
STYLE
  5
16A
330
3
100
AcDbSymbolTableRecord
100
AcDbTextStyleTableRecord
  2
SLDTEXTSTYLE0
 70
     0
 40
0.0
 41
0.7
 50
0.0
 71
     0
 42
3.5
  3
TXT
  4

  0
ENDTAB
  0
TABLE
  2
VIEW
  5
6
330
0
100
AcDbSymbolTable
 70
     0
  0
ENDTAB
  0
TABLE
  2
UCS
  5
7
330
0
100
AcDbSymbolTable
 70
     0
  0
ENDTAB
  0
TABLE
  2
APPID
  5
9
330
0
100
AcDbSymbolTable
 70
     1
  0
APPID
  5
12
330
9
100
AcDbSymbolTableRecord
100
AcDbRegAppTableRecord
  2
ACAD
 70
     0
  0
ENDTAB
  0
TABLE
  2
DIMSTYLE
  5
A
330
0
100
AcDbSymbolTable
 70
     1
100
AcDbDimStyleTable
  0
DIMSTYLE
105
27
330
A
100
AcDbSymbolTableRecord
100
AcDbDimStyleTableRecord
  2
ISO-25
 70
     0
 41
2.5
 42
0.625
 43
3.75
 44
1.25
 73
     0
 74
     0
 77
     1
 78
     8
140
2.5
141
2.5
143
0.0393700787
147
0.625
171
     3
172
     1
178
     0
271
     2
272
     2
274
     3
278
    44
283
     0
284
     8
340
11
  0
ENDTAB
  0
TABLE
  2
BLOCK_RECORD
  5
1
330
0
100
AcDbSymbolTable
 70
     1
  0
BLOCK_RECORD
  5
1F
330
1
100
AcDbSymbolTableRecord
100
AcDbBlockTableRecord
  2
*Model_Space
340
22
  0
BLOCK_RECORD
  5
1B
330
1
100
AcDbSymbolTableRecord
100
AcDbBlockTableRecord
  2
*Paper_Space
340
1E
  0
BLOCK_RECORD
  5
23
330
1
100
AcDbSymbolTableRecord
100
AcDbBlockTableRecord
  2
*Paper_Space0
340
26
  0
ENDTAB
  0
ENDSEC
  0
SECTION
  2
BLOCKS
  0
BLOCK
  5
20
330
1F
100
AcDbEntity
  8
0
100
AcDbBlockBegin
  2
*Model_Space
 70
     0
 10
0.0
 20
0.0
 30
0.0
  3
*Model_Space
  1

  0
ENDBLK
  5
21
330
1F
100
AcDbEntity
  8
0
100
AcDbBlockEnd
  0
BLOCK
  5
1C
330
1B
100
AcDbEntity
 67
     1
  8
0
100
AcDbBlockBegin
  2
*Paper_Space
 70
     0
 10
0.0
 20
0.0
 30
0.0
  3
*Paper_Space
  1

  0
ENDBLK
  5
1D
330
1B
100
AcDbEntity
 67
     1
  8
0
100
AcDbBlockEnd
  0
BLOCK
  5
24
330
23
100
AcDbEntity
  8
0
100
AcDbBlockBegin
  2
*Paper_Space0
 70
     0
 10
0.0
 20
0.0
 30
0.0
  3
*Paper_Space0
  1

  0
ENDBLK
  5
25
330
23
100
AcDbEntity
  8
0
100
AcDbBlockEnd
  0
ENDSEC
  0
SECTION
  2
ENTITIES
  0
LINE
  5
73
330
1F
100
AcDbEntity
  8
0
  6
Continuous
 62
     7
370
    25
100
AcDbLine
 10
-8.5114475842
 20
-8.2308931542
 30
0.0
 11
-8.5114475842
 21
-4.7308931542
 31
0.0
  0
LINE
  5
74
330
1F
100
AcDbEntity
  8
0
  6
Continuous
 62
     7
370
    25
100
AcDbLine
 10
-8.5114475842
 20
-4.7308931542
 30
0.0
 11
-6.6268321996
 21
-4.7308931542
 31
0.0
  0
LINE
  5
75
330
1F
100
AcDbEntity
  8
0
  6
Continuous
 62
     7
370
    25
100
AcDbLine
 10
-6.6268321996
 20
-4.7308931542
 30
0.0
 11
-6.6268321996
 21
-5.3590982824
 31
0.0
  0
LINE
  5
76
330
1F
100
AcDbEntity
  8
0
  6
Continuous
 62
     7
370
    25
100
AcDbLine
 10
-6.6268321996
 20
-5.3590982824
 30
0.0
 11
-7.883242456
 21
-5.3590982824
 31
0.0
  0
LINE
  5
77
330
1F
100
AcDbEntity
  8
0
  6
Continuous
 62
     7
370
    25
100
AcDbLine
 10
-7.883242456
 20
-5.3590982824
 30
0.0
 11
-7.883242456
 21
-6.0321752055
 31
0.0
  0
LINE
  5
78
330
1F
100
AcDbEntity
  8
0
  6
Continuous
 62
     7
370
    25
100
AcDbLine
 10
-7.883242456
 20
-6.0321752055
 30
0.0
 11
-6.6268321996
 21
-6.0321752055
 31
0.0
  0
LINE
  5
79
330
1F
100
AcDbEntity
  8
0
  6
Continuous
 62
     7
370
    25
100
AcDbLine
 10
-6.6268321996
 20
-6.0321752055
 30
0.0
 11
-6.6268321996
 21
-6.6603803337
 31
0.0
  0
LINE
  5
7A
330
1F
100
AcDbEntity
  8
0
  6
Continuous
 62
     7
370
    25
100
AcDbLine
 10
-6.6268321996
 20
-6.6603803337
 30
0.0
 11
-7.883242456
 21
-6.6603803337
 31
0.0
  0
LINE
  5
7B
330
1F
100
AcDbEntity
  8
0
  6
Continuous
 62
     7
370
    25
100
AcDbLine
 10
-7.883242456
 20
-6.6603803337
 30
0.0
 11
-7.883242456
 21
-7.602688026
 31
0.0
  0
LINE
  5
7C
330
1F
100
AcDbEntity
  8
0
  6
Continuous
 62
     7
370
    25
100
AcDbLine
 10
-7.883242456
 20
-7.602688026
 30
0.0
 11
-6.6268321996
 21
-7.602688026
 31
0.0
  0
LINE
  5
7D
330
1F
100
AcDbEntity
  8
0
  6
Continuous
 62
     7
370
    25
100
AcDbLine
 10
-6.6268321996
 20
-7.602688026
 30
0.0
 11
-6.6268321996
 21
-8.2308931542
 31
0.0
  0
LINE
  5
7E
330
1F
100
AcDbEntity
  8
0
  6
Continuous
 62
     7
370
    25
100
AcDbLine
 10
-6.6268321996
 20
-8.2308931542
 30
0.0
 11
-8.5114475842
 21
-8.2308931542
 31
0.0
  0
LINE
  5
7F
330
1F
100
AcDbEntity
  8
0
  6
Continuous
 62
     7
370
    25
100
AcDbLine
 10
-3.2973450201
 20
-8.2308931542
 30
0.0
 11
-3.2973450201
 21
-5.6732008465
 31
0.0
  0
LINE
  5
80
330
1F
100
AcDbEntity
  8
0
  6
Continuous
 62
     7
370
    25
100
AcDbLine
 10
-3.2973450201
 20
-5.6732008465
 30
0.0
 11
-2.7588834817
 21
-5.6732008465
 31
0.0
  0
LINE
  5
81
330
1F
100
AcDbEntity
  8
0
  6
Continuous
 62
     7
370
    25
100
AcDbLine
 10
-2.7588834817
 20
-5.6732008465
 30
0.0
 11
-2.7588834817
 21
-5.9880045324
 31
0.0
  0
SPLINE
  5
82
330
1F
100
AcDbEntity
  8
0
  6
Continuous
 62
     7
370
    25
100
AcDbSpline
210
0.0
220
0.0
230
1.0
 70
     8
 71
     3
 72
    15
 73
    11
 74
     0
 42
0.000000001
 43
0.00000001
 40
0.0
 40
0.0
 40
0.0
 40
0.0
 40
0.1373326587675199
 40
0.2684223790574863
 40
0.3932053799591907
 40
0.5164303771821771
 40
0.6377928828172987
 40
0.7580612519913803
 40
0.8777193330221537
 40
1.0
 40
1.0
 40
1.0
 40
1.0
 10
-2.758883481670797
 20
-5.988004532420476
 30
0.0
 10
-2.74365143845161
 20
-5.960027842245997
 30
0.0
 10
-2.713879778050552
 20
-5.905346240635848
 30
0.0
 10
-2.659186741008625
 20
-5.831947019231277
 30
0.0
 10
-2.596353164851037
 20
-5.770132242843298
 30
0.0
 10
-2.527636854265781
 20
-5.718608999123004
 30
0.0
 10
-2.452829543583121
 20
-5.678451689771101
 30
0.0
 10
-2.37393443928657
 20
-5.649834544349519
 30
0.0
 10
-2.29162648764733
 20
-5.631237365224895
 30
0.0
 10
-2.235478793295465
 20
-5.629305470010435
 30
0.0
 10
-2.207100629106694
 20
-5.628329051651244
 30
0.0
  0
SPLINE
  5
83
330
1F
100
AcDbEntity
  8
0
  6
Continuous
 62
     7
370
    25
100
AcDbSpline
210
0.0
220
0.0
230
1.0
 70
     8
 71
     3
 72
    11
 73
     7
 74
     0
 42
0.000000001
 43
0.00000001
 40
0.0
 40
0.0
 40
0.0
 40
0.0
 40
0.2328510341006755
 40
0.4741678510281799
 40
0.7313385461287051
 40
1.0
 40
1.0
 40
1.0
 40
1.0
 10
-2.207100629106694
 20
-5.628329051651244
 30
0.0
 10
-2.18649454088188
 20
-5.629293956999688
 30
0.0
 10
-2.144533187309222
 20
-5.631258848834007
 30
0.0
 10
-2.080578179608375
 20
-5.642680794888733
 30
0.0
 10
-2.015700413552183
 20
-5.663333845315903
 30
0.0
 10
-1.973005252820635
 20
-5.681929172299134
 30
0.0
 10
-1.951191173978489
 20
-5.691430013189706
 30
0.0
  0
LINE
  5
84
330
1F
100
AcDbEntity
  8
0
  6
Continuous
 62
     7
370
    25
100
AcDbLine
 10
-1.951191174
 20
-5.6914300132
 30
0.0
 11
-2.146103033
 21
-6.2235814555
 31
0.0
  0
SPLINE
  5
85
330
1F
100
AcDbEntity
  8
0
  6
Continuous
 62
     7
370
    25
100
AcDbSpline
210
0.0
220
0.0
230
1.0
 70
     8
 71
     3
 72
    11
 73
     7
 74
     0
 42
0.000000001
 43
0.00000001
 40
0.0
 40
0.0
 40
0.0
 40
0.0
 40
0.3035967495723974
 40
0.5706450181692378
 40
0.8010704299308579
 40
1.0
 40
1.0
 40
1.0
 40
1.0
 10
-2.146103032952849
 20
-6.223581455497398
 30
0.0
 10
-2.163525369819858
 20
-6.215163824697213
 30
0.0
 10
-2.196272656317583
 20
-6.199341919200271
 30
0.0
 10
-2.243816030256726
 20
-6.180670440682117
 30
0.0
 10
-2.28696361339832
 20
-6.169278017057752
 30
0.0
 10
-2.314318389110633
 20
-6.167578167606521
 30
0.0
 10
-2.326992456029771
 20
-6.166790590112782
 30
0.0
  0
SPLINE
  5
86
330
1F
100
AcDbEntity
  8
0
  6
Continuous
 62
     7
370
    25
100
AcDbSpline
210
0.0
220
0.0
230
1.0
 70
     8
 71
     3
 72
    23
 73
    19
 74
     0
 42
0.000000001
 43
0.00000001
 40
0.0
 40
0.0
 40
0.0
 40
0.0
 40
0.0340145111526583
 40
0.0669124038090346
 40
0.1011407022045765
 40
0.1363808922681597
 40
0.1735979957406278
 40
0.2140756260844563
 40
0.2579797804939633
 40
0.3054172226450341
 40
0.3586847121323523
 40
0.4209239114337732
 40
0.4926910011447123
 40
0.5741308488820774
 40
0.6651821528112546
 40
0.7665126640514617
 40
0.8783143413429206
 40
1.0
 40
1.0
 40
1.0
 40
1.0
 10
-2.326992456029771
 20
-6.166790590112782
 30
0.0
 10
-2.338959239943847
 20
-6.16731248055726
 30
0.0
 10
-2.362499965664128
 20
-6.168339128978229
 30
0.0
 10
-2.397245418217459
 20
-6.177137157432804
 30
0.0
 10
-2.429968399144304
 20
-6.192309084947563
 30
0.0
 10
-2.46224582717438
 20
-6.211745829694514
 30
0.0
 10
-2.49153137110366
 20
-6.238764358613662
 30
0.0
 10
-2.52079882598092
 20
-6.27004310314836
 30
0.0
 10
-2.546590874388561
 20
-6.308660873643826
 30
0.0
 10
-2.573808965346294
 20
-6.351644413474283
 30
0.0
 10
-2.596984196610043
 20
-6.404256227498216
 30
0.0
 10
-2.616856243922045
 20
-6.467063891407976
 30
0.0
 10
-2.634562397438253
 20
-6.540794133034024
 30
0.0
 10
-2.646746648539169
 20
-6.625838423978464
 30
0.0
 10
-2.658523216410523
 20
-6.721373813819405
 30
0.0
 10
-2.665532918807112
 20
-6.828101520494138
 30
0.0
 10
-2.670757338659736
 20
-6.94568406070962
 30
0.0
 10
-2.671076776942733
 20
-7.027760917404306
 30
0.0
 10
-2.671243257311823
 20
-7.070536583702527
 30
0.0
  0
LINE
  5
87
330
1F
100
AcDbEntity
  8
0
  6
Continuous
 62
     7
370
    25
100
AcDbLine
 10
-2.6712432573
 20
-7.0705365837
 30
0.0
 11
-2.6691398919
 21
-7.1953362632
 31
0.0
  0
LINE
  5
88
330
1F
100
AcDbEntity
  8
0
  6
Continuous
 62
     7
370
    25
100
AcDbLine
 10
-2.6691398919
 20
-7.1953362632
 30
0.0
 11
-2.6691398919
 21
-8.2308931542
 31
0.0
  0
LINE
  5
89
330
1F
100
AcDbEntity
  8
0
  6
Continuous
 62
     7
370
    25
100
AcDbLine
 10
-2.6691398919
 20
-8.2308931542
 30
0.0
 11
-3.2973450201
 21
-8.2308931542
 31
0.0
  0
SPLINE
  5
8A
330
1F
100
AcDbEntity
  8
0
  6
Continuous
 62
     7
370
    25
100
AcDbSpline
210
0.0
220
0.0
230
1.0
 70
     8
 71
     3
 72
    15
 73
    11
 74
     0
 42
0.000000001
 43
0.00000001
 40
0.0
 40
0.0
 40
0.0
 40
0.0
 40
0.1235225888124365
 40
0.2451066492784782
 40
0.3672656097279723
 40
0.4946905456421133
 40
0.6223238729478107
 40
0.7460028360253876
 40
0.8722531479452954
 40
1.0
 40
1.0
 40
1.0
 40
1.0
 10
-4.980190894198915
 20
15.03846153846153
 30
0.0
 10
-4.999700926402895
 20
15.03750121510266
 30
0.0
 10
-5.038414805919246
 20
15.03559563942632
 30
0.0
 10
-5.095026085297295
 20
15.02137292743085
 30
0.0
 10
-5.148787939764224
 20
14.99743076181272
 30
0.0
 10
-5.198587113163661
 20
14.96441592638085
 30
0.0
 10
-5.24370474428293
 20
14.92476650858644
 30
0.0
 10
-5.280733302286888
 20
14.8778100031338
 30
0.0
 10
-5.31153190122366
 20
14.82635965568735
 30
0.0
 10
-5.32458661624567
 20
14.78834838496219
 30
0.0
 10
-5.331152432660453
 20
14.76923076923077
 30
0.0
  0
LINE
  5
8B
330
1F
100
AcDbEntity
  8
0
  6
Continuous
 62
     7
370
    25
100
AcDbLine
 10
-5.3311524327
 20
14.7692307692
 30
0.0
 11
-5.8696139711
 21
14.7692307692
 31
0.0
  0
SPLINE
  5
8C
330
1F
100
AcDbEntity
  8
0
  6
Continuous
 62
     7
370
    25
100
AcDbSpline
210
0.0
220
0.0
230
1.0
 70
     8
 71
     3
 72
    15
 73
    11
 74
     0
 42
0.000000001
 43
0.00000001
 40
0.0
 40
0.0
 40
0.0
 40
0.0
 40
0.1389342360692863
 40
0.2723713666678108
 40
0.4007019795223949
 40
0.5249153332245796
 40
0.6467750113322119
 40
0.765706492503158
 40
0.8831152256608782
 40
1.0
 40
1.0
 40
1.0
 40
1.0
 10
-5.869613971121992
 20
14.76923076923077
 30
0.0
 10
-5.86581222788127
 20
14.79614654060093
 30
0.0
 10
-5.858359162089199
 20
14.84891312744389
 30
0.0
 10
-5.840524972387512
 20
14.92530600031313
 30
0.0
 10
-5.819193357010075
 20
14.99776986838539
 30
0.0
 10
-5.792561925043763
 20
15.06607525337512
 30
0.0
 10
-5.761327587966919
 20
15.13034382975505
 30
0.0
 10
-5.725807964020068
 20
15.19079613598657
 30
0.0
 10
-5.685619072753251
 20
15.247172699356
 30
0.0
 10
-5.654813861919426
 20
15.28113416491027
 30
0.0
 10
-5.639445701891222
 20
15.29807692307692
 30
0.0
  0
SPLINE
  5
8D
330
1F
100
AcDbEntity
  8
0
  6
Continuous
 62
     7
370
    25
100
AcDbSpline
210
0.0
220
0.0
230
1.0
 70
     8
 71
     3
 72
    15
 73
    11
 74
     0
 42
0.000000001
 43
0.00000001
 40
0.0
 40
0.0
 40
0.0
 40
0.0
 40
0.127406863810768
 40
0.2511055387650944
 40
0.3729077916389051
 40
0.4944963015983254
 40
0.6161714362084778
 40
0.7405628981726784
 40
0.8676048506052707
 40
1.0
 40
1.0
 40
1.0
 40
1.0
 10
-5.639445701891222
 20
15.29807692307692
 30
0.0
 10
-5.617279167436551
 20
15.32043166480836
 30
0.0
 10
-5.573591257615128
 20
15.36449051139268
 30
0.0
 10
-5.500583636299422
 20
15.42092502713738
 30
0.0
 10
-5.424058166458527
 20
15.46976526265588
 30
0.0
 10
-5.342480096055002
 20
15.50848615449636
 30
0.0
 10
-5.257118841501368
 20
15.53982623077296
 30
0.0
 10
-5.167295580385278
 20
15.56087743082323
 30
0.0
 10
-5.073377363131845
 20
15.57484508790634
 30
0.0
 10
-5.009289994952599
 20
15.57622095078248
 30
0.0
 10
-4.976585124968145
 20
15.57692307692307
 30
0.0
  0
SPLINE
  5
8E
330
1F
100
AcDbEntity
  8
0
  6
Continuous
 62
     7
370
    25
100
AcDbSpline
210
0.0
220
0.0
230
1.0
 70
     8
 71
     3
 72
    23
 73
    19
 74
     0
 42
0.000000001
 43
0.00000001
 40
0.0
 40
0.0
 40
0.0
 40
0.0
 40
0.0682139106966423
 40
0.1340948027129804
 40
0.1982856151357153
 40
0.2611601861891403
 40
0.3236346542898926
 40
0.386366750156218
 40
0.4496423858959019
 40
0.5142449020307924
 40
0.578413338420522
 40
0.6403746860373712
 40
0.7006148497351875
 40
0.7601039771708683
 40
0.8192989800104274
 40
0.8784659836354116
 40
0.9383604016893762
 40
1.0
 40
1.0
 40
1.0
 40
1.0
 10
-4.976585124968145
 20
15.57692307692307
 30
0.0
 10
-4.947508812755076
 20
15.57623664216704
 30
0.0
 10
-4.890350642082645
 20
15.57488724975944
 30
0.0
 10
-4.806342513209886
 20
15.56405505978053
 30
0.0
 10
-4.726247792703335
 20
15.54505660478416
 30
0.0
 10
-4.649219855943112
 20
15.52021655122244
 30
0.0
 10
-4.576391532960178
 20
15.48641750689237
 30
0.0
 10
-4.506155432010574
 20
15.44718401030577
 30
0.0
 10
-4.44047395218302
 20
15.39906249635292
 30
0.0
 10
-4.379193411352801
 20
15.34469002836299
 30
0.0
 10
-4.322895546955923
 20
15.28588088153432
 30
0.0
 10
-4.274141349686892
 20
15.22301873996623
 30
0.0
 10
-4.232226491461848
 20
15.15778279632449
 30
0.0
 10
-4.197694192319735
 20
15.08963106339876
 30
0.0
 10
-4.171143546984027
 20
15.01844822017157
 30
0.0
 10
-4.152716611681909
 20
14.94464548028962
 30
0.0
 10
-4.140655735128838
 20
14.86838569512149
 30
0.0
 10
-4.139454156674746
 20
14.81655294632783
 30
0.0
 10
-4.138844740352761
 20
14.79026442307692
 30
0.0
  0
SPLINE
  5
8F
330
1F
100
AcDbEntity
  8
0
  6
Continuous
 62
     7
370
    25
100
AcDbSpline
210
0.0
220
0.0
230
1.0
 70
     8
 71
     3
 72
    15
 73
    11
 74
     0
 42
0.000000001
 43
0.00000001
 40
0.0
 40
0.0
 40
0.0
 40
0.0
 40
0.1241007034540081
 40
0.2443161303745104
 40
0.3644659408319805
 40
0.4858539930671585
 40
0.6089147941772737
 40
0.734300918758954
 40
0.863942816945833
 40
1.0
 40
1.0
 40
1.0
 40
1.0
 10
-4.138844740352762
 20
14.79026442307692
 30
0.0
 10
-4.140095299059118
 20
14.75770827606811
 30
0.0
 10
-4.142557264668011
 20
14.69361523198602
 30
0.0
 10
-4.162759474995235
 20
14.59981029997261
 30
0.0
 10
-4.19438142767682
 20
14.51011604480313
 30
0.0
 10
-4.24006241403089
 20
14.42578742406178
 30
0.0
 10
-4.29717528174803
 20
14.34705393279246
 30
0.0
 10
-4.367250857626968
 20
14.27654786801739
 30
0.0
 10
-4.448293207370759
 20
14.2131637902269
 30
0.0
 10
-4.509132778820574
 20
14.1791011790575
 30
0.0
 10
-4.540287048045069
 20
14.16165865384615
 30
0.0
  0
SPLINE
  5
90
330
1F
100
AcDbEntity
  8
0
  6
Continuous
 62
     7
370
    25
100
AcDbSpline
210
0.0
220
0.0
230
1.0
 70
     8
 71
     3
 72
    23
 73
    19
 74
     0
 42
0.000000001
 43
0.00000001
 40
0.0
 40
0.0
 40
0.0
 40
0.0
 40
0.0662214729650471
 40
0.1301222241928455
 40
0.1929218896442586
 40
0.2547641743082549
 40
0.3157567810544735
 40
0.3763028430934021
 40
0.4368144190490083
 40
0.4981681590965035
 40
0.5595162284808269
 40
0.6202430211536019
 40
0.6809698138263758
 40
0.7423490653749117
 40
0.8045838965925334
 40
0.8681023975450429
 40
0.9333073801795222
 40
1.0
 40
1.0
 40
1.0
 40
1.0
 10
-4.540287048045069
 20
14.16165865384615
 30
0.0
 10
-4.518903235563926
 20
14.15463789797107
 30
0.0
 10
-4.476885003151041
 20
14.14084242757337
 30
0.0
 10
-4.417161138023362
 20
14.11367240470816
 30
0.0
 10
-4.360370566769349
 20
14.08398007331947
 30
0.0
 10
-4.30749120257473
 20
14.04948541135508
 30
0.0
 10
-4.257997096339992
 20
14.01158323009035
 30
0.0
 10
-4.212189970001851
 20
13.96994952801955
 30
0.0
 10
-4.169796136591649
 20
13.92467508598328
 30
0.0
 10
-4.131507658174457
 20
13.87551091173597
 30
0.0
 10
-4.097525137591668
 20
13.82324329051884
 30
0.0
 10
-4.067034431363061
 20
13.76907957342515
 30
0.0
 10
-4.041938880520675
 20
13.71219835801224
 30
0.0
 10
-4.020679824676753
 20
13.65324926604801
 30
0.0
 10
-4.004494389903944
 20
13.59170249405622
 30
0.0
 10
-3.993098397518877
 20
13.52779653079782
 30
0.0
 10
-3.986511234215177
 20
13.46167714996231
 30
0.0
 10
-3.985506579485285
 20
13.41688130950841
 30
0.0
 10
-3.984998586506607
 20
13.39423076923077
 30
0.0
  0
SPLINE
  5
91
330
1F
100
AcDbEntity
  8
0
  6
Continuous
 62
     7
370
    25
100
AcDbSpline
210
0.0
220
0.0
230
1.0
 70
     8
 71
     3
 72
    23
 73
    19
 74
     0
 42
0.000000001
 43
0.00000001
 40
0.0
 40
0.0
 40
0.0
 40
0.0
 40
0.0628211608050995
 40
0.1238705348889596
 40
0.1835541689801067
 40
0.2422662914882128
 40
0.301264887350202
 40
0.3608466874955846
 40
0.4219486999397621
 40
0.4847891908580589
 40
0.5480139130193507
 40
0.6104128761522061
 40
0.6725364471512212
 40
0.7348288403150816
 40
0.7979472548457988
 40
0.8629734910039596
 40
0.9300195846043564
 40
1.0
 40
1.0
 40
1.0
 40
1.0
 10
-3.984998586506607
 20
13.39423076923077
 30
0.0
 10
-3.986028356547731
 20
13.36094367142766
 30
0.0
 10
-3.988058853344857
 20
13.29530829384263
 30
0.0
 10
-4.000967801690495
 20
13.19863409961513
 30
0.0
 10
-4.025001937538921
 20
13.10646384446949
 30
0.0
 10
-4.056620174597283
 20
13.01773697059472
 30
0.0
 10
-4.098795471243437
 20
12.93359890954556
 30
0.0
 10
-4.148428704965481
 20
12.85211880768461
 30
0.0
 10
-4.209437921681473
 20
12.77612237247745
 30
0.0
 10
-4.277239190320311
 20
12.70360045507922
 30
0.0
 10
-4.352536451889858
 20
12.63766677509769
 30
0.0
 10
-4.434170933124945
 20
12.58050524150962
 30
0.0
 10
-4.520347561673446
 20
12.53145047538484
 30
0.0
 10
-4.6116115527201
 20
12.49162641865306
 30
0.0
 10
-4.707931199066254
 20
12.46095734022901
 30
0.0
 10
-4.809091812648001
 20
12.43878831665956
 30
0.0
 10
-4.91551844267344
 20
12.42522494125856
 30
0.0
 10
-4.988162944441499
 20
12.42380307851868
 30
0.0
 10
-5.02526300958353
 20
12.42307692307692
 30
0.0
  0
SPLINE
  5
92
330
1F
100
AcDbEntity
  8
0
  6
Continuous
 62
     7
370
    25
100
AcDbSpline
210
0.0
220
0.0
230
1.0
 70
     8
 71
     3
 72
    23
 73
    19
 74
     0
 42
0.000000001
 43
0.00000001
 40
0.0
 40
0.0
 40
0.0
 40
0.0
 40
0.0666590453059332
 40
0.130342942327379
 40
0.1919362235456414
 40
0.2519958016206852
 40
0.3111219432316445
 40
0.3697547996986373
 40
0.4286022079335128
 40
0.4884358451551546
 40
0.548524359472167
 40
0.6086610699182975
 40
0.6692357986109769
 40
0.7308807993874664
 40
0.7941962717216978
 40
0.8598304060149965
 40
0.9285334661023549
 40
1.0
 40
1.0
 40
1.0
 40
1.0
 10
-5.02526300958353
 20
12.42307692307692
 30
0.0
 10
-5.060359072831048
 20
12.42384253122054
 30
0.0
 10
-5.128984780366979
 20
12.42533957663504
 30
0.0
 10
-5.229364240293369
 20
12.43829726338234
 30
0.0
 10
-5.324765415351667
 20
12.45919906361456
 30
0.0
 10
-5.415431770778356
 20
12.48866188427745
 30
0.0
 10
-5.501012526158724
 20
12.52687012763895
 30
0.0
 10
-5.582283760618654
 20
12.57236757245464
 30
0.0
 10
-5.657623724727116
 20
12.62777840548713
 30
0.0
 10
-5.727871854118612
 20
12.69060127707902
 30
0.0
 10
-5.791469833201193
 20
12.76108497192112
 30
0.0
 10
-5.848311449532149
 20
12.83759677029452
 30
0.0
 10
-5.897143335500126
 20
12.92042761521049
 30
0.0
 10
-5.938165751298393
 20
13.00922361867886
 30
0.0
 10
-5.971057994410519
 20
13.10414055564523
 30
0.0
 10
-5.997003299230102
 20
13.20498540770065
 30
0.0
 10
-6.015126519273566
 20
13.31195519448141
 30
0.0
 10
-6.020645983924177
 20
13.38555268341667
 30
0.0
 10
-6.023460124968146
 20
13.42307692307692
 30
0.0
  0
LINE
  5
93
330
1F
100
AcDbEntity
  8
0
  6
Continuous
 62
     7
370
    25
100
AcDbLine
 10
-6.023460125
 20
13.4230769231
 30
0.0
 11
-5.4849985865
 21
13.4230769231
 31
0.0
  0
SPLINE
  5
94
330
1F
100
AcDbEntity
  8
0
  6
Continuous
 62
     7
370
    25
100
AcDbSpline
210
0.0
220
0.0
230
1.0
 70
     8
 71
     3
 72
    19
 73
    15
 74
     0
 42
0.000000001
 43
0.00000001
 40
0.0
 40
0.0
 40
0.0
 40
0.0
 40
0.0773463525873204
 40
0.1506523054421689
 40
0.2206774854153138
 40
0.2865751871342047
 40
0.3501884696535646
 40
0.4113788387158246
 40
0.469946038552606
 40
0.5282337864665732
 40
0.6421944316652347
 40
0.7553643229127692
 40
0.873556121598048
 40
1.0
 40
1.0
 40
1.0
 40
1.0
 10
-5.484998586506607
 20
13.42307692307692
 30
0.0
 10
-5.481586411886997
 20
13.40420924279228
 30
0.0
 10
-5.47494030698586
 20
13.3674594874626
 30
0.0
 10
-5.461977486974055
 20
13.31425401132585
 30
0.0
 10
-5.445085124025114
 20
13.26514207063117
 30
0.0
 10
-5.425553349593896
 20
13.21968715987801
 30
0.0
 10
-5.404456092699812
 20
13.17729247191522
 30
0.0
 10
-5.378965561324427
 20
13.13952374723144
 30
0.0
 10
-5.350949567671874
 20
13.1053554101493
 30
0.0
 10
-5.310522284572167
 20
13.06473571448528
 30
0.0
 10
-5.252728698894164
 20
13.02300067294637
 30
0.0
 10
-5.17468821148564
 20
12.98673093639677
 30
0.0
 10
-5.087875559590731
 20
12.96547241473143
 30
0.0
 10
-5.02718485798131
 20
12.96287894039754
 30
0.0
 10
-4.995815894198915
 20
12.96153846153846
 30
0.0
  0
SPLINE
  5
95
330
1F
100
AcDbEntity
  8
0
  6
Continuous
 62
     7
370
    25
100
AcDbSpline
210
0.0
220
0.0
230
1.0
 70
     8
 71
     3
 72
    23
 73
    19
 74
     0
 42
0.000000001
 43
0.00000001
 40
0.0
 40
0.0
 40
0.0
 40
0.0
 40
0.0694022227332786
 40
0.13594342774155
 40
0.201020377282198
 40
0.2641806354860669
 40
0.325954798226698
 40
0.3884537906252654
 40
0.4508185688551904
 40
0.5142656197867422
 40
0.5774921763904645
 40
0.6388352985771129
 40
0.6986336447043974
 40
0.7580571493169929
 40
0.8170324353081853
 40
0.8764147980799074
 40
0.937277955527714
 40
1.0
 40
1.0
 40
1.0
 40
1.0
 10
-4.995815894198915
 20
12.96153846153846
 30
0.0
 10
-4.979170413215295
 20
12.96182390388612
 30
0.0
 10
-4.946565639878041
 20
12.96238302158632
 30
0.0
 10
-4.898674082808625
 20
12.96858009268436
 30
0.0
 10
-4.853050631505275
 20
12.97878667347508
 30
0.0
 10
-4.809610309811146
 20
12.99265703847507
 30
0.0
 10
-4.768076574177516
 20
13.01004440820904
 30
0.0
 10
-4.729242968106165
 20
13.03246438101251
 30
0.0
 10
-4.692317965622486
 20
13.0585307999555
 30
0.0
 10
-4.657702975115796
 20
13.08783637470187
 30
0.0
 10
-4.625718010566789
 20
13.11976896065252
 30
0.0
 10
-4.599104639037159
 20
13.15512887439991
 30
0.0
 10
-4.574781943195379
 20
13.1910608667444
 30
0.0
 10
-4.556792702085747
 20
13.22991573523835
 30
0.0
 10
-4.541030251364272
 20
13.26960267287208
 30
0.0
 10
-4.531382826305371
 20
13.31156219104488
 30
0.0
 10
-4.524098327578122
 20
13.35491409196666
 30
0.0
 10
-4.523674981734377
 20
13.38458222985843
 30
0.0
 10
-4.523460124968145
 20
13.39963942307692
 30
0.0
  0
SPLINE
  5
96
330
1F
100
AcDbEntity
  8
0
  6
Continuous
 62
     7
370
    25
100
AcDbSpline
210
0.0
220
0.0
230
1.0
 70
     8
 71
     3
 72
    23
 73
    19
 74
     0
 42
0.000000001
 43
0.00000001
 40
0.0
 40
0.0
 40
0.0
 40
0.0
 40
0.050613420412717
 40
0.1007597227549734
 40
0.1492748125078584
 40
0.1988884379588269
 40
0.2493064970530069
 40
0.3023226859423766
 40
0.3572206482518696
 40
0.4154373215830222
 40
0.476442931367119
 40
0.5398286479827856
 40
0.6061838488371154
 40
0.6759412007935895
 40
0.7497824080738361
 40
0.8282876884211454
 40
0.9118449242474471
 40
0.9999999999999999
 40
0.9999999999999999
 40
0.9999999999999999
 40
0.9999999999999999
 10
-4.523460124968145
 20
13.39963942307692
 30
0.0
 10
-4.524030529452288
 20
13.41610702920078
 30
0.0
 10
-4.525166074080803
 20
13.44889025969476
 30
0.0
 10
-4.534443592540584
 20
13.49673049122713
 30
0.0
 10
-4.549094755082523
 20
13.54274893824419
 30
0.0
 10
-4.569447009454942
 20
13.58674180943832
 30
0.0
 10
-4.596625176940006
 20
13.62854695582257
 30
0.0
 10
-4.628695111357776
 20
13.66900311519033
 30
0.0
 10
-4.668183393288881
 20
13.70600461666004
 30
0.0
 10
-4.711507326892834
 20
13.74257947948888
 30
0.0
 10
-4.761746070096995
 20
13.77446172891492
 30
0.0
 10
-4.816452925619671
 20
13.80388436067738
 30
0.0
 10
-4.877065674428614
 20
13.82729569195703
 30
0.0
 10
-4.94210470529007
 20
13.84820634715465
 30
0.0
 10
-5.012800292227745
 20
13.86347916489591
 30
0.0
 10
-5.088713441830701
 20
13.87456871917892
 30
0.0
 10
-5.16972169509683
 20
13.88282317366085
 30
0.0
 10
-5.22556173683398
 20
13.88400741108672
 30
0.0
 10
-5.254229355737376
 20
13.88461538461538
 30
0.0
  0
LINE
  5
97
330
1F
100
AcDbEntity
  8
0
  6
Continuous
 62
     7
370
    25
100
AcDbLine
 10
-5.2542293557
 20
13.8846153846
 30
0.0
 11
-5.2542293557
 21
14.3846153846
 31
0.0
  0
SPLINE
  5
98
330
1F
100
AcDbEntity
  8
0
  6
Continuous
 62
     7
370
    25
100
AcDbSpline
210
0.0
220
0.0
230
1.0
 70
     8
 71
     3
 72
    19
 73
    15
 74
     0
 42
0.000000001
 43
0.00000001
 40
0.0
 40
0.0
 40
0.0
 40
0.0
 40
0.1417037608121969
 40
0.2650996741797991
 40
0.3700579908892229
 40
0.4580235488018163
 40
0.5359935177706023
 40
0.6098476150495563
 40
0.6800751591995037
 40
0.748587093552186
 40
0.8156303639700219
 40
0.8780707438861871
 40
0.9395839280433549
 40
1.0
 40
1.0
 40
1.0
 40
1.0
 10
-5.254229355737376
 20
14.38461538461538
 30
0.0
 10
-5.218536465262133
 20
14.38765510536945
 30
0.0
 10
-5.151762135623395
 20
14.3933418209293
 30
0.0
 10
-5.059075785721262
 20
14.40664040295703
 30
0.0
 10
-4.981045826860891
 20
14.42441614739962
 30
0.0
 10
-4.915796807832746
 20
14.44586162089238
 30
0.0
 10
-4.861618203145857
 20
14.47340319599722
 30
0.0
 10
-4.814288073224798
 20
14.50380787868445
 30
0.0
 10
-4.773525126472216
 20
14.53911847419124
 30
0.0
 10
-4.739074968402775
 20
14.57828202526418
 30
0.0
 10
-4.711515913762495
 20
14.6203400066675
 30
0.0
 10
-4.692011220407569
 20
14.66463871273205
 30
0.0
 10
-4.67913133992028
 20
14.70980748678794
 30
0.0
 10
-4.677910972251039
 20
14.74070156688464
 30
0.0
 10
-4.677306278814299
 20
14.75600961538461
 30
0.0
  0
SPLINE
  5
99
330
1F
100
AcDbEntity
  8
0
  6
Continuous
 62
     7
370
    25
100
AcDbSpline
210
0.0
220
0.0
230
1.0
 70
     8
 71
     3
 72
    15
 73
    11
 74
     0
 42
0.000000001
 43
0.00000001
 40
0.0
 40
0.0
 40
0.0
 40
0.0
 40
0.1262080809789298
 40
0.2463314545173056
 40
0.3634838183347864
 40
0.4847544616601229
 40
0.6083827567272833
 40
0.7312142544154157
 40
0.8609892746833434
 40
0.9999999999999999
 40
0.9999999999999999
 40
0.9999999999999999
 40
0.9999999999999999
 10
-4.677306278814299
 20
14.75600961538461
 30
0.0
 10
-4.678349548102263
 20
14.77554102311882
 30
0.0
 10
-4.680385788881493
 20
14.81366219601536
 30
0.0
 10
-4.696200337899106
 20
14.86822162501662
 30
0.0
 10
-4.723652603145612
 20
14.91685683386964
 30
0.0
 10
-4.760461270479716
 20
14.95946548047056
 30
0.0
 10
-4.805313911423967
 20
14.99505541546954
 30
0.0
 10
-4.857889069352607
 20
15.02089310148611
 30
0.0
 10
-4.917045860295842
 20
15.03607389571874
 30
0.0
 10
-4.958665850238599
 20
15.03764763257182
 30
0.0
 10
-4.980190894198915
 20
15.03846153846153
 30
0.0
  0
SPLINE
  5
9A
330
1F
100
AcDbEntity
  8
0
  6
Continuous
 62
     7
370
    25
100
AcDbSpline
210
0.0
220
0.0
230
1.0
 70
     8
 71
     3
 72
    23
 73
    19
 74
     0
 42
0.000000001
 43
0.00000001
 40
0.0
 40
0.0
 40
0.0
 40
0.0
 40
0.0564668684718642
 40
0.111164098696964
 40
0.1649370968759864
 40
0.2183217523125949
 40
0.2723929232482774
 40
0.3279763434477044
 40
0.3852910519840225
 40
0.4449029182928195
 40
0.5068438192198363
 40
0.5694881852629677
 40
0.6341532155537218
 40
0.7009760953100496
 40
0.7708974968462684
 40
0.8436256105557781
 40
0.9196596761155401
 40
0.9999999999999999
 40
0.9999999999999999
 40
0.9999999999999999
 40
0.9999999999999999
 10
-9.350503394198915
 20
15.03846153846153
 30
0.0
 10
-9.364748591603007
 20
15.03795769291481
 30
0.0
 10
-9.392792550353356
 20
15.03696579204267
 30
0.0
 10
-9.434014977726854
 20
15.03036297630875
 30
0.0
 10
-9.473241078981317
 20
15.01872620278921
 30
0.0
 10
-9.5109074624517
 20
15.00313456414176
 30
0.0
 10
-9.54661214258128
 20
14.9824677351736
 30
0.0
 10
-9.580265060855194
 20
14.95699257583541
 30
0.0
 10
-9.612220793290417
 20
14.92735646780442
 30
0.0
 10
-9.642332778077657
 20
14.89365207925699
 30
0.0
 10
-9.669738615213525
 20
14.85603797174624
 30
0.0
 10
-9.694080379545904
 20
14.81485767322404
 30
0.0
 10
-9.714206966356127
 20
14.77013674552492
 30
0.0
 10
-9.731927144898028
 20
14.722465573202
 30
0.0
 10
-9.745593794518618
 20
14.67133212900381
 30
0.0
 10
-9.755544810845372
 20
14.61704244088456
 30
0.0
 10
-9.763109904028553
 20
14.55968483106396
 30
0.0
 10
-9.764865728816103
 20
14.52025686781881
 30
0.0
 10
-9.76576781727584
 20
14.5
 30
0.0
  0
LINE
  5
9B
330
1F
100
AcDbEntity
  8
0
  6
Continuous
 62
     7
370
    25
100
AcDbLine
 10
-9.7657678173
 20
14.5
 30
0.0
 11
-10.3042293557
 21
14.5
 31
0.0
  0
SPLINE
  5
9C
330
1F
100
AcDbEntity
  8
0
  6
Continuous
 62
     7
370
    25
100
AcDbSpline
210
0.0
220
0.0
230
1.0
 70
     8
 71
     3
 72
    23
 73
    19
 74
     0
 42
0.000000001
 43
0.00000001
 40
0.0
 40
0.0
 40
0.0
 40
0.0
 40
0.0749399102007727
 40
0.1464280851715766
 40
0.214752971635919
 40
0.280421536691247
 40
0.3436044295193644
 40
0.405542638818658
 40
0.4661994619307757
 40
0.5265381448244663
 40
0.585901906309209
 40
0.6440895746157921
 40
0.7016130759883659
 40
0.7587535874365703
 40
0.816629449389766
 40
0.8756554749553046
 40
0.9366243322865285
 40
1.0
 40
1.0
 40
1.0
 40
1.0
 10
-10.30422935573738
 20
14.5
 30
0.0
 10
-10.30190382293414
 20
14.5407317666906
 30
0.0
 10
-10.29735987146063
 20
14.62031919328588
 30
0.0
 10
-10.27928518098093
 20
14.73592247879315
 30
0.0
 10
-10.255065716039
 20
14.84515487135473
 30
0.0
 10
-10.22274162489982
 20
14.94763426415973
 30
0.0
 10
-10.18212428936867
 20
15.04332341949063
 30
0.0
 10
-10.1342588981432
 20
15.13254854689042
 30
0.0
 10
-10.0779225992177
 20
15.21483987408632
 30
0.0
 10
-10.01431441431374
 20
15.28980054584506
 30
0.0
 10
-9.944514235430091
 20
15.35704845620818
 30
0.0
 10
-9.869971182818242
 20
15.41667467823701
 30
0.0
 10
-9.789545020030824
 20
15.46587673606289
 30
0.0
 10
-9.704705198855383
 20
15.50636547444624
 30
0.0
 10
-9.615466165763017
 20
15.5387140949815
 30
0.0
 10
-9.520983579334956
 20
15.5603417655796
 30
0.0
 10
-9.422075520968926
 20
15.57498823597815
 30
0.0
 10
-9.354364945705415
 20
15.57626986090511
 30
0.0
 10
-9.319854355737377
 20
15.57692307692307
 30
0.0
  0
SPLINE
  5
9D
330
1F
100
AcDbEntity
  8
0
  6
Continuous
 62
     7
370
    25
100
AcDbSpline
210
0.0
220
0.0
230
1.0
 70
     8
 71
     3
 72
    19
 73
    15
 74
     0
 42
0.000000001
 43
0.00000001
 40
0.0
 40
0.0
 40
0.0
 40
0.0
 40
0.0896145288821145
 40
0.1749485612865258
 40
0.2575481258745664
 40
0.3389007874900938
 40
0.4200531858831905
 40
0.5014014271193612
 40
0.584252026715958
 40
0.6703704767286301
 40
0.7564732666582511
 40
0.8392065940498481
 40
0.9201204666578201
 40
1.0
 40
1.0
 40
1.0
 40
1.0
 10
-9.319854355737377
 20
15.57692307692307
 30
0.0
 10
-9.277493096136487
 20
15.57560129394971
 30
0.0
 10
-9.19479399015548
 20
15.57302086382963
 30
0.0
 10
-9.074625629525787
 20
15.55100893851081
 30
0.0
 10
-8.962401519499434
 20
15.51419059189949
 30
0.0
 10
-8.858203236462144
 20
15.46274565180306
 30
0.0
 10
-8.7629178387207
 20
15.39739024810515
 30
0.0
 10
-8.676561127184467
 20
15.31946462535832
 30
0.0
 10
-8.601744666507273
 20
15.22733386312864
 30
0.0
 10
-8.537994098349103
 20
15.12483137209992
 30
0.0
 10
-8.485024995395772
 20
15.01629566009911
 30
0.0
 10
-8.44790645446365
 20
14.90406523310491
 30
0.0
 10
-8.423508837003343
 20
14.79111823158643
 30
0.0
 10
-8.42090668009853
 20
14.71506543760146
 30
0.0
 10
-8.419613971121992
 20
14.67728365384615
 30
0.0
  0
SPLINE
  5
9E
330
1F
100
AcDbEntity
  8
0
  6
Continuous
 62
     7
370
    25
100
AcDbSpline
210
0.0
220
0.0
230
1.0
 70
     8
 71
     3
 72
    23
 73
    19
 74
     0
 42
0.000000001
 43
0.00000001
 40
0.0
 40
0.0
 40
0.0
 40
0.0
 40
0.0455177516513173
 40
0.091615990618165
 40
0.1392465550335718
 40
0.1882415637234035
 40
0.2386730793725372
 40
0.2906638743206417
 40
0.3448398555786328
 40
0.400431606735177
 40
0.4591437176132943
 40
0.5225510475946137
 40
0.5901008583230445
 40
0.6622596565248676
 40
0.7396813070012566
 40
0.8215754713854223
 40
0.9083300466844455
 40
1.0
 40
1.0
 40
1.0
 40
1.0
 10
-8.419613971121992
 20
14.67728365384615
 30
0.0
 10
-8.420117283729088
 20
14.65443056073801
 30
0.0
 10
-8.421130327682642
 20
14.60843292931215
 30
0.0
 10
-8.428174156905984
 20
14.53882722354953
 30
0.0
 10
-8.438741292603718
 20
14.46792567430263
 30
0.0
 10
-8.45467395801186
 20
14.39578907304186
 30
0.0
 10
-8.47454329796249
 20
14.3223971987413
 30
0.0
 10
-8.498647679226728
 20
14.24753041474676
 30
0.0
 10
-8.527546226641636
 20
14.17161318827442
 30
0.0
 10
-8.56075668212127
 20
14.09379108392423
 30
0.0
 10
-8.600376839677072
 20
14.01381144380538
 30
0.0
 10
-8.646509005935112
 20
13.93047534196303
 30
0.0
 10
-8.700377633125672
 20
13.84385670408357
 30
0.0
 10
-8.761332056175034
 20
13.75346645312948
 30
0.0
 10
-8.829668316085163
 20
13.65944714852514
 30
0.0
 10
-8.905720007922339
 20
13.56208200575664
 30
0.0
 10
-8.988611194788575
 20
13.46102794112797
 30
0.0
 10
-9.047441401950527
 20
13.39347896992396
 30
0.0
 10
-9.077666855737379
 20
13.35877403846154
 30
0.0
  0
LINE
  5
9F
330
1F
100
AcDbEntity
  8
0
  6
Continuous
 62
     7
370
    25
100
AcDbLine
 10
-9.0776668557
 20
13.3587740385
 30
0.0
 11
-9.3907678173
 21
13.0
 31
0.0
  0
LINE
  5
A0
330
1F
100
AcDbEntity
  8
0
  6
Continuous
 62
     7
370
    25
100
AcDbLine
 10
-9.3907678173
 20
13.0
 30
0.0
 11
-8.3811524327
 21
13.0
 31
0.0
  0
LINE
  5
A1
330
1F
100
AcDbEntity
  8
0
  6
Continuous
 62
     7
370
    25
100
AcDbLine
 10
-8.3811524327
 20
13.0
 30
0.0
 11
-8.3811524327
 21
12.5
 31
0.0
  0
LINE
  5
A2
330
1F
100
AcDbEntity
  8
0
  6
Continuous
 62
     7
370
    25
100
AcDbLine
 10
-8.3811524327
 20
12.5
 30
0.0
 11
-10.3811524327
 21
12.5
 31
0.0
  0
LINE
  5
A3
330
1F
100
AcDbEntity
  8
0
  6
Continuous
 62
     7
370
    25
100
AcDbLine
 10
-10.3811524327
 20
12.5
 30
0.0
 11
-10.3811524327
 21
12.7728365385
 31
0.0
  0
LINE
  5
A4
330
1F
100
AcDbEntity
  8
0
  6
Continuous
 62
     7
370
    25
100
AcDbLine
 10
-10.3811524327
 20
12.7728365385
 30
0.0
 11
-9.4929312788
 21
13.7181490385
 31
0.0
  0
SPLINE
  5
A5
330
1F
100
AcDbEntity
  8
0
  6
Continuous
 62
     7
370
    25
100
AcDbSpline
210
0.0
220
0.0
230
1.0
 70
     8
 71
     3
 72
    19
 73
    15
 74
     0
 42
0.000000001
 43
0.00000001
 40
0.0
 40
0.0
 40
0.0
 40
0.0
 40
0.1038439242634207
 40
0.2011148859465237
 40
0.2911157193792175
 40
0.3743484039713649
 40
0.4507073961858707
 40
0.5200404120163606
 40
0.5832583224453382
 40
0.6395782998253258
 40
0.7415365099482686
 40
0.835060048681736
 40
0.9208729600458332
 40
1.0
 40
1.0
 40
1.0
 40
1.0
 10
-9.492931278814302
 20
13.71814903846154
 30
0.0
 10
-9.46721499388353
 20
13.74572409762709
 30
0.0
 10
-9.41741017624489
 20
13.79912880973121
 30
0.0
 10
-9.346543053402907
 20
13.87755931102147
 30
0.0
 10
-9.282414567281789
 20
13.95198798463423
 30
0.0
 10
-9.226354474196402
 20
14.02320734579537
 30
0.0
 10
-9.17542081262996
 20
14.08890732825459
 30
0.0
 10
-9.131884710552027
 20
14.15106821147247
 30
0.0
 10
-9.095347846712823
 20
14.20912803867444
 30
0.0
 10
-9.05568189891977
 20
14.27913805021871
 30
0.0
 10
-9.01801228762386
 20
14.36263744720745
 30
0.0
 10
-8.983448139377526
 20
14.45883217626073
 30
0.0
 10
-8.962378899123433
 20
14.55077218302737
 30
0.0
 10
-8.959470677665406
 20
14.61068226774324
 30
0.0
 10
-8.958075509583534
 20
14.63942307692308
 30
0.0
  0
SPLINE
  5
A6
330
1F
100
AcDbEntity
  8
0
  6
Continuous
 62
     7
370
    25
100
AcDbSpline
210
0.0
220
0.0
230
1.0
 70
     8
 71
     3
 72
    15
 73
    11
 74
     0
 42
0.000000001
 43
0.00000001
 40
0.0
 40
0.0
 40
0.0
 40
0.0
 40
0.1327548717475887
 40
0.257233848111066
 40
0.378600731676356
 40
0.5014062774984559
 40
0.6239419536469547
 40
0.7436418348746481
 40
0.8681208112381253
 40
1.0
 40
1.0
 40
1.0
 40
1.0
 10
-8.958075509583532
 20
14.63942307692307
 30
0.0
 10
-8.959118643047656
 20
14.66722759247366
 30
0.0
 10
-8.961139881376143
 20
14.7211032991486
 30
0.0
 10
-8.983351652775301
 20
14.79774120504723
 30
0.0
 10
-9.01776289940602
 20
14.86712900548837
 30
0.0
 10
-9.066253205791256
 20
14.92719331475324
 30
0.0
 10
-9.12499015382653
 20
14.97655214049898
 30
0.0
 10
-9.1928662146712
 20
15.0132638483738
 30
0.0
 10
-9.269327998772468
 20
15.03444633555038
 30
0.0
 10
-9.322929166245121
 20
15.03709762616063
 30
0.0
 10
-9.350503394198915
 20
15.03846153846153
 30
0.0
  0
SPLINE
  5
A7
330
1F
100
AcDbEntity
  8
0
  6
Continuous
 62
     7
370
    25
100
AcDbSpline
210
0.0
220
0.0
230
1.0
 70
     8
 71
     3
 72
    19
 73
    15
 74
     0
 42
0.000000001
 43
0.00000001
 40
0.0
 40
0.0
 40
0.0
 40
0.0
 40
0.1069102197111981
 40
0.2129765276064934
 40
0.3197766759577682
 40
0.4285562728491932
 40
0.4858568032784261
 40
0.5465586866406894
 40
0.6114314979175131
 40
0.6798209100724925
 40
0.7531585046908259
 40
0.830752869156262
 40
0.9131330746557029
 40
1.0
 40
1.0
 40
1.0
 40
1.0
 10
-20.92332793568845
 20
-9.910256410256416
 30
0.0
 10
-20.88209005307625
 20
-9.9117649798617
 30
0.0
 10
-20.79993980524856
 20
-9.914770210952364
 30
0.0
 10
-20.67847829447327
 20
-9.938270136047702
 30
0.0
 10
-20.55983976900584
 20
-9.975226243633301
 30
0.0
 10
-20.46423862177809
 20
-10.01980972154215
 30
0.0
 10
-20.38817057342656
 20
-10.06299775768867
 30
0.0
 10
-20.32987152009314
 20
-10.1027598610932
 30
0.0
 10
-20.27054909530007
 20
-10.14830948761373
 30
0.0
 10
-20.20972490049033
 20
-10.19979017614611
 30
0.0
 10
-20.1485291433876
 20
-10.2581718904726
 30
0.0
 10
-20.08522173595734
 20
-10.32206480792468
 30
0.0
 10
-20.02066531900762
 20
-10.39202111273155
 30
0.0
 10
-19.978713883639
 20
-10.44199757250609
 30
0.0
 10
-19.95718210235512
 20
-10.46764823717949
 30
0.0
  0
LINE
  5
A8
330
1F
100
AcDbEntity
  8
0
  6
Continuous
 62
     7
370
    25
100
AcDbLine
 10
-19.9571821024
 20
-10.4676482372
 30
0.0
 11
-20.4269337049
 21
-10.8974358974
 31
0.0
  0
SPLINE
  5
A9
330
1F
100
AcDbEntity
  8
0
  6
Continuous
 62
     7
370
    25
100
AcDbSpline
210
0.0
220
0.0
230
1.0
 70
     8
 71
     3
 72
    15
 73
    11
 74
     0
 42
0.000000001
 43
0.00000001
 40
0.0
 40
0.0
 40
0.0
 40
0.0
 40
0.1624203072014403
 40
0.311824339733049
 40
0.448432766792578
 40
0.5733811968860494
 40
0.6890771468735435
 40
0.7975729005012508
 40
0.9002930430775755
 40
1.0
 40
1.0
 40
1.0
 40
1.0
 10
-20.42693370491921
 20
-10.8974358974359
 30
0.0
 10
-20.44705584932267
 20
-10.86905152084355
 30
0.0
 10
-20.48568756047219
 20
-10.81455747608924
 30
0.0
 10
-20.54830553479419
 20
-10.74158866578046
 30
0.0
 10
-20.61064075686643
 20
-10.67934084031165
 30
0.0
 10
-20.67327072461274
 20
-10.62807404234575
 30
0.0
 10
-20.73675056623203
 20
-10.58809975581702
 30
0.0
 10
-20.80097008999472
 20
-10.55979751936583
 30
0.0
 10
-20.86556521745495
 20
-10.54180551906845
 30
0.0
 10
-20.90896317192521
 20
-10.53956508214766
 30
0.0
 10
-20.93033915363716
 20
-10.53846153846154
 30
0.0
  0
SPLINE
  5
AA
330
1F
100
AcDbEntity
  8
0
  6
Continuous
 62
     7
370
    25
100
AcDbSpline
210
0.0
220
0.0
230
1.0
 70
     8
 71
     3
 72
    15
 73
    11
 74
     0
 42
0.000000001
 43
0.00000001
 40
0.0
 40
0.0
 40
0.0
 40
0.0
 40
0.1481262583591549
 40
0.2859928874897
 40
0.4166343935606141
 40
0.5473799458012581
 40
0.6715828376102078
 40
0.7844007386959901
 40
0.8932655763009633
 40
1.0
 40
1.0
 40
1.0
 40
1.0
 10
-20.93033915363716
 20
-10.53846153846154
 30
0.0
 10
-20.95027805622771
 20
-10.53916079436368
 30
0.0
 10
-20.9887748385566
 20
-10.54051087379431
 30
0.0
 10
-21.04365485775979
 20
-10.55393056270886
 30
0.0
 10
-21.09237812038056
 20
-10.57709097504622
 30
0.0
 10
-21.13489707466575
 20
-10.60737516258184
 30
0.0
 10
-21.16857835961741
 20
-10.64386058757597
 30
0.0
 10
-21.19547025373997
 20
-10.68212441719935
 30
0.0
 10
-21.21061264983619
 20
-10.72435903152605
 30
0.0
 10
-21.21260568709516
 20
-10.75336746836711
 30
0.0
 10
-21.21359235876537
 20
-10.76772836538462
 30
0.0
  0
SPLINE
  5
AB
330
1F
100
AcDbEntity
  8
0
  6
Continuous
 62
     7
370
    25
100
AcDbSpline
210
0.0
220
0.0
230
1.0
 70
     8
 71
     3
 72
    11
 73
     7
 74
     0
 42
0.000000001
 43
0.00000001
 40
0.0
 40
0.0
 40
0.0
 40
0.0
 40
0.2418813747501822
 40
0.4871154746783701
 40
0.7378378396463913
 40
1.0
 40
1.0
 40
1.0
 40
1.0
 10
-21.21359235876537
 20
-10.76772836538462
 30
0.0
 10
-21.21297406164556
 20
-10.78229635293255
 30
0.0
 10
-21.21172889717053
 20
-10.81163425535205
 30
0.0
 10
-21.1997023033102
 20
-10.85463260508201
 30
0.0
 10
-21.18157479232994
 20
-10.89664699815418
 30
0.0
 10
-21.16425321550335
 20
-10.92222315843407
 30
0.0
 10
-21.15539924979101
 20
-10.93529647435898
 30
0.0
  0
SPLINE
  5
AC
330
1F
100
AcDbEntity
  8
0
  6
Continuous
 62
     7
370
    25
100
AcDbSpline
210
0.0
220
0.0
230
1.0
 70
     8
 71
     3
 72
    15
 73
    11
 74
     0
 42
0.000000001
 43
0.00000001
 40
0.0
 40
0.0
 40
0.0
 40
0.0
 40
0.059234189122943
 40
0.1363492805279892
 40
0.2338052120618136
 40
0.3494112238568895
 40
0.4831791503491669
 40
0.6359668555591096
 40
0.8092433563675911
 40
0.9999999999999999
 40
0.9999999999999999
 40
0.9999999999999999
 40
0.9999999999999999
 10
-21.15539924979101
 20
-10.93529647435898
 30
0.0
 10
-21.1473500371785
 20
-10.94545822603122
 30
0.0
 10
-21.12882181277326
 20
-10.96884923635699
 30
0.0
 10
-21.09349228364052
 20
-11.00589695049925
 30
0.0
 10
-21.04912581484361
 20
-11.05128364317184
 30
0.0
 10
-20.99401509129799
 20
-11.10344859900929
 30
0.0
 10
-20.93044791064665
 20
-11.16426787383607
 30
0.0
 10
-20.85547785200935
 20
-11.23135063881169
 30
0.0
 10
-20.7712628806106
 20
-11.30677436920201
 30
0.0
 10
-20.71140483003433
 20
-11.3592967237979
 30
0.0
 10
-20.68003867286793
 20
-11.38681891025642
 30
0.0
  0
SPLINE
  5
AD
330
1F
100
AcDbEntity
  8
0
  6
Continuous
 62
     7
370
    25
100
AcDbSpline
210
0.0
220
0.0
230
1.0
 70
     8
 71
     3
 72
    15
 73
    11
 74
     0
 42
0.000000001
 43
0.00000001
 40
0.0
 40
0.0
 40
0.0
 40
0.0
 40
0.192952702164937
 40
0.366184141384055
 40
0.5204572982944591
 40
0.6550121351900107
 40
0.7706242255759976
 40
0.8656771846793675
 40
0.94267452731987
 40
1.0
 40
1.0
 40
1.0
 40
1.0
 10
-20.68003867286793
 20
-11.38681891025642
 30
0.0
 10
-20.6505970223999
 20
-11.41229917368705
 30
0.0
 10
-20.59472288652826
 20
-11.46065541996865
 30
0.0
 10
-20.51522508677138
 20
-11.52928934749932
 30
0.0
 10
-20.44535976100862
 20
-11.59103761858147
 30
0.0
 10
-20.38410913087731
 20
-11.64497352379533
 30
0.0
 10
-20.33240169618385
 20
-11.69166297427239
 30
0.0
 10
-20.29002007870198
 20
-11.73132914504499
 30
0.0
 10
-20.25644665882579
 20
-11.76319980871925
 30
0.0
 10
-20.23736213539237
 20
-11.78244970896658
 30
0.0
 10
-20.22921735876537
 20
-11.79066506410257
 30
0.0
  0
SPLINE
  5
AE
330
1F
100
AcDbEntity
  8
0
  6
Continuous
 62
     7
370
    25
100
AcDbSpline
210
0.0
220
0.0
230
1.0
 70
     8
 71
     3
 72
    15
 73
    11
 74
     0
 42
0.000000001
 43
0.00000001
 40
0.0
 40
0.0
 40
0.0
 40
0.0
 40
0.150833097340756
 40
0.2899541833158785
 40
0.4171386481520551
 40
0.5352551839062615
 40
0.6487510952936684
 40
0.7624054615861208
 40
0.8798267012501022
 40
1.0
 40
1.0
 40
1.0
 40
1.0
 10
-20.22921735876537
 20
-11.79066506410257
 30
0.0
 10
-20.19831777428786
 20
-11.8241050322243
 30
0.0
 10
-20.13891792147084
 20
-11.88838839454855
 30
0.0
 10
-20.06171905263509
 20
-11.98800738945301
 30
0.0
 10
-19.9981818864523
 20
-12.08525584120069
 30
0.0
 10
-19.94902832983137
 20
-12.18196363716616
 30
0.0
 10
-19.91190558690181
 20
-12.2795260783618
 30
0.0
 10
-19.88573356136921
 20
-12.38033587836632
 30
0.0
 10
-19.87005896113756
 20
-12.48544643641478
 30
0.0
 10
-19.86831871454939
 20
-12.55717156076461
 30
0.0
 10
-19.86743851261153
 20
-12.59344951923078
 30
0.0
  0
SPLINE
  5
AF
330
1F
100
AcDbEntity
  8
0
  6
Continuous
 62
     7
370
    25
100
AcDbSpline
210
0.0
220
0.0
230
1.0
 70
     8
 71
     3
 72
    23
 73
    19
 74
     0
 42
0.000000001
 43
0.00000001
 40
0.0
 40
0.0
 40
0.0
 40
0.0
 40
0.0652008752881547
 40
0.127926544023031
 40
0.1890469100189667
 40
0.2485436930694588
 40
0.3076071270223457
 40
0.3672476600602126
 40
0.4269630557213203
 40
0.488617128235392
 40
0.5503918546271247
 40
0.6113307342255601
 40
0.6725560854310824
 40
0.734024190629191
 40
0.797340620836939
 40
0.8622496273165786
 40
0.9296254660746962
 40
1.0
 40
1.0
 40
1.0
 40
1.0
 10
-19.86743851261152
 20
-12.59344951923077
 30
0.0
 10
-19.86806501781469
 20
-12.62879794065414
 30
0.0
 10
-19.86929424434115
 20
-12.69815285911766
 30
0.0
 10
-19.88434991200022
 20
-12.79964345147149
 30
0.0
 10
-19.90581841041161
 20
-12.89677435309824
 30
0.0
 10
-19.93901247518779
 20
-12.98848864247801
 30
0.0
 10
-19.97946920475842
 20
-13.07629178171713
 30
0.0
 10
-20.03018755835862
 20
-13.15881607708967
 30
0.0
 10
-20.08974931017694
 20
-13.23689670819813
 30
0.0
 10
-20.15801622302388
 20
-13.30913788828285
 30
0.0
 10
-20.23352753495441
 20
-13.37469175201369
 30
0.0
 10
-20.31452059346728
 20
-13.43304934983816
 30
0.0
 10
-20.40178738945581
 20
-13.48123098022849
 30
0.0
 10
-20.49458232916756
 20
-13.52090511610563
 30
0.0
 10
-20.59285574157507
 20
-13.55146266604604
 30
0.0
 10
-20.69649055342031
 20
-13.57404754339307
 30
0.0
 10
-20.80564528121639
 20
-13.58760263076635
 30
0.0
 10
-20.88028685701455
 20
-13.58901965433081
 30
0.0
 10
-20.91842008312435
 20
-13.58974358974359
 30
0.0
  0
SPLINE
  5
B0
330
1F
100
AcDbEntity
  8
0
  6
Continuous
 62
     7
370
    25
100
AcDbSpline
210
0.0
220
0.0
230
1.0
 70
     8
 71
     3
 72
    23
 73
    19
 74
     0
 42
0.000000001
 43
0.00000001
 40
0.0
 40
0.0
 40
0.0
 40
0.0
 40
0.0635514822357812
 40
0.1258683816453835
 40
0.1862402502136715
 40
0.2449766506319373
 40
0.30335768767706
 40
0.3612303170408041
 40
0.418489049028351
 40
0.4759367117285729
 40
0.5342037438191215
 40
0.5940594289675374
 40
0.6554686942598736
 40
0.7187716848998879
 40
0.7849746072190577
 40
0.853522316376702
 40
0.9251824507719303
 40
1.0
 40
1.0
 40
1.0
 40
1.0
 10
-20.91842008312435
 20
-13.58974358974359
 30
0.0
 10
-20.94835434089354
 20
-13.58921253606917
 30
0.0
 10
-21.00764133859388
 20
-13.58816074523415
 30
0.0
 10
-21.09502141005555
 20
-13.57957374852619
 30
0.0
 10
-21.17939674682614
 20
-13.56571524946595
 30
0.0
 10
-21.26067230762567
 20
-13.54585188042384
 30
0.0
 10
-21.33921425320775
 20
-13.5206822978137
 30
0.0
 10
-21.41502580917959
 20
-13.48993861685143
 30
0.0
 10
-21.48758362319945
 20
-13.45314432199723
 30
0.0
 10
-21.55743670208695
 20
-13.41105605024591
 30
0.0
 10
-21.62424547367714
 20
-13.3621860227129
 30
0.0
 10
-21.68885470860893
 20
-13.30753337111809
 30
0.0
 10
-21.75062264661559
 20
-13.24625751323088
 30
0.0
 10
-21.80984594657932
 20
-13.178503364086
 30
0.0
 10
-21.86614568131525
 20
-13.10407906020744
 30
0.0
 10
-21.9213647431606
 20
-13.0240210977568
 30
0.0
 10
-21.97304903084754
 20
-12.9368437096388
 30
0.0
 10
-22.00497671442767
 20
-12.87568806666826
 30
0.0
 10
-22.02128466645767
 20
-12.84445112179488
 30
0.0
  0
LINE
  5
B1
330
1F
100
AcDbEntity
  8
0
  6
Continuous
 62
     7
370
    25
100
AcDbLine
 10
-22.0212846665
 20
-12.8444511218
 30
0.0
 11
-21.4688006921
 21
-12.5128205128
 31
0.0
  0
SPLINE
  5
B2
330
1F
100
AcDbEntity
  8
0
  6
Continuous
 62
     7
370
    25
100
AcDbSpline
210
0.0
220
0.0
230
1.0
 70
     8
 71
     3
 72
    15
 73
    11
 74
     0
 42
0.000000001
 43
0.00000001
 40
0.0
 40
0.0
 40
0.0
 40
0.0
 40
0.1604579205559352
 40
0.3076115473748596
 40
0.4421388877557715
 40
0.5662291941703348
 40
0.6812222080152128
 40
0.7895580052436315
 40
0.8950288924051348
 40
0.9999999999999999
 40
0.9999999999999999
 40
0.9999999999999999
 40
0.9999999999999999
 10
-21.4688006920987
 20
-12.51282051282052
 30
0.0
 10
-21.44840188146529
 20
-12.54827852661506
 30
0.0
 10
-21.40929561807979
 20
-12.61625456950772
 30
0.0
 10
-21.34302639884249
 20
-12.7075889985393
 30
0.0
 10
-21.27513696687768
 20
-12.7858018183895
 30
0.0
 10
-21.20405777934675
 20
-12.84951061245052
 30
0.0
 10
-21.1306531325738
 20
-12.89956724918804
 30
0.0
 10
-21.05456846505771
 20
-12.93534119449476
 30
0.0
 10
-20.97575032117601
 20
-12.95748522617104
 30
0.0
 10
-20.92206298222636
 20
-12.96018952389862
 30
0.0
 10
-20.89528306389358
 20
-12.96153846153847
 30
0.0
  0
SPLINE
  5
B3
330
1F
100
AcDbEntity
  8
0
  6
Continuous
 62
     7
370
    25
100
AcDbSpline
210
0.0
220
0.0
230
1.0
 70
     8
 71
     3
 72
    15
 73
    11
 74
     0
 42
0.000000001
 43
0.00000001
 40
0.0
 40
0.0
 40
0.0
 40
0.0
 40
0.1419858925296707
 40
0.2754733105502157
 40
0.4043458426631373
 40
0.535429710860631
 40
0.6614274010622537
 40
0.7778668404627581
 40
0.888279749281843
 40
1.0
 40
1.0
 40
1.0
 40
1.0
 10
-20.89528306389358
 20
-12.96153846153847
 30
0.0
 10
-20.86804405295093
 20
-12.96043684591985
 30
0.0
 10
-20.81519640459096
 20
-12.95829955117877
 30
0.0
 10
-20.73976314919834
 20
-12.93855800404704
 30
0.0
 10
-20.67060308445123
 20
-12.90756232680316
 30
0.0
 10
-20.61082163526909
 20
-12.86333576958299
 30
0.0
 10
-20.56020247330419
 20
-12.8122916006185
 30
0.0
 10
-20.52284262622937
 20
-12.75550262869444
 30
0.0
 10
-20.49937291830875
 20
-12.69405833190837
 30
0.0
 10
-20.49689160115977
 20
-12.65137508164093
 30
0.0
 10
-20.49564364081665
 20
-12.62990785256411
 30
0.0
  0
SPLINE
  5
B4
330
1F
100
AcDbEntity
  8
0
  6
Continuous
 62
     7
370
    25
100
AcDbSpline
210
0.0
220
0.0
230
1.0
 70
     8
 71
     3
 72
    19
 73
    15
 74
     0
 42
0.000000001
 43
0.00000001
 40
0.0
 40
0.0
 40
0.0
 40
0.0
 40
0.0763466063531701
 40
0.1550908218146637
 40
0.2383515612585568
 40
0.3284041399329893
 40
0.3793838595513624
 40
0.4396176441748217
 40
0.5098314158313171
 40
0.58887464499696
 40
0.6774363544094512
 40
0.7755467196196765
 40
0.8826358717258568
 40
1.0
 40
1.0
 40
1.0
 40
1.0
 10
-20.49564364081665
 20
-12.62990785256411
 30
0.0
 10
-20.49679608111099
 20
-12.60993608926047
 30
0.0
 10
-20.49913715324084
 20
-12.56936536409268
 30
0.0
 10
-20.51638076907935
 20
-12.50904321960715
 30
0.0
 10
-20.54333780017944
 20
-12.44874850838877
 30
0.0
 10
-20.57522986891892
 20
-12.39929315500495
 30
0.0
 10
-20.60768404227841
 20
-12.35788552822757
 30
0.0
 10
-20.63871755206568
 20
-12.32200769272595
 30
0.0
 10
-20.67650815763312
 20
-12.28236896554775
 30
0.0
 10
-20.72096003867296
 20
-12.23891948418027
 30
0.0
 10
-20.77148586985115
 20
-12.19127675184439
 30
0.0
 10
-20.82812821263244
 20
-12.13944543390454
 30
0.0
 10
-20.89153568176231
 20
-12.08388210228185
 30
0.0
 10
-20.93635220605396
 20
-12.04603290973443
 30
0.0
 10
-20.95978626902178
 20
-12.02624198717949
 30
0.0
  0
SPLINE
  5
B5
330
1F
100
AcDbEntity
  8
0
  6
Continuous
 62
     7
370
    25
100
AcDbSpline
210
0.0
220
0.0
230
1.0
 70
     8
 71
     3
 72
    19
 73
    15
 74
     0
 42
0.000000001
 43
0.00000001
 40
0.0
 40
0.0
 40
0.0
 40
0.0
 40
0.1121245812797455
 40
0.2152010090762417
 40
0.3099024524934773
 40
0.3959590963320913
 40
0.4734474940003327
 40
0.5421403275660318
 40
0.6025233330554104
 40
0.6547263328340144
 40
0.7478040553141013
 40
0.8352784168250081
 40
0.9189252427194488
 40
1.0
 40
1.0
 40
1.0
 40
1.0
 10
-20.95978626902178
 20
-12.02624198717949
 30
0.0
 10
-21.00433535542132
 20
-11.98854918817538
 30
0.0
 10
-21.0898385362331
 20
-11.91620529812014
 30
0.0
 10
-21.21066537866729
 20
-11.80935564992787
 30
0.0
 10
-21.31954118238927
 20
-11.70949486314718
 30
0.0
 10
-21.41552557903154
 20
-11.61538844015431
 30
0.0
 10
-21.4998415582959
 20
-11.52877430850121
 30
0.0
 10
-21.57191809573532
 20
-11.44894895507718
 30
0.0
 10
-21.6309633978115
 20
-11.37529663646034
 30
0.0
 10
-21.69309584646415
 20
-11.28806039375663
 30
0.0
 10
-21.75213409525394
 20
-11.18175703789622
 30
0.0
 10
-21.80315989583924
 20
-11.05386177746765
 30
0.0
 10
-21.83626328161078
 20
-10.92598274505112
 30
0.0
 10
-21.83997205557697
 20
-10.84013180615678
 30
0.0
 10
-21.8417974869705
 20
-10.79787660256411
 30
0.0
  0
SPLINE
  5
B6
330
1F
100
AcDbEntity
  8
0
  6
Continuous
 62
     7
370
    25
100
AcDbSpline
210
0.0
220
0.0
230
1.0
 70
     8
 71
     3
 72
    23
 73
    19
 74
     0
 42
0.000000001
 43
0.00000001
 40
0.0
 40
0.0
 40
0.0
 40
0.0
 40
0.0631728801065216
 40
0.124457359777
 40
0.1848409152554595
 40
0.2445668214643688
 40
0.3043191726186547
 40
0.3651997864614177
 40
0.4274209827764752
 40
0.4912616890772861
 40
0.5554990019310212
 40
0.6186045181428778
 40
0.6804947639253088
 40
0.7424733052606063
 40
0.8049906647647702
 40
0.8682519711837807
 40
0.9328872172654742
 40
1.0
 40
1.0
 40
1.0
 40
1.0
 10
-21.8417974869705
 20
-10.79787660256411
 30
0.0
 10
-21.84103829248642
 20
-10.76791148018457
 30
0.0
 10
-21.83954259780088
 20
-10.70887697027362
 30
0.0
 10
-21.82620077047384
 20
-10.62207532503468
 30
0.0
 10
-21.80626090123566
 20
-10.53831903074428
 30
0.0
 10
-21.77730248654301
 20
-10.45791366852098
 30
0.0
 10
-21.7397179608426
 20
-10.3809599493177
 30
0.0
 10
-21.69407301428896
 20
-10.30708115229034
 30
0.0
 10
-21.63965886736052
 20
-10.23695724120037
 30
0.0
 10
-21.57833779727083
 20
-10.1706347032571
 30
0.0
 10
-21.5107776779606
 20
-10.11002345103737
 30
0.0
 10
-21.43858110482568
 20
-10.05652794770224
 30
0.0
 10
-21.36215671684649
 20
-10.01134486771912
 30
0.0
 10
-21.28197203973058
 20
-9.973862222011686
 30
0.0
 10
-21.19753020239821
 20
-9.945171637807462
 30
0.0
 10
-21.10945328399628
 20
-9.924834321665912
 30
0.0
 10
-21.01761495428143
 20
-9.912738334584906
 30
0.0
 10
-20.95514850477981
 20
-9.911094025505605
 30
0.0
 10
-20.92332793568844
 20
-9.910256410256414
 30
0.0
  0
SPLINE
  5
B7
330
1F
100
AcDbEntity
  8
0
  6
Continuous
 62
     7
370
    25
100
AcDbSpline
210
0.0
220
0.0
230
1.0
 70
     8
 71
     3
 72
    19
 73
    15
 74
     0
 42
0.000000001
 43
0.00000001
 40
0.0
 40
0.0
 40
0.0
 40
0.0
 40
0.1069102197111981
 40
0.2129765276064934
 40
0.3197766759577682
 40
0.4285562728491932
 40
0.4858568032784261
 40
0.5465586866406894
 40
0.6114314979175131
 40
0.6798209100724925
 40
0.7531585046908259
 40
0.830752869156262
 40
0.9131330746557029
 40
1.0
 40
1.0
 40
1.0
 40
1.0
 10
19.17402024005299
 20
-9.910256410256412
 30
0.0
 10
19.21525812266518
 20
-9.911764979861696
 30
0.0
 10
19.29740837049289
 20
-9.914770210952364
 30
0.0
 10
19.41886988126815
 20
-9.938270136047697
 30
0.0
 10
19.5375084067356
 20
-9.975226243633296
 30
0.0
 10
19.63310955396335
 20
-10.01980972154215
 30
0.0
 10
19.70917760231487
 20
-10.06299775768866
 30
0.0
 10
19.76747665564829
 20
-10.1027598610932
 30
0.0
 10
19.82679908044136
 20
-10.14830948761372
 30
0.0
 10
19.8876232752511
 20
-10.19979017614611
 30
0.0
 10
19.94881903235384
 20
-10.2581718904726
 30
0.0
 10
20.01212643978408
 20
-10.32206480792468
 30
0.0
 10
20.07668285673381
 20
-10.39202111273155
 30
0.0
 10
20.11863429210244
 20
-10.44199757250609
 30
0.0
 10
20.14016607338632
 20
-10.46764823717949
 30
0.0
  0
LINE
  5
B8
330
1F
100
AcDbEntity
  8
0
  6
Continuous
 62
     7
370
    25
100
AcDbLine
 10
20.1401660734
 20
-10.4676482372
 30
0.0
 11
19.6704144708
 21
-10.8974358974
 31
0.0
  0
SPLINE
  5
B9
330
1F
100
AcDbEntity
  8
0
  6
Continuous
 62
     7
370
    25
100
AcDbSpline
210
0.0
220
0.0
230
1.0
 70
     8
 71
     3
 72
    15
 73
    11
 74
     0
 42
0.000000001
 43
0.00000001
 40
0.0
 40
0.0
 40
0.0
 40
0.0
 40
0.1624203072014403
 40
0.311824339733049
 40
0.448432766792578
 40
0.5733811968860494
 40
0.6890771468735435
 40
0.7975729005012508
 40
0.9002930430775755
 40
1.0
 40
1.0
 40
1.0
 40
1.0
 10
19.67041447082222
 20
-10.8974358974359
 30
0.0
 10
19.65029232641876
 20
-10.86905152084355
 30
0.0
 10
19.61166061526924
 20
-10.81455747608923
 30
0.0
 10
19.54904264094726
 20
-10.74158866578045
 30
0.0
 10
19.486707418875
 20
-10.67934084031165
 30
0.0
 10
19.42407745112869
 20
-10.62807404234575
 30
0.0
 10
19.36059760950941
 20
-10.58809975581701
 30
0.0
 10
19.29637808574671
 20
-10.55979751936583
 30
0.0
 10
19.23178295828648
 20
-10.54180551906845
 30
0.0
 10
19.18838500381622
 20
-10.53956508214765
 30
0.0
 10
19.16700902210427
 20
-10.53846153846154
 30
0.0
  0
SPLINE
  5
BA
330
1F
100
AcDbEntity
  8
0
  6
Continuous
 62
     7
370
    25
100
AcDbSpline
210
0.0
220
0.0
230
1.0
 70
     8
 71
     3
 72
    15
 73
    11
 74
     0
 42
0.000000001
 43
0.00000001
 40
0.0
 40
0.0
 40
0.0
 40
0.0
 40
0.1481262583591549
 40
0.2859928874897
 40
0.4166343935606141
 40
0.5473799458012581
 40
0.6715828376102078
 40
0.7844007386959901
 40
0.8932655763009633
 40
1.0
 40
1.0
 40
1.0
 40
1.0
 10
19.16700902210427
 20
-10.53846153846154
 30
0.0
 10
19.14707011951372
 20
-10.53916079436368
 30
0.0
 10
19.10857333718484
 20
-10.54051087379431
 30
0.0
 10
19.05369331798163
 20
-10.55393056270885
 30
0.0
 10
19.00497005536088
 20
-10.57709097504621
 30
0.0
 10
18.96245110107568
 20
-10.60737516258184
 30
0.0
 10
18.92876981612403
 20
-10.64386058757596
 30
0.0
 10
18.90187792200145
 20
-10.68212441719934
 30
0.0
 10
18.88673552590526
 20
-10.72435903152605
 30
0.0
 10
18.88474248864628
 20
-10.7533674683671
 30
0.0
 10
18.88375581697607
 20
-10.76772836538462
 30
0.0
  0
SPLINE
  5
BB
330
1F
100
AcDbEntity
  8
0
  6
Continuous
 62
     7
370
    25
100
AcDbSpline
210
0.0
220
0.0
230
1.0
 70
     8
 71
     3
 72
    11
 73
     7
 74
     0
 42
0.000000001
 43
0.00000001
 40
0.0
 40
0.0
 40
0.0
 40
0.0
 40
0.2418813747501822
 40
0.4871154746783701
 40
0.7378378396463913
 40
1.0
 40
1.0
 40
1.0
 40
1.0
 10
18.88375581697607
 20
-10.76772836538462
 30
0.0
 10
18.88437411409588
 20
-10.78229635293254
 30
0.0
 10
18.8856192785709
 20
-10.81163425535205
 30
0.0
 10
18.89764587243122
 20
-10.854632605082
 30
0.0
 10
18.9157733834115
 20
-10.89664699815417
 30
0.0
 10
18.93309496023809
 20
-10.92222315843407
 30
0.0
 10
18.94194892595042
 20
-10.93529647435898
 30
0.0
  0
SPLINE
  5
BC
330
1F
100
AcDbEntity
  8
0
  6
Continuous
 62
     7
370
    25
100
AcDbSpline
210
0.0
220
0.0
230
1.0
 70
     8
 71
     3
 72
    15
 73
    11
 74
     0
 42
0.000000001
 43
0.00000001
 40
0.0
 40
0.0
 40
0.0
 40
0.0
 40
0.059234189122943
 40
0.1363492805279892
 40
0.2338052120618136
 40
0.3494112238568895
 40
0.4831791503491669
 40
0.6359668555591096
 40
0.8092433563675911
 40
0.9999999999999999
 40
0.9999999999999999
 40
0.9999999999999999
 40
0.9999999999999999
 10
18.94194892595042
 20
-10.93529647435898
 30
0.0
 10
18.94999813856293
 20
-10.94545822603121
 30
0.0
 10
18.96852636296817
 20
-10.96884923635699
 30
0.0
 10
19.00385589210091
 20
-11.00589695049925
 30
0.0
 10
19.04822236089782
 20
-11.05128364317184
 30
0.0
 10
19.10333308444344
 20
-11.10344859900928
 30
0.0
 10
19.16690026509478
 20
-11.16426787383607
 30
0.0
 10
19.24187032373209
 20
-11.23135063881168
 30
0.0
 10
19.32608529513083
 20
-11.306774369202
 30
0.0
 10
19.3859433457071
 20
-11.35929672379789
 30
0.0
 10
19.4173095028735
 20
-11.38681891025641
 30
0.0
  0
SPLINE
  5
BD
330
1F
100
AcDbEntity
  8
0
  6
Continuous
 62
     7
370
    25
100
AcDbSpline
210
0.0
220
0.0
230
1.0
 70
     8
 71
     3
 72
    15
 73
    11
 74
     0
 42
0.000000001
 43
0.00000001
 40
0.0
 40
0.0
 40
0.0
 40
0.0
 40
0.192952702164937
 40
0.366184141384055
 40
0.5204572982944591
 40
0.6550121351900107
 40
0.7706242255759976
 40
0.8656771846793675
 40
0.94267452731987
 40
1.0
 40
1.0
 40
1.0
 40
1.0
 10
19.4173095028735
 20
-11.38681891025641
 30
0.0
 10
19.44675115334153
 20
-11.41229917368705
 30
0.0
 10
19.50262528921317
 20
-11.46065541996865
 30
0.0
 10
19.58212308897005
 20
-11.52928934749932
 30
0.0
 10
19.65198841473281
 20
-11.59103761858147
 30
0.0
 10
19.71323904486413
 20
-11.64497352379533
 30
0.0
 10
19.76494647955758
 20
-11.69166297427238
 30
0.0
 10
19.80732809703947
 20
-11.73132914504499
 30
0.0
 10
19.84090151691564
 20
-11.76319980871924
 30
0.0
 10
19.85998604034906
 20
-11.78244970896658
 30
0.0
 10
19.86813081697606
 20
-11.79066506410257
 30
0.0
  0
SPLINE
  5
BE
330
1F
100
AcDbEntity
  8
0
  6
Continuous
 62
     7
370
    25
100
AcDbSpline
210
0.0
220
0.0
230
1.0
 70
     8
 71
     3
 72
    15
 73
    11
 74
     0
 42
0.000000001
 43
0.00000001
 40
0.0
 40
0.0
 40
0.0
 40
0.0
 40
0.150833097340756
 40
0.2899541833158785
 40
0.4171386481520551
 40
0.5352551839062615
 40
0.6487510952936684
 40
0.7624054615861208
 40
0.8798267012501022
 40
1.0
 40
1.0
 40
1.0
 40
1.0
 10
19.86813081697606
 20
-11.79066506410257
 30
0.0
 10
19.89903040145357
 20
-11.8241050322243
 30
0.0
 10
19.95843025427059
 20
-11.88838839454855
 30
0.0
 10
20.03562912310635
 20
-11.98800738945301
 30
0.0
 10
20.09916628928913
 20
-12.08525584120069
 30
0.0
 10
20.14831984591006
 20
-12.18196363716616
 30
0.0
 10
20.18544258883963
 20
-12.2795260783618
 30
0.0
 10
20.21161461437222
 20
-12.38033587836631
 30
0.0
 10
20.22728921460388
 20
-12.48544643641477
 30
0.0
 10
20.22902946119204
 20
-12.5571715607646
 30
0.0
 10
20.22990966312991
 20
-12.59344951923077
 30
0.0
  0
SPLINE
  5
BF
330
1F
100
AcDbEntity
  8
0
  6
Continuous
 62
     7
370
    25
100
AcDbSpline
210
0.0
220
0.0
230
1.0
 70
     8
 71
     3
 72
    23
 73
    19
 74
     0
 42
0.000000001
 43
0.00000001
 40
0.0
 40
0.0
 40
0.0
 40
0.0
 40
0.0652008752881547
 40
0.127926544023031
 40
0.1890469100189667
 40
0.2485436930694588
 40
0.3076071270223457
 40
0.3672476600602126
 40
0.4269630557213203
 40
0.488617128235392
 40
0.5503918546271247
 40
0.6113307342255601
 40
0.6725560854310824
 40
0.734024190629191
 40
0.797340620836939
 40
0.8622496273165786
 40
0.9296254660746962
 40
1.0
 40
1.0
 40
1.0
 40
1.0
 10
20.22990966312991
 20
-12.59344951923077
 30
0.0
 10
20.22928315792674
 20
-12.62879794065413
 30
0.0
 10
20.22805393140028
 20
-12.69815285911766
 30
0.0
 10
20.21299826374121
 20
-12.79964345147149
 30
0.0
 10
20.19152976532981
 20
-12.89677435309824
 30
0.0
 10
20.15833570055365
 20
-12.98848864247801
 30
0.0
 10
20.117878970983
 20
-13.07629178171713
 30
0.0
 10
20.06716061738282
 20
-13.15881607708967
 30
0.0
 10
20.0075988655645
 20
-13.23689670819813
 30
0.0
 10
19.93933195271754
 20
-13.30913788828285
 30
0.0
 10
19.86382064078703
 20
-13.37469175201368
 30
0.0
 10
19.78282758227416
 20
-13.43304934983816
 30
0.0
 10
19.69556078628562
 20
-13.48123098022849
 30
0.0
 10
19.60276584657387
 20
-13.52090511610563
 30
0.0
 10
19.50449243416637
 20
-13.55146266604604
 30
0.0
 10
19.40085762232112
 20
-13.57404754339306
 30
0.0
 10
19.29170289452504
 20
-13.58760263076635
 30
0.0
 10
19.21706131872688
 20
-13.58901965433081
 30
0.0
 10
19.17892809261709
 20
-13.58974358974359
 30
0.0
  0
SPLINE
  5
C0
330
1F
100
AcDbEntity
  8
0
  6
Continuous
 62
     7
370
    25
100
AcDbSpline
210
0.0
220
0.0
230
1.0
 70
     8
 71
     3
 72
    23
 73
    19
 74
     0
 42
0.000000001
 43
0.00000001
 40
0.0
 40
0.0
 40
0.0
 40
0.0
 40
0.0635514822357812
 40
0.1258683816453835
 40
0.1862402502136715
 40
0.2449766506319373
 40
0.30335768767706
 40
0.3612303170408041
 40
0.418489049028351
 40
0.4759367117285729
 40
0.5342037438191215
 40
0.5940594289675374
 40
0.6554686942598736
 40
0.7187716848998879
 40
0.7849746072190577
 40
0.853522316376702
 40
0.9251824507719303
 40
1.0
 40
1.0
 40
1.0
 40
1.0
 10
19.17892809261709
 20
-13.58974358974359
 30
0.0
 10
19.14899383484789
 20
-13.58921253606916
 30
0.0
 10
19.08970683714755
 20
-13.58816074523415
 30
0.0
 10
19.00232676568589
 20
-13.57957374852619
 30
0.0
 10
18.91795142891531
 20
-13.56571524946595
 30
0.0
 10
18.83667586811575
 20
-13.54585188042384
 30
0.0
 10
18.7581339225337
 20
-13.52068229781369
 30
0.0
 10
18.68232236656185
 20
-13.48993861685143
 30
0.0
 10
18.60976455254199
 20
-13.45314432199723
 30
0.0
 10
18.53991147365449
 20
-13.41105605024591
 30
0.0
 10
18.4731027020643
 20
-13.3621860227129
 30
0.0
 10
18.4084934671325
 20
-13.30753337111808
 30
0.0
 10
18.34672552912587
 20
-13.24625751323088
 30
0.0
 10
18.2875022291621
 20
-13.17850336408599
 30
0.0
 10
18.2312024944262
 20
-13.10407906020744
 30
0.0
 10
18.17598343258084
 20
-13.0240210977568
 30
0.0
 10
18.12429914489391
 20
-12.9368437096388
 30
0.0
 10
18.09237146131376
 20
-12.87568806666826
 30
0.0
 10
18.07606350928376
 20
-12.84445112179487
 30
0.0
  0
LINE
  5
C1
330
1F
100
AcDbEntity
  8
0
  6
Continuous
 62
     7
370
    25
100
AcDbLine
 10
18.0760635093
 20
-12.8444511218
 30
0.0
 11
18.6285474836
 21
-12.5128205128
 31
0.0
  0
SPLINE
  5
C2
330
1F
100
AcDbEntity
  8
0
  6
Continuous
 62
     7
370
    25
100
AcDbSpline
210
0.0
220
0.0
230
1.0
 70
     8
 71
     3
 72
    15
 73
    11
 74
     0
 42
0.000000001
 43
0.00000001
 40
0.0
 40
0.0
 40
0.0
 40
0.0
 40
0.1604579205559352
 40
0.3076115473748596
 40
0.4421388877557715
 40
0.5662291941703348
 40
0.6812222080152128
 40
0.7895580052436315
 40
0.8950288924051348
 40
0.9999999999999999
 40
0.9999999999999999
 40
0.9999999999999999
 40
0.9999999999999999
 10
18.62854748364273
 20
-12.51282051282051
 30
0.0
 10
18.64894629427614
 20
-12.54827852661505
 30
0.0
 10
18.68805255766164
 20
-12.61625456950772
 30
0.0
 10
18.75432177689894
 20
-12.7075889985393
 30
0.0
 10
18.82221120886374
 20
-12.7858018183895
 30
0.0
 10
18.89329039639468
 20
-12.84951061245052
 30
0.0
 10
18.96669504316765
 20
-12.89956724918803
 30
0.0
 10
19.04277971068372
 20
-12.93534119449476
 30
0.0
 10
19.12159785456543
 20
-12.95748522617103
 30
0.0
 10
19.17528519351507
 20
-12.96018952389862
 30
0.0
 10
19.20206511184786
 20
-12.96153846153847
 30
0.0
  0
SPLINE
  5
C3
330
1F
100
AcDbEntity
  8
0
  6
Continuous
 62
     7
370
    25
100
AcDbSpline
210
0.0
220
0.0
230
1.0
 70
     8
 71
     3
 72
    15
 73
    11
 74
     0
 42
0.000000001
 43
0.00000001
 40
0.0
 40
0.0
 40
0.0
 40
0.0
 40
0.1419858925296707
 40
0.2754733105502157
 40
0.4043458426631373
 40
0.535429710860631
 40
0.6614274010622537
 40
0.7778668404627581
 40
0.888279749281843
 40
1.0
 40
1.0
 40
1.0
 40
1.0
 10
19.20206511184786
 20
-12.96153846153846
 30
0.0
 10
19.2293041227905
 20
-12.96043684591985
 30
0.0
 10
19.28215177115047
 20
-12.95829955117876
 30
0.0
 10
19.35758502654311
 20
-12.93855800404704
 30
0.0
 10
19.42674509129019
 20
-12.90756232680316
 30
0.0
 10
19.48652654047235
 20
-12.86333576958299
 30
0.0
 10
19.53714570243726
 20
-12.81229160061849
 30
0.0
 10
19.57450554951207
 20
-12.75550262869444
 30
0.0
 10
19.59797525743268
 20
-12.69405833190837
 30
0.0
 10
19.60045657458166
 20
-12.65137508164093
 30
0.0
 10
19.60170453492479
 20
-12.62990785256411
 30
0.0
  0
SPLINE
  5
C4
330
1F
100
AcDbEntity
  8
0
  6
Continuous
 62
     7
370
    25
100
AcDbSpline
210
0.0
220
0.0
230
1.0
 70
     8
 71
     3
 72
    19
 73
    15
 74
     0
 42
0.000000001
 43
0.00000001
 40
0.0
 40
0.0
 40
0.0
 40
0.0
 40
0.0763466063531701
 40
0.1550908218146637
 40
0.2383515612585568
 40
0.3284041399329893
 40
0.3793838595513624
 40
0.4396176441748217
 40
0.5098314158313171
 40
0.58887464499696
 40
0.6774363544094512
 40
0.7755467196196765
 40
0.8826358717258568
 40
1.0
 40
1.0
 40
1.0
 40
1.0
 10
19.60170453492478
 20
-12.6299078525641
 30
0.0
 10
19.60055209463044
 20
-12.60993608926047
 30
0.0
 10
19.59821102250059
 20
-12.56936536409268
 30
0.0
 10
19.58096740666208
 20
-12.50904321960715
 30
0.0
 10
19.55401037556199
 20
-12.44874850838877
 30
0.0
 10
19.52211830682252
 20
-12.39929315500494
 30
0.0
 10
19.48966413346303
 20
-12.35788552822757
 30
0.0
 10
19.45863062367574
 20
-12.32200769272595
 30
0.0
 10
19.42084001810831
 20
-12.28236896554774
 30
0.0
 10
19.37638813706847
 20
-12.23891948418027
 30
0.0
 10
19.32586230589027
 20
-12.19127675184439
 30
0.0
 10
19.26921996310901
 20
-12.13944543390453
 30
0.0
 10
19.20581249397912
 20
-12.08388210228185
 30
0.0
 10
19.16099596968748
 20
-12.04603290973443
 30
0.0
 10
19.13756190671965
 20
-12.02624198717949
 30
0.0
  0
SPLINE
  5
C5
330
1F
100
AcDbEntity
  8
0
  6
Continuous
 62
     7
370
    25
100
AcDbSpline
210
0.0
220
0.0
230
1.0
 70
     8
 71
     3
 72
    19
 73
    15
 74
     0
 42
0.000000001
 43
0.00000001
 40
0.0
 40
0.0
 40
0.0
 40
0.0
 40
0.1121245812797455
 40
0.2152010090762417
 40
0.3099024524934773
 40
0.3959590963320913
 40
0.4734474940003327
 40
0.5421403275660318
 40
0.6025233330554104
 40
0.6547263328340144
 40
0.7478040553141013
 40
0.8352784168250081
 40
0.9189252427194488
 40
1.0
 40
1.0
 40
1.0
 40
1.0
 10
19.13756190671965
 20
-12.02624198717949
 30
0.0
 10
19.09301282032011
 20
-11.98854918817538
 30
0.0
 10
19.00750963950834
 20
-11.91620529812014
 30
0.0
 10
18.88668279707415
 20
-11.80935564992787
 30
0.0
 10
18.77780699335216
 20
-11.70949486314718
 30
0.0
 10
18.68182259670988
 20
-11.61538844015431
 30
0.0
 10
18.59750661744554
 20
-11.5287743085012
 30
0.0
 10
18.5254300800061
 20
-11.44894895507718
 30
0.0
 10
18.46638477792994
 20
-11.37529663646034
 30
0.0
 10
18.40425232927728
 20
-11.28806039375663
 30
0.0
 10
18.34521408048749
 20
-11.18175703789622
 30
0.0
 10
18.29418827990219
 20
-11.05386177746765
 30
0.0
 10
18.26108489413066
 20
-10.92598274505112
 30
0.0
 10
18.25737612016446
 20
-10.84013180615677
 30
0.0
 10
18.25555068877093
 20
-10.7978766025641
 30
0.0
  0
SPLINE
  5
C6
330
1F
100
AcDbEntity
  8
0
  6
Continuous
 62
     7
370
    25
100
AcDbSpline
210
0.0
220
0.0
230
1.0
 70
     8
 71
     3
 72
    23
 73
    19
 74
     0
 42
0.000000001
 43
0.00000001
 40
0.0
 40
0.0
 40
0.0
 40
0.0
 40
0.0631728801065216
 40
0.124457359777
 40
0.1848409152554595
 40
0.2445668214643688
 40
0.3043191726186547
 40
0.3651997864614177
 40
0.4274209827764752
 40
0.4912616890772861
 40
0.5554990019310212
 40
0.6186045181428778
 40
0.6804947639253088
 40
0.7424733052606063
 40
0.8049906647647702
 40
0.8682519711837807
 40
0.9328872172654742
 40
1.0
 40
1.0
 40
1.0
 40
1.0
 10
18.25555068877093
 20
-10.7978766025641
 30
0.0
 10
18.25630988325502
 20
-10.76791148018457
 30
0.0
 10
18.25780557794057
 20
-10.70887697027362
 30
0.0
 10
18.27114740526759
 20
-10.62207532503468
 30
0.0
 10
18.29108727450576
 20
-10.53831903074427
 30
0.0
 10
18.32004568919843
 20
-10.45791366852098
 30
0.0
 10
18.35763021489883
 20
-10.38095994931769
 30
0.0
 10
18.40327516145247
 20
-10.30708115229033
 30
0.0
 10
18.45768930838092
 20
-10.23695724120037
 30
0.0
 10
18.51901037847062
 20
-10.1706347032571
 30
0.0
 10
18.58657049778082
 20
-10.11002345103737
 30
0.0
 10
18.65876707091575
 20
-10.05652794770223
 30
0.0
 10
18.73519145889494
 20
-10.01134486771911
 30
0.0
 10
18.81537613601087
 20
-9.973862222011682
 30
0.0
 10
18.89981797334321
 20
-9.94517163780746
 30
0.0
 10
18.98789489174515
 20
-9.924834321665909
 30
0.0
 10
19.07973322146
 20
-9.912738334584905
 30
0.0
 10
19.14219967096161
 20
-9.911094025505601
 30
0.0
 10
19.17402024005299
 20
-9.91025641025641
 30
0.0
  0
SPLINE
  5
C7
330
1F
100
AcDbEntity
  8
0
  6
Continuous
 62
     7
370
    25
100
AcDbSpline
210
0.0
220
0.0
230
1.0
 70
     8
 71
     3
 72
    23
 73
    19
 74
     0
 42
0.000000001
 43
0.00000001
 40
0.0
 40
0.0
 40
0.0
 40
0.0
 40
0.0622757783707706
 40
0.1239040620075183
 40
0.1850672407687286
 40
0.2468401515202064
 40
0.3084353298497778
 40
0.3702412507091075
 40
0.4325865888798541
 40
0.4959245816612424
 40
0.5593510709509261
 40
0.6219426542010908
 40
0.6843928672351841
 40
0.7469858082645233
 40
0.8094414645316986
 40
0.8725078327139387
 40
0.935769297066228
 40
1.0
 40
1.0
 40
1.0
 40
1.0
 10
7.224879807692312
 20
-9.910256410256414
 30
0.0
 10
7.260187289926856
 20
-9.91078530829254
 30
0.0
 10
7.330435154868387
 20
-9.911837605297544
 30
0.0
 10
7.435046013842755
 20
-9.920609645782477
 30
0.0
 10
7.538820244143997
 20
-9.934386046632058
 30
0.0
 10
7.641386302182714
 20
-9.955171701702765
 30
0.0
 10
7.74347784525617
 20
-9.979846900946129
 30
0.0
 10
7.843753276088087
 20
-10.01215567071491
 30
0.0
 10
7.943794493822841
 20
-10.04816988324388
 30
0.0
 10
8.04203250053035
 20
-10.09121752065949
 30
0.0
 10
8.138604422064132
 20
-10.13820790532875
 30
0.0
 10
8.231247909059393
 20
-10.19152020323126
 30
0.0
 10
8.321518437096444
 20
-10.24787363509044
 30
0.0
 10
8.407415665471317
 20
-10.31060344391504
 30
0.0
 10
8.490548634234973
 20
-10.37743430290277
 30
0.0
 10
8.570482633823005
 20
-10.44867801553366
 30
0.0
 10
8.646516196649037
 20
-10.52552242365922
 30
0.0
 10
8.694230638952376
 20
-10.57981753419364
 30
0.0
 10
8.718269230769234
 20
-10.60717147435898
 30
0.0
  0
LINE
  5
C8
330
1F
100
AcDbEntity
  8
0
  6
Continuous
 62
     7
370
    25
100
AcDbLine
 10
8.7182692308
 20
-10.6071714744
 30
0.0
 11
8.2576322115
 21
-11.0474759615
 31
0.0
  0
SPLINE
  5
C9
330
1F
100
AcDbEntity
  8
0
  6
Continuous
 62
     7
370
    25
100
AcDbSpline
210
0.0
220
0.0
230
1.0
 70
     8
 71
     3
 72
    15
 73
    11
 74
     0
 42
0.000000001
 43
0.00000001
 40
0.0
 40
0.0
 40
0.0
 40
0.0
 40
0.139406438181739
 40
0.2723044483741597
 40
0.399525336271758
 40
0.5228108782578215
 40
0.6426627165918681
 40
0.7610226208095212
 40
0.8798007967838041
 40
0.9999999999999999
 40
0.9999999999999999
 40
0.9999999999999999
 40
0.9999999999999999
 10
8.257632211538464
 20
-11.04747596153847
 30
0.0
 10
8.218557226846002
 20
-11.00707236187553
 30
0.0
 10
8.142231539950263
 20
-10.92815147370104
 30
0.0
 10
8.019242134984477
 20
-10.82366717281475
 30
0.0
 10
7.891337631918254
 20
-10.7365936452724
 30
0.0
 10
7.761006157552312
 20
-10.6632608747509
 30
0.0
 10
7.625903426477913
 20
-10.60777940743223
 30
0.0
 10
7.487591594165797
 20
-10.56734912765282
 30
0.0
 10
7.345187498883313
 20
-10.54270031422111
 30
0.0
 10
7.248813884486028
 20
-10.53988005373751
 30
0.0
 10
7.200340544871798
 20
-10.53846153846154
 30
0.0
  0
SPLINE
  5
CA
330
1F
100
AcDbEntity
  8
0
  6
Continuous
 62
     7
370
    25
100
AcDbSpline
210
0.0
220
0.0
230
1.0
 70
     8
 71
     3
 72
    23
 73
    19
 74
     0
 42
0.000000001
 43
0.00000001
 40
0.0
 40
0.0
 40
0.0
 40
0.0
 40
0.0647145165408359
 40
0.1277069683294528
 40
0.1888821628171169
 40
0.2491582987223286
 40
0.3096610287488851
 40
0.3702248860571849
 40
0.4323322219725845
 40
0.4957818589938707
 40
0.5593040765204261
 40
0.621860558361524
 40
0.6833215373325054
 40
0.7445229747823338
 40
0.8060883712105099
 40
0.8689943146702055
 40
0.933419056808136
 40
1.0
 40
1.0
 40
1.0
 40
1.0
 10
7.200340544871798
 20
-10.53846153846154
 30
0.0
 10
7.159859415650181
 20
-10.53958221511613
 30
0.0
 10
7.079974367228575
 20
-10.54179374702095
 30
0.0
 10
6.962682182272248
 20
-10.55800645718334
 30
0.0
 10
6.850486145580644
 20
-10.58557687637911
 30
0.0
 10
6.74300219234031
 20
-10.6235740211217
 30
0.0
 10
6.640546598699592
 20
-10.67274030970532
 30
0.0
 10
6.542904553772742
 20
-10.73303768870193
 30
0.0
 10
6.450316789971734
 20
-10.80392158702261
 30
0.0
 10
6.364006338021636
 20
-10.8850252481169
 30
0.0
 10
6.285052569844882
 20
-10.97363709254748
 30
0.0
 10
6.215291888391185
 20
-11.06818571916804
 30
0.0
 10
6.156856127406464
 20
-11.16845452236021
 30
0.0
 10
6.108898848884582
 20
-11.27342805339024
 30
0.0
 10
6.071541982768239
 20
-11.38359218171908
 30
0.0
 10
6.044864486922577
 20
-11.49887274049228
 30
0.0
 10
6.029434936273031
 20
-11.61940701994648
 30
0.0
 10
6.027131972433213
 20
-11.70134532498228
 30
0.0
 10
6.025961538461542
 20
-11.74298878205129
 30
0.0
  0
SPLINE
  5
CB
330
1F
100
AcDbEntity
  8
0
  6
Continuous
 62
     7
370
    25
100
AcDbSpline
210
0.0
220
0.0
230
1.0
 70
     8
 71
     3
 72
    31
 73
    27
 74
     0
 42
0.000000001
 43
0.00000001
 40
0.0
 40
0.0
 40
0.0
 40
0.0
 40
0.0459858533955715
 40
0.0906390618643956
 40
0.1344852733868693
 40
0.1773313561259415
 40
0.2192648329782463
 40
0.2607850023581449
 40
0.3023165723378493
 40
0.3434357294037522
 40
0.3841814737656304
 40
0.4243757389977427
 40
0.4641811219517818
 40
0.5040119825276094
 40
0.5438224623104049
 40
0.5838024645760234
 40
0.6244185350988843
 40
0.6655475595785358
 40
0.706674939653633
 40
0.7478269788975747
 40
0.7888951165570472
 40
0.8302193579728134
 40
0.8717069369478627
 40
0.9137338536047372
 40
0.9565878279841868
 40
1.0
 40
1.0
 40
1.0
 40
1.0
 10
6.025961538461542
 20
-11.74298878205129
 30
0.0
 10
6.026298844184038
 20
-11.77221707391645
 30
0.0
 10
6.026963680693335
 20
-11.82982663770488
 30
0.0
 10
6.034241492009008
 20
-11.91504717152007
 30
0.0
 10
6.045960484341103
 20
-11.99773123640521
 30
0.0
 10
6.062920769688136
 20
-12.07775358803723
 30
0.0
 10
6.084129773240929
 20
-12.15518357450381
 30
0.0
 10
6.10901276367083
 20
-12.23068918035756
 30
0.0
 10
6.140228109133977
 20
-12.30322708813688
 30
0.0
 10
6.17487761358322
 20
-12.37363977855271
 30
0.0
 10
6.215174587963684
 20
-12.44000595320701
 30
0.0
 10
6.258622160149743
 20
-12.50329160864757
 30
0.0
 10
6.305733958635964
 20
-12.56318652489318
 30
0.0
 10
6.356815129331922
 20
-12.61944584969681
 30
0.0
 10
6.412584576142346
 20
-12.67119037580873
 30
0.0
 10
6.471600865216016
 20
-12.71997612269798
 30
0.0
 10
6.534859519685559
 20
-12.76458181787408
 30
0.0
 10
6.60104649698554
 20
-12.80612689037453
 30
0.0
 10
6.670733568959354
 20
-12.8422174483108
 30
0.0
 10
6.742029963772064
 20
-12.87490852135218
 30
0.0
 10
6.816016678465711
 20
-12.90145853312112
 30
0.0
 10
6.891792880350669
 20
-12.92286026472234
 30
0.0
 10
6.969087771989102
 20
-12.94105924113266
 30
0.0
 10
7.048657369208575
 20
-12.95226491020956
 30
0.0
 10
7.129811903248422
 20
-12.96075083224556
 30
0.0
 10
7.184658746516002
 20
-12.9612747883295
 30
0.0
 10
7.212259615384618
 20
-12.96153846153847
 30
0.0
  0
SPLINE
  5
CC
330
1F
100
AcDbEntity
  8
0
  6
Continuous
 62
     7
370
    25
100
AcDbSpline
210
0.0
220
0.0
230
1.0
 70
     8
 71
     3
 72
    19
 73
    15
 74
     0
 42
0.000000001
 43
0.00000001
 40
0.0
 40
0.0
 40
0.0
 40
0.0
 40
0.1170484290483432
 40
0.2299697259035144
 40
0.3407035076587649
 40
0.4493551469115576
 40
0.5055565115208196
 40
0.5653026697757549
 40
0.6282049564766005
 40
0.694728991831127
 40
0.765018833651913
 40
0.8395802021957272
 40
0.9177497995909466
 40
1.0
 40
1.0
 40
1.0
 40
1.0
 10
7.212259615384618
 20
-12.96153846153847
 30
0.0
 10
7.259075432318387
 20
-12.96018429967415
 30
0.0
 10
7.351056338647006
 20
-12.95752372374589
 30
0.0
 10
7.486051544364452
 20
-12.93671839673054
 30
0.0
 10
7.614688526589517
 20
-12.90249481115271
 30
0.0
 10
7.717468859822727
 20
-12.8620787451804
 30
0.0
 10
7.797994536095284
 20
-12.8221673553411
 30
0.0
 10
7.859297543022786
 20
-12.78525128516375
 30
0.0
 10
7.922689630124871
 20
-12.74395660751073
 30
0.0
 10
7.98711790904677
 20
-12.69672481652811
 30
0.0
 10
8.053307070119136
 20
-12.64412271264751
 30
0.0
 10
8.120088722028393
 20
-12.58499821164648
 30
0.0
 10
8.18917248692299
 20
-12.52129819852759
 30
0.0
 10
8.234428576515475
 20
-12.4758342477583
 30
0.0
 10
8.257632211538464
 20
-12.45252403846154
 30
0.0
  0
LINE
  5
CD
330
1F
100
AcDbEntity
  8
0
  6
Continuous
 62
     7
370
    25
100
AcDbLine
 10
8.2576322115
 20
-12.4525240385
 30
0.0
 11
8.7042467949
 21
-12.9215745192
 31
0.0
  0
SPLINE
  5
CE
330
1F
100
AcDbEntity
  8
0
  6
Continuous
 62
     7
370
    25
100
AcDbSpline
210
0.0
220
0.0
230
1.0
 70
     8
 71
     3
 72
    23
 73
    19
 74
     0
 42
0.000000001
 43
0.00000001
 40
0.0
 40
0.0
 40
0.0
 40
0.0
 40
0.0777829363133484
 40
0.1518156572691097
 40
0.222539838580063
 40
0.2902775346822931
 40
0.3546406074863803
 40
0.4157977534850326
 40
0.4747090076698675
 40
0.5304260996200427
 40
0.5855797458252658
 40
0.6409061648040308
 40
0.6979010906656716
 40
0.7554203208806051
 40
0.8145212584872908
 40
0.8744618312159087
 40
0.936669716740424
 40
1.0
 40
1.0
 40
1.0
 40
1.0
 10
8.7042467948718
 20
-12.92157451923078
 30
0.0
 10
8.672852193598628
 20
-12.95188502114361
 30
0.0
 10
8.611576645864265
 20
-13.0110446387687
 30
0.0
 10
8.519144183183643
 20
-13.09504577536141
 30
0.0
 10
8.42682805041335
 20
-13.17053013462988
 30
0.0
 10
8.336858413004139
 20
-13.24023746798798
 30
0.0
 10
8.247761474460171
 20
-13.30213703151111
 30
0.0
 10
8.159546683364287
 20
-13.35629064502881
 30
0.0
 10
8.073212669711815
 20
-13.40406793176045
 30
0.0
 10
7.986966680048844
 20
-13.44466315120068
 30
0.0
 10
7.900272047314146
 20
-13.47913270870961
 30
0.0
 10
7.811073458235312
 20
-13.50880873527039
 30
0.0
 10
7.719098224332753
 20
-13.53391358614769
 30
0.0
 10
7.623784602847403
 20
-13.55416990372607
 30
0.0
 10
7.526021621160908
 20
-13.57041273582334
 30
0.0
 10
7.424894347658539
 20
-13.58137655354014
 30
0.0
 10
7.321043979193774
 20
-13.58874716342149
 30
0.0
 10
7.250600665362956
 20
-13.58940947379917
 30
0.0
 10
7.215064102564106
 20
-13.58974358974359
 30
0.0
  0
SPLINE
  5
CF
330
1F
100
AcDbEntity
  8
0
  6
Continuous
 62
     7
370
    25
100
AcDbSpline
210
0.0
220
0.0
230
1.0
 70
     8
 71
     3
 72
    23
 73
    19
 74
     0
 42
0.000000001
 43
0.00000001
 40
0.0
 40
0.0
 40
0.0
 40
0.0
 40
0.0673762427992637
 40
0.1318365787763102
 40
0.1944610676015859
 40
0.2553459677434139
 40
0.3155883400136117
 40
0.3756274517721989
 40
0.4361378520525409
 40
0.4977786195747128
 40
0.5594703610940518
 40
0.6202777696791131
 40
0.6807876889604192
 40
0.7414916215916545
 40
0.8032154362531897
 40
0.8664927627489313
 40
0.9319104429113606
 40
1.0
 40
1.0
 40
1.0
 40
1.0
 10
7.215064102564106
 20
-13.58974358974359
 30
0.0
 10
7.149787838616324
 20
-13.58807956759651
 30
0.0
 10
7.022060334727238
 20
-13.58482353879817
 30
0.0
 10
6.83487900806594
 20
-13.56069856992543
 30
0.0
 10
6.657061772318645
 20
-13.52025348461199
 30
0.0
 10
6.488176031438462
 20
-13.4630529783209
 30
0.0
 10
6.328275487159964
 20
-13.3899820122926
 30
0.0
 10
6.177401046919112
 20
-13.30040043907177
 30
0.0
 10
6.03579588677204
 20
-13.19454626277408
 30
0.0
 10
5.904603897687862
 20
-13.07366019711603
 30
0.0
 10
5.785934499874281
 20
-12.94015168590658
 30
0.0
 10
5.681044494809392
 20
-12.79680017163682
 30
0.0
 10
5.594279478663645
 20
-12.64290113413749
 30
0.0
 10
5.522236616182612
 20
-12.48072815381076
 30
0.0
 10
5.465900045214816
 20
-12.30954117235446
 30
0.0
 10
5.426248649861174
 20
-12.1291550175899
 30
0.0
 10
5.401795923725975
 20
-11.9397438635032
 30
0.0
 10
5.399120760735779
 20
-11.81037167900216
 30
0.0
 10
5.397756410256414
 20
-11.74439102564103
 30
0.0
  0
SPLINE
  5
D0
330
1F
100
AcDbEntity
  8
0
  6
Continuous
 62
     7
370
    25
100
AcDbSpline
210
0.0
220
0.0
230
1.0
 70
     8
 71
     3
 72
    31
 73
    27
 74
     0
 42
0.000000001
 43
0.00000001
 40
0.0
 40
0.0
 40
0.0
 40
0.0
 40
0.0446633309063706
 40
0.0885118057801452
 40
0.1309255913017769
 40
0.1729040372808871
 40
0.2140001199049666
 40
0.2549850203589832
 40
0.295291276387059
 40
0.3357724419527882
 40
0.3761808205537702
 40
0.4161784084745205
 40
0.4563500514444733
 40
0.4965121666444157
 40
0.5370405736377798
 40
0.5781187440077618
 40
0.6197245605548118
 40
0.6624219701988829
 40
0.7052989535209028
 40
0.7474300005339111
 40
0.789432984039383
 40
0.8312674212030609
 40
0.8728250959642286
 40
0.9148701104843919
 40
0.9570270028395004
 40
1.0
 40
1.0
 40
1.0
 40
1.0
 10
5.397756410256415
 20
-11.74439102564103
 30
0.0
 10
5.39833291864434
 20
-11.70135900645557
 30
0.0
 10
5.399475417365933
 20
-11.61608006180059
 30
0.0
 10
5.411483184738157
 20
-11.49045726725528
 30
0.0
 10
5.428222710671433
 20
-11.36799751305939
 30
0.0
 10
5.454778446425299
 20
-11.24997233725351
 30
0.0
 10
5.486788766724882
 20
-11.13479172304314
 30
0.0
 10
5.526597805693384
 20
-11.02370754918896
 30
0.0
 10
5.5741419827956
 20
-10.91640054858969
 30
0.0
 10
5.627888837243328
 20
-10.81269108287744
 30
0.0
 10
5.688692115948976
 20
-10.71325856017406
 30
0.0
 10
5.756616053216812
 20
-10.61895726255587
 30
0.0
 10
5.829912022035113
 20
-10.52905920136673
 30
0.0
 10
5.910341205125531
 20
-10.44475704127233
 30
0.0
 10
5.996734861079382
 20
-10.3653105929181
 30
0.0
 10
6.08948304735139
 20
-10.29115039182726
 30
0.0
 10
6.188027929930141
 20
-10.22121289705025
 30
0.0
 10
6.292636233170494
 20
-10.15730162683347
 30
0.0
 10
6.40127569647781
 20
-10.0994904859056
 30
0.0
 10
6.512576090323261
 20
-10.04849859054561
 30
0.0
 10
6.626263962552453
 20
-10.00588110860175
 30
0.0
 10
6.741858630541958
 20
-9.970531479403435
 30
0.0
 10
6.859848480282213
 20
-9.94414548071567
 30
0.0
 10
6.979391330253528
 20
-9.924172130931122
 30
0.0
 10
7.101504346560631
 20
-9.913006900699475
 30
0.0
 10
7.183492658046794
 20
-9.9111790812521
 30
0.0
 10
7.224879807692312
 20
-9.910256410256414
 30
0.0
  0
SPLINE
  5
D1
330
1F
100
AcDbEntity
  8
0
  6
Continuous
 62
     7
370
    25
100
AcDbSpline
210
0.0
220
0.0
230
1.0
 70
     8
 71
     3
 72
    19
 73
    15
 74
     0
 42
0.000000001
 43
0.00000001
 40
0.0
 40
0.0
 40
0.0
 40
0.0
 40
0.1069102197111999
 40
0.2129765276064937
 40
0.3197766759577689
 40
0.4285562728491933
 40
0.4858568032784269
 40
0.5465586866406884
 40
0.6114314979175133
 40
0.679820910072493
 40
0.7531585046908249
 40
0.8307528691562619
 40
0.9131330746557005
 40
1.0
 40
1.0
 40
1.0
 40
1.0
 10
0.2899439102564138
 20
-9.910256410256412
 30
0.0
 10
0.3311817928686066
 20
-9.911764979861697
 30
0.0
 10
0.4133320406963077
 20
-9.91477021095236
 30
0.0
 10
0.5347935514715869
 20
-9.938270136047702
 30
0.0
 10
0.6534320769390227
 20
-9.975226243633298
 30
0.0
 10
0.7490332241667713
 20
-10.01980972154215
 30
0.0
 10
0.8251012725182985
 20
-10.06299775768867
 30
0.0
 10
0.8834003258517173
 20
-10.10275986109319
 30
0.0
 10
0.9427227506447912
 20
-10.14830948761373
 30
0.0
 10
1.003546945454529
 20
-10.19979017614611
 30
0.0
 10
1.064742702557264
 20
-10.2581718904726
 30
0.0
 10
1.128050109987511
 20
-10.32206480792468
 30
0.0
 10
1.192606526937237
 20
-10.39202111273155
 30
0.0
 10
1.234557962305862
 20
-10.44199757250609
 30
0.0
 10
1.256089743589747
 20
-10.46764823717949
 30
0.0
  0
LINE
  5
D2
330
1F
100
AcDbEntity
  8
0
  6
Continuous
 62
     7
370
    25
100
AcDbLine
 10
1.2560897436
 20
-10.4676482372
 30
0.0
 11
0.786338141
 21
-10.8974358974
 31
0.0
  0
SPLINE
  5
D3
330
1F
100
AcDbEntity
  8
0
  6
Continuous
 62
     7
370
    25
100
AcDbSpline
210
0.0
220
0.0
230
1.0
 70
     8
 71
     3
 72
    15
 73
    11
 74
     0
 42
0.000000001
 43
0.00000001
 40
0.0
 40
0.0
 40
0.0
 40
0.0
 40
0.1624203072014363
 40
0.3118243397330488
 40
0.4484327667925795
 40
0.573381196886047
 40
0.6890771468735448
 40
0.7975729005012504
 40
0.9002930430775777
 40
1.0
 40
1.0
 40
1.0
 40
1.0
 10
0.7863381410256446
 20
-10.8974358974359
 30
0.0
 10
0.766215996622187
 20
-10.86905152084355
 30
0.0
 10
0.7275842854726732
 20
-10.81455747608923
 30
0.0
 10
0.6649663111506822
 20
-10.74158866578046
 30
0.0
 10
0.6026310890784281
 20
-10.67934084031165
 30
0.0
 10
0.5400011213321162
 20
-10.62807404234575
 30
0.0
 10
0.4765212797128324
 20
-10.58809975581702
 30
0.0
 10
0.4123017559501407
 20
-10.55979751936583
 30
0.0
 10
0.3477066284899074
 20
-10.54180551906845
 30
0.0
 10
0.3043086740196433
 20
-10.53956508214766
 30
0.0
 10
0.2829326923076957
 20
-10.53846153846154
 30
0.0
  0
SPLINE
  5
D4
330
1F
100
AcDbEntity
  8
0
  6
Continuous
 62
     7
370
    25
100
AcDbSpline
210
0.0
220
0.0
230
1.0
 70
     8
 71
     3
 72
    15
 73
    11
 74
     0
 42
0.000000001
 43
0.00000001
 40
0.0
 40
0.0
 40
0.0
 40
0.0
 40
0.1481262583591557
 40
0.2859928874896981
 40
0.416634393560613
 40
0.5473799458012547
 40
0.671582837610207
 40
0.784400738695989
 40
0.8932655763009629
 40
1.0
 40
1.0
 40
1.0
 40
1.0
 10
0.2829326923076957
 20
-10.53846153846154
 30
0.0
 10
0.2629937897171519
 20
-10.53916079436368
 30
0.0
 10
0.2244970073882613
 20
-10.54051087379431
 30
0.0
 10
0.169616988185065
 20
-10.55393056270886
 30
0.0
 10
0.1208937255643069
 20
-10.57709097504621
 30
0.0
 10
0.0783747712791037
 20
-10.60737516258185
 30
0.0
 10
0.0446934863274508
 20
-10.64386058757596
 30
0.0
 10
0.0178015922048889
 20
-10.68212441719935
 30
0.0
 10
0.0026591961086759
 20
-10.72435903152605
 30
0.0
 10
0.0006661588497024
 20
-10.7533674683671
 30
0.0
 10
-0.0003205128205093
 20
-10.76772836538462
 30
0.0
  0
SPLINE
  5
D5
330
1F
100
AcDbEntity
  8
0
  6
Continuous
 62
     7
370
    25
100
AcDbSpline
210
0.0
220
0.0
230
1.0
 70
     8
 71
     3
 72
    11
 73
     7
 74
     0
 42
0.000000001
 43
0.00000001
 40
0.0
 40
0.0
 40
0.0
 40
0.0
 40
0.2418813747501836
 40
0.487115474678363
 40
0.7378378396463983
 40
1.0
 40
1.0
 40
1.0
 40
1.0
 10
-0.0003205128205093
 20
-10.76772836538462
 30
0.0
 10
0.0002977842993033
 20
-10.78229635293254
 30
0.0
 10
0.0015429487743309
 20
-10.81163425535205
 30
0.0
 10
0.0135695426346457
 20
-10.85463260508201
 30
0.0
 10
0.031697053614928
 20
-10.89664699815417
 30
0.0
 10
0.0490186304415097
 20
-10.92222315843407
 30
0.0
 10
0.0578725961538497
 20
-10.93529647435898
 30
0.0
  0
SPLINE
  5
D6
330
1F
100
AcDbEntity
  8
0
  6
Continuous
 62
     7
370
    25
100
AcDbSpline
210
0.0
220
0.0
230
1.0
 70
     8
 71
     3
 72
    15
 73
    11
 74
     0
 42
0.000000001
 43
0.00000001
 40
0.0
 40
0.0
 40
0.0
 40
0.0
 40
0.0592341891229434
 40
0.1363492805279893
 40
0.2338052120618133
 40
0.3494112238568919
 40
0.4831791503491676
 40
0.6359668555591137
 40
0.809243356367589
 40
1.0
 40
1.0
 40
1.0
 40
1.0
 10
0.0578725961538497
 20
-10.93529647435898
 30
0.0
 10
0.0659218087663563
 20
-10.94545822603122
 30
0.0
 10
0.0844500331715923
 20
-10.96884923635699
 30
0.0
 10
0.1197795623043372
 20
-11.00589695049925
 30
0.0
 10
0.1641460311012513
 20
-11.05128364317185
 30
0.0
 10
0.2192567546468707
 20
-11.10344859900929
 30
0.0
 10
0.2828239352982114
 20
-11.16426787383607
 30
0.0
 10
0.3577939939355161
 20
-11.23135063881168
 30
0.0
 10
0.4420089653342534
 20
-11.30677436920201
 30
0.0
 10
0.5018670159105314
 20
-11.3592967237979
 30
0.0
 10
0.5332331730769265
 20
-11.38681891025641
 30
0.0
  0
SPLINE
  5
D7
330
1F
100
AcDbEntity
  8
0
  6
Continuous
 62
     7
370
    25
100
AcDbSpline
210
0.0
220
0.0
230
1.0
 70
     8
 71
     3
 72
    15
 73
    11
 74
     0
 42
0.000000001
 43
0.00000001
 40
0.0
 40
0.0
 40
0.0
 40
0.0
 40
0.1929527021649355
 40
0.3661841413840573
 40
0.5204572982944615
 40
0.6550121351900098
 40
0.7706242255759989
 40
0.8656771846793674
 40
0.9426745273198694
 40
0.9999999999999999
 40
0.9999999999999999
 40
0.9999999999999999
 40
0.9999999999999999
 10
0.5332331730769266
 20
-11.38681891025642
 30
0.0
 10
0.5626748235449552
 20
-11.41229917368705
 30
0.0
 10
0.6185489594165998
 20
-11.46065541996865
 30
0.0
 10
0.6980467591734839
 20
-11.52928934749933
 30
0.0
 10
0.767912084936242
 20
-11.59103761858147
 30
0.0
 10
0.8291627150675529
 20
-11.64497352379533
 30
0.0
 10
0.8808701497610082
 20
-11.69166297427238
 30
0.0
 10
0.9232517672428873
 20
-11.73132914504499
 30
0.0
 10
0.9568251871190661
 20
-11.76319980871924
 30
0.0
 10
0.975909710552492
 20
-11.78244970896658
 30
0.0
 10
0.9840544871794906
 20
-11.79066506410257
 30
0.0
  0
SPLINE
  5
D8
330
1F
100
AcDbEntity
  8
0
  6
Continuous
 62
     7
370
    25
100
AcDbSpline
210
0.0
220
0.0
230
1.0
 70
     8
 71
     3
 72
    15
 73
    11
 74
     0
 42
0.000000001
 43
0.00000001
 40
0.0
 40
0.0
 40
0.0
 40
0.0
 40
0.1508330973407541
 40
0.2899541833158776
 40
0.4171386481520531
 40
0.5352551839062614
 40
0.6487510952936686
 40
0.7624054615861211
 40
0.879826701250102
 40
0.9999999999999999
 40
0.9999999999999999
 40
0.9999999999999999
 40
0.9999999999999999
 10
0.9840544871794906
 20
-11.79066506410257
 30
0.0
 10
1.014954071657
 20
-11.82410503222429
 30
0.0
 10
1.074353924474021
 20
-11.88838839454855
 30
0.0
 10
1.151552793309772
 20
-11.98800738945302
 30
0.0
 10
1.215089959492563
 20
-12.08525584120069
 30
0.0
 10
1.264243516113484
 20
-12.18196363716616
 30
0.0
 10
1.301366259043059
 20
-12.2795260783618
 30
0.0
 10
1.32753828457565
 20
-12.38033587836631
 30
0.0
 10
1.343212884807303
 20
-12.48544643641478
 30
0.0
 10
1.344953131395471
 20
-12.55717156076461
 30
0.0
 10
1.345833333333337
 20
-12.59344951923077
 30
0.0
  0
SPLINE
  5
D9
330
1F
100
AcDbEntity
  8
0
  6
Continuous
 62
     7
370
    25
100
AcDbSpline
210
0.0
220
0.0
230
1.0
 70
     8
 71
     3
 72
    23
 73
    19
 74
     0
 42
0.000000001
 43
0.00000001
 40
0.0
 40
0.0
 40
0.0
 40
0.0
 40
0.0652008752881548
 40
0.1279265440230312
 40
0.1890469100189668
 40
0.2485436930694588
 40
0.3076071270223453
 40
0.3672476600602127
 40
0.4269630557213205
 40
0.4886171282353921
 40
0.5503918546271243
 40
0.6113307342255595
 40
0.6725560854310828
 40
0.7340241906291914
 40
0.7973406208369385
 40
0.8622496273165778
 40
0.9296254660746964
 40
1.0
 40
1.0
 40
1.0
 40
1.0
 10
1.345833333333337
 20
-12.59344951923077
 30
0.0
 10
1.345206828130174
 20
-12.62879794065413
 30
0.0
 10
1.343977601603706
 20
-12.69815285911766
 30
0.0
 10
1.328921933944635
 20
-12.79964345147149
 30
0.0
 10
1.307453435533242
 20
-12.89677435309825
 30
0.0
 10
1.27425937075707
 20
-12.98848864247801
 30
0.0
 10
1.23380264118643
 20
-13.07629178171713
 30
0.0
 10
1.183084287586241
 20
-13.15881607708967
 30
0.0
 10
1.123522535767924
 20
-13.23689670819813
 30
0.0
 10
1.055255622920976
 20
-13.30913788828285
 30
0.0
 10
0.9797443109904522
 20
-13.37469175201369
 30
0.0
 10
0.8987512524775892
 20
-13.43304934983816
 30
0.0
 10
0.8114844564890508
 20
-13.48123098022849
 30
0.0
 10
0.7186895167773023
 20
-13.52090511610564
 30
0.0
 10
0.6204161043697953
 20
-13.55146266604603
 30
0.0
 10
0.516781292524553
 20
-13.57404754339307
 30
0.0
 10
0.4076265647284663
 20
-13.58760263076635
 30
0.0
 10
0.3329849889303109
 20
-13.58901965433081
 30
0.0
 10
0.2948517628205163
 20
-13.58974358974359
 30
0.0
  0
SPLINE
  5
DA
330
1F
100
AcDbEntity
  8
0
  6
Continuous
 62
     7
370
    25
100
AcDbSpline
210
0.0
220
0.0
230
1.0
 70
     8
 71
     3
 72
    23
 73
    19
 74
     0
 42
0.000000001
 43
0.00000001
 40
0.0
 40
0.0
 40
0.0
 40
0.0
 40
0.0635514822357806
 40
0.1258683816453844
 40
0.186240250213673
 40
0.2449766506319387
 40
0.3033576876770608
 40
0.3612303170408039
 40
0.4184890490283513
 40
0.4759367117285731
 40
0.5342037438191212
 40
0.5940594289675383
 40
0.6554686942598733
 40
0.7187716848998875
 40
0.7849746072190582
 40
0.8535223163767012
 40
0.9251824507719301
 40
1.0
 40
1.0
 40
1.0
 40
1.0
 10
0.2948517628205163
 20
-13.58974358974359
 30
0.0
 10
0.2649175050513132
 20
-13.58921253606917
 30
0.0
 10
0.205630507350982
 20
-13.58816074523415
 30
0.0
 10
0.118250435889316
 20
-13.57957374852619
 30
0.0
 10
0.0338750991187279
 20
-13.56571524946595
 30
0.0
 10
-0.0474004616808147
 20
-13.54585188042384
 30
0.0
 10
-0.1259424072628799
 20
-13.52068229781369
 30
0.0
 10
-0.2017539632347227
 20
-13.48993861685143
 30
0.0
 10
-0.274311777254591
 20
-13.45314432199723
 30
0.0
 10
-0.3441648561420827
 20
-13.41105605024591
 30
0.0
 10
-0.4109736277322748
 20
-13.3621860227129
 30
0.0
 10
-0.4755828626640732
 20
-13.30753337111809
 30
0.0
 10
-0.5373508006707182
 20
-13.24625751323087
 30
0.0
 10
-0.5965741006344666
 20
-13.178503364086
 30
0.0
 10
-0.6528738353703776
 20
-13.10407906020743
 30
0.0
 10
-0.7080928972157372
 20
-13.0240210977568
 30
0.0
 10
-0.7597771849026732
 20
-12.9368437096388
 30
0.0
 10
-0.7917048684828109
 20
-12.87568806666826
 30
0.0
 10
-0.8080128205128171
 20
-12.84445112179487
 30
0.0
  0
LINE
  5
DB
330
1F
100
AcDbEntity
  8
0
  6
Continuous
 62
     7
370
    25
100
AcDbLine
 10
-0.8080128205
 20
-12.8444511218
 30
0.0
 11
-0.2555288462
 21
-12.5128205128
 31
0.0
  0
SPLINE
  5
DC
330
1F
100
AcDbEntity
  8
0
  6
Continuous
 62
     7
370
    25
100
AcDbSpline
210
0.0
220
0.0
230
1.0
 70
     8
 71
     3
 72
    15
 73
    11
 74
     0
 42
0.000000001
 43
0.00000001
 40
0.0
 40
0.0
 40
0.0
 40
0.0
 40
0.1604579205559359
 40
0.3076115473748593
 40
0.4421388877557706
 40
0.5662291941703341
 40
0.6812222080152129
 40
0.7895580052436293
 40
0.8950288924051352
 40
0.9999999999999999
 40
0.9999999999999999
 40
0.9999999999999999
 40
0.9999999999999999
 10
-0.2555288461538427
 20
-12.51282051282052
 30
0.0
 10
-0.2351300355204312
 20
-12.54827852661506
 30
0.0
 10
-0.1960237721349287
 20
-12.61625456950772
 30
0.0
 10
-0.1297545528976325
 20
-12.7075889985393
 30
0.0
 10
-0.0618651209328287
 20
-12.7858018183895
 30
0.0
 10
0.009214066598102
 20
-12.84951061245052
 30
0.0
 10
0.0826187133710712
 20
-12.89956724918803
 30
0.0
 10
0.1587033808871447
 20
-12.93534119449476
 30
0.0
 10
0.2375215247688567
 20
-12.95748522617103
 30
0.0
 10
0.2912088637184972
 20
-12.96018952389862
 30
0.0
 10
0.3179887820512856
 20
-12.96153846153847
 30
0.0
  0
SPLINE
  5
DD
330
1F
100
AcDbEntity
  8
0
  6
Continuous
 62
     7
370
    25
100
AcDbSpline
210
0.0
220
0.0
230
1.0
 70
     8
 71
     3
 72
    15
 73
    11
 74
     0
 42
0.000000001
 43
0.00000001
 40
0.0
 40
0.0
 40
0.0
 40
0.0
 40
0.1419858925296711
 40
0.2754733105502128
 40
0.404345842663139
 40
0.5354297108606293
 40
0.6614274010622537
 40
0.7778668404627584
 40
0.8882797492818431
 40
1.0
 40
1.0
 40
1.0
 40
1.0
 10
0.3179887820512856
 20
-12.96153846153847
 30
0.0
 10
0.3452277929939315
 20
-12.96043684591985
 30
0.0
 10
0.3980754413538988
 20
-12.95829955117876
 30
0.0
 10
0.4735086967465245
 20
-12.93855800404704
 30
0.0
 10
0.5426687614936212
 20
-12.90756232680317
 30
0.0
 10
0.6024502106757792
 20
-12.86333576958299
 30
0.0
 10
0.6530693726406787
 20
-12.81229160061849
 30
0.0
 10
0.6904292197154949
 20
-12.75550262869444
 30
0.0
 10
0.7138989276361084
 20
-12.69405833190837
 30
0.0
 10
0.7163802447850861
 20
-12.65137508164093
 30
0.0
 10
0.7176282051282088
 20
-12.62990785256411
 30
0.0
  0
SPLINE
  5
DE
330
1F
100
AcDbEntity
  8
0
  6
Continuous
 62
     7
370
    25
100
AcDbSpline
210
0.0
220
0.0
230
1.0
 70
     8
 71
     3
 72
    19
 73
    15
 74
     0
 42
0.000000001
 43
0.00000001
 40
0.0
 40
0.0
 40
0.0
 40
0.0
 40
0.0763466063531698
 40
0.1550908218146637
 40
0.2383515612585573
 40
0.3284041399329881
 40
0.3793838595513597
 40
0.4396176441748224
 40
0.5098314158313155
 40
0.5888746449969577
 40
0.6774363544094499
 40
0.7755467196196749
 40
0.8826358717258567
 40
1.0
 40
1.0
 40
1.0
 40
1.0
 10
0.7176282051282088
 20
-12.62990785256411
 30
0.0
 10
0.7164757648338668
 20
-12.60993608926048
 30
0.0
 10
0.7141346927040199
 20
-12.56936536409268
 30
0.0
 10
0.6968910768655123
 20
-12.50904321960715
 30
0.0
 10
0.669934045765414
 20
-12.44874850838877
 30
0.0
 10
0.638041977025949
 20
-12.39929315500494
 30
0.0
 10
0.6055878036664518
 20
-12.35788552822757
 30
0.0
 10
0.5745542938791734
 20
-12.32200769272596
 30
0.0
 10
0.5367636883117406
 20
-12.28236896554774
 30
0.0
 10
0.4923118072718994
 20
-12.23891948418027
 30
0.0
 10
0.4417859760937041
 20
-12.1912767518444
 30
0.0
 10
0.3851436333124291
 20
-12.13944543390453
 30
0.0
 10
0.3217361641825486
 20
-12.08388210228185
 30
0.0
 10
0.2769196398909003
 20
-12.04603290973442
 30
0.0
 10
0.2534855769230805
 20
-12.02624198717949
 30
0.0
  0
SPLINE
  5
DF
330
1F
100
AcDbEntity
  8
0
  6
Continuous
 62
     7
370
    25
100
AcDbSpline
210
0.0
220
0.0
230
1.0
 70
     8
 71
     3
 72
    19
 73
    15
 74
     0
 42
0.000000001
 43
0.00000001
 40
0.0
 40
0.0
 40
0.0
 40
0.0
 40
0.1121245812797448
 40
0.2152010090762412
 40
0.3099024524934766
 40
0.3959590963320911
 40
0.473447494000333
 40
0.5421403275660309
 40
0.6025233330554097
 40
0.6547263328340138
 40
0.7478040553141011
 40
0.8352784168250081
 40
0.9189252427194488
 40
1.0
 40
1.0
 40
1.0
 40
1.0
 10
0.2534855769230805
 20
-12.02624198717949
 30
0.0
 10
0.2089364905235363
 20
-11.98854918817538
 30
0.0
 10
0.1234333097117615
 20
-11.91620529812013
 30
0.0
 10
0.0026064672775734
 20
-11.80935564992787
 30
0.0
 10
-0.1062693364444101
 20
-11.70949486314718
 30
0.0
 10
-0.2022537330866884
 20
-11.61538844015431
 30
0.0
 10
-0.2865697123510376
 20
-11.5287743085012
 30
0.0
 10
-0.3586462497904644
 20
-11.44894895507718
 30
0.0
 10
-0.4176915518666379
 20
-11.37529663646034
 30
0.0
 10
-0.4798240005192893
 20
-11.28806039375662
 30
0.0
 10
-0.5388622493090831
 20
-11.18175703789623
 30
0.0
 10
-0.5898880498943844
 20
-11.05386177746765
 30
0.0
 10
-0.6229914356659134
 20
-10.92598274505112
 30
0.0
 10
-0.6267002096321156
 20
-10.84013180615678
 30
0.0
 10
-0.6285256410256376
 20
-10.79787660256411
 30
0.0
  0
SPLINE
  5
E0
330
1F
100
AcDbEntity
  8
0
  6
Continuous
 62
     7
370
    25
100
AcDbSpline
210
0.0
220
0.0
230
1.0
 70
     8
 71
     3
 72
    23
 73
    19
 74
     0
 42
0.000000001
 43
0.00000001
 40
0.0
 40
0.0
 40
0.0
 40
0.0
 40
0.0631728801065216
 40
0.1244573597770012
 40
0.1848409152554599
 40
0.2445668214643688
 40
0.304319172618655
 40
0.3651997864614179
 40
0.4274209827764749
 40
0.4912616890772873
 40
0.5554990019310215
 40
0.6186045181428786
 40
0.6804947639253087
 40
0.7424733052606064
 40
0.8049906647647704
 40
0.8682519711837802
 40
0.9328872172654759
 40
0.9999999999999999
 40
0.9999999999999999
 40
0.9999999999999999
 40
0.9999999999999999
 10
-0.6285256410256376
 20
-10.79787660256411
 30
0.0
 10
-0.6277664465415574
 20
-10.76791148018457
 30
0.0
 10
-0.6262707518560131
 20
-10.70887697027362
 30
0.0
 10
-0.6129289245289834
 20
-10.62207532503468
 30
0.0
 10
-0.5929890552908089
 20
-10.53831903074428
 30
0.0
 10
-0.5640306405981492
 20
-10.45791366852097
 30
0.0
 10
-0.5264461148977418
 20
-10.3809599493177
 30
0.0
 10
-0.4808011683441058
 20
-10.30708115229034
 30
0.0
 10
-0.4263870214156567
 20
-10.23695724120037
 30
0.0
 10
-0.3650659513259654
 20
-10.1706347032571
 30
0.0
 10
-0.2975058320157469
 20
-10.11002345103737
 30
0.0
 10
-0.2253092588808218
 20
-10.05652794770223
 30
0.0
 10
-0.148884870901633
 20
-10.01134486771912
 30
0.0
 10
-0.068700193785713
 20
-9.973862222011679
 30
0.0
 10
0.0157416435466443
 20
-9.945171637807467
 30
0.0
 10
0.1038185619485749
 20
-9.924834321665907
 30
0.0
 10
0.19565689166343
 20
-9.912738334584908
 30
0.0
 10
0.2581233411650407
 20
-9.911094025505605
 30
0.0
 10
0.2899439102564138
 20
-9.910256410256412
 30
0.0
  0
LINE
  5
E1
330
1F
100
AcDbEntity
  8
0
  6
Continuous
 62
     7
370
    25
100
AcDbLine
 10
-12.5599985865
 20
15.0
 30
0.0
 11
-12.2384841634
 21
15.5
 31
0.0
  0
LINE
  5
E2
330
1F
100
AcDbEntity
  8
0
  6
Continuous
 62
     7
370
    25
100
AcDbLine
 10
-12.2384841634
 20
15.5
 30
0.0
 11
-11.4061524327
 21
15.5
 31
0.0
  0
LINE
  5
E3
330
1F
100
AcDbEntity
  8
0
  6
Continuous
 62
     7
370
    25
100
AcDbLine
 10
-11.4061524327
 20
15.5
 30
0.0
 11
-11.4061524327
 21
12.5
 31
0.0
  0
LINE
  5
E4
330
1F
100
AcDbEntity
  8
0
  6
Continuous
 62
     7
370
    25
100
AcDbLine
 10
-11.4061524327
 20
12.5
 30
0.0
 11
-11.9446139711
 21
12.5
 31
0.0
  0
LINE
  5
E5
330
1F
100
AcDbEntity
  8
0
  6
Continuous
 62
     7
370
    25
100
AcDbLine
 10
-11.9446139711
 20
12.5
 30
0.0
 11
-11.9446139711
 21
15.0
 31
0.0
  0
LINE
  5
E6
330
1F
100
AcDbEntity
  8
0
  6
Continuous
 62
     7
370
    25
100
AcDbLine
 10
-11.9446139711
 20
15.0
 30
0.0
 11
-12.5599985865
 21
15.0
 31
0.0
  0
CIRCLE
  5
E7
330
1F
100
AcDbEntity
  8
0
  6
Continuous
 62
     7
370
    25
100
AcDbCircle
 10
-28.25
 20
-13.5
 30
0.0
 40
1.500000000000007
  0
CIRCLE
  5
E8
330
1F
100
AcDbEntity
  8
0
  6
Continuous
 62
     7
370
    25
100
AcDbCircle
 10
28.25
 20
-13.5
 30
0.0
 40
1.500000000000004
  0
LINE
  5
E9
330
1F
100
AcDbEntity
  8
0
  6
Continuous
 62
     7
370
    25
100
AcDbLine
 10
25.15
 20
-8.16
 30
0.0
 11
25.15
 21
2.64
 31
0.0
  0
LINE
  5
EA
330
1F
100
AcDbEntity
  8
0
  6
Continuous
 62
     7
370
    25
100
AcDbLine
 10
12.85
 20
-8.16
 30
0.0
 11
25.15
 21
-8.16
 31
0.0
  0
LINE
  5
EB
330
1F
100
AcDbEntity
  8
0
  6
Continuous
 62
     7
370
    25
100
AcDbLine
 10
12.85
 20
2.64
 30
0.0
 11
12.85
 21
-8.16
 31
0.0
  0
LINE
  5
EC
330
1F
100
AcDbEntity
  8
0
  6
Continuous
 62
     7
370
    25
100
AcDbLine
 10
25.15
 20
2.64
 30
0.0
 11
12.85
 21
2.64
 31
0.0
  0
LINE
  5
ED
330
1F
100
AcDbEntity
  8
0
  6
Continuous
 62
     7
370
    25
100
AcDbLine
 10
23.0
 20
8.15
 30
0.0
 11
23.0
 21
14.85
 31
0.0
  0
LINE
  5
EE
330
1F
100
AcDbEntity
  8
0
  6
Continuous
 62
     7
370
    25
100
AcDbLine
 10
3.0
 20
8.15
 30
0.0
 11
23.0
 21
8.15
 31
0.0
  0
LINE
  5
EF
330
1F
100
AcDbEntity
  8
0
  6
Continuous
 62
     7
370
    25
100
AcDbLine
 10
3.0
 20
14.85
 30
0.0
 11
3.0
 21
8.15
 31
0.0
  0
LINE
  5
F0
330
1F
100
AcDbEntity
  8
0
  6
Continuous
 62
     7
370
    25
100
AcDbLine
 10
23.0
 20
14.85
 30
0.0
 11
3.0
 21
14.85
 31
0.0
  0
LINE
  5
F1
330
1F
100
AcDbEntity
  8
0
  6
Continuous
 62
     7
370
    25
100
AcDbLine
 10
-32.25
 20
14.5
 30
0.0
 11
-32.25
 21
-14.5
 31
0.0
  0
ARC
  5
F2
330
1F
100
AcDbEntity
  8
0
  6
Continuous
 62
     7
370
    25
100
AcDbCircle
 10
-29.25
 20
-14.5
 30
0.0
 40
2.999999999999998
100
AcDbArc
 50
180.0
 51
270.0
  0
LINE
  5
F3
330
1F
100
AcDbEntity
  8
0
  6
Continuous
 62
     7
370
    25
100
AcDbLine
 10
-29.25
 20
-17.5
 30
0.0
 11
29.25
 21
-17.5
 31
0.0
  0
ARC
  5
F4
330
1F
100
AcDbEntity
  8
0
  6
Continuous
 62
     7
370
    25
100
AcDbCircle
 10
29.25
 20
-14.5
 30
0.0
 40
3.0
100
AcDbArc
 50
270.0
 51
0.0
  0
LINE
  5
F5
330
1F
100
AcDbEntity
  8
0
  6
Continuous
 62
     7
370
    25
100
AcDbLine
 10
32.25
 20
-14.5
 30
0.0
 11
32.25
 21
14.5
 31
0.0
  0
ARC
  5
F6
330
1F
100
AcDbEntity
  8
0
  6
Continuous
 62
     7
370
    25
100
AcDbCircle
 10
29.25
 20
14.5
 30
0.0
 40
3.000000000000004
100
AcDbArc
 50
0.0
 51
90.0
  0
LINE
  5
F7
330
1F
100
AcDbEntity
  8
0
  6
Continuous
 62
     7
370
    25
100
AcDbLine
 10
29.25
 20
17.5
 30
0.0
 11
-29.25
 21
17.5
 31
0.0
  0
ARC
  5
F8
330
1F
100
AcDbEntity
  8
0
  6
Continuous
 62
     7
370
    25
100
AcDbCircle
 10
-29.25
 20
14.5
 30
0.0
 40
3.000000000000002
100
AcDbArc
 50
90.0
 51
180.0
  0
ARC
  5
F9
330
1F
100
AcDbEntity
  8
0
  6
Continuous
 62
     7
370
    25
100
AcDbCircle
 10
4.0
 20
-2.21
 30
0.0
 40
5.050000000000001
100
AcDbArc
 50
25.711481934
 51
154.288518066
  0
LINE
  5
FA
330
1F
100
AcDbEntity
  8
0
  6
Continuous
 62
     7
370
    25
100
AcDbLine
 10
8.55
 20
-4.40089023
 30
0.0
 11
8.55
 21
-0.01910977
 31
0.0
  0
ARC
  5
FB
330
1F
100
AcDbEntity
  8
0
  6
Continuous
 62
     7
370
    25
100
AcDbCircle
 10
4.0
 20
-2.21
 30
0.0
 40
5.05
100
AcDbArc
 50
205.711481934
 51
334.288518066
  0
LINE
  5
FC
330
1F
100
AcDbEntity
  8
0
  6
Continuous
 62
     7
370
    25
100
AcDbLine
 10
-0.55
 20
-0.01910977
 30
0.0
 11
-0.55
 21
-4.40089023
 31
0.0
  0
CIRCLE
  5
FD
330
1F
100
AcDbEntity
  8
0
  6
Continuous
 62
     7
370
    25
100
AcDbCircle
 10
28.25
 20
13.5
 30
0.0
 40
1.500000000000007
  0
CIRCLE
  5
FE
330
1F
100
AcDbEntity
  8
0
  6
Continuous
 62
     7
370
    25
100
AcDbCircle
 10
-28.25
 20
13.5
 30
0.0
 40
1.500000000000004
  0
LINE
  5
FF
330
1F
100
AcDbEntity
  8
0
  6
Continuous
 62
     7
370
    25
100
AcDbLine
 10
-11.75
 20
-7.81
 30
0.0
 11
-11.75
 21
7.39
 31
0.0
  0
LINE
  5
100
330
1F
100
AcDbEntity
  8
0
  6
Continuous
 62
     7
370
    25
100
AcDbLine
 10
-25.25
 20
-7.81
 30
0.0
 11
-11.75
 21
-7.81
 31
0.0
  0
LINE
  5
101
330
1F
100
AcDbEntity
  8
0
  6
Continuous
 62
     7
370
    25
100
AcDbLine
 10
-25.25
 20
7.39
 30
0.0
 11
-25.25
 21
-7.81
 31
0.0
  0
LINE
  5
102
330
1F
100
AcDbEntity
  8
0
  6
Continuous
 62
     7
370
    25
100
AcDbLine
 10
-11.75
 20
7.39
 30
0.0
 11
-25.25
 21
7.39
 31
0.0
  0
ARC
  5
103
330
1F
100
AcDbEntity
  8
0
  6
Continuous
 62
     7
370
    25
100
AcDbCircle
 10
-5.0
 20
6.49
 30
0.0
 40
4.000000000000006
100
AcDbArc
 50
28.9550243719
 51
151.0449756281
  0
LINE
  5
104
330
1F
100
AcDbEntity
  8
0
  6
Continuous
 62
     7
370
    25
100
AcDbLine
 10
-1.5
 20
4.5535083269
 30
0.0
 11
-1.5
 21
8.4264916731
 31
0.0
  0
ARC
  5
105
330
1F
100
AcDbEntity
  8
0
  6
Continuous
 62
     7
370
    25
100
AcDbCircle
 10
-5.0
 20
6.49
 30
0.0
 40
4.000000000000007
100
AcDbArc
 50
208.9550243719
 51
331.0449756281
  0
LINE
  5
106
330
1F
100
AcDbEntity
  8
0
  6
Continuous
 62
     7
370
    25
100
AcDbLine
 10
-8.5
 20
8.4264916731
 30
0.0
 11
-8.5
 21
4.5535083269
 31
0.0
  0
LINE
  5
107
330
1F
100
AcDbEntity
  8
0
  6
Continuous
 62
     7
370
    25
100
AcDbLine
 10
-17.5341051793
 20
-12.1461338141
 30
0.0
 11
-16.0799785767
 21
-9.9102564103
 31
0.0
  0
LINE
  5
108
330
1F
100
AcDbEntity
  8
0
  6
Continuous
 62
     7
370
    25
100
AcDbLine
 10
-16.0799785767
 20
-9.9102564103
 30
0.0
 11
-15.4251308203
 21
-9.9102564103
 31
0.0
  0
LINE
  5
109
330
1F
100
AcDbEntity
  8
0
  6
Continuous
 62
     7
370
    25
100
AcDbLine
 10
-15.4251308203
 20
-9.9102564103
 30
0.0
 11
-15.4251308203
 21
-12.1987179487
 31
0.0
  0
LINE
  5
10A
330
1F
100
AcDbEntity
  8
0
  6
Continuous
 62
     7
370
    25
100
AcDbLine
 10
-15.4251308203
 20
-12.1987179487
 30
0.0
 11
-15.1110282562
 21
-12.1987179487
 31
0.0
  0
LINE
  5
10B
330
1F
100
AcDbEntity
  8
0
  6
Continuous
 62
     7
370
    25
100
AcDbLine
 10
-15.1110282562
 20
-12.1987179487
 30
0.0
 11
-15.1110282562
 21
-12.7820512821
 31
0.0
  0
LINE
  5
10C
330
1F
100
AcDbEntity
  8
0
  6
Continuous
 62
     7
370
    25
100
AcDbLine
 10
-15.1110282562
 20
-12.7820512821
 30
0.0
 11
-15.4251308203
 21
-12.7820512821
 31
0.0
  0
LINE
  5
10D
330
1F
100
AcDbEntity
  8
0
  6
Continuous
 62
     7
370
    25
100
AcDbLine
 10
-15.4251308203
 20
-12.7820512821
 30
0.0
 11
-15.4251308203
 21
-13.5
 31
0.0
  0
LINE
  5
10E
330
1F
100
AcDbEntity
  8
0
  6
Continuous
 62
     7
370
    25
100
AcDbLine
 10
-15.4251308203
 20
-13.5
 30
0.0
 11
-16.0533359485
 21
-13.5
 31
0.0
  0
LINE
  5
10F
330
1F
100
AcDbEntity
  8
0
  6
Continuous
 62
     7
370
    25
100
AcDbLine
 10
-16.0533359485
 20
-13.5
 30
0.0
 11
-16.0533359485
 21
-12.7820512821
 31
0.0
  0
LINE
  5
110
330
1F
100
AcDbEntity
  8
0
  6
Continuous
 62
     7
370
    25
100
AcDbLine
 10
-16.0533359485
 20
-12.7820512821
 30
0.0
 11
-17.5341051793
 21
-12.7820512821
 31
0.0
  0
LINE
  5
111
330
1F
100
AcDbEntity
  8
0
  6
Continuous
 62
     7
370
    25
100
AcDbLine
 10
-17.5341051793
 20
-12.7820512821
 30
0.0
 11
-17.5341051793
 21
-12.1461338141
 31
0.0
  0
LINE
  5
112
330
1F
100
AcDbEntity
  8
0
  6
Continuous
 62
     7
370
    25
100
AcDbLine
 10
2.1378205128
 20
-13.5
 30
0.0
 11
2.1378205128
 21
-10.0
 31
0.0
  0
LINE
  5
113
330
1F
100
AcDbEntity
  8
0
  6
Continuous
 62
     7
370
    25
100
AcDbLine
 10
2.1378205128
 20
-10.0
 30
0.0
 11
2.766025641
 21
-10.0
 31
0.0
  0
LINE
  5
114
330
1F
100
AcDbEntity
  8
0
  6
Continuous
 62
     7
370
    25
100
AcDbLine
 10
2.766025641
 20
-10.0
 30
0.0
 11
2.766025641
 21
-11.3461538462
 31
0.0
  0
LINE
  5
115
330
1F
100
AcDbEntity
  8
0
  6
Continuous
 62
     7
370
    25
100
AcDbLine
 10
2.766025641
 20
-11.3461538462
 30
0.0
 11
3.9775641026
 21
-11.3461538462
 31
0.0
  0
LINE
  5
116
330
1F
100
AcDbEntity
  8
0
  6
Continuous
 62
     7
370
    25
100
AcDbLine
 10
3.9775641026
 20
-11.3461538462
 30
0.0
 11
3.9775641026
 21
-10.0
 31
0.0
  0
LINE
  5
117
330
1F
100
AcDbEntity
  8
0
  6
Continuous
 62
     7
370
    25
100
AcDbLine
 10
3.9775641026
 20
-10.0
 30
0.0
 11
4.6057692308
 21
-10.0
 31
0.0
  0
LINE
  5
118
330
1F
100
AcDbEntity
  8
0
  6
Continuous
 62
     7
370
    25
100
AcDbLine
 10
4.6057692308
 20
-10.0
 30
0.0
 11
4.6057692308
 21
-13.5
 31
0.0
  0
LINE
  5
119
330
1F
100
AcDbEntity
  8
0
  6
Continuous
 62
     7
370
    25
100
AcDbLine
 10
4.6057692308
 20
-13.5
 30
0.0
 11
3.9775641026
 21
-13.5
 31
0.0
  0
LINE
  5
11A
330
1F
100
AcDbEntity
  8
0
  6
Continuous
 62
     7
370
    25
100
AcDbLine
 10
3.9775641026
 20
-13.5
 30
0.0
 11
3.9775641026
 21
-11.9743589744
 31
0.0
  0
LINE
  5
11B
330
1F
100
AcDbEntity
  8
0
  6
Continuous
 62
     7
370
    25
100
AcDbLine
 10
3.9775641026
 20
-11.9743589744
 30
0.0
 11
2.766025641
 21
-11.9743589744
 31
0.0
  0
LINE
  5
11C
330
1F
100
AcDbEntity
  8
0
  6
Continuous
 62
     7
370
    25
100
AcDbLine
 10
2.766025641
 20
-11.9743589744
 30
0.0
 11
2.766025641
 21
-13.5
 31
0.0
  0
LINE
  5
11D
330
1F
100
AcDbEntity
  8
0
  6
Continuous
 62
     7
370
    25
100
AcDbLine
 10
2.766025641
 20
-13.5
 30
0.0
 11
2.1378205128
 21
-13.5
 31
0.0
  0
LINE
  5
11E
330
1F
100
AcDbEntity
  8
0
  6
Continuous
 62
     7
370
    25
100
AcDbLine
 10
15.2491404324
 20
-12.0879407051
 30
0.0
 11
15.2491404324
 21
-10.0
 31
0.0
  0
LINE
  5
11F
330
1F
100
AcDbEntity
  8
0
  6
Continuous
 62
     7
370
    25
100
AcDbLine
 10
15.2491404324
 20
-10.0
 30
0.0
 11
15.8773455606
 21
-10.0
 31
0.0
  0
LINE
  5
120
330
1F
100
AcDbEntity
  8
0
  6
Continuous
 62
     7
370
    25
100
AcDbLine
 10
15.8773455606
 20
-10.0
 30
0.0
 11
15.8773455606
 21
-12.2772435897
 31
0.0
  0
SPLINE
  5
121
330
1F
100
AcDbEntity
  8
0
  6
Continuous
 62
     7
370
    25
100
AcDbSpline
210
0.0
220
0.0
230
1.0
 70
     8
 71
     3
 72
    23
 73
    19
 74
     0
 42
0.000000001
 43
0.00000001
 40
0.0
 40
0.0
 40
0.0
 40
0.0
 40
0.0722187479928813
 40
0.1394897657276691
 40
0.2003699977303418
 40
0.2564327255100096
 40
0.3078035215508904
 40
0.353658516531847
 40
0.3944199056460619
 40
0.4301557059443434
 40
0.4966662725087356
 40
0.5620176176150523
 40
0.6287545482746033
 40
0.6974096406803542
 40
0.7680791946526333
 40
0.841338126089808
 40
0.9183362465478038
 40
1.0
 40
1.0
 40
1.0
 40
1.0
 10
15.87734556056581
 20
-12.27724358974359
 30
0.0
 10
15.87737971926055
 20
-12.30085306355618
 30
0.0
 10
15.87744569642657
 20
-12.34645451833904
 30
0.0
 10
15.8807485479115
 20
-12.41187767583023
 30
0.0
 10
15.88377088479161
 20
-12.47201525572986
 30
0.0
 10
15.88922403836816
 20
-12.52680142023822
 30
0.0
 10
15.89728021529329
 20
-12.57625960491928
 30
0.0
 10
15.90508122330908
 20
-12.62070751157785
 30
0.0
 10
15.91563911625189
 20
-12.65934935069824
 30
0.0
 10
15.93150594138183
 20
-12.70333388029835
 30
0.0
 10
15.95595151030063
 20
-12.75275290176003
 30
0.0
 10
15.99589421356459
 20
-12.80425853966423
 30
0.0
 10
16.04198467614407
 20
-12.85126490999305
 30
0.0
 10
16.09722675020222
 20
-12.89039123162996
 30
0.0
 10
16.15931395603616
 20
-12.92204089925645
 30
0.0
 10
16.22790515202459
 20
-12.94548980038011
 30
0.0
 10
16.30290364899639
 20
-12.95852427595286
 30
0.0
 10
16.35476099561709
 20
-12.96051422741403
 30
0.0
 10
16.38145213107863
 20
-12.96153846153847
 30
0.0
  0
SPLINE
  5
122
330
1F
100
AcDbEntity
  8
0
  6
Continuous
 62
     7
370
    25
100
AcDbSpline
210
0.0
220
0.0
230
1.0
 70
     8
 71
     3
 72
    23
 73
    19
 74
     0
 42
0.000000001
 43
0.00000001
 40
0.0
 40
0.0
 40
0.0
 40
0.0
 40
0.078832604010472
 40
0.1537102312098448
 40
0.2246777586657761
 40
0.2948087751910958
 40
0.3627147868294581
 40
0.4271032430309819
 40
0.4886497655514117
 40
0.5509002465387027
 40
0.5850458333883306
 40
0.6252721895341637
 40
0.6714658644313027
 40
0.7245499928849677
 40
0.7832647317228382
 40
0.8490731308598453
 40
0.9212962952783866
 40
1.0
 40
1.0
 40
1.0
 40
1.0
 10
16.38145213107863
 20
-12.96153846153847
 30
0.0
 10
16.40980816865352
 20
-12.96071101185259
 30
0.0
 10
16.46509764115721
 20
-12.959097625055
 30
0.0
 10
16.54462274542628
 20
-12.94326048708436
 30
0.0
 10
16.61830320553528
 20
-12.91804233958244
 30
0.0
 10
16.68457895486459
 20
-12.88204961616839
 30
0.0
 10
16.74338403837343
 20
-12.8389060292064
 30
0.0
 10
16.79316130932028
 20
-12.78970882020304
 30
0.0
 10
16.832445348707
 20
-12.73435986522314
 30
0.0
 10
16.85804922404196
 20
-12.68329623941391
 30
0.0
 10
16.87242453915388
 20
-12.63629661859535
 30
0.0
 10
16.88319955395134
 20
-12.59430424086262
 30
0.0
 10
16.89109883180355
 20
-12.54475739177767
 30
0.0
 10
16.89826531629701
 20
-12.48842985226742
 30
0.0
 10
16.90257182140063
 20
-12.4247381774266
 30
0.0
 10
16.90724152413073
 20
-12.35419458401074
 30
0.0
 10
16.90895301349524
 20
-12.27631639384056
 30
0.0
 10
16.90924472438839
 20
-12.22208834839877
 30
0.0
 10
16.9093968426171
 20
-12.19381009615385
 30
0.0
  0
LINE
  5
123
330
1F
100
AcDbEntity
  8
0
  6
Continuous
 62
     7
370
    25
100
AcDbLine
 10
16.9093968426
 20
-12.1938100962
 30
0.0
 11
16.9093968426
 21
-10.0
 31
0.0
  0
LINE
  5
124
330
1F
100
AcDbEntity
  8
0
  6
Continuous
 62
     7
370
    25
100
AcDbLine
 10
16.9093968426
 20
-10.0
 30
0.0
 11
17.5376019708
 21
-10.0
 31
0.0
  0
LINE
  5
125
330
1F
100
AcDbEntity
  8
0
  6
Continuous
 62
     7
370
    25
100
AcDbLine
 10
17.5376019708
 20
-10.0
 30
0.0
 11
17.5376019708
 21
-12.0879407051
 31
0.0
  0
SPLINE
  5
126
330
1F
100
AcDbEntity
  8
0
  6
Continuous
 62
     7
370
    25
100
AcDbSpline
210
0.0
220
0.0
230
1.0
 70
     8
 71
     3
 72
    27
 73
    23
 74
     0
 42
0.000000001
 43
0.00000001
 40
0.0
 40
0.0
 40
0.0
 40
0.0
 40
0.0585404168084433
 40
0.1125675123403492
 40
0.1617798781047808
 40
0.2064871555823916
 40
0.2464570299480989
 40
0.2819997074061421
 40
0.3132129382361468
 40
0.3398064735188103
 40
0.3894126122316829
 40
0.4404734799435058
 40
0.4939547398756055
 40
0.5499778768088321
 40
0.6064880836267151
 40
0.661318500098984
 40
0.7146910989596489
 40
0.767918471329797
 40
0.8219387900584595
 40
0.8781073740704569
 40
0.9372026550360452
 40
1.0
 40
1.0
 40
1.0
 40
1.0
 10
17.53760197082222
 20
-12.08794070512821
 30
0.0
 10
17.53751473312185
 20
-12.13024228400475
 30
0.0
 10
17.53734698353191
 20
-12.21158409470253
 30
0.0
 10
17.53477085556088
 20
-12.32847800088928
 30
0.0
 10
17.52928674511111
 20
-12.43524183354011
 30
0.0
 10
17.52468072490744
 20
-12.53190678881619
 30
0.0
 10
17.51576649845383
 20
-12.61834264303984
 30
0.0
 10
17.50647996566963
 20
-12.69491850196437
 30
0.0
 10
17.4946434806816
 20
-12.76136299809598
 30
0.0
 10
17.47703150274613
 20
-12.83700198219206
 30
0.0
 10
17.44663844278928
 20
-12.92409750229815
 30
0.0
 10
17.39764084556368
 20
-13.02438421809751
 30
0.0
 10
17.33544156718929
 20
-13.12257098754151
 30
0.0
 10
17.26192512860239
 20
-13.21757768844663
 30
0.0
 10
17.17891834470228
 20
-13.30583585180488
 30
0.0
 10
17.08826165353917
 20
-13.3833150952484
 30
0.0
 10
16.99139536456646
 20
-13.44885418034401
 30
0.0
 10
16.88730729450898
 20
-13.50085059747515
 30
0.0
 10
16.77608602762905
 20
-13.54140388298579
 30
0.0
 10
16.656631112512
 20
-13.56865364829925
 30
0.0
 10
16.5290240079759
 20
-13.58706393178582
 30
0.0
 10
16.44088336895723
 20
-13.58883246606782
 30
0.0
 10
16.39547456697607
 20
-13.58974358974359
 30
0.0
  0
SPLINE
  5
127
330
1F
100
AcDbEntity
  8
0
  6
Continuous
 62
     7
370
    25
100
AcDbSpline
210
0.0
220
0.0
230
1.0
 70
     8
 71
     3
 72
    31
 73
    27
 74
     0
 42
0.000000001
 43
0.00000001
 40
0.0
 40
0.0
 40
0.0
 40
0.0
 40
0.0417149324333619
 40
0.0823027059399518
 40
0.1215718144257358
 40
0.160067124457445
 40
0.197993762905223
 40
0.2355661717952775
 40
0.273004880533644
 40
0.3100903331095226
 40
0.3468461432534283
 40
0.3824835718335563
 40
0.4172710082891831
 40
0.4513316191888081
 40
0.4848527413222464
 40
0.5180308512419188
 40
0.5510685457911251
 40
0.5841710000647793
 40
0.6194667444415156
 40
0.6591579072517051
 40
0.7034715469577031
 40
0.7528401139219635
 40
0.8068443124206154
 40
0.8661419381570219
 40
0.9305017472849197
 40
0.9999999999999999
 40
0.9999999999999999
 40
0.9999999999999999
 40
0.9999999999999999
 10
16.39547456697607
 20
-13.58974358974359
 30
0.0
 10
16.36530405558235
 20
-13.58923540732577
 30
0.0
 10
16.30577825552832
 20
-13.58823277384038
 30
0.0
 10
16.21823512391268
 20
-13.57939216548812
 30
0.0
 10
16.13360749041845
 20
-13.56636443298228
 30
0.0
 10
16.05205436974296
 20
-13.54735831282867
 30
0.0
 10
15.97329270625152
 20
-13.52280595547085
 30
0.0
 10
15.89734342509394
 20
-13.49258371343841
 30
0.0
 10
15.82448877210291
 20
-13.45686016257525
 30
0.0
 10
15.75513643174462
 20
-13.41596388224774
 30
0.0
 10
15.68937174797369
 20
-13.37174159515681
 30
0.0
 10
15.62926622170606
 20
-13.32271932838535
 30
0.0
 10
15.57275148069762
 20
-13.27252246365828
 30
0.0
 10
15.52146021225114
 20
-13.21903850384271
 30
0.0
 10
15.47500717325237
 20
-13.1628289392868
 30
0.0
 10
15.43348803382985
 20
-13.10376638072107
 30
0.0
 10
15.39696447754456
 20
-13.04185607424686
 30
0.0
 10
15.36451777444114
 20
-12.97598209036028
 30
0.0
 10
15.33674656337341
 20
-12.90279629212134
 30
0.0
 10
15.31333438917732
 20
-12.81969543064576
 30
0.0
 10
15.29288096284635
 20
-12.72537698286263
 30
0.0
 10
15.27768118325306
 20
-12.61962845434072
 30
0.0
 10
15.2639009738014
 20
-12.50279838044736
 30
0.0
 10
15.25517886100279
 20
-12.37458240099339
 30
0.0
 10
15.25061593118092
 20
-12.23497683737406
 30
0.0
 10
15.24964469302312
 20
-12.13819119427224
 30
0.0
 10
15.24914043236068
 20
-12.08794070512821
 30
0.0
  0
LINE
  5
128
330
1F
100
AcDbEntity
  8
0
  6
Continuous
 62
     7
370
    25
100
AcDbLine
 10
21.8424897913
 20
-13.5
 30
0.0
 11
20.8581147913
 21
-13.5
 31
0.0
  0
LINE
  5
129
330
1F
100
AcDbEntity
  8
0
  6
Continuous
 62
     7
370
    25
100
AcDbLine
 10
20.8581147913
 20
-13.5
 30
0.0
 11
20.8581147913
 21
-10.0
 31
0.0
  0
LINE
  5
12A
330
1F
100
AcDbEntity
  8
0
  6
Continuous
 62
     7
370
    25
100
AcDbLine
 10
20.8581147913
 20
-10.0
 30
0.0
 11
21.4190122272
 21
-10.0
 31
0.0
  0
SPLINE
  5
12B
330
1F
100
AcDbEntity
  8
0
  6
Continuous
 62
     7
370
    25
100
AcDbSpline
210
0.0
220
0.0
230
1.0
 70
     8
 71
     3
 72
    15
 73
    11
 74
     0
 42
0.000000001
 43
0.00000001
 40
0.0
 40
0.0
 40
0.0
 40
0.0
 40
0.1639957318060737
 40
0.3173286319587147
 40
0.4580598946275429
 40
0.5891583945859027
 40
0.7079520097453106
 40
0.8163219998754475
 40
0.9135847296003147
 40
1.0
 40
1.0
 40
1.0
 40
1.0
 10
21.41901222723248
 20
-10.0
 30
0.0
 10
21.4582785548818
 20
-9.999995518740237
 30
0.0
 10
21.53425815445905
 20
-9.999986847587547
 30
0.0
 10
21.64387688776819
 20
-10.00383629760989
 30
0.0
 10
21.7455390053307
 20
-10.00881599246145
 30
0.0
 10
21.83892097888739
 20
-10.01438711300598
 30
0.0
 10
21.92418175102499
 20
-10.02398726680773
 30
0.0
 10
22.00119166883449
 20
-10.03410478027155
 30
0.0
 10
22.07010459859758
 20
-10.04630587790651
 30
0.0
 10
22.11270971837351
 20
-10.05725064050122
 30
0.0
 10
22.13275421441196
 20
-10.06239983974359
 30
0.0
  0
SPLINE
  5
12C
330
1F
100
AcDbEntity
  8
0
  6
Continuous
 62
     7
370
    25
100
AcDbSpline
210
0.0
220
0.0
230
1.0
 70
     8
 71
     3
 72
    23
 73
    19
 74
     0
 42
0.000000001
 43
0.00000001
 40
0.0
 40
0.0
 40
0.0
 40
0.0
 40
0.068749766315284
 40
0.1349091121452282
 40
0.199721070054529
 40
0.2629736746369454
 40
0.3253570233490419
 40
0.387336140988733
 40
0.4494074874297889
 40
0.5111175193516629
 40
0.5724725853513687
 40
0.633077171967721
 40
0.6928610080890985
 40
0.752560696754616
 40
0.8127375856307909
 40
0.8734793127278788
 40
0.9357764600655797
 40
1.0
 40
1.0
 40
1.0
 40
1.0
 10
22.13275421441196
 20
-10.06239983974359
 30
0.0
 10
22.15907467282387
 20
-10.06966287699342
 30
0.0
 10
22.21072386184543
 20
-10.08391528771956
 30
0.0
 10
22.28470198292778
 20
-10.11269864712792
 30
0.0
 10
22.35488055014858
 20
-10.14469339183092
 30
0.0
 10
22.42117387740038
 20
-10.18119341156728
 30
0.0
 10
22.48317489724309
 20
-10.22263936385096
 30
0.0
 10
22.54064798468365
 20
-10.26936017623308
 30
0.0
 10
22.59483269200561
 20
-10.31948047731239
 30
0.0
 10
22.64380504395417
 20
-10.37439710566209
 30
0.0
 10
22.68806798131792
 20
-10.43242669624194
 30
0.0
 10
22.72652453792194
 20
-10.49355404371748
 30
0.0
 10
22.75993835664314
 20
-10.55684447104353
 30
0.0
 10
22.78667816376529
 20
-10.62309444616684
 30
0.0
 10
22.80682610607013
 20
-10.69199887002691
 30
0.0
 10
22.82156222701363
 20
-10.7632635100686
 30
0.0
 10
22.83111322883492
 20
-10.83711386515371
 30
0.0
 10
22.83201567322861
 20
-10.88735667549726
 30
0.0
 10
22.83247376569402
 20
-10.91286057692308
 30
0.0
  0
SPLINE
  5
12D
330
1F
100
AcDbEntity
  8
0
  6
Continuous
 62
     7
370
    25
100
AcDbSpline
210
0.0
220
0.0
230
1.0
 70
     8
 71
     3
 72
    15
 73
    11
 74
     0
 42
0.000000001
 43
0.00000001
 40
0.0
 40
0.0
 40
0.0
 40
0.0
 40
0.1232695606004614
 40
0.2426409842839842
 40
0.3594273839391151
 40
0.4755502191345201
 40
0.5938976740482408
 40
0.7202015971643216
 40
0.8544653148776593
 40
0.9999999999999999
 40
0.9999999999999999
 40
0.9999999999999999
 40
0.9999999999999999
 10
22.83247376569402
 20
-10.91286057692308
 30
0.0
 10
22.8312759899777
 20
-10.94562639588805
 30
0.0
 10
22.82891831564721
 20
-11.01012188468353
 30
0.0
 10
22.81385733146204
 20
-11.10485408912827
 30
0.0
 10
22.78561563953341
 20
-11.19438963850384
 30
0.0
 10
22.74866207251886
 20
-11.28037863920976
 30
0.0
 10
22.69841677462702
 20
-11.36250035164996
 30
0.0
 10
22.63461496384479
 20
-11.44071572923055
 30
0.0
 10
22.55829002052569
 20
-11.51743314068475
 30
0.0
 10
22.49974457561727
 20
-11.56342005398696
 30
0.0
 10
22.46929267595042
 20
-11.58733974358975
 30
0.0
  0
SPLINE
  5
12E
330
1F
100
AcDbEntity
  8
0
  6
Continuous
 62
     7
370
    25
100
AcDbSpline
210
0.0
220
0.0
230
1.0
 70
     8
 71
     3
 72
    23
 73
    19
 74
     0
 42
0.000000001
 43
0.00000001
 40
0.0
 40
0.0
 40
0.0
 40
0.0
 40
0.072791182267371
 40
0.1427233695565067
 40
0.2094912699928581
 40
0.2747163184918673
 40
0.3368863886768216
 40
0.3976856020239931
 40
0.4570537497761173
 40
0.5153125941662597
 40
0.5728222022221217
 40
0.630776007398509
 40
0.6895054947089531
 40
0.7487432781628005
 40
0.8092253247292982
 40
0.8707153202239956
 40
0.9342652493244611
 40
1.0
 40
1.0
 40
1.0
 40
1.0
 10
22.46929267595042
 20
-11.58733974358975
 30
0.0
 10
22.49396943454636
 20
-11.59993701485462
 30
0.0
 10
22.54235373092456
 20
-11.62463677856413
 30
0.0
 10
22.61104521729469
 20
-11.66523581679648
 30
0.0
 10
22.67464603541235
 20
-11.70841804299078
 30
0.0
 10
22.7334413520592
 20
-11.75331461338792
 30
0.0
 10
22.7861978681818
 20
-11.8018287586648
 30
0.0
 10
22.835093988908
 20
-11.85116502714739
 30
0.0
 10
22.87771743343126
 20
-11.9041501818436
 30
0.0
 10
22.91583260217176
 20
-11.95889573094233
 30
0.0
 10
22.94896168733245
 20
-12.01619439634057
 30
0.0
 10
22.97781346734075
 20
-12.07594941350325
 30
0.0
 10
23.00218353099347
 20
-12.13836491857482
 30
0.0
 10
23.02282073121664
 20
-12.20312326716908
 30
0.0
 10
23.03821196061488
 20
-12.27044719770745
 30
0.0
 10
23.0482473694869
 20
-12.34036078802667
 30
0.0
 10
23.05593110579704
 20
-12.41262559723178
 30
0.0
 10
23.05652882826902
 20
-12.46185058063825
 30
0.0
 10
23.05683274005299
 20
-12.48687900641026
 30
0.0
  0
SPLINE
  5
12F
330
1F
100
AcDbEntity
  8
0
  6
Continuous
 62
     7
370
    25
100
AcDbSpline
210
0.0
220
0.0
230
1.0
 70
     8
 71
     3
 72
    23
 73
    19
 74
     0
 42
0.000000001
 43
0.00000001
 40
0.0
 40
0.0
 40
0.0
 40
0.0
 40
0.0802588853381367
 40
0.1583905883453951
 40
0.2362576248303798
 40
0.3151047653520857
 40
0.3932216786245978
 40
0.4687312831158785
 40
0.5427812639155812
 40
0.6177081693395513
 40
0.6563652025204888
 40
0.6970796727899435
 40
0.740696949681166
 40
0.7867286654533119
 40
0.8355790921841475
 40
0.8872495053564252
 40
0.9418976668361583
 40
1.0
 40
1.0
 40
1.0
 40
1.0
 10
23.05683274005299
 20
-12.48687900641026
 30
0.0
 10
23.05486055570066
 20
-12.53468186861788
 30
0.0
 10
23.05096845779056
 20
-12.6290206254765
 30
0.0
 10
23.02251133700697
 20
-12.76753158691225
 30
0.0
 10
22.97317573173816
 20
-12.89885254128814
 30
0.0
 10
22.90692818719937
 20
-13.02246156291348
 30
0.0
 10
22.82529846615272
 20
-13.1347803735483
 30
0.0
 10
22.73144769574127
 20
-13.23317067654843
 30
0.0
 10
22.62632073796259
 20
-13.31645588375326
 30
0.0
 10
22.52932841312213
 20
-13.37266693756405
 30
0.0
 10
22.44543769036214
 20
-13.41038981108938
 30
0.0
 10
22.37595257208665
 20
-13.43371247035061
 30
0.0
 10
22.3013270279039
 20
-13.45531854664534
 30
0.0
 10
22.22019409707373
 20
-13.47049077953997
 30
0.0
 10
22.13402460898621
 20
-13.48437807545881
 30
0.0
 10
22.04197840568383
 20
-13.49295237961456
 30
0.0
 10
21.94422751985775
 20
-13.49876297427324
 30
0.0
 10
21.87708798601416
 20
-13.49957932167802
 30
0.0
 10
21.84248979133504
 20
-13.5
 30
0.0
  0
LINE
  5
130
330
1F
100
AcDbEntity
  8
0
  6
Continuous
 62
     7
370
    25
100
AcDbLine
 10
-19.5982077434
 20
-10.6282051282
 30
0.0
 11
-19.5982077434
 21
-10.0
 31
0.0
  0
LINE
  5
131
330
1F
100
AcDbEntity
  8
0
  6
Continuous
 62
     7
370
    25
100
AcDbLine
 10
-19.5982077434
 20
-10.0
 30
0.0
 11
-17.7135923588
 21
-10.0
 31
0.0
  0
LINE
  5
132
330
1F
100
AcDbEntity
  8
0
  6
Continuous
 62
     7
370
    25
100
AcDbLine
 10
-17.7135923588
 20
-10.0
 30
0.0
 11
-17.7135923588
 21
-10.6282051282
 31
0.0
  0
LINE
  5
133
330
1F
100
AcDbEntity
  8
0
  6
Continuous
 62
     7
370
    25
100
AcDbLine
 10
-17.7135923588
 20
-10.6282051282
 30
0.0
 11
-18.341797487
 21
-10.6282051282
 31
0.0
  0
LINE
  5
134
330
1F
100
AcDbEntity
  8
0
  6
Continuous
 62
     7
370
    25
100
AcDbLine
 10
-18.341797487
 20
-10.6282051282
 30
0.0
 11
-18.341797487
 21
-13.5
 31
0.0
  0
LINE
  5
135
330
1F
100
AcDbEntity
  8
0
  6
Continuous
 62
     7
370
    25
100
AcDbLine
 10
-18.341797487
 20
-13.5
 30
0.0
 11
-18.9700026152
 21
-13.5
 31
0.0
  0
LINE
  5
136
330
1F
100
AcDbEntity
  8
0
  6
Continuous
 62
     7
370
    25
100
AcDbLine
 10
-18.9700026152
 20
-13.5
 30
0.0
 11
-18.9700026152
 21
-10.6282051282
 31
0.0
  0
LINE
  5
137
330
1F
100
AcDbEntity
  8
0
  6
Continuous
 62
     7
370
    25
100
AcDbLine
 10
-18.9700026152
 20
-10.6282051282
 30
0.0
 11
-19.5982077434
 21
-10.6282051282
 31
0.0
  0
LINE
  5
138
330
1F
100
AcDbEntity
  8
0
  6
Continuous
 62
     7
370
    25
100
AcDbLine
 10
-7.6638447404
 20
13.3461538462
 30
0.0
 11
-7.6638447404
 21
13.8461538462
 31
0.0
  0
LINE
  5
139
330
1F
100
AcDbEntity
  8
0
  6
Continuous
 62
     7
370
    25
100
AcDbLine
 10
-7.6638447404
 20
13.8461538462
 30
0.0
 11
-6.6253832019
 21
13.8461538462
 31
0.0
  0
LINE
  5
13A
330
1F
100
AcDbEntity
  8
0
  6
Continuous
 62
     7
370
    25
100
AcDbLine
 10
-6.6253832019
 20
13.8461538462
 30
0.0
 11
-6.6253832019
 21
13.3461538462
 31
0.0
  0
LINE
  5
13B
330
1F
100
AcDbEntity
  8
0
  6
Continuous
 62
     7
370
    25
100
AcDbLine
 10
-6.6253832019
 20
13.3461538462
 30
0.0
 11
-7.6638447404
 21
13.3461538462
 31
0.0
  0
LINE
  5
13C
330
1F
100
AcDbEntity
  8
0
  6
Continuous
 62
     7
370
    25
100
AcDbLine
 10
-3.3710562788
 20
13.8353365385
 30
0.0
 11
-3.0182918557
 21
15.5
 31
0.0
  0
LINE
  5
13D
330
1F
100
AcDbEntity
  8
0
  6
Continuous
 62
     7
370
    25
100
AcDbLine
 10
-3.0182918557
 20
15.5
 30
0.0
 11
-1.6523062788
 21
15.5
 31
0.0
  0
LINE
  5
13E
330
1F
100
AcDbEntity
  8
0
  6
Continuous
 62
     7
370
    25
100
AcDbLine
 10
-1.6523062788
 20
15.5
 30
0.0
 11
-1.6523062788
 21
15.0
 31
0.0
  0
LINE
  5
13F
330
1F
100
AcDbEntity
  8
0
  6
Continuous
 62
     7
370
    25
100
AcDbLine
 10
-1.6523062788
 20
15.0
 30
0.0
 11
-2.5916091634
 21
15.0
 31
0.0
  0
LINE
  5
140
330
1F
100
AcDbEntity
  8
0
  6
Continuous
 62
     7
370
    25
100
AcDbLine
 10
-2.5916091634
 20
15.0
 30
0.0
 11
-2.7087966634
 21
14.4326923077
 31
0.0
  0
SPLINE
  5
141
330
1F
100
AcDbEntity
  8
0
  6
Continuous
 62
     7
370
    25
100
AcDbSpline
210
0.0
220
0.0
230
1.0
 70
     8
 71
     3
 72
    11
 73
     7
 74
     0
 42
0.000000001
 43
0.00000001
 40
0.0
 40
0.0
 40
0.0
 40
0.0
 40
0.2636542475286004
 40
0.5199803460206645
 40
0.7671028029252659
 40
1.0
 40
1.0
 40
1.0
 40
1.0
 10
-2.708796663429685
 20
14.4326923076923
 30
0.0
 10
-2.692828189034373
 20
14.43713972940549
 30
0.0
 10
-2.661335076674804
 20
14.44591095878259
 30
0.0
 10
-2.613890663839275
 20
14.45470739201965
 30
0.0
 10
-2.567910416028742
 20
14.46040896045736
 30
0.0
 10
-2.537738457949433
 20
14.46116947371682
 30
0.0
 10
-2.523099548045069
 20
14.46153846153846
 30
0.0
  0
SPLINE
  5
142
330
1F
100
AcDbEntity
  8
0
  6
Continuous
 62
     7
370
    25
100
AcDbSpline
210
0.0
220
0.0
230
1.0
 70
     8
 71
     3
 72
    23
 73
    19
 74
     0
 42
0.000000001
 43
0.00000001
 40
0.0
 40
0.0
 40
0.0
 40
0.0
 40
0.0634005294004284
 40
0.1249764099331407
 40
0.1844921876584961
 40
0.2434736282965418
 40
0.3022637321141451
 40
0.3613835718304162
 40
0.4214817654110652
 40
0.483454536757794
 40
0.5459360688045389
 40
0.6081426980855857
 40
0.6698202920949508
 40
0.732332294269266
 40
0.7960922343214105
 40
0.8616426668792326
 40
0.929435231882883
 40
1.0
 40
1.0
 40
1.0
 40
1.0
 10
-2.523099548045069
 20
14.46153846153846
 30
0.0
 10
-2.491199829878729
 20
14.4608074979882
 30
0.0
 10
-2.428318458192876
 20
14.45936660780688
 30
0.0
 10
-2.336330990849592
 20
14.44568785998836
 30
0.0
 10
-2.248247556628054
 20
14.42414424670075
 30
0.0
 10
-2.164337700780476
 20
14.39341860929632
 30
0.0
 10
-2.084683391972815
 20
14.35342839861989
 30
0.0
 10
-2.009188073312095
 20
14.30505145379497
 30
0.0
 10
-1.937759087240337
 20
14.24820280729077
 30
0.0
 10
-1.871665313028712
 20
14.18284686709817
 30
0.0
 10
-1.810935592428326
 20
14.1110845649977
 30
0.0
 10
-1.758134564085997
 20
14.03346604191246
 30
0.0
 10
-1.713039190818413
 20
13.95109806262762
 30
0.0
 10
-1.677171890058279
 20
13.8634686295746
 30
0.0
 10
-1.648862358489664
 20
13.77112811437923
 30
0.0
 10
-1.628405258790795
 20
13.67401734247475
 30
0.0
 10
-1.616307953784744
 20
13.57202122318761
 30
0.0
 10
-1.614676706351672
 20
13.50243656340519
 30
0.0
 10
-1.613844740352761
 20
13.46694711538461
 30
0.0
  0
SPLINE
  5
143
330
1F
100
AcDbEntity
  8
0
  6
Continuous
 62
     7
370
    25
100
AcDbSpline
210
0.0
220
0.0
230
1.0
 70
     8
 71
     3
 72
    23
 73
    19
 74
     0
 42
0.000000001
 43
0.00000001
 40
0.0
 40
0.0
 40
0.0
 40
0.0
 40
0.06675541313745
 40
0.1317279436682008
 40
0.1948100844364488
 40
0.2568986387839165
 40
0.3187508905638005
 40
0.3803512888945385
 40
0.4433244176166938
 40
0.5074626919635749
 40
0.5715056738698081
 40
0.6333612917281037
 40
0.6939415159323162
 40
0.7539288461040353
 40
0.8138015296774561
 40
0.8745236442162156
 40
0.9362219827335219
 40
1.0
 40
1.0
 40
1.0
 40
1.0
 10
-1.613844740352761
 20
13.46694711538461
 30
0.0
 10
-1.614861416161679
 20
13.43105477995286
 30
0.0
 10
-1.616867614721339
 20
13.36022871031053
 30
0.0
 10
-1.629956222005446
 20
13.25608933501902
 30
0.0
 10
-1.653057848952879
 20
13.15634732327943
 30
0.0
 10
-1.684790244949485
 20
13.06073566790398
 30
0.0
 10
-1.726595645482854
 20
12.96995709220279
 30
0.0
 10
-1.776872361221383
 20
12.88307119734475
 30
0.0
 10
-1.836470435742655
 20
12.8007229098441
 30
0.0
 10
-1.904805007756384
 20
12.72375639958076
 30
0.0
 10
-1.979093651466898
 20
12.65340753157501
 30
0.0
 10
-2.058193520536353
 20
12.59152149763282
 30
0.0
 10
-2.141548914581809
 20
12.539444901428
 30
0.0
 10
-2.229161844901586
 20
12.49735820747776
 30
0.0
 10
-2.320529648346764
 20
12.46405996442868
 30
0.0
 10
-2.415680055864937
 20
12.43982043295245
 30
0.0
 10
-2.515075486352168
 20
12.425920408433
 30
0.0
 10
-2.58255206915825
 20
12.42403516702771
 30
0.0
 10
-2.616849548045069
 20
12.42307692307692
 30
0.0
  0
SPLINE
  5
144
330
1F
100
AcDbEntity
  8
0
  6
Continuous
 62
     7
370
    25
100
AcDbSpline
210
0.0
220
0.0
230
1.0
 70
     8
 71
     3
 72
    23
 73
    19
 74
     0
 42
0.000000001
 43
0.00000001
 40
0.0
 40
0.0
 40
0.0
 40
0.0
 40
0.0659348176256773
 40
0.1300372587941652
 40
0.1923620702496508
 40
0.2538195214289181
 40
0.3141994357375425
 40
0.3746698781567773
 40
0.435154118037987
 40
0.4964786684939705
 40
0.5578092661396394
 40
0.6190309229821123
 40
0.67969118751929
 40
0.7409612864102645
 40
0.8033752905051769
 40
0.8668176884999608
 40
0.9323179771745064
 40
1.0
 40
1.0
 40
1.0
 40
1.0
 10
-2.616849548045069
 20
12.42307692307692
 30
0.0
 10
-2.647520762480325
 20
12.42386082628242
 30
0.0
 10
-2.708010816031265
 20
12.42540684745413
 30
0.0
 10
-2.797110009302633
 20
12.43490950809782
 30
0.0
 10
-2.883011525884594
 20
12.45171030122761
 30
0.0
 10
-2.965259322476894
 20
12.4760253990646
 30
0.0
 10
-3.044718783590582
 20
12.50595173371008
 30
0.0
 10
-3.120471335104672
 20
12.54338027069781
 30
0.0
 10
-3.192933250245948
 20
12.5875983202733
 30
0.0
 10
-3.261898764653782
 20
12.63779890195899
 30
0.0
 10
-3.326247286605316
 20
12.69434791014773
 30
0.0
 10
-3.384977798971114
 20
12.75625054274851
 30
0.0
 10
-3.438445863664979
 20
12.82272654730209
 30
0.0
 10
-3.485507348029202
 20
12.89459603559406
 30
0.0
 10
-3.526014728239879
 20
12.97175282459586
 30
0.0
 10
-3.561937499471451
 20
13.05328760377856
 30
0.0
 10
-3.591340647444548
 20
13.14005185632534
 30
0.0
 10
-3.6062618982569
 20
13.2002016567477
 30
0.0
 10
-3.613844740352762
 20
13.23076923076923
 30
0.0
  0
LINE
  5
145
330
1F
100
AcDbEntity
  8
0
  6
Continuous
 62
     7
370
    25
100
AcDbLine
 10
-3.6138447404
 20
13.2307692308
 30
0.0
 11
-2.998460125
 21
13.2307692308
 31
0.0
  0
SPLINE
  5
146
330
1F
100
AcDbEntity
  8
0
  6
Continuous
 62
     7
370
    25
100
AcDbSpline
210
0.0
220
0.0
230
1.0
 70
     8
 71
     3
 72
    15
 73
    11
 74
     0
 42
0.000000001
 43
0.00000001
 40
0.0
 40
0.0
 40
0.0
 40
0.0
 40
0.138113787061839
 40
0.2684083835837752
 40
0.3941909055405335
 40
0.5170923452347707
 40
0.6374931640526639
 40
0.7570041724766228
 40
0.877294124955334
 40
1.0
 40
1.0
 40
1.0
 40
1.0
 10
-2.998460124968146
 20
13.23076923076923
 30
0.0
 10
-2.987210879344409
 20
13.20958714673929
 30
0.0
 10
-2.965349254240668
 20
13.16842218373046
 30
0.0
 10
-2.923763610115461
 20
13.11376951004177
 30
0.0
 10
-2.877211121727821
 20
13.06716405779388
 30
0.0
 10
-2.826111717756205
 20
13.02815048179843
 30
0.0
 10
-2.770134305850786
 20
12.99892217459232
 30
0.0
 10
-2.711559859843375
 20
12.97675677853024
 30
0.0
 10
-2.649652533704247
 20
12.96394821712811
 30
0.0
 10
-2.6074909112645
 20
12.9623470198968
 30
0.0
 10
-2.586200509583531
 20
12.96153846153846
 30
0.0
  0
SPLINE
  5
147
330
1F
100
AcDbEntity
  8
0
  6
Continuous
 62
     7
370
    25
100
AcDbSpline
210
0.0
220
0.0
230
1.0
 70
     8
 71
     3
 72
    23
 73
    19
 74
     0
 42
0.000000001
 43
0.00000001
 40
0.0
 40
0.0
 40
0.0
 40
0.0
 40
0.0611793430880462
 40
0.120371388444601
 40
0.1784417313622622
 40
0.2359341281810942
 40
0.2942679362243739
 40
0.3526542946283813
 40
0.4131221280938572
 40
0.4755857683820414
 40
0.5389001041802258
 40
0.6018690472303242
 40
0.6643326875185087
 40
0.7276470233166925
 40
0.7924087308653707
 40
0.8591195288732127
 40
0.9281350966840252
 40
1.0
 40
1.0
 40
1.0
 40
1.0
 10
-2.586200509583531
 20
12.96153846153846
 30
0.0
 10
-2.571361385246718
 20
12.96209677811063
 30
0.0
 10
-2.54216515806341
 20
12.96319527537445
 30
0.0
 10
-2.499149134144939
 20
12.96900660161533
 30
0.0
 10
-2.458088449403836
 20
12.98001312173134
 30
0.0
 10
-2.418677827587784
 20
12.99525459340717
 30
0.0
 10
-2.380811401623131
 20
13.01426243014466
 30
0.0
 10
-2.345031999977052
 20
13.03825858549233
 30
0.0
 10
-2.310717125429135
 20
13.06587905006281
 30
0.0
 10
-2.278389189494109
 20
13.0975736266382
 30
0.0
 10
-2.24910939770365
 20
13.13290570712475
 30
0.0
 10
-2.223434223166294
 20
13.17087243635168
 30
0.0
 10
-2.200477076316017
 20
13.21063018514632
 30
0.0
 10
-2.183472366663133
 20
13.25375385786229
 30
0.0
 10
-2.169546947454446
 20
13.29895576633102
 30
0.0
 10
-2.1592917053982
 20
13.34657688246346
 30
0.0
 10
-2.15316304173278
 20
13.39667282376238
 30
0.0
 10
-2.152595691378322
 20
13.43087191855448
 30
0.0
 10
-2.1523062788143
 20
13.4483173076923
 30
0.0
  0
SPLINE
  5
148
330
1F
100
AcDbEntity
  8
0
  6
Continuous
 62
     7
370
    25
100
AcDbSpline
210
0.0
220
0.0
230
1.0
 70
     8
 71
     3
 72
    23
 73
    19
 74
     0
 42
0.000000001
 43
0.00000001
 40
0.0
 40
0.0
 40
0.0
 40
0.0
 40
0.0728906065806497
 40
0.1418833354390779
 40
0.2092821354239192
 40
0.2746226384553203
 40
0.3384391539790463
 40
0.4013048615705225
 40
0.4650061847340461
 40
0.5283200864625136
 40
0.5907402649620387
 40
0.6509809274188465
 40
0.7096903202894517
 40
0.7672117550042972
 40
0.8241879505444246
 40
0.8817668141839345
 40
0.9399547263812991
 40
1.0
 40
1.0
 40
1.0
 40
1.0
 10
-2.1523062788143
 20
13.4483173076923
 30
0.0
 10
-2.152642175551407
 20
13.46535774975115
 30
0.0
 10
-2.15329600670551
 20
13.49852738394798
 30
0.0
 10
-2.158704628506065
 20
13.54723228817242
 30
0.0
 10
-2.168380548759485
 20
13.59344442781938
 30
0.0
 10
-2.181564073172722
 20
13.63751775344983
 30
0.0
 10
-2.198440558235278
 20
13.67918463045096
 30
0.0
 10
-2.219064751219046
 20
13.71869308026351
 30
0.0
 10
-2.243524760608651
 20
13.75584340192909
 30
0.0
 10
-2.271951907117258
 20
13.78987925160112
 30
0.0
 10
-2.302266323654417
 20
13.82109790075878
 30
0.0
 10
-2.334833747874573
 20
13.84840148263521
 30
0.0
 10
-2.369360764628959
 20
13.8710615597759
 30
0.0
 10
-2.404774489414089
 20
13.89084446646888
 30
0.0
 10
-2.442488510604449
 20
13.90524203474935
 30
0.0
 10
-2.481654791378119
 20
13.91515710885838
 30
0.0
 10
-2.52223214324099
 20
13.92243239133773
 30
0.0
 10
-2.549909074383979
 20
13.92285984085196
 30
0.0
 10
-2.563964932660453
 20
13.92307692307692
 30
0.0
  0
SPLINE
  5
149
330
1F
100
AcDbEntity
  8
0
  6
Continuous
 62
     7
370
    25
100
AcDbSpline
210
0.0
220
0.0
230
1.0
 70
     8
 71
     3
 72
    15
 73
    11
 74
     0
 42
0.000000001
 43
0.00000001
 40
0.0
 40
0.0
 40
0.0
 40
0.0
 40
0.1103603399843308
 40
0.221185796781268
 40
0.3343638213725845
 40
0.4529765798274176
 40
0.57723430820027
 40
0.7088043240432474
 40
0.8493551270704514
 40
1.0
 40
1.0
 40
1.0
 40
1.0
 10
-2.563964932660453
 20
13.92307692307692
 30
0.0
 10
-2.579232861553327
 20
13.92249758997221
 30
0.0
 10
-2.609833066462532
 20
13.92133648214683
 30
0.0
 10
-2.65529731230235
 20
13.91188885829995
 30
0.0
 10
-2.700213385538873
 20
13.89659905890733
 30
0.0
 10
-2.744831066033072
 20
13.87550435735248
 30
0.0
 10
-2.78870744577782
 20
13.84789804919467
 30
0.0
 10
-2.833000444251823
 20
13.81551901473472
 30
0.0
 10
-2.876227479484709
 20
13.77601460998024
 30
0.0
 10
-2.90371243093689
 20
13.74659163960185
 30
0.0
 10
-2.917931278814299
 20
13.73137019230769
 30
0.0
  0
LINE
  5
14A
330
1F
100
AcDbEntity
  8
0
  6
Continuous
 62
     7
370
    25
100
AcDbLine
 10
-2.9179312788
 20
13.7313701923
 30
0.0
 11
-3.3710562788
 21
13.8353365385
 31
0.0
  0
LINE
  5
14B
330
1F
100
AcDbEntity
  8
0
  6
Continuous
 62
     7
370
    25
100
AcDbLine
 10
-5.5229860458
 20
-8.2308931542
 30
0.0
 11
-5.5229860458
 21
-5.6732008465
 31
0.0
  0
LINE
  5
14C
330
1F
100
AcDbEntity
  8
0
  6
Continuous
 62
     7
370
    25
100
AcDbLine
 10
-5.5229860458
 20
-5.6732008465
 30
0.0
 11
-4.9845245073
 21
-5.6732008465
 31
0.0
  0
LINE
  5
14D
330
1F
100
AcDbEntity
  8
0
  6
Continuous
 62
     7
370
    25
100
AcDbLine
 10
-4.9845245073
 20
-5.6732008465
 30
0.0
 11
-4.9845245073
 21
-5.9880045324
 31
0.0
  0
SPLINE
  5
14E
330
1F
100
AcDbEntity
  8
0
  6
Continuous
 62
     7
370
    25
100
AcDbSpline
210
0.0
220
0.0
230
1.0
 70
     8
 71
     3
 72
    15
 73
    11
 74
     0
 42
0.000000001
 43
0.00000001
 40
0.0
 40
0.0
 40
0.0
 40
0.0
 40
0.1373326587675198
 40
0.2684223790574861
 40
0.3932053799591905
 40
0.5164303771821768
 40
0.6377928828172983
 40
0.7580612519913799
 40
0.8777193330221531
 40
1.0
 40
1.0
 40
1.0
 40
1.0
 10
-4.984524507311823
 20
-5.988004532420475
 30
0.0
 10
-4.969292464092636
 20
-5.960027842245996
 30
0.0
 10
-4.939520803691578
 20
-5.905346240635848
 30
0.0
 10
-4.88482776664965
 20
-5.831947019231277
 30
0.0
 10
-4.821994190492063
 20
-5.770132242843298
 30
0.0
 10
-4.753277879906806
 20
-5.718608999123002
 30
0.0
 10
-4.678470569224149
 20
-5.6784516897711
 30
0.0
 10
-4.599575464927596
 20
-5.649834544349519
 30
0.0
 10
-4.517267513288357
 20
-5.631237365224897
 30
0.0
 10
-4.46111981893649
 20
-5.629305470010435
 30
0.0
 10
-4.43274165474772
 20
-5.628329051651244
 30
0.0
  0
SPLINE
  5
14F
330
1F
100
AcDbEntity
  8
0
  6
Continuous
 62
     7
370
    25
100
AcDbSpline
210
0.0
220
0.0
230
1.0
 70
     8
 71
     3
 72
    11
 73
     7
 74
     0
 42
0.000000001
 43
0.00000001
 40
0.0
 40
0.0
 40
0.0
 40
0.0
 40
0.2328510341006745
 40
0.4741678510281794
 40
0.7313385461287052
 40
1.0
 40
1.0
 40
1.0
 40
1.0
 10
-4.43274165474772
 20
-5.628329051651244
 30
0.0
 10
-4.412135566522905
 20
-5.629293956999686
 30
0.0
 10
-4.370174212950249
 20
-5.631258848834006
 30
0.0
 10
-4.306219205249403
 20
-5.642680794888736
 30
0.0
 10
-4.24134143919321
 20
-5.663333845315903
 30
0.0
 10
-4.198646278461661
 20
-5.681929172299136
 30
0.0
 10
-4.176832199619516
 20
-5.691430013189706
 30
0.0
  0
LINE
  5
150
330
1F
100
AcDbEntity
  8
0
  6
Continuous
 62
     7
370
    25
100
AcDbLine
 10
-4.1768321996
 20
-5.6914300132
 30
0.0
 11
-4.3717440586
 21
-6.2235814555
 31
0.0
  0
SPLINE
  5
151
330
1F
100
AcDbEntity
  8
0
  6
Continuous
 62
     7
370
    25
100
AcDbSpline
210
0.0
220
0.0
230
1.0
 70
     8
 71
     3
 72
    11
 73
     7
 74
     0
 42
0.000000001
 43
0.00000001
 40
0.0
 40
0.0
 40
0.0
 40
0.0
 40
0.303596749572398
 40
0.5706450181692369
 40
0.8010704299308574
 40
0.9999999999999999
 40
0.9999999999999999
 40
0.9999999999999999
 40
0.9999999999999999
 10
-4.371744058593875
 20
-6.223581455497397
 30
0.0
 10
-4.389166395460884
 20
-6.215163824697211
 30
0.0
 10
-4.421913681958609
 20
-6.199341919200271
 30
0.0
 10
-4.469457055897753
 20
-6.180670440682118
 30
0.0
 10
-4.512604639039347
 20
-6.169278017057751
 30
0.0
 10
-4.539959414751659
 20
-6.167578167606523
 30
0.0
 10
-4.552633481670798
 20
-6.166790590112782
 30
0.0
  0
SPLINE
  5
152
330
1F
100
AcDbEntity
  8
0
  6
Continuous
 62
     7
370
    25
100
AcDbSpline
210
0.0
220
0.0
230
1.0
 70
     8
 71
     3
 72
    23
 73
    19
 74
     0
 42
0.000000001
 43
0.00000001
 40
0.0
 40
0.0
 40
0.0
 40
0.0
 40
0.0340145111526579
 40
0.0669124038090346
 40
0.1011407022045769
 40
0.1363808922681594
 40
0.1735979957406278
 40
0.2140756260844561
 40
0.2579797804939633
 40
0.3054172226450341
 40
0.3586847121323523
 40
0.4209239114337732
 40
0.4926910011447123
 40
0.5741308488820774
 40
0.6651821528112545
 40
0.7665126640514616
 40
0.8783143413429206
 40
1.0
 40
1.0
 40
1.0
 40
1.0
 10
-4.552633481670798
 20
-6.166790590112782
 30
0.0
 10
-4.564600265584873
 20
-6.16731248055726
 30
0.0
 10
-4.588140991305153
 20
-6.168339128978228
 30
0.0
 10
-4.622886443858486
 20
-6.177137157432807
 30
0.0
 10
-4.655609424785331
 20
-6.192309084947561
 30
0.0
 10
-4.687886852815406
 20
-6.211745829694517
 30
0.0
 10
-4.717172396744686
 20
-6.238764358613661
 30
0.0
 10
-4.746439851621946
 20
-6.270043103148361
 30
0.0
 10
-4.772231900029588
 20
-6.308660873643827
 30
0.0
 10
-4.799449990987319
 20
-6.351644413474284
 30
0.0
 10
-4.82262522225107
 20
-6.404256227498216
 30
0.0
 10
-4.842497269563071
 20
-6.467063891407976
 30
0.0
 10
-4.860203423079279
 20
-6.540794133034024
 30
0.0
 10
-4.872387674180197
 20
-6.625838423978464
 30
0.0
 10
-4.88416424205155
 20
-6.721373813819406
 30
0.0
 10
-4.891173944448139
 20
-6.82810152049414
 30
0.0
 10
-4.896398364300762
 20
-6.945684060709618
 30
0.0
 10
-4.896717802583757
 20
-7.027760917404303
 30
0.0
 10
-4.89688428295285
 20
-7.070536583702527
 30
0.0
  0
LINE
  5
153
330
1F
100
AcDbEntity
  8
0
  6
Continuous
 62
     7
370
    25
100
AcDbLine
 10
-4.896884283
 20
-7.0705365837
 30
0.0
 11
-4.8947809176
 21
-7.1953362632
 31
0.0
  0
LINE
  5
154
330
1F
100
AcDbEntity
  8
0
  6
Continuous
 62
     7
370
    25
100
AcDbLine
 10
-4.8947809176
 20
-7.1953362632
 30
0.0
 11
-4.8947809176
 21
-8.2308931542
 31
0.0
  0
LINE
  5
155
330
1F
100
AcDbEntity
  8
0
  6
Continuous
 62
     7
370
    25
100
AcDbLine
 10
-4.8947809176
 20
-8.2308931542
 30
0.0
 11
-5.5229860458
 21
-8.2308931542
 31
0.0
  0
LINE
  5
156
330
1F
100
AcDbEntity
  8
0
  6
Continuous
 62
     7
370
    25
100
AcDbLine
 10
-0.060599548
 20
12.5
 30
0.0
 11
-1.146537048
 21
15.5
 31
0.0
  0
LINE
  5
157
330
1F
100
AcDbEntity
  8
0
  6
Continuous
 62
     7
370
    25
100
AcDbLine
 10
-1.146537048
 20
15.5
 30
0.0
 11
-0.5714168557
 21
15.5
 31
0.0
  0
LINE
  5
158
330
1F
100
AcDbEntity
  8
0
  6
Continuous
 62
     7
370
    25
100
AcDbLine
 10
-0.5714168557
 20
15.5
 30
0.0
 11
0.1996167981
 21
13.3689903846
 31
0.0
  0
LINE
  5
159
330
1F
100
AcDbEntity
  8
0
  6
Continuous
 62
     7
370
    25
100
AcDbLine
 10
0.1996167981
 20
13.3689903846
 30
0.0
 11
0.9724533366
 21
15.5
 31
0.0
  0
LINE
  5
15A
330
1F
100
AcDbEntity
  8
0
  6
Continuous
 62
     7
370
    25
100
AcDbLine
 10
0.9724533366
 20
15.5
 30
0.0
 11
1.5457706443
 21
15.5
 31
0.0
  0
LINE
  5
15B
330
1F
100
AcDbEntity
  8
0
  6
Continuous
 62
     7
370
    25
100
AcDbLine
 10
1.5457706443
 20
15.5
 30
0.0
 11
0.4580302596
 21
12.5
 31
0.0
  0
LINE
  5
15C
330
1F
100
AcDbEntity
  8
0
  6
Continuous
 62
     7
370
    25
100
AcDbLine
 10
0.4580302596
 20
12.5
 30
0.0
 11
-0.060599548
 21
12.5
 31
0.0
  0
LINE
  5
15D
330
1F
100
AcDbEntity
  8
0
  6
Continuous
 62
     7
370
    25
100
AcDbLine
 10
-16.8280755318
 20
-12.1987179487
 30
0.0
 11
-16.0533359485
 21
-12.1987179487
 31
0.0
  0
LINE
  5
15E
330
1F
100
AcDbEntity
  8
0
  6
Continuous
 62
     7
370
    25
100
AcDbLine
 10
-16.0533359485
 20
-12.1987179487
 30
0.0
 11
-16.0533359485
 21
-11.0075120192
 31
0.0
  0
LINE
  5
15F
330
1F
100
AcDbEntity
  8
0
  6
Continuous
 62
     7
370
    25
100
AcDbLine
 10
-16.0533359485
 20
-11.0075120192
 30
0.0
 11
-16.8280755318
 21
-12.1987179487
 31
0.0
  0
LINE
  5
160
330
1F
100
AcDbEntity
  8
0
  6
Continuous
 62
     7
370
    25
100
AcDbLine
 10
21.6833351439
 20
-10.6282051282
 30
0.0
 11
21.4863199195
 21
-10.6282051282
 31
0.0
  0
LINE
  5
161
330
1F
100
AcDbEntity
  8
0
  6
Continuous
 62
     7
370
    25
100
AcDbLine
 10
21.4863199195
 20
-10.6282051282
 30
0.0
 11
21.4863199195
 21
-11.391025641
 31
0.0
  0
LINE
  5
162
330
1F
100
AcDbEntity
  8
0
  6
Continuous
 62
     7
370
    25
100
AcDbLine
 10
21.4863199195
 20
-11.391025641
 30
0.0
 11
21.6531869067
 21
-11.391025641
 31
0.0
  0
SPLINE
  5
163
330
1F
100
AcDbEntity
  8
0
  6
Continuous
 62
     7
370
    25
100
AcDbSpline
210
0.0
220
0.0
230
1.0
 70
     8
 71
     3
 72
    19
 73
    15
 74
     0
 42
0.000000001
 43
0.00000001
 40
0.0
 40
0.0
 40
0.0
 40
0.0
 40
0.0887762289654558
 40
0.1713771372145553
 40
0.2481138113668467
 40
0.3211611878976195
 40
0.3880331325497758
 40
0.4520913744364375
 40
0.5122677074822273
 40
0.5688662368266971
 40
0.6769360002929843
 40
0.7810117272007109
 40
0.8869176462132655
 40
1.0
 40
1.0
 40
1.0
 40
1.0
 10
21.65318690671965
 20
-11.39102564102564
 30
0.0
 10
21.67586562950615
 20
-11.39082787398138
 30
0.0
 10
21.71964553131235
 20
-11.39044609667145
 30
0.0
 10
21.78288095570603
 20
-11.38552893748809
 30
0.0
 10
21.84167968823539
 20
-11.37713995848643
 30
0.0
 10
21.89581871799651
 20
-11.3654352225076
 30
0.0
 10
21.94580236971459
 20
-11.35057191438547
 30
0.0
 10
21.99131133342351
 20
-11.33268815372906
 30
0.0
 10
22.03214551443896
 20
-11.31086802187138
 30
0.0
 10
22.07958538835626
 20
-11.2783659725695
 30
0.0
 10
22.12973275613902
 20
-11.23053775187686
 30
0.0
 10
22.17387692000949
 20
-11.16143997749381
 30
0.0
 10
22.19987753775467
 20
-11.08197779985457
 30
0.0
 10
22.20277330530982
 20
-11.02593491935051
 30
0.0
 10
22.20426863748889
 20
-10.9969951923077
 30
0.0
  0
SPLINE
  5
164
330
1F
100
AcDbEntity
  8
0
  6
Continuous
 62
     7
370
    25
100
AcDbSpline
210
0.0
220
0.0
230
1.0
 70
     8
 71
     3
 72
    19
 73
    15
 74
     0
 42
0.000000001
 43
0.00000001
 40
0.0
 40
0.0
 40
0.0
 40
0.0
 40
0.1123318680474753
 40
0.2171891524479078
 40
0.3207763822148944
 40
0.4294461252394122
 40
0.4868895248481735
 40
0.5473481609653083
 40
0.6105516098532309
 40
0.6785404198027607
 40
0.7510057638701879
 40
0.8285633445446959
 40
0.9114938035709789
 40
1.0
 40
1.0
 40
1.0
 40
1.0
 10
22.20426863748889
 20
-10.9969951923077
 30
0.0
 10
22.20307209799783
 20
-10.96988832963852
 30
0.0
 10
22.20075863697872
 20
-10.91747830004519
 30
0.0
 10
22.17457935786503
 20
-10.8438899508424
 30
0.0
 10
22.1339177618342
 20
-10.77867561273397
 30
0.0
 10
22.08591103256912
 20
-10.73404173147149
 30
0.0
 10
22.04070336847101
 20
-10.70355810647409
 30
0.0
 10
22.00199379227057
 20
-10.68348593753751
 30
0.0
 10
21.95950712568033
 20
-10.66551753705467
 30
0.0
 10
21.91242087234743
 20
-10.6517784601207
 30
0.0
 10
21.86100392060199
 20
-10.64146914054362
 30
0.0
 10
21.80550603127289
 20
-10.63389817994687
 30
0.0
 10
21.74583145135098
 20
-10.62874506207317
 30
0.0
 10
21.70461409203456
 20
-10.62838896666284
 30
0.0
 10
21.68333514389914
 20
-10.62820512820513
 30
0.0
  0
LINE
  5
165
330
1F
100
AcDbEntity
  8
0
  6
Continuous
 62
     7
370
    25
100
AcDbLine
 10
21.6363599836
 20
-11.9743589744
 30
0.0
 11
21.4863199195
 21
-11.9743589744
 31
0.0
  0
LINE
  5
166
330
1F
100
AcDbEntity
  8
0
  6
Continuous
 62
     7
370
    25
100
AcDbLine
 10
21.4863199195
 20
-11.9743589744
 30
0.0
 11
21.4863199195
 21
-12.8717948718
 31
0.0
  0
LINE
  5
167
330
1F
100
AcDbEntity
  8
0
  6
Continuous
 62
     7
370
    25
100
AcDbLine
 10
21.4863199195
 20
-12.8717948718
 30
0.0
 11
21.6672093426
 21
-12.8717948718
 31
0.0
  0
SPLINE
  5
168
330
1F
100
AcDbEntity
  8
0
  6
Continuous
 62
     7
370
    25
100
AcDbSpline
210
0.0
220
0.0
230
1.0
 70
     8
 71
     3
 72
    23
 73
    19
 74
     0
 42
0.000000001
 43
0.00000001
 40
0.0
 40
0.0
 40
0.0
 40
0.0
 40
0.1095674252695402
 40
0.2106570473717299
 40
0.3020024587326184
 40
0.3851432164195912
 40
0.4590126129308728
 40
0.5247192090460482
 40
0.5832266479388934
 40
0.6342083193258302
 40
0.6811857277932576
 40
0.7262751343643175
 40
0.7701133344783265
 40
0.8140800070141047
 40
0.8579941680783126
 40
0.9033387195085162
 40
0.9505447828389797
 40
1.0
 40
1.0
 40
1.0
 40
1.0
 10
21.66720934261709
 20
-12.87179487179487
 30
0.0
 10
21.70297141187537
 20
-12.87159056442301
 30
0.0
 10
21.77172845256809
 20
-12.87119775800624
 30
0.0
 10
21.8702227915308
 20
-12.86645172235382
 30
0.0
 10
21.95977876924571
 20
-12.85789782933399
 30
0.0
 10
22.04015909615864
 20
-12.84721898295012
 30
0.0
 10
22.11148688995685
 20
-12.83275081640256
 30
0.0
 10
22.17352104562433
 20
-12.81435639683129
 30
0.0
 10
22.22711228119097
 20
-12.79411933143868
 30
0.0
 10
22.27193926095583
 20
-12.76912415288222
 30
0.0
 10
22.30856033541592
 20
-12.7400359634098
 30
0.0
 10
22.34160701554836
 20
-12.71030713503034
 30
0.0
 10
22.36855121932669
 20
-12.67601212281424
 30
0.0
 10
22.38986997617324
 20
-12.63862311658701
 30
0.0
 10
22.40832132257531
 20
-12.59906888625118
 30
0.0
 10
22.41944987175429
 20
-12.55580485334737
 30
0.0
 10
22.42792275852607
 20
-12.51011326005733
 30
0.0
 10
22.42838904416621
 20
-12.47850937309365
 30
0.0
 10
22.42862761184786
 20
-12.46233974358975
 30
0.0
  0
SPLINE
  5
169
330
1F
100
AcDbEntity
  8
0
  6
Continuous
 62
     7
370
    25
100
AcDbSpline
210
0.0
220
0.0
230
1.0
 70
     8
 71
     3
 72
    23
 73
    19
 74
     0
 42
0.000000001
 43
0.00000001
 40
0.0
 40
0.0
 40
0.0
 40
0.0
 40
0.0528263492812277
 40
0.1028915173965554
 40
0.1516981461048765
 40
0.1995775881235292
 40
0.2472235843729611
 40
0.2957231203836674
 40
0.3462538147999397
 40
0.3985071702228967
 40
0.4542901722394611
 40
0.5140415865121261
 40
0.5790927186074062
 40
0.6500371484472943
 40
0.7274510007645224
 40
0.8114520065892896
 40
0.9024758798237961
 40
1.0
 40
1.0
 40
1.0
 40
1.0
 10
22.42862761184786
 20
-12.46233974358975
 30
0.0
 10
22.42810150164345
 20
-12.4438495179265
 30
0.0
 10
22.42707678049604
 20
-12.40783553245557
 30
0.0
 10
22.4187078704493
 20
-12.35519724919359
 30
0.0
 10
22.40349882712605
 20
-12.30605591921238
 30
0.0
 10
22.3843422949941
 20
-12.25915493241253
 30
0.0
 10
22.35768496272879
 20
-12.21617350748949
 30
0.0
 10
22.32600363433188
 20
-12.17562422031758
 30
0.0
 10
22.28772450184656
 20
-12.1388801949151
 30
0.0
 10
22.24467738422882
 20
-12.1037190152933
 30
0.0
 10
22.19446718344575
 20
-12.07293349758652
 30
0.0
 10
22.13707034231993
 20
-12.04622160795661
 30
0.0
 10
22.07217504997091
 20
-12.0239128214375
 30
0.0
 10
21.99958028636079
 20
-12.00615055097717
 30
0.0
 10
21.91960430130041
 20
-11.99107595755126
 30
0.0
 10
21.83166335795898
 20
-11.98207476117086
 30
0.0
 10
21.73648985905375
 20
-11.97538017583584
 30
0.0
 10
21.67049500603402
 20
-11.97470710956973
 30
0.0
 10
21.63635998364273
 20
-11.97435897435898
 30
0.0
  0
MTEXT
  5
16B
330
1F
100
AcDbEntity
  8
0
  6
Continuous
 62
     7
100
AcDbMText
 10
-32.25
 20
-18.5195663917
 30
0.0
 40
4.83362
 41
0.0
 71
     1
 72
     1
  1
SOLIDWORKS Educational Product.
  7
SLDTEXTSTYLE0
 73
     1
 44
1.0
  0
MTEXT
  5
16C
330
1F
100
AcDbEntity
  8
0
  6
Continuous
 62
     7
100
AcDbMText
 10
-32.25
 20
-25.7699963917
 30
0.0
 40
4.83362
 41
0.0
 71
     1
 72
     1
  1
For Instructional Use Only.
  7
SLDTEXTSTYLE0
 73
     1
 44
1.0
  0
ENDSEC
  0
SECTION
  2
OBJECTS
  0
DICTIONARY
  5
C
330
0
100
AcDbDictionary
281
     1
  3
ACAD_GROUP
350
D
  3
ACAD_LAYOUT
350
1A
  3
ACAD_MLINESTYLE
350
17
  3
ACAD_PLOTSETTINGS
350
19
  3
ACAD_PLOTSTYLENAME
350
E
  3
ACAD_SCALELIST
350
47
  0
DICTIONARY
  5
D
102
{ACAD_REACTORS
330
C
102
}
330
C
100
AcDbDictionary
281
     1
  0
DICTIONARY
  5
1A
102
{ACAD_REACTORS
330
C
102
}
330
C
100
AcDbDictionary
281
     1
  3
Layout1
350
1E
  3
Layout2
350
26
  3
Model
350
22
  0
DICTIONARY
  5
17
102
{ACAD_REACTORS
330
C
102
}
330
C
100
AcDbDictionary
281
     1
  3
Standard
350
18
  0
DICTIONARY
  5
19
102
{ACAD_REACTORS
330
C
102
}
330
C
100
AcDbDictionary
281
     1
  0
ACDBDICTIONARYWDFLT
  5
E
102
{ACAD_REACTORS
330
C
102
}
330
C
100
AcDbDictionary
281
     1
  3
Normal
350
F
100
AcDbDictionaryWithDefault
340
F
  0
DICTIONARY
  5
47
102
{ACAD_REACTORS
330
C
102
}
330
C
100
AcDbDictionary
281
     1
  3
A0
350
48
  3
A1
350
49
  3
A2
350
4A
  3
A3
350
4B
  3
A4
350
4C
  3
A5
350
4D
  3
A6
350
4E
  3
A7
350
4F
  3
A8
350
50
  3
A9
350
51
  3
B0
350
52
  3
B1
350
53
  3
B2
350
54
  3
B3
350
55
  3
B4
350
56
  3
B5
350
57
  3
B6
350
58
  3
B7
350
59
  3
B8
350
5A
  3
B9
350
5B
  3
C0
350
5C
  3
C1
350
5D
  3
C2
350
5E
  3
C3
350
5F
  3
C4
350
60
  3
C5
350
61
  3
C6
350
62
  3
C7
350
63
  3
C8
350
64
  3
C9
350
65
  3
D0
350
66
  3
D1
350
67
  3
D2
350
68
  0
LAYOUT
  5
1E
102
{ACAD_REACTORS
330
1A
102
}
330
1A
100
AcDbPlotSettings
  1

  2
none_device
  4

  6

 40
0.0
 41
0.0
 42
0.0
 43
0.0
 44
0.0
 45
0.0
 46
0.0
 47
0.0
 48
0.0
 49
0.0
140
0.0
141
0.0
142
1.0
143
1.0
 70
   688
 72
     1
 73
     0
 74
     5
  7

 75
    16
147
1.0
148
0.0
149
0.0
100
AcDbLayout
  1
Layout1
 70
     1
 71
     1
 10
0.0
 20
0.0
 11
420.0
 21
297.0
 12
0.0
 22
0.0
 32
0.0
 14
1.0000000000E+20
 24
1.0000000000E+20
 34
1.0000000000E+20
 15
-1.0000000000E+20
 25
-1.0000000000E+20
 35
-1.0000000000E+20
146
0.0
 13
0.0
 23
0.0
 33
0.0
 16
1.0
 26
0.0
 36
0.0
 17
0.0
 27
1.0
 37
0.0
 76
     0
330
1B
  0
LAYOUT
  5
26
102
{ACAD_REACTORS
330
1A
102
}
330
1A
100
AcDbPlotSettings
  1

  2
none_device
  4

  6

 40
0.0
 41
0.0
 42
0.0
 43
0.0
 44
0.0
 45
0.0
 46
0.0
 47
0.0
 48
0.0
 49
0.0
140
0.0
141
0.0
142
1.0
143
1.0
 70
   688
 72
     1
 73
     0
 74
     5
  7

 75
    16
147
1.0
148
0.0
149
0.0
100
AcDbLayout
  1
Layout2
 70
     1
 71
     2
 10
0.0
 20
0.0
 11
0.0
 21
0.0
 12
0.0
 22
0.0
 32
0.0
 14
0.0
 24
0.0
 34
0.0
 15
0.0
 25
0.0
 35
0.0
146
0.0
 13
0.0
 23
0.0
 33
0.0
 16
1.0
 26
0.0
 36
0.0
 17
0.0
 27
1.0
 37
0.0
 76
     0
330
23
  0
LAYOUT
  5
22
102
{ACAD_REACTORS
330
1A
102
}
330
1A
100
AcDbPlotSettings
  1

  2
none_device
  4
ANSI_A_(11.00_x_8.50_Inches)
  6

 40
6.35
 41
19.05
 42
6.35000508
 43
19.05000254
 44
279.4
 45
215.9
 46
133.34999746
 47
88.89999873
 48
0.0
 49
0.0
140
0.0
141
0.0
142
0.1688372093
143
1.0
 70
  1696
 72
     0
 73
     0
 74
     0
  7

 75
     0
147
0.0179189148
148
-1300.4909072572
149
0.0
100
AcDbLayout
  1
Model
 70
     1
 71
     0
 10
0.0
 20
0.0
 11
420.0
 21
297.0
 12
0.0
 22
0.0
 32
0.0
 14
-32.25
 24
-17.5
 34
0.0
 15
32.25
 25
17.5
 35
0.0
146
0.0
 13
0.0
 23
0.0
 33
0.0
 16
1.0
 26
0.0
 36
0.0
 17
0.0
 27
1.0
 37
0.0
 76
     0
330
1F
331
29
  0
MLINESTYLE
  5
18
102
{ACAD_REACTORS
330
17
102
}
330
17
100
AcDbMlineStyle
  2
Standard
 70
     0
  3

 62
   256
 51
90.0
 52
90.0
 71
     2
 49
0.5
 62
   256
  6
BYLAYER
 49
-0.5
 62
   256
  6
BYLAYER
  0
ACDBPLACEHOLDER
  5
F
102
{ACAD_REACTORS
330
E
102
}
330
E
  0
SCALE
  5
48
102
{ACAD_REACTORS
330
47
102
}
330
47
100
AcDbScale
 70
     0
300
1:1
140
1.0
141
1.0
290
     1
  0
SCALE
  5
49
102
{ACAD_REACTORS
330
47
102
}
330
47
100
AcDbScale
 70
     0
300
1:2
140
1.0
141
2.0
290
     0
  0
SCALE
  5
4A
102
{ACAD_REACTORS
330
47
102
}
330
47
100
AcDbScale
 70
     0
300
1:4
140
1.0
141
4.0
290
     0
  0
SCALE
  5
4B
102
{ACAD_REACTORS
330
47
102
}
330
47
100
AcDbScale
 70
     0
300
1:5
140
1.0
141
5.0
290
     0
  0
SCALE
  5
4C
102
{ACAD_REACTORS
330
47
102
}
330
47
100
AcDbScale
 70
     0
300
1:8
140
1.0
141
8.0
290
     0
  0
SCALE
  5
4D
102
{ACAD_REACTORS
330
47
102
}
330
47
100
AcDbScale
 70
     0
300
1:10
140
1.0
141
10.0
290
     0
  0
SCALE
  5
4E
102
{ACAD_REACTORS
330
47
102
}
330
47
100
AcDbScale
 70
     0
300
1:16
140
1.0
141
16.0
290
     0
  0
SCALE
  5
4F
102
{ACAD_REACTORS
330
47
102
}
330
47
100
AcDbScale
 70
     0
300
1:20
140
1.0
141
20.0
290
     0
  0
SCALE
  5
50
102
{ACAD_REACTORS
330
47
102
}
330
47
100
AcDbScale
 70
     0
300
1:30
140
1.0
141
30.0
290
     0
  0
SCALE
  5
51
102
{ACAD_REACTORS
330
47
102
}
330
47
100
AcDbScale
 70
     0
300
1:40
140
1.0
141
40.0
290
     0
  0
SCALE
  5
52
102
{ACAD_REACTORS
330
47
102
}
330
47
100
AcDbScale
 70
     0
300
1:50
140
1.0
141
50.0
290
     0
  0
SCALE
  5
53
102
{ACAD_REACTORS
330
47
102
}
330
47
100
AcDbScale
 70
     0
300
1:100
140
1.0
141
100.0
290
     0
  0
SCALE
  5
54
102
{ACAD_REACTORS
330
47
102
}
330
47
100
AcDbScale
 70
     0
300
2:1
140
2.0
141
1.0
290
     0
  0
SCALE
  5
55
102
{ACAD_REACTORS
330
47
102
}
330
47
100
AcDbScale
 70
     0
300
4:1
140
4.0
141
1.0
290
     0
  0
SCALE
  5
56
102
{ACAD_REACTORS
330
47
102
}
330
47
100
AcDbScale
 70
     0
300
8:1
140
8.0
141
1.0
290
     0
  0
SCALE
  5
57
102
{ACAD_REACTORS
330
47
102
}
330
47
100
AcDbScale
 70
     0
300
10:1
140
10.0
141
1.0
290
     0
  0
SCALE
  5
58
102
{ACAD_REACTORS
330
47
102
}
330
47
100
AcDbScale
 70
     0
300
100:1
140
100.0
141
1.0
290
     0
  0
SCALE
  5
59
102
{ACAD_REACTORS
330
47
102
}
330
47
100
AcDbScale
 70
     0
300
1/128" = 1'-0"
140
0.0078125
141
12.0
290
     0
  0
SCALE
  5
5A
102
{ACAD_REACTORS
330
47
102
}
330
47
100
AcDbScale
 70
     0
300
1/64" = 1'-0"
140
0.015625
141
12.0
290
     0
  0
SCALE
  5
5B
102
{ACAD_REACTORS
330
47
102
}
330
47
100
AcDbScale
 70
     0
300
1/32" = 1'-0"
140
0.03125
141
12.0
290
     0
  0
SCALE
  5
5C
102
{ACAD_REACTORS
330
47
102
}
330
47
100
AcDbScale
 70
     0
300
1/16" = 1'-0"
140
0.0625
141
12.0
290
     0
  0
SCALE
  5
5D
102
{ACAD_REACTORS
330
47
102
}
330
47
100
AcDbScale
 70
     0
300
3/32" = 1'-0"
140
0.09375
141
12.0
290
     0
  0
SCALE
  5
5E
102
{ACAD_REACTORS
330
47
102
}
330
47
100
AcDbScale
 70
     0
300
1/8" = 1'-0"
140
0.125
141
12.0
290
     0
  0
SCALE
  5
5F
102
{ACAD_REACTORS
330
47
102
}
330
47
100
AcDbScale
 70
     0
300
3/16" = 1'-0"
140
0.1875
141
12.0
290
     0
  0
SCALE
  5
60
102
{ACAD_REACTORS
330
47
102
}
330
47
100
AcDbScale
 70
     0
300
1/4" = 1'-0"
140
0.25
141
12.0
290
     0
  0
SCALE
  5
61
102
{ACAD_REACTORS
330
47
102
}
330
47
100
AcDbScale
 70
     0
300
3/8" = 1'-0"
140
0.375
141
12.0
290
     0
  0
SCALE
  5
62
102
{ACAD_REACTORS
330
47
102
}
330
47
100
AcDbScale
 70
     0
300
1/2" = 1'-0"
140
0.5
141
12.0
290
     0
  0
SCALE
  5
63
102
{ACAD_REACTORS
330
47
102
}
330
47
100
AcDbScale
 70
     0
300
3/4" = 1'-0"
140
0.75
141
12.0
290
     0
  0
SCALE
  5
64
102
{ACAD_REACTORS
330
47
102
}
330
47
100
AcDbScale
 70
     0
300
1" = 1'-0"
140
1.0
141
12.0
290
     0
  0
SCALE
  5
65
102
{ACAD_REACTORS
330
47
102
}
330
47
100
AcDbScale
 70
     0
300
1-1/2" = 1'-0"
140
1.5
141
12.0
290
     0
  0
SCALE
  5
66
102
{ACAD_REACTORS
330
47
102
}
330
47
100
AcDbScale
 70
     0
300
3" = 1'-0"
140
3.0
141
12.0
290
     0
  0
SCALE
  5
67
102
{ACAD_REACTORS
330
47
102
}
330
47
100
AcDbScale
 70
     0
300
6" = 1'-0"
140
6.0
141
12.0
290
     0
  0
SCALE
  5
68
102
{ACAD_REACTORS
330
47
102
}
330
47
100
AcDbScale
 70
     0
300
1'-0" = 1'-0"
140
12.0
141
12.0
290
     0
  0
ENDSEC
  0
EOF
