  0
SECTION
  2
HEADER
  9
$ACADVER
  1
AC1015
  9
$ACADMAINTVER
 70
     6
  9
$DWGCODEPAGE
  3
ANSI_1252
  9
$INSBASE
 10
0.0
 20
0.0
 30
0.0
  9
$EXTMIN
 10
-32.25
 20
-17.5
 30
0.0
  9
$EXTMAX
 10
32.25
 20
17.5
 30
0.0
  9
$LIMMIN
 10
0.0
 20
0.0
  9
$LIMMAX
 10
420.0
 20
297.0
  9
$ORTHOMODE
 70
     0
  9
$REGENMODE
 70
     1
  9
$FILLMODE
 70
     1
  9
$QTEXTMODE
 70
     0
  9
$MIRRTEXT
 70
     1
  9
$LTSCALE
 40
1.0
  9
$ATTMODE
 70
     1
  9
$TEXTSIZE
 40
3.5
  9
$TRACEWID
 40
1.0
  9
$TEXTSTYLE
  7
Standard
  9
$CLAYER
  8
0
  9
$CELTYPE
  6
ByLayer
  9
$CECOLOR
 62
   256
  9
$CELTSCALE
 40
1.0
  9
$DISPSILH
 70
     0
  9
$DIMSCALE
 40
1.0
  9
$DIMASZ
 40
3.302
  9
$DIMEXO
 40
1.0
  9
$DIMDLI
 40
3.75
  9
$DIMRND
 40
0.0
  9
$DIMDLE
 40
0.0
  9
$DIMEXE
 40
1.0
  9
$DIMTP
 40
0.0
  9
$DIMTM
 40
0.0
  9
$DIMTXT
 40
3.5
  9
$DIMCEN
 40
2.5
  9
$DIMTSZ
 40
0.0
  9
$DIMTOL
 70
     0
  9
$DIMLIM
 70
     0
  9
$DIMTIH
 70
     1
  9
$DIMTOH
 70
     1
  9
$DIMSE1
 70
     0
  9
$DIMSE2
 70
     0
  9
$DIMTAD
 70
     1
  9
$DIMZIN
 70
     0
  9
$DIMBLK
  1

  9
$DIMASO
 70
     1
  9
$DIMSHO
 70
     1
  9
$DIMPOST
  1

  9
$DIMAPOST
  1

  9
$DIMALT
 70
     0
  9
$DIMALTD
 70
     3
  9
$DIMALTF
 40
0.0393700787
  9
$DIMLFAC
 40
1.0
  9
$DIMTOFL
 70
     1
  9
$DIMTVP
 40
0.0
  9
$DIMTIX
 70
     0
  9
$DIMSOXD
 70
     0
  9
$DIMSAH
 70
     0
  9
$DIMBLK1
  1

  9
$DIMBLK2
  1

  9
$DIMSTYLE
  2
ISO-25
  9
$DIMCLRD
 70
     0
  9
$DIMCLRE
 70
     0
  9
$DIMCLRT
 70
     0
  9
$DIMTFAC
 40
1.0
  9
$DIMGAP
 40
1.524
  9
$DIMJUST
 70
     0
  9
$DIMSD1
 70
     0
  9
$DIMSD2
 70
     0
  9
$DIMTOLJ
 70
     0
  9
$DIMTZIN
 70
     0
  9
$DIMALTZ
 70
     0
  9
$DIMALTTZ
 70
     0
  9
$DIMUPT
 70
     0
  9
$DIMDEC
 70
     2
  9
$DIMTDEC
 70
     2
  9
$DIMALTU
 70
     2
  9
$DIMALTTD
 70
     3
  9
$DIMTXSTY
  7
Standard
  9
$DIMAUNIT
 70
     0
  9
$DIMADEC
 70
     2
  9
$DIMALTRND
 40
0.0
  9
$DIMAZIN
 70
     0
  9
$DIMDSEP
 70
    44
  9
$DIMATFIT
 70
     3
  9
$DIMFRAC
 70
     0
  9
$DIMLDRBLK
  1

  9
$DIMLUNIT
 70
     2
  9
$DIMLWD
 70
    -2
  9
$DIMLWE
 70
    -2
  9
$DIMTMOVE
 70
     0
  9
$LUNITS
 70
     2
  9
$LUPREC
 70
     2
  9
$SKETCHINC
 40
1.0
  9
$FILLETRAD
 40
10.0
  9
$AUNITS
 70
     0
  9
$AUPREC
 70
     2
  9
$MENU
  1
.
  9
$ELEVATION
 40
0.0
  9
$PELEVATION
 40
0.0
  9
$THICKNESS
 40
0.0
  9
$LIMCHECK
 70
     0
  9
$CHAMFERA
 40
0.0
  9
$CHAMFERB
 40
0.0
  9
$CHAMFERC
 40
0.0
  9
$CHAMFERD
 40
0.0
  9
$SKPOLY
 70
     0
  9
$TDCREATE
 40
2460300.615608206
  9
$TDUCREATE
 40
2460300.57394154
  9
$TDUPDATE
 40
2460300.615646852
  9
$TDUUPDATE
 40
2460300.573980185
  9
$TDINDWG
 40
0.0000000116
  9
$TDUSRTIMER
 40
0.0000000116
  9
$USRTIMER
 70
     1
  9
$ANGBASE
 50
0.0
  9
$ANGDIR
 70
     0
  9
$PDMODE
 70
     0
  9
$PDSIZE
 40
-1.0
  9
$PLINEWID
 40
0.0
  9
$SPLFRAME
 70
     0
  9
$SPLINETYPE
 70
     6
  9
$SPLINESEGS
 70
     8
  9
$HANDSEED
  5
ED
  9
$SURFTAB1
 70
     6
  9
$SURFTAB2
 70
     6
  9
$SURFTYPE
 70
     6
  9
$SURFU
 70
     6
  9
$SURFV
 70
     6
  9
$UCSBASE
  2

  9
$UCSNAME
  2

  9
$UCSORG
 10
0.0
 20
0.0
 30
0.0
  9
$UCSXDIR
 10
1.0
 20
0.0
 30
0.0
  9
$UCSYDIR
 10
0.0
 20
1.0
 30
0.0
  9
$UCSORTHOREF
  2

  9
$UCSORTHOVIEW
 70
     0
  9
$UCSORGTOP
 10
0.0
 20
0.0
 30
0.0
  9
$UCSORGBOTTOM
 10
0.0
 20
0.0
 30
0.0
  9
$UCSORGLEFT
 10
0.0
 20
0.0
 30
0.0
  9
$UCSORGRIGHT
 10
0.0
 20
0.0
 30
0.0
  9
$UCSORGFRONT
 10
0.0
 20
0.0
 30
0.0
  9
$UCSORGBACK
 10
0.0
 20
0.0
 30
0.0
  9
$PUCSBASE
  2

  9
$PUCSNAME
  2

  9
$PUCSORG
 10
0.0
 20
0.0
 30
0.0
  9
$PUCSXDIR
 10
1.0
 20
0.0
 30
0.0
  9
$PUCSYDIR
 10
0.0
 20
1.0
 30
0.0
  9
$PUCSORTHOREF
  2

  9
$PUCSORTHOVIEW
 70
     0
  9
$PUCSORGTOP
 10
0.0
 20
0.0
 30
0.0
  9
$PUCSORGBOTTOM
 10
0.0
 20
0.0
 30
0.0
  9
$PUCSORGLEFT
 10
0.0
 20
0.0
 30
0.0
  9
$PUCSORGRIGHT
 10
0.0
 20
0.0
 30
0.0
  9
$PUCSORGFRONT
 10
0.0
 20
0.0
 30
0.0
  9
$PUCSORGBACK
 10
0.0
 20
0.0
 30
0.0
  9
$USERI1
 70
     0
  9
$USERI2
 70
     0
  9
$USERI3
 70
     0
  9
$USERI4
 70
     0
  9
$USERI5
 70
     0
  9
$USERR1
 40
0.0
  9
$USERR2
 40
0.0
  9
$USERR3
 40
0.0
  9
$USERR4
 40
0.0
  9
$USERR5
 40
0.0
  9
$WORLDVIEW
 70
     1
  9
$SHADEDGE
 70
     3
  9
$SHADEDIF
 70
    70
  9
$TILEMODE
 70
     1
  9
$MAXACTVP
 70
    64
  9
$PINSBASE
 10
0.0
 20
0.0
 30
0.0
  9
$PLIMCHECK
 70
     0
  9
$PEXTMIN
 10
1.0000000000E+20
 20
1.0000000000E+20
 30
1.0000000000E+20
  9
$PEXTMAX
 10
-1.0000000000E+20
 20
-1.0000000000E+20
 30
-1.0000000000E+20
  9
$PLIMMIN
 10
0.0
 20
0.0
  9
$PLIMMAX
 10
420.0
 20
297.0
  9
$UNITMODE
 70
     0
  9
$VISRETAIN
 70
     1
  9
$PLINEGEN
 70
     0
  9
$PSLTSCALE
 70
     1
  9
$TREEDEPTH
 70
  3020
  9
$CMLSTYLE
  2
Standard
  9
$CMLJUST
 70
     0
  9
$CMLSCALE
 40
20.0
  9
$PROXYGRAPHICS
 70
     1
  9
$MEASUREMENT
 70
     1
  9
$CELWEIGHT
370
    -1
  9
$ENDCAPS
280
     0
  9
$JOINSTYLE
280
     0
  9
$LWDISPLAY
290
     1
  9
$INSUNITS
 70
     4
  9
$HYPERLINKBASE
  1

  9
$STYLESHEET
  1

  9
$XEDIT
290
     1
  9
$CEPSNTYPE
380
     0
  9
$PSTYLEMODE
290
     1
  9
$FINGERPRINTGUID
  2
{5CDE059C-5831-4E92-BE79-F5964481A178}
  9
$VERSIONGUID
  2
{FAEB1C32-E019-11D5-929B-00C0DF256EC4}
  9
$EXTNAMES
290
     1
  9
$PSVPSCALE
 40
0.0
  9
$OLESTARTUP
290
     0
  0
ENDSEC
  0
SECTION
  2
CLASSES
  0
CLASS
  1
ACDBDICTIONARYWDFLT
  2
AcDbDictionaryWithDefault
  3
ObjectDBX Classes
 90
        0
280
     0
281
     0
  0
CLASS
  1
VISUALSTYLE
  2
AcDbVisualStyle
  3
ObjectDBX Classes
 90
     4095
280
     0
281
     0
  0
CLASS
  1
MATERIAL
  2
AcDbMaterial
  3
ObjectDBX Classes
 90
     1153
280
     0
281
     0
  0
CLASS
  1
SCALE
  2
AcDbScale
  3
ObjectDBX Classes
 90
     1153
280
     0
281
     0
  0
CLASS
  1
TABLESTYLE
  2
AcDbTableStyle
  3
ObjectDBX Classes
 90
     4095
280
     0
281
     0
  0
CLASS
  1
MLEADERSTYLE
  2
AcDbMLeaderStyle
  3
ACDB_MLEADERSTYLE_CLASS
 90
     4095
280
     0
281
     0
  0
CLASS
  1
SUN
  2
AcDbSun
  3
SCENEOE
 90
     1153
280
     0
281
     0
  0
CLASS
  1
ACDBPLACEHOLDER
  2
AcDbPlaceHolder
  3
ObjectDBX Classes
 90
        0
280
     0
281
     0
  0
CLASS
  1
LAYOUT
  2
AcDbLayout
  3
ObjectDBX Classes
 90
        0
280
     0
281
     0
  0
ENDSEC
  0
SECTION
  2
TABLES
  0
TABLE
  2
VPORT
  5
8
330
0
100
AcDbSymbolTable
 70
     1
  0
VPORT
  5
29
330
8
100
AcDbSymbolTableRecord
100
AcDbViewportTableRecord
  2
*Active
 70
     0
 10
0.0
 20
0.0
 11
1.0
 21
1.0
 12
0.0
 22
0.0
 13
0.0
 23
0.0
 14
10.0
 24
10.0
 15
10.0
 25
10.0
 16
0.0
 26
0.0
 36
1.0
 17
0.0
 27
0.0
 37
0.0
 40
35.7
 41
1.8428571429
 42
50.0
 43
0.0
 44
0.0
 50
0.0
 51
0.0
 71
     0
 72
   100
 73
     1
 74
     3
 75
     0
 76
     0
 77
     0
 78
     0
281
     0
 65
     1
110
0.0
120
0.0
130
0.0
111
1.0
121
0.0
131
0.0
112
0.0
122
1.0
132
0.0
 79
     0
146
0.0
  0
ENDTAB
  0
TABLE
  2
LTYPE
  5
5
330
0
100
AcDbSymbolTable
 70
     6
  0
LTYPE
  5
14
330
5
100
AcDbSymbolTableRecord
100
AcDbLinetypeTableRecord
  2
ByBlock
 70
     0
  3

 72
    65
 73
     0
 40
0.0
  0
LTYPE
  5
15
330
5
100
AcDbSymbolTableRecord
100
AcDbLinetypeTableRecord
  2
ByLayer
 70
     0
  3

 72
    65
 73
     0
 40
0.0
  0
LTYPE
  5
16
330
5
100
AcDbSymbolTableRecord
100
AcDbLinetypeTableRecord
  2
Continuous
 70
     0
  3
Solid line
 72
    65
 73
     0
 40
0.0
  0
LTYPE
  5
6E
330
5
100
AcDbSymbolTableRecord
100
AcDbLinetypeTableRecord
  2
HIDDEN
 70
     0
  3
Hidden __ __ __ __ __ __ __ __ __ __ __ __ __ __
 72
    65
 73
     2
 40
1.905
 49
1.27
 74
     0
 49
-0.635
 74
     0
  0
LTYPE
  5
6F
330
5
100
AcDbSymbolTableRecord
100
AcDbLinetypeTableRecord
  2
PHANTOM
 70
     0
  3
Phantom ______  __  __  ______  __  __  ______
 72
    65
 73
     6
 40
12.7
 49
6.35
 74
     0
 49
-1.27
 74
     0
 49
1.27
 74
     0
 49
-1.27
 74
     0
 49
1.27
 74
     0
 49
-1.27
 74
     0
  0
LTYPE
  5
70
330
5
100
AcDbSymbolTableRecord
100
AcDbLinetypeTableRecord
  2
CENTER
 70
     0
  3
Center ____ _ ____ _ ____ _ ____ _ ____ _ ____
 72
    65
 73
     4
 40
10.16
 49
6.35
 74
     0
 49
-1.27
 74
     0
 49
1.27
 74
     0
 49
-1.27
 74
     0
  0
LTYPE
  5
71
330
5
100
AcDbSymbolTableRecord
100
AcDbLinetypeTableRecord
  2
CENTERX2
 70
     0
  3
Center (2x) ________  __  ________  __  _____
 72
    65
 73
     4
 40
20.32
 49
12.7
 74
     0
 49
-2.54
 74
     0
 49
2.54
 74
     0
 49
-2.54
 74
     0
  0
LTYPE
  5
72
330
5
100
AcDbSymbolTableRecord
100
AcDbLinetypeTableRecord
  2
DOT2
 70
     0
  3
Dot (.5x) ........................................
 72
    65
 73
     2
 40
0.635
 49
0.0
 74
     0
 49
-0.635
 74
     0
  0
ENDTAB
  0
TABLE
  2
LAYER
  5
2
330
0
100
AcDbSymbolTable
 70
     1
  0
LAYER
  5
10
330
2
100
AcDbSymbolTableRecord
100
AcDbLayerTableRecord
  2
0
 70
     0
 62
     7
  6
Continuous
370
    -3
390
F
  0
ENDTAB
  0
TABLE
  2
STYLE
  5
3
330
0
100
AcDbSymbolTable
 70
     2
  0
STYLE
  5
11
330
3
100
AcDbSymbolTableRecord
100
AcDbTextStyleTableRecord
  2
Standard
 70
     0
 40
0.0
 41
1.0
 50
0.0
 71
     0
 42
3.5
  3
txt
  4

  0
STYLE
  5
EA
330
3
100
AcDbSymbolTableRecord
100
AcDbTextStyleTableRecord
  2
SLDTEXTSTYLE0
 70
     0
 40
0.0
 41
0.7
 50
0.0
 71
     0
 42
3.5
  3
TXT
  4

  0
ENDTAB
  0
TABLE
  2
VIEW
  5
6
330
0
100
AcDbSymbolTable
 70
     0
  0
ENDTAB
  0
TABLE
  2
UCS
  5
7
330
0
100
AcDbSymbolTable
 70
     0
  0
ENDTAB
  0
TABLE
  2
APPID
  5
9
330
0
100
AcDbSymbolTable
 70
     1
  0
APPID
  5
12
330
9
100
AcDbSymbolTableRecord
100
AcDbRegAppTableRecord
  2
ACAD
 70
     0
  0
ENDTAB
  0
TABLE
  2
DIMSTYLE
  5
A
330
0
100
AcDbSymbolTable
 70
     1
100
AcDbDimStyleTable
  0
DIMSTYLE
105
27
330
A
100
AcDbSymbolTableRecord
100
AcDbDimStyleTableRecord
  2
ISO-25
 70
     0
 41
2.5
 42
0.625
 43
3.75
 44
1.25
 73
     0
 74
     0
 77
     1
 78
     8
140
2.5
141
2.5
143
0.0393700787
147
0.625
171
     3
172
     1
178
     0
271
     2
272
     2
274
     3
278
    44
283
     0
284
     8
340
11
  0
ENDTAB
  0
TABLE
  2
BLOCK_RECORD
  5
1
330
0
100
AcDbSymbolTable
 70
     1
  0
BLOCK_RECORD
  5
1F
330
1
100
AcDbSymbolTableRecord
100
AcDbBlockTableRecord
  2
*Model_Space
340
22
  0
BLOCK_RECORD
  5
1B
330
1
100
AcDbSymbolTableRecord
100
AcDbBlockTableRecord
  2
*Paper_Space
340
1E
  0
BLOCK_RECORD
  5
23
330
1
100
AcDbSymbolTableRecord
100
AcDbBlockTableRecord
  2
*Paper_Space0
340
26
  0
ENDTAB
  0
ENDSEC
  0
SECTION
  2
BLOCKS
  0
BLOCK
  5
20
330
1F
100
AcDbEntity
  8
0
100
AcDbBlockBegin
  2
*Model_Space
 70
     0
 10
0.0
 20
0.0
 30
0.0
  3
*Model_Space
  1

  0
ENDBLK
  5
21
330
1F
100
AcDbEntity
  8
0
100
AcDbBlockEnd
  0
BLOCK
  5
1C
330
1B
100
AcDbEntity
 67
     1
  8
0
100
AcDbBlockBegin
  2
*Paper_Space
 70
     0
 10
0.0
 20
0.0
 30
0.0
  3
*Paper_Space
  1

  0
ENDBLK
  5
1D
330
1B
100
AcDbEntity
 67
     1
  8
0
100
AcDbBlockEnd
  0
BLOCK
  5
24
330
23
100
AcDbEntity
  8
0
100
AcDbBlockBegin
  2
*Paper_Space0
 70
     0
 10
0.0
 20
0.0
 30
0.0
  3
*Paper_Space0
  1

  0
ENDBLK
  5
25
330
23
100
AcDbEntity
  8
0
100
AcDbBlockEnd
  0
ENDSEC
  0
SECTION
  2
ENTITIES
  0
SPLINE
  5
73
330
1F
100
AcDbEntity
  8
0
  6
Continuous
 62
     7
370
    25
100
AcDbSpline
210
0.0
220
0.0
230
1.0
 70
     8
 71
     3
 72
    23
 73
    19
 74
     0
 42
0.000000001
 43
0.00000001
 40
0.0
 40
0.0
 40
0.0
 40
0.0
 40
0.0702434006643668
 40
0.1378403388386407
 40
0.2026975108274827
 40
0.2654055007120102
 40
0.3269384223153788
 40
0.3881252687016816
 40
0.4491165848346523
 40
0.5111007979124538
 40
0.5720858964689634
 40
0.6321973410442372
 40
0.6913389517933892
 40
0.7505638561150154
 40
0.8105458418806518
 40
0.8713347612564566
 40
0.9346535527828167
 40
0.9999999999999999
 40
0.9999999999999999
 40
0.9999999999999999
 40
0.9999999999999999
 10
-16.87179487179487
 20
8.96554487179487
 30
0.0
 10
-16.87232731834746
 20
8.99602474525026
 30
0.0
 10
-16.87337215120761
 20
9.055836144543475
 30
0.0
 10
-16.88401282030944
 20
9.14326097506557
 30
0.0
 10
-16.90138619680611
 20
9.226237035813798
 30
0.0
 10
-16.92663444427393
 20
9.304410025768124
 30
0.0
 10
-16.95779770038402
 20
9.37867177494266
 30
0.0
 10
-16.99628660132466
 20
9.448642165117276
 30
0.0
 10
-17.04249432990939
 20
9.513976574229133
 30
0.0
 10
-17.09487900871394
 20
9.574351038013395
 30
0.0
 10
-17.15281619277411
 20
9.628805591458205
 30
0.0
 10
-17.21427569469775
 20
9.677365833895292
 30
0.0
 10
-17.28066290440076
 20
9.717528885132406
 30
0.0
 10
-17.35073235782106
 20
9.750637576460381
 30
0.0
 10
-17.42467047645336
 20
9.7761099882232
 30
0.0
 10
-17.50239425243093
 20
9.795017994873591
 30
0.0
 10
-17.5841418850987
 20
9.805003170906742
 30
0.0
 10
-17.6399337048644
 20
9.806786560524824
 30
0.0
 10
-17.66826923076923
 20
9.807692307692307
 30
0.0
  0
SPLINE
  5
74
330
1F
100
AcDbEntity
  8
0
  6
Continuous
 62
     7
370
    25
100
AcDbSpline
210
0.0
220
0.0
230
1.0
 70
     8
 71
     3
 72
    23
 73
    19
 74
     0
 42
0.000000001
 43
0.00000001
 40
0.0
 40
0.0
 40
0.0
 40
0.0
 40
0.0644156320479682
 40
0.1268028650043695
 40
0.1874227118910434
 40
0.2465175079974915
 40
0.3062853029098113
 40
0.365703059100191
 40
0.426477399904873
 40
0.4886218262448549
 40
0.5508954575115205
 40
0.6126785310935011
 40
0.6739140150164981
 40
0.7357342476276486
 40
0.7987350351772361
 40
0.8632901497642479
 40
0.9306651756049511
 40
1.0
 40
1.0
 40
1.0
 40
1.0
 10
-17.66826923076923
 20
9.807692307692307
 30
0.0
 10
-17.69606623493414
 20
9.806768427342266
 30
0.0
 10
-17.75078493681733
 20
9.80494975892931
 30
0.0
 10
-17.83133230364651
 20
9.79518945124534
 30
0.0
 10
-17.90751485141784
 20
9.775184862556667
 30
0.0
 10
-17.98084570754907
 20
9.749744500668006
 30
0.0
 10
-18.05002764197341
 20
9.715721601026043
 30
0.0
 10
-18.11695530145626
 20
9.67590696794597
 30
0.0
 10
-18.17814859497165
 20
9.626083854017061
 30
0.0
 10
-18.23656886159612
 20
9.571431543001795
 30
0.0
 10
-18.28960144184596
 20
9.510741618276132
 30
0.0
 10
-18.33479023610095
 20
9.444619990755191
 30
0.0
 10
-18.37516742477289
 20
9.375596335221438
 30
0.0
 10
-18.40578339947576
 20
9.301143609726457
 30
0.0
 10
-18.43112104527375
 20
9.22329682330942
 30
0.0
 10
-18.44826926014022
 20
9.140798208618682
 30
0.0
 10
-18.46020322024093
 20
9.054569320279072
 30
0.0
 10
-18.46108914771341
 20
8.995501940637238
 30
0.0
 10
-18.46153846153846
 20
8.96554487179487
 30
0.0
  0
SPLINE
  5
75
330
1F
100
AcDbEntity
  8
0
  6
Continuous
 62
     7
370
    25
100
AcDbSpline
210
0.0
220
0.0
230
1.0
 70
     8
 71
     3
 72
    23
 73
    19
 74
     0
 42
0.000000001
 43
0.00000001
 40
0.0
 40
0.0
 40
0.0
 40
0.0
 40
0.0713581634011241
 40
0.139455826715545
 40
0.204809025342227
 40
0.2685874988531886
 40
0.3305869868644997
 40
0.3922134778746856
 40
0.4536095427308372
 40
0.5150917343736199
 40
0.5764015514541005
 40
0.6360394646274198
 40
0.6954074138200559
 40
0.7539805926624118
 40
0.8132848423204041
 40
0.8733773385851682
 40
0.9353737783657956
 40
1.0
 40
1.0
 40
1.0
 40
1.0
 10
-18.46153846153846
 20
8.965544871794872
 30
0.0
 10
-18.46101270327935
 20
8.934531365927318
 30
0.0
 10
-18.45998520972875
 20
8.873921424555999
 30
0.0
 10
-18.44934529882923
 20
8.785422759692675
 30
0.0
 10
-18.43179973513269
 20
8.701438113271614
 30
0.0
 10
-18.40687298777658
 20
8.622097223562179
 30
0.0
 10
-18.37552339410416
 20
8.54683059130021
 30
0.0
 10
-18.33706107809736
 20
8.476060513271577
 30
0.0
 10
-18.29108011303877
 20
8.410212502449829
 30
0.0
 10
-18.23894885888594
 20
8.349367646022888
 30
0.0
 10
-18.18186736212967
 20
8.29413809646674
 30
0.0
 10
-18.11932192043473
 20
8.246742163628822
 30
0.0
 10
-18.05393170151723
 20
8.20556138851266
 30
0.0
 10
-17.98418975990662
 20
8.172486870005203
 30
0.0
 10
-17.91108663079626
 20
8.146950658299875
 30
0.0
 10
-17.83440530133304
 20
8.128149204533223
 30
0.0
 10
-17.7537428111306
 20
8.118019892674292
 30
0.0
 10
-17.69874374049194
 20
8.116275120006003
 30
0.0
 10
-17.67067307692307
 20
8.115384615384615
 30
0.0
  0
SPLINE
  5
76
330
1F
100
AcDbEntity
  8
0
  6
Continuous
 62
     7
370
    25
100
AcDbSpline
210
0.0
220
0.0
230
1.0
 70
     8
 71
     3
 72
    23
 73
    19
 74
     0
 42
0.000000001
 43
0.00000001
 40
0.0
 40
0.0
 40
0.0
 40
0.0
 40
0.0644690047117385
 40
0.1263966746716636
 40
0.1869392301251397
 40
0.2460992096806162
 40
0.3053481325545481
 40
0.3645716566821083
 40
0.4249244279700369
 40
0.486952233385454
 40
0.5495504561197305
 40
0.61114927193315
 40
0.6729218678192143
 40
0.7350102827912216
 40
0.7980485950564811
 40
0.8626429154031753
 40
0.9300412801604131
 40
1.0
 40
1.0
 40
1.0
 40
1.0
 10
-17.67067307692307
 20
8.115384615384615
 30
0.0
 10
-17.64258837385331
 20
8.116174452773096
 30
0.0
 10
-17.58752605215266
 20
8.117722992569579
 30
0.0
 10
-17.50676883894711
 20
8.129319110031265
 30
0.0
 10
-17.42969591829796
 20
8.147569113343776
 30
0.0
 10
-17.35596843129893
 20
8.173325106440037
 30
0.0
 10
-17.28618247157371
 20
8.207107567296875
 30
0.0
 10
-17.22007089226573
 20
8.24848535669162
 30
0.0
 10
-17.15705210151012
 20
8.296540524330215
 30
0.0
 10
-17.09920456549351
 20
8.352812150540359
 30
0.0
 10
-17.04565620776804
 20
8.413846760282553
 30
0.0
 10
-16.99869750079226
 20
8.48004237806515
 30
0.0
 10
-16.95945703431022
 20
8.550812474281372
 30
0.0
 10
-16.92727282530021
 20
8.62571176265669
 30
0.0
 10
-16.90229721297667
 20
8.704637294898498
 30
0.0
 10
-16.88504211950987
 20
8.787882427176445
 30
0.0
 10
-16.87310177892189
 20
8.87518917667012
 30
0.0
 10
-16.87223588761517
 20
8.935054341763514
 30
0.0
 10
-16.87179487179487
 20
8.96554487179487
 30
0.0
  0
SPLINE
  5
77
330
1F
100
AcDbEntity
  8
0
  6
Continuous
 62
     7
370
    25
100
AcDbSpline
210
0.0
220
0.0
230
1.0
 70
     8
 71
     3
 72
    23
 73
    19
 74
     0
 42
0.000000001
 43
0.00000001
 40
0.0
 40
0.0
 40
0.0
 40
0.0
 40
0.0691632110071188
 40
0.1350958426631306
 40
0.1990629313369807
 40
0.261548359676212
 40
0.3220443021575706
 40
0.3826464231920004
 40
0.443384786770754
 40
0.5051547208030005
 40
0.5665159039520429
 40
0.6272542675307967
 40
0.6870262669277868
 40
0.746970113479168
 40
0.8075388841680556
 40
0.869732605191643
 40
0.9332588244228157
 40
1.0
 40
1.0
 40
1.0
 40
1.0
 10
-13.28205128205127
 20
8.969551282051285
 30
0.0
 10
-13.28293402489771
 20
9.000024521791412
 30
0.0
 10
-13.28465827810917
 20
9.059547611327325
 30
0.0
 10
-13.29483449874235
 20
9.146840958245406
 30
0.0
 10
-13.31351897275485
 20
9.229671057117248
 30
0.0
 10
-13.33884510190024
 20
9.308190160291158
 30
0.0
 10
-13.37198580286481
 20
9.382218734703322
 30
0.0
 10
-13.41341996254766
 20
9.450935980059832
 30
0.0
 10
-13.46043138367647
 20
9.516722691394001
 30
0.0
 10
-13.51601448561413
 20
9.575896400331368
 30
0.0
 10
-13.57568513372683
 20
9.630872433795467
 30
0.0
 10
-13.64081648314894
 20
9.67787315276055
 30
0.0
 10
-13.70935654276898
 20
9.718379676899364
 30
0.0
 10
-13.78172642387364
 20
9.75163709513615
 30
0.0
 10
-13.85859623900801
 20
9.776016043599618
 30
0.0
 10
-13.93859718129163
 20
9.794891771316857
 30
0.0
 10
-14.02297743133808
 20
9.805087876395035
 30
0.0
 10
-14.08037075502902
 20
9.806809996805276
 30
0.0
 10
-14.10977564102564
 20
9.807692307692308
 30
0.0
  0
SPLINE
  5
78
330
1F
100
AcDbEntity
  8
0
  6
Continuous
 62
     7
370
    25
100
AcDbSpline
210
0.0
220
0.0
230
1.0
 70
     8
 71
     3
 72
    23
 73
    19
 74
     0
 42
0.000000001
 43
0.00000001
 40
0.0
 40
0.0
 40
0.0
 40
0.0
 40
0.0655230037635713
 40
0.1284208090674015
 40
0.189995947526209
 40
0.2503590093873241
 40
0.3097440496404103
 40
0.3698555394150612
 40
0.4305369952591717
 40
0.4928760962457611
 40
0.5552571986526702
 40
0.6161970840929247
 40
0.677577460333016
 40
0.7386308308231888
 40
0.800921895508301
 40
0.8648815412765364
 40
0.9314216962485348
 40
1.0
 40
1.0
 40
1.0
 40
1.0
 10
-14.10977564102564
 20
9.807692307692308
 30
0.0
 10
-14.13838378107247
 20
9.806814511212265
 30
0.0
 10
-14.19445386760244
 20
9.80509408742689
 30
0.0
 10
-14.27691260301981
 20
9.794745618218263
 30
0.0
 10
-14.35571841758892
 20
9.776511154463028
 30
0.0
 10
-14.43030927430945
 20
9.74957364986176
 30
0.0
 10
-14.50179685086521
 20
9.716759844591326
 30
0.0
 10
-14.56909559765626
 20
9.67566109339694
 30
0.0
 10
-14.63276095109322
 20
9.627083242943854
 30
0.0
 10
-14.69241848878505
 20
9.572202362162592
 30
0.0
 10
-14.74680512435232
 20
9.511878240103083
 30
0.0
 10
-14.79368957847299
 20
9.446051552662308
 30
0.0
 10
-14.8335337899557
 20
9.37649595544441
 30
0.0
 10
-14.86723163753879
 20
9.303002318337995
 30
0.0
 10
-14.89135165091171
 20
9.22470098466761
 30
0.0
 10
-14.91045469162175
 20
9.14261129850479
 30
0.0
 10
-14.9203679330558
 20
9.056062628996369
 30
0.0
 10
-14.92216489120036
 20
8.997082389435095
 30
0.0
 10
-14.92307692307692
 20
8.967147435897438
 30
0.0
  0
SPLINE
  5
79
330
1F
100
AcDbEntity
  8
0
  6
Continuous
 62
     7
370
    25
100
AcDbSpline
210
0.0
220
0.0
230
1.0
 70
     8
 71
     3
 72
    23
 73
    19
 74
     0
 42
0.000000001
 43
0.00000001
 40
0.0
 40
0.0
 40
0.0
 40
0.0
 40
0.0686960358133532
 40
0.1353647419295787
 40
0.1994609164175482
 40
0.2622636122658988
 40
0.3239911088162065
 40
0.3854611194158951
 40
0.4471706866934566
 40
0.5104181746885562
 40
0.5731709280273408
 40
0.6342707880848477
 40
0.693953647051151
 40
0.7537229671581408
 40
0.8130835821886168
 40
0.8736285425662126
 40
0.9361575357266926
 40
1.0
 40
1.0
 40
1.0
 40
1.0
 10
-14.92307692307692
 20
8.967147435897438
 30
0.0
 10
-14.92217882273253
 20
8.93694095499214
 30
0.0
 10
-14.92040912641881
 20
8.877419434660812
 30
0.0
 10
-14.91029440418304
 20
8.790140696103848
 30
0.0
 10
-14.89187876978528
 20
8.706851872464776
 30
0.0
 10
-14.86501105356009
 20
8.628226297125941
 30
0.0
 10
-14.83219933982824
 20
8.553203050915009
 30
0.0
 10
-14.79226010537684
 20
8.48212837331333
 30
0.0
 10
-14.74320175116374
 20
8.416258953441607
 30
0.0
 10
-14.68876743979551
 20
8.35403609979
 30
0.0
 10
-14.62788603712061
 20
8.298473506230305
 30
0.0
 10
-14.56386043925228
 20
8.249139024518021
 30
0.0
 10
-14.49581610737279
 20
8.207860895134187
 30
0.0
 10
-14.42449127420094
 20
8.174499649970572
 30
0.0
 10
-14.35012602248849
 20
8.147313039377394
 30
0.0
 10
-14.27178803736239
 20
8.129307745478853
 30
0.0
 10
-14.19024473822287
 20
8.117797301841913
 30
0.0
 10
-14.1346545179128
 20
8.116194397589675
 30
0.0
 10
-14.10657051282051
 20
8.115384615384617
 30
0.0
  0
SPLINE
  5
7A
330
1F
100
AcDbEntity
  8
0
  6
Continuous
 62
     7
370
    25
100
AcDbSpline
210
0.0
220
0.0
230
1.0
 70
     8
 71
     3
 72
    23
 73
    19
 74
     0
 42
0.000000001
 43
0.00000001
 40
0.0
 40
0.0
 40
0.0
 40
0.0
 40
0.0656255436206957
 40
0.1286617408237268
 40
0.1897897336397384
 40
0.2497074472160641
 40
0.3091889050779063
 40
0.3684998413622934
 40
0.4286435182053007
 40
0.4899369776618685
 40
0.5521210024015517
 40
0.6128780244846991
 40
0.6740503826091884
 40
0.7357291820671457
 40
0.7983046242788648
 40
0.8629527824729861
 40
0.9301685549403228
 40
1.0
 40
1.0
 40
1.0
 40
1.0
 10
-14.10657051282051
 20
8.115384615384617
 30
0.0
 10
-14.07742951273194
 20
8.116267332991772
 30
0.0
 10
-14.02029731094158
 20
8.117997939364324
 30
0.0
 10
-13.93649330297019
 20
8.128251967588305
 30
0.0
 10
-13.85662884373337
 20
8.146553289705565
 30
0.0
 10
-13.78103621222355
 20
8.173645017506393
 30
0.0
 10
-13.70856080305788
 20
8.206223284825663
 30
0.0
 10
-13.63985664151188
 20
8.246518934880072
 30
0.0
 10
-13.57566927142125
 20
8.294985312504279
 30
0.0
 10
-13.51567361319636
 20
8.350362318028932
 30
0.0
 10
-13.4606991578915
 20
8.411179022840786
 30
0.0
 10
-13.41316632894976
 20
8.477868922624234
 30
0.0
 10
-13.37176349587979
 20
8.548299091199054
 30
0.0
 10
-13.33920207255224
 20
8.624134754614847
 30
0.0
 10
-13.31334373619209
 20
8.704049142822681
 30
0.0
 10
-13.29479097627378
 20
8.788538221303844
 30
0.0
 10
-13.28469935056937
 20
8.877693079612353
 30
0.0
 10
-13.28294513185156
 20
8.93854474451527
 30
0.0
 10
-13.28205128205128
 20
8.969551282051286
 30
0.0
  0
LINE
  5
7B
330
1F
100
AcDbEntity
  8
0
  6
Continuous
 62
     7
370
    25
100
AcDbLine
 10
0.5128205128
 20
6.5
 30
0.0
 11
2.5330528846
 21
11.5
 31
0.0
  0
LINE
  5
7C
330
1F
100
AcDbEntity
  8
0
  6
Continuous
 62
     7
370
    25
100
AcDbLine
 10
2.5330528846
 20
11.5
 30
0.0
 11
3.3653846154
 21
11.5
 31
0.0
  0
LINE
  5
7D
330
1F
100
AcDbEntity
  8
0
  6
Continuous
 62
     7
370
    25
100
AcDbLine
 10
3.3653846154
 20
11.5
 30
0.0
 11
5.3846153846
 21
6.5
 31
0.0
  0
LINE
  5
7E
330
1F
100
AcDbEntity
  8
0
  6
Continuous
 62
     7
370
    25
100
AcDbLine
 10
5.3846153846
 20
6.5
 30
0.0
 11
4.4260817308
 21
6.5
 31
0.0
  0
LINE
  5
7F
330
1F
100
AcDbEntity
  8
0
  6
Continuous
 62
     7
370
    25
100
AcDbLine
 10
4.4260817308
 20
6.5
 30
0.0
 11
4.0374599359
 21
7.5256410256
 31
0.0
  0
LINE
  5
80
330
1F
100
AcDbEntity
  8
0
  6
Continuous
 62
     7
370
    25
100
AcDbLine
 10
4.0374599359
 20
7.5256410256
 30
0.0
 11
1.858974359
 21
7.5256410256
 31
0.0
  0
LINE
  5
81
330
1F
100
AcDbEntity
  8
0
  6
Continuous
 62
     7
370
    25
100
AcDbLine
 10
1.858974359
 20
7.5256410256
 30
0.0
 11
1.4703525641
 21
6.5
 31
0.0
  0
LINE
  5
82
330
1F
100
AcDbEntity
  8
0
  6
Continuous
 62
     7
370
    25
100
AcDbLine
 10
1.4703525641
 20
6.5
 30
0.0
 11
0.5128205128
 21
6.5
 31
0.0
  0
LINE
  5
83
330
1F
100
AcDbEntity
  8
0
  6
Continuous
 62
     7
370
    25
100
AcDbLine
 10
16.5256410256
 20
6.5
 30
0.0
 11
16.5256410256
 21
11.5
 31
0.0
  0
LINE
  5
84
330
1F
100
AcDbEntity
  8
0
  6
Continuous
 62
     7
370
    25
100
AcDbLine
 10
16.5256410256
 20
11.5
 30
0.0
 11
19.2179487179
 21
11.5
 31
0.0
  0
LINE
  5
85
330
1F
100
AcDbEntity
  8
0
  6
Continuous
 62
     7
370
    25
100
AcDbLine
 10
19.2179487179
 20
11.5
 30
0.0
 11
19.2179487179
 21
10.6025641026
 31
0.0
  0
LINE
  5
86
330
1F
100
AcDbEntity
  8
0
  6
Continuous
 62
     7
370
    25
100
AcDbLine
 10
19.2179487179
 20
10.6025641026
 30
0.0
 11
17.4230769231
 21
10.6025641026
 31
0.0
  0
LINE
  5
87
330
1F
100
AcDbEntity
  8
0
  6
Continuous
 62
     7
370
    25
100
AcDbLine
 10
17.4230769231
 20
10.6025641026
 30
0.0
 11
17.4230769231
 21
9.641025641
 31
0.0
  0
LINE
  5
88
330
1F
100
AcDbEntity
  8
0
  6
Continuous
 62
     7
370
    25
100
AcDbLine
 10
17.4230769231
 20
9.641025641
 30
0.0
 11
19.2179487179
 21
9.641025641
 31
0.0
  0
LINE
  5
89
330
1F
100
AcDbEntity
  8
0
  6
Continuous
 62
     7
370
    25
100
AcDbLine
 10
19.2179487179
 20
9.641025641
 30
0.0
 11
19.2179487179
 21
8.7435897436
 31
0.0
  0
LINE
  5
8A
330
1F
100
AcDbEntity
  8
0
  6
Continuous
 62
     7
370
    25
100
AcDbLine
 10
19.2179487179
 20
8.7435897436
 30
0.0
 11
17.4230769231
 21
8.7435897436
 31
0.0
  0
LINE
  5
8B
330
1F
100
AcDbEntity
  8
0
  6
Continuous
 62
     7
370
    25
100
AcDbLine
 10
17.4230769231
 20
8.7435897436
 30
0.0
 11
17.4230769231
 21
7.3974358974
 31
0.0
  0
LINE
  5
8C
330
1F
100
AcDbEntity
  8
0
  6
Continuous
 62
     7
370
    25
100
AcDbLine
 10
17.4230769231
 20
7.3974358974
 30
0.0
 11
19.2179487179
 21
7.3974358974
 31
0.0
  0
LINE
  5
8D
330
1F
100
AcDbEntity
  8
0
  6
Continuous
 62
     7
370
    25
100
AcDbLine
 10
19.2179487179
 20
7.3974358974
 30
0.0
 11
19.2179487179
 21
6.5
 31
0.0
  0
LINE
  5
8E
330
1F
100
AcDbEntity
  8
0
  6
Continuous
 62
     7
370
    25
100
AcDbLine
 10
19.2179487179
 20
6.5
 30
0.0
 11
16.5256410256
 21
6.5
 31
0.0
  0
SPLINE
  5
8F
330
1F
100
AcDbEntity
  8
0
  6
Continuous
 62
     7
370
    25
100
AcDbSpline
210
0.0
220
0.0
230
1.0
 70
     8
 71
     3
 72
    15
 73
    11
 74
     0
 42
0.000000001
 43
0.00000001
 40
0.0
 40
0.0
 40
0.0
 40
0.0
 40
0.1310144410209543
 40
0.2584643704326621
 40
0.382579776784407
 40
0.5049906055345783
 40
0.6272274934100289
 40
0.7492967291066858
 40
0.873690397475817
 40
1.0
 40
1.0
 40
1.0
 40
1.0
 10
-18.68349358974359
 20
10.08253205128205
 30
0.0
 10
-18.64723259507851
 20
10.11400912457031
 30
0.0
 10
-18.57569715910413
 20
10.17610687400246
 30
0.0
 10
-18.45947561966935
 20
10.25486768878527
 30
0.0
 10
-18.34047787787184
 20
10.32289300404679
 30
0.0
 10
-18.21727769457751
 20
10.37882246528054
 30
0.0
 10
-18.08953161942041
 20
10.42099237677218
 30
0.0
 10
-17.95789427855395
 20
10.45168829930615
 30
0.0
 10
-17.82239304413921
 20
10.47054263443961
 30
0.0
 10
-17.73056152868649
 20
10.47308039632544
 30
0.0
 10
-17.68429487179487
 20
10.47435897435897
 30
0.0
  0
SPLINE
  5
90
330
1F
100
AcDbEntity
  8
0
  6
Continuous
 62
     7
370
    25
100
AcDbSpline
210
0.0
220
0.0
230
1.0
 70
     8
 71
     3
 72
    31
 73
    27
 74
     0
 42
0.000000001
 43
0.00000001
 40
0.0
 40
0.0
 40
0.0
 40
0.0
 40
0.0425985055949073
 40
0.0843643434005581
 40
0.1261422893911734
 40
0.1677058048162796
 40
0.2090660081689998
 40
0.2509728904532762
 40
0.2931484564786649
 40
0.3360414555885136
 40
0.3787611595516321
 40
0.4208927308856891
 40
0.4626222230566608
 40
0.5039144332623813
 40
0.5451875853144844
 40
0.5861381364114944
 40
0.6277219283718789
 40
0.6695845335978194
 40
0.7114323693938063
 40
0.7526905410064813
 40
0.7939705005520834
 40
0.8345917388655476
 40
0.8755765840403349
 40
0.9166395126181272
 40
0.9580716668820025
 40
1.0
 40
1.0
 40
1.0
 40
1.0
 10
-17.68429487179487
 20
10.47435897435897
 30
0.0
 10
-17.65035164242041
 20
10.47375493136527
 30
0.0
 10
-17.58312866783293
 20
10.47255865253254
 30
0.0
 10
-17.48300844505146
 20
10.46260072369697
 30
0.0
 10
-17.38463855448836
 20
10.44635395220269
 30
0.0
 10
-17.28745357941731
 20
10.42531721909272
 30
0.0
 10
-17.19235597282603
 20
10.39584160954894
 30
0.0
 10
-17.0988469595143
 20
10.36049017367214
 30
0.0
 10
-17.00609045005996
 20
10.31990259105118
 30
0.0
 10
-16.91638864245903
 20
10.2715891711314
 30
0.0
 10
-16.82909350819894
 20
10.21918886108085
 30
0.0
 10
-16.74633252567286
 20
10.16138701959543
 30
0.0
 10
-16.66879296774329
 20
10.09863766050121
 30
0.0
 10
-16.59503543636003
 20
10.03239567717168
 30
0.0
 10
-16.52849715144525
 20
9.959777109697045
 30
0.0
 10
-16.46492595959997
 20
9.884281025127553
 30
0.0
 10
-16.40775645750205
 20
9.803202662344752
 30
0.0
 10
-16.35482573374419
 20
9.718517713531512
 30
0.0
 10
-16.30770189113671
 20
9.63071589508885
 30
0.0
 10
-16.26678350038143
 20
9.54040798779116
 30
0.0
 10
-16.23127018432842
 20
9.448842562317587
 30
0.0
 10
-16.20346396952679
 20
9.354904289194227
 30
0.0
 10
-16.18044298663091
 20
9.259831869205982
 30
0.0
 10
-16.16591511020781
 20
9.162460261087723
 30
0.0
 10
-16.15558679738973
 20
9.063789715690481
 30
0.0
 10
-16.15442866617282
 20
8.99735658493439
 30
0.0
 10
-16.15384615384615
 20
8.963942307692307
 30
0.0
  0
SPLINE
  5
91
330
1F
100
AcDbEntity
  8
0
  6
Continuous
 62
     7
370
    25
100
AcDbSpline
210
0.0
220
0.0
230
1.0
 70
     8
 71
     3
 72
    31
 73
    27
 74
     0
 42
0.000000001
 43
0.00000001
 40
0.0
 40
0.0
 40
0.0
 40
0.0
 40
0.0421677604605607
 40
0.0838390669149711
 40
0.1251923288674877
 40
0.1663353680581695
 40
0.2076019581586265
 40
0.2486701435086585
 40
0.2905824039520697
 40
0.3329262475679508
 40
0.3749784269236123
 40
0.4167409238339553
 40
0.4578567592136812
 40
0.4988089922386758
 40
0.539515963184917
 40
0.5804203555982671
 40
0.6219100282436747
 40
0.6635020515743737
 40
0.7053942854527614
 40
0.7468637274560994
 40
0.7882453890555357
 40
0.8297364100596869
 40
0.8715323828534602
 40
0.9138246690314781
 40
0.9564949075191408
 40
1.0
 40
1.0
 40
1.0
 40
1.0
 10
-16.15384615384615
 20
8.963942307692307
 30
0.0
 10
-16.15446089910203
 20
8.93026698137691
 30
0.0
 10
-16.15568315202894
 20
8.863312798714523
 30
0.0
 10
-16.16554144461357
 20
8.763714134881027
 30
0.0
 10
-16.18185040347149
 20
8.665884633461829
 30
0.0
 10
-16.20296787650063
 20
8.569247964142248
 30
0.0
 10
-16.23233317998284
 20
8.475040685152003
 30
0.0
 10
-16.26664340268321
 20
8.381874144479974
 30
0.0
 10
-16.30876055076978
 20
8.291018236742044
 30
0.0
 10
-16.35532416135731
 20
8.2014818095137
 30
0.0
 10
-16.40859520734394
 20
8.11589964665055
 30
0.0
 10
-16.46571522276164
 20
8.034009074348422
 30
0.0
 10
-16.5290201471359
 20
7.95795846701774
 30
0.0
 10
-16.59502577463693
 20
7.885389283681408
 30
0.0
 10
-16.66686290150262
 20
7.818755489495904
 30
0.0
 10
-16.7433848730008
 20
7.756975129053844
 30
0.0
 10
-16.82392922136697
 20
7.699292910118946
 30
0.0
 10
-16.90907514544815
 20
7.647062166068043
 30
0.0
 10
-16.99773206834626
 20
7.601168873864975
 30
0.0
 10
-17.08840480732561
 20
7.559792325778401
 30
0.0
 10
-17.18162356628048
 20
7.525343395079513
 30
0.0
 10
-17.27719542415876
 20
7.497251240721595
 30
0.0
 10
-17.37517834175322
 20
7.475500188832417
 30
0.0
 10
-17.47535599824455
 20
7.460724440496874
 30
0.0
 10
-17.57751264815948
 20
7.450448077911505
 30
0.0
 10
-17.64634177627337
 20
7.449298371179314
 30
0.0
 10
-17.68108974358974
 20
7.448717948717948
 30
0.0
  0
SPLINE
  5
92
330
1F
100
AcDbEntity
  8
0
  6
Continuous
 62
     7
370
    25
100
AcDbSpline
210
0.0
220
0.0
230
1.0
 70
     8
 71
     3
 72
    23
 73
    19
 74
     0
 42
0.000000001
 43
0.00000001
 40
0.0
 40
0.0
 40
0.0
 40
0.0
 40
0.0643749394126467
 40
0.1268839856988395
 40
0.1882007060452001
 40
0.2488940858177934
 40
0.3095987875740263
 40
0.3711252977304459
 40
0.4334655391922518
 40
0.4981431288010853
 40
0.5625927532688294
 40
0.6254744894787343
 40
0.6871144537941611
 40
0.7481249935864716
 40
0.8094566560197096
 40
0.8714311165056399
 40
0.9346108720922294
 40
1.0
 40
1.0
 40
1.0
 40
1.0
 10
-17.68108974358974
 20
7.448717948717948
 30
0.0
 10
-17.73189835739576
 20
7.450209281724663
 30
0.0
 10
-17.83204290877494
 20
7.45314872178663
 30
0.0
 10
-17.97953215637923
 20
7.473283117147703
 30
0.0
 10
-18.12122063626761
 20
7.507939690465236
 30
0.0
 10
-18.25733922809049
 20
7.556250189474411
 30
0.0
 10
-18.38806475334067
 20
7.618158293809023
 30
0.0
 10
-18.51225634403805
 20
7.694778973989751
 30
0.0
 10
-18.63114936822408
 20
7.784603788422297
 30
0.0
 10
-18.74268450883949
 20
7.886873530052128
 30
0.0
 10
-18.84486580725956
 20
7.999072697419271
 30
0.0
 10
-18.93413346527116
 20
8.118844624995925
 30
0.0
 10
-19.00992893088193
 20
8.244394132754543
 30
0.0
 10
-19.07218401106624
 20
8.375864389639508
 30
0.0
 10
-19.12023223802598
 20
8.513435676689747
 30
0.0
 10
-19.15493125593461
 20
8.65669670398115
 30
0.0
 10
-19.17509026785967
 20
8.806050157363233
 30
0.0
 10
-19.17800484723015
 20
8.907525201914712
 30
0.0
 10
-19.17948717948718
 20
8.959134615384613
 30
0.0
  0
SPLINE
  5
93
330
1F
100
AcDbEntity
  8
0
  6
Continuous
 62
     7
370
    25
100
AcDbSpline
210
0.0
220
0.0
230
1.0
 70
     8
 71
     3
 72
    15
 73
    11
 74
     0
 42
0.000000001
 43
0.00000001
 40
0.0
 40
0.0
 40
0.0
 40
0.0
 40
0.1304890874312532
 40
0.2564736887830344
 40
0.3792365000425221
 40
0.5009776890084852
 40
0.6223665339559105
 40
0.744855131286161
 40
0.8702585132523775
 40
0.9999999999999999
 40
0.9999999999999999
 40
0.9999999999999999
 40
0.9999999999999999
 10
-19.17948717948718
 20
8.959134615384613
 30
0.0
 10
-19.17795315387065
 20
9.014242155577763
 30
0.0
 10
-19.17493805723456
 20
9.122554922501982
 30
0.0
 10
-19.15099686306247
 20
9.281235594320957
 30
0.0
 10
-19.11276535873698
 20
9.433164817377664
 30
0.0
 10
-19.05788644243315
 20
9.577917597503564
 30
0.0
 10
-18.98778345357642
 20
9.715760911615469
 30
0.0
 10
-18.90220359168224
 20
9.846404032995467
 30
0.0
 10
-18.80072391571789
 20
9.969876553709467
 30
0.0
 10
-18.72301080454736
 20
10.0445569671099
 30
0.0
 10
-18.68349358974359
 20
10.08253205128205
 30
0.0
  0
SPLINE
  5
94
330
1F
100
AcDbEntity
  8
0
  6
Continuous
 62
     7
370
    25
100
AcDbSpline
210
0.0
220
0.0
230
1.0
 70
     8
 71
     3
 72
    23
 73
    19
 74
     0
 42
0.000000001
 43
0.00000001
 40
0.0
 40
0.0
 40
0.0
 40
0.0
 40
0.0622757783707706
 40
0.1239040620075177
 40
0.1850672407687284
 40
0.2468401515202068
 40
0.3084353298497783
 40
0.3702412507091075
 40
0.4325865888798535
 40
0.4959245816612418
 40
0.559351070950925
 40
0.6219426542010902
 40
0.6843928672351844
 40
0.7469858082645227
 40
0.8094414645316991
 40
0.8725078327139386
 40
0.9357692970662277
 40
1.0
 40
1.0
 40
1.0
 40
1.0
 10
22.46915064102564
 20
11.62820512820513
 30
0.0
 10
22.5195899013607
 20
11.62744955958209
 30
0.0
 10
22.61994399413431
 20
11.62594627814637
 30
0.0
 10
22.76938807838342
 20
11.61341479173934
 30
0.0
 10
22.91763697881375
 20
11.59373421909706
 30
0.0
 10
23.06415991886905
 20
11.56404042613891
 30
0.0
 10
23.21000498040259
 20
11.52879014150553
 30
0.0
 10
23.35325559587674
 20
11.48263475612157
 30
0.0
 10
23.49617162121212
 20
11.43118588108018
 30
0.0
 10
23.63651163079426
 20
11.36968925620073
 30
0.0
 10
23.77447151869966
 20
11.30256013524464
 30
0.0
 10
23.90681935726433
 20
11.22639970966963
 30
0.0
 10
24.03577725446011
 20
11.14589480701367
 30
0.0
 10
24.15848758070993
 20
11.05628079440709
 30
0.0
 10
24.277248964658
 20
10.96080813871034
 30
0.0
 10
24.39144039264092
 20
10.85903140638049
 30
0.0
 10
24.50005976810667
 20
10.74925368048684
 30
0.0
 10
24.56822325711144
 20
10.67168923686624
 30
0.0
 10
24.6025641025641
 20
10.63261217948718
 30
0.0
  0
LINE
  5
95
330
1F
100
AcDbEntity
  8
0
  6
Continuous
 62
     7
370
    25
100
AcDbLine
 10
24.6025641026
 20
10.6326121795
 30
0.0
 11
23.9445112179
 21
10.0036057692
 31
0.0
  0
SPLINE
  5
96
330
1F
100
AcDbEntity
  8
0
  6
Continuous
 62
     7
370
    25
100
AcDbSpline
210
0.0
220
0.0
230
1.0
 70
     8
 71
     3
 72
    15
 73
    11
 74
     0
 42
0.000000001
 43
0.00000001
 40
0.0
 40
0.0
 40
0.0
 40
0.0
 40
0.1394064381817403
 40
0.2723044483741605
 40
0.3995253362717593
 40
0.5228108782578231
 40
0.6426627165918696
 40
0.7610226208095229
 40
0.8798007967838035
 40
1.0
 40
1.0
 40
1.0
 40
1.0
 10
23.94451121794871
 20
10.00360576923077
 30
0.0
 10
23.8886898112452
 20
10.06132519732067
 30
0.0
 10
23.77965311567985
 20
10.17406932328422
 30
0.0
 10
23.60395396572873
 20
10.32333261026465
 30
0.0
 10
23.42123324706269
 20
10.44772336389658
 30
0.0
 10
23.23504542653992
 20
10.55248446464158
 30
0.0
 10
23.04204152500507
 20
10.63174370366825
 30
0.0
 10
22.84445319313061
 20
10.68950124621026
 30
0.0
 10
22.6410187712985
 20
10.72471383682699
 30
0.0
 10
22.50334217930238
 20
10.728742780375
 30
0.0
 10
22.43409455128205
 20
10.73076923076923
 30
0.0
  0
SPLINE
  5
97
330
1F
100
AcDbEntity
  8
0
  6
Continuous
 62
     7
370
    25
100
AcDbSpline
210
0.0
220
0.0
230
1.0
 70
     8
 71
     3
 72
    23
 73
    19
 74
     0
 42
0.000000001
 43
0.00000001
 40
0.0
 40
0.0
 40
0.0
 40
0.0
 40
0.0647145165408364
 40
0.1277069683294538
 40
0.1888821628171173
 40
0.2491582987223295
 40
0.3096610287488863
 40
0.370224886057185
 40
0.4323322219725852
 40
0.4957818589938711
 40
0.5593040765204272
 40
0.6218605583615243
 40
0.6833215373325064
 40
0.7445229747823348
 40
0.8060883712105111
 40
0.8689943146702062
 40
0.9334190568081365
 40
1.0
 40
1.0
 40
1.0
 40
1.0
 10
22.43409455128205
 20
10.73076923076923
 30
0.0
 10
22.37626436667973
 20
10.72916826411982
 30
0.0
 10
22.26214286893458
 20
10.72600893282721
 30
0.0
 10
22.09458260471125
 20
10.70284791830952
 30
0.0
 10
21.93430255229469
 20
10.6634616051727
 30
0.0
 10
21.78075404766563
 20
10.60917996982616
 30
0.0
 10
21.63438891389318
 20
10.53894241470669
 30
0.0
 10
21.49490027828339
 20
10.45280330185438
 30
0.0
 10
21.36263204428196
 20
10.35154058996772
 30
0.0
 10
21.23933139863896
 20
10.23567821697586
 30
0.0
 10
21.12654030124359
 20
10.10908986778933
 30
0.0
 10
21.02688218488117
 20
9.974020401188513
 30
0.0
 10
20.94340252633156
 20
9.830779253771137
 30
0.0
 10
20.87489212844317
 20
9.680817066585377
 30
0.0
 10
20.82152517684839
 20
9.52343974040131
 30
0.0
 10
20.78341446849744
 20
9.358753227868178
 30
0.0
 10
20.76137225328381
 20
9.186561400076465
 30
0.0
 10
20.75808230494121
 20
9.069506678596744
 30
0.0
 10
20.75641025641025
 20
9.010016025641027
 30
0.0
  0
SPLINE
  5
98
330
1F
100
AcDbEntity
  8
0
  6
Continuous
 62
     7
370
    25
100
AcDbSpline
210
0.0
220
0.0
230
1.0
 70
     8
 71
     3
 72
    31
 73
    27
 74
     0
 42
0.000000001
 43
0.00000001
 40
0.0
 40
0.0
 40
0.0
 40
0.0
 40
0.0459858533955722
 40
0.0906390618643954
 40
0.1344852733868694
 40
0.1773313561259417
 40
0.2192648329782466
 40
0.2607850023581457
 40
0.3023165723378491
 40
0.3434357294037524
 40
0.3841814737656314
 40
0.4243757389977438
 40
0.4641811219517818
 40
0.5040119825276101
 40
0.5438224623104053
 40
0.5838024645760241
 40
0.6244185350988853
 40
0.6655475595785363
 40
0.7066749396536333
 40
0.7478269788975751
 40
0.7888951165570478
 40
0.8302193579728131
 40
0.8717069369478626
 40
0.9137338536047374
 40
0.9565878279841873
 40
1.0
 40
1.0
 40
1.0
 40
1.0
 10
20.75641025641025
 20
9.010016025641026
 30
0.0
 10
20.7568921217281
 20
8.968261322976499
 30
0.0
 10
20.75784188816994
 20
8.885961946135886
 30
0.0
 10
20.76823876147806
 20
8.764218326399911
 30
0.0
 10
20.78498017909534
 20
8.646098233706844
 30
0.0
 10
20.80920915816253
 20
8.531780588518261
 30
0.0
 10
20.83950773466652
 20
8.421166322137408
 30
0.0
 10
20.87505486385209
 20
8.313301170917772
 30
0.0
 10
20.91964821451372
 20
8.20967558837591
 30
0.0
 10
20.96914750658408
 20
8.10908603063899
 30
0.0
 10
21.02671461284188
 20
8.014277209704272
 30
0.0
 10
21.08878257310769
 20
7.923869130503487
 30
0.0
 10
21.15608514237371
 20
7.838304964438328
 30
0.0
 10
21.22905824336793
 20
7.757934500433135
 30
0.0
 10
21.30872888166854
 20
7.684013748844666
 30
0.0
 10
21.3930378660595
 20
7.614319824717183
 30
0.0
 10
21.48340737244456
 20
7.55059740303703
 30
0.0
 10
21.57796019715881
 20
7.491247299464971
 30
0.0
 10
21.67751315712141
 20
7.439689359556009
 30
0.0
 10
21.779365149711
 20
7.392987826639744
 30
0.0
 10
21.88506045641621
 20
7.355059238398408
 30
0.0
 10
21.99331217339472
 20
7.324485336110941
 30
0.0
 10
22.10373344716391
 20
7.298486798381921
 30
0.0
 10
22.21740430033458
 20
7.282478699700645
 30
0.0
 10
22.33333934896294
 20
7.270355953934914
 30
0.0
 10
22.41169198220234
 20
7.269607445243571
 30
0.0
 10
22.45112179487179
 20
7.269230769230768
 30
0.0
  0
SPLINE
  5
99
330
1F
100
AcDbEntity
  8
0
  6
Continuous
 62
     7
370
    25
100
AcDbSpline
210
0.0
220
0.0
230
1.0
 70
     8
 71
     3
 72
    19
 73
    15
 74
     0
 42
0.000000001
 43
0.00000001
 40
0.0
 40
0.0
 40
0.0
 40
0.0
 40
0.1170484290483444
 40
0.229969725903515
 40
0.3407035076587647
 40
0.4493551469115583
 40
0.5055565115208203
 40
0.5653026697757546
 40
0.6282049564766
 40
0.6947289918311274
 40
0.7650188336519134
 40
0.8395802021957272
 40
0.9177497995909459
 40
1.0
 40
1.0
 40
1.0
 40
1.0
 10
22.45112179487179
 20
7.269230769230768
 30
0.0
 10
22.5180015333486
 20
7.271165286179794
 30
0.0
 10
22.64940282810376
 20
7.274966108934442
 30
0.0
 10
22.84225312198584
 20
7.304688004670666
 30
0.0
 10
23.0260202394502
 20
7.353578841210436
 30
0.0
 10
23.17284928692623
 20
7.411316078313717
 30
0.0
 10
23.28788596731561
 20
7.46833234951273
 30
0.0
 10
23.37546169149773
 20
7.521069592623226
 30
0.0
 10
23.4660218159293
 20
7.580061989270387
 30
0.0
 10
23.55806221438915
 20
7.647535976388422
 30
0.0
 10
23.65261815877824
 20
7.722681839074996
 30
0.0
 10
23.74802051864861
 20
7.807145411933604
 30
0.0
 10
23.84671161135518
 20
7.89814543067488
 30
0.0
 10
23.91136316791587
 20
7.963093931773862
 30
0.0
 10
23.94451121794871
 20
7.996394230769231
 30
0.0
  0
LINE
  5
9A
330
1F
100
AcDbEntity
  8
0
  6
Continuous
 62
     7
370
    25
100
AcDbLine
 10
23.9445112179
 20
7.9963942308
 30
0.0
 11
24.5825320513
 21
7.3263221154
 31
0.0
  0
SPLINE
  5
9B
330
1F
100
AcDbEntity
  8
0
  6
Continuous
 62
     7
370
    25
100
AcDbSpline
210
0.0
220
0.0
230
1.0
 70
     8
 71
     3
 72
    23
 73
    19
 74
     0
 42
0.000000001
 43
0.00000001
 40
0.0
 40
0.0
 40
0.0
 40
0.0
 40
0.0777829363133482
 40
0.1518156572691094
 40
0.2225398385800628
 40
0.2902775346822929
 40
0.3546406074863798
 40
0.4157977534850324
 40
0.4747090076698671
 40
0.5304260996200423
 40
0.585579745825266
 40
0.6409061648040312
 40
0.6979010906656709
 40
0.7554203208806056
 40
0.8145212584872913
 40
0.8744618312159083
 40
0.9366697167404245
 40
1.0
 40
1.0
 40
1.0
 40
1.0
 10
24.58253205128204
 20
7.326322115384614
 30
0.0
 10
24.5376826208918
 20
7.283021398366273
 30
0.0
 10
24.45014612412843
 20
7.198507658901867
 30
0.0
 10
24.3180997488704
 20
7.078506035197985
 30
0.0
 10
24.18621955919856
 20
6.970671236243034
 30
0.0
 10
24.05769150575681
 20
6.871089331445751
 30
0.0
 10
23.93041016497972
 20
6.782661383555563
 30
0.0
 10
23.80438903484275
 20
6.70529907853028
 30
0.0
 10
23.68105472962492
 20
6.637045811770795
 30
0.0
 10
23.55784617296355
 20
6.579052641141889
 30
0.0
 10
23.43399669762825
 20
6.529810416129143
 30
0.0
 10
23.30657014180135
 20
6.487416092470877
 30
0.0
 10
23.17517695051199
 20
6.451552019789021
 30
0.0
 10
23.03901463410434
 20
6.422614423248486
 30
0.0
 10
22.89935323169506
 20
6.399410377395235
 30
0.0
 10
22.75488569812025
 20
6.383747780656952
 30
0.0
 10
22.60652802888486
 20
6.373218337969305
 30
0.0
 10
22.50589472341228
 20
6.372272180286902
 30
0.0
 10
22.4551282051282
 20
6.37179487179487
 30
0.0
  0
SPLINE
  5
9C
330
1F
100
AcDbEntity
  8
0
  6
Continuous
 62
     7
370
    25
100
AcDbSpline
210
0.0
220
0.0
230
1.0
 70
     8
 71
     3
 72
    23
 73
    19
 74
     0
 42
0.000000001
 43
0.00000001
 40
0.0
 40
0.0
 40
0.0
 40
0.0
 40
0.067376242799264
 40
0.1318365787763101
 40
0.1944610676015861
 40
0.2553459677434137
 40
0.3155883400136114
 40
0.375627451772199
 40
0.4361378520525412
 40
0.4977786195747126
 40
0.5594703610940517
 40
0.620277769679113
 40
0.6807876889604189
 40
0.7414916215916538
 40
0.8032154362531896
 40
0.8664927627489313
 40
0.9319104429113603
 40
1.0
 40
1.0
 40
1.0
 40
1.0
 10
22.4551282051282
 20
6.37179487179487
 30
0.0
 10
22.36187639948851
 20
6.374172046290695
 30
0.0
 10
22.17940853678981
 20
6.378823516002621
 30
0.0
 10
21.9120066415594
 20
6.413287757249394
 30
0.0
 10
21.65798201906325
 20
6.4710664505543
 30
0.0
 10
21.4167166749487
 20
6.552781459541575
 30
0.0
 10
21.18828732597943
 20
6.65716855386772
 30
0.0
 10
20.97275241134963
 20
6.785142229897475
 30
0.0
 10
20.77045932542525
 20
6.936362481751321
 30
0.0
 10
20.58304219816213
 20
7.109056861262824
 30
0.0
 10
20.41351448699988
 20
7.29978330584775
 30
0.0
 10
20.26367162262146
 20
7.504571183375986
 30
0.0
 10
20.13972159955611
 20
7.724426951232161
 30
0.0
 10
20.03680322458321
 20
7.956102637413209
 30
0.0
 10
19.95632240891493
 20
8.200655468065063
 30
0.0
 10
19.89967755840972
 20
8.458349974871568
 30
0.0
 10
19.8647450925023
 20
8.728937337852575
 30
0.0
 10
19.86092343108773
 20
8.91375474428263
 30
0.0
 10
19.85897435897435
 20
9.00801282051282
 30
0.0
  0
SPLINE
  5
9D
330
1F
100
AcDbEntity
  8
0
  6
Continuous
 62
     7
370
    25
100
AcDbSpline
210
0.0
220
0.0
230
1.0
 70
     8
 71
     3
 72
    31
 73
    27
 74
     0
 42
0.000000001
 43
0.00000001
 40
0.0
 40
0.0
 40
0.0
 40
0.0
 40
0.0446633309063705
 40
0.0885118057801453
 40
0.130925591301777
 40
0.1729040372808866
 40
0.2140001199049664
 40
0.2549850203589828
 40
0.2952912763870585
 40
0.3357724419527878
 40
0.3761808205537694
 40
0.4161784084745201
 40
0.456350051444473
 40
0.4965121666444155
 40
0.5370405736377795
 40
0.5781187440077614
 40
0.6197245605548114
 40
0.6624219701988826
 40
0.7052989535209022
 40
0.7474300005339111
 40
0.7894329840393831
 40
0.831267421203061
 40
0.8728250959642291
 40
0.9148701104843924
 40
0.9570270028395003
 40
1.0
 40
1.0
 40
1.0
 40
1.0
 10
19.85897435897435
 20
9.00801282051282
 30
0.0
 10
19.85979794238568
 20
9.069487133634912
 30
0.0
 10
19.86143008341652
 20
9.191314197427731
 30
0.0
 10
19.87858403680541
 20
9.370775332492467
 30
0.0
 10
19.90249764528152
 20
9.545717838486587
 30
0.0
 10
19.94043441064418
 20
9.714325232494991
 30
0.0
 10
19.9861634396436
 20
9.87886896708124
 30
0.0
 10
20.04303349531288
 20
10.03756064401577
 30
0.0
 10
20.11095374831605
 20
10.1908563591576
 30
0.0
 10
20.18773496895565
 20
10.3390127387465
 30
0.0
 10
20.27459679567801
 20
10.48105919975135
 30
0.0
 10
20.37163099177492
 20
10.6157753392059
 30
0.0
 10
20.4763395186582
 20
10.74420114090469
 30
0.0
 10
20.59123835164452
 20
10.8646327981824
 30
0.0
 10
20.71465786015003
 20
10.97812772440271
 30
0.0
 10
20.84715526911003
 20
11.0840708688182
 30
0.0
 10
20.98793367279397
 20
11.18398157564251
 30
0.0
 10
21.13737410599446
 20
11.2752833902379
 30
0.0
 10
21.29257333929063
 20
11.35787073442058
 30
0.0
 10
21.451573901927
 20
11.43071629922057
 30
0.0
 10
21.61398514796869
 20
11.49159841628322
 30
0.0
 10
21.77912038795371
 20
11.54209788656654
 30
0.0
 10
21.94767731615407
 20
11.57979217040619
 30
0.0
 10
22.11845281611309
 20
11.60832552724127
 30
0.0
 10
22.29289998226609
 20
11.62427585614362
 30
0.0
 10
22.41002614153203
 20
11.62688702678272
 30
0.0
 10
22.46915064102564
 20
11.62820512820513
 30
0.0
  0
LINE
  5
9E
330
1F
100
AcDbEntity
  8
0
  6
Continuous
 62
     7
370
    25
100
AcDbLine
 10
-25.95
 20
5.5
 30
0.0
 11
-25.95
 21
-8.5
 31
0.0
  0
LINE
  5
9F
330
1F
100
AcDbEntity
  8
0
  6
Continuous
 62
     7
370
    25
100
AcDbLine
 10
-10.05
 20
5.5
 30
0.0
 11
-25.95
 21
5.5
 31
0.0
  0
LINE
  5
A0
330
1F
100
AcDbEntity
  8
0
  6
Continuous
 62
     7
370
    25
100
AcDbLine
 10
-10.05
 20
-8.5
 30
0.0
 11
-10.05
 21
5.5
 31
0.0
  0
LINE
  5
A1
330
1F
100
AcDbEntity
  8
0
  6
Continuous
 62
     7
370
    25
100
AcDbLine
 10
-25.95
 20
-8.5
 30
0.0
 11
-10.05
 21
-8.5
 31
0.0
  0
CIRCLE
  5
A2
330
1F
100
AcDbEntity
  8
0
  6
Continuous
 62
     7
370
    25
100
AcDbCircle
 10
28.25
 20
-13.5
 30
0.0
 40
1.500000000000004
  0
CIRCLE
  5
A3
330
1F
100
AcDbEntity
  8
0
  6
Continuous
 62
     7
370
    25
100
AcDbCircle
 10
-28.25
 20
13.5
 30
0.0
 40
1.500000000000004
  0
CIRCLE
  5
A4
330
1F
100
AcDbEntity
  8
0
  6
Continuous
 62
     7
370
    25
100
AcDbCircle
 10
28.25
 20
13.5
 30
0.0
 40
1.500000000000007
  0
CIRCLE
  5
A5
330
1F
100
AcDbEntity
  8
0
  6
Continuous
 62
     7
370
    25
100
AcDbCircle
 10
-28.25
 20
-13.5
 30
0.0
 40
1.500000000000007
  0
ARC
  5
A6
330
1F
100
AcDbEntity
  8
0
  6
Continuous
 62
     7
370
    25
100
AcDbCircle
 10
18.0
 20
-2.2
 30
0.0
 40
5.049999999999999
100
AcDbArc
 50
205.711481934
 51
334.288518066
  0
LINE
  5
A7
330
1F
100
AcDbEntity
  8
0
  6
Continuous
 62
     7
370
    25
100
AcDbLine
 10
13.45
 20
-0.00910977
 30
0.0
 11
13.45
 21
-4.39089023
 31
0.0
  0
ARC
  5
A8
330
1F
100
AcDbEntity
  8
0
  6
Continuous
 62
     7
370
    25
100
AcDbCircle
 10
18.0
 20
-2.2
 30
0.0
 40
5.050000000000001
100
AcDbArc
 50
25.711481934
 51
154.288518066
  0
LINE
  5
A9
330
1F
100
AcDbEntity
  8
0
  6
Continuous
 62
     7
370
    25
100
AcDbLine
 10
22.55
 20
-4.39089023
 30
0.0
 11
22.55
 21
-0.00910977
 31
0.0
  0
LINE
  5
AA
330
1F
100
AcDbEntity
  8
0
  6
Continuous
 62
     7
370
    25
100
AcDbLine
 10
-32.25
 20
15.0
 30
0.0
 11
-32.25
 21
-15.0
 31
0.0
  0
ARC
  5
AB
330
1F
100
AcDbEntity
  8
0
  6
Continuous
 62
     7
370
    25
100
AcDbCircle
 10
-29.75
 20
-15.0
 30
0.0
 40
2.499999999999998
100
AcDbArc
 50
180.0
 51
270.0
  0
LINE
  5
AC
330
1F
100
AcDbEntity
  8
0
  6
Continuous
 62
     7
370
    25
100
AcDbLine
 10
-29.75
 20
-17.5
 30
0.0
 11
29.75
 21
-17.5
 31
0.0
  0
ARC
  5
AD
330
1F
100
AcDbEntity
  8
0
  6
Continuous
 62
     7
370
    25
100
AcDbCircle
 10
29.75
 20
-15.0
 30
0.0
 40
2.499999999999998
100
AcDbArc
 50
270.0
 51
0.0
  0
LINE
  5
AE
330
1F
100
AcDbEntity
  8
0
  6
Continuous
 62
     7
370
    25
100
AcDbLine
 10
32.25
 20
-15.0
 30
0.0
 11
32.25
 21
15.0
 31
0.0
  0
ARC
  5
AF
330
1F
100
AcDbEntity
  8
0
  6
Continuous
 62
     7
370
    25
100
AcDbCircle
 10
29.75
 20
15.0
 30
0.0
 40
2.5
100
AcDbArc
 50
0.0
 51
90.0
  0
LINE
  5
B0
330
1F
100
AcDbEntity
  8
0
  6
Continuous
 62
     7
370
    25
100
AcDbLine
 10
29.75
 20
17.5
 30
0.0
 11
-29.75
 21
17.5
 31
0.0
  0
ARC
  5
B1
330
1F
100
AcDbEntity
  8
0
  6
Continuous
 62
     7
370
    25
100
AcDbCircle
 10
-29.75
 20
15.0
 30
0.0
 40
2.500000000000004
100
AcDbArc
 50
90.0
 51
180.0
  0
ARC
  5
B2
330
1F
100
AcDbEntity
  8
0
  6
Continuous
 62
     7
370
    25
100
AcDbCircle
 10
0.0
 20
-2.2
 30
0.0
 40
5.05
100
AcDbArc
 50
25.711481934
 51
154.288518066
  0
LINE
  5
B3
330
1F
100
AcDbEntity
  8
0
  6
Continuous
 62
     7
370
    25
100
AcDbLine
 10
4.55
 20
-4.39089023
 30
0.0
 11
4.55
 21
-0.00910977
 31
0.0
  0
ARC
  5
B4
330
1F
100
AcDbEntity
  8
0
  6
Continuous
 62
     7
370
    25
100
AcDbCircle
 10
0.0
 20
-2.2
 30
0.0
 40
5.050000000000001
100
AcDbArc
 50
205.711481934
 51
334.288518066
  0
LINE
  5
B5
330
1F
100
AcDbEntity
  8
0
  6
Continuous
 62
     7
370
    25
100
AcDbLine
 10
-4.55
 20
-0.00910977
 30
0.0
 11
-4.55
 21
-4.39089023
 31
0.0
  0
LINE
  5
B6
330
1F
100
AcDbEntity
  8
0
  6
Continuous
 62
     7
370
    25
100
AcDbLine
 10
-4.9679487179
 20
6.5
 30
0.0
 11
-4.9679487179
 21
11.5
 31
0.0
  0
LINE
  5
B7
330
1F
100
AcDbEntity
  8
0
  6
Continuous
 62
     7
370
    25
100
AcDbLine
 10
-4.9679487179
 20
11.5
 30
0.0
 11
-3.922275641
 21
11.5
 31
0.0
  0
SPLINE
  5
B8
330
1F
100
AcDbEntity
  8
0
  6
Continuous
 62
     7
370
    25
100
AcDbSpline
210
0.0
220
0.0
230
1.0
 70
     8
 71
     3
 72
    31
 73
    27
 74
     0
 42
0.000000001
 43
0.00000001
 40
0.0
 40
0.0
 40
0.0
 40
0.0
 40
0.0728890266200383
 40
0.1401861299444943
 40
0.2022774341249592
 40
0.2588951317514626
 40
0.3104829424654784
 40
0.3570952441313353
 40
0.3985135666534658
 40
0.4350375108701162
 40
0.4692514858292875
 40
0.5028050278902744
 40
0.5362104463185621
 40
0.5693793599392061
 40
0.6028014750483932
 40
0.6366657983367766
 40
0.670928656894043
 40
0.7058030002293131
 40
0.7411890612458774
 40
0.7763043110764618
 40
0.8120043009129354
 40
0.8479689758088956
 40
0.8845217611964795
 40
0.9219741585442052
 40
0.9601981758096081
 40
1.0
 40
1.0
 40
1.0
 40
1.0
 10
-3.922275641025643
 20
11.5
 30
0.0
 10
-3.853156968939994
 20
11.49975466838251
 30
0.0
 10
-3.720222292817895
 20
11.49928282657581
 30
0.0
 10
-3.528537750620895
 20
11.49183841270611
 30
0.0
 10
-3.35244913768676
 20
11.48147889979288
 30
0.0
 10
-3.191695738896688
 20
11.46567000812761
 30
0.0
 10
-3.046346327204016
 20
11.4447093287058
 30
0.0
 10
-2.916255228525779
 20
11.42000015620112
 30
0.0
 10
-2.801426245296486
 20
11.39183875663394
 30
0.0
 10
-2.70089095363062
 20
11.35674743090822
 30
0.0
 10
-2.61016282427276
 20
11.31716494750456
 30
0.0
 10
-2.5255915940842
 20
11.27168394826496
 30
0.0
 10
-2.445311495965641
 20
11.22081087849956
 30
0.0
 10
-2.369859115667957
 20
11.16320713003974
 30
0.0
 10
-2.298578754266659
 20
11.09990898012904
 30
0.0
 10
-2.231335937086407
 20
11.03085271296429
 30
0.0
 10
-2.169080867459672
 20
10.955452759842
 30
0.0
 10
-2.112199031304665
 20
10.87418555278163
 30
0.0
 10
-2.06035581634162
 20
10.78869431452306
 30
0.0
 10
-2.014537287704739
 20
10.69886166503822
 30
0.0
 10
-1.977277584061929
 20
10.60462513170258
 30
0.0
 10
-1.944354641741808
 20
10.50734663615735
 30
0.0
 10
-1.920641312978701
 20
10.40563556322395
 30
0.0
 10
-1.90414903971987
 20
10.30048208736667
 30
0.0
 10
-1.892074042418452
 20
10.19151605718604
 30
0.0
 10
-1.891379787801688
 20
10.11748937431764
 30
0.0
 10
-1.891025641025643
 20
10.07972756410257
 30
0.0
  0
SPLINE
  5
B9
330
1F
100
AcDbEntity
  8
0
  6
Continuous
 62
     7
370
    25
100
AcDbSpline
210
0.0
220
0.0
230
1.0
 70
     8
 71
     3
 72
    23
 73
    19
 74
     0
 42
0.000000001
 43
0.00000001
 40
0.0
 40
0.0
 40
0.0
 40
0.0
 40
0.0687412630793656
 40
0.1347890881950341
 40
0.1985360495606906
 40
0.2603856506059213
 40
0.3209615782321967
 40
0.3799038495841488
 40
0.4385029357752682
 40
0.4961543439762686
 40
0.5542654832084992
 40
0.6127487608156945
 40
0.6725134425261784
 40
0.7336464018979739
 40
0.7967896194814542
 40
0.8619356990410241
 40
0.9293977347748983
 40
0.9999999999999999
 40
0.9999999999999999
 40
0.9999999999999999
 40
0.9999999999999999
 10
-1.891025641025643
 20
10.07972756410257
 30
0.0
 10
-1.891945586993902
 20
10.04031290897518
 30
0.0
 10
-1.893749433369364
 20
9.963027953940127
 30
0.0
 10
-1.903465931280196
 20
9.84950265832111
 30
0.0
 10
-1.92122463720493
 20
9.74088959622443
 30
0.0
 10
-1.948122780881345
 20
9.63750677333349
 30
0.0
 10
-1.979038703272698
 20
9.538067469892383
 30
0.0
 10
-2.02014894967395
 20
9.444406403230625
 30
0.0
 10
-2.066545925935716
 20
9.355161408823509
 30
0.0
 10
-2.121650259065102
 20
9.271594890942513
 30
0.0
 10
-2.182124572644008
 20
9.191850670267852
 30
0.0
 10
-2.252454927224101
 20
9.118984043729755
 30
0.0
 10
-2.328084996133717
 20
9.04907870605319
 30
0.0
 10
-2.413266220986071
 20
8.986513290423838
 30
0.0
 10
-2.504243734261876
 20
8.92705734951923
 30
0.0
 10
-2.60282516343131
 20
8.873174433339381
 30
0.0
 10
-2.708367132278602
 20
8.823510049439136
 30
0.0
 10
-2.782568363145468
 20
8.795813758332937
 30
0.0
 10
-2.820512820512822
 20
8.78165064102564
 30
0.0
  0
LINE
  5
BA
330
1F
100
AcDbEntity
  8
0
  6
Continuous
 62
     7
370
    25
100
AcDbLine
 10
-2.8205128205
 20
8.781650641
 30
0.0
 11
-1.6666666667
 21
6.5
 31
0.0
  0
LINE
  5
BB
330
1F
100
AcDbEntity
  8
0
  6
Continuous
 62
     7
370
    25
100
AcDbLine
 10
-1.6666666667
 20
6.5
 30
0.0
 11
-2.6642628205
 21
6.5
 31
0.0
  0
LINE
  5
BC
330
1F
100
AcDbEntity
  8
0
  6
Continuous
 62
     7
370
    25
100
AcDbLine
 10
-2.6642628205
 20
6.5
 30
0.0
 11
-3.766025641
 21
8.6794871795
 31
0.0
  0
LINE
  5
BD
330
1F
100
AcDbEntity
  8
0
  6
Continuous
 62
     7
370
    25
100
AcDbLine
 10
-3.766025641
 20
8.6794871795
 30
0.0
 11
-4.0705128205
 21
8.6794871795
 31
0.0
  0
LINE
  5
BE
330
1F
100
AcDbEntity
  8
0
  6
Continuous
 62
     7
370
    25
100
AcDbLine
 10
-4.0705128205
 20
8.6794871795
 30
0.0
 11
-4.0705128205
 21
6.5
 31
0.0
  0
LINE
  5
BF
330
1F
100
AcDbEntity
  8
0
  6
Continuous
 62
     7
370
    25
100
AcDbLine
 10
-4.0705128205
 20
6.5
 30
0.0
 11
-4.9679487179
 21
6.5
 31
0.0
  0
SPLINE
  5
C0
330
1F
100
AcDbEntity
  8
0
  6
Continuous
 62
     7
370
    25
100
AcDbSpline
210
0.0
220
0.0
230
1.0
 70
     8
 71
     3
 72
    23
 73
    19
 74
     0
 42
0.000000001
 43
0.00000001
 40
0.0
 40
0.0
 40
0.0
 40
0.0
 40
0.0622757783707709
 40
0.1239040620075177
 40
0.1850672407687275
 40
0.2468401515202069
 40
0.3084353298497786
 40
0.3702412507091075
 40
0.4325865888798532
 40
0.4959245816612428
 40
0.5593510709509255
 40
0.6219426542010911
 40
0.6843928672351848
 40
0.7469858082645225
 40
0.8094414645316991
 40
0.8725078327139381
 40
0.9357692970662269
 40
1.0
 40
1.0
 40
1.0
 40
1.0
 10
-21.39903846153846
 20
11.6025641025641
 30
0.0
 10
-21.3586870532704
 20
11.60195964766567
 30
0.0
 10
-21.27840377905152
 20
11.6007570225171
 30
0.0
 10
-21.15884851165223
 20
11.59073183339146
 30
0.0
 10
-21.04024939130796
 20
11.57498737527765
 30
0.0
 10
-20.92303103926371
 20
11.55123234091113
 30
0.0
 10
-20.8063549900369
 20
11.52303211320442
 30
0.0
 10
-20.69175449765757
 20
11.48610780489725
 30
0.0
 10
-20.57742167738929
 20
11.44494870486414
 30
0.0
 10
-20.46514966972354
 20
11.39575140496058
 30
0.0
 10
-20.35478175939924
 20
11.34204810819572
 30
0.0
 10
-20.2489034885475
 20
11.2811197677357
 30
0.0
 10
-20.14573717079088
 20
11.21671584561094
 30
0.0
 10
-20.04756890979102
 20
11.14502463552567
 30
0.0
 10
-19.95255980263256
 20
11.06864651096827
 30
0.0
 10
-19.86120666024623
 20
10.98722512510439
 30
0.0
 10
-19.77431115987363
 20
10.89940294438947
 30
0.0
 10
-19.71978036866981
 20
10.83735138949299
 30
0.0
 10
-19.69230769230769
 20
10.80608974358974
 30
0.0
  0
LINE
  5
C1
330
1F
100
AcDbEntity
  8
0
  6
Continuous
 62
     7
370
    25
100
AcDbLine
 10
-19.6923076923
 20
10.8060897436
 30
0.0
 11
-20.21875
 21
10.3028846154
 31
0.0
  0
SPLINE
  5
C2
330
1F
100
AcDbEntity
  8
0
  6
Continuous
 62
     7
370
    25
100
AcDbSpline
210
0.0
220
0.0
230
1.0
 70
     8
 71
     3
 72
    15
 73
    11
 74
     0
 42
0.000000001
 43
0.00000001
 40
0.0
 40
0.0
 40
0.0
 40
0.0
 40
0.1394064381817396
 40
0.2723044483741596
 40
0.3995253362717588
 40
0.5228108782578222
 40
0.6426627165918698
 40
0.7610226208095218
 40
0.8798007967838055
 40
1.0
 40
1.0
 40
1.0
 40
1.0
 10
-20.21874999999999
 20
10.30288461538461
 30
0.0
 10
-20.26340712536281
 20
10.34906015785653
 30
0.0
 10
-20.35063648181508
 20
10.43925545862738
 30
0.0
 10
-20.49119580177599
 20
10.55866608821172
 30
0.0
 10
-20.63737237670881
 20
10.65817869111726
 30
0.0
 10
-20.78632263312702
 20
10.74198757171326
 30
0.0
 10
-20.94072575435492
 20
10.8053949629346
 30
0.0
 10
-21.09879641985447
 20
10.85160099696821
 30
0.0
 10
-21.26154395732017
 20
10.87977106946159
 30
0.0
 10
-21.37168523091706
 20
10.8829942243
 30
0.0
 10
-21.42708333333333
 20
10.88461538461538
 30
0.0
  0
SPLINE
  5
C3
330
1F
100
AcDbEntity
  8
0
  6
Continuous
 62
     7
370
    25
100
AcDbSpline
210
0.0
220
0.0
230
1.0
 70
     8
 71
     3
 72
    23
 73
    19
 74
     0
 42
0.000000001
 43
0.00000001
 40
0.0
 40
0.0
 40
0.0
 40
0.0
 40
0.0647145165408361
 40
0.1277069683294532
 40
0.1888821628171172
 40
0.2491582987223299
 40
0.309661028748886
 40
0.3702248860571861
 40
0.4323322219725849
 40
0.4957818589938719
 40
0.5593040765204275
 40
0.6218605583615244
 40
0.6833215373325067
 40
0.7445229747823346
 40
0.8060883712105108
 40
0.868994314670206
 40
0.9334190568081364
 40
1.0
 40
1.0
 40
1.0
 40
1.0
 10
-21.42708333333333
 20
10.88461538461538
 30
0.0
 10
-21.47334748101517
 20
10.88333461129585
 30
0.0
 10
-21.56464467921129
 20
10.88080714626177
 30
0.0
 10
-21.69869289058996
 20
10.86227833464762
 30
0.0
 10
-21.82691693252322
 20
10.83076928413817
 30
0.0
 10
-21.94975573622646
 20
10.78734397586092
 30
0.0
 10
-22.06684784324442
 20
10.73115393176535
 30
0.0
 10
-22.17843875173225
 20
10.66224264148351
 30
0.0
 10
-22.2842533389334
 20
10.58123247197417
 30
0.0
 10
-22.3828938554478
 20
10.48854257358069
 30
0.0
 10
-22.47312673336409
 20
10.38727189423146
 30
0.0
 10
-22.55285322645403
 20
10.27921632095081
 30
0.0
 10
-22.61963695329371
 20
10.16462340301691
 30
0.0
 10
-22.67444527160443
 20
10.0446536532683
 30
0.0
 10
-22.71713883288025
 20
9.918751792321045
 30
0.0
 10
-22.74762739956101
 20
9.787002582294546
 30
0.0
 10
-22.76526117173192
 20
9.64924912006117
 30
0.0
 10
-22.767893130406
 20
9.555605342877394
 30
0.0
 10
-22.76923076923076
 20
9.50801282051282
 30
0.0
  0
SPLINE
  5
C4
330
1F
100
AcDbEntity
  8
0
  6
Continuous
 62
     7
370
    25
100
AcDbSpline
210
0.0
220
0.0
230
1.0
 70
     8
 71
     3
 72
    31
 73
    27
 74
     0
 42
0.000000001
 43
0.00000001
 40
0.0
 40
0.0
 40
0.0
 40
0.0
 40
0.0459858533955716
 40
0.0906390618643955
 40
0.1344852733868701
 40
0.177331356125942
 40
0.219264832978247
 40
0.2607850023581456
 40
0.3023165723378492
 40
0.343435729403752
 40
0.3841814737656314
 40
0.4243757389977437
 40
0.4641811219517825
 40
0.5040119825276099
 40
0.5438224623104057
 40
0.5838024645760237
 40
0.6244185350988855
 40
0.6655475595785356
 40
0.7066749396536339
 40
0.7478269788975744
 40
0.7888951165570471
 40
0.8302193579728142
 40
0.8717069369478632
 40
0.9137338536047382
 40
0.9565878279841876
 40
1.0
 40
1.0
 40
1.0
 40
1.0
 10
-22.76923076923077
 20
9.508012820512821
 30
0.0
 10
-22.76884527697649
 20
9.474609058381201
 30
0.0
 10
-22.76808546382301
 20
9.408769556908714
 30
0.0
 10
-22.75976796517651
 20
9.31137466111993
 30
0.0
 10
-22.7463748310827
 20
9.216878586965478
 30
0.0
 10
-22.72699164782894
 20
9.125424470814608
 30
0.0
 10
-22.70275278662575
 20
9.036933057709927
 30
0.0
 10
-22.67431508327729
 20
8.950640936734214
 30
0.0
 10
-22.63864040274798
 20
8.867740470700726
 30
0.0
 10
-22.5990409690917
 20
8.78726882451119
 30
0.0
 10
-22.55298728408545
 20
8.711421767763415
 30
0.0
 10
-22.50333291587282
 20
8.639095304402788
 30
0.0
 10
-22.44949086045999
 20
8.570643971550664
 30
0.0
 10
-22.39111237966462
 20
8.506347600346505
 30
0.0
 10
-22.32737586902413
 20
8.447210999075734
 30
0.0
 10
-22.25992868151137
 20
8.391455859773746
 30
0.0
 10
-22.18763307640332
 20
8.340477922429624
 30
0.0
 10
-22.11199081663191
 20
8.29299783957198
 30
0.0
 10
-22.03234844866183
 20
8.251751487644803
 30
0.0
 10
-21.95086685459017
 20
8.214390261311795
 30
0.0
 10
-21.86631060922599
 20
8.184047390718723
 30
0.0
 10
-21.77970923564319
 20
8.159588268888754
 30
0.0
 10
-21.69137221662784
 20
8.138789438705533
 30
0.0
 10
-21.6004355340913
 20
8.125982959760515
 30
0.0
 10
-21.50768749518862
 20
8.116284763147931
 30
0.0
 10
-21.44500538859709
 20
8.115685956194854
 30
0.0
 10
-21.41346153846153
 20
8.115384615384613
 30
0.0
  0
SPLINE
  5
C5
330
1F
100
AcDbEntity
  8
0
  6
Continuous
 62
     7
370
    25
100
AcDbSpline
210
0.0
220
0.0
230
1.0
 70
     8
 71
     3
 72
    19
 73
    15
 74
     0
 42
0.000000001
 43
0.00000001
 40
0.0
 40
0.0
 40
0.0
 40
0.0
 40
0.1170484290483449
 40
0.2299697259035145
 40
0.3407035076587647
 40
0.4493551469115577
 40
0.5055565115208194
 40
0.565302669775756
 40
0.6282049564766004
 40
0.6947289918311266
 40
0.7650188336519154
 40
0.8395802021957275
 40
0.9177497995909476
 40
1.0
 40
1.0
 40
1.0
 40
1.0
 10
-21.41346153846154
 20
8.115384615384615
 30
0.0
 10
-21.35995774768008
 20
8.116932228943833
 30
0.0
 10
-21.25483671187595
 20
8.119972887147556
 30
0.0
 10
-21.10055647677029
 20
8.14375040373653
 30
0.0
 10
-20.95354278279881
 20
8.18286307296835
 30
0.0
 10
-20.83607954481797
 20
8.22905286265097
 30
0.0
 10
-20.7440502005065
 20
8.274665879610184
 30
0.0
 10
-20.67398962116076
 20
8.316855674098576
 30
0.0
 10
-20.60154152161554
 20
8.36404959141631
 30
0.0
 10
-20.52790920284764
 20
8.418028781110733
 30
0.0
 10
-20.45226444733638
 20
8.478145471259998
 30
0.0
 10
-20.37594255944008
 20
8.545716329546885
 30
0.0
 10
-20.29698968527482
 20
8.6185163445399
 30
0.0
 10
-20.24526844002627
 20
8.670475145419086
 30
0.0
 10
-20.21874999999999
 20
8.697115384615383
 30
0.0
  0
LINE
  5
C6
330
1F
100
AcDbEntity
  8
0
  6
Continuous
 62
     7
370
    25
100
AcDbLine
 10
-20.21875
 20
8.6971153846
 30
0.0
 11
-19.7083333333
 21
8.1610576923
 31
0.0
  0
SPLINE
  5
C7
330
1F
100
AcDbEntity
  8
0
  6
Continuous
 62
     7
370
    25
100
AcDbSpline
210
0.0
220
0.0
230
1.0
 70
     8
 71
     3
 72
    23
 73
    19
 74
     0
 42
0.000000001
 43
0.00000001
 40
0.0
 40
0.0
 40
0.0
 40
0.0
 40
0.0777829363133475
 40
0.1518156572691087
 40
0.2225398385800624
 40
0.2902775346822936
 40
0.3546406074863794
 40
0.4157977534850318
 40
0.4747090076698663
 40
0.5304260996200421
 40
0.5855797458252654
 40
0.640906164804031
 40
0.6979010906656705
 40
0.7554203208806048
 40
0.8145212584872894
 40
0.8744618312159078
 40
0.9366697167404241
 40
0.9999999999999999
 40
0.9999999999999999
 40
0.9999999999999999
 40
0.9999999999999999
 10
-19.70833333333333
 20
8.161057692307692
 30
0.0
 10
-19.74421287764552
 20
8.126417118693018
 30
0.0
 10
-19.81424207505622
 20
8.05880612712149
 30
0.0
 10
-19.91987917526265
 20
7.962804828158389
 30
0.0
 10
-20.02538332700012
 20
7.876536988994425
 30
0.0
 10
-20.12820576975351
 20
7.7968714651566
 30
0.0
 10
-20.23003084237518
 20
7.726129106844451
 30
0.0
 10
-20.33084774648477
 20
7.664239262824225
 30
0.0
 10
-20.42951519065902
 20
7.609636649416635
 30
0.0
 10
-20.52808203598813
 20
7.563242112913509
 30
0.0
 10
-20.62716161625636
 20
7.523848332903312
 30
0.0
 10
-20.72910286091788
 20
7.489932873976699
 30
0.0
 10
-20.83421741394938
 20
7.461241615831216
 30
0.0
 10
-20.94314726707549
 20
7.438091538598783
 30
0.0
 10
-21.05487638900291
 20
7.419528301916186
 30
0.0
 10
-21.17045041586277
 20
7.406998224525561
 30
0.0
 10
-21.28913655125107
 20
7.398574670375441
 30
0.0
 10
-21.36964319562914
 20
7.397817744229521
 30
0.0
 10
-21.41025641025641
 20
7.397435897435895
 30
0.0
  0
SPLINE
  5
C8
330
1F
100
AcDbEntity
  8
0
  6
Continuous
 62
     7
370
    25
100
AcDbSpline
210
0.0
220
0.0
230
1.0
 70
     8
 71
     3
 72
    23
 73
    19
 74
     0
 42
0.000000001
 43
0.00000001
 40
0.0
 40
0.0
 40
0.0
 40
0.0
 40
0.0673762427992638
 40
0.1318365787763105
 40
0.1944610676015861
 40
0.2553459677434139
 40
0.3155883400136111
 40
0.3756274517721982
 40
0.4361378520525407
 40
0.497778619574713
 40
0.5594703610940522
 40
0.6202777696791127
 40
0.6807876889604192
 40
0.7414916215916538
 40
0.8032154362531898
 40
0.8664927627489314
 40
0.9319104429113607
 40
1.0
 40
1.0
 40
1.0
 40
1.0
 10
-21.41025641025641
 20
7.397435897435895
 30
0.0
 10
-21.48485785476815
 20
7.399337637032557
 30
0.0
 10
-21.63083214492711
 20
7.403058812802097
 30
0.0
 10
-21.84475366111146
 20
7.430630205799512
 30
0.0
 10
-22.04797335910835
 20
7.476853160443438
 30
0.0
 10
-22.24098563440001
 20
7.542225167633259
 30
0.0
 10
-22.42372911357541
 20
7.625734843094175
 30
0.0
 10
-22.59615704527926
 20
7.728113783917981
 30
0.0
 10
-22.75799151401876
 20
7.849089985401054
 30
0.0
 10
-22.90792521582925
 20
7.987245489010258
 30
0.0
 10
-23.04354738475907
 20
8.1398266446782
 30
0.0
 10
-23.16342167626179
 20
8.303656946700789
 30
0.0
 10
-23.26258169471408
 20
8.479541560985728
 30
0.0
 10
-23.34491639469239
 20
8.664882109930566
 30
0.0
 10
-23.40930104722703
 20
8.860524374452048
 30
0.0
 10
-23.45461692763118
 20
9.066679979897254
 30
0.0
 10
-23.48256290035713
 20
9.283149870282058
 30
0.0
 10
-23.48562022948878
 20
9.431003795426102
 30
0.0
 10
-23.48717948717948
 20
9.506410256410254
 30
0.0
  0
SPLINE
  5
C9
330
1F
100
AcDbEntity
  8
0
  6
Continuous
 62
     7
370
    25
100
AcDbSpline
210
0.0
220
0.0
230
1.0
 70
     8
 71
     3
 72
    31
 73
    27
 74
     0
 42
0.000000001
 43
0.00000001
 40
0.0
 40
0.0
 40
0.0
 40
0.0
 40
0.0446633309063709
 40
0.0885118057801456
 40
0.1309255913017771
 40
0.1729040372808869
 40
0.2140001199049665
 40
0.2549850203589833
 40
0.2952912763870589
 40
0.3357724419527881
 40
0.3761808205537698
 40
0.4161784084745207
 40
0.4563500514444735
 40
0.4965121666444157
 40
0.5370405736377799
 40
0.5781187440077621
 40
0.6197245605548116
 40
0.6624219701988828
 40
0.7052989535209027
 40
0.7474300005339117
 40
0.7894329840393826
 40
0.8312674212030609
 40
0.8728250959642289
 40
0.9148701104843924
 40
0.957027002839501
 40
1.0
 40
1.0
 40
1.0
 40
1.0
 10
-23.48717948717948
 20
9.506410256410254
 30
0.0
 10
-23.48652062045042
 20
9.555589706907927
 30
0.0
 10
-23.48521490762575
 20
9.653051357942186
 30
0.0
 10
-23.47149174491463
 20
9.796620265993974
 30
0.0
 10
-23.45236085813374
 20
9.936574270789265
 30
0.0
 10
-23.42201144584362
 20
10.07146018599599
 30
0.0
 10
-23.38542822264408
 20
10.20309517366499
 30
0.0
 10
-23.33993217810867
 20
10.33004851521262
 30
0.0
 10
-23.28559597570613
 20
10.45268508732608
 30
0.0
 10
-23.22417099919443
 20
10.5712101909972
 30
0.0
 10
-23.15468153781655
 20
10.68484735980108
 30
0.0
 10
-23.07705418093902
 20
10.79262027136472
 30
0.0
 10
-22.9932873594324
 20
10.89536091272375
 30
0.0
 10
-22.90136829304334
 20
10.99170623854592
 30
0.0
 10
-22.80263268623894
 20
11.08250217952217
 30
0.0
 10
-22.69663475907094
 20
11.16725669505456
 30
0.0
 10
-22.58401203612379
 20
11.24718526051401
 30
0.0
 10
-22.46445968956339
 20
11.32022671219032
 30
0.0
 10
-22.34030030292647
 20
11.38629658753646
 30
0.0
 10
-22.21309985281736
 20
11.44457303937645
 30
0.0
 10
-22.08317085598402
 20
11.49327873302657
 30
0.0
 10
-21.951062663996
 20
11.53367830925323
 30
0.0
 10
-21.81621712143571
 20
11.56383373632495
 30
0.0
 10
-21.67959672146849
 20
11.58666042179301
 30
0.0
 10
-21.54003898854609
 20
11.59942068491489
 30
0.0
 10
-21.44633806113333
 20
11.60150962142618
 30
0.0
 10
-21.39903846153846
 20
11.6025641025641
 30
0.0
  0
LINE
  5
CA
330
1F
100
AcDbEntity
  8
0
  6
Continuous
 62
     7
370
    25
100
AcDbLine
 10
-13.3333333333
 20
10.0825320513
 30
0.0
 11
-13.3333333333
 21
11.6025641026
 31
0.0
  0
LINE
  5
CB
330
1F
100
AcDbEntity
  8
0
  6
Continuous
 62
     7
370
    25
100
AcDbLine
 10
-13.3333333333
 20
11.6025641026
 30
0.0
 11
-12.6153846154
 21
11.6025641026
 31
0.0
  0
LINE
  5
CC
330
1F
100
AcDbEntity
  8
0
  6
Continuous
 62
     7
370
    25
100
AcDbLine
 10
-12.6153846154
 20
11.6025641026
 30
0.0
 11
-12.6153846154
 21
7.5
 31
0.0
  0
LINE
  5
CD
330
1F
100
AcDbEntity
  8
0
  6
Continuous
 62
     7
370
    25
100
AcDbLine
 10
-12.6153846154
 20
7.5
 30
0.0
 11
-13.3333333333
 21
7.5
 31
0.0
  0
LINE
  5
CE
330
1F
100
AcDbEntity
  8
0
  6
Continuous
 62
     7
370
    25
100
AcDbLine
 10
-13.3333333333
 20
7.5
 30
0.0
 11
-13.3333333333
 21
7.8189102564
 31
0.0
  0
SPLINE
  5
CF
330
1F
100
AcDbEntity
  8
0
  6
Continuous
 62
     7
370
    25
100
AcDbSpline
210
0.0
220
0.0
230
1.0
 70
     8
 71
     3
 72
    15
 73
    11
 74
     0
 42
0.000000001
 43
0.00000001
 40
0.0
 40
0.0
 40
0.0
 40
0.0
 40
0.1411496036033042
 40
0.2739435063603686
 40
0.399987178060644
 40
0.5197189665084835
 40
0.6361761759537699
 40
0.7543711413752539
 40
0.8752565824289287
 40
1.0
 40
1.0
 40
1.0
 40
1.0
 10
-13.33333333333333
 20
7.818910256410257
 30
0.0
 10
-13.3689074277867
 20
7.787867872557114
 30
0.0
 10
-13.43794971994603
 20
7.727620735750308
 30
0.0
 10
-13.54673803162978
 20
7.649448543863738
 30
0.0
 10
-13.65584423522477
 20
7.584966588643369
 30
0.0
 10
-13.76579258921751
 20
7.533610227877196
 30
0.0
 10
-13.87827295358349
 20
7.495688841353408
 30
0.0
 10
-13.99409514192168
 20
7.468232871695951
 30
0.0
 10
-14.11492711698208
 20
7.452041414742439
 30
0.0
 10
-14.19706702890967
 20
7.449837310335225
 30
0.0
 10
-14.23878205128204
 20
7.44871794871795
 30
0.0
  0
SPLINE
  5
D0
330
1F
100
AcDbEntity
  8
0
  6
Continuous
 62
     7
370
    25
100
AcDbSpline
210
0.0
220
0.0
230
1.0
 70
     8
 71
     3
 72
    23
 73
    19
 74
     0
 42
0.000000001
 43
0.00000001
 40
0.0
 40
0.0
 40
0.0
 40
0.0
 40
0.0612797834489115
 40
0.1210923250507051
 40
0.1796342370037594
 40
0.2383035117205182
 40
0.2974370914963351
 40
0.3575068486274746
 40
0.4195131539808328
 40
0.4836000413787753
 40
0.54829503147196
 40
0.6114868724496606
 40
0.6743126453952236
 40
0.7371072479966205
 40
0.8001595154389648
 40
0.8647371328895148
 40
0.9313811579528124
 40
1.0
 40
1.0
 40
1.0
 40
1.0
 10
-14.23878205128204
 20
7.44871794871795
 30
0.0
 10
-14.28560901831239
 20
7.449771409002073
 30
0.0
 10
-14.37814175902459
 20
7.451853106227053
 30
0.0
 10
-14.51392328318826
 20
7.473766328544355
 30
0.0
 10
-14.64503384381755
 20
7.507309399381313
 30
0.0
 10
-14.77136701544057
 20
7.554777037295242
 30
0.0
 10
-14.89269294647326
 20
7.616285790122184
 30
0.0
 10
-15.0099401481148
 20
7.69023080876482
 30
0.0
 10
-15.12109864613835
 20
7.77920800564658
 30
0.0
 10
-15.22709379699009
 20
7.879367563990729
 30
0.0
 10
-15.32414232128029
 20
7.989543790938115
 30
0.0
 10
-15.40898305734517
 20
8.108207455326678
 30
0.0
 10
-15.48049749253675
 20
8.233675575267203
 30
0.0
 10
-15.53908544255971
 20
8.365532166008308
 30
0.0
 10
-15.58517243112474
 20
8.503680452381355
 30
0.0
 10
-15.6180258591825
 20
8.648558598687442
 30
0.0
 10
-15.63740941960375
 20
8.80021834814481
 30
0.0
 10
-15.6398085582006
 20
8.903523030030629
 30
0.0
 10
-15.64102564102564
 20
8.955929487179489
 30
0.0
  0
SPLINE
  5
D1
330
1F
100
AcDbEntity
  8
0
  6
Continuous
 62
     7
370
    25
100
AcDbSpline
210
0.0
220
0.0
230
1.0
 70
     8
 71
     3
 72
    23
 73
    19
 74
     0
 42
0.000000001
 43
0.00000001
 40
0.0
 40
0.0
 40
0.0
 40
0.0
 40
0.0710176165660378
 40
0.1393089680378136
 40
0.2054736415123378
 40
0.26959838019657
 40
0.332253222639995
 40
0.394830002642338
 40
0.4573755303881494
 40
0.520581843943574
 40
0.5833740351853799
 40
0.644082428987897
 40
0.7030395194755352
 40
0.7616640448396906
 40
0.8198439432497707
 40
0.8783464025201296
 40
0.9384123078390023
 40
1.0
 40
1.0
 40
1.0
 40
1.0
 10
-15.64102564102564
 20
8.955929487179489
 30
0.0
 10
-15.63974830804372
 20
9.010196442454872
 30
0.0
 10
-15.63724267707277
 20
9.116647121927302
 30
0.0
 10
-15.61891413636621
 20
9.272858432554608
 30
0.0
 10
-15.58666697757725
 20
9.42132882060466
 30
0.0
 10
-15.54269565864383
 20
9.562263938775748
 30
0.0
 10
-15.48613419214564
 20
9.695688135721962
 30
0.0
 10
-15.41724610504188
 20
9.821820002518622
 30
0.0
 10
-15.33509423974052
 20
9.940329850971308
 30
0.0
 10
-15.24042877824962
 20
10.04920055985164
 30
0.0
 10
-15.13821333091576
 20
10.14898582337826
 30
0.0
 10
-15.028860872328
 20
10.2358568083488
 30
0.0
 10
-14.91408143585817
 20
10.30965775229421
 30
0.0
 10
-14.79375304805539
 20
10.36990796230273
 30
0.0
 10
-14.66789289281226
 20
10.41646627543573
 30
0.0
 10
-14.53699786372149
 20
10.45050420416272
 30
0.0
 10
-14.40048687938483
 20
10.47092815680115
 30
0.0
 10
-14.30749449044055
 20
10.4732058710599
 30
0.0
 10
-14.26041666666666
 20
10.47435897435897
 30
0.0
  0
SPLINE
  5
D2
330
1F
100
AcDbEntity
  8
0
  6
Continuous
 62
     7
370
    25
100
AcDbSpline
210
0.0
220
0.0
230
1.0
 70
     8
 71
     3
 72
    15
 73
    11
 74
     0
 42
0.000000001
 43
0.00000001
 40
0.0
 40
0.0
 40
0.0
 40
0.0
 40
0.1264873956829619
 40
0.2501288299279309
 40
0.3717545223611819
 40
0.4935973420199378
 40
0.6159616588080992
 40
0.7405155704790359
 40
0.8677818236765358
 40
1.0
 40
1.0
 40
1.0
 40
1.0
 10
-14.26041666666666
 20
10.47435897435897
 30
0.0
 10
-14.21683546195996
 20
10.47297628087266
 30
0.0
 10
-14.13065362794183
 20
10.47024200444922
 30
0.0
 10
-14.00334821413568
 20
10.45303041636775
 30
0.0
 10
-13.88085622816551
 20
10.42062249768061
 30
0.0
 10
-13.76169000907893
 20
10.37886727663638
 30
0.0
 10
-13.64739715871223
 20
10.32267899153156
 30
0.0
 10
-13.53736363324438
 20
10.25518341002516
 30
0.0
 10
-13.43129951206382
 20
10.17552335505042
 30
0.0
 10
-13.36640155728655
 20
10.11392101937862
 30
0.0
 10
-13.33333333333333
 20
10.08253205128205
 30
0.0
  0
LINE
  5
D3
330
1F
100
AcDbEntity
  8
0
  6
Continuous
 62
     7
370
    25
100
AcDbLine
 10
11.6538461538
 20
6.5
 30
0.0
 11
11.6538461538
 21
11.5
 31
0.0
  0
LINE
  5
D4
330
1F
100
AcDbEntity
  8
0
  6
Continuous
 62
     7
370
    25
100
AcDbLine
 10
11.6538461538
 20
11.5
 30
0.0
 11
12.7846554487
 21
11.5
 31
0.0
  0
SPLINE
  5
D5
330
1F
100
AcDbEntity
  8
0
  6
Continuous
 62
     7
370
    25
100
AcDbSpline
210
0.0
220
0.0
230
1.0
 70
     8
 71
     3
 72
    31
 73
    27
 74
     0
 42
0.000000001
 43
0.00000001
 40
0.0
 40
0.0
 40
0.0
 40
0.0
 40
0.0601481616612689
 40
0.116267076576888
 40
0.1686539552437568
 40
0.2173989688871083
 40
0.2624335227296116
 40
0.3039327010691183
 40
0.342259966836953
 40
0.3774413393780564
 40
0.4114060993619983
 40
0.4453983512867531
 40
0.4797663873881686
 40
0.5145844824148778
 40
0.5502136512238753
 40
0.5870009077288668
 40
0.6246629869919997
 40
0.6636154560171267
 40
0.7034564283616512
 40
0.743450161992313
 40
0.7840133859909415
 40
0.8251325358492282
 40
0.8672646628279306
 40
0.910306473181936
 40
0.95442420454659
 40
1.0
 40
1.0
 40
1.0
 40
1.0
 10
12.78465544871794
 20
11.5
 30
0.0
 10
12.87281503984632
 20
11.49938373429329
 30
0.0
 10
13.0432285263039
 20
11.49819248571421
 30
0.0
 10
13.29012395456939
 20
11.48476997885078
 30
0.0
 10
13.51970528485006
 20
11.4641271161969
 30
0.0
 10
13.73212050981787
 20
11.43572911761781
 30
0.0
 10
13.92693414400125
 20
11.39815078890621
 30
0.0
 10
14.10389497897176
 20
11.35101614059852
 30
0.0
 10
14.26359693785456
 20
11.29660703071469
 30
0.0
 10
14.40779111955154
 20
11.23258367215692
 30
0.0
 10
14.5394265383183
 20
11.15793879438237
 30
0.0
 10
14.66441856967549
 20
11.07479039334297
 30
0.0
 10
14.78252179460285
 20
10.98009250011543
 30
0.0
 10
14.89539360506103
 20
10.87567202576057
 30
0.0
 10
15.00157736641005
 20
10.75961862977846
 30
0.0
 10
15.10284141884826
 20
10.63385457696949
 30
0.0
 10
15.19670635854957
 20
10.49655611476105
 30
0.0
 10
15.28600951998834
 20
10.35101522762314
 30
0.0
 10
15.36677234626721
 20
10.19661512705801
 30
0.0
 10
15.43721670117719
 20
10.03467003446018
 30
0.0
 10
15.49622836436785
 20
9.866222126937695
 30
0.0
 10
15.54417839669218
 20
9.691091882883088
 30
0.0
 10
15.58240010631848
 20
9.509860681234802
 30
0.0
 10
15.60914306628082
 20
9.322162814651152
 30
0.0
 10
15.62567583053363
 20
9.128172059805086
 30
0.0
 10
15.62735294123929
 20
8.996695000292153
 30
0.0
 10
15.62820512820512
 20
8.929887820512816
 30
0.0
  0
SPLINE
  5
D6
330
1F
100
AcDbEntity
  8
0
  6
Continuous
 62
     7
370
    25
100
AcDbSpline
210
0.0
220
0.0
230
1.0
 70
     8
 71
     3
 72
    27
 73
    23
 74
     0
 42
0.000000001
 43
0.00000001
 40
0.0
 40
0.0
 40
0.0
 40
0.0
 40
0.0657729465461661
 40
0.1294778953864833
 40
0.1914300882723855
 40
0.2524456684589039
 40
0.3117869583861934
 40
0.3688175499237482
 40
0.4240915179529632
 40
0.4784921057091162
 40
0.5313937439562552
 40
0.5820039702205112
 40
0.6312012707438627
 40
0.6795030077413398
 40
0.7055613742938308
 40
0.7352217229481218
 40
0.7691324857524243
 40
0.8068583199113338
 40
0.8489297713697364
 40
0.8951166613253597
 40
0.9454698037689638
 40
1.0
 40
1.0
 40
1.0
 40
1.0
 10
15.62820512820512
 20
8.929887820512816
 30
0.0
 10
15.62597364268508
 20
8.835618541260825
 30
0.0
 10
15.62158083281578
 20
8.650043946870685
 30
0.0
 10
15.58457825628307
 20
8.377715367620768
 30
0.0
 10
15.52473256098302
 20
8.116661262708524
 30
0.0
 10
15.44058407788526
 20
7.868923698821322
 30
0.0
 10
15.33626248488204
 20
7.636708815104253
 30
0.0
 10
15.2116386602474
 20
7.424111624021518
 30
0.0
 10
15.06853987935958
 20
7.232273239347323
 30
0.0
 10
14.90863325155394
 20
7.062148859095995
 30
0.0
 10
14.73549331892872
 20
6.915924648574743
 30
0.0
 10
14.5555660148705
 20
6.790694312976097
 30
0.0
 10
14.36709851979328
 20
6.691939743716514
 30
0.0
 10
14.20103231754336
 20
6.629314579037808
 30
0.0
 10
14.05703220236462
 20
6.590367144712234
 30
0.0
 10
13.93060165906389
 20
6.567348835964956
 30
0.0
 10
13.78698946194689
 20
6.546239658630093
 30
0.0
 10
13.62485655215271
 20
6.529926940438603
 30
0.0
 10
13.44491417145043
 20
6.515380004642632
 30
0.0
 10
13.24644506742014
 20
6.507475765875737
 30
0.0
 10
13.03009182604264
 20
6.50090851679416
 30
0.0
 10
12.87981404351885
 20
6.500310774107694
 30
0.0
 10
12.80168269230769
 20
6.499999999999997
 30
0.0
  0
LINE
  5
D7
330
1F
100
AcDbEntity
  8
0
  6
Continuous
 62
     7
370
    25
100
AcDbLine
 10
12.8016826923
 20
6.5
 30
0.0
 11
11.6538461538
 21
6.5
 31
0.0
  0
SPLINE
  5
D8
330
1F
100
AcDbEntity
  8
0
  6
Continuous
 62
     7
370
    25
100
AcDbSpline
210
0.0
220
0.0
230
1.0
 70
     8
 71
     3
 72
    15
 73
    11
 74
     0
 42
0.000000001
 43
0.00000001
 40
0.0
 40
0.0
 40
0.0
 40
0.0
 40
0.1282260268668421
 40
0.2505306575576873
 40
0.3726387697203868
 40
0.4998332120264979
 40
0.6271786142189255
 40
0.7498417788579288
 40
0.8729404948669948
 40
1.0
 40
1.0
 40
1.0
 40
1.0
 10
-1.121794871794872
 20
6.982772435897433
 30
0.0
 10
-1.120030867098361
 20
7.019407329356308
 30
0.0
 10
-1.116584318317664
 20
7.090985340249048
 30
0.0
 10
-1.084634919966853
 20
7.193305366048582
 30
0.0
 10
-1.035242660883503
 20
7.287740435899861
 30
0.0
 10
-0.9646095804061877
 20
7.369645543771419
 30
0.0
 10
-0.8814225610331577
 20
7.43846738818719
 30
0.0
 10
-0.7877238234784975
 20
7.490302332376071
 30
0.0
 10
-0.6845046390299698
 20
7.519789637038792
 30
0.0
 10
-0.6131601333777609
 20
7.523670082898002
 30
0.0
 10
-0.5769230769230768
 20
7.525641025641023
 30
0.0
  0
SPLINE
  5
D9
330
1F
100
AcDbEntity
  8
0
  6
Continuous
 62
     7
370
    25
100
AcDbSpline
210
0.0
220
0.0
230
1.0
 70
     8
 71
     3
 72
    15
 73
    11
 74
     0
 42
0.000000001
 43
0.00000001
 40
0.0
 40
0.0
 40
0.0
 40
0.0
 40
0.1271196250723283
 40
0.2502765869192751
 40
0.3719693125512799
 40
0.4993749699591269
 40
0.6266295960519264
 40
0.7493508004417345
 40
0.8717133012381525
 40
1.0
 40
1.0
 40
1.0
 40
1.0
 10
-0.5769230769230768
 20
7.525641025641023
 30
0.0
 10
-0.5406946537944931
 20
7.52365470821892
 30
0.0
 10
-0.469367145670313
 20
7.519743992271956
 30
0.0
 10
-0.3663086218352041
 20
7.490558728678232
 30
0.0
 10
-0.2732977104112175
 20
7.438123244518466
 30
0.0
 10
-0.1901335279962389
 20
7.369730243621376
 30
0.0
 10
-0.1198119896032998
 20
7.287444332022455
 30
0.0
 10
-0.0689851719818618
 20
7.193607310462786
 30
0.0
 10
-0.0373340378340078
 20
7.090945885260574
 30
0.0
 10
-0.0338397304477926
 20
7.019393972083366
 30
0.0
 10
-0.0320512820512818
 20
6.982772435897433
 30
0.0
  0
SPLINE
  5
DA
330
1F
100
AcDbEntity
  8
0
  6
Continuous
 62
     7
370
    25
100
AcDbSpline
210
0.0
220
0.0
230
1.0
 70
     8
 71
     3
 72
    15
 73
    11
 74
     0
 42
0.000000001
 43
0.00000001
 40
0.0
 40
0.0
 40
0.0
 40
0.0
 40
0.1279023639831297
 40
0.2498982783358966
 40
0.3732797639331212
 40
0.5010486153180301
 40
0.6288174667029397
 40
0.7501456124741434
 40
0.8732612132643368
 40
0.9999999999999999
 40
0.9999999999999999
 40
0.9999999999999999
 40
0.9999999999999999
 10
-0.0320512820512818
 20
6.982772435897433
 30
0.0
 10
-0.0338280143954371
 20
6.946145018171498
 30
0.0
 10
-0.0372994307167702
 20
6.874581613520053
 30
0.0
 10
-0.0692041947829541
 20
6.771720144966223
 30
0.0
 10
-0.1197360382031803
 20
6.677111868838145
 30
0.0
 10
-0.1901391701244748
 20
6.593944209686117
 30
0.0
 10
-0.2729532986350842
 20
6.524262278458516
 30
0.0
 10
-0.3665224701052985
 20
6.472310326182808
 30
0.0
 10
-0.4691708211481934
 20
6.441469456687341
 30
0.0
 10
-0.5406600984670306
 20
6.437772645547643
 30
0.0
 10
-0.5769230769230768
 20
6.435897435897433
 30
0.0
  0
SPLINE
  5
DB
330
1F
100
AcDbEntity
  8
0
  6
Continuous
 62
     7
370
    25
100
AcDbSpline
210
0.0
220
0.0
230
1.0
 70
     8
 71
     3
 72
    15
 73
    11
 74
     0
 42
0.000000001
 43
0.00000001
 40
0.0
 40
0.0
 40
0.0
 40
0.0
 40
0.1266784397236905
 40
0.2497354186915814
 40
0.3720307030292088
 40
0.4997387169341107
 40
0.627446730839012
 40
0.750220711397105
 40
0.8721585370692584
 40
1.0
 40
1.0
 40
1.0
 40
1.0
 10
-0.5769230769230768
 20
6.435897435897433
 30
0.0
 10
-0.6131946478397988
 20
6.437757397029257
 30
0.0
 10
-0.6847008644402462
 20
6.441424147054113
 30
0.0
 10
-0.7875087751573843
 20
6.472570284393967
 30
0.0
 10
-0.881768746883194
 20
6.523915427237297
 30
0.0
 10
-0.9646036829207636
 20
6.594028733708222
 30
0.0
 10
-1.035321344668587
 20
6.676817365077309
 30
0.0
 10
-1.084416520955257
 20
6.772018650954229
 30
0.0
 10
-1.116618469030567
 20
6.874542833440863
 30
0.0
 10
-1.120042428637498
 20
6.946131889385443
 30
0.0
 10
-1.121794871794872
 20
6.982772435897433
 30
0.0
  0
LINE
  5
DC
330
1F
100
AcDbEntity
  8
0
  6
Continuous
 62
     7
370
    25
100
AcDbLine
 10
-4.0705128205
 20
10.6025641026
 30
0.0
 11
-4.0705128205
 21
9.5769230769
 31
0.0
  0
LINE
  5
DD
330
1F
100
AcDbEntity
  8
0
  6
Continuous
 62
     7
370
    25
100
AcDbLine
 10
-4.0705128205
 20
9.5769230769
 30
0.0
 11
-3.7209535256
 21
9.5769230769
 31
0.0
  0
SPLINE
  5
DE
330
1F
100
AcDbEntity
  8
0
  6
Continuous
 62
     7
370
    25
100
AcDbSpline
210
0.0
220
0.0
230
1.0
 70
     8
 71
     3
 72
    23
 73
    19
 74
     0
 42
0.000000001
 43
0.00000001
 40
0.0
 40
0.0
 40
0.0
 40
0.0
 40
0.1055399964402573
 40
0.2020864154635869
 40
0.2906848989424215
 40
0.3705526096211909
 40
0.4426702615663763
 40
0.5076749275738734
 40
0.5655732034810458
 40
0.6164546657486224
 40
0.6633313570051053
 40
0.7088620244966145
 40
0.7534118003496285
 40
0.7985150107871086
 40
0.8450643214401191
 40
0.8938731190084056
 40
0.9447078060036509
 40
1.0
 40
1.0
 40
1.0
 40
1.0
 10
-3.720953525641027
 20
9.576923076923077
 30
0.0
 10
-3.678216996128156
 20
9.577404404441825
 30
0.0
 10
-3.596385725046972
 20
9.578326043215831
 30
0.0
 10
-3.478701609414738
 20
9.582600985876443
 30
0.0
 10
-3.371816366253414
 20
9.592901485284777
 30
0.0
 10
-3.275270994258175
 20
9.605915781320906
 30
0.0
 10
-3.188579685889436
 20
9.62094266553674
 30
0.0
 10
-3.112515697034146
 20
9.642477102964083
 30
0.0
 10
-3.045906997720005
 20
9.665551797797274
 30
0.0
 10
-2.989542903527905
 20
9.694227657855095
 30
0.0
 10
-2.941386716555826
 20
9.726838330276626
 30
0.0
 10
-2.899806931324356
 20
9.763884864803947
 30
0.0
 10
-2.865414487122979
 20
9.806761511293361
 30
0.0
 10
-2.837107751289699
 20
9.85430306745115
 30
0.0
 10
-2.815088188355437
 20
9.906930026636527
 30
0.0
 10
-2.799015594314573
 20
9.964064664082878
 30
0.0
 10
-2.790033391045768
 20
10.02635781680394
 30
0.0
 10
-2.788999957963865
 20
10.06934857421032
 30
0.0
 10
-2.788461538461541
 20
10.0917467948718
 30
0.0
  0
SPLINE
  5
DF
330
1F
100
AcDbEntity
  8
0
  6
Continuous
 62
     7
370
    25
100
AcDbSpline
210
0.0
220
0.0
230
1.0
 70
     8
 71
     3
 72
    23
 73
    19
 74
     0
 42
0.000000001
 43
0.00000001
 40
0.0
 40
0.0
 40
0.0
 40
0.0
 40
0.0637689599577391
 40
0.1252623047603748
 40
0.1854135826663907
 40
0.2468067624960847
 40
0.3094223888496965
 40
0.3725326822170092
 40
0.4377332507368581
 40
0.505749516742634
 40
0.5440132631112711
 40
0.5883695992066306
 40
0.6403890193945125
 40
0.6978974005877087
 40
0.7632716192950989
 40
0.8349786038393133
 40
0.9138736558434378
 40
1.0
 40
1.0
 40
1.0
 40
1.0
 10
-2.788461538461541
 20
10.0917467948718
 30
0.0
 10
-2.789479469861636
 20
10.1182455250665
 30
0.0
 10
-2.791479007463447
 20
10.17029737003327
 30
0.0
 10
-2.811320632395784
 20
10.24523377516331
 30
0.0
 10
-2.842904213372252
 20
10.31459254514828
 30
0.0
 10
-2.886196652341151
 20
10.37806029988355
 30
0.0
 10
-2.940717850842632
 20
10.43370051498341
 30
0.0
 10
-3.00328522770853
 20
10.48274780770622
 30
0.0
 10
-3.075249137946129
 20
10.5215307368631
 30
0.0
 10
-3.141882303461323
 20
10.54711154399672
 30
0.0
 10
-3.202502909136387
 20
10.56241680479768
 30
0.0
 10
-3.257211093209251
 20
10.5738221497902
 30
0.0
 10
-3.320563499750448
 20
10.58190544515121
 30
0.0
 10
-3.392607956363698
 20
10.5904792187265
 30
0.0
 10
-3.473160819277346
 20
10.59603887689764
 30
0.0
 10
-3.562661149773575
 20
10.60009631918838
 30
0.0
 10
-3.660851903569732
 20
10.60175641815851
 30
0.0
 10
-3.729300184725557
 20
10.60228712254828
 30
0.0
 10
-3.76502403846154
 20
10.6025641025641
 30
0.0
  0
LINE
  5
E0
330
1F
100
AcDbEntity
  8
0
  6
Continuous
 62
     7
370
    25
100
AcDbLine
 10
-3.7650240385
 20
10.6025641026
 30
0.0
 11
-4.0705128205
 21
10.6025641026
 31
0.0
  0
LINE
  5
E1
330
1F
100
AcDbEntity
  8
0
  6
Continuous
 62
     7
370
    25
100
AcDbLine
 10
3.6979166667
 20
8.4230769231
 30
0.0
 11
2.9487179487
 21
10.1588541667
 31
0.0
  0
LINE
  5
E2
330
1F
100
AcDbEntity
  8
0
  6
Continuous
 62
     7
370
    25
100
AcDbLine
 10
2.9487179487
 20
10.1588541667
 30
0.0
 11
2.1995192308
 21
8.4230769231
 31
0.0
  0
LINE
  5
E3
330
1F
100
AcDbEntity
  8
0
  6
Continuous
 62
     7
370
    25
100
AcDbLine
 10
2.1995192308
 20
8.4230769231
 30
0.0
 11
3.6979166667
 21
8.4230769231
 31
0.0
  0
LINE
  5
E4
330
1F
100
AcDbEntity
  8
0
  6
Continuous
 62
     7
370
    25
100
AcDbLine
 10
12.8938301282
 20
10.6025641026
 30
0.0
 11
12.5512820513
 21
10.6025641026
 31
0.0
  0
LINE
  5
E5
330
1F
100
AcDbEntity
  8
0
  6
Continuous
 62
     7
370
    25
100
AcDbLine
 10
12.5512820513
 20
10.6025641026
 30
0.0
 11
12.5512820513
 21
7.3974358974
 31
0.0
  0
LINE
  5
E6
330
1F
100
AcDbEntity
  8
0
  6
Continuous
 62
     7
370
    25
100
AcDbLine
 10
12.5512820513
 20
7.3974358974
 30
0.0
 11
13.0200320513
 21
7.3974358974
 31
0.0
  0
SPLINE
  5
E7
330
1F
100
AcDbEntity
  8
0
  6
Continuous
 62
     7
370
    25
100
AcDbSpline
210
0.0
220
0.0
230
1.0
 70
     8
 71
     3
 72
    31
 73
    27
 74
     0
 42
0.000000001
 43
0.00000001
 40
0.0
 40
0.0
 40
0.0
 40
0.0
 40
0.0626146479318148
 40
0.1204288125492774
 40
0.1741994859485835
 40
0.2237246639590645
 40
0.2690284504243911
 40
0.3107650011525418
 40
0.3481152575356891
 40
0.3823781144346327
 40
0.4147531609533663
 40
0.4471954319285633
 40
0.4800445791734138
 40
0.5137386411999469
 40
0.5479625035502665
 40
0.5829178144656934
 40
0.6193151011155167
 40
0.6571235452560972
 40
0.695686576425778
 40
0.7355137155615774
 40
0.7758232002862921
 40
0.8176522616681761
 40
0.860742583562421
 40
0.905386927472927
 40
0.9519981971377816
 40
1.0
 40
1.0
 40
1.0
 40
1.0
 10
13.02003205128205
 20
7.397435897435893
 30
0.0
 10
13.07580610238718
 20
7.397538098593205
 30
0.0
 10
13.18307816998658
 20
7.397734665441741
 30
0.0
 10
13.33795475338518
 20
7.407097313641337
 30
0.0
 10
13.48117632280012
 20
7.416494830618625
 30
0.0
 10
13.61234862301755
 20
7.434331632114322
 30
0.0
 10
13.73242628495061
 20
7.454200573814794
 30
0.0
 10
13.83975975614092
 20
7.481850926744054
 30
0.0
 10
13.93656164582427
 20
7.510895280129623
 30
0.0
 10
14.02164953744713
 20
7.547872341924127
 30
0.0
 10
14.09958311338297
 20
7.589492485907378
 30
0.0
 10
14.17174070287576
 20
7.638255309669799
 30
0.0
 10
14.24139297922803
 20
7.692404586391408
 30
0.0
 10
14.3072377370575
 20
7.753532923354689
 30
0.0
 10
14.36952418283589
 20
7.820830866548429
 30
0.0
 10
14.4278837906111
 20
7.894645172446776
 30
0.0
 10
14.48309550675229
 20
7.974750631274231
 30
0.0
 10
14.5337421508762
 20
8.061570780578691
 30
0.0
 10
14.58002332547218
 20
8.154188780016003
 30
0.0
 10
14.62107991346119
 20
8.251707489158942
 30
0.0
 10
14.65512188323918
 20
8.354939028960183
 30
0.0
 10
14.6834154843235
 20
8.462917027730166
 30
0.0
 10
14.70363447050052
 20
8.576581556727444
 30
0.0
 10
14.72036182517703
 20
8.69509071856275
 30
0.0
 10
14.72898526392254
 20
8.818914036558729
 30
0.0
 10
14.73016877710229
 20
8.903167560419439
 30
0.0
 10
14.73076923076923
 20
8.945913461538458
 30
0.0
  0
SPLINE
  5
E8
330
1F
100
AcDbEntity
  8
0
  6
Continuous
 62
     7
370
    25
100
AcDbSpline
210
0.0
220
0.0
230
1.0
 70
     8
 71
     3
 72
    15
 73
    11
 74
     0
 42
0.000000001
 43
0.00000001
 40
0.0
 40
0.0
 40
0.0
 40
0.0
 40
0.1422766862527805
 40
0.2774285141643549
 40
0.4064771515299085
 40
0.5305950716916268
 40
0.6501429215018534
 40
0.7668506965409353
 40
0.883502092643247
 40
1.0
 40
1.0
 40
1.0
 40
1.0
 10
14.73076923076923
 20
8.945913461538458
 30
0.0
 10
14.72957333088137
 20
9.011417514056618
 30
0.0
 10
14.72724141876199
 20
9.13914534101465
 30
0.0
 10
14.70475296289693
 20
9.325183708936173
 30
0.0
 10
14.66814604667373
 20
9.500366702173933
 30
0.0
 10
14.61591150424215
 20
9.664044169607903
 30
0.0
 10
14.550068244647
 20
9.816676130876836
 30
0.0
 10
14.46765005665944
 20
9.956969469900953
 30
0.0
 10
14.37220390177753
 20
10.0872809216274
 30
0.0
 10
14.29672768660519
 20
10.16372580042928
 30
0.0
 10
14.25901442307692
 20
10.20192307692307
 30
0.0
  0
SPLINE
  5
E9
330
1F
100
AcDbEntity
  8
0
  6
Continuous
 62
     7
370
    25
100
AcDbSpline
210
0.0
220
0.0
230
1.0
 70
     8
 71
     3
 72
    15
 73
    11
 74
     0
 42
0.000000001
 43
0.00000001
 40
0.0
 40
0.0
 40
0.0
 40
0.0
 40
0.1016634760927245
 40
0.2076361382691226
 40
0.3187445673333755
 40
0.436679941563701
 40
0.5635066463765688
 40
0.698681207653684
 40
0.8444465558739925
 40
1.0
 40
1.0
 40
1.0
 40
1.0
 10
14.25901442307692
 20
10.20192307692307
 30
0.0
 10
14.22182557426963
 20
10.23447232029578
 30
0.0
 10
14.14587156158196
 20
10.30095046423931
 30
0.0
 10
14.01252127497943
 20
10.38060828142757
 30
0.0
 10
13.86557616559231
 20
10.45059548160622
 30
0.0
 10
13.70167456972124
 20
10.50608752628246
 30
0.0
 10
13.52240052363709
 20
10.54997300082749
 30
0.0
 10
13.32668626741054
 20
10.5802397395677
 30
0.0
 10
13.11557989322812
 20
10.59968882499206
 30
0.0
 10
12.96933031606902
 20
10.60158514325459
 30
0.0
 10
12.89383012820512
 20
10.6025641025641
 30
0.0
  0
MTEXT
  5
EB
330
1F
100
AcDbEntity
  8
0
  6
Continuous
 62
     7
100
AcDbMText
 10
-32.25
 20
-18.5195663917
 30
0.0
 40
4.83362
 41
0.0
 71
     1
 72
     1
  1
SOLIDWORKS Educational Product.
  7
SLDTEXTSTYLE0
 73
     1
 44
1.0
  0
MTEXT
  5
EC
330
1F
100
AcDbEntity
  8
0
  6
Continuous
 62
     7
100
AcDbMText
 10
-32.25
 20
-25.7699963917
 30
0.0
 40
4.83362
 41
0.0
 71
     1
 72
     1
  1
For Instructional Use Only.
  7
SLDTEXTSTYLE0
 73
     1
 44
1.0
  0
ENDSEC
  0
SECTION
  2
OBJECTS
  0
DICTIONARY
  5
C
330
0
100
AcDbDictionary
281
     1
  3
ACAD_GROUP
350
D
  3
ACAD_LAYOUT
350
1A
  3
ACAD_MLINESTYLE
350
17
  3
ACAD_PLOTSETTINGS
350
19
  3
ACAD_PLOTSTYLENAME
350
E
  3
ACAD_SCALELIST
350
47
  0
DICTIONARY
  5
D
102
{ACAD_REACTORS
330
C
102
}
330
C
100
AcDbDictionary
281
     1
  0
DICTIONARY
  5
1A
102
{ACAD_REACTORS
330
C
102
}
330
C
100
AcDbDictionary
281
     1
  3
Layout1
350
1E
  3
Layout2
350
26
  3
Model
350
22
  0
DICTIONARY
  5
17
102
{ACAD_REACTORS
330
C
102
}
330
C
100
AcDbDictionary
281
     1
  3
Standard
350
18
  0
DICTIONARY
  5
19
102
{ACAD_REACTORS
330
C
102
}
330
C
100
AcDbDictionary
281
     1
  0
ACDBDICTIONARYWDFLT
  5
E
102
{ACAD_REACTORS
330
C
102
}
330
C
100
AcDbDictionary
281
     1
  3
Normal
350
F
100
AcDbDictionaryWithDefault
340
F
  0
DICTIONARY
  5
47
102
{ACAD_REACTORS
330
C
102
}
330
C
100
AcDbDictionary
281
     1
  3
A0
350
48
  3
A1
350
49
  3
A2
350
4A
  3
A3
350
4B
  3
A4
350
4C
  3
A5
350
4D
  3
A6
350
4E
  3
A7
350
4F
  3
A8
350
50
  3
A9
350
51
  3
B0
350
52
  3
B1
350
53
  3
B2
350
54
  3
B3
350
55
  3
B4
350
56
  3
B5
350
57
  3
B6
350
58
  3
B7
350
59
  3
B8
350
5A
  3
B9
350
5B
  3
C0
350
5C
  3
C1
350
5D
  3
C2
350
5E
  3
C3
350
5F
  3
C4
350
60
  3
C5
350
61
  3
C6
350
62
  3
C7
350
63
  3
C8
350
64
  3
C9
350
65
  3
D0
350
66
  3
D1
350
67
  3
D2
350
68
  0
LAYOUT
  5
1E
102
{ACAD_REACTORS
330
1A
102
}
330
1A
100
AcDbPlotSettings
  1

  2
none_device
  4

  6

 40
0.0
 41
0.0
 42
0.0
 43
0.0
 44
0.0
 45
0.0
 46
0.0
 47
0.0
 48
0.0
 49
0.0
140
0.0
141
0.0
142
1.0
143
1.0
 70
   688
 72
     1
 73
     0
 74
     5
  7

 75
    16
147
1.0
148
0.0
149
0.0
100
AcDbLayout
  1
Layout1
 70
     1
 71
     1
 10
0.0
 20
0.0
 11
420.0
 21
297.0
 12
0.0
 22
0.0
 32
0.0
 14
1.0000000000E+20
 24
1.0000000000E+20
 34
1.0000000000E+20
 15
-1.0000000000E+20
 25
-1.0000000000E+20
 35
-1.0000000000E+20
146
0.0
 13
0.0
 23
0.0
 33
0.0
 16
1.0
 26
0.0
 36
0.0
 17
0.0
 27
1.0
 37
0.0
 76
     0
330
1B
  0
LAYOUT
  5
26
102
{ACAD_REACTORS
330
1A
102
}
330
1A
100
AcDbPlotSettings
  1

  2
none_device
  4

  6

 40
0.0
 41
0.0
 42
0.0
 43
0.0
 44
0.0
 45
0.0
 46
0.0
 47
0.0
 48
0.0
 49
0.0
140
0.0
141
0.0
142
1.0
143
1.0
 70
   688
 72
     1
 73
     0
 74
     5
  7

 75
    16
147
1.0
148
0.0
149
0.0
100
AcDbLayout
  1
Layout2
 70
     1
 71
     2
 10
0.0
 20
0.0
 11
0.0
 21
0.0
 12
0.0
 22
0.0
 32
0.0
 14
0.0
 24
0.0
 34
0.0
 15
0.0
 25
0.0
 35
0.0
146
0.0
 13
0.0
 23
0.0
 33
0.0
 16
1.0
 26
0.0
 36
0.0
 17
0.0
 27
1.0
 37
0.0
 76
     0
330
23
  0
LAYOUT
  5
22
102
{ACAD_REACTORS
330
1A
102
}
330
1A
100
AcDbPlotSettings
  1

  2
none_device
  4
ANSI_A_(11.00_x_8.50_Inches)
  6

 40
6.35
 41
19.05
 42
6.35000508
 43
19.05000254
 44
279.4
 45
215.9
 46
133.34999746
 47
88.89999873
 48
0.0
 49
0.0
140
0.0
141
0.0
142
0.1688372093
143
1.0
 70
  1696
 72
     0
 73
     0
 74
     0
  7

 75
     0
147
0.0179189148
148
-1300.4909072572
149
0.0
100
AcDbLayout
  1
Model
 70
     1
 71
     0
 10
0.0
 20
0.0
 11
420.0
 21
297.0
 12
0.0
 22
0.0
 32
0.0
 14
-32.25
 24
-17.5
 34
0.0
 15
32.25
 25
17.5
 35
0.0
146
0.0
 13
0.0
 23
0.0
 33
0.0
 16
1.0
 26
0.0
 36
0.0
 17
0.0
 27
1.0
 37
0.0
 76
     0
330
1F
331
29
  0
MLINESTYLE
  5
18
102
{ACAD_REACTORS
330
17
102
}
330
17
100
AcDbMlineStyle
  2
Standard
 70
     0
  3

 62
   256
 51
90.0
 52
90.0
 71
     2
 49
0.5
 62
   256
  6
BYLAYER
 49
-0.5
 62
   256
  6
BYLAYER
  0
ACDBPLACEHOLDER
  5
F
102
{ACAD_REACTORS
330
E
102
}
330
E
  0
SCALE
  5
48
102
{ACAD_REACTORS
330
47
102
}
330
47
100
AcDbScale
 70
     0
300
1:1
140
1.0
141
1.0
290
     1
  0
SCALE
  5
49
102
{ACAD_REACTORS
330
47
102
}
330
47
100
AcDbScale
 70
     0
300
1:2
140
1.0
141
2.0
290
     0
  0
SCALE
  5
4A
102
{ACAD_REACTORS
330
47
102
}
330
47
100
AcDbScale
 70
     0
300
1:4
140
1.0
141
4.0
290
     0
  0
SCALE
  5
4B
102
{ACAD_REACTORS
330
47
102
}
330
47
100
AcDbScale
 70
     0
300
1:5
140
1.0
141
5.0
290
     0
  0
SCALE
  5
4C
102
{ACAD_REACTORS
330
47
102
}
330
47
100
AcDbScale
 70
     0
300
1:8
140
1.0
141
8.0
290
     0
  0
SCALE
  5
4D
102
{ACAD_REACTORS
330
47
102
}
330
47
100
AcDbScale
 70
     0
300
1:10
140
1.0
141
10.0
290
     0
  0
SCALE
  5
4E
102
{ACAD_REACTORS
330
47
102
}
330
47
100
AcDbScale
 70
     0
300
1:16
140
1.0
141
16.0
290
     0
  0
SCALE
  5
4F
102
{ACAD_REACTORS
330
47
102
}
330
47
100
AcDbScale
 70
     0
300
1:20
140
1.0
141
20.0
290
     0
  0
SCALE
  5
50
102
{ACAD_REACTORS
330
47
102
}
330
47
100
AcDbScale
 70
     0
300
1:30
140
1.0
141
30.0
290
     0
  0
SCALE
  5
51
102
{ACAD_REACTORS
330
47
102
}
330
47
100
AcDbScale
 70
     0
300
1:40
140
1.0
141
40.0
290
     0
  0
SCALE
  5
52
102
{ACAD_REACTORS
330
47
102
}
330
47
100
AcDbScale
 70
     0
300
1:50
140
1.0
141
50.0
290
     0
  0
SCALE
  5
53
102
{ACAD_REACTORS
330
47
102
}
330
47
100
AcDbScale
 70
     0
300
1:100
140
1.0
141
100.0
290
     0
  0
SCALE
  5
54
102
{ACAD_REACTORS
330
47
102
}
330
47
100
AcDbScale
 70
     0
300
2:1
140
2.0
141
1.0
290
     0
  0
SCALE
  5
55
102
{ACAD_REACTORS
330
47
102
}
330
47
100
AcDbScale
 70
     0
300
4:1
140
4.0
141
1.0
290
     0
  0
SCALE
  5
56
102
{ACAD_REACTORS
330
47
102
}
330
47
100
AcDbScale
 70
     0
300
8:1
140
8.0
141
1.0
290
     0
  0
SCALE
  5
57
102
{ACAD_REACTORS
330
47
102
}
330
47
100
AcDbScale
 70
     0
300
10:1
140
10.0
141
1.0
290
     0
  0
SCALE
  5
58
102
{ACAD_REACTORS
330
47
102
}
330
47
100
AcDbScale
 70
     0
300
100:1
140
100.0
141
1.0
290
     0
  0
SCALE
  5
59
102
{ACAD_REACTORS
330
47
102
}
330
47
100
AcDbScale
 70
     0
300
1/128" = 1'-0"
140
0.0078125
141
12.0
290
     0
  0
SCALE
  5
5A
102
{ACAD_REACTORS
330
47
102
}
330
47
100
AcDbScale
 70
     0
300
1/64" = 1'-0"
140
0.015625
141
12.0
290
     0
  0
SCALE
  5
5B
102
{ACAD_REACTORS
330
47
102
}
330
47
100
AcDbScale
 70
     0
300
1/32" = 1'-0"
140
0.03125
141
12.0
290
     0
  0
SCALE
  5
5C
102
{ACAD_REACTORS
330
47
102
}
330
47
100
AcDbScale
 70
     0
300
1/16" = 1'-0"
140
0.0625
141
12.0
290
     0
  0
SCALE
  5
5D
102
{ACAD_REACTORS
330
47
102
}
330
47
100
AcDbScale
 70
     0
300
3/32" = 1'-0"
140
0.09375
141
12.0
290
     0
  0
SCALE
  5
5E
102
{ACAD_REACTORS
330
47
102
}
330
47
100
AcDbScale
 70
     0
300
1/8" = 1'-0"
140
0.125
141
12.0
290
     0
  0
SCALE
  5
5F
102
{ACAD_REACTORS
330
47
102
}
330
47
100
AcDbScale
 70
     0
300
3/16" = 1'-0"
140
0.1875
141
12.0
290
     0
  0
SCALE
  5
60
102
{ACAD_REACTORS
330
47
102
}
330
47
100
AcDbScale
 70
     0
300
1/4" = 1'-0"
140
0.25
141
12.0
290
     0
  0
SCALE
  5
61
102
{ACAD_REACTORS
330
47
102
}
330
47
100
AcDbScale
 70
     0
300
3/8" = 1'-0"
140
0.375
141
12.0
290
     0
  0
SCALE
  5
62
102
{ACAD_REACTORS
330
47
102
}
330
47
100
AcDbScale
 70
     0
300
1/2" = 1'-0"
140
0.5
141
12.0
290
     0
  0
SCALE
  5
63
102
{ACAD_REACTORS
330
47
102
}
330
47
100
AcDbScale
 70
     0
300
3/4" = 1'-0"
140
0.75
141
12.0
290
     0
  0
SCALE
  5
64
102
{ACAD_REACTORS
330
47
102
}
330
47
100
AcDbScale
 70
     0
300
1" = 1'-0"
140
1.0
141
12.0
290
     0
  0
SCALE
  5
65
102
{ACAD_REACTORS
330
47
102
}
330
47
100
AcDbScale
 70
     0
300
1-1/2" = 1'-0"
140
1.5
141
12.0
290
     0
  0
SCALE
  5
66
102
{ACAD_REACTORS
330
47
102
}
330
47
100
AcDbScale
 70
     0
300
3" = 1'-0"
140
3.0
141
12.0
290
     0
  0
SCALE
  5
67
102
{ACAD_REACTORS
330
47
102
}
330
47
100
AcDbScale
 70
     0
300
6" = 1'-0"
140
6.0
141
12.0
290
     0
  0
SCALE
  5
68
102
{ACAD_REACTORS
330
47
102
}
330
47
100
AcDbScale
 70
     0
300
1'-0" = 1'-0"
140
12.0
141
12.0
290
     0
  0
ENDSEC
  0
EOF
